<svg xmlns="http://www.w3.org/2000/svg" viewBox="0 0 549.15 80.5"><defs><style>.cls-1{fill:#ff6592;}</style></defs><title>main-index</title><g id="レイヤー_2" data-name="レイヤー 2"><g id="レイヤー_1-2" data-name="レイヤー 1"><g id="レイヤー_13" data-name="レイヤー 13"><path class="cls-1" d="M20.55,13.39a22.89,22.89,0,0,1-2.73,5.48l3.53,2.69-1.65,1.93-3.36-2.66q-.94,1.16-2,2.26t-2.22,2.26Q11,26.49,9.43,27.77T6,30.55L4.27,28.49Q6.19,27,7.68,25.78t2.66-2.35q1.17-1.1,2.1-2.12t1.73-2l-2.35-1.71L9.68,16.08q-1.14-.79-2-1.38l1.57-2q.91.63,2,1.45t2.08,1.52q1.16.88,2.31,1.72a21.41,21.41,0,0,0,2.24-4.57,15.84,15.84,0,0,0,.84-4.67H10Q9.49,9.1,8.85,10a23.16,23.16,0,0,1-1.57,2Q6.34,13.16,5,14.49t-3.17,3L0,15.61q3-2.76,4.74-4.73A21.23,21.23,0,0,0,7.4,7.37a9.55,9.55,0,0,0,1.15-3,16.51,16.51,0,0,0,.26-3h2.73a22.07,22.07,0,0,1-.1,2.42,11.87,11.87,0,0,1-.39,1.89h10.4v2.1A17.76,17.76,0,0,1,20.55,13.39Z"/><path class="cls-1" d="M34.16,14.49H60v2.66H34.16Z"/><path class="cls-1" d="M91.61,13.44A20.36,20.36,0,0,1,88.87,19a33.5,33.5,0,0,1-4.53,5.16Q81.62,26.71,78,29.78l-1.85-2.1q3.57-3.08,6.09-5.49A34,34,0,0,0,86.4,17.5a17.16,17.16,0,0,0,2.42-4.71,19.31,19.31,0,0,0,.86-5.51H71.85V4.55H92.54V6.61A22.75,22.75,0,0,1,91.61,13.44Z"/><path class="cls-1" d="M115.19,4.83q-.14.95-.28,2H121V9.31h-6.4v.11q-.42,2.94-.73,6.09h6.3V18h-6.54q-.07.53-.1,1.31t0,1.59a9.79,9.79,0,0,0,.65,3.68,5,5,0,0,0,4,3.34,7.19,7.19,0,0,0,2.45,0,5.93,5.93,0,0,0,2.28-.86,4.36,4.36,0,0,0,1.61-1.82,5.61,5.61,0,0,0,.54-2,8.09,8.09,0,0,0-.09-2,12.42,12.42,0,0,0-.53-2q-.35-1-.73-1.94l2.35-1q.49,1.16.93,2.47a13.28,13.28,0,0,1,.6,2.66,10.3,10.3,0,0,1,0,2.68,7.15,7.15,0,0,1-.93,2.59,7.3,7.3,0,0,1-2.89,2.73,8.9,8.9,0,0,1-3.78,1,9.14,9.14,0,0,1-3.85-.67,7.91,7.91,0,0,1-4.11-4,11.3,11.3,0,0,1-.93-3.38,13.89,13.89,0,0,1-.09-1.5q0-.8,0-1.59T111,18h-4.65V15.5h4.9q.14-1.47.33-3.08T112,9.31h-4.45V6.79h4.8l.94-6.2h2.52l-.31,2.35Z"/><path class="cls-1" d="M144.69,28.35v2.28H142.1V2.8H162V30.63h-2.55V28.35Zm0-23.2v9h14.73v-9Zm0,11.34V26h14.73V16.48Z"/><path class="cls-1" d="M179.76,5.88q-.53-1.05-1.1-2A19.15,19.15,0,0,0,177.42,2L179.58.73a23.93,23.93,0,0,1,1.47,2.06q.66,1.05,1.23,2.13l-1.54.95h5V0h2.52V5.88h2.84q.73-1.22,1.4-2.57T193.62.67l2.52,1.08q-.42.94-1,2t-1.28,2.08h6.69V12.6h-2.45V8H176V12.6h-2.41V5.88ZM195.65,10v7.28h-7.42v2.48h10.5v7.31a2.36,2.36,0,0,1-.8,2,3.58,3.58,0,0,1-2.17.6q-.95,0-1.85,0a16.14,16.14,0,0,1-1.82-.17l-.38-2.59a14.47,14.47,0,0,0,1.75.3,16.47,16.47,0,0,0,1.71.09q1.16,0,1.16-1.26V21.88h-8.09v9.66h-2.52V21.88h-7.77v8.26h-2.45V19.77h10.22V17.29h-7.24V10Zm-14.74,5.25H193.2V12.11H180.92Z"/><path class="cls-1" d="M220.19,4.83q-.14.95-.28,2H226V9.31h-6.4v.11q-.42,2.94-.73,6.09h6.3V18h-6.54q-.07.53-.1,1.31t0,1.59a9.79,9.79,0,0,0,.65,3.68,5,5,0,0,0,4,3.34,7.19,7.19,0,0,0,2.45,0,5.93,5.93,0,0,0,2.28-.86,4.36,4.36,0,0,0,1.61-1.82,5.61,5.61,0,0,0,.54-2,8.09,8.09,0,0,0-.09-2,12.42,12.42,0,0,0-.53-2q-.35-1-.73-1.94l2.35-1q.49,1.16.93,2.47a13.28,13.28,0,0,1,.6,2.66,10.3,10.3,0,0,1,0,2.68,7.15,7.15,0,0,1-.93,2.59,7.3,7.3,0,0,1-2.89,2.73,8.9,8.9,0,0,1-3.78,1,9.14,9.14,0,0,1-3.85-.67,7.91,7.91,0,0,1-4.11-4,11.3,11.3,0,0,1-.93-3.38,13.89,13.89,0,0,1-.09-1.5q0-.8,0-1.59T216,18h-4.65V15.5h4.9q.14-1.47.33-3.08T217,9.31h-4.45V6.79h4.8l.94-6.2h2.52l-.31,2.35Z"/><path class="cls-1" d="M267.28,22.91a11.19,11.19,0,0,1-.47,2.36,6.22,6.22,0,0,1-1.29,2.36,5.14,5.14,0,0,1-1.85,1.28,7.93,7.93,0,0,1-2.29.52q-1.24.11-2.64.11V27a15.27,15.27,0,0,0,2.59-.18,4.64,4.64,0,0,0,1.54-.51,2.18,2.18,0,0,0,.82-.81,6.5,6.5,0,0,0,.47-1.1,8.31,8.31,0,0,0,.37-1.73q.12-1,.19-3.1V11.44h-8.29v.21q0,1.78-.12,3.2a18.24,18.24,0,0,1-.42,2.66,15.25,15.25,0,0,1-.81,2.43q-.51,1.19-1.26,2.56t-1.8,3l-2.42,3.83-2.24-1.47,2.33-3.68q1-1.57,1.7-2.83a25.11,25.11,0,0,0,1.16-2.33,13.54,13.54,0,0,0,.72-2.17,14.6,14.6,0,0,0,.35-2.36q.09-1.26.09-2.87v-.21h-7.77V9h7.81V1.43h2.73V9h11v10.6Q267.4,21.63,267.28,22.91Z"/><path class="cls-1" d="M286.86,2.66V17.85h-2.59V2.66Zm10.43,8.85V2.66h2.77v8.85q0,2.8-.18,4.88a24.51,24.51,0,0,1-.58,3.73,12.32,12.32,0,0,1-1.1,2.94,12.87,12.87,0,0,1-1.75,2.47A23.16,23.16,0,0,1,294,27.9q-1.44,1.19-3.32,2.63L289,28.28q1.71-1.29,3-2.35a21.23,21.23,0,0,0,2.21-2.06,10,10,0,0,0,2.47-4.64,20.13,20.13,0,0,0,.49-3.29Q297.29,14.07,297.29,11.51Z"/><path class="cls-1" d="M336.61,13.44A20.34,20.34,0,0,1,333.87,19a33.55,33.55,0,0,1-4.53,5.16q-2.71,2.56-6.32,5.63l-1.86-2.1q3.57-3.08,6.09-5.49a34,34,0,0,0,4.15-4.69,17.16,17.16,0,0,0,2.42-4.71,19.3,19.3,0,0,0,.86-5.51H316.86V4.55h20.68V6.61A22.73,22.73,0,0,1,336.61,13.44Z"/><path class="cls-1" d="M362.6,18.67a10.88,10.88,0,0,1-1.84,3.2,17.16,17.16,0,0,1-3,2.82,48.05,48.05,0,0,1-4.22,2.78l-1.33-2.06Q354.44,24,356,22.89a15.09,15.09,0,0,0,2.63-2.36,8.43,8.43,0,0,0,1.54-2.61,11.48,11.48,0,0,0,.61-3.25h-8V12.49H365V6.93h2.56v5.56h4.3v2.17h-4.3V30H365V14.67h-1.71A13.53,13.53,0,0,1,362.6,18.67Z"/><path class="cls-1" d="M392,11q0,3-.21,5.18a19.55,19.55,0,0,1-.86,4.2A20.23,20.23,0,0,1,389,24.43a54.2,54.2,0,0,1-3.22,4.73l-2.24-1.61q1.85-2.52,3-4.41a19,19,0,0,0,1.71-3.67A16.48,16.48,0,0,0,389,15.7q.17-2,.17-4.67V7H392Zm7.46,15.47a11.22,11.22,0,0,0,2.77-.37,5.86,5.86,0,0,0,2.22-1.21,11.55,11.55,0,0,0,2-2.34q1-1.47,2.22-3.75l2.31,1.4a37.63,37.63,0,0,1-2.59,4.25,12.76,12.76,0,0,1-2.55,2.71,8.25,8.25,0,0,1-2.91,1.44,14.49,14.49,0,0,1-3.71.42h-2.52V3.6h2.73Z"/><path class="cls-1" d="M444.75,24.25V27H419.48V24.25ZM423.25,9.48V6.82h17.61V9.48Z"/><path class="cls-1" d="M468.9,14.59q2.31-1.29,3.69-2.15a14.17,14.17,0,0,0,2.13-1.56,3.73,3.73,0,0,0,1-1.35A4.41,4.41,0,0,0,476,8V7.1l-20.44,0V4.55h23.24V8a6.61,6.61,0,0,1-.49,2.66,6.22,6.22,0,0,1-1.54,2.08,17.89,17.89,0,0,1-2.66,2q-1.61,1-3.82,2.26ZM458.75,28.17q1.37-1.57,2.34-2.77a18.57,18.57,0,0,0,1.65-2.31,12.83,12.83,0,0,0,1.08-2.33,14.18,14.18,0,0,0,.63-2.78q.21-1.57.28-3.69t.07-5.06h2.8q0,3.22-.12,5.58A33.87,33.87,0,0,1,467,19a17.7,17.7,0,0,1-.82,3.12A15.93,15.93,0,0,1,465,24.64a19.94,19.94,0,0,1-1.77,2.47l-2.36,2.82Z"/><path class="cls-1" d="M487.38,29a39.4,39.4,0,0,0,3.19-5.08q1.4-2.66,2.59-5.5l1.82,2q-1.15,2.76-2.48,5.46a44.38,44.38,0,0,1-3.12,5.32Zm5.57-13A27.88,27.88,0,0,0,488,11.27l1.61-2a24.84,24.84,0,0,1,2.7,2.21A34.35,34.35,0,0,1,494.69,14L493,16Zm1-8q-1.09-1.29-2.24-2.47a26.82,26.82,0,0,0-2.49-2.22l1.58-2a33.28,33.28,0,0,1,2.59,2.13,25.34,25.34,0,0,1,2.31,2.42L494,8Zm7.21,10.46q0,1-.05,2.12t-.18,2.31a20.25,20.25,0,0,1-.37,2.28,11.6,11.6,0,0,1-.63,2,8.67,8.67,0,0,1-1.73,2.66,14.59,14.59,0,0,1-2.47,2.06l-1.58-2a10,10,0,0,0,2.57-2.43,9.77,9.77,0,0,0,1.38-2.82,14,14,0,0,0,.56-3.15q.1-1.64.1-3.43V16.8h2.38Zm4.06-11.38q-.6,1.4-1.28,2.85t-1.38,2.78h.31q1.29,0,2.56-.07t2.55-.17l1.44-.12,1.43-.09-1.45-1.68-1.45-1.68,1.75-1.22A44.66,44.66,0,0,1,512.82,11q1.47,1.73,2.87,3.59l-2,1.71L513,15.14q-.37-.58-.75-1.14-3.82.56-7.65.8t-7.75.42l-.7-2.34,1.31-.07q.65,0,1.31,0h1.19q.66-1.33,1.35-2.83t1.17-2.87h-6.19V4.9h8.12V0h2.52V4.9h9.28V7.07Zm-1.33,10.19h2.38V30h-2.38Zm7.77,10.22a.75.75,0,0,0,.39.77,2.08,2.08,0,0,0,.88.18,1.26,1.26,0,0,0,1.36-1.16,10.28,10.28,0,0,0,.21-1.68q0-.84,0-1.68v-.28l2.38,1q0,.35-.07,1t-.11,1.42q-.07.74-.17,1.42a4.27,4.27,0,0,1-.25,1,1.92,1.92,0,0,1-1.47,1.19,6.26,6.26,0,0,1-1.26.16l-1.26,0a9.86,9.86,0,0,1-1.22-.07,2.27,2.27,0,0,1-.95-.31,1.72,1.72,0,0,1-.61-.7,2.76,2.76,0,0,1-.23-1.23V16.66h2.34Z"/><path class="cls-1" d="M528.46,21.07q0,1.54.09,2.45a6.87,6.87,0,0,0,.32,1.57,4.43,4.43,0,0,0,.68,1.26q.46.6,1.19,1.5l-2.13,1.57q-.88-1.15-1.4-2a7.62,7.62,0,0,1-.8-1.72,8.66,8.66,0,0,1-.37-1.94q-.09-1.07-.09-2.71V3.5h2.52Zm9.1-1.82a18.66,18.66,0,0,0-.05,2.87,4.49,4.49,0,0,0,.53,1.94,2.67,2.67,0,0,0,1.26,1.12,5.43,5.43,0,0,0,2.19.37h7.67V28.1h-7.84a7.94,7.94,0,0,1-3.33-.61,4.87,4.87,0,0,1-2.08-1.75,6.61,6.61,0,0,1-1-2.78,15.65,15.65,0,0,1,0-3.71ZM536,6.75h12.32V9.38H536Z"/><path class="cls-1" d="M109.8,74.93A2.9,2.9,0,0,0,110,76a1.44,1.44,0,0,0,.67.73,4.6,4.6,0,0,0,1.29.21q1,.07,2.1.1t2.15,0h2.56l1.75,0,2,0,1.94-.05q.91,0,1.59-.1a3.09,3.09,0,0,0,.89-.18,1.5,1.5,0,0,0,.75-.59,4.67,4.67,0,0,0,.37-1,8.76,8.76,0,0,0,.21-1.54q0-.77,0-1.54v-.28l2.48,1q0,.53-.1,1.38t-.23,1.72a9,9,0,0,1-.46,1.63,2.81,2.81,0,0,1-.75,1.15,2.84,2.84,0,0,1-1,.37,18.28,18.28,0,0,1-1.82.26q-1,.11-2.24.16t-2.28.07l-2,0h-2.59q-.82,0-1.82,0l-2.08-.07q-1.09,0-2-.12t-1.7-.21a3.54,3.54,0,0,1-1-.3,2.77,2.77,0,0,1-.86-1.21,4.29,4.29,0,0,1-.26-1.49V61.07q-1.37,1.47-2.83,2.83l-1.5-2a26.15,26.15,0,0,0,5.13-5.76,36.7,36.7,0,0,0,3.55-7l2.38.6L113.23,52h8.47l1.36,1.2q-.7,1.2-1.59,2.6t-1.94,2.88h8.36V70.45h-2.34V68.81H109.8Zm2.41-20.79q-.56,1-1.31,2.24t-1.56,2.35H117q.7-.92,1.49-2.19t1.38-2.4ZM109.8,66.64h6.54V60.83H109.8Zm8.78-5.81v5.81h7V60.83Z"/><path class="cls-1" d="M151.13,61.42a4.62,4.62,0,0,1,3,.77,4.92,4.92,0,0,1,1.72,2.48q1.36-.59,2.8-1.15l3.33-1.33,1,2.27-3.55,1.44q-1.63.67-3.06,1.29v5.18h-2.52v-4.2l-2.31,1.26a13.25,13.25,0,0,0-2.17,1.45,5.51,5.51,0,0,0-1.42,1.72,2.45,2.45,0,0,0-.05,2A2.35,2.35,0,0,0,149,76a6.26,6.26,0,0,0,1.73.63,9.86,9.86,0,0,0,1.82.21l1.38,0a30.56,30.56,0,0,0,3.38-.19l3.31-.37.1,2.49q-1.72.21-3.41.38a34.3,34.3,0,0,1-3.52.17,13.78,13.78,0,0,1-5.51-.84,5.07,5.07,0,0,1-2.78-2.66,4.92,4.92,0,0,1-.42-2.36,4.86,4.86,0,0,1,.68-2.06,7.54,7.54,0,0,1,1.49-1.77,18.83,18.83,0,0,1,2-1.52,23.4,23.4,0,0,1,2.21-1.31q1.14-.59,2.12-1.15a3.75,3.75,0,0,0-.49-1,2.4,2.4,0,0,0-.6-.6,1.62,1.62,0,0,0-.66-.26,4.48,4.48,0,0,0-.67-.05h-4.41l1-7.67h-6.09V53.65h6.44l.56-4.2h2.63l-.59,4.2h8.89V56h-9.24l-.7,5.39Z"/><path class="cls-1" d="M184.94,52.57a12.13,12.13,0,0,0,.51-1.75q.19-.91.33-1.82l2.73.52q-.28.77-.6,1.54t-.7,1.5h5.6V65.38H188.2v2.69h13.26v2.17H189.95a36.25,36.25,0,0,0,5.72,4,37.58,37.58,0,0,0,6.39,2.87l-1.61,2.42A46.94,46.94,0,0,1,193.81,76a26.71,26.71,0,0,1-5.62-4.79V80.5h-2.49V71.36a23.53,23.53,0,0,1-5.27,5.11A41.18,41.18,0,0,1,174,80.18L172.41,78a28.22,28.22,0,0,0,6.32-3.13,27,27,0,0,0,5.3-4.64H172.73V68.07h13V65.38H181.3V52.57ZM172.48,64.71a37.44,37.44,0,0,0,3.83-2.47,46.13,46.13,0,0,0,3.59-2.92l1.08,2a34.52,34.52,0,0,1-3.38,2.9q-1.77,1.33-3.66,2.52Zm6.3-6.27a37.23,37.23,0,0,0-2.54-2.82,27.61,27.61,0,0,0-2.89-2.5L175,51.42a25.82,25.82,0,0,1,2.94,2.43,34.57,34.57,0,0,1,2.59,2.78l-1.68,1.82Zm4.76-3.85v3.29h7.1V54.6Zm0,5.22v3.53h7.1V59.81ZM200.34,66a35.84,35.84,0,0,0-3.36-2.9q-1.75-1.33-3.64-2.56l1.44-1.75q1.92,1.23,3.8,2.5A41.26,41.26,0,0,1,202.16,64l-1.75,2Zm-6.86-9.45a34.4,34.4,0,0,0,2.78-2.59A28.78,28.78,0,0,0,198.73,51l2.14,1.61a41.82,41.82,0,0,1-5.67,5.46Z"/><path class="cls-1" d="M227.69,77.05A12.42,12.42,0,0,1,221.27,79a8.29,8.29,0,0,1-2.76-.45,6.44,6.44,0,0,1-2.28-1.37,6.26,6.26,0,0,1-1.54-2.31,8.72,8.72,0,0,1-.56-3.25V51.48h2.76V71.61a5.69,5.69,0,0,0,1,3.52,3.81,3.81,0,0,0,3.25,1.35,8.71,8.71,0,0,0,2.28-.33A10.87,10.87,0,0,0,226.07,75,17.46,17.46,0,0,0,229,72.76a27,27,0,0,0,3.17-3.57L234,70.91A22.92,22.92,0,0,1,227.69,77.05Z"/><path class="cls-1" d="M268.08,78.63q-.54.12-1.12.21t-1.12.14q-.54.05-1,.05a8.77,8.77,0,0,1-1.79-.17,10.29,10.29,0,0,1-1.65-.49,4.57,4.57,0,0,1-2.27-2.15,8.14,8.14,0,0,1-.81-3.83V69.26a2.78,2.78,0,0,0-.38-1.68,1.85,1.85,0,0,0-1.51-.49h-3.92L247.7,78.92l-2.38-1,11-26.88,2.38.94-5.11,12.77h2.94A4.76,4.76,0,0,1,260,66a4.71,4.71,0,0,1,1.21,3.5v3.26a7.36,7.36,0,0,0,.12,1.49,3.56,3.56,0,0,0,.33,1,1.83,1.83,0,0,0,.46.58,2.18,2.18,0,0,0,.49.3,5.86,5.86,0,0,0,2.42.46,11.65,11.65,0,0,0,1.94-.17l2.15-.39V78.4Z"/><path class="cls-1" d="M297.43,56.1a25.39,25.39,0,0,1-1.79,2.34q-1.12,1.33-2.24,2.91a28.23,28.23,0,0,0-2,3.36,11.63,11.63,0,0,0-1.21,3.64,8.44,8.44,0,0,0,.09,3.32,5.46,5.46,0,0,0,1.28,2.42,5.6,5.6,0,0,0,2.33,1.47,10,10,0,0,0,3.27.49l1,0q.68,0,1.7-.12v2.41q-1.89.11-2.73.1a13.18,13.18,0,0,1-4.57-.72,8.12,8.12,0,0,1-3.18-2,7.17,7.17,0,0,1-1.71-3.27,11.77,11.77,0,0,1-.12-4.43,11,11,0,0,1,.82-3,19.51,19.51,0,0,1,1.52-2.8q.91-1.4,2.08-2.89l2.54-3.2H280.14V53.69h22.61V56.1Zm1.08,9.69h-2V60.48h2Zm4.38,0h-2V60.51h2Z"/><path class="cls-1" d="M319.06,69.51a31.27,31.27,0,0,1-2.64,3.34,33.41,33.41,0,0,1-3.06,3l-1.54-2.13a24.22,24.22,0,0,0,4.76-4.76,33.2,33.2,0,0,0,3.5-5.81h-7.84v-2h13.47V58.66h-11V56.73h11V54.53h-12V52.6l7.42,0q-.39-.7-.79-1.35a9.33,9.33,0,0,0-.86-1.17l2.38-1a27.54,27.54,0,0,1,2,3.54h6A15.35,15.35,0,0,0,331,50.8a20.49,20.49,0,0,0,.88-1.94l2.56.92q-.46.74-.93,1.43l-1,1.4h7.91v1.92H328.16v2.21h11.17v1.92H328.16v2.42h13.68v2H322.63l-1,2.13h16.17V80.5h-2.42V79.2H321.48v1.3h-2.42Zm2.42-.28h13.89V67.17H321.48Zm0,4h13.89v-2.1H321.48Zm0,4.1h13.89V75H321.48Z"/><path class="cls-1" d="M360.75,78.08a13.07,13.07,0,0,1-4.36-.63,6.71,6.71,0,0,1-2.89-1.92,6.09,6.09,0,0,1-1.1-1.77,7.78,7.78,0,0,1-.49-1.92,11.2,11.2,0,0,1-.07-2q.05-1,.19-1.93h2.7a12.75,12.75,0,0,0-.11,3.59,5.17,5.17,0,0,0,.91,2.36q1.37,1.57,5.21,1.58h11.41v2.63Zm11-20.9q-2.77,0-4.85,0T363.21,57a27.47,27.47,0,0,1-2.82-.31,16,16,0,0,1-2.29-.56,15.21,15.21,0,0,1-2.08-.86q-1-.51-2.21-1.24l1.37-2.28q1,.63,1.89,1.07a14.72,14.72,0,0,0,1.79.75,11.83,11.83,0,0,0,2,.49q1.08.18,2.59.28t3.52.14q2,0,4.78,0Z"/><path class="cls-1" d="M383.84,72.27a80.84,80.84,0,0,0,6.37-15.16h-4.34V54.67H391l.72-2.66q.33-1.22.54-1.92l2.52.59q-.17.53-.44,1.59t-.65,2.4h4.66v2.45h-5.42a87.31,87.31,0,0,1-3,8.52q-1.7,4.08-3.76,7.93Zm22.89-9.94a2.6,2.6,0,0,0-2.19,1.19,6.1,6.1,0,0,0-.79,3.71v4.38a26,26,0,0,1,3.08,1.4q1.5.81,3.54,2l-1.26,2.13-1.63-1-1.35-.77q-.63-.35-1.21-.63l-1.17-.56A4.85,4.85,0,0,1,402.46,78a5.43,5.43,0,0,1-3.78,1.21,8.14,8.14,0,0,1-2.49-.4A6.67,6.67,0,0,1,394,77.67a4.6,4.6,0,0,1-1.38-1.84,3.31,3.31,0,0,1,.05-2.43,3.78,3.78,0,0,1,1.61-1.91,7.16,7.16,0,0,1,3-1q.56-.07,1-.09a7.63,7.63,0,0,1,.89,0c.29,0,.6.06.93.12l1.12.23V67.13a8,8,0,0,1,.38-2.91,6.08,6.08,0,0,1,1.22-2q-1.36,0-2.27.07a8.64,8.64,0,0,0-1.61.26,6.17,6.17,0,0,0-1.31.52q-.61.33-1.38.82L395,62a14.45,14.45,0,0,1,3.12-1.49,9.78,9.78,0,0,1,3.12-.39l7.88.14v2.06Zm-5.32,10.88a10.82,10.82,0,0,0-2.91-.46,7.73,7.73,0,0,0-1.07.09,6.51,6.51,0,0,0-1.14.26,2.21,2.21,0,0,0-1,.67,1.48,1.48,0,0,0,.17,2,3.55,3.55,0,0,0,1.16.67,6.48,6.48,0,0,0,1.28.31,7.51,7.51,0,0,0,.88.09,2.41,2.41,0,0,0,2.14-.79,4,4,0,0,0,.52-2.22Z"/><path class="cls-1" d="M436.66,57.15V67.72q0,1.58,0,2.75a16.29,16.29,0,0,1-.16,2.12,7.24,7.24,0,0,1-.49,1.77,10,10,0,0,1-.95,1.7,17.11,17.11,0,0,1-1.52,1.89q-.93,1-2.26,2.35l-1.93-1.68q1.44-1.4,2.33-2.35a15.25,15.25,0,0,0,1.42-1.7,5.58,5.58,0,0,0,.75-1.45,8.31,8.31,0,0,0,.33-1.65,3.61,3.61,0,0,1-1.21.73,4.1,4.1,0,0,1-1.59.14,5.24,5.24,0,0,1-2.13-.56,4.82,4.82,0,0,1-1.59-1.31,5.3,5.3,0,0,1-.95-1.92,7,7,0,0,1-.19-2.4,6.19,6.19,0,0,1,1.66-3.94,4.79,4.79,0,0,1,3.66-1.45,6,6,0,0,1,1.28.16,2.67,2.67,0,0,1,.89.47V57.15H419V54.81h15V50.36h2.63v4.44h8.12v2.35Zm-4.93,6a2.29,2.29,0,0,0-1.16.28,2.43,2.43,0,0,0-.8.74,3.66,3.66,0,0,0-.49,1,4.92,4.92,0,0,0-.21,1.14,4,4,0,0,0,0,1.17,3.7,3.7,0,0,0,.38,1.14,2.51,2.51,0,0,0,.77.88,2.24,2.24,0,0,0,1.23.38,2.47,2.47,0,0,0,1.29-.25,2.58,2.58,0,0,0,.86-.72,2.94,2.94,0,0,0,.49-1,5.58,5.58,0,0,0,.1-2.52,3.16,3.16,0,0,0-.46-1.15,2.53,2.53,0,0,0-.84-.81A2.35,2.35,0,0,0,431.73,63.17Z"/></g></g></g></svg>