<svg xmlns="http://www.w3.org/2000/svg" viewBox="0 0 574.33 202.22"><defs><style>.cls-1{fill:#ff6592;}</style></defs><title>main-text</title><g id="レイヤー_2" data-name="レイヤー 2"><g id="レイヤー_1-2" data-name="レイヤー 1"><g id="レイヤー_10" data-name="レイヤー 10"><g id="レイヤー_19" data-name="レイヤー 19"><path class="cls-1" d="M3.41,17.66H14.64V6.84H3.41V5.06H16.54V19.39H3.41ZM16.27,3.72H14.9V.1h1.37Zm3,0H17.9V.12h1.37Z"/><path class="cls-1" d="M28.44,7.92q0,2-.14,3.55a13.44,13.44,0,0,1-.59,2.88,13.88,13.88,0,0,1-1.28,2.78,36.83,36.83,0,0,1-2.21,3.24l-1.54-1.1q1.27-1.73,2-3a13.09,13.09,0,0,0,1.18-2.52,11.3,11.3,0,0,0,.53-2.58q.12-1.36.12-3.2V5.16h1.9Zm5.11,10.61a7.73,7.73,0,0,0,1.9-.25A4,4,0,0,0,37,17.45a7.94,7.94,0,0,0,1.39-1.61q.68-1,1.52-2.57l1.58,1a25.88,25.88,0,0,1-1.78,2.92A8.77,8.77,0,0,1,37.94,19a5.66,5.66,0,0,1-2,1,10,10,0,0,1-2.54.29H31.68V2.86h1.87Z"/><path class="cls-1" d="M57.48,9.6a14,14,0,0,1-1.88,3.8,23,23,0,0,1-3.11,3.54q-1.86,1.75-4.33,3.86l-1.27-1.44q2.45-2.11,4.18-3.77a23.3,23.3,0,0,0,2.84-3.22,11.78,11.78,0,0,0,1.66-3.23,13.25,13.25,0,0,0,.59-3.78H43.93V3.5H58.11V4.92A15.59,15.59,0,0,1,57.48,9.6Z"/><path class="cls-1" d="M78.71,10.92a12.14,12.14,0,0,1-1.31,3.43A18.05,18.05,0,0,1,75,17.57q-1.46,1.61-3.58,3.67L70.1,19.92q2-1.94,3.37-3.42a16.11,16.11,0,0,0,2.17-2.92,11,11,0,0,0,1.18-3,18.33,18.33,0,0,0,.38-3.77H66.65v4.42H64.73V5h6.43V1.34h1.92V5h6V6.6A20.62,20.62,0,0,1,78.71,10.92Z"/><path class="cls-1" d="M98.19,7.85V9.46H93.27v7.78h6.41v1.63H85V17.23H91.4V9.46H86.48V7.85Z"/><path class="cls-1" d="M113.71,10.39q1.58-.89,2.53-1.48a9.66,9.66,0,0,0,1.46-1.07,2.57,2.57,0,0,0,.68-.92,3,3,0,0,0,.17-1.07v-.6l-14,0V3.5h15.94V5.86a4.53,4.53,0,0,1-.34,1.82,4.28,4.28,0,0,1-1.06,1.43,12.29,12.29,0,0,1-1.82,1.34q-1.1.68-2.62,1.55Zm-7,9.31q.94-1.08,1.61-1.9a12.75,12.75,0,0,0,1.13-1.58,8.76,8.76,0,0,0,.74-1.6,9.78,9.78,0,0,0,.43-1.91q.14-1.08.19-2.53t0-3.47h1.92q0,2.21-.08,3.83a23.21,23.21,0,0,1-.3,2.83,12.16,12.16,0,0,1-.56,2.14,10.9,10.9,0,0,1-.85,1.76A13.65,13.65,0,0,1,109.81,19l-1.62,1.93Z"/><path class="cls-1" d="M133.69,18.46a13.22,13.22,0,0,0,2.17-.35,6.83,6.83,0,0,0,1.82-.74,6.47,6.47,0,0,0,1.5-1.24,7.84,7.84,0,0,0,1.2-1.82,6.39,6.39,0,0,0,.71-3.23,6.28,6.28,0,0,0-1-3.08,6,6,0,0,0-2-2,7,7,0,0,0-2.75-.94q-.07,1.66-.28,3.14a25.1,25.1,0,0,1-.56,2.88q-.14.62-.35,1.34t-.49,1.49q-.29.77-.65,1.55a9.94,9.94,0,0,1-.84,1.48,4.66,4.66,0,0,1-1.32,1.38,3.64,3.64,0,0,1-1.45.58A3.08,3.08,0,0,1,128,18.8a3.4,3.4,0,0,1-1.25-.73,4.5,4.5,0,0,1-.95-1.3,6.82,6.82,0,0,1-.52-1.45,8.26,8.26,0,0,1-.2-1.43q0-.7,0-1.2a9.73,9.73,0,0,1,1-4,9.7,9.7,0,0,1,8.56-5.27,8.74,8.74,0,0,1,4.07.95,7.7,7.7,0,0,1,3,2.68A7.9,7.9,0,0,1,142.94,11a8.32,8.32,0,0,1-.88,4.13,8.73,8.73,0,0,1-3.37,3.74,10.53,10.53,0,0,1-4.93,1.34Zm-1-7.8q.29-1.27.48-2.64t.26-2.88a7.75,7.75,0,0,0-2.21.72,7.63,7.63,0,0,0-2.08,1.51,8.23,8.23,0,0,0-1.58,2.32,8.32,8.32,0,0,0-.73,3.11,6.74,6.74,0,0,0,0,.76,7,7,0,0,0,.12,1.1,6.2,6.2,0,0,0,.35,1.19,3,3,0,0,0,.67,1,1.21,1.21,0,0,0,1.38.32,2.75,2.75,0,0,0,1.26-1.14,12,12,0,0,0,1.28-2.68Q132.42,11.93,132.73,10.66Z"/><path class="cls-1" d="M150.21,10.13q-.41.79-.92,1.6t-1.12,1.62l-1-1.51a23.65,23.65,0,0,0,2.92-5.23A36.08,36.08,0,0,0,151.89.84l1.75.46q-.36,1.3-.78,2.62t-.92,2.57V22h-1.73Zm7.39-2.45q-.19-1.68-.29-3.34T157.14,1h1.8q.07,1.66.16,3.28t.28,3.28L167,6.89l.1,1.68-7.58.62h0v.12l0,.1q.26,1,.52,2.16t.6,2.24a20,20,0,0,0,.8,2.15,7.89,7.89,0,0,0,1.13,1.85c.1.13.22.28.37.46a5.7,5.7,0,0,0,.49.5,4.21,4.21,0,0,0,.54.42,1,1,0,0,0,.52.18q.29,0,.52-.56a10,10,0,0,0,.41-1.27q.18-.71.29-1.36t.16-.84l1.58,1.34q-.1.41-.28,1.24a11.83,11.83,0,0,1-.49,1.66A6.11,6.11,0,0,1,166,21a1.32,1.32,0,0,1-1.08.62,1.6,1.6,0,0,1-.62-.14,4.25,4.25,0,0,1-.65-.35,6.53,6.53,0,0,1-.6-.44l-.5-.43A10.49,10.49,0,0,1,160.66,18a16.75,16.75,0,0,1-1.33-2.69,23.12,23.12,0,0,1-.91-2.88q-.36-1.46-.58-2.88a.52.52,0,0,0,0-.12.38.38,0,0,1,0-.1l-5.11.43-.1-1.66,5-.43Zm6.34-1.25a19.2,19.2,0,0,0-1.21-1.93,21.77,21.77,0,0,0-1.4-1.76l1.32-1.1q.82.89,1.5,1.75a20.38,20.38,0,0,1,1.26,1.78L164,6.43Z"/><path class="cls-1" d="M187.44,21.94V20.76h-9.19V22h-1.75V13.9q-1.08.6-2.2,1.12T172,16l-1.13-1.44q1.08-.36,2.22-.84t2.26-1.06q1.12-.58,2.17-1.21t2-1.28q-.7-.77-1.46-1.54T176.49,7.2a17.83,17.83,0,0,1-1.74,1.44,17.92,17.92,0,0,1-1.93,1.22l-1.15-1.27A18.73,18.73,0,0,0,179.61.43l1.66.44q-.19.39-.42.75t-.44.75l-.17.29h6.89l.94.86A36,36,0,0,1,184,8.45a27.89,27.89,0,0,1-5,4h10.2v9.48ZM179.23,4.1q-.38.53-.8,1t-.85,1q.84.67,1.69,1.42a19.69,19.69,0,0,1,1.6,1.56q1.27-1.13,2.45-2.36a23.48,23.48,0,0,0,2.16-2.63Zm-1,15.22h9.19V13.94h-9.19Z"/><path class="cls-1" d="M193.47,4.56h8.14V6h-8.14ZM194.24,22V14h6.6v6.79h-5.06V22Zm.34-20.59h6V2.83h-6Zm0,6.31h6V9.14h-6Zm0,3.14h6v1.44h-6Zm1.2,4.54v4h3.53v-4Zm16.94,4.22a2.21,2.21,0,0,1-.49,1.67,2.53,2.53,0,0,1-1.69.44q-.89,0-1.74-.06l-1.72-.11-.41,0-.34-1.75q1,.14,1.92.23t2,.08q.84,0,.84-1V3.38h-9.22V1.85h10.87ZM202.47,6h7.1V7.39h-7.1Zm.29,11.64V9.65h6.43V16.1h-4.9v1.49ZM204.3,11v3.67h3.36V11Z"/><path class="cls-1" d="M230.41,20.48q-.8.08-1.56.13t-1.44.06h-2.3a13.26,13.26,0,0,1-1.33-.1,13.81,13.81,0,0,1-1.43-.25,6.15,6.15,0,0,1-1.38-.49,4.65,4.65,0,0,1-1.18-.84,3.72,3.72,0,0,1-.84-1.28,4.1,4.1,0,0,1-.31-2,4,4,0,0,1,.7-1.76,7.89,7.89,0,0,1,1.57-1.64,27.15,27.15,0,0,1,2.29-1.64V1.22H225v8.3l1.15-.76,1.2-.76,1.34-.82,1.61-1,1,1.46-4.46,2.62q-1.66,1-3,1.84a14.37,14.37,0,0,0-2.11,1.64,4.55,4.55,0,0,0-1.12,1.56,2.11,2.11,0,0,0,0,1.61,2.08,2.08,0,0,0,.84,1.09,4.44,4.44,0,0,0,1.33.59,8.52,8.52,0,0,0,1.5.25l1.39.08a29.72,29.72,0,0,0,3-.06q1.51-.11,3.22-.32v1.68Q231.22,20.4,230.41,20.48Z"/><path class="cls-1" d="M249,19.62a8.51,8.51,0,0,1-4.4,1.33,5.68,5.68,0,0,1-1.9-.31,4.41,4.41,0,0,1-1.56-.94A4.3,4.3,0,0,1,240,18.12a6,6,0,0,1-.38-2.23V2.09h1.9v13.8a3.9,3.9,0,0,0,.7,2.41,2.61,2.61,0,0,0,2.23.92A6,6,0,0,0,246,19a7.44,7.44,0,0,0,1.8-.79,12,12,0,0,0,2-1.52A18.58,18.58,0,0,0,252,14.23l1.3,1.18A15.72,15.72,0,0,1,249,19.62Z"/><path class="cls-1" d="M267.15,6.86q-.77.91-1.54,2a19.4,19.4,0,0,0-1.4,2.3,8,8,0,0,0-.83,2.5,5.77,5.77,0,0,0,.06,2.28,3.75,3.75,0,0,0,.88,1.66,3.84,3.84,0,0,0,1.6,1,6.86,6.86,0,0,0,2.24.34l.7,0,1.13-.07V20.5q-1.3.07-1.87.07a9,9,0,0,1-3.13-.49,5.5,5.5,0,0,1-2.18-1.42,5,5,0,0,1-1.18-2.26,8.08,8.08,0,0,1-.08-3,7.55,7.55,0,0,1,.56-2,13.34,13.34,0,0,1,1-1.92q.62-1,1.43-2l1.74-2.2-9.79,0V3.6H272V5.26h-3.65A17.34,17.34,0,0,1,267.15,6.86Z"/><path class="cls-1" d="M293.34,20.66h-9V22h-1.68V14.86a18.7,18.7,0,0,1-2.12,2,22.29,22.29,0,0,1-2.36,1.62L277.09,17a16.09,16.09,0,0,0,3.67-2.52,12.62,12.62,0,0,0,2.71-3.55h-3.79V9.53h4.42q.22-.6.4-1.27T284.82,7H277.4V5.54h7.7q.12-.65.2-1.28T285.44,3h-5.66V1.61h14.14V5.54h3.41V7h-3.41v3.94h-8.64a13.44,13.44,0,0,1-.66,1.25q-.37.62-.78,1.2h11.23V22h-1.73Zm-9-5.81v4.32h9V14.86ZM286.5,7q-.14.62-.32,1.28t-.4,1.26h6.46V7Zm.65-4q-.07.62-.17,1.27t-.22,1.27h5.47V3Z"/><path class="cls-1" d="M306.49,14.3v4.78h2.79v1.49h-6.36V22h-1.54V2h7.9V3.43h-2.79V7.58h2.35V14.3ZM305,3.43h-2.09V7.58H305ZM307.38,9h-4.46v4h4.46ZM305,14.3h-2.09v4.78H305Zm6.91-9.72q-.38.86-.86,1.75A16.3,16.3,0,0,1,310,8.06l-1.15-1.15a14.27,14.27,0,0,0,1.66-3.06A24.82,24.82,0,0,0,311.53.48l1.58.43q-.15.58-.31,1.13t-.36,1.1h8.45V4.58ZM311.2,20.9V22h-1.49V13.34h4.94v8.52h-1.44v-1Zm0-6.17v4.78h2V14.74Zm.24-8.42H319v5.62h-7.51Zm6,1.39H313v2.83h4.44Zm-.21,13.2V22h-1.44V13.34h5V22h-1.46V20.9Zm0-6.17v4.78h2.09V14.74Z"/><path class="cls-1" d="M337.44,6v7.25q0,1.08,0,1.88a11,11,0,0,1-.11,1.45,4.89,4.89,0,0,1-.34,1.21,6.8,6.8,0,0,1-.65,1.16,11.79,11.79,0,0,1-1,1.3q-.64.7-1.55,1.61l-1.32-1.15q1-1,1.6-1.61a10.55,10.55,0,0,0,1-1.16,3.86,3.86,0,0,0,.52-1,5.61,5.61,0,0,0,.23-1.13,2.48,2.48,0,0,1-.83.5,2.82,2.82,0,0,1-1.09.1,3.59,3.59,0,0,1-1.46-.38,3.31,3.31,0,0,1-1.09-.9,3.62,3.62,0,0,1-.65-1.32,4.8,4.8,0,0,1-.13-1.64,4.25,4.25,0,0,1,1.14-2.7,3.28,3.28,0,0,1,2.51-1,4.12,4.12,0,0,1,.88.11,1.83,1.83,0,0,1,.61.32V6h-10.3V4.37h10.3v-3h1.8v3H343V6Zm-3.38,4.13a1.57,1.57,0,0,0-.79.19,1.66,1.66,0,0,0-.55.5,2.48,2.48,0,0,0-.34.71,3.34,3.34,0,0,0-.14.78,2.77,2.77,0,0,0,0,.8,2.59,2.59,0,0,0,.26.78,1.72,1.72,0,0,0,.53.6,1.54,1.54,0,0,0,.84.26,1.7,1.7,0,0,0,.89-.17,1.77,1.77,0,0,0,.59-.49,2,2,0,0,0,.34-.7,3.88,3.88,0,0,0,.13-.8,3.94,3.94,0,0,0-.06-.92,2.17,2.17,0,0,0-.31-.79,1.74,1.74,0,0,0-.58-.55A1.61,1.61,0,0,0,334.06,10.1Z"/><path class="cls-1" d="M352.2,10.54a12.88,12.88,0,0,1,1.94-.59,10.67,10.67,0,0,1,2.05-.25,8.7,8.7,0,0,1,2,.17,5.48,5.48,0,0,1,1.71.65A4.59,4.59,0,0,1,362,15.19a5.57,5.57,0,0,1-1.24,3.18,6.93,6.93,0,0,1-3,2.05,10,10,0,0,1-1.92.47,10.32,10.32,0,0,1-2.1.1,7.3,7.3,0,0,1-2-.38,3.81,3.81,0,0,1-1.54-.95,2.42,2.42,0,0,1-.77-1.36,2.26,2.26,0,0,1,.18-1.37,2.53,2.53,0,0,1,1-1.06,2.83,2.83,0,0,1,1.55-.42,4.34,4.34,0,0,1,2.72,1A5.66,5.66,0,0,1,356.67,19a3.82,3.82,0,0,0,.86-.29,4.5,4.5,0,0,0,1.1-.71,4.89,4.89,0,0,0,1-1.2,3.87,3.87,0,0,0,.52-1.76,3.17,3.17,0,0,0-1.32-3.19,4.34,4.34,0,0,0-2-.61,9.61,9.61,0,0,0-2.46.11,14.73,14.73,0,0,0-2.64.71,16.53,16.53,0,0,0-2.52,1.16l-1.08-1.18,8.45-8.35h-6.86V2.18h9.62v1.3Zm2.69,8.86a5.47,5.47,0,0,0-.47-.84,4,4,0,0,0-.64-.73,3.25,3.25,0,0,0-.79-.53,2.16,2.16,0,0,0-.94-.2.83.83,0,0,0-.61.2.75.75,0,0,0-.23.48,1.1,1.1,0,0,0,.12.58,1,1,0,0,0,.46.47,3.48,3.48,0,0,0,.8.35,5.77,5.77,0,0,0,.89.19,7.9,7.9,0,0,0,.82.07A2.44,2.44,0,0,0,354.89,19.39Z"/><path class="cls-1" d="M382.17,9.31a7.67,7.67,0,0,1-1.39,2.23,13.12,13.12,0,0,1-2.24,2q-1.33.95-3,2l.58.66.71.79.89,1,1.14,1.31-1.39,1.15q-3-3.53-5.12-5.59t-3.16-3l1.32-1.15,1.2,1,2.5,2.47q1.46-.91,2.66-1.72a13.19,13.19,0,0,0,2.05-1.67A6.79,6.79,0,0,0,380.21,9a5.18,5.18,0,0,0,.47-2.26H366.33V5.06h16.32V6.55A7.4,7.4,0,0,1,382.17,9.31Z"/><path class="cls-1" d="M395.82,4.2V6h-6.67V4.2ZM404.58,9q-1,1.92-1.92,3.49a30.34,30.34,0,0,1-1.79,2.82A14.31,14.31,0,0,1,399,17.54a9.2,9.2,0,0,1-2.33,1.55,12.08,12.08,0,0,1-3,.91,21.89,21.89,0,0,1-3.86.3V18.53A20.47,20.47,0,0,0,393,18.3a9.49,9.49,0,0,0,2.51-.74,8,8,0,0,0,2-1.32,12,12,0,0,0,1.71-2A31,31,0,0,0,401,11.58q.86-1.52,1.92-3.47Z"/><path class="cls-1" d="M417.27,3.48V5.35H411.1V3.48ZM411.1,9.86V8.06h6.17v1.8ZM426,8.38l-.46,1-.38.83-.29.61q-.63,1.27-1.25,2.47a25.1,25.1,0,0,1-1.33,2.27,13.89,13.89,0,0,1-1.55,1.94A9,9,0,0,1,418.86,19a9.18,9.18,0,0,1-2.41,1,12.19,12.19,0,0,1-3,.35h-1.75V18.62h1.75A8.64,8.64,0,0,0,417,18a7.68,7.68,0,0,0,2.51-1.8,13.45,13.45,0,0,0,1.92-2.71q.85-1.56,1.76-3.41.26-.48.47-.94t.37-.79c.13-.27.24-.52.34-.74Z"/><path class="cls-1" d="M437.79,4.2V6h-6.67V4.2ZM446.55,9q-1,1.92-1.92,3.49a30.34,30.34,0,0,1-1.79,2.82,14.3,14.3,0,0,1-1.92,2.18,9.17,9.17,0,0,1-2.33,1.55,12.05,12.05,0,0,1-3,.91,21.9,21.9,0,0,1-3.86.3V18.53A20.45,20.45,0,0,0,435,18.3a9.47,9.47,0,0,0,2.51-.74,8,8,0,0,0,2-1.32,12.15,12.15,0,0,0,1.72-2,31.2,31.2,0,0,0,1.69-2.69q.86-1.52,1.92-3.47Z"/><path class="cls-1" d="M453.74,19.66q3-1.87,5-3.5a24.21,24.21,0,0,0,3.4-3.17,10.93,10.93,0,0,0,1.92-3,9.23,9.23,0,0,0,.65-3.14h-6a11.12,11.12,0,0,1-.85,1.36,11.46,11.46,0,0,1-1.13,1.3,19.42,19.42,0,0,1-1.54,1.37q-.88.71-2.05,1.52l-1.13-1.46A28.37,28.37,0,0,0,454.52,9a15,15,0,0,0,1.64-1.66,7.42,7.42,0,0,0,1-1.5,7.1,7.1,0,0,0,.52-1.43,7.91,7.91,0,0,0,.2-1.44q0-.73,0-1.55h1.92q0,.72,0,1.25c0,.35,0,.66-.07.94s-.07.52-.11.76a6.15,6.15,0,0,1-.16.68h7.18V6.67a10.4,10.4,0,0,1-.65,3.66,12.46,12.46,0,0,1-2.06,3.48,24,24,0,0,1-3.67,3.54,59.44,59.44,0,0,1-5.47,3.82Zm11.81-16h-1.42V0h1.42Zm3,0h-1.42V0h1.42Z"/><path class="cls-1" d="M487.7,10.92a12.11,12.11,0,0,1-1.31,3.43A18,18,0,0,1,484,17.57q-1.46,1.61-3.58,3.67l-1.34-1.32q2-1.94,3.37-3.42a16,16,0,0,0,2.17-2.92,11,11,0,0,0,1.18-3,18.3,18.3,0,0,0,.38-3.77H475.64v4.42h-1.92V5h6.43V1.34h1.92V5h6V6.6A20.61,20.61,0,0,1,487.7,10.92Z"/><path class="cls-1" d="M507.18,7.85V9.46h-4.92v7.78h6.41v1.63H494V17.23h6.41V9.46h-4.92V7.85Z"/><path class="cls-1" d="M522.71,10.39q1.58-.89,2.53-1.48a9.7,9.7,0,0,0,1.46-1.07,2.58,2.58,0,0,0,.68-.92,3,3,0,0,0,.17-1.07v-.6l-14,0V3.5h15.94V5.86a4.55,4.55,0,0,1-.34,1.82,4.27,4.27,0,0,1-1.06,1.43,12.29,12.29,0,0,1-1.82,1.34q-1.1.68-2.62,1.55Zm-7,9.31q.94-1.08,1.61-1.9a12.77,12.77,0,0,0,1.13-1.58,8.86,8.86,0,0,0,.74-1.6,9.78,9.78,0,0,0,.43-1.91q.14-1.08.19-2.53t0-3.47h1.92q0,2.21-.08,3.83a23.19,23.19,0,0,1-.3,2.83,12.12,12.12,0,0,1-.56,2.14,10.9,10.9,0,0,1-.85,1.76A13.74,13.74,0,0,1,518.81,19l-1.62,1.93Z"/><path class="cls-1" d="M532.79,15.65a3,3,0,0,1,1.49.38A3,3,0,0,1,536,18.84,3.23,3.23,0,0,1,532.77,22a3.17,3.17,0,0,1-1.51-.38,3,3,0,0,1-1.68-2.83,3.13,3.13,0,0,1,1-2.28A3,3,0,0,1,532.79,15.65Zm0,1.22A2.23,2.23,0,0,0,532,17a1.58,1.58,0,0,0-.61.38,1.86,1.86,0,0,0-.62,1.46,2.2,2.2,0,0,0,.17.84,1.87,1.87,0,0,0,1.8,1.13,2,2,0,0,0,1-.29,1.85,1.85,0,0,0,.94-1.68,1.8,1.8,0,0,0-1.08-1.78A2,2,0,0,0,532.77,16.87Z"/><path class="cls-1" d="M5.76,44.18q-1.08.91-2.23,1.7a26.17,26.17,0,0,1-2.45,1.49L0,45.91a22.09,22.09,0,0,0,5.3-3.76A20.58,20.58,0,0,0,9.19,37h2a19.92,19.92,0,0,0,4.14,4.81,26.57,26.57,0,0,0,5.34,3.49l-1.1,1.54a28.37,28.37,0,0,1-5.2-3.55,23.35,23.35,0,0,1-4.14-4.68A19.31,19.31,0,0,1,8.3,41.48a22.51,22.51,0,0,1-2.42,2.58h9.34v1.56H5.76Zm12,5a48.28,48.28,0,0,1-3,4.7A32.25,32.25,0,0,1,11,58.13L9.48,57a30.71,30.71,0,0,0,3.26-3.5,34,34,0,0,0,2.71-4H3V48H16.73Z"/><path class="cls-1" d="M40,45.11a39.4,39.4,0,0,0,4.2,1.57l-1,1.46a35.72,35.72,0,0,1-4.46-1.91,21,21,0,0,1-4-2.68v3.58h4l.7.77q-1.08.89-2.17,1.68T35,51.07h0v.43h9.14V53H35.12v3a1.94,1.94,0,0,1-.52,1.61,2.89,2.89,0,0,1-1.69.38q-.74,0-1.46,0T30,57.84l-.36-1.7.36,0,1.34.18a10.89,10.89,0,0,0,1.34.08.69.69,0,0,0,.77-.79V53h-9.6V51.5h9.5V50.38a15.5,15.5,0,0,0,3-1.8H28.49V47.14h4.58v-3.5a15.74,15.74,0,0,1-3.82,3,22.7,22.7,0,0,1-4.49,1.92l-1-1.42a20.12,20.12,0,0,0,4.25-1.61A18,18,0,0,0,31.83,43H24.1V41.47h9v-2l-3.28.23q-1.62.11-3.28.18l-.77-1.44q3.48-.12,6.95-.43a65.12,65.12,0,0,0,6.95-1l1.49,1.46q-1.61.29-3.19.52t-3.24.37h0v2.14h9.17V43h-7.8A25.8,25.8,0,0,0,40,45.11Z"/><path class="cls-1" d="M50.7,50.5q0,.79,0,1.28a3.57,3.57,0,0,0,.14.94,3.77,3.77,0,0,0,.46.95q.32.5.95,1.3L50.87,56a12.18,12.18,0,0,1-1.15-1.61,5.85,5.85,0,0,1-.55-1.25A4.48,4.48,0,0,1,49,52q0-.6,0-1.39V39.24H50.7Zm15,4.75-1.22-.85-.88-.6L63,53.36,62.43,53a3.47,3.47,0,0,1-1,2.54,3.62,3.62,0,0,1-2.45.77,5.93,5.93,0,0,1-1.12-.11,4.67,4.67,0,0,1-1-.32,3.73,3.73,0,0,1-.92-.56,3.23,3.23,0,0,1-.7-.79,2.44,2.44,0,0,1-.23-2.1,2.51,2.51,0,0,1,.64-1,3.1,3.1,0,0,1,.94-.61,4.51,4.51,0,0,1,1.08-.3,7.31,7.31,0,0,1,1.07-.08q.48,0,1,0t1,.14V43.51H54.39V41.88h6.29V37.42h1.78v4.46h3.48v1.63H62.46v7.78l.83.41q.42.22.92.53l1.12.72,1.4,1Zm-5.06-2.93-.88-.16a6.7,6.7,0,0,0-1-.06,6.47,6.47,0,0,0-1.15.11,1.35,1.35,0,0,0-.94.64.8.8,0,0,0-.12.55,1.17,1.17,0,0,0,.22.49,1.57,1.57,0,0,0,.43.4,2.68,2.68,0,0,0,.53.26,4.22,4.22,0,0,0,1.2.19,2.56,2.56,0,0,0,.91-.13,1,1,0,0,0,.5-.38,1.48,1.48,0,0,0,.22-.65,7.72,7.72,0,0,0,0-.92Z"/><path class="cls-1" d="M81.85,40H76.38v16.7H74.5V40H69V38.4H81.85Z"/><path class="cls-1" d="M97.23,54.7A3.61,3.61,0,0,1,96.07,56a4,4,0,0,1-1.49.6,8,8,0,0,1-1.42.14H89.64a8,8,0,0,1-1.42-.14,4,4,0,0,1-1.49-.6,3.6,3.6,0,0,1-1.16-1.3,4.52,4.52,0,0,1-.47-2.21V38.4H87V52.49A3.14,3.14,0,0,0,87.33,54a2,2,0,0,0,.68.77,2,2,0,0,0,.84.29,7.3,7.3,0,0,0,.78,0h3.55A7.47,7.47,0,0,0,94,55a2,2,0,0,0,.85-.29,2,2,0,0,0,.68-.77,3.15,3.15,0,0,0,.29-1.49V38.4H97.7V52.49A4.52,4.52,0,0,1,97.23,54.7Z"/><path class="cls-1" d="M110.74,52.34a12.34,12.34,0,0,0-.62-1.3,4.51,4.51,0,0,0-.78-1,3.28,3.28,0,0,0-1-.67A3.39,3.39,0,0,0,107,49.1h-3.26v7.63h-1.92V38.4h8a7.76,7.76,0,0,1,1.56.17,3.87,3.87,0,0,1,1.48.64A3.56,3.56,0,0,1,114,40.51a4.72,4.72,0,0,1,.43,2.16v2.14a4.73,4.73,0,0,1-.31,1.76,3.78,3.78,0,0,1-.86,1.32,3.74,3.74,0,0,1-1.32.83,4.68,4.68,0,0,1-1.66.29,2.63,2.63,0,0,1,1.18,1,10.38,10.38,0,0,1,.82,1.43l2.47,5.3h-2.11Zm-.86-4.78a2.56,2.56,0,0,0,1.93-.68,2.64,2.64,0,0,0,.66-1.91V42.65a2.67,2.67,0,0,0-.66-1.93,2.6,2.6,0,0,0-2-.68h-6.12v7.54Z"/><path class="cls-1" d="M130.57,40H120.51v6.46h8.54V48h-8.52v8.69h-1.9V38.4h11.93Z"/><path class="cls-1" d="M159.58,54.7a7.8,7.8,0,0,1-2.41,1.57,7.39,7.39,0,0,1-2.87.56,6.82,6.82,0,0,1-2.15-.34,5.22,5.22,0,0,1-1.8-1,4.9,4.9,0,0,1-1.72-3.86,4.34,4.34,0,0,1,.34-1.74,5.6,5.6,0,0,1,.89-1.43,8.6,8.6,0,0,1,1.26-1.2q.71-.55,1.45-1l-.72-.86a6.4,6.4,0,0,1-.64-.91,5.68,5.68,0,0,1-.46-1,3.63,3.63,0,0,1,.14-2.63,3.79,3.79,0,0,1,.88-1.19,4,4,0,0,1,1.27-.78,4.13,4.13,0,0,1,1.49-.28,4.08,4.08,0,0,1,2.77,1.08,3.84,3.84,0,0,1,.86,1.2,3.48,3.48,0,0,1,.32,1.49,2.83,2.83,0,0,1-.28,1.26,4.23,4.23,0,0,1-.74,1.06,7.26,7.26,0,0,1-1.08.92l-1.28.89,4.61,5.59a8.17,8.17,0,0,0,.85-1.93A12.17,12.17,0,0,0,161,47.9h1.82a11.63,11.63,0,0,1-.59,3,8.25,8.25,0,0,1-1.38,2.57l2.81,3.24h-2.4Zm-6-7.37-.54.42a6.87,6.87,0,0,0-.54.44,8.42,8.42,0,0,0-1.37,1.46,3.18,3.18,0,0,0-.58,1.92,3.88,3.88,0,0,0,.28,1.49,3.41,3.41,0,0,0,.78,1.16,3.47,3.47,0,0,0,1.19.76,4.13,4.13,0,0,0,1.5.26,5.54,5.54,0,0,0,2.24-.46,8,8,0,0,0,2.08-1.37Zm-1-5a2.34,2.34,0,0,0,.13.77,4.58,4.58,0,0,0,.35.77l.24.38c.08.13.17.26.26.38a3,3,0,0,0,.26.36c.1.11.18.22.26.34l.84-.54a6.94,6.94,0,0,0,.85-.66,3.5,3.5,0,0,0,.66-.8,1.83,1.83,0,0,0,.26-.95,2.22,2.22,0,0,0-.6-1.56,2,2,0,0,0-1.54-.65,1.82,1.82,0,0,0-1.45.62A2.26,2.26,0,0,0,152.52,42.29Z"/><path class="cls-1" d="M195,40H184.91v6.46h8.54V48h-8.54V55.1H195v1.63H183V38.4H195Z"/><path class="cls-1" d="M203.89,56.74l-6.24-18.29h2.09L205.29,55l5.45-16.58h2.09l-6.19,18.29Z"/><path class="cls-1" d="M228.19,40H218.13v6.46h8.54V48h-8.54V55.1h10.06v1.63H216.26V38.4h11.93Z"/><path class="cls-1" d="M240.49,52.34a12.34,12.34,0,0,0-.62-1.3,4.51,4.51,0,0,0-.78-1,3.28,3.28,0,0,0-1-.67,3.39,3.39,0,0,0-1.33-.24h-3.26v7.63h-1.92V38.4h8a7.76,7.76,0,0,1,1.56.17,3.87,3.87,0,0,1,1.48.64,3.56,3.56,0,0,1,1.09,1.31,4.72,4.72,0,0,1,.43,2.16v2.14a4.73,4.73,0,0,1-.31,1.76,3.78,3.78,0,0,1-.86,1.32,3.74,3.74,0,0,1-1.32.83A4.68,4.68,0,0,1,240,49a2.63,2.63,0,0,1,1.18,1,10.38,10.38,0,0,1,.82,1.43l2.47,5.3h-2.11Zm-.86-4.78a2.56,2.56,0,0,0,1.93-.68,2.64,2.64,0,0,0,.66-1.91V42.65a2.67,2.67,0,0,0-.66-1.93,2.6,2.6,0,0,0-2-.68h-6.12v7.54Z"/><path class="cls-1" d="M253.12,56.74V49.15l-6.38-10.7h2.21l5.18,9.12,5.06-9.12h2.21l-6.34,10.7v7.58Z"/><path class="cls-1" d="M272,38.4q5.3,0,5.3,4.85v8.64q0,4.85-5.3,4.85h-7.3V38.4Zm3.36,5.23a3.88,3.88,0,0,0-.84-2.63A3.18,3.18,0,0,0,272,40h-5.38V55.1h5.45q3.31,0,3.31-3.41Z"/><path class="cls-1" d="M280.1,56.71l6.48-18.34h2.66l6.53,18.34h-2.06l-2-5.88h-7.56l-2,5.88Zm4.61-7.46h6.46L288,39.7Z"/><path class="cls-1" d="M301.58,56.74V49.15l-6.38-10.7h2.21l5.18,9.12,5.06-9.12h2.21l-6.34,10.7v7.58Z"/><path class="cls-1" d="M329.13,40.44a3,3,0,0,1,1.09-1.24,4.62,4.62,0,0,1,1.62-.62,10.49,10.49,0,0,1,2-.18h6.31V40h-6q-.79,0-1.44.06a2.57,2.57,0,0,0-1.1.34,1.83,1.83,0,0,0-.71.82,3.55,3.55,0,0,0-.25,1.48v9.72A3.76,3.76,0,0,0,330.9,54a1.63,1.63,0,0,0,.7.78,2.67,2.67,0,0,0,1.1.3q.65,0,1.46,0h6v1.66h-6.31a10.49,10.49,0,0,1-2-.18,4.61,4.61,0,0,1-1.62-.62,3,3,0,0,1-1.09-1.22,4.41,4.41,0,0,1-.4-2V42.46A4.49,4.49,0,0,1,329.13,40.44Z"/><path class="cls-1" d="M343,56.71l6.48-18.34h2.66l6.53,18.34h-2.06l-2-5.88H347l-2,5.88Zm4.61-7.46H354l-3.22-9.55Z"/><path class="cls-1" d="M373.08,56.74h-11V38.4H364V55.1h9.1Z"/><path class="cls-1" d="M378.16,56.74h-1.92V38.4h1.92Z"/><path class="cls-1" d="M394.22,40H384.17v6.46h8.54V48h-8.52v8.69h-1.9V38.4h11.93Z"/><path class="cls-1" d="M405.09,38.4a7.41,7.41,0,0,1,1.42.16,4.19,4.19,0,0,1,1.49.61,3.73,3.73,0,0,1,1.18,1.3,4.48,4.48,0,0,1,.48,2.23v9.79a4.43,4.43,0,0,1-.48,2.21A3.72,3.72,0,0,1,408,56a4,4,0,0,1-1.49.6,8,8,0,0,1-1.42.14h-3.46a8,8,0,0,1-1.42-.14,4,4,0,0,1-1.49-.6,3.6,3.6,0,0,1-1.16-1.3,4.52,4.52,0,0,1-.47-2.21V42.7a4.58,4.58,0,0,1,.47-2.23,3.61,3.61,0,0,1,1.16-1.3,4.17,4.17,0,0,1,1.49-.61,7.4,7.4,0,0,1,1.42-.16Zm2.62,4.3a2.8,2.8,0,0,0-.59-2,2.63,2.63,0,0,0-2-.62h-3.5a2.64,2.64,0,0,0-2,.64,2.77,2.77,0,0,0-.6,2v9.79a3.14,3.14,0,0,0,.29,1.49,2,2,0,0,0,.68.77,2,2,0,0,0,.84.29,7.31,7.31,0,0,0,.78,0h3.48a7.48,7.48,0,0,0,.77,0,2,2,0,0,0,.85-.29,2,2,0,0,0,.68-.77,3.15,3.15,0,0,0,.29-1.49Z"/><path class="cls-1" d="M422.64,52.34A12.34,12.34,0,0,0,422,51a4.51,4.51,0,0,0-.78-1,3.29,3.29,0,0,0-1-.67,3.4,3.4,0,0,0-1.33-.24h-3.26v7.63h-1.92V38.4h8a7.76,7.76,0,0,1,1.56.17,3.89,3.89,0,0,1,1.48.64,3.57,3.57,0,0,1,1.09,1.31,4.73,4.73,0,0,1,.43,2.16v2.14a4.72,4.72,0,0,1-.31,1.76,3.66,3.66,0,0,1-2.18,2.15,4.68,4.68,0,0,1-1.66.29,2.63,2.63,0,0,1,1.18,1,10.38,10.38,0,0,1,.82,1.43l2.47,5.3h-2.11Zm-.86-4.78a2.57,2.57,0,0,0,1.93-.68,2.64,2.64,0,0,0,.66-1.91V42.65a2.67,2.67,0,0,0-.66-1.93,2.6,2.6,0,0,0-2-.68h-6.12v7.54Z"/><path class="cls-1" d="M443.49,56.74h-2.59l-8.42-15.5v15.5h-1.92V38.4h2.35l8.64,16v-16h1.94Z"/><path class="cls-1" d="M449.56,56.74h-1.92V38.4h1.92Z"/><path class="cls-1" d="M453,56.71l6.48-18.34h2.66l6.53,18.34h-2.06l-2-5.88H457l-2,5.88Zm4.61-7.46H464l-3.22-9.55Z"/><path class="cls-1" d="M478.29,44.9a3.17,3.17,0,0,1,2,.53,3.38,3.38,0,0,1,1.18,1.7q.94-.41,1.92-.79l2.28-.91.7,1.56L484,48q-1.11.46-2.1.89v3.55h-1.73V49.54l-1.58.86a9,9,0,0,0-1.49,1,3.79,3.79,0,0,0-1,1.18,1.68,1.68,0,0,0,0,1.4,1.6,1.6,0,0,0,.77.9,4.27,4.27,0,0,0,1.19.43,6.74,6.74,0,0,0,1.25.14h.95a20.86,20.86,0,0,0,2.32-.13l2.27-.25.07,1.7-2.34.26a23.63,23.63,0,0,1-2.41.12,9.45,9.45,0,0,1-3.78-.58,3.48,3.48,0,0,1-1.91-1.82,3.36,3.36,0,0,1-.29-1.62,3.32,3.32,0,0,1,.47-1.42,5.2,5.2,0,0,1,1-1.21,13,13,0,0,1,1.36-1,16,16,0,0,1,1.51-.9q.78-.41,1.45-.79a2.53,2.53,0,0,0-.34-.7,1.63,1.63,0,0,0-.41-.41,1.11,1.11,0,0,0-.46-.18,3.09,3.09,0,0,0-.46,0h-3l.7-5.26h-4.18V39.58h4.42l.38-2.88h1.8L478,39.58h6.1v1.63h-6.34l-.48,3.7Z"/><path class="cls-1" d="M502.05,45.86q0,1.63-.14,2.94a9.94,9.94,0,0,1-.59,2.57A12.28,12.28,0,0,1,499.9,54a29.88,29.88,0,0,1-2.6,3.18L495.93,56a27.45,27.45,0,0,0,2.33-2.86,11,11,0,0,0,1.26-2.34,8.73,8.73,0,0,0,.53-2.27q.11-1.15.13-2.66h-8.06v-1.8h16.82v1.8Zm-7.37-5.35v-1.8h11.66v1.8Z"/><path class="cls-1" d="M514.14,46.32h17.71v1.82H514.14Z"/><path class="cls-1" d="M551.43,45.31A7.67,7.67,0,0,1,550,47.54a13.12,13.12,0,0,1-2.24,2q-1.33.95-3,2l.58.66.71.79.89,1,1.14,1.31-1.39,1.15q-3-3.53-5.12-5.59t-3.16-3l1.32-1.15,1.2,1,2.5,2.47q1.46-.91,2.66-1.72a13.19,13.19,0,0,0,2.05-1.67A6.79,6.79,0,0,0,549.47,45a5.18,5.18,0,0,0,.47-2.26H535.59V41.06H551.9v1.49A7.4,7.4,0,0,1,551.43,45.31Z"/><path class="cls-1" d="M559.81,50.83q0,1.06.06,1.68a4.69,4.69,0,0,0,.22,1.08,3,3,0,0,0,.47.86l.82,1-1.46,1.08q-.6-.79-1-1.37a5.25,5.25,0,0,1-.55-1.18,6,6,0,0,1-.25-1.33q-.06-.73-.06-1.86v-12h1.73Zm6.24-1.25a12.8,12.8,0,0,0,0,2,3.09,3.09,0,0,0,.36,1.33,1.84,1.84,0,0,0,.86.77,3.73,3.73,0,0,0,1.5.25H574v1.75h-5.37a5.46,5.46,0,0,1-2.28-.42,3.35,3.35,0,0,1-1.43-1.2,4.55,4.55,0,0,1-.67-1.91,10.79,10.79,0,0,1,0-2.54ZM565,41h8.45v1.8H565Z"/><path class="cls-1" d="M14.17,91.62A8.51,8.51,0,0,1,9.77,93a5.68,5.68,0,0,1-1.9-.31,4.41,4.41,0,0,1-1.56-.94,4.3,4.3,0,0,1-1.06-1.58,6,6,0,0,1-.38-2.23V74.09h1.9v13.8a3.9,3.9,0,0,0,.7,2.41,2.61,2.61,0,0,0,2.23.92A6,6,0,0,0,11.26,91a7.44,7.44,0,0,0,1.8-.79,12,12,0,0,0,2-1.52,18.58,18.58,0,0,0,2.17-2.45l1.3,1.18A15.72,15.72,0,0,1,14.17,91.62Z"/><path class="cls-1" d="M29.27,78.74q0,1.66-.13,3a19.71,19.71,0,0,1-.34,2.39,19.23,19.23,0,0,1-.55,2.08,18.47,18.47,0,0,1-.79,2q-.47,1-1.07,2.14T25,92.81L23.39,92q.77-1.39,1.36-2.48t1-2.06q.43-1,.74-1.87a13.57,13.57,0,0,0,.5-1.91,20.7,20.7,0,0,0,.29-2.18q.1-1.18.12-2.71h-3.6V77.14h3.6V73.08H29.3v4.06h4.2v1.61Zm8.64,13.58a19.73,19.73,0,0,1-2.32-.13,6.3,6.3,0,0,1-2-.53,3.38,3.38,0,0,1-1.34-1.1,3.18,3.18,0,0,1-.5-1.88v-.89h1.8v.89A1.49,1.49,0,0,0,34,89.76a2.3,2.3,0,0,0,1,.58,5.79,5.79,0,0,0,1.37.24q.76,0,1.55,0h2.38v1.7ZM39.86,81.5v1.61H32.46V81.5Z"/><path class="cls-1" d="M46.48,91.28a23.58,23.58,0,0,0-2.06-2.2L46,87.77a22.13,22.13,0,0,1,2,2Q49,91,50,92.4l-1.68,1.44A24.54,24.54,0,0,0,46.48,91.28Z"/><path class="cls-1" d="M61.92,92.23a27.34,27.34,0,0,0,2.17-3.44Q65,87,65.85,85.06l1.22,1.39q-.77,1.87-1.67,3.68a29.31,29.31,0,0,1-2.12,3.59Zm3.77-8.88a23.16,23.16,0,0,0-1.56-1.73,14.85,14.85,0,0,0-1.78-1.51l1.1-1.37A19.89,19.89,0,0,1,66.88,82l-1.15,1.39Zm.67-5.52a15.18,15.18,0,0,0-1.5-1.69q-.8-.78-1.69-1.52l1.08-1.32A16.71,16.71,0,0,1,66,74.76q.82.79,1.56,1.63L66.4,77.83Zm.07,15.31V91.63H68.2V84.31H80.56v7.32h1.66v1.51ZM79.56,73.61V82.3H69V73.61ZM69.74,85.75v5.88h2.09V85.75ZM70.68,75v2.21H78V75Zm0,3.58V80.9H78V78.58Zm2.62,7.18v5.88h2.09V85.75ZM79,91.63V85.75H76.84v5.88Z"/><path class="cls-1" d="M88.17,92.18H86.71V74.62h5.52V90.24H88.17Zm0-10.63h2.59v-5.5H88.17Zm0,7.2h2.59V83H88.17ZM102,90.6a14.14,14.14,0,0,0,2.3,1,19,19,0,0,0,2.5.68l-1.06,1.49a17.71,17.71,0,0,1-2.51-.94,19.94,19.94,0,0,1-2.32-1.27,14,14,0,0,1-2.3,1.51A18.17,18.17,0,0,1,96,94.2l-1-1.37A13.24,13.24,0,0,0,97.49,92a12.28,12.28,0,0,0,2.24-1.3,13.45,13.45,0,0,1-2.76-3,18,18,0,0,1-1.61,3.36A11.26,11.26,0,0,1,92.9,94l-1.08-1.15A10,10,0,0,0,93.51,91a14.3,14.3,0,0,0,1.3-2.14,15.75,15.75,0,0,0,.94-2.35q.37-1.21.61-2.41H92.9V82.68h3.65a6.36,6.36,0,0,0,.06-.67,6.24,6.24,0,0,1,.06-.67l0-.46H93.35V79.49h8.16q.58-1.08,1.08-2.22a24.57,24.57,0,0,0,.89-2.32l1.68.67q-.41,1-.9,2t-1,1.91h2.52v1.39H98.25q0,.43-.07.9t-.07.9h8.45v1.44H97.91l-.34,1.66h6.36l.84.7A15.13,15.13,0,0,1,102,90.6ZM105.33,74q-2.83.6-5.7.94t-5.82.48L93.14,74h0A43.63,43.63,0,0,0,104,72.6ZM96,79.34a13.08,13.08,0,0,0-.64-1.67,9,9,0,0,0-.88-1.5L96,75.6a9.9,9.9,0,0,1,.92,1.56q.37.79.68,1.61l-1.54.58Zm3.31-.12q-.24-.91-.56-1.79a11.51,11.51,0,0,0-.8-1.72l1.56-.58a11.57,11.57,0,0,1,.8,1.72q.32.88.56,1.76l-1.51.6Zm-1.18,7.92a15.21,15.21,0,0,0,1.22,1.4,15.64,15.64,0,0,0,1.39,1.26q.53-.55,1.08-1.24a7.45,7.45,0,0,0,.91-1.43Z"/><path class="cls-1" d="M110.33,88.34A55.47,55.47,0,0,0,114.7,78h-3V76.27h3.53l.49-1.82q.23-.84.37-1.32l1.73.41q-.12.36-.3,1.09t-.44,1.64h3.19V78h-3.72a59.89,59.89,0,0,1-2.08,5.84q-1.16,2.8-2.58,5.44ZM126,81.53a1.78,1.78,0,0,0-1.5.82,4.18,4.18,0,0,0-.54,2.54v3a18,18,0,0,1,2.11,1q1,.55,2.42,1.37l-.86,1.46L126.54,91l-.92-.53-.83-.43-.8-.38a3.33,3.33,0,0,1-.89,2.63,3.72,3.72,0,0,1-2.59.83,5.59,5.59,0,0,1-1.7-.28,4.56,4.56,0,0,1-1.51-.8,3.14,3.14,0,0,1-.95-1.26,2.27,2.27,0,0,1,0-1.67,2.59,2.59,0,0,1,1.1-1.31,4.91,4.91,0,0,1,2.09-.66l.7-.06a5.3,5.3,0,0,1,.61,0q.3,0,.64.08l.77.16V84.82a5.46,5.46,0,0,1,.26-2,4.16,4.16,0,0,1,.84-1.37q-.94,0-1.56,0a6,6,0,0,0-1.1.18,4.22,4.22,0,0,0-.9.36q-.42.23-.95.56l-.89-1.3a9.9,9.9,0,0,1,2.14-1,6.7,6.7,0,0,1,2.14-.27l5.4.1v1.41ZM122.38,89a7.42,7.42,0,0,0-2-.31,5.33,5.33,0,0,0-.73.06,4.44,4.44,0,0,0-.78.18,1.51,1.51,0,0,0-.71.46,1,1,0,0,0,.12,1.4,2.44,2.44,0,0,0,.79.46,4.49,4.49,0,0,0,.88.22,5.17,5.17,0,0,0,.6.06A1.65,1.65,0,0,0,122,91a2.74,2.74,0,0,0,.36-1.52Z"/><path class="cls-1" d="M148.74,88.09a7.68,7.68,0,0,1-.32,1.62,4.26,4.26,0,0,1-.89,1.62,3.52,3.52,0,0,1-1.27.88,5.45,5.45,0,0,1-1.57.36q-.85.07-1.81.07V90.89a10.45,10.45,0,0,0,1.78-.12,3.19,3.19,0,0,0,1.06-.35,1.5,1.5,0,0,0,.56-.55,4.46,4.46,0,0,0,.32-.76,5.69,5.69,0,0,0,.25-1.19q.08-.71.13-2.12V80.23h-5.69v.14q0,1.22-.08,2.2a12.47,12.47,0,0,1-.29,1.82,10.49,10.49,0,0,1-.55,1.67,19.53,19.53,0,0,1-.86,1.75q-.52.94-1.24,2.08l-1.66,2.63-1.54-1,1.6-2.52q.68-1.08,1.16-1.94a17.28,17.28,0,0,0,.79-1.6,9.27,9.27,0,0,0,.49-1.49,10,10,0,0,0,.24-1.62q.06-.86.06-2v-.14h-5.33v-1.7h5.35V73.37h1.87v5.16h7.54V85.8Q148.82,87.22,148.74,88.09Z"/><path class="cls-1" d="M158.74,74.21V84.62H157V74.21Zm7.15,6.07V74.21h1.9v6.07q0,1.92-.12,3.35a16.75,16.75,0,0,1-.4,2.56,8.45,8.45,0,0,1-.76,2,8.83,8.83,0,0,1-1.2,1.69,16,16,0,0,1-1.7,1.62q-1,.82-2.28,1.8l-1.13-1.54q1.18-.89,2.05-1.61a14.68,14.68,0,0,0,1.51-1.42,6.89,6.89,0,0,0,1.69-3.18,13.81,13.81,0,0,0,.34-2.26Q165.89,82,165.89,80.28Z"/><path class="cls-1" d="M189.44,81.6a14,14,0,0,1-1.88,3.8,23,23,0,0,1-3.11,3.54q-1.86,1.75-4.33,3.86l-1.27-1.44q2.45-2.11,4.18-3.77a23.3,23.3,0,0,0,2.84-3.22,11.78,11.78,0,0,0,1.66-3.23,13.25,13.25,0,0,0,.59-3.78H175.89V75.5h14.18v1.42A15.59,15.59,0,0,1,189.44,81.6Z"/><path class="cls-1" d="M204.2,85.19a7.46,7.46,0,0,1-1.26,2.2,11.78,11.78,0,0,1-2.06,1.93A33.09,33.09,0,0,1,198,91.22l-.91-1.42q1.54-.94,2.63-1.73a10.33,10.33,0,0,0,1.8-1.62,5.76,5.76,0,0,0,1.06-1.79,7.87,7.87,0,0,0,.42-2.23h-5.5V81h8.4V77.14h1.75V81h3v1.49h-3V93h-1.75V82.44h-1.18A9.28,9.28,0,0,1,204.2,85.19Z"/><path class="cls-1" d="M221.22,79.92q0,2-.14,3.55a13.44,13.44,0,0,1-.59,2.88,13.88,13.88,0,0,1-1.28,2.78A36.83,36.83,0,0,1,217,92.38l-1.54-1.1q1.27-1.73,2-3a13.09,13.09,0,0,0,1.18-2.52,11.3,11.3,0,0,0,.53-2.58q.12-1.36.12-3.2V77.16h1.9Zm5.11,10.61a7.73,7.73,0,0,0,1.9-.25,4,4,0,0,0,1.52-.83,7.94,7.94,0,0,0,1.39-1.61q.68-1,1.52-2.57l1.58,1a25.88,25.88,0,0,1-1.78,2.92A8.77,8.77,0,0,1,230.73,91a5.66,5.66,0,0,1-2,1,10,10,0,0,1-2.54.29h-1.73V74.86h1.87Z"/><path class="cls-1" d="M256.14,89v1.87H238.82V89ZM241.41,78.89V77.06h12.07v1.82Z"/><path class="cls-1" d="M270,82.39q1.58-.89,2.53-1.48A9.66,9.66,0,0,0,274,79.85a2.57,2.57,0,0,0,.68-.92,3,3,0,0,0,.17-1.07v-.6l-14,0V75.5h15.94v2.35a4.53,4.53,0,0,1-.34,1.82,4.28,4.28,0,0,1-1.06,1.43,12.29,12.29,0,0,1-1.82,1.34q-1.1.68-2.62,1.55Zm-7,9.31q.94-1.08,1.61-1.9a12.75,12.75,0,0,0,1.13-1.58,8.76,8.76,0,0,0,.74-1.6,9.78,9.78,0,0,0,.43-1.91q.14-1.08.19-2.53t0-3.47h1.92q0,2.21-.08,3.83a23.21,23.21,0,0,1-.3,2.83,12.16,12.16,0,0,1-.56,2.14,10.9,10.9,0,0,1-.85,1.76A13.65,13.65,0,0,1,266.14,91l-1.62,1.93Z"/><path class="cls-1" d="M290.51,90.46a13.22,13.22,0,0,0,2.17-.35,6.84,6.84,0,0,0,1.82-.74,6.51,6.51,0,0,0,1.5-1.24,7.84,7.84,0,0,0,1.2-1.82,6.39,6.39,0,0,0,.71-3.23,6.27,6.27,0,0,0-1-3.08,6,6,0,0,0-2-2,7,7,0,0,0-2.75-.94q-.07,1.66-.28,3.14a25,25,0,0,1-.56,2.88c-.1.42-.21.86-.35,1.34s-.3,1-.49,1.49-.41,1-.65,1.55A10,10,0,0,1,289,89a4.66,4.66,0,0,1-1.32,1.38,3.65,3.65,0,0,1-1.45.58,3.08,3.08,0,0,1-1.43-.12,3.4,3.4,0,0,1-1.25-.73,4.5,4.5,0,0,1-.95-1.3,6.82,6.82,0,0,1-.52-1.45,8.26,8.26,0,0,1-.2-1.43q0-.7,0-1.2a9.73,9.73,0,0,1,1-4,9.7,9.7,0,0,1,8.56-5.27,8.74,8.74,0,0,1,4.07.95,7.7,7.7,0,0,1,3,2.68A7.9,7.9,0,0,1,299.76,83a8.32,8.32,0,0,1-.88,4.13,8.73,8.73,0,0,1-3.37,3.74,10.53,10.53,0,0,1-4.93,1.34Zm-1-7.8q.29-1.27.48-2.64t.26-2.88a7.74,7.74,0,0,0-2.21.72A7.63,7.63,0,0,0,286,79.37a8.23,8.23,0,0,0-1.58,2.32,8.32,8.32,0,0,0-.73,3.11,6.74,6.74,0,0,0,0,.76,7,7,0,0,0,.12,1.1,6.2,6.2,0,0,0,.35,1.19,3,3,0,0,0,.67,1,1.21,1.21,0,0,0,1.38.32,2.75,2.75,0,0,0,1.26-1.14,12,12,0,0,0,1.28-2.68Q289.24,83.93,289.55,82.66Z"/><path class="cls-1" d="M304.37,93.14V91.58h8.74V87.17h-6.84V85.58h15.65v1.58h-7v4.42h8.9v1.56ZM317,81.22a1,1,0,0,0,.12.54.8.8,0,0,0,.31.28,1.1,1.1,0,0,0,.44.11H319a3.91,3.91,0,0,0,.54-.06,2.57,2.57,0,0,0,.5-.14.51.51,0,0,0,.31-.29,2.39,2.39,0,0,0,.08-.4q0-.25.06-.53l0-.54c0-.18,0-.31,0-.41l1.66.41a12.71,12.71,0,0,1-.1,1.45,3,3,0,0,1-.48,1.38,1.21,1.21,0,0,1-.6.41,4.84,4.84,0,0,1-.87.22,7.36,7.36,0,0,1-.92.08h-1.33l-.73,0-.73-.1a1.77,1.77,0,0,1-.56-.18,1.18,1.18,0,0,1-.52-.61,2.31,2.31,0,0,1-.13-.78V77h-8.59v3.5h-1.73V75.48h8.16v-3.1h1.8v3.1h8.3V79.7h-1.73V77H317ZM305.4,83.4a9.83,9.83,0,0,0,2.26-.72,5,5,0,0,0,1.61-1.18,5.44,5.44,0,0,0,1-1.73,9.45,9.45,0,0,0,.53-2.35l1.58.36a11.87,11.87,0,0,1-.58,2.64,6.36,6.36,0,0,1-1.13,2,6,6,0,0,1-1.8,1.43,10.94,10.94,0,0,1-2.54.94l-1-1.39Z"/><path class="cls-1" d="M332.53,76.32q-.6,1.15-1.36,2.33a19.76,19.76,0,0,1-1.64,2.21l-1.08-1.3a15.84,15.84,0,0,0,2.28-3.31,19.65,19.65,0,0,0,1.46-3.79l1.73.34q-.17.53-.35,1c-.12.34-.24.68-.37,1h13.15v1.49ZM335,88.15a36,36,0,0,0-4.63-2.88l1-1.18q1.15.58,2.3,1.27t2.16,1.39l.17.12a13.77,13.77,0,0,0,2-3.72l1.58.74a22.56,22.56,0,0,1-1,2,15.7,15.7,0,0,1-1.26,1.93q1.13.84,2.21,1.74t2.11,1.84l-1.18,1.37q-1-1-2-1.9t-2.14-1.75a15.56,15.56,0,0,1-3,2.68,18.3,18.3,0,0,1-3.52,1.88l-1-1.51a18.09,18.09,0,0,0,3.23-1.61,13.1,13.1,0,0,0,2.8-2.3Zm9.31-4.85q0,.7,0,1.67t.12,2q.08,1,.23,2a9.86,9.86,0,0,0,.36,1.61s0,0,0,0,0,0,0,0a1.82,1.82,0,0,0,.1.26l.14.32a1.65,1.65,0,0,0,.16.28c.05.08.11.12.16.12s.19-.18.29-.53a11.7,11.7,0,0,0,.25-1.2q.11-.67.18-1.3c0-.42.08-.68.1-.79l1.51,1.08q0,.38-.18,1.24a12.35,12.35,0,0,1-.4,1.72,6.27,6.27,0,0,1-.67,1.51,1.17,1.17,0,0,1-1,.65,1.13,1.13,0,0,1-.68-.24,2.69,2.69,0,0,1-.58-.59,5.34,5.34,0,0,1-.44-.73q-.19-.38-.31-.67a8.56,8.56,0,0,1-.56-2q-.21-1.15-.32-2.4t-.16-2.47q0-1.22,0-2.18H328.93V81.24h15.36ZM331.91,78h12.31v1.49H331.91Z"/><path class="cls-1" d="M363.2,75.34q-.12-.74-.21-1.48t-.13-1.48h1.66q0,.74.12,1.45c0,.47.1,1,.17,1.45h3a10,10,0,0,0-1.44-2.14l1.27-.72q.5.55.91,1.09a10,10,0,0,1,.74,1.14l-1.13.62h3.46v1.39h-6.53a21.58,21.58,0,0,0,.59,2.46,12.28,12.28,0,0,0,1,2.34,18,18,0,0,0,.92-1.94q.4-1,.73-2l1.42.74a21,21,0,0,1-.92,2.38q-.54,1.18-1.21,2.33a5.12,5.12,0,0,0,.37.55q.25.34.55.67a4.11,4.11,0,0,0,.62.58,1,1,0,0,0,.56.24q.17,0,.3-.37a6.13,6.13,0,0,0,.23-.85,9.73,9.73,0,0,0,.14-1c0-.33,0-.57,0-.73v-.19L371.87,83c0,.18-.08.49-.16.94a10.58,10.58,0,0,1-.31,1.36,5.77,5.77,0,0,1-.5,1.21.86.86,0,0,1-.73.53,2,2,0,0,1-1-.3,6.78,6.78,0,0,1-1-.71,10.12,10.12,0,0,1-.9-.86l-.71-.79a17.6,17.6,0,0,1-1.4,1.64,19.62,19.62,0,0,1-1.57,1.45l-1.15-1.22a12.66,12.66,0,0,0,1.72-1.48,16.68,16.68,0,0,0,1.45-1.72A12.26,12.26,0,0,1,364.26,80q-.5-1.72-.82-3.28h-8.18V79q0,1.15-.06,2.3a20.14,20.14,0,0,1-.25,2.28,12.28,12.28,0,0,1-.59,2.2,9,9,0,0,1-1.07,2l-1.22-1.3a6.07,6.07,0,0,0,.85-1.58,9.81,9.81,0,0,0,.44-1.73,15.08,15.08,0,0,0,.18-1.81q0-.92,0-1.84v-4.2ZM352.07,92.4a10.64,10.64,0,0,0,1.54-2,14,14,0,0,0,1.1-2.34l1.54.55a17.94,17.94,0,0,1-1.13,2.62,12,12,0,0,1-1.68,2.4Zm3.86-14.28h7.18v1.32h-7.18Zm.46,8.18V80.69h6.17v4.56h-4.7V86.3Zm3,4.66a1.76,1.76,0,0,0,.08.56.61.61,0,0,0,.35.37,1.4,1.4,0,0,0,.49.1l.76,0,.78,0h1.22q.49,0,1,0a8.66,8.66,0,0,0,1-.12,1.05,1.05,0,0,0,.6-.25.83.83,0,0,0,.18-.41q.06-.29.1-.61t0-.64c0-.21,0-.37,0-.48l1.63.53q0,.29,0,.71a6.53,6.53,0,0,1-.11.85,5.09,5.09,0,0,1-.23.82,2,2,0,0,1-.36.62,2.1,2.1,0,0,1-.91.34,13.91,13.91,0,0,1-1.38.18q-.73.06-1.39.07h-1.79q-.53,0-1.1,0c-.38,0-.75-.06-1.09-.1a1.92,1.92,0,0,1-.75-.2,1.45,1.45,0,0,1-.65-.66,2.18,2.18,0,0,1-.18-.9V87.5h1.7Zm-1.54-9V84h3.24V81.91Zm4.92,8.59a18.59,18.59,0,0,0-2.59-3l1.25-1a19.59,19.59,0,0,1,2.71,3l-1.32,1.13Zm8.06,2.35a27.3,27.3,0,0,0-1.72-2.39,20.52,20.52,0,0,0-2-2.12l1.27-1a21.85,21.85,0,0,1,2.09,2,22.34,22.34,0,0,1,1.8,2.29l-1.42,1.15Z"/><path class="cls-1" d="M379.39,83.38a19.54,19.54,0,0,0-1.49-1.73,22.4,22.4,0,0,0-1.68-1.56l1.05-1.27A17.19,17.19,0,0,1,379,80.33q.82.82,1.58,1.66l-1.15,1.39Zm-3,9.24A36.5,36.5,0,0,0,378.2,89a40.4,40.4,0,0,0,1.43-3.83L381,86.26a38.72,38.72,0,0,1-3.22,7.68l-1.39-1.32Zm3.67-15a14.47,14.47,0,0,0-1.39-1.73A16.33,16.33,0,0,0,377,74.42l1.1-1.27q.86.7,1.64,1.46a17.57,17.57,0,0,1,1.48,1.66l-1.15,1.39Zm15.34,14.45a1.44,1.44,0,0,1-.57,1.31,2.58,2.58,0,0,1-1.43.37l-1.39,0a13.68,13.68,0,0,1-1.38-.12l-.22-1.7c.45.06.9.12,1.34.16s.9.06,1.37.06a.64.64,0,0,0,.58-.25,1.17,1.17,0,0,0,.17-.66V84h-4.27V88.7h1.37V85.34h1.46V90.1h-5.64v1.54h-1.44V85.34h1.44V88.7h1.34V84H384V94h-1.58V82.63h5.64V80.78h-6.72V79.34h4v-2.5h-3.43V75.46h3.43V72.38H387v3.07h3.5V72.38h1.63v3.07h3.65v1.39h-3.65v2.5h4.3v1.44h-6.79v1.85h5.78Zm-4.92-15.26H387v2.5h3.5Z"/><path class="cls-1" d="M400.89,90.84V89.57h5.62V88.44h-4.25v-6h4.25V81.36h-5.23V80.14h5.23v-1.2h-5.9V77.62h5.83V76h-4.51V74.69h4.51V72.41H408v2.28h4.56V76H408v1.61h5.88v-.24q0-1.23,0-2.48t-.07-2.48h1.58q0,1.3.06,2.57t0,2.54H421v1.34h-5.45a.42.42,0,0,1,0,.17l.07,1q.12,1.56.28,3.1a24.17,24.17,0,0,0,.52,3.07,21.92,21.92,0,0,0,1.14-2.86q.47-1.46.88-3l1.51.65q-.53,1.87-1.25,3.71A33.1,33.1,0,0,1,417,88.25a11.1,11.1,0,0,0,.49,1.21,5.61,5.61,0,0,0,.68,1.12l0,0,.18.24.23.28a2,2,0,0,0,.24.23.35.35,0,0,0,.19.1q.14,0,.26-.43a10,10,0,0,0,.22-1c.06-.38.12-.77.16-1.15s.08-.67.11-.86l0-.17,1.37,1.2-.07.61q0,.42-.13.94t-.22,1.07a7.47,7.47,0,0,1-.31,1,2.74,2.74,0,0,1-.42.74.71.71,0,0,1-.55.29,1,1,0,0,1-.46-.12,2.74,2.74,0,0,1-.47-.3q-.23-.18-.44-.38l-.36-.35a6.37,6.37,0,0,1-1-1.27,15.39,15.39,0,0,1-.78-1.42,23.33,23.33,0,0,1-1.9,2.38,27.11,27.11,0,0,1-2.16,2.11l-1.15-1.22q.67-.53,1.31-1.09a13.91,13.91,0,0,0,1.19-1.19H408V94h-1.49V90.84Zm5.62-7.32h-2.76v1.3h2.76Zm0,2.35h-2.76v1.46h2.76Zm6.94,4.78q.48-.55,1-1.2t.9-1.3a24.83,24.83,0,0,1-.95-4.57q-.28-2.41-.42-4.64h-6v1.2h5.26v1.22H408v1.06h4.25v6H408v1.13h5.45Zm-2.69-7.13H408v1.3h2.76Zm0,2.35H408v1.46h2.76Zm7.54-8.93q-.41-.84-.85-1.68a9.12,9.12,0,0,0-1-1.54l1.29-.74a16.94,16.94,0,0,1,1.08,1.55q.48.78.89,1.57l-1.32.84Z"/><path class="cls-1" d="M434.21,90.46a13.22,13.22,0,0,0,2.17-.35,6.83,6.83,0,0,0,1.82-.74,6.47,6.47,0,0,0,1.5-1.24,7.84,7.84,0,0,0,1.2-1.82,6.38,6.38,0,0,0,.71-3.23,6.29,6.29,0,0,0-1-3.08,6,6,0,0,0-2-2,7,7,0,0,0-2.75-.94q-.07,1.66-.28,3.14a25,25,0,0,1-.56,2.88q-.15.62-.35,1.34t-.49,1.49q-.29.77-.65,1.55A10,10,0,0,1,432.7,89a4.66,4.66,0,0,1-1.32,1.38,3.65,3.65,0,0,1-1.45.58,3.08,3.08,0,0,1-1.43-.12,3.41,3.41,0,0,1-1.25-.73,4.51,4.51,0,0,1-.95-1.3,6.79,6.79,0,0,1-.52-1.45,8.3,8.3,0,0,1-.2-1.43q0-.7,0-1.2a9.72,9.72,0,0,1,1-4,9.7,9.7,0,0,1,8.56-5.27,8.74,8.74,0,0,1,4.07.95,7.69,7.69,0,0,1,3,2.68A7.9,7.9,0,0,1,443.47,83a8.32,8.32,0,0,1-.88,4.13,8.73,8.73,0,0,1-3.37,3.74,10.53,10.53,0,0,1-4.93,1.34Zm-1-7.8q.29-1.27.48-2.64t.26-2.88a7.76,7.76,0,0,0-2.21.72,7.64,7.64,0,0,0-2.08,1.51,8.22,8.22,0,0,0-1.58,2.32,8.35,8.35,0,0,0-.73,3.11,7.54,7.54,0,0,0,.11,1.86,6.16,6.16,0,0,0,.35,1.19,3,3,0,0,0,.67,1,1.2,1.2,0,0,0,1.38.32,2.75,2.75,0,0,0,1.26-1.14,12,12,0,0,0,1.28-2.68Q432.94,83.93,433.25,82.66Z"/><path class="cls-1" d="M463.71,82.92a12.17,12.17,0,0,1-1.31,3.43A18.05,18.05,0,0,1,460,89.57q-1.46,1.61-3.58,3.67l-1.34-1.32q2-1.94,3.37-3.42a16.13,16.13,0,0,0,2.17-2.92,11.08,11.08,0,0,0,1.18-3,18.37,18.37,0,0,0,.38-3.77H451.65v4.42h-1.92V77h6.43V73.34h1.92V77h6V78.6A20.62,20.62,0,0,1,463.71,82.92Z"/><path class="cls-1" d="M483.69,79.85v1.61h-4.92v7.78h6.41v1.63H470.49V89.23h6.41V81.46H472V79.85Z"/><path class="cls-1" d="M499.7,82.39q1.58-.89,2.53-1.48a9.62,9.62,0,0,0,1.46-1.07,2.56,2.56,0,0,0,.68-.92,3,3,0,0,0,.17-1.07v-.6l-14,0V75.5h15.94v2.35a4.52,4.52,0,0,1-.34,1.82,4.28,4.28,0,0,1-1.06,1.43,12.29,12.29,0,0,1-1.82,1.34q-1.1.68-2.62,1.55Zm-7,9.31q.94-1.08,1.61-1.9a12.74,12.74,0,0,0,1.13-1.58,8.66,8.66,0,0,0,.74-1.6,9.78,9.78,0,0,0,.43-1.91q.14-1.08.19-2.53t0-3.47h1.92q0,2.21-.08,3.83a23.23,23.23,0,0,1-.3,2.83,12.2,12.2,0,0,1-.56,2.14,10.9,10.9,0,0,1-.85,1.76A13.56,13.56,0,0,1,495.8,91l-1.62,1.93Z"/><path class="cls-1" d="M512.75,91.54Q513.49,90.1,514,89t.94-1.94a17,17,0,0,0,.65-1.61A12.5,12.5,0,0,0,516,84a13.74,13.74,0,0,0,.23-1.63q.07-.86.1-2h-3.67V78.7h3.7V73.37h1.82V78.7h1.63a10.06,10.06,0,0,1,1.25.08,4.25,4.25,0,0,1,1.32.4,4,4,0,0,1,1.19.89,4.27,4.27,0,0,1,.88,1.56,7.31,7.31,0,0,1,.32,1.63q.08.91.08,2.45,0,.74,0,1.32t-.07,1.06q0,.48-.12.88a6.66,6.66,0,0,1-.19.78,4.38,4.38,0,0,1-.88,1.6,3.4,3.4,0,0,1-1.26.88,5.45,5.45,0,0,1-1.57.36q-.85.07-1.79.07v-1.7a10.5,10.5,0,0,0,1.78-.12,3,3,0,0,0,1.06-.36,1.55,1.55,0,0,0,.56-.58,5,5,0,0,0,.32-.77,5.65,5.65,0,0,0,.25-1.2A21,21,0,0,0,523,85.7q0-.79,0-1.34t-.06-.95a4.52,4.52,0,0,0-.11-.68q-.07-.29-.14-.53a3.19,3.19,0,0,0-.32-.74,2.15,2.15,0,0,0-.53-.59,2.43,2.43,0,0,0-.82-.4,4.26,4.26,0,0,0-1.19-.14h-1.66q0,1.25-.12,2.22a17.48,17.48,0,0,1-.28,1.84,12.63,12.63,0,0,1-.47,1.67q-.29.8-.7,1.73t-1,2q-.57,1.09-1.28,2.53ZM527,77.11h-1.37V73.49H527Zm1.78,10.3q0-2.09-.11-3.34a8.29,8.29,0,0,0-.4-2.05,4,4,0,0,0-.79-1.36,15,15,0,0,0-1.32-1.25l1.27-1.15a9.67,9.67,0,0,1,1.67,1.54,5.29,5.29,0,0,1,.94,1.75,10.28,10.28,0,0,1,.42,2.4q.09,1.39.1,3.46Zm1.13-10.27h-1.37V73.51h1.37Z"/><path class="cls-1" d="M541.81,77.76v1h-2.3V83.4l.74-.24,1.39-.48.12,1.37-.46.19-.48.19-.68.28a5.51,5.51,0,0,0-.66.3h0v7.27a1.79,1.79,0,0,1-.4,1.33,2,2,0,0,1-1.36.37,11.07,11.07,0,0,1-2-.17l-.26-1.7a8.41,8.41,0,0,0,1.85.22q.62,0,.62-.7V85.56q-.55.22-1.19.41l-1.26.38L535,84.72q.77-.19,1.51-.41l1.49-.43h0V78.74h-2.74V77.21H538V72.38h1.54v4.82h1.82v-.94h3.86q-.26-.77-.6-1.57a11.41,11.41,0,0,0-.79-1.55l1.49-.58q.43.77.82,1.56a16.64,16.64,0,0,1,.67,1.58l-1.46.55h4q.43-.89.85-1.91t.73-2l1.68.6q-.34.82-.74,1.67a16.5,16.5,0,0,1-.89,1.62h4.54v1.49Zm6.29,14.33a1.34,1.34,0,0,1-1.51,1.51,7.24,7.24,0,0,1-.76,0l-.71-.08-.24-1.56a3.56,3.56,0,0,0,1.18.19q.57,0,.58-.62v-3.7q-.19.31-.36.64L546,89a6,6,0,0,0-1-.88q-.53-.37-1.08-.71V94h-1.46V79.68h5.66Zm-3.55-9.5a6.94,6.94,0,0,1,1.12.56,11,11,0,0,1,1,.68V81.12h-2.74v2.57Zm1.51,2.66a13.06,13.06,0,0,0-1.06-.78c-.35-.23-.72-.45-1.1-.66v3.41q.17-.26.32-.54l.3-.54a9.5,9.5,0,0,1,1.1.65q.53.36,1,.74V84.12Zm3.62-5.09h1.54v9.55h-1.54Zm4.7,11.93a1.48,1.48,0,0,1-1.68,1.66l-1.14,0q-.57,0-1.12-.1l-.22-1.68a9.45,9.45,0,0,0,2,.22.54.54,0,0,0,.52-.24,1.17,1.17,0,0,0,.13-.58V79.46h1.54Z"/><path class="cls-1" d="M570.84,80.58a5.29,5.29,0,0,1,1.93,1,4.14,4.14,0,0,1,1.2,1.61,5.17,5.17,0,0,1,.36,2.23,5.62,5.62,0,0,1-.54,2,6,6,0,0,1-1.5,2,8.29,8.29,0,0,1-2.56,1.5,10.12,10.12,0,0,1-3.66.6h-1.42V89.71h1.42a9,9,0,0,0,2.09-.26,7.75,7.75,0,0,0,2.05-.8,5.3,5.3,0,0,0,1.58-1.36,3.31,3.31,0,0,0,.68-1.94,3.71,3.71,0,0,0-.26-1.61,2.4,2.4,0,0,0-.85-1,3.64,3.64,0,0,0-1.36-.54,9,9,0,0,0-1.73-.16h-7.2V80.26h7.2A9.36,9.36,0,0,1,570.84,80.58Z"/><path class="cls-1" d="M12.77,114.86q-.77.91-1.54,2a19.4,19.4,0,0,0-1.4,2.3,8,8,0,0,0-.83,2.5,5.77,5.77,0,0,0,.06,2.28,3.75,3.75,0,0,0,.88,1.66,3.84,3.84,0,0,0,1.6,1,6.86,6.86,0,0,0,2.24.34l.7,0,1.13-.07v1.66q-1.3.07-1.87.07a9,9,0,0,1-3.13-.49,5.5,5.5,0,0,1-2.18-1.42,5,5,0,0,1-1.18-2.26,8.08,8.08,0,0,1-.08-3,7.55,7.55,0,0,1,.56-2,13.34,13.34,0,0,1,1-1.92q.62-1,1.43-2l1.74-2.2-9.79,0V111.6h15.5v1.66H14A17.34,17.34,0,0,1,12.77,114.86Z"/><path class="cls-1" d="M28.21,128.26q-1.34-.94-2.16-1.63a5.24,5.24,0,0,1-1.25-1.5,5.46,5.46,0,0,1-.58-1.86,20.5,20.5,0,0,1-.14-2.69v-8.14H26v8.14a19,19,0,0,0,.12,2.42,3.91,3.91,0,0,0,.47,1.48,3.67,3.67,0,0,0,1,1.07q.65.48,1.7,1.2Zm10.22-6.55q0-1.34-.06-2.18a5.27,5.27,0,0,0-.32-1.52,5.93,5.93,0,0,0-.78-1.38q-.52-.7-1.45-1.75l1.51-1.08A21.76,21.76,0,0,1,39,115.9a7.84,7.84,0,0,1,.9,1.73,6.86,6.86,0,0,1,.37,1.79q.07.95.07,2.29v2.78H38.44Z"/><path class="cls-1" d="M50.74,118.54a12.87,12.87,0,0,1,1.94-.59,10.67,10.67,0,0,1,2.05-.25,8.72,8.72,0,0,1,2,.17,5.48,5.48,0,0,1,1.7.65,4.59,4.59,0,0,1,2.14,4.68,5.56,5.56,0,0,1-1.24,3.18,6.93,6.93,0,0,1-3,2.05,10,10,0,0,1-1.92.47,10.33,10.33,0,0,1-2.1.1,7.3,7.3,0,0,1-2-.38,3.81,3.81,0,0,1-1.54-.95A2.42,2.42,0,0,1,48,126.3a2.27,2.27,0,0,1,.18-1.37,2.53,2.53,0,0,1,1-1.06,2.83,2.83,0,0,1,1.55-.42,4.34,4.34,0,0,1,2.72,1A5.66,5.66,0,0,1,55.21,127a3.81,3.81,0,0,0,.86-.29,4.49,4.49,0,0,0,1.1-.71,4.87,4.87,0,0,0,1-1.2,3.88,3.88,0,0,0,.52-1.76,3.17,3.17,0,0,0-1.32-3.19,4.35,4.35,0,0,0-2-.61,9.6,9.6,0,0,0-2.46.11,14.75,14.75,0,0,0-2.64.71,16.5,16.5,0,0,0-2.52,1.16l-1.08-1.18,8.45-8.35H48.3v-1.54h9.62v1.3Zm2.69,8.86a5.47,5.47,0,0,0-.47-.84,4,4,0,0,0-.64-.73,3.25,3.25,0,0,0-.79-.53,2.17,2.17,0,0,0-.94-.2.83.83,0,0,0-.61.2.75.75,0,0,0-.23.48,1.1,1.1,0,0,0,.12.58,1,1,0,0,0,.46.47,3.47,3.47,0,0,0,.8.35,5.76,5.76,0,0,0,.89.19,7.87,7.87,0,0,0,.82.07A2.44,2.44,0,0,0,53.43,127.39Z"/><path class="cls-1" d="M68.39,123.65a3,3,0,0,1,1.49.38,3,3,0,0,1,1.68,2.81A3.24,3.24,0,0,1,68.36,130a3.18,3.18,0,0,1-1.51-.38,3,3,0,0,1-1.68-2.83,3.13,3.13,0,0,1,1-2.28A3,3,0,0,1,68.39,123.65Zm0,1.22a2.23,2.23,0,0,0-.73.12,1.59,1.59,0,0,0-.61.38,1.86,1.86,0,0,0-.62,1.46,2.18,2.18,0,0,0,.17.84,1.87,1.87,0,0,0,1.8,1.13,2,2,0,0,0,1-.29,1.85,1.85,0,0,0,.94-1.68,1.8,1.8,0,0,0-1.08-1.78A2,2,0,0,0,68.36,124.87Z"/><path class="cls-1" d="M85.74,119.33q-.74-.91-1.55-1.73a15.06,15.06,0,0,0-1.74-1.51l1.1-1.34q.91.72,1.76,1.51a19.44,19.44,0,0,1,1.62,1.7l-1.15,1.37Zm-3.19,9a26.64,26.64,0,0,0,2-3.55q.85-1.85,1.55-3.79l1.32,1.3q-.67,1.94-1.5,3.83A30.54,30.54,0,0,1,84,129.82l-1.39-1.46Zm4-14.59a17.1,17.1,0,0,0-3.17-3.19l1.13-1.34a18.05,18.05,0,0,1,1.72,1.49q.8.79,1.55,1.63l-1.18,1.42Zm4.58-1.34a20,20,0,0,1-1.24,2.28,24.33,24.33,0,0,1-1.52,2.16l-1.06-1.25a16.18,16.18,0,0,0,2.15-3.41,22.85,22.85,0,0,0,1.38-3.82l1.66.36-.35,1.11q-.18.58-.4,1.11h10.39v1.44Zm9.58,2.23q0,1.3-.08,2.56t-.08,2.56h2.35v1.39h-2.4q0,.62-.06,1.32t-.06,1.32l-.07,1.34h2.11v1.39h-2.18c0,.11,0,.22,0,.34s0,.22,0,.34q0,.62-.11,1.12a2,2,0,0,1-.29.85,1.44,1.44,0,0,1-.7.55,3.55,3.55,0,0,1-1.31.19q-1.49,0-2.93-.14l-.26-1.66q.7.12,1.4.18t1.45.06a1.11,1.11,0,0,0,.65-.17,1,1,0,0,0,.35-.42,2,2,0,0,0,.14-.58,6,6,0,0,0,0-.66H90.32a5.74,5.74,0,0,0-.19.73q-.07.37-.12.73l-1.63-.29q.34-1.66.62-3.28t.58-3.28H87.44v-1.39h2.3q.19-1.06.3-2.14t.2-2.14l.07-.84Zm-9.5,6.5q0,.48-.12,1t-.17,1l-.17,1-.14,1h3.19q.12-1,.22-2t.17-2Zm.6-5.11a.58.58,0,0,1,0,.11.53.53,0,0,0,0,.11l-.24,2.23a2.12,2.12,0,0,1,0,.23c0,.07,0,.15,0,.23a2.91,2.91,0,0,0-.07.6.72.72,0,0,1,0,.22h2.88l0-.46,0-.17.22-3.1Zm4,5.11q-.12,1-.19,2t-.19,2h3.31q0-.65.08-1.33c0-.46.05-.9.08-1.33l.1-1.32Zm.34-5.11q-.07.89-.16,1.75t-.08,1.75v.22h3.12q.07-.91.1-1.86t0-1.86Z"/><path class="cls-1" d="M119.8,128.48q-.8.08-1.56.13t-1.44.06h-2.3a13.26,13.26,0,0,1-1.33-.1,13.81,13.81,0,0,1-1.43-.25,6.15,6.15,0,0,1-1.38-.49,4.65,4.65,0,0,1-1.18-.84,3.72,3.72,0,0,1-.84-1.28,4.1,4.1,0,0,1-.31-2,4,4,0,0,1,.7-1.76,7.89,7.89,0,0,1,1.57-1.64,27.15,27.15,0,0,1,2.29-1.64v-9.41h1.82v8.3l1.15-.76,1.2-.76,1.34-.82,1.61-1,1,1.46-4.46,2.62q-1.66,1-3,1.84a14.37,14.37,0,0,0-2.11,1.64,4.55,4.55,0,0,0-1.12,1.56,2.11,2.11,0,0,0,0,1.61,2.08,2.08,0,0,0,.84,1.09,4.44,4.44,0,0,0,1.33.59,8.52,8.52,0,0,0,1.5.25l1.39.08a29.72,29.72,0,0,0,3-.06q1.51-.11,3.22-.32v1.68Q120.61,128.4,119.8,128.48Z"/><path class="cls-1" d="M127.25,129.14v-1.56H136v-4.42h-6.84v-1.58h15.65v1.58h-7v4.42h8.9v1.56Zm12.6-11.93a1,1,0,0,0,.12.54.8.8,0,0,0,.31.28,1.1,1.1,0,0,0,.44.11h1.18a3.93,3.93,0,0,0,.54-.06,2.57,2.57,0,0,0,.5-.14.51.51,0,0,0,.31-.29,2.39,2.39,0,0,0,.08-.4q0-.25.06-.53l0-.54c0-.18,0-.31,0-.41l1.66.41a12.81,12.81,0,0,1-.1,1.45,3,3,0,0,1-.48,1.38,1.22,1.22,0,0,1-.6.41,4.85,4.85,0,0,1-.88.22,7.34,7.34,0,0,1-.92.08h-1.33l-.73,0-.73-.1a1.78,1.78,0,0,1-.56-.18,1.18,1.18,0,0,1-.52-.61,2.3,2.3,0,0,1-.13-.78v-5h-8.59v3.5h-1.73v-5.06H136v-3.1h1.8v3.1h8.3v4.22h-1.73V113h-4.51Zm-11.57,2.18a9.85,9.85,0,0,0,2.26-.72,5,5,0,0,0,1.61-1.18,5.46,5.46,0,0,0,1-1.73,9.45,9.45,0,0,0,.53-2.35l1.58.36a11.92,11.92,0,0,1-.58,2.64,6.37,6.37,0,0,1-1.13,2,6,6,0,0,1-1.8,1.43,11,11,0,0,1-2.54.94l-1-1.39Z"/><path class="cls-1" d="M159,126.46a13.22,13.22,0,0,0,2.17-.35,6.83,6.83,0,0,0,1.82-.74,6.47,6.47,0,0,0,1.5-1.24,7.84,7.84,0,0,0,1.2-1.82,6.39,6.39,0,0,0,.71-3.23,6.28,6.28,0,0,0-1-3.08,6,6,0,0,0-2-2,7,7,0,0,0-2.75-.94q-.07,1.66-.28,3.14a25.1,25.1,0,0,1-.56,2.88q-.14.62-.35,1.34t-.49,1.49q-.29.77-.65,1.55a9.94,9.94,0,0,1-.84,1.48,4.66,4.66,0,0,1-1.32,1.38,3.64,3.64,0,0,1-1.45.58,3.08,3.08,0,0,1-1.43-.12,3.4,3.4,0,0,1-1.25-.73,4.5,4.5,0,0,1-.95-1.3,6.82,6.82,0,0,1-.52-1.45,8.26,8.26,0,0,1-.2-1.43q0-.7,0-1.2a9.73,9.73,0,0,1,1-4,9.7,9.7,0,0,1,8.56-5.27,8.74,8.74,0,0,1,4.07.95,7.7,7.7,0,0,1,3,2.68,7.9,7.9,0,0,1,1.28,3.94,8.32,8.32,0,0,1-.88,4.13,8.73,8.73,0,0,1-3.37,3.74,10.53,10.53,0,0,1-4.93,1.34Zm-1-7.8q.29-1.27.48-2.64t.26-2.88a7.75,7.75,0,0,0-2.21.72,7.63,7.63,0,0,0-2.08,1.51,8.23,8.23,0,0,0-1.58,2.32,8.32,8.32,0,0,0-.73,3.11,6.74,6.74,0,0,0,0,.76,7,7,0,0,0,.12,1.1,6.2,6.2,0,0,0,.35,1.19,3,3,0,0,0,.67,1,1.21,1.21,0,0,0,1.38.32,2.75,2.75,0,0,0,1.26-1.14,12,12,0,0,0,1.28-2.68Q157.76,119.93,158.07,118.66Z"/><path class="cls-1" d="M187.48,113.71a15.35,15.35,0,0,1-.64,4.66,12.82,12.82,0,0,1-1.9,3.71,19.33,19.33,0,0,1-3.16,3.31q-1.9,1.6-4.42,3.42l-1.27-1.44q2.5-1.82,4.26-3.32a19.27,19.27,0,0,0,2.89-3,10.67,10.67,0,0,0,1.67-3.14,13.12,13.12,0,0,0,.59-3.77h-12v-1.87h14Zm-1-2.52h-1.42v-3.67h1.42Zm3,0H188v-3.67h1.42Z"/><path class="cls-1" d="M197.35,115.92q0,2-.14,3.55a13.44,13.44,0,0,1-.59,2.88,13.88,13.88,0,0,1-1.28,2.78,36.83,36.83,0,0,1-2.21,3.24l-1.54-1.1q1.27-1.73,2-3a13.09,13.09,0,0,0,1.18-2.52,11.3,11.3,0,0,0,.53-2.58q.12-1.36.12-3.2v-2.78h1.9Zm5.11,10.61a7.73,7.73,0,0,0,1.9-.25,4,4,0,0,0,1.52-.83,7.94,7.94,0,0,0,1.39-1.61q.68-1,1.52-2.57l1.58,1a25.88,25.88,0,0,1-1.78,2.92,8.77,8.77,0,0,1-1.75,1.86,5.66,5.66,0,0,1-2,1,10,10,0,0,1-2.54.29h-1.73V110.86h1.87Z"/><path class="cls-1" d="M214.73,118.32h17.71v1.82H214.73Z"/><path class="cls-1" d="M237.87,127.28a23.58,23.58,0,0,0-2.06-2.2l1.54-1.32a22.13,22.13,0,0,1,2,2q1,1.15,2,2.59l-1.68,1.44A24.54,24.54,0,0,0,237.87,127.28Z"/><path class="cls-1" d="M260.38,124.58q-.46.79-1,1.58t-1.15,1.56q2.28-.07,4.5-.19t4.52-.31q-.43-.46-.9-.89t-.95-.84l1.37-.77a28.64,28.64,0,0,1,2.39,2.06q1.12,1.08,2.15,2.26l-1.46,1.1-.76-.91q-.37-.46-.76-.89-3.58.48-7.1.74t-7.18.43l-.6-1.68h.9l.9,0h1.13q.48-.7,1-1.55a18.94,18.94,0,0,0,.95-1.67h-6.22v-1.39H272.5v1.39Zm9.5-15.34v1.44H263v1.42h8.59V117H270v-3.62H263v5.78h-1.61v-5.78h-6.79V117H253V112.1h8.47v-1.42h-6.72v-1.44Zm-15.5,11H270.2v1.32H254.38Zm1.22-5.45h4.85v1.25h-4.85Zm0,2.62h4.85v1.22h-4.85Zm8.42-2.62h5v1.25h-5Zm0,2.62h5v1.22h-5Z"/><path class="cls-1" d="M285.52,126.46a13.2,13.2,0,0,0,2.17-.35,6.82,6.82,0,0,0,1.82-.74,6.43,6.43,0,0,0,1.5-1.24,7.85,7.85,0,0,0,1.2-1.82,6.38,6.38,0,0,0,.71-3.23,6.29,6.29,0,0,0-1-3.08,6,6,0,0,0-2-2,7,7,0,0,0-2.75-.94q-.07,1.66-.28,3.14a25.1,25.1,0,0,1-.56,2.88q-.14.62-.35,1.34t-.49,1.49q-.29.77-.65,1.55A9.94,9.94,0,0,1,284,125a4.66,4.66,0,0,1-1.32,1.38,3.64,3.64,0,0,1-1.45.58,3.08,3.08,0,0,1-1.43-.12,3.4,3.4,0,0,1-1.25-.73,4.5,4.5,0,0,1-.95-1.3,6.82,6.82,0,0,1-.52-1.45,8.26,8.26,0,0,1-.2-1.43q0-.7,0-1.2a9.73,9.73,0,0,1,1-4,9.7,9.7,0,0,1,8.56-5.27,8.73,8.73,0,0,1,4.07.95,7.7,7.7,0,0,1,3,2.68,7.9,7.9,0,0,1,1.28,3.94,8.32,8.32,0,0,1-.87,4.13,8.74,8.74,0,0,1-3.37,3.74,10.53,10.53,0,0,1-4.93,1.34Zm-1-7.8q.29-1.27.48-2.64t.26-2.88a7.75,7.75,0,0,0-2.21.72,7.63,7.63,0,0,0-2.08,1.51,8.23,8.23,0,0,0-1.58,2.32,8.32,8.32,0,0,0-.73,3.11,6.74,6.74,0,0,0,0,.76,7,7,0,0,0,.12,1.1,6.2,6.2,0,0,0,.35,1.19,3,3,0,0,0,.67,1,1.21,1.21,0,0,0,1.38.32,2.75,2.75,0,0,0,1.26-1.14,12,12,0,0,0,1.28-2.68Q284.25,119.93,284.56,118.66Z"/><path class="cls-1" d="M305.66,112.39a31.6,31.6,0,0,0,.89-3.77l2,.5q-.22.82-.5,1.66t-.62,1.61h7.68v17.23h-1.75v-1.49h-11v1.49h-1.75V112.39ZM302.42,114v5.23h11V114Zm0,6.86v5.64h11v-5.64Z"/><path class="cls-1" d="M322.12,127.28a23.57,23.57,0,0,0-2.06-2.2l1.54-1.32a22.19,22.19,0,0,1,2,2q1,1.15,2,2.59L324,129.84A24.39,24.39,0,0,0,322.12,127.28Z"/><path class="cls-1" d="M338.35,119.86a13.92,13.92,0,0,1-.95,1.08q-.49.5-1,1l-.89-1.32a26.75,26.75,0,0,0,2.92-3.34,20.85,20.85,0,0,0,2.24-3.86l1.37.77q-.43.89-.94,1.78t-1.13,1.8V130h-1.58Zm-2.74-5.66a15.74,15.74,0,0,0,2.53-2.47,20.54,20.54,0,0,0,2-3l1.39.74a19.49,19.49,0,0,1-2.15,3.2,18.43,18.43,0,0,1-2.82,2.75Zm13.82,7.42v1.49h-3V126l.1,0,.17,0c.22-.06.44-.12.66-.16l.66-.13,2.18-.5.07,1.37q-2.3.62-4.51,1.16t-4.46.95l-.5-1.66,1-.14q.52-.07,1-.19l.82-.14.82-.12a.33.33,0,0,1,.14,0,.22.22,0,0,1,.12,0,.32.32,0,0,0,.17,0h0V123.1h-3.22v-1.49h3.22v-2.4h1.54v2.4Zm-.41-9.19v1.49h-2.57V117h3.07v1.49h-8.23V117h3.62V113.9H342.1v-1.49h2.83V109h1.54v3.38ZM354,128a1.64,1.64,0,0,1-.5,1.33,2.15,2.15,0,0,1-1.42.42l-1.14,0q-.56,0-1.12-.1l-.31-1.7.24,0,1,.11a8.72,8.72,0,0,0,1,.06.5.5,0,0,0,.47-.22,1,1,0,0,0,.13-.55v-9.7h-2.5v-1.51h6.24v1.51H354Zm-4.06-17.57h5.74V112H349.9Z"/><path class="cls-1" d="M362.95,122.83q0,1.06.06,1.68a4.79,4.79,0,0,0,.22,1.08,3,3,0,0,0,.47.86q.31.41.82,1L363,128.57q-.6-.79-1-1.37a5.24,5.24,0,0,1-.55-1.18,5.86,5.86,0,0,1-.25-1.33q-.06-.73-.06-1.86v-12h1.73Zm6.24-1.25a12.94,12.94,0,0,0,0,2,3.09,3.09,0,0,0,.36,1.33,1.83,1.83,0,0,0,.86.77,3.73,3.73,0,0,0,1.5.25h5.26v1.75h-5.38a5.46,5.46,0,0,1-2.28-.42A3.35,3.35,0,0,1,368,126a4.53,4.53,0,0,1-.67-1.91,10.79,10.79,0,0,1,0-2.54ZM368.11,113h8.45v1.8h-8.45Z"/><path class="cls-1" d="M382.33,126.55V110.83h6.1v13.85h-4.51v1.87Zm1.58-14.21v10.82h2.93V112.34Zm11.93,1.42a22,22,0,0,0,1.1-2.57q.48-1.34.86-2.69l1.8.55q-.41,1.18-.92,2.38t-1.12,2.33h3.58v1.51h-5.3v4h5.81v1.51H396.2a13.92,13.92,0,0,0,2.18,4.14,13.21,13.21,0,0,0,3.48,3.13l-1.25,1.66a22.69,22.69,0,0,1-3.18-3.37,13.85,13.85,0,0,1-2.17-4.09,10.23,10.23,0,0,1-1.91,4.57,13,13,0,0,1-3.76,3.32l-1.13-1.46a9.53,9.53,0,0,0,3.82-3.23,11.58,11.58,0,0,0,1.82-4.67h-5.21V119.3h5.28v-4h-4.66v-1.51Zm-3.34-.22a20.27,20.27,0,0,0-.73-2.1,15.64,15.64,0,0,0-1-2l1.49-.7q.58,1,1,2a16.32,16.32,0,0,1,.8,2.08l-1.54.74Z"/><path class="cls-1" d="M413.65,127.32q-.86-1.13-1.73-2.21t-1.66-2l-1.37-1.63a2.6,2.6,0,0,1-.48-.82,2.88,2.88,0,0,1-.18-.94,3.33,3.33,0,0,1,.11-.94,2.41,2.41,0,0,1,.41-.84q.5-.67,1.21-1.66l1.53-2.15,1.71-2.45q.9-1.28,1.76-2.56l1.54,1q-.86,1.27-1.75,2.54T413,115.12q-.84,1.16-1.57,2.15l-1.26,1.68a1.06,1.06,0,0,0-.18.67,1.07,1.07,0,0,0,.23.67q.62.7,1.45,1.67t1.72,2.08q.89,1.1,1.76,2.26t1.62,2.18l-1.56,1Q414.52,128.45,413.65,127.32Z"/><path class="cls-1" d="M427.13,121.82l-1.43,1.43a16.22,16.22,0,0,1-1.52,1.33L423,123.22a21.23,21.23,0,0,0,3.49-3.19,17.68,17.68,0,0,0,2.58-3.94l1.56.7q-.38.72-.86,1.48t-1,1.52h0V130h-1.68Zm8.33-10.06v-3h1.7v3h5.45v1.58h-5.45v2.52h-1.7v-2.52h-5v2.52h-1.73v-2.52h-5.28v-1.58h5.28v-3h1.73v3Zm-.84,9.34a22.73,22.73,0,0,0,5.76-3.48l1.34,1.27a27.76,27.76,0,0,1-7.13,3.86h0v3.62a2.5,2.5,0,0,0,.08.65.68.68,0,0,0,.4.46,2,2,0,0,0,.5.16,5.41,5.41,0,0,0,.65.08l.66,0h1.6a4.75,4.75,0,0,0,1.06-.12,1.82,1.82,0,0,0,.82-.35,1.33,1.33,0,0,0,.43-.76,6.69,6.69,0,0,0,.16-1.18q0-.67.08-1.3,0-.14,0-.3c0-.1,0-.2,0-.3l1.75.62c0,.83-.1,1.54-.14,2.14a7.08,7.08,0,0,1-.25,1.48,2.29,2.29,0,0,1-.52.94,2.13,2.13,0,0,1-.94.53,6.52,6.52,0,0,1-1.5.23q-.9,0-2.2,0h-.79l-1.06,0a10.17,10.17,0,0,1-1-.12,1.65,1.65,0,0,1-.71-.25,1.43,1.43,0,0,1-.56-.78,3.48,3.48,0,0,1-.13-.95V116.42h1.63Z"/><path class="cls-1" d="M455.92,126.46a13.21,13.21,0,0,0,2.17-.35,6.83,6.83,0,0,0,1.82-.74,6.47,6.47,0,0,0,1.5-1.24,7.85,7.85,0,0,0,1.2-1.82,6.39,6.39,0,0,0,.71-3.23,6.27,6.27,0,0,0-1-3.08,6,6,0,0,0-2-2,7,7,0,0,0-2.75-.94q-.07,1.66-.28,3.14a25.21,25.21,0,0,1-.56,2.88q-.14.62-.35,1.34t-.49,1.49q-.29.77-.65,1.55a9.9,9.9,0,0,1-.84,1.48,4.66,4.66,0,0,1-1.32,1.38,3.64,3.64,0,0,1-1.45.58,3.08,3.08,0,0,1-1.43-.12,3.39,3.39,0,0,1-1.25-.73,4.49,4.49,0,0,1-.95-1.3,6.85,6.85,0,0,1-.52-1.45,8.21,8.21,0,0,1-.2-1.43c0-.46,0-.86,0-1.2a9.73,9.73,0,0,1,1-4,9.7,9.7,0,0,1,8.56-5.27,8.73,8.73,0,0,1,4.07.95,7.7,7.7,0,0,1,3,2.68,7.9,7.9,0,0,1,1.28,3.94,8.32,8.32,0,0,1-.88,4.13,8.73,8.73,0,0,1-3.37,3.74,10.53,10.53,0,0,1-4.93,1.34Zm-1-7.8q.29-1.27.48-2.64t.26-2.88a7.74,7.74,0,0,0-2.21.72,7.63,7.63,0,0,0-2.08,1.51,8.18,8.18,0,0,0-2.32,5.42,6.48,6.48,0,0,0,0,.76,7,7,0,0,0,.12,1.1,6.23,6.23,0,0,0,.35,1.19,3,3,0,0,0,.67,1,1.21,1.21,0,0,0,1.38.32,2.75,2.75,0,0,0,1.26-1.14,12,12,0,0,0,1.28-2.68Q454.64,119.93,455,118.66Z"/><path class="cls-1" d="M482.16,127.94a2.61,2.61,0,0,1-.36,1.5,1.69,1.69,0,0,1-1.46.52q-.63,0-1.22,0a9.46,9.46,0,0,1-1.22-.16l-.24-1.85a5.51,5.51,0,0,0,1.12.26,8.75,8.75,0,0,0,1.12.07q.62,0,.62-.7v-9.77h-2.4q0,1.7-.14,3.48a16.26,16.26,0,0,1-.6,3.43,11.34,11.34,0,0,1-1.44,3.11,8.4,8.4,0,0,1-2.62,2.48l-1.06-1.51a7.24,7.24,0,0,0,2.33-1.92,7.79,7.79,0,0,0,1.25-2.4,11.28,11.28,0,0,0,.49-2.76q.08-1.46.08-3v-.91h-6.31v-1.54h8.23v-2.9H472v-1.49h6.34v-3.48h1.75v3.48h6.41v1.49h-6.41v2.9h8.33v1.54h-6.24Zm-11.81-2.33a12.42,12.42,0,0,0,1.82-2.86,17.33,17.33,0,0,0,1.13-3.29l1.63.5a22.36,22.36,0,0,1-1.27,3.6,18,18,0,0,1-2,3.38Zm16,1.3q-.67-1.8-1.49-3.47a34.9,34.9,0,0,0-1.85-3.3l1.44-.89q1.1,1.61,2,3.23a33.59,33.59,0,0,1,1.6,3.28l-1.58,1.15Z"/><path class="cls-1" d="M494.18,127.28a23.57,23.57,0,0,0-2.06-2.2l1.54-1.32a22.19,22.19,0,0,1,2,2q1,1.15,2,2.59L496,129.84A24.39,24.39,0,0,0,494.18,127.28Z"/><path class="cls-1" d="M510.79,119a30.2,30.2,0,0,1-1.09,3.28,30.58,30.58,0,0,1-1.48,3.16l-.84-1.78a24.22,24.22,0,0,0,2-4.18A34.7,34.7,0,0,0,510.6,115h-2.71v-1.54h2.9v-5.06h1.49v5.06h2V115h-2v2.59q.67.7,1.26,1.43a14.25,14.25,0,0,1,1.07,1.52l-1,1.51-.66-1.3q-.32-.62-.68-1.22V130h-1.49Zm8.14,6.34q-1.22.48-2.44.9T514,127l-.65-1.54,1.78-.43h0V111.12h-1.42v-1.49h7.94v1.49h-1.22V130h-1.46Zm0-14.18H516.5v3.24h2.42Zm0,4.68H516.5V119h2.42Zm-2.42,8.86,1.22-.37,1.22-.4h0v-3.41H516.5Zm11.62-14.26q-.39,1.73-.83,3.4t-1,3.35a18.7,18.7,0,0,1,1.54,3.13,9.56,9.56,0,0,1,.62,3.42,6.56,6.56,0,0,1-.07,1,1.83,1.83,0,0,1-.3.78,1.42,1.42,0,0,1-.64.49,2.79,2.79,0,0,1-1.06.17l-.94,0a5.91,5.91,0,0,1-.91-.12l-.29-1.7a5,5,0,0,0,1.63.26.93.93,0,0,0,.52-.12.72.72,0,0,0,.26-.31,1.25,1.25,0,0,0,.1-.44c0-.17,0-.35,0-.54a8.4,8.4,0,0,0-.58-3.08,13,13,0,0,0-1.49-2.77q.48-1.51.88-3t.66-3.12H523.7V130h-1.54V109.63h5.14Z"/><path class="cls-1" d="M542.77,120.34v7.2a2,2,0,0,1-.48,1.57,2.53,2.53,0,0,1-1.66.42q-.84,0-1.64-.07l-1.57-.14-.34-2q.82.14,1.6.24a12.3,12.3,0,0,0,1.5.1q.82,0,.82-.89v-6.41h-8.52v-1.66h8.4v-3.43a22.08,22.08,0,0,0,2.59-1.51q1.32-.89,2.47-1.8H534.66v-1.61h13.49l.94,1.1q-1.54,1.3-3.12,2.45t-3.31,2.18v2.62h8.14v1.66Z"/><path class="cls-1" d="M560.54,115l1.68-.18,1.92-.2,1.8-.17q.84-.07,1.32-.07a5.81,5.81,0,0,1,4.15,1.34,3.85,3.85,0,0,1,1,1.49,4.07,4.07,0,0,1,.25,1.7,4.32,4.32,0,0,1-.47,1.67,3.94,3.94,0,0,1-1.13,1.36,5,5,0,0,1-1.22.66,4.34,4.34,0,0,1-1.39.28,6.89,6.89,0,0,1-.92,0,4.77,4.77,0,0,1-.89-.17,6.4,6.4,0,0,1-1.06-.42q-.59-.29-1.38-.77l1-1.46q.58.36,1,.58a7.24,7.24,0,0,0,.74.35,2.57,2.57,0,0,0,.64.17,5.35,5.35,0,0,0,.64,0,2.91,2.91,0,0,0,1-.16,3.51,3.51,0,0,0,.83-.42,2.46,2.46,0,0,0,.66-.84,2.43,2.43,0,0,0,.24-1,2.69,2.69,0,0,0-.17-1,2.31,2.31,0,0,0-.54-.85,4.42,4.42,0,0,0-3-.86h-.68l-1,.07-1.75.18-3.06.31.79,12.19h-1.9l-.72-12-3.41.36v-1.61l3.31-.38-.36-5.88h1.82Zm2.93-6.12a18.83,18.83,0,0,0,1.67,1,8.45,8.45,0,0,0,1.43.6,7.19,7.19,0,0,0,1.5.29c.54,0,1.16.07,1.88.07v1.7q-1.27,0-2.22-.1a10,10,0,0,1-1.78-.34,8.64,8.64,0,0,1-1.64-.67q-.82-.43-1.82-1.08Z"/><path class="cls-1" d="M16.13,153.56a15.71,15.71,0,0,1-1.87,3.76l2.42,1.85-1.13,1.32-2.3-1.82q-.65.79-1.34,1.55t-1.52,1.55q-.83.79-1.87,1.67t-2.36,1.91L5,163.92q1.32-1,2.34-1.86t1.82-1.61q.8-.76,1.44-1.45t1.19-1.39l-1.61-1.18-1.48-1-1.4-.95,1.08-1.37q.62.43,1.38,1l1.43,1,1.58,1.18a14.66,14.66,0,0,0,1.54-3.13,10.86,10.86,0,0,0,.58-3.2h-6q-.36.65-.79,1.28A15.94,15.94,0,0,1,7,152.65q-.65.76-1.55,1.67t-2.17,2.09L2,155.09q2-1.9,3.25-3.24a14.54,14.54,0,0,0,1.82-2.41,6.54,6.54,0,0,0,.79-2,11.33,11.33,0,0,0,.18-2.09H10A15,15,0,0,1,9.89,147a8.13,8.13,0,0,1-.26,1.3h7.13v1.44A12.19,12.19,0,0,1,16.13,153.56Z"/><path class="cls-1" d="M22.59,154.32H40.3v1.82H22.59Z"/><path class="cls-1" d="M55.58,153.6a14,14,0,0,1-1.88,3.8,23,23,0,0,1-3.11,3.54q-1.86,1.75-4.33,3.86L45,163.37q2.45-2.11,4.18-3.77A23.3,23.3,0,0,0,52,156.38a11.78,11.78,0,0,0,1.66-3.23,13.25,13.25,0,0,0,.59-3.78H42V147.5H56.21v1.42A15.59,15.59,0,0,1,55.58,153.6Z"/><path class="cls-1" d="M70.11,162.46a13.22,13.22,0,0,0,2.17-.35,6.83,6.83,0,0,0,1.82-.74,6.47,6.47,0,0,0,1.5-1.24,7.84,7.84,0,0,0,1.2-1.82,6.39,6.39,0,0,0,.71-3.23,6.28,6.28,0,0,0-1-3.08,6,6,0,0,0-2-2,7,7,0,0,0-2.75-.94q-.07,1.66-.28,3.14a25.1,25.1,0,0,1-.56,2.88q-.14.62-.35,1.34t-.49,1.49q-.29.77-.65,1.55a9.94,9.94,0,0,1-.84,1.48,4.66,4.66,0,0,1-1.32,1.38,3.64,3.64,0,0,1-1.45.58,3.08,3.08,0,0,1-1.43-.12,3.4,3.4,0,0,1-1.25-.73,4.5,4.5,0,0,1-.95-1.3,6.82,6.82,0,0,1-.52-1.45,8.26,8.26,0,0,1-.2-1.43q0-.7,0-1.2a9.73,9.73,0,0,1,1-4A9.7,9.7,0,0,1,71,147.43a8.74,8.74,0,0,1,4.07.95,7.7,7.7,0,0,1,3,2.68A7.9,7.9,0,0,1,79.36,155a8.32,8.32,0,0,1-.88,4.13,8.73,8.73,0,0,1-3.37,3.74,10.53,10.53,0,0,1-4.93,1.34Zm-1-7.8q.29-1.27.48-2.64t.26-2.88a7.75,7.75,0,0,0-2.21.72,7.63,7.63,0,0,0-2.08,1.51A8.23,8.23,0,0,0,64,153.68a8.32,8.32,0,0,0-.73,3.11,6.74,6.74,0,0,0,0,.76,7,7,0,0,0,.12,1.1,6.2,6.2,0,0,0,.35,1.19,3,3,0,0,0,.67,1,1.21,1.21,0,0,0,1.38.32,2.75,2.75,0,0,0,1.26-1.14,12,12,0,0,0,1.28-2.68Q68.83,155.93,69.15,154.66Z"/><path class="cls-1" d="M86.7,163.66q3-1.87,5-3.5a24.16,24.16,0,0,0,3.4-3.17,10.93,10.93,0,0,0,1.92-3,9.21,9.21,0,0,0,.65-3.14h-6a11.12,11.12,0,0,1-.85,1.36,11.45,11.45,0,0,1-1.13,1.3,19.62,19.62,0,0,1-1.54,1.37q-.88.71-2.05,1.52L85,154.87A28.31,28.31,0,0,0,87.48,153a15.09,15.09,0,0,0,1.64-1.66,7.46,7.46,0,0,0,1-1.5,7,7,0,0,0,.52-1.43,7.91,7.91,0,0,0,.2-1.44q0-.73,0-1.55H92.8q0,.72,0,1.25t-.07.94q0,.41-.11.76a6.5,6.5,0,0,1-.16.68h7.18v1.63a10.41,10.41,0,0,1-.65,3.66,12.44,12.44,0,0,1-2.06,3.48,24,24,0,0,1-3.67,3.54,59.55,59.55,0,0,1-5.47,3.82Zm11.81-16H97.09V144h1.42Zm3,0h-1.42V144h1.42Z"/><path class="cls-1" d="M110,146.21v10.42h-1.78V146.21Zm7.15,6.07v-6.07H119v6.07q0,1.92-.12,3.35a16.75,16.75,0,0,1-.4,2.56,8.45,8.45,0,0,1-.76,2,8.83,8.83,0,0,1-1.2,1.69,16,16,0,0,1-1.7,1.62q-1,.82-2.28,1.8l-1.13-1.54q1.18-.89,2.05-1.61a14.68,14.68,0,0,0,1.51-1.42,6.89,6.89,0,0,0,1.69-3.18,13.81,13.81,0,0,0,.34-2.26Q117.12,154,117.12,152.28Z"/><path class="cls-1" d="M125.7,154.32h17.71v1.82H125.7Z"/><path class="cls-1" d="M151.41,148.2V150h-6.67V148.2Zm8.76,4.85q-1,1.92-1.92,3.49a30.34,30.34,0,0,1-1.79,2.82,14.3,14.3,0,0,1-1.92,2.18,9.18,9.18,0,0,1-2.33,1.55,12.07,12.07,0,0,1-3,.91,21.9,21.9,0,0,1-3.86.3v-1.78a20.46,20.46,0,0,0,3.25-.23,9.48,9.48,0,0,0,2.51-.74,8,8,0,0,0,2-1.32,12.1,12.1,0,0,0,1.72-2,31.08,31.08,0,0,0,1.69-2.69q.86-1.52,1.92-3.47Z"/><path class="cls-1" d="M165.3,153.84h2.59v2.69H165.3Zm7.51,0h2.59v2.69h-2.59Zm7.51,0h2.59v2.69h-2.59Z"/><path class="cls-1" d="M189.39,159.65a3,3,0,0,1,1.49.38,3,3,0,0,1,1.68,2.81,3.24,3.24,0,0,1-3.19,3.19,3.18,3.18,0,0,1-1.51-.38,3,3,0,0,1-1.68-2.83,3.13,3.13,0,0,1,1-2.28A3,3,0,0,1,189.39,159.65Zm0,1.22a2.23,2.23,0,0,0-.73.12,1.59,1.59,0,0,0-.61.38,1.86,1.86,0,0,0-.62,1.46,2.18,2.18,0,0,0,.17.84,1.87,1.87,0,0,0,1.8,1.13,2,2,0,0,0,1-.29,1.85,1.85,0,0,0,.94-1.68,1.8,1.8,0,0,0-1.08-1.78A2,2,0,0,0,189.37,160.87Z"/><path class="cls-1" d="M12.08,192.1a15.79,15.79,0,0,0-1.36,1.45,8.22,8.22,0,0,0-.94,1.4,3.54,3.54,0,0,0-.41,1.39,3.1,3.1,0,0,0,.18,1.45,2.48,2.48,0,0,0,.74,1,3.11,3.11,0,0,0,1.19.58,6.15,6.15,0,0,0,1.54.18q.55,0,1,0l1.1-.12V201l-1.13.13a8.63,8.63,0,0,1-1,.06,7.78,7.78,0,0,1-2.26-.31A4.84,4.84,0,0,1,9,200a3.91,3.91,0,0,1-1.1-1.56,4.94,4.94,0,0,1-.28-2.21A4.34,4.34,0,0,1,8,194.69a7.82,7.82,0,0,1,.86-1.45,14.37,14.37,0,0,1,1.19-1.39q.66-.68,1.36-1.33H2.57v-1.44h4.1l5.54-5.42H5.86v-1.51h9.22v1.1l-6,5.83h9.29v1.44H13.75Z"/><path class="cls-1" d="M38.17,200.7l-.77.14-.77.1q-.37,0-.66,0a6,6,0,0,1-1.22-.12,7,7,0,0,1-1.13-.34A3.14,3.14,0,0,1,32.06,199a5.59,5.59,0,0,1-.55-2.63v-2.14a1.91,1.91,0,0,0-.26-1.15,1.26,1.26,0,0,0-1-.34H27.53l-3.34,8.11-1.63-.67,7.51-18.43,1.63.65-3.5,8.76h2a3.26,3.26,0,0,1,2.39.82,3.22,3.22,0,0,1,.83,2.4v2.23a5.06,5.06,0,0,0,.08,1,2.43,2.43,0,0,0,.23.66,1.26,1.26,0,0,0,.31.4,1.5,1.5,0,0,0,.34.2,4,4,0,0,0,1.66.31,8,8,0,0,0,1.33-.12l1.48-.26v1.68Z"/><path class="cls-1" d="M43,196.34A55.47,55.47,0,0,0,47.38,186h-3v-1.68h3.53l.49-1.82q.23-.84.37-1.32l1.73.41q-.12.36-.3,1.09t-.44,1.64H53V186H49.25a59.89,59.89,0,0,1-2.08,5.84q-1.16,2.8-2.58,5.44Zm15.7-6.82a1.78,1.78,0,0,0-1.5.82,4.18,4.18,0,0,0-.54,2.54v3a18,18,0,0,1,2.11,1q1,.55,2.42,1.37l-.86,1.46L59.22,199l-.92-.53-.83-.43-.8-.38a3.33,3.33,0,0,1-.89,2.63,3.72,3.72,0,0,1-2.59.83,5.59,5.59,0,0,1-1.7-.28A4.56,4.56,0,0,1,50,200a3.14,3.14,0,0,1-.95-1.26,2.27,2.27,0,0,1,0-1.67,2.59,2.59,0,0,1,1.1-1.31,4.91,4.91,0,0,1,2.09-.66l.7-.06a5.3,5.3,0,0,1,.61,0q.3,0,.64.08l.77.16v-2.52a5.46,5.46,0,0,1,.26-2,4.16,4.16,0,0,1,.84-1.37q-.94,0-1.56,0a6,6,0,0,0-1.1.18,4.22,4.22,0,0,0-.9.36q-.42.23-.95.56l-.89-1.3a9.9,9.9,0,0,1,2.14-1,6.7,6.7,0,0,1,2.14-.27l5.4.1v1.41ZM55.06,197a7.42,7.42,0,0,0-2-.31,5.33,5.33,0,0,0-.73.06,4.44,4.44,0,0,0-.78.18,1.51,1.51,0,0,0-.71.46,1,1,0,0,0,.12,1.4,2.44,2.44,0,0,0,.79.46,4.49,4.49,0,0,0,.88.22,5.17,5.17,0,0,0,.6.06A1.65,1.65,0,0,0,54.7,199a2.74,2.74,0,0,0,.36-1.52Z"/><path class="cls-1" d="M71.88,182.23q-.41,1.56-.93,3.06t-1.22,3a7.79,7.79,0,0,1,2.13,5.47,7.41,7.41,0,0,1-.07,1.07,2.38,2.38,0,0,1-.29.86,1.43,1.43,0,0,1-.63.58,2.54,2.54,0,0,1-1.11.2q-.43,0-.86,0l-.83-.08-.26-1.73a5.79,5.79,0,0,0,1.7.26.64.64,0,0,0,.43-.14.88.88,0,0,0,.25-.37,1.92,1.92,0,0,0,.11-.48c0-.17,0-.32,0-.47a6.88,6.88,0,0,0-.55-2.81A6.38,6.38,0,0,0,68,188.38l.1-.17a12.67,12.67,0,0,0,1.12-2.52q.42-1.32.73-2.66H67.3v19H65.76V181.51h5.33Zm9.89,12.14a15.18,15.18,0,0,1-1.83,4.38,11.86,11.86,0,0,1-3.27,3.42L75.38,201a10.74,10.74,0,0,0,3-2.89,12.37,12.37,0,0,0,1.8-3.78H78.57a14,14,0,0,1-2,3.61,12.5,12.5,0,0,1-3,2.82l-1.27-1.13a12.9,12.9,0,0,0,2.8-2.27,9.79,9.79,0,0,0,1.91-3h-1.6a16.78,16.78,0,0,1-1.57,2.06,15,15,0,0,1-1.91,1.8l-1.2-1.15a11.26,11.26,0,0,0,2.63-2.44,12.37,12.37,0,0,0,1.76-3.13H71.9v-1.39H85.56v1.39H76.72q-.15.37-.29.78a4.65,4.65,0,0,1-.34.76h8.72q0,.65-.06,1.68t-.13,2.14q-.1,1.11-.23,2.13A7.41,7.41,0,0,1,84,200.6a1.92,1.92,0,0,1-.88,1.1,3,3,0,0,1-1.43.31q-.53,0-1,0l-1-.08-.34-1.73a10.59,10.59,0,0,0,1.09.18,9.49,9.49,0,0,0,1,.06,1.14,1.14,0,0,0,.76-.23,1.47,1.47,0,0,0,.41-.71,6.31,6.31,0,0,0,.21-1q.1-.62.17-1.31t.11-1.32q0-.64,0-1v-.17a1,1,0,0,1,0-.26Zm1.51-12.94v7.37H73.87v-7.37Zm-7.87,1.37v1.58h6.34v-1.58Zm0,2.9v1.78h6.34v-1.78Z"/><path class="cls-1" d="M93.52,184.32q-.6,1.15-1.36,2.33a19.76,19.76,0,0,1-1.64,2.21l-1.08-1.3a15.84,15.84,0,0,0,2.28-3.31,19.61,19.61,0,0,0,1.46-3.79l1.73.34q-.17.53-.35,1t-.37,1h13.15v1.49ZM96,196.15a36,36,0,0,0-4.63-2.88l1-1.18q1.15.58,2.3,1.27t2.16,1.39l.17.12a13.77,13.77,0,0,0,2-3.72l1.58.74a22.56,22.56,0,0,1-1,2,15.7,15.7,0,0,1-1.26,1.93q1.13.84,2.21,1.74t2.11,1.84l-1.18,1.37q-1-1-2-1.9t-2.14-1.75a15.54,15.54,0,0,1-3,2.68,18.3,18.3,0,0,1-3.52,1.88l-1-1.51a18.08,18.08,0,0,0,3.23-1.61,13.07,13.07,0,0,0,2.8-2.3Zm9.31-4.85q0,.7,0,1.67t.12,2q.08,1,.23,2a9.82,9.82,0,0,0,.36,1.61s0,0,0,0,0,0,0,0a1.82,1.82,0,0,0,.1.26l.14.32a1.72,1.72,0,0,0,.16.28c.06.08.11.12.16.12s.19-.18.29-.53a11.45,11.45,0,0,0,.25-1.2q.11-.67.18-1.3t.1-.79l1.51,1.08q0,.38-.18,1.24a12.35,12.35,0,0,1-.4,1.72,6.27,6.27,0,0,1-.67,1.51,1.17,1.17,0,0,1-1,.65,1.13,1.13,0,0,1-.68-.24,2.69,2.69,0,0,1-.58-.59,5.25,5.25,0,0,1-.44-.73q-.19-.38-.31-.67a8.61,8.61,0,0,1-.56-2q-.2-1.15-.32-2.4t-.16-2.47q0-1.22,0-2.18H89.92v-1.49h15.36ZM92.89,186H105.2v1.49H92.89Z"/><path class="cls-1" d="M113.16,196.34A55.47,55.47,0,0,0,117.53,186h-3v-1.68h3.53l.49-1.82q.23-.84.37-1.32l1.73.41q-.12.36-.3,1.09t-.44,1.64h3.19V186H119.4a59.89,59.89,0,0,1-2.08,5.84q-1.16,2.8-2.58,5.44Zm15.7-6.82a1.78,1.78,0,0,0-1.5.82,4.18,4.18,0,0,0-.54,2.54v3a18,18,0,0,1,2.11,1q1,.55,2.42,1.37l-.86,1.46-1.12-.67-.92-.53-.83-.43-.8-.38a3.33,3.33,0,0,1-.89,2.63,3.72,3.72,0,0,1-2.59.83,5.59,5.59,0,0,1-1.7-.28,4.56,4.56,0,0,1-1.51-.8,3.14,3.14,0,0,1-.95-1.26,2.27,2.27,0,0,1,0-1.67,2.59,2.59,0,0,1,1.1-1.31,4.91,4.91,0,0,1,2.09-.66l.7-.06a5.3,5.3,0,0,1,.61,0q.3,0,.64.08l.77.16v-2.52a5.46,5.46,0,0,1,.26-2,4.16,4.16,0,0,1,.84-1.37q-.94,0-1.56,0a6,6,0,0,0-1.1.18,4.22,4.22,0,0,0-.9.36q-.42.23-.95.56l-.89-1.3a9.9,9.9,0,0,1,2.14-1,6.7,6.7,0,0,1,2.14-.27l5.4.1v1.41ZM125.21,197a7.42,7.42,0,0,0-2-.31,5.33,5.33,0,0,0-.73.06,4.44,4.44,0,0,0-.78.18,1.51,1.51,0,0,0-.71.46,1,1,0,0,0,.12,1.4,2.44,2.44,0,0,0,.79.46,4.49,4.49,0,0,0,.88.22,5.17,5.17,0,0,0,.6.06,1.65,1.65,0,0,0,1.46-.54,2.74,2.74,0,0,0,.36-1.52Z"/><path class="cls-1" d="M140.06,198.17a2,2,0,0,0,.12.72,1,1,0,0,0,.46.5,3.15,3.15,0,0,0,.89.14l1.44.07,1.48,0h3l1.37,0,1.33,0q.62,0,1.09-.07a2.13,2.13,0,0,0,.61-.12,1,1,0,0,0,.52-.41,3.2,3.2,0,0,0,.25-.7,6,6,0,0,0,.14-1.06q0-.53,0-1.06V196l1.7.67q0,.36-.07.95a11.81,11.81,0,0,1-.16,1.18,6.18,6.18,0,0,1-.31,1.12,1.33,1.33,0,0,1-1.24,1,12.43,12.43,0,0,1-1.25.18q-.72.07-1.54.11l-1.56,0h-3.13l-1.25,0-1.43,0q-.74,0-1.4-.08t-1.16-.14a2.44,2.44,0,0,1-.72-.2,1.9,1.9,0,0,1-.59-.83,2.94,2.94,0,0,1-.18-1V188.66q-.94,1-1.94,1.94l-1-1.37a17.91,17.91,0,0,0,3.52-3.95,25.18,25.18,0,0,0,2.44-4.79l1.63.41-.65,1.56h5.81l.94.82q-.48.82-1.09,1.79t-1.33,2h5.74v8h-1.61V194h-10.8Zm1.66-14.26q-.38.7-.9,1.54t-1.07,1.61H145q.48-.63,1-1.5t.95-1.65Zm-1.66,8.57h4.49v-4h-4.49Zm6-4v4h4.78v-4Z"/><path class="cls-1" d="M165.36,188.9a3.17,3.17,0,0,1,2,.53,3.37,3.37,0,0,1,1.18,1.7q.94-.41,1.92-.79l2.28-.91.7,1.56L171,192q-1.12.46-2.1.89v3.55h-1.73v-2.88l-1.58.86a9.06,9.06,0,0,0-1.49,1,3.79,3.79,0,0,0-1,1.18,1.68,1.68,0,0,0,0,1.4,1.61,1.61,0,0,0,.77.9,4.27,4.27,0,0,0,1.19.43,6.73,6.73,0,0,0,1.25.14h.95a20.88,20.88,0,0,0,2.32-.13l2.27-.25.07,1.7-2.34.26a23.65,23.65,0,0,1-2.41.12,9.45,9.45,0,0,1-3.78-.58,3.48,3.48,0,0,1-1.91-1.82,3.37,3.37,0,0,1-.29-1.62,3.33,3.33,0,0,1,.47-1.42,5.19,5.19,0,0,1,1-1.21,13,13,0,0,1,1.36-1,16.1,16.1,0,0,1,1.51-.9q.78-.41,1.45-.79a2.56,2.56,0,0,0-.34-.7,1.64,1.64,0,0,0-.41-.41,1.12,1.12,0,0,0-.46-.18,3.09,3.09,0,0,0-.46,0h-3l.7-5.26h-4.18v-1.63h4.42l.38-2.88h1.8l-.41,2.88h6.1v1.63h-6.34l-.48,3.7Z"/><path class="cls-1" d="M186.39,202h-1.63v-5q-1.66.5-3.34.92t-3.36.8l-.53-1.7q.53-.12,1-.19l1.06-.17h0V183.26h-1.82v-1.54h10.3v1.54h-1.68Zm-1.63-18.72h-3.62v3.17h3.62Zm0,4.61h-3.62V191h3.62Zm-3.62,8.45L183,196q.91-.18,1.82-.42h0v-3.07h-3.62Zm15.55-11.71q-.53,2.76-1.26,5.53a31.21,31.21,0,0,1-2,5.36,13.9,13.9,0,0,0,2.06,2.51,22.5,22.5,0,0,0,2.45,2.08l-1.06,1.68a22.36,22.36,0,0,1-2.32-2.21,25.43,25.43,0,0,1-2-2.47,17.19,17.19,0,0,1-2.11,2.81,16.35,16.35,0,0,1-2.69,2.33l-1.06-1.44a12.84,12.84,0,0,0,2.75-2.3,17.06,17.06,0,0,0,2.12-2.93,23.06,23.06,0,0,1-2.09-4.91,35.55,35.55,0,0,1-1.15-5.2h-1.25v-1.61h8.71Zm-6.7.84a38.93,38.93,0,0,0,.92,4.31,22.38,22.38,0,0,0,1.57,4.12,31.13,31.13,0,0,0,1.39-4.14q.55-2.12.89-4.28Z"/><path class="cls-1" d="M205.91,185.68a9.76,9.76,0,0,1,1.36-2,5.32,5.32,0,0,1,1.64-1.28,3.26,3.26,0,0,1,1.92-.29,4.14,4.14,0,0,1,3.08,2,9.29,9.29,0,0,1,1,4.88,28.84,28.84,0,0,1-.25,3.78,10.59,10.59,0,0,1-1.14,3.59,15.32,15.32,0,0,1-.8,1.34q-.42.62-.88,1.2t-1,1.15l-1.08,1.2-1.37-1.2,1-1.08q.46-.5.86-1t.78-1.08q.37-.56.73-1.24a9.24,9.24,0,0,0,.7-1.62,10.23,10.23,0,0,0,.38-1.68q.12-.85.16-1.7t0-1.64a8.83,8.83,0,0,0-.66-3.76,2.38,2.38,0,0,0-1.86-1.52,1.77,1.77,0,0,0-1.09.16,3.3,3.3,0,0,0-1,.77,8.36,8.36,0,0,0-.9,1.21q-.43.7-.82,1.46a23.11,23.11,0,0,0-1.31,3,14.65,14.65,0,0,0-.71,3.58h-1.61V182h1.7v6.12A16.84,16.84,0,0,1,205.91,185.68Z"/><path class="cls-1" d="M231.5,195.85a19,19,0,0,1-2.72-6.73,26.15,26.15,0,0,1-1,3.76,17,17,0,0,1-1.62,3.42,15.75,15.75,0,0,1-2.36,3,14,14,0,0,1-3.19,2.33L219.36,200a11.93,11.93,0,0,0,3.91-3,16.06,16.06,0,0,0,2.56-4.09,21.26,21.26,0,0,0,1.42-4.74,36.35,36.35,0,0,0,.54-4.92h-5.06v-1.63h6.94q0,1.42.06,2.83a27.72,27.72,0,0,0,.26,2.82,20.12,20.12,0,0,0,.6,2.76,15.6,15.6,0,0,0,3.72,6.4,18.31,18.31,0,0,0,3.61,2.86l-1.25,1.8h0A19.81,19.81,0,0,1,231.5,195.85Z"/><path class="cls-1" d="M255.08,187.38a1,1,0,0,0-.56-.32,1.59,1.59,0,0,0-.74,0,2.54,2.54,0,0,0-.77.35q-.62.46-2.14,1.74t-3.58,3.23V201l-1.73,0v-7l-3.14,3.41-1.22-1.25,4.37-4.46v-4.92H241.8v-1.7h3.77v-3.72l1.73,0v8.78q1.85-1.66,3-2.63t1.72-1.38a3.76,3.76,0,0,1,1.66-.68,3.41,3.41,0,0,1,1.64.13,2.67,2.67,0,0,1,1.26.92,2.71,2.71,0,0,1,.5,1.69V193q0,1.66.07,2.6a4.18,4.18,0,0,0,.37,1.55,2.86,2.86,0,0,0,.89,1q.59.43,1.6,1.08l-.91,1.34q-.89-.58-1.5-1a8,8,0,0,1-1-.92,4.16,4.16,0,0,1-.67-1,4.62,4.62,0,0,1-.38-1.16,9.84,9.84,0,0,1-.17-1.51q0-.85,0-2v-4.85A1.06,1.06,0,0,0,255.08,187.38Z"/><path class="cls-1" d="M273.63,186.86q-.77.91-1.54,2a19.4,19.4,0,0,0-1.4,2.3,8,8,0,0,0-.83,2.5,5.77,5.77,0,0,0,.06,2.28,3.75,3.75,0,0,0,.88,1.66,3.84,3.84,0,0,0,1.6,1,6.86,6.86,0,0,0,2.24.34l.7,0,1.13-.07v1.66q-1.3.07-1.87.07a9,9,0,0,1-3.13-.49,5.5,5.5,0,0,1-2.18-1.42,5,5,0,0,1-1.18-2.26,8.08,8.08,0,0,1-.08-3,7.55,7.55,0,0,1,.56-2,13.34,13.34,0,0,1,1-1.92q.62-1,1.43-2l1.74-2.2-9.79,0V183.6h15.5v1.66h-3.65A17.34,17.34,0,0,1,273.63,186.86Z"/><path class="cls-1" d="M283.64,199.28a23.58,23.58,0,0,0-2.06-2.2l1.54-1.32a22.13,22.13,0,0,1,2,2q1,1.15,2,2.59l-1.68,1.44A24.54,24.54,0,0,0,283.64,199.28Z"/><path class="cls-1" d="M313.74,196.09a7.74,7.74,0,0,1-.32,1.62,4.26,4.26,0,0,1-.89,1.62,3.51,3.51,0,0,1-1.27.88,5.45,5.45,0,0,1-1.57.36q-.85.07-1.81.07v-1.75a10.46,10.46,0,0,0,1.78-.12,3.18,3.18,0,0,0,1.06-.35,1.5,1.5,0,0,0,.56-.55,4.43,4.43,0,0,0,.32-.76,5.75,5.75,0,0,0,.25-1.19q.08-.71.13-2.12v-5.57h-5.69v.14q0,1.22-.08,2.2a12.54,12.54,0,0,1-.29,1.82,10.45,10.45,0,0,1-.55,1.67q-.35.82-.86,1.75t-1.24,2.08l-1.66,2.63-1.54-1,1.6-2.52q.68-1.08,1.16-1.94a17.13,17.13,0,0,0,.79-1.6,9.08,9.08,0,0,0,.49-1.49,9.87,9.87,0,0,0,.24-1.62q.06-.86.06-2v-.14h-5.33v-1.7h5.35v-5.16h1.87v5.16h7.54v7.27Q313.82,195.22,313.74,196.09Z"/><path class="cls-1" d="M334.46,189.74a13.46,13.46,0,0,1-.18,2.3,8.38,8.38,0,0,1-1.6,3.68,13.8,13.8,0,0,1-1.54,1.69q-.91.86-2.12,1.82t-2.77,2.11l-1.15-1.49q2.28-1.68,3.73-2.9a14.51,14.51,0,0,0,2.27-2.32,6.7,6.7,0,0,0,1.13-2.22,10.67,10.67,0,0,0,.34-2.66H320.75v-1.7h13.7Zm-1.7-7.06v1.8H322.31v-1.8Z"/><path class="cls-1" d="M354,189.6a13.94,13.94,0,0,1-1.88,3.8,23,23,0,0,1-3.11,3.54q-1.86,1.75-4.33,3.86l-1.27-1.44q2.45-2.11,4.18-3.77a23.23,23.23,0,0,0,2.84-3.22,11.75,11.75,0,0,0,1.66-3.23,13.2,13.2,0,0,0,.59-3.78H340.5V183.5h14.18v1.42A15.58,15.58,0,0,1,354,189.6Z"/><path class="cls-1" d="M364.13,187.92q0,2-.14,3.55a13.35,13.35,0,0,1-.59,2.88,13.88,13.88,0,0,1-1.28,2.78,37,37,0,0,1-2.21,3.24l-1.54-1.1q1.27-1.73,2-3a13.06,13.06,0,0,0,1.18-2.52,11.3,11.3,0,0,0,.53-2.58q.12-1.36.12-3.2v-2.78h1.9Zm5.11,10.61a7.73,7.73,0,0,0,1.9-.25,4,4,0,0,0,1.52-.83,7.91,7.91,0,0,0,1.39-1.61,29.85,29.85,0,0,0,1.52-2.57l1.58,1a25.67,25.67,0,0,1-1.78,2.92,8.79,8.79,0,0,1-1.75,1.86,5.65,5.65,0,0,1-2,1,10,10,0,0,1-2.54.29h-1.73V182.86h1.87Z"/><path class="cls-1" d="M384.2,194.83q0,1.06.06,1.68a4.69,4.69,0,0,0,.22,1.08,3,3,0,0,0,.47.86l.82,1-1.46,1.08q-.6-.79-1-1.37a5.25,5.25,0,0,1-.55-1.18,6,6,0,0,1-.25-1.33q-.06-.73-.06-1.86v-12h1.73Zm6.24-1.25a12.8,12.8,0,0,0,0,2,3.09,3.09,0,0,0,.36,1.33,1.84,1.84,0,0,0,.86.77,3.73,3.73,0,0,0,1.5.25h5.26v1.75H393a5.46,5.46,0,0,1-2.28-.42,3.35,3.35,0,0,1-1.43-1.2,4.55,4.55,0,0,1-.67-1.91,10.79,10.79,0,0,1,0-2.54ZM389.36,185h8.45v1.8h-8.45Z"/><path class="cls-1" d="M407.21,197.78a6.16,6.16,0,0,0,.78.86,4,4,0,0,0,1,.65,5.26,5.26,0,0,0,1.22.38,14.38,14.38,0,0,0,1.49.22q.77.07,1.52.08h1.31q2.23,0,4.43-.11l4.43-.23a5.19,5.19,0,0,0-.3.88q-.11.44-.2.92h-.74q-1.66,0-3.36.08t-3.36.08h-1.48c-.54,0-1.08,0-1.63-.07s-1.09-.1-1.61-.18a10.91,10.91,0,0,1-1.43-.31,5.38,5.38,0,0,1-1.48-.71,4.19,4.19,0,0,1-1.12-1.19l0,0q-.72.72-1.38,1.49a16.53,16.53,0,0,1-1.43,1.46l-.94-1.73a16.11,16.11,0,0,0,1.46-1q.69-.55,1.32-1.15v-6.6H402.9v-1.56h4.34v7.7Zm-.77-11.64q-.7-1-1.45-1.92a17.79,17.79,0,0,0-1.64-1.73l1.13-1.1a24.69,24.69,0,0,1,3.24,3.58l-1.22,1.18Zm1.3,11.18a7.42,7.42,0,0,0,1.15-2.12,15.43,15.43,0,0,0,.66-2.51,24.18,24.18,0,0,0,.31-2.59q.08-1.3.08-2.42v-2.23h-2.06v-1.39h2.81v-3.67h1.54v3.67h2.9v1.3a17.51,17.51,0,0,0,.91-2.51q.36-1.28.63-2.51l1.51.46q-.12.65-.28,1.33a10.68,10.68,0,0,1-.4,1.33h5.59v1.39H417a15.27,15.27,0,0,1-.73,1.62q-.42.81-.87,1.55l-1-1.27c.13-.21.25-.42.36-.64l.34-.66h-3.65V188h3.26q0,3-.22,6a1.4,1.4,0,0,1,0,.17,1.15,1.15,0,0,0,0,.14q0,.7-.12,1.37t-.19,1.34a2.39,2.39,0,0,1-.52,1.14,1.47,1.47,0,0,1-1.16.42,7.85,7.85,0,0,1-1.68-.17l-.34-1.61q.41.12.8.2a3.73,3.73,0,0,0,.78.08.51.51,0,0,0,.5-.24,3.37,3.37,0,0,0,.22-.58,2.86,2.86,0,0,0,.14-.8q0-.47.07-.88a1.61,1.61,0,0,1,0-.22,1.78,1.78,0,0,0,0-.22q.09-1.2.12-2.38t.07-2.4h-1.8q0,1.1-.2,2.34a20.08,20.08,0,0,1-.47,2.46,17.54,17.54,0,0,1-.78,2.36,8.51,8.51,0,0,1-1.16,2Zm8.06-.48a10.29,10.29,0,0,0,1,.23,6.25,6.25,0,0,0,1,.08.47.47,0,0,0,.43-.19.94.94,0,0,0,.12-.5v-3h-3.29V192h3.22v-2.18a9.84,9.84,0,0,0,1.75-1.44h-3.84V187h5.26l.79,1q-.6.6-1.21,1.15t-1.26,1.07V192h3.36v1.44h-3.29v3.72q0,1.54-1.61,1.54c-.38,0-.76,0-1.14,0a9.37,9.37,0,0,1-1.14-.17Z"/><path class="cls-1" d="M443.66,200.7l-.77.14-.77.1q-.37,0-.66,0a6,6,0,0,1-1.22-.12,7,7,0,0,1-1.13-.34,3.13,3.13,0,0,1-1.56-1.48,5.57,5.57,0,0,1-.55-2.63v-2.14a1.91,1.91,0,0,0-.26-1.15,1.26,1.26,0,0,0-1-.34H433l-3.34,8.11-1.63-.67,7.51-18.43,1.63.65-3.5,8.76h2a3.26,3.26,0,0,1,2.39.82,3.22,3.22,0,0,1,.83,2.4v2.23a5.09,5.09,0,0,0,.08,1,2.48,2.48,0,0,0,.23.66,1.25,1.25,0,0,0,.31.4,1.46,1.46,0,0,0,.34.2,4,4,0,0,0,1.66.31,8,8,0,0,0,1.33-.12l1.48-.26v1.68Z"/><path class="cls-1" d="M458.72,185.26a17.23,17.23,0,0,1-1.22,1.61q-.77.91-1.54,2a19.46,19.46,0,0,0-1.4,2.3,8,8,0,0,0-.83,2.5,5.79,5.79,0,0,0,.06,2.28,3.74,3.74,0,0,0,.88,1.66,3.83,3.83,0,0,0,1.6,1,6.85,6.85,0,0,0,2.24.34h.66q.47,0,1.16-.08v1.66q-1.3.07-1.87.07a9,9,0,0,1-3.13-.49,5.57,5.57,0,0,1-2.18-1.4,4.94,4.94,0,0,1-1.18-2.24,8.1,8.1,0,0,1-.08-3,7.57,7.57,0,0,1,.56-2,13.3,13.3,0,0,1,1-1.92q.62-1,1.43-2l1.74-2.2h-9.79V183.6h15.5v1.66Zm.74,6.65H458.1v-3.65h1.37Zm3,0H461.1v-3.65h1.37Z"/><path class="cls-1" d="M476.93,182.81q0,1.82-.2,3.89a31.79,31.79,0,0,1-.78,4.42q1.08.07,2.39.23t2.53.37q0-.26,0-1t0-1.48q0-.89,0-1.92h1.85q0,1.1,0,2.06t0,1.6c0,.52,0,.88,0,1.07l1.1.24.89.22.79.22-.31,1.56-2.66-.62a17.38,17.38,0,0,1-.48,1.9,14.24,14.24,0,0,1-.72,1.82,15.54,15.54,0,0,1-1,1.85q-.61.94-1.4,2l-1.44-1.1q.74-.94,1.31-1.79a13.26,13.26,0,0,0,.95-1.67,12,12,0,0,0,1-3.36,38.14,38.14,0,0,0-5.28-.62,15.68,15.68,0,0,1-1.64,3.68,4.77,4.77,0,0,1-1.93,1.81,3.11,3.11,0,0,1-1.67.35,2.48,2.48,0,0,1-1.52-.64,3.15,3.15,0,0,1-.91-1.34,3.5,3.5,0,0,1-.07-1.8,3.69,3.69,0,0,1,.62-1.51,4.29,4.29,0,0,1,1.06-1,5.15,5.15,0,0,1,1.3-.64,9.1,9.1,0,0,1,1.34-.34,10,10,0,0,1,1.2-.13l.89,0q.41-1.58.68-3.35a30.64,30.64,0,0,0,.35-3.23h-4.92v-1.68Zm-6,13.82a2.8,2.8,0,0,0,1.33-1.24,14.23,14.23,0,0,0,1.26-2.7l-1.12.14a5.41,5.41,0,0,0-1.3.36,3.56,3.56,0,0,0-1.13.74,2.06,2.06,0,0,0-.59,1.27,1.34,1.34,0,0,0,.34,1.24A1.08,1.08,0,0,0,470.95,196.63Z"/><path class="cls-1" d="M494.82,186.74q0,1.66-.13,3a19.9,19.9,0,0,1-.34,2.39,19,19,0,0,1-.55,2.08,18.46,18.46,0,0,1-.79,2q-.47,1-1.07,2.14t-1.37,2.52l-1.63-.84,1.36-2.48q.59-1.09,1-2.06t.74-1.87a13.31,13.31,0,0,0,.5-1.91,20.57,20.57,0,0,0,.29-2.18q.1-1.18.12-2.71h-3.6v-1.61H493v-4.06h1.87v4.06H499v1.61Zm8.64,13.58a19.74,19.74,0,0,1-2.32-.13,6.3,6.3,0,0,1-2-.53,3.38,3.38,0,0,1-1.34-1.1,3.18,3.18,0,0,1-.5-1.88v-.89h1.8v.89a1.48,1.48,0,0,0,.37,1.08,2.3,2.3,0,0,0,1,.58,5.79,5.79,0,0,0,1.37.24q.76,0,1.55,0h2.38v1.7Zm1.94-10.82v1.61H498V189.5Z"/><path class="cls-1" d="M515.62,200.26q-1.34-.94-2.16-1.63a5.26,5.26,0,0,1-1.25-1.5,5.49,5.49,0,0,1-.58-1.86,20.6,20.6,0,0,1-.14-2.69v-8.14h1.92v8.14a19,19,0,0,0,.12,2.42,3.92,3.92,0,0,0,.47,1.48,3.66,3.66,0,0,0,1,1.07q.65.48,1.7,1.2Zm10.22-6.55c0-.9,0-1.62-.06-2.18a5.27,5.27,0,0,0-.32-1.52,5.9,5.9,0,0,0-.78-1.38q-.52-.7-1.45-1.75l1.51-1.08a21.86,21.86,0,0,1,1.68,2.11,7.88,7.88,0,0,1,.9,1.73,6.86,6.86,0,0,1,.37,1.79q.07.95.07,2.29v2.78h-1.92Z"/><path class="cls-1" d="M534.89,195.65a3,3,0,0,1,1.49.38,3,3,0,0,1,1.68,2.81,3.24,3.24,0,0,1-3.19,3.19,3.17,3.17,0,0,1-1.51-.38,3,3,0,0,1-1.68-2.83,3.13,3.13,0,0,1,1-2.28A3,3,0,0,1,534.89,195.65Zm0,1.22a2.22,2.22,0,0,0-.73.12,1.59,1.59,0,0,0-.61.38,1.86,1.86,0,0,0-.62,1.46,2.18,2.18,0,0,0,.17.84,1.87,1.87,0,0,0,1.8,1.13,2,2,0,0,0,1-.29,1.85,1.85,0,0,0,.94-1.68,1.8,1.8,0,0,0-1.08-1.78A2,2,0,0,0,534.86,196.87Z"/></g></g></g></g></svg>