<svg xmlns="http://www.w3.org/2000/svg" viewBox="0 0 130.76 57.94"><defs><style>.cls-1{fill:#fff;}</style></defs><title>text-education</title><g id="レイヤー_2" data-name="レイヤー 2"><g id="design"><path class="cls-1" d="M6.72,9.24v1.18H1.37v8.18H7.81v1.18H.08V.17H7.81V1.34H1.37v7.9Z"/><path class="cls-1" d="M19.82.17a5,5,0,0,1,1.95.35,3.51,3.51,0,0,1,1.36,1,4.15,4.15,0,0,1,.78,1.54,7.3,7.3,0,0,1,.25,2V14.9a7.29,7.29,0,0,1-.25,2,4.14,4.14,0,0,1-.78,1.54,3.5,3.5,0,0,1-1.36,1,5,5,0,0,1-1.95.35H15.51V.17Zm0,18.42a2.7,2.7,0,0,0,2.37-1A4.45,4.45,0,0,0,22.88,15V5a4.39,4.39,0,0,0-.73-2.63,2.7,2.7,0,0,0-2.35-1h-3V18.59Z"/><path class="cls-1" d="M33.12,15a6.71,6.71,0,0,0,.15,1.47,3.34,3.34,0,0,0,.5,1.19,2.38,2.38,0,0,0,.91.78,3.5,3.5,0,0,0,2.74,0,2.39,2.39,0,0,0,.91-.78,3.34,3.34,0,0,0,.5-1.19A6.71,6.71,0,0,0,39,15V.17h1.2V15a8.07,8.07,0,0,1-.22,2,4.33,4.33,0,0,1-.73,1.57A3.43,3.43,0,0,1,38,19.56a5.06,5.06,0,0,1-3.84,0,3.44,3.44,0,0,1-1.3-1.05,4.51,4.51,0,0,1-.74-1.57,7.64,7.64,0,0,1-.24-2V.17h1.29Z"/><path class="cls-1" d="M52.16,0a4.44,4.44,0,0,1,1.92.38,3.62,3.62,0,0,1,1.32,1A4.25,4.25,0,0,1,56.15,3a7.8,7.8,0,0,1,.24,2V6.58H55.16V4.87A6.58,6.58,0,0,0,55,3.42a3.23,3.23,0,0,0-.52-1.18,2.51,2.51,0,0,0-.92-.78,3.5,3.5,0,0,0-2.74,0,2.5,2.5,0,0,0-.92.78,3.2,3.2,0,0,0-.52,1.18,6.52,6.52,0,0,0-.15,1.46V15.06a6.52,6.52,0,0,0,.15,1.46,3.06,3.06,0,0,0,.52,1.16,2.55,2.55,0,0,0,.92.77,3.5,3.5,0,0,0,2.74,0,2.56,2.56,0,0,0,.92-.77A3.09,3.09,0,0,0,55,16.52a6.58,6.58,0,0,0,.15-1.46V12.74h1.23V15a7.8,7.8,0,0,1-.24,2,4.24,4.24,0,0,1-.76,1.57,3.61,3.61,0,0,1-1.32,1,5.06,5.06,0,0,1-3.84,0,3.61,3.61,0,0,1-1.32-1A4.21,4.21,0,0,1,48.17,17a7.76,7.76,0,0,1-.24-2V5a7.76,7.76,0,0,1,.24-2,4.22,4.22,0,0,1,.76-1.57,3.62,3.62,0,0,1,1.32-1A4.45,4.45,0,0,1,52.16,0Z"/><path class="cls-1" d="M66,15.43l-1,4.34H63.81L68.1.14H70l4.37,19.63H73.05l-1-4.34Zm.2-1.12h5.71L69,1.62Z"/><path class="cls-1" d="M84.14,19.77V1.34h-4V.17h9.27V1.34h-4V19.77Z"/><path class="cls-1" d="M97.92.17v19.6H96.63V.17Z"/><path class="cls-1" d="M105.67,5a7.38,7.38,0,0,1,.25-2,4.4,4.4,0,0,1,.77-1.57,3.6,3.6,0,0,1,1.33-1A4.54,4.54,0,0,1,110,0a4.64,4.64,0,0,1,1.95.38,3.69,3.69,0,0,1,1.36,1A4.28,4.28,0,0,1,114,3a7.38,7.38,0,0,1,.25,2V15a7.37,7.37,0,0,1-.25,2,4.27,4.27,0,0,1-.78,1.57,3.68,3.68,0,0,1-1.36,1,4.64,4.64,0,0,1-1.95.38,4.55,4.55,0,0,1-1.93-.38,3.59,3.59,0,0,1-1.33-1,4.39,4.39,0,0,1-.77-1.57,7.37,7.37,0,0,1-.25-2ZM107,15.06a4.75,4.75,0,0,0,.69,2.65A2.55,2.55,0,0,0,110,18.76a2.62,2.62,0,0,0,2.34-1.05,4.61,4.61,0,0,0,.71-2.65V4.87a4.61,4.61,0,0,0-.71-2.65A2.62,2.62,0,0,0,110,1.18a2.55,2.55,0,0,0-2.31,1.05A4.75,4.75,0,0,0,107,4.87Z"/><path class="cls-1" d="M123.2,19.77H122V.17h1.68l5.88,16.55V.17h1.18v19.6h-1.43L123.2,2.3Z"/><path class="cls-1" d="M0,43a7.38,7.38,0,0,1,.25-2A4.4,4.4,0,0,1,1,39.41a3.6,3.6,0,0,1,1.33-1A4.54,4.54,0,0,1,4.28,38a4.64,4.64,0,0,1,1.95.38,3.69,3.69,0,0,1,1.36,1A4.28,4.28,0,0,1,8.37,41a7.38,7.38,0,0,1,.25,2V53a7.37,7.37,0,0,1-.25,2,4.27,4.27,0,0,1-.78,1.57,3.68,3.68,0,0,1-1.36,1,4.64,4.64,0,0,1-1.95.38,4.55,4.55,0,0,1-1.93-.38,3.59,3.59,0,0,1-1.33-1A4.39,4.39,0,0,1,.25,55,7.37,7.37,0,0,1,0,53ZM1.29,53.06A4.75,4.75,0,0,0,2,55.71a2.55,2.55,0,0,0,2.31,1.05,2.62,2.62,0,0,0,2.34-1.05,4.61,4.61,0,0,0,.71-2.65V42.87a4.61,4.61,0,0,0-.71-2.65,2.62,2.62,0,0,0-2.34-1.05A2.55,2.55,0,0,0,2,40.23a4.75,4.75,0,0,0-.69,2.65Z"/><path class="cls-1" d="M17.58,53a6.71,6.71,0,0,0,.15,1.47,3.34,3.34,0,0,0,.5,1.19,2.38,2.38,0,0,0,.91.78,3.5,3.5,0,0,0,2.74,0,2.39,2.39,0,0,0,.91-.78,3.34,3.34,0,0,0,.5-1.19A6.71,6.71,0,0,0,23.46,53V38.17h1.2V53a8.07,8.07,0,0,1-.22,2,4.33,4.33,0,0,1-.73,1.57,3.43,3.43,0,0,1-1.3,1.05,4.45,4.45,0,0,1-1.92.38,4.45,4.45,0,0,1-1.92-.38,3.44,3.44,0,0,1-1.3-1.05,4.51,4.51,0,0,1-.74-1.57,7.64,7.64,0,0,1-.24-2V38.17h1.29Z"/><path class="cls-1" d="M35.78,57.77V39.34h-4V38.17h9.27v1.18h-4V57.77Z"/><path class="cls-1" d="M52.36,38a4.51,4.51,0,0,1,1.9.36,3.4,3.4,0,0,1,1.29,1,4.36,4.36,0,0,1,.74,1.55,7.6,7.6,0,0,1,.24,2v.42H55.3v-.5a6.34,6.34,0,0,0-.15-1.44,3.21,3.21,0,0,0-.5-1.15,2.44,2.44,0,0,0-.91-.77,3,3,0,0,0-1.34-.28,2.47,2.47,0,0,0-2.25,1,4.69,4.69,0,0,0-.66,2.59,3.82,3.82,0,0,0,.52,2,6.54,6.54,0,0,0,1.32,1.53A20.49,20.49,0,0,0,53,47.67,15.33,15.33,0,0,1,54.73,49,6.62,6.62,0,0,1,56,50.74a4.74,4.74,0,0,1,.52,2.3,7.64,7.64,0,0,1-.24,2,4.25,4.25,0,0,1-.76,1.55,3.49,3.49,0,0,1-1.32,1,5.23,5.23,0,0,1-3.84,0,3.48,3.48,0,0,1-1.32-1A4.22,4.22,0,0,1,48.34,55a7.6,7.6,0,0,1-.24-2V52h1.23v1.09A4.62,4.62,0,0,0,50,55.71a3.09,3.09,0,0,0,4.59,0,4.62,4.62,0,0,0,.67-2.59,3.76,3.76,0,0,0-.52-2,6.51,6.51,0,0,0-1.32-1.53,18.75,18.75,0,0,0-1.71-1.3A14.08,14.08,0,0,1,50,46.92a6.53,6.53,0,0,1-1.32-1.71,4.88,4.88,0,0,1-.52-2.34,5.71,5.71,0,0,1,1-3.53A3.79,3.79,0,0,1,52.36,38Z"/><path class="cls-1" d="M65.52,38.17v19.6H64.23V38.17Z"/><path class="cls-1" d="M77.67,38.17a5,5,0,0,1,1.95.35,3.51,3.51,0,0,1,1.36,1,4.15,4.15,0,0,1,.78,1.54A7.3,7.3,0,0,1,82,43V52.9a7.29,7.29,0,0,1-.25,2A4.14,4.14,0,0,1,81,56.42a3.5,3.5,0,0,1-1.36,1,5,5,0,0,1-1.95.35H73.36V38.17Zm0,18.42a2.7,2.7,0,0,0,2.37-1A4.45,4.45,0,0,0,80.72,53V43A4.39,4.39,0,0,0,80,40.35a2.7,2.7,0,0,0-2.35-1h-3V56.59Z"/><path class="cls-1" d="M96.38,47.24v1.18H91v8.18h6.44v1.18H89.74V38.17h7.73v1.18H91v7.9Z"/></g></g></svg>