<svg xmlns="http://www.w3.org/2000/svg" viewBox="0 0 152.46 29.61"><defs><style>.cls-1{fill:#fff;}</style></defs><title>recruiting-entry-index</title><g id="レイヤー_2" data-name="レイヤー 2"><g id="design"><path class="cls-1" d="M10,13.7v1.78H1.95V27.83h9.73v1.78H0V0H11.67V1.78H1.95V13.7Z"/><path class="cls-1" d="M35.23,29.61H33.45V0H36l8.88,25V0h1.78V29.61H44.49L35.23,3.21Z"/><path class="cls-1" d="M73.71,29.61V1.78h-6V0h14V1.78h-6V29.61Z"/><path class="cls-1" d="M109,0c4.53,0,6.34,2.5,6.34,6.68V9.26c0,3.47-1.35,5.46-4.27,6.13,3,.68,4.27,2.83,4.27,6v4.61a6.64,6.64,0,0,0,.72,3.55h-2a6.94,6.94,0,0,1-.63-3.55V21.4c0-3.93-2.16-5-5.54-5h-3.09V29.61h-1.95V0Zm-1.1,14.59c3.47,0,5.5-1,5.5-4.95V6.85c0-3.17-1.23-5.08-4.44-5.08h-4.19V14.59Z"/><path class="cls-1" d="M143.83,18.23,137.19,0h2l5.67,15.57L150.56,0h1.9l-6.68,18.23V29.61h-1.95Z"/></g></g></svg>