<svg xmlns="http://www.w3.org/2000/svg" viewBox="0 0 68.43 55.27"><defs><style>.cls-1{fill:#ff6d1f;}</style></defs><title>recruiting-num-03</title><g id="レイヤー_2" data-name="レイヤー 2"><g id="design"><path class="cls-1" d="M0,13.78C0,6.07,3.27,0,11.6,0S23.2,6.07,23.2,13.78V41.49c0,7.63-3.27,13.78-11.6,13.78S0,49.12,0,41.49ZM1.71,41.49c0,6.77,2.65,12.22,9.89,12.22s9.89-5.45,9.89-12.22V13.7c0-6.7-2.65-12.14-9.89-12.14S1.71,7,1.71,13.7Z"/><path class="cls-1" d="M68.43,13.78V15.1c0,5.22-2.88,9.73-7.79,11.29,5.22,1.32,7.79,5.61,7.79,10.9v4.2c0,7.63-3,13.78-11.37,13.78S45.62,49.12,45.62,41.49V38.93h1.71v2.57c0,6.7,2.41,12.22,9.65,12.22s9.73-5.53,9.73-12.3V37.29c0-5.92-3.19-9.73-9-10h-4V25.69h4c5.53-.47,9-4.83,9-10.35V13.78C66.72,7,64.23,1.56,57,1.56S47.34,7,47.34,13.7v1.63H45.62V13.78C45.62,6.15,48.74,0,57.07,0S68.43,6.15,68.43,13.78Z"/></g></g></svg>