<svg xmlns="http://www.w3.org/2000/svg" viewBox="0 0 57.14 55.27"><defs><style>.cls-1{fill:#ff6d1f;}</style></defs><title>recruiting-num-01</title><g id="レイヤー_2" data-name="レイヤー 2"><g id="design"><path class="cls-1" d="M0,13.78C0,6.07,3.27,0,11.6,0S23.2,6.07,23.2,13.78V41.49c0,7.63-3.27,13.78-11.6,13.78S0,49.12,0,41.49ZM1.71,41.49c0,6.77,2.65,12.22,9.89,12.22s9.89-5.45,9.89-12.22V13.7c0-6.7-2.65-12.14-9.89-12.14S1.71,7,1.71,13.7Z"/><path class="cls-1" d="M55.43,3.66a10.9,10.9,0,0,1-9.11,6.07V8.17C51.15,7.71,54,4.52,55.51.31h1.63V54.88H55.43Z"/></g></g></svg>