<svg xmlns="http://www.w3.org/2000/svg" viewBox="0 0 182.22 95.94"><defs><style>.cls-1{fill:#fff;}</style></defs><title>text-qualification</title><g id="レイヤー_2" data-name="レイヤー 2"><g id="design"><path class="cls-1" d="M4.51,0A4.54,4.54,0,0,1,6.44.38a3.72,3.72,0,0,1,1.34,1A4.28,4.28,0,0,1,8.57,3a7.38,7.38,0,0,1,.25,2V15a7.48,7.48,0,0,1-.22,1.88,4.35,4.35,0,0,1-.7,1.51,1.38,1.38,0,0,0,.63.62,2.23,2.23,0,0,0,.91.17h.31V20.3H9.41a2.51,2.51,0,0,1-2.32-1.15A3.72,3.72,0,0,1,6,19.73a4.69,4.69,0,0,1-1.46.21,4.54,4.54,0,0,1-1.93-.38,3.7,3.7,0,0,1-1.34-1A4.26,4.26,0,0,1,.45,17,7.37,7.37,0,0,1,.2,15V5A7.38,7.38,0,0,1,.45,3a4.26,4.26,0,0,1,.78-1.57,3.71,3.71,0,0,1,1.34-1A4.54,4.54,0,0,1,4.51,0Zm0,1.18A2.58,2.58,0,0,0,2.18,2.23a4.67,4.67,0,0,0-.7,2.65V15.06a4.67,4.67,0,0,0,.7,2.65,2.58,2.58,0,0,0,2.32,1.05,2.58,2.58,0,0,0,2.32-1.05,4.67,4.67,0,0,0,.7-2.65V4.87a4.67,4.67,0,0,0-.7-2.65A2.59,2.59,0,0,0,4.51,1.18Z"/><path class="cls-1" d="M18.54,15a6.71,6.71,0,0,0,.15,1.47,3.34,3.34,0,0,0,.5,1.19,2.38,2.38,0,0,0,.91.78,3.5,3.5,0,0,0,2.74,0,2.39,2.39,0,0,0,.91-.78,3.34,3.34,0,0,0,.5-1.19A6.71,6.71,0,0,0,24.42,15V.17h1.2V15a8.07,8.07,0,0,1-.22,2,4.33,4.33,0,0,1-.73,1.57,3.43,3.43,0,0,1-1.3,1.05,4.45,4.45,0,0,1-1.92.38,4.45,4.45,0,0,1-1.92-.38,3.44,3.44,0,0,1-1.3-1.05,4.51,4.51,0,0,1-.74-1.57,7.64,7.64,0,0,1-.24-2V.17h1.29Z"/><path class="cls-1" d="M35.31,15.43l-1,4.34H33.15L37.44.14h1.88l4.37,19.63H42.39l-1-4.34Zm.2-1.12h5.71L38.33,1.62Z"/><path class="cls-1" d="M51.24,19.77V.17h1.29V18.59h6.16v1.18Z"/><path class="cls-1" d="M67.51.17v19.6H66.22V.17Z"/><path class="cls-1" d="M81.7,9.72v1.18H76.63v8.88H75.35V.17h7.45V1.34H76.63V9.72Z"/><path class="cls-1" d="M91.64.17v19.6H90.35V.17Z"/><path class="cls-1" d="M103.63,0a4.44,4.44,0,0,1,1.92.38,3.62,3.62,0,0,1,1.32,1A4.25,4.25,0,0,1,107.62,3a7.8,7.8,0,0,1,.24,2V6.58h-1.23V4.87a6.58,6.58,0,0,0-.15-1.46A3.23,3.23,0,0,0,106,2.24a2.51,2.51,0,0,0-.92-.78,3.5,3.5,0,0,0-2.74,0,2.5,2.5,0,0,0-.92.78,3.2,3.2,0,0,0-.52,1.18,6.52,6.52,0,0,0-.15,1.46V15.06a6.52,6.52,0,0,0,.15,1.46,3.06,3.06,0,0,0,.52,1.16,2.55,2.55,0,0,0,.92.77,3.5,3.5,0,0,0,2.74,0,2.56,2.56,0,0,0,.92-.77,3.09,3.09,0,0,0,.52-1.16,6.58,6.58,0,0,0,.15-1.46V12.74h1.23V15a7.8,7.8,0,0,1-.24,2,4.24,4.24,0,0,1-.76,1.57,3.61,3.61,0,0,1-1.32,1,5.06,5.06,0,0,1-3.84,0,3.61,3.61,0,0,1-1.32-1A4.21,4.21,0,0,1,99.64,17a7.76,7.76,0,0,1-.24-2V5a7.76,7.76,0,0,1,.24-2,4.22,4.22,0,0,1,.76-1.57,3.62,3.62,0,0,1,1.32-1A4.45,4.45,0,0,1,103.63,0Z"/><path class="cls-1" d="M117.43,15.43l-1,4.34h-1.18L119.56.14h1.88l4.37,19.63h-1.29l-1-4.34Zm.2-1.12h5.71L120.45,1.62Z"/><path class="cls-1" d="M135.6,19.77V1.34h-4V.17h9.27V1.34h-4V19.77Z"/><path class="cls-1" d="M149.38.17v19.6h-1.29V.17Z"/><path class="cls-1" d="M157.13,5a7.38,7.38,0,0,1,.25-2,4.4,4.4,0,0,1,.77-1.57,3.6,3.6,0,0,1,1.33-1A4.54,4.54,0,0,1,161.42,0a4.64,4.64,0,0,1,1.95.38,3.69,3.69,0,0,1,1.36,1A4.28,4.28,0,0,1,165.51,3a7.38,7.38,0,0,1,.25,2V15a7.37,7.37,0,0,1-.25,2,4.27,4.27,0,0,1-.78,1.57,3.68,3.68,0,0,1-1.36,1,4.64,4.64,0,0,1-1.95.38,4.55,4.55,0,0,1-1.93-.38,3.59,3.59,0,0,1-1.33-1,4.39,4.39,0,0,1-.77-1.57,7.37,7.37,0,0,1-.25-2Zm1.29,10.11a4.75,4.75,0,0,0,.69,2.65,2.55,2.55,0,0,0,2.31,1.05,2.62,2.62,0,0,0,2.34-1.05,4.61,4.61,0,0,0,.71-2.65V4.87a4.61,4.61,0,0,0-.71-2.65,2.62,2.62,0,0,0-2.34-1.05,2.55,2.55,0,0,0-2.31,1.05,4.75,4.75,0,0,0-.69,2.65Z"/><path class="cls-1" d="M174.66,19.77h-1.18V.17h1.68L181,16.72V.17h1.18v19.6h-1.43L174.66,2.3Z"/><path class="cls-1" d="M2.16,53.43l-1,4.34H0L4.28,38.14H6.16l4.37,19.63H9.24l-1-4.34Zm.2-1.12H8.06L5.18,39.62Z"/><path class="cls-1" d="M22.2,38a4.44,4.44,0,0,1,1.92.38,3.62,3.62,0,0,1,1.32,1A4.25,4.25,0,0,1,26.19,41a7.8,7.8,0,0,1,.24,2v1.62H25.2V42.87A6.58,6.58,0,0,0,25,41.42a3.23,3.23,0,0,0-.52-1.18,2.51,2.51,0,0,0-.92-.78,3.5,3.5,0,0,0-2.74,0,2.5,2.5,0,0,0-.92.78,3.2,3.2,0,0,0-.52,1.18,6.52,6.52,0,0,0-.15,1.46V53.06a6.52,6.52,0,0,0,.15,1.46,3.06,3.06,0,0,0,.52,1.16,2.55,2.55,0,0,0,.92.77,3.5,3.5,0,0,0,2.74,0,2.56,2.56,0,0,0,.92-.77A3.09,3.09,0,0,0,25,54.52a6.58,6.58,0,0,0,.15-1.46V50.74h1.23V53a7.8,7.8,0,0,1-.24,2,4.24,4.24,0,0,1-.76,1.57,3.61,3.61,0,0,1-1.32,1,4.45,4.45,0,0,1-1.92.38,4.45,4.45,0,0,1-1.92-.38,3.61,3.61,0,0,1-1.32-1A4.21,4.21,0,0,1,18.21,55,7.76,7.76,0,0,1,18,53V43a7.76,7.76,0,0,1,.24-2A4.22,4.22,0,0,1,19,39.41a3.62,3.62,0,0,1,1.32-1A4.45,4.45,0,0,1,22.2,38Z"/><path class="cls-1" d="M38.36,38a4.54,4.54,0,0,1,1.93.38,3.72,3.72,0,0,1,1.34,1A4.28,4.28,0,0,1,42.42,41a7.38,7.38,0,0,1,.25,2V53a7.48,7.48,0,0,1-.22,1.88,4.35,4.35,0,0,1-.7,1.51,1.38,1.38,0,0,0,.63.62,2.23,2.23,0,0,0,.91.17h.31V58.3h-.34a2.51,2.51,0,0,1-2.32-1.15,3.72,3.72,0,0,1-1.12.57,4.69,4.69,0,0,1-1.46.21,4.54,4.54,0,0,1-1.93-.38,3.7,3.7,0,0,1-1.34-1A4.26,4.26,0,0,1,34.3,55,7.37,7.37,0,0,1,34,53V43a7.38,7.38,0,0,1,.25-2,4.26,4.26,0,0,1,.78-1.57,3.71,3.71,0,0,1,1.34-1A4.54,4.54,0,0,1,38.36,38Zm0,1.18A2.58,2.58,0,0,0,36,40.23a4.67,4.67,0,0,0-.7,2.65V53.06a4.67,4.67,0,0,0,.7,2.65,2.58,2.58,0,0,0,2.32,1.05,2.58,2.58,0,0,0,2.32-1.05,4.67,4.67,0,0,0,.7-2.65V42.87a4.67,4.67,0,0,0-.7-2.65A2.59,2.59,0,0,0,38.36,39.18Z"/><path class="cls-1" d="M51.86,53A6.71,6.71,0,0,0,52,54.51a3.34,3.34,0,0,0,.5,1.19,2.38,2.38,0,0,0,.91.78,3.5,3.5,0,0,0,2.74,0,2.39,2.39,0,0,0,.91-.78,3.34,3.34,0,0,0,.5-1.19A6.71,6.71,0,0,0,57.74,53V38.17h1.2V53a8.07,8.07,0,0,1-.22,2A4.33,4.33,0,0,1,58,56.51a3.43,3.43,0,0,1-1.3,1.05,5.06,5.06,0,0,1-3.84,0,3.44,3.44,0,0,1-1.3-1.05,4.51,4.51,0,0,1-.74-1.57,7.64,7.64,0,0,1-.24-2V38.17h1.29Z"/><path class="cls-1" d="M68,38.17v19.6H66.75V38.17Z"/><path class="cls-1" d="M80,38a4.51,4.51,0,0,1,1.9.36,3.4,3.4,0,0,1,1.29,1,4.36,4.36,0,0,1,.74,1.55,7.6,7.6,0,0,1,.24,2v.42H82.91v-.5a6.34,6.34,0,0,0-.15-1.44,3.21,3.21,0,0,0-.5-1.15,2.44,2.44,0,0,0-.91-.77A3,3,0,0,0,80,39.18a2.47,2.47,0,0,0-2.25,1,4.69,4.69,0,0,0-.66,2.59,3.82,3.82,0,0,0,.52,2,6.54,6.54,0,0,0,1.32,1.53,20.49,20.49,0,0,0,1.71,1.32A15.33,15.33,0,0,1,82.33,49a6.62,6.62,0,0,1,1.32,1.69,4.74,4.74,0,0,1,.52,2.3,7.64,7.64,0,0,1-.24,2,4.25,4.25,0,0,1-.76,1.55,3.49,3.49,0,0,1-1.32,1,5.23,5.23,0,0,1-3.84,0,3.48,3.48,0,0,1-1.32-1A4.22,4.22,0,0,1,75.95,55a7.6,7.6,0,0,1-.24-2V52h1.23v1.09a4.62,4.62,0,0,0,.67,2.59,3.09,3.09,0,0,0,4.59,0,4.62,4.62,0,0,0,.67-2.59,3.76,3.76,0,0,0-.52-2A6.51,6.51,0,0,0,81,49.58a18.75,18.75,0,0,0-1.71-1.3,14.08,14.08,0,0,1-1.71-1.36,6.53,6.53,0,0,1-1.32-1.71,4.88,4.88,0,0,1-.52-2.34,5.71,5.71,0,0,1,1-3.53A3.79,3.79,0,0,1,80,38Z"/><path class="cls-1" d="M93.13,38.17v19.6H91.84V38.17Z"/><path class="cls-1" d="M104.27,57.77V39.34h-4V38.17h9.27v1.18h-4V57.77Z"/><path class="cls-1" d="M118,38.17v19.6h-1.29V38.17Z"/><path class="cls-1" d="M125.8,43a7.38,7.38,0,0,1,.25-2,4.4,4.4,0,0,1,.77-1.57,3.6,3.6,0,0,1,1.33-1,4.54,4.54,0,0,1,1.93-.38,4.64,4.64,0,0,1,1.95.38,3.69,3.69,0,0,1,1.36,1,4.28,4.28,0,0,1,.78,1.57,7.38,7.38,0,0,1,.25,2V53a7.37,7.37,0,0,1-.25,2,4.27,4.27,0,0,1-.78,1.57,3.68,3.68,0,0,1-1.36,1,4.64,4.64,0,0,1-1.95.38,4.55,4.55,0,0,1-1.93-.38,3.59,3.59,0,0,1-1.33-1,4.39,4.39,0,0,1-.77-1.57,7.37,7.37,0,0,1-.25-2Zm1.29,10.11a4.75,4.75,0,0,0,.69,2.65,2.55,2.55,0,0,0,2.31,1.05,2.62,2.62,0,0,0,2.34-1.05,4.61,4.61,0,0,0,.71-2.65V42.87a4.61,4.61,0,0,0-.71-2.65,2.62,2.62,0,0,0-2.34-1.05,2.55,2.55,0,0,0-2.31,1.05,4.75,4.75,0,0,0-.69,2.65Z"/><path class="cls-1" d="M143.33,57.77h-1.18V38.17h1.68l5.88,16.55V38.17h1.18v19.6h-1.43L143.33,40.3Z"/><path class="cls-1" d="M4.37,76a4.51,4.51,0,0,1,1.9.36,3.4,3.4,0,0,1,1.29,1,4.36,4.36,0,0,1,.74,1.55,7.6,7.6,0,0,1,.24,2v.42H7.31v-.5a6.34,6.34,0,0,0-.15-1.44,3.21,3.21,0,0,0-.5-1.15,2.44,2.44,0,0,0-.91-.77,3,3,0,0,0-1.34-.28,2.47,2.47,0,0,0-2.25,1,4.69,4.69,0,0,0-.66,2.59,3.82,3.82,0,0,0,.52,2,6.54,6.54,0,0,0,1.32,1.53A20.49,20.49,0,0,0,5,85.67,15.33,15.33,0,0,1,6.73,87,6.62,6.62,0,0,1,8,88.74,4.74,4.74,0,0,1,8.57,91a7.64,7.64,0,0,1-.24,2,4.25,4.25,0,0,1-.76,1.55,3.49,3.49,0,0,1-1.32,1,4.6,4.6,0,0,1-1.92.36,4.6,4.6,0,0,1-1.92-.36,3.48,3.48,0,0,1-1.32-1A4.22,4.22,0,0,1,.35,93a7.6,7.6,0,0,1-.24-2V90H1.34v1.09A4.62,4.62,0,0,0,2,93.71a2.54,2.54,0,0,0,2.3,1,2.54,2.54,0,0,0,2.3-1,4.62,4.62,0,0,0,.67-2.59,3.76,3.76,0,0,0-.52-2,6.51,6.51,0,0,0-1.32-1.53,18.75,18.75,0,0,0-1.71-1.3A14.08,14.08,0,0,1,2,84.92,6.53,6.53,0,0,1,.71,83.21,4.88,4.88,0,0,1,.2,80.87a5.71,5.71,0,0,1,1-3.53A3.79,3.79,0,0,1,4.37,76Z"/><path class="cls-1" d="M17.47,91a6.71,6.71,0,0,0,.15,1.47,3.34,3.34,0,0,0,.5,1.19,2.38,2.38,0,0,0,.91.78,3.5,3.5,0,0,0,2.74,0,2.39,2.39,0,0,0,.91-.78,3.34,3.34,0,0,0,.5-1.19A6.71,6.71,0,0,0,23.35,91V76.17h1.2V91a8.07,8.07,0,0,1-.22,2,4.33,4.33,0,0,1-.73,1.57,3.43,3.43,0,0,1-1.3,1.05,4.45,4.45,0,0,1-1.92.38,4.45,4.45,0,0,1-1.92-.38,3.44,3.44,0,0,1-1.3-1.05,4.51,4.51,0,0,1-.74-1.57,7.64,7.64,0,0,1-.24-2V76.17h1.29Z"/><path class="cls-1" d="M36.43,76.17a3.77,3.77,0,0,1,3.23,1.3,5.67,5.67,0,0,1,1,3.46v2.13a4.92,4.92,0,0,1-1.09,3.5,4.56,4.56,0,0,1-3.44,1.15H33.66v8.06H32.37V76.17Zm-.34,10.36a3.32,3.32,0,0,0,2.48-.8,3.64,3.64,0,0,0,.77-2.59v-2.3a4.56,4.56,0,0,0-.63-2.55,2.53,2.53,0,0,0-2.28-1H33.66v9.18Z"/><path class="cls-1" d="M52.28,76.17a3.77,3.77,0,0,1,3.23,1.3,5.67,5.67,0,0,1,1,3.46v2.13a4.92,4.92,0,0,1-1.09,3.5,4.56,4.56,0,0,1-3.44,1.15H49.5v8.06H48.22V76.17Zm-.34,10.36a3.32,3.32,0,0,0,2.48-.8,3.64,3.64,0,0,0,.77-2.59v-2.3a4.56,4.56,0,0,0-.63-2.55,2.53,2.53,0,0,0-2.28-1H49.5v9.18Z"/><path class="cls-1" d="M64,81a7.38,7.38,0,0,1,.25-2A4.4,4.4,0,0,1,65,77.41a3.6,3.6,0,0,1,1.33-1A4.54,4.54,0,0,1,68.26,76a4.64,4.64,0,0,1,1.95.38,3.69,3.69,0,0,1,1.36,1A4.28,4.28,0,0,1,72.35,79a7.38,7.38,0,0,1,.25,2V91a7.37,7.37,0,0,1-.25,2,4.27,4.27,0,0,1-.78,1.57,3.68,3.68,0,0,1-1.36,1,4.64,4.64,0,0,1-1.95.38,4.55,4.55,0,0,1-1.93-.38,3.59,3.59,0,0,1-1.33-1A4.39,4.39,0,0,1,64.23,93,7.37,7.37,0,0,1,64,91Zm1.29,10.11A4.75,4.75,0,0,0,66,93.71a2.55,2.55,0,0,0,2.31,1.05,2.62,2.62,0,0,0,2.34-1.05,4.61,4.61,0,0,0,.71-2.65V80.87a4.61,4.61,0,0,0-.71-2.65,2.62,2.62,0,0,0-2.34-1.05A2.55,2.55,0,0,0,66,78.23a4.75,4.75,0,0,0-.69,2.65Z"/><path class="cls-1" d="M84.42,76.17a4,4,0,0,1,3.22,1.18,4.93,4.93,0,0,1,1,3.25V82.3q0,3.42-2.83,4.06A3.26,3.26,0,0,1,88,87.73a4.83,4.83,0,0,1,.66,2.63v3.05a9.31,9.31,0,0,0,.08,1.25,2.65,2.65,0,0,0,.39,1.11H87.75a2.9,2.9,0,0,1-.34-1,9.2,9.2,0,0,1-.08-1.36V90.34a4.5,4.5,0,0,0-.25-1.62,2.33,2.33,0,0,0-.74-1,3,3,0,0,0-1.16-.53A6.81,6.81,0,0,0,83.66,87h-2v8.76H80.33V76.17Zm-.73,9.66a7.56,7.56,0,0,0,1.54-.14,2.69,2.69,0,0,0,1.13-.5,2.33,2.33,0,0,0,.71-1,4.49,4.49,0,0,0,.25-1.62V80.7a4,4,0,0,0-.67-2.48,2.68,2.68,0,0,0-2.27-.88H81.62v8.48Z"/><path class="cls-1" d="M100.13,95.77V77.34h-4V76.17h9.27v1.18h-4V95.77Z"/></g></g></svg>