<svg xmlns="http://www.w3.org/2000/svg" viewBox="0 0 548.88 55.27"><defs><style>.cls-1{fill:#fff;}</style></defs><title>recruiting-index_2</title><g id="レイヤー_2" data-name="レイヤー 2"><g id="design"><path class="cls-1" d="M10.82.39C18.92.39,22,5.14,22,12.61v4.9c0,6.7-2.65,10.35-8.64,11.44,6.07.93,8.64,4.9,8.64,10.9v8.56c0,2.1.23,4.75,1.48,6.46H21.64c-1.09-1.71-1.32-4.13-1.32-6.46V39.86c0-8-4.83-10.12-11.91-10.12H1.71V54.88H0V.39ZM8.41,28.1c7.55,0,11.91-1.95,11.91-10.35v-5C20.32,6.15,17.75,2,10.74,2h-9V28.1Z"/><path class="cls-1" d="M81.59,26.47V28h-16V53.25H84.63v1.63H63.84V.39H84.63V2H65.55V26.47Z"/><path class="cls-1" d="M147.69,13.78V18H146V13.7c0-6.62-2.49-12.15-9.65-12.15s-9.73,5.53-9.73,12.15V41.57c0,6.62,2.49,12.07,9.73,12.07S146,48.19,146,41.57v-6h1.71v5.92c0,7.55-3.11,13.78-11.44,13.78S124.88,49,124.88,41.49V13.78C124.88,6.23,128,0,136.25,0S147.69,6.23,147.69,13.78Z"/><path class="cls-1" d="M198.84.39c8.1,0,11.21,4.75,11.21,12.22v4.9c0,6.7-2.65,10.35-8.64,11.44,6.07.93,8.64,4.9,8.64,10.9v8.56c0,2.1.23,4.75,1.48,6.46h-1.87c-1.09-1.71-1.32-4.13-1.32-6.46V39.86c0-8-4.83-10.12-11.91-10.12h-6.69V54.88H188V.39ZM196.43,28.1c7.55,0,11.91-1.95,11.91-10.35v-5c0-6.62-2.57-10.74-9.58-10.74h-9V28.1Z"/><path class="cls-1" d="M253.5,41.49c0,6.54,2.33,12.22,9.58,12.22s9.58-5.68,9.58-12.22V.39h1.63v41c0,7.47-3,13.86-11.21,13.86s-11.29-6.38-11.29-13.86V.39h1.71Z"/><path class="cls-1" d="M316.4.39v54.5h-1.71V.39Z"/><path class="cls-1" d="M367.4,54.88V2H355.49V.39H381V2H369.11V54.88Z"/><path class="cls-1" d="M422,.39v54.5h-1.71V.39Z"/><path class="cls-1" d="M464.09,54.88h-1.63V.39h2.41l19.15,51V.39h1.63v54.5h-2.1l-19.46-52Z"/><path class="cls-1" d="M548.88,13.78v3.58h-1.71V13.7c0-6.62-2.49-12.15-9.65-12.15s-9.73,5.53-9.73,12.15V41.57c0,6.62,2.49,12.07,9.73,12.07s9.65-5.45,9.65-12.07V29.19h-8.49V27.64h10.2V41.49c0,7.55-3.11,13.78-11.44,13.78S526.07,49,526.07,41.49V13.78C526.07,6.23,529.18,0,537.43,0S548.88,6.23,548.88,13.78Z"/></g></g></svg>