<svg xmlns="http://www.w3.org/2000/svg" viewBox="0 0 107.46 57.8"><defs><style>.cls-1{fill:#fff;}</style></defs><title>text-tembuilding</title><g id="レイヤー_2" data-name="レイヤー 2"><g id="design"><path class="cls-1" d="M4,19.63V1.2H0V0H9.27V1.2h-4V19.63Z"/><path class="cls-1" d="M23.18,9.1v1.18H17.84v8.18h6.44v1.18H16.55V0h7.73V1.2H17.84V9.1Z"/><path class="cls-1" d="M33.85,15.29l-1,4.34H31.7L36,0h1.88l4.37,19.63H40.94l-1-4.34Zm.2-1.12h5.71L36.88,1.48Z"/><path class="cls-1" d="M56.36,19.6H55.08L50.93,2.27V19.63H49.78V0h1.85l4.12,17.33L59.83,0h1.85v19.6H60.45V2.21Z"/><path class="cls-1" d="M4.73,38a3.88,3.88,0,0,1,3.11,1.06,4.71,4.71,0,0,1,.9,3.11v1.12a5.29,5.29,0,0,1-.55,2.58,2.81,2.81,0,0,1-2,1.29A3.2,3.2,0,0,1,8.43,48.6a5.28,5.28,0,0,1,.67,2.79v1.71a5,5,0,0,1-1,3.33,4,4,0,0,1-3.28,1.2H.62V38Zm-.64,8.65a7,7,0,0,0,1.5-.14,2.43,2.43,0,0,0,1-.49,2,2,0,0,0,.62-1,5,5,0,0,0,.2-1.53V42.31A3.85,3.85,0,0,0,6.86,40,2.55,2.55,0,0,0,4.7,39.2H1.9v7.48Zm.73,9.77a2.77,2.77,0,0,0,2.31-.87,4,4,0,0,0,.69-2.52V51.3a3.45,3.45,0,0,0-.87-2.67,3.83,3.83,0,0,0-2.6-.77H1.9v8.6Z"/><path class="cls-1" d="M18,52.9a6.71,6.71,0,0,0,.15,1.47,3.34,3.34,0,0,0,.5,1.19,2.38,2.38,0,0,0,.91.78,3.5,3.5,0,0,0,2.74,0,2.39,2.39,0,0,0,.91-.78,3.34,3.34,0,0,0,.5-1.19,6.71,6.71,0,0,0,.15-1.47V38h1.2V52.84a8.07,8.07,0,0,1-.22,2,4.33,4.33,0,0,1-.73,1.57,3.43,3.43,0,0,1-1.3,1.05,4.45,4.45,0,0,1-1.92.38A4.45,4.45,0,0,1,19,57.42a3.44,3.44,0,0,1-1.3-1.05A4.51,4.51,0,0,1,17,54.8a7.64,7.64,0,0,1-.24-2V38H18Z"/><path class="cls-1" d="M34.22,38v19.6H32.93V38Z"/><path class="cls-1" d="M42.06,57.63V38h1.29V56.45H49.5v1.18Z"/><path class="cls-1" d="M61.35,38a5,5,0,0,1,1.95.35,3.51,3.51,0,0,1,1.36,1,4.15,4.15,0,0,1,.78,1.54,7.3,7.3,0,0,1,.25,2v9.86a7.29,7.29,0,0,1-.25,2,4.14,4.14,0,0,1-.78,1.54,3.5,3.5,0,0,1-1.36,1,5,5,0,0,1-1.95.35H57V38Zm0,18.42a2.7,2.7,0,0,0,2.37-1,4.45,4.45,0,0,0,.71-2.63v-10a4.39,4.39,0,0,0-.73-2.63,2.7,2.7,0,0,0-2.35-1h-3V56.45Z"/><path class="cls-1" d="M74.7,38v19.6H73.42V38Z"/><path class="cls-1" d="M83.72,57.63H82.54V38h1.68L90.1,54.58V38h1.18v19.6H89.85L83.72,40.16Z"/><path class="cls-1" d="M103.23,37.86a4.44,4.44,0,0,1,1.92.38,3.62,3.62,0,0,1,1.32,1,4.25,4.25,0,0,1,.76,1.57,7.8,7.8,0,0,1,.24,2v1.46h-1.23V42.73a6.58,6.58,0,0,0-.15-1.46,3.23,3.23,0,0,0-.52-1.18,2.51,2.51,0,0,0-.92-.78,3.5,3.5,0,0,0-2.74,0,2.5,2.5,0,0,0-.92.78,3.2,3.2,0,0,0-.52,1.18,6.52,6.52,0,0,0-.15,1.46V52.92a6.52,6.52,0,0,0,.15,1.46,3.06,3.06,0,0,0,.52,1.16,2.55,2.55,0,0,0,.92.77,3.5,3.5,0,0,0,2.74,0,2.56,2.56,0,0,0,.92-.77,3.09,3.09,0,0,0,.52-1.16,6.58,6.58,0,0,0,.15-1.46V48.7h-2.6V47.52h3.84v5.32a7.8,7.8,0,0,1-.24,2,4.24,4.24,0,0,1-.76,1.57,3.61,3.61,0,0,1-1.32,1,5.06,5.06,0,0,1-3.84,0,3.61,3.61,0,0,1-1.32-1,4.21,4.21,0,0,1-.76-1.57,7.76,7.76,0,0,1-.24-2v-10a7.76,7.76,0,0,1,.24-2,4.22,4.22,0,0,1,.76-1.57,3.62,3.62,0,0,1,1.32-1A4.45,4.45,0,0,1,103.23,37.86Z"/></g></g></svg>