<svg xmlns="http://www.w3.org/2000/svg" viewBox="0 0 341.79 55.28"><defs><style>.cls-1{fill:#fff;}</style></defs><title>career-index</title><g id="レイヤー_2" data-name="レイヤー 2"><g id="design"><path class="cls-1" d="M11.37,0a11.74,11.74,0,0,1,5.29,1.09A9.65,9.65,0,0,1,20.2,4a12.46,12.46,0,0,1,2,4.4,22.26,22.26,0,0,1,.62,5.33V18H21.1V13.7A21.18,21.18,0,0,0,20.59,9,11,11,0,0,0,19,5.14a8.15,8.15,0,0,0-3-2.61,9.68,9.68,0,0,0-4.52-1,9.86,9.86,0,0,0-4.59,1,8.13,8.13,0,0,0-3,2.61A11,11,0,0,0,2.22,9a21.12,21.12,0,0,0-.51,4.71V41.58a20.58,20.58,0,0,0,.51,4.67,11,11,0,0,0,1.64,3.82,8.12,8.12,0,0,0,3,2.61,9.85,9.85,0,0,0,4.59,1,9.67,9.67,0,0,0,4.52-1,8.14,8.14,0,0,0,3-2.61,11,11,0,0,0,1.63-3.82,20.63,20.63,0,0,0,.51-4.67v-6h1.71V41.5a22.24,22.24,0,0,1-.62,5.33,12.44,12.44,0,0,1-2,4.4,9.64,9.64,0,0,1-3.54,3,11.74,11.74,0,0,1-5.29,1.09,11.49,11.49,0,0,1-5.25-1.09,9.69,9.69,0,0,1-3.5-3,12.39,12.39,0,0,1-2-4.4A22.19,22.19,0,0,1,0,41.5V13.78A22.21,22.21,0,0,1,.62,8.45a12.41,12.41,0,0,1,2-4.4,9.71,9.71,0,0,1,3.5-3A11.49,11.49,0,0,1,11.37,0Z"/><path class="cls-1" d="M67.66,42,64.46,54.89H62.91L76.07.31h2.41L91.95,54.89H90.24L87,42ZM68,40.49H86.73L77.23,2.34Z"/><path class="cls-1" d="M143,.39q6.07,0,8.64,3.31t2.57,8.92v4.9q0,5.06-2.06,7.82T145.59,29q4.59.7,6.62,3.54a12.4,12.4,0,0,1,2,7.36v8.56a22.2,22.2,0,0,0,.27,3.35,7.18,7.18,0,0,0,1.21,3.11h-1.87a7.3,7.3,0,0,1-1.09-3,25.1,25.1,0,0,1-.23-3.46V39.86a12.46,12.46,0,0,0-.86-5,7.25,7.25,0,0,0-2.45-3.08,10.14,10.14,0,0,0-3.78-1.6,23,23,0,0,0-4.83-.47h-6.7V54.89H132.2V.39Zm-2.41,27.72a26.58,26.58,0,0,0,5-.43,8.73,8.73,0,0,0,3.74-1.6,7.46,7.46,0,0,0,2.34-3.15,13.77,13.77,0,0,0,.82-5.18v-5a12.92,12.92,0,0,0-2.14-7.86Q148.24,2,142.94,2h-9V28.11Z"/><path class="cls-1" d="M213.79,26.47V28h-16V53.25h19.07v1.63H196V.39h20.79V2H197.75V26.47Z"/><path class="cls-1" d="M274.91,26.47V28h-16V53.25h19.07v1.63H257.16V.39h20.79V2H258.87V26.47Z"/><path class="cls-1" d="M329.09.39q6.07,0,8.64,3.31t2.57,8.92v4.9q0,5.06-2.06,7.82T331.66,29q4.59.7,6.62,3.54a12.4,12.4,0,0,1,2,7.36v8.56a22.2,22.2,0,0,0,.27,3.35,7.18,7.18,0,0,0,1.21,3.11h-1.87a7.3,7.3,0,0,1-1.09-3,25.1,25.1,0,0,1-.23-3.46V39.86a12.46,12.46,0,0,0-.86-5,7.25,7.25,0,0,0-2.45-3.08,10.14,10.14,0,0,0-3.78-1.6,23,23,0,0,0-4.83-.47H320V54.89h-1.71V.39Zm-2.41,27.72a26.58,26.58,0,0,0,5-.43,8.73,8.73,0,0,0,3.74-1.6,7.46,7.46,0,0,0,2.34-3.15,13.77,13.77,0,0,0,.82-5.18v-5a12.92,12.92,0,0,0-2.14-7.86Q334.31,2,329,2h-9V28.11Z"/></g></g></svg>