<svg xmlns="http://www.w3.org/2000/svg" viewBox="0 0 100.93 30"><defs><style>.cls-1{fill:#ff6d1f;}</style></defs><title>story</title><g id="レイヤー_2" data-name="レイヤー 2"><g id="mouse_over" data-name="mouse over"><path class="cls-1" d="M25,7.89a36.16,36.16,0,0,1-3.52,3.73A29,29,0,0,1,17.09,15a23.61,23.61,0,0,1-5.2,2.4,19.29,19.29,0,0,1-6,.92A10.61,10.61,0,0,1,3.6,18a6.19,6.19,0,0,1-1.85-.7A3.9,3.9,0,0,1,.48,16.15,3,3,0,0,1,0,14.45a2.49,2.49,0,0,1,.86-1.84A3.25,3.25,0,0,1,3.2,11.8a2.36,2.36,0,0,1,1.24.29,1,1,0,0,1,.48.88,1.34,1.34,0,0,1-.35.94,1.37,1.37,0,0,1-1.06.39,1.5,1.5,0,0,1-.89-.23,1.07,1.07,0,0,1-.43-.59,1.36,1.36,0,0,0-.76.68,2.22,2.22,0,0,0-.2.92,2.19,2.19,0,0,0,1.34,2.05,6.55,6.55,0,0,0,3,.68,4.73,4.73,0,0,0,1.85-.33,4.13,4.13,0,0,0,1.32-.86,3.28,3.28,0,0,0,.79-1.23A4.12,4.12,0,0,0,9.79,14a4.06,4.06,0,0,0-.33-1.54q-.33-.8-.74-1.58T8,9.32a3.39,3.39,0,0,1-.35-1.43,2.72,2.72,0,0,1,.46-1.54A3.81,3.81,0,0,1,9.31,5.2a6.66,6.66,0,0,1,1.8-.72,8.76,8.76,0,0,1,2.13-.25,6.94,6.94,0,0,1,3.3.68A2,2,0,0,1,17.8,6.72a1.55,1.55,0,0,1-1,1.48,5.07,5.07,0,0,1-2.21.47,4.59,4.59,0,0,0,.53-1,3.17,3.17,0,0,0,.23-1.11,1.64,1.64,0,0,0-.63-1.31,2.74,2.74,0,0,0-1.8-.53,3,3,0,0,0-2.18.68A2.22,2.22,0,0,0,10,7a3.71,3.71,0,0,0,.38,1.64,14.68,14.68,0,0,0,.89,1.56q.46.78.84,1.6a4.32,4.32,0,0,1,.38,1.84,2.64,2.64,0,0,1-.43,1.43A5,5,0,0,1,11,16.35a7.18,7.18,0,0,1-1.6,1,6.51,6.51,0,0,1-1.8.51l.1.08a18.12,18.12,0,0,0,5.22-1.23,25.74,25.74,0,0,0,4.64-2.42,30.62,30.62,0,0,0,4-3.12,36.73,36.73,0,0,0,3.2-3.34Z"/><path class="cls-1" d="M33.63,0l-4,4.53h6.7L36,5h-6.8q-2,2.54-3.63,4.4T22.9,12.6a21.79,21.79,0,0,0-1.65,2.27,3.23,3.23,0,0,0-.56,1.62,1,1,0,0,0,.66,1,3.71,3.71,0,0,0,1.52.29,9.32,9.32,0,0,0,4-1.07,30.35,30.35,0,0,0,4.39-2.64,50.91,50.91,0,0,0,4.16-3.32q2-1.76,3.35-3.17l.3.16q-1.72,1.68-3.78,3.54a45.69,45.69,0,0,1-4.23,3.4,27.54,27.54,0,0,1-4.39,2.56,10,10,0,0,1-4.18,1,4.87,4.87,0,0,1-2.71-.74,2.34,2.34,0,0,1-1.14-2.07,4,4,0,0,1,.66-2A19.15,19.15,0,0,1,21,11.06q1.06-1.29,2.41-2.81T26.22,5H23.48l.3-.47h2.84l4-4.53Z"/><path class="cls-1" d="M61.57,8.09a9.87,9.87,0,0,1-2.74,1.68,7.85,7.85,0,0,1-3,.62,5.57,5.57,0,0,1-2.43-.49,4.65,4.65,0,0,1-1.57-1.15h-.1a10.56,10.56,0,0,1-1.88,3.16A18,18,0,0,1,46.58,15a19.41,19.41,0,0,1-4.18,2.34,12.18,12.18,0,0,1-4.67.94,4.87,4.87,0,0,1-3.3-1,3.3,3.3,0,0,1-1.12-2.62,4.63,4.63,0,0,1,.56-2,11,11,0,0,1,1.55-2.29,19.78,19.78,0,0,1,5.25-4.26A16.6,16.6,0,0,1,44,4.75a12.15,12.15,0,0,1,3.52-.53,4.94,4.94,0,0,1,3.22.94A3.3,3.3,0,0,1,52,7.58a2.5,2.5,0,0,0,1.09,1.66,4.34,4.34,0,0,0,2.71.76,7.1,7.1,0,0,0,2.87-.59,11,11,0,0,0,2.51-1.52ZM36.06,15.63a2.36,2.36,0,0,0,.51,1.6,1.9,1.9,0,0,0,1.52.59,6.93,6.93,0,0,0,2.71-.57,12.54,12.54,0,0,0,2.59-1.48,15.78,15.78,0,0,0,2.31-2.09,17.35,17.35,0,0,0,1.85-2.42,14.13,14.13,0,0,0,1.24-2.44,6.13,6.13,0,0,0,.46-2.17,2,2,0,0,0-.53-1.39,2.17,2.17,0,0,0-1.65-.57,5.76,5.76,0,0,0-2.28.53A14.46,14.46,0,0,0,42.32,6.6a16.34,16.34,0,0,0-2.36,2,21.09,21.09,0,0,0-2,2.34,11.84,11.84,0,0,0-1.4,2.42A5.88,5.88,0,0,0,36.06,15.63Z"/><path class="cls-1" d="M66.49,4.53l-6.44,7.23.1.08q.71-.66,1.8-1.54t2.38-1.8Q65.63,7.58,67,6.68t2.79-1.6a2.49,2.49,0,0,1,.56-.62,2.16,2.16,0,0,1,1.22-.23l1,0,.89.06a11.07,11.07,0,0,0-1.67,1.62A3.17,3.17,0,0,0,71,8a1.77,1.77,0,0,0,.58,1.41A2.12,2.12,0,0,0,73,9.92a4.9,4.9,0,0,0,1.5-.23,8.36,8.36,0,0,0,1.4-.59q.66-.35,1.27-.74l1.06-.7.3.16q-.51.39-1.17.84A13.48,13.48,0,0,1,76,9.49a9.4,9.4,0,0,1-1.62.64,6.27,6.27,0,0,1-1.78.25A4.16,4.16,0,0,1,70,9.63,2.54,2.54,0,0,1,69,7.5a2.72,2.72,0,0,1,.56-1.68l-.1-.08a39.86,39.86,0,0,0-4.56,2.87q-2.49,1.78-5.27,4.2a15.06,15.06,0,0,0-2.1,2.27A21.64,21.64,0,0,0,55.59,18h-3.3q2.74-3.36,5.48-6.68T63.4,4.53Z"/><path class="cls-1" d="M83.89,4.53q-1.83,2-3.65,3.91T77,11.88q-1.45,1.56-2.36,2.75a3.56,3.56,0,0,0-.91,1.89q0,1.13,1.42,1.13a7.24,7.24,0,0,0,3.42-1.09,27.75,27.75,0,0,0,4.13-2.91,53.83,53.83,0,0,0,4.44-4.18q2.26-2.36,4.34-4.94h3.15Q91.6,7.7,89,11t-5.43,6.62a24.48,24.48,0,0,0,9.21-3.26,32,32,0,0,0,7.79-6.47l.36.12a30.21,30.21,0,0,1-8.29,6.9,25.56,25.56,0,0,1-9.41,3.18l-4,4.2a29.77,29.77,0,0,1-4.51,3.83,23.89,23.89,0,0,1-5.4,2.77A19.28,19.28,0,0,1,62.64,30a14.64,14.64,0,0,1-3.17-.33,10.53,10.53,0,0,1-2.61-.92,5.54,5.54,0,0,1-1.77-1.41,2.76,2.76,0,0,1-.66-1.76,3.14,3.14,0,0,1,1.75-3,8.86,8.86,0,0,1,4.23-.94v.12a4.52,4.52,0,0,0-2.69,1.27,3.46,3.46,0,0,0-.86,2.4,3.07,3.07,0,0,0,.51,1.74,4.31,4.31,0,0,0,1.32,1.27,6.7,6.7,0,0,0,1.85.78,8.47,8.47,0,0,0,2.16.27,12.75,12.75,0,0,0,4.62-.86,20.81,20.81,0,0,0,4.29-2.27,32,32,0,0,0,3.93-3.18q1.88-1.78,3.55-3.67t3.12-3.71q1.45-1.82,2.66-3.26l-.1-.08q-.81.74-2,1.74a23.78,23.78,0,0,1-2.56,1.89,17.14,17.14,0,0,1-3,1.52,8.73,8.73,0,0,1-3.25.63,4.11,4.11,0,0,1-2.33-.51A1.6,1.6,0,0,1,71,16.41a3.22,3.22,0,0,1,.53-1.66,16.71,16.71,0,0,1,1.7-2.21q1.17-1.33,3-3.24t4.34-4.77Z"/></g></g></svg>