<svg xmlns="http://www.w3.org/2000/svg" viewBox="0 0 140.32 28.78"><defs><style>.cls-1{fill:#ff6d1f;}</style></defs><title>yo</title><g id="レイヤー_2" data-name="レイヤー 2"><g id="design"><path class="cls-1" d="M38.29.46l-16,18.92q-1.67,1.81-3.46,3.5a28.7,28.7,0,0,1-3.76,3A19.18,19.18,0,0,1,10.94,28a13.67,13.67,0,0,1-4.65.79,12,12,0,0,1-2.36-.23,7.21,7.21,0,0,1-2-.7,4.11,4.11,0,0,1-1.4-1.19A2.8,2.8,0,0,1,0,25a2.63,2.63,0,0,1,.37-1.39,3.37,3.37,0,0,1,1-1,4.65,4.65,0,0,1,1.4-.64,5.83,5.83,0,0,1,1.62-.23,7,7,0,0,1,1.75.23,7.68,7.68,0,0,1,1.53.54l-.15.23q-.63-.2-1.3-.37a5.38,5.38,0,0,0-1.34-.17,2.93,2.93,0,0,0-2,.75A2.85,2.85,0,0,0,2,25.16a2.73,2.73,0,0,0,1.32,2.39,6.13,6.13,0,0,0,3.44.88,8.6,8.6,0,0,0,3.46-.75,16.1,16.1,0,0,0,3.31-2A30,30,0,0,0,16.65,23q1.51-1.52,2.85-3.07t2.51-3q1.17-1.43,2.14-2.44l-.08-.06q-1.08,1-2.51,2.11a27.18,27.18,0,0,1-3,2A20.71,20.71,0,0,1,15.42,20a8.61,8.61,0,0,1-3,.59A3.93,3.93,0,0,1,10,20.06,2,2,0,0,1,9.3,18.4a4.18,4.18,0,0,1,.91-2.21,30.57,30.57,0,0,1,2.27-2.85q1.36-1.53,3-3.2t3-3.24a30,30,0,0,0,2.27-3,4.49,4.49,0,0,0,.91-2.32A1.12,1.12,0,0,0,21.12.7,2.2,2.2,0,0,0,19.76.34,11.08,11.08,0,0,0,16.3,1a15.8,15.8,0,0,0-3.55,1.69A11.87,11.87,0,0,0,10,5.07,4.32,4.32,0,0,0,8.86,7.85,2.1,2.1,0,0,0,9.4,9.33a2.19,2.19,0,0,0,1.69.59,6.58,6.58,0,0,0,1.56-.17,5.61,5.61,0,0,0,1.28-.47A6,6,0,0,0,15,8.57q.48-.4.93-.83l.3,0A8,8,0,0,1,14,9.52a6.22,6.22,0,0,1-3.11.75A2.85,2.85,0,0,1,8.71,9.5,2.51,2.51,0,0,1,8,7.8,4.24,4.24,0,0,1,9.19,5.1a12.85,12.85,0,0,1,2.9-2.51A17.81,17.81,0,0,1,15.95.73,12.27,12.27,0,0,1,20,0a5.24,5.24,0,0,1,2.7.56,2,2,0,0,1,.91,1.85,4.31,4.31,0,0,1-.91,2.24,30.76,30.76,0,0,1-2.27,2.91q-1.36,1.56-3,3.24t-3,3.22a32,32,0,0,0-2.27,2.87A4.15,4.15,0,0,0,11.31,19a1.06,1.06,0,0,0,.45,1,1.83,1.83,0,0,0,.93.26,8.22,8.22,0,0,0,2.9-.67,22.09,22.09,0,0,0,3.55-1.82,31.67,31.67,0,0,0,3.65-2.67A28.22,28.22,0,0,0,26,11.92L35.76.46Z"/><path class="cls-1" d="M44.54,13a19.49,19.49,0,0,1-1.4,1.58,20.37,20.37,0,0,1-1.9,1.71q-1.06.85-2.27,1.63a21.16,21.16,0,0,1-2.51,1.4,15.74,15.74,0,0,1-2.62,1,9.88,9.88,0,0,1-2.59.36A4.09,4.09,0,0,1,28.84,20,2,2,0,0,1,28,18.26a4.63,4.63,0,0,1,1-2.65A12.08,12.08,0,0,1,31.48,13a15.18,15.18,0,0,1,3.35-1.95,8.94,8.94,0,0,1,3.5-.77,2.92,2.92,0,0,1,1.45.3,1,1,0,0,1,.52.87q0,.69-1,1.33A11.85,11.85,0,0,1,37,14a28.76,28.76,0,0,1-3,.95q-1.6.42-2.83.62a5.39,5.39,0,0,0-.67,1.29,4.16,4.16,0,0,0-.26,1.43,2.45,2.45,0,0,0,.09.67,1.79,1.79,0,0,0,.3.6,1.5,1.5,0,0,0,.56.44,2,2,0,0,0,.88.17,8.46,8.46,0,0,0,2.88-.62,20.14,20.14,0,0,0,3.37-1.65,25.57,25.57,0,0,0,3.28-2.35,19.32,19.32,0,0,0,2.68-2.72Zm-6-1.52a.69.69,0,0,0-.28-.6,1.15,1.15,0,0,0-.69-.2,3.7,3.7,0,0,0-1.69.47A11.51,11.51,0,0,0,34,12.31a13.1,13.1,0,0,0-1.62,1.5,9.23,9.23,0,0,0-1.1,1.43,17.43,17.43,0,0,0,2-.44A17.27,17.27,0,0,0,35.74,14a8.65,8.65,0,0,0,2-1.13A1.8,1.8,0,0,0,38.51,11.46Z"/><path class="cls-1" d="M54.14,10.55h2.42Q55.18,12,53.92,13.44T51.67,16a24.4,24.4,0,0,0-1.58,2.09,2.91,2.91,0,0,0-.59,1.42q0,.75,1,.75a4.84,4.84,0,0,0,2-.59,17.56,17.56,0,0,0,2.62-1.62A32.87,32.87,0,0,0,58,15.68a36.55,36.55,0,0,0,2.83-2.92l.22.06q-1,1.17-2.36,2.54a32.08,32.08,0,0,1-2.85,2.54,19.65,19.65,0,0,1-3,2,6,6,0,0,1-2.79.79,2.46,2.46,0,0,1-1.58-.42,1.25,1.25,0,0,1-.5-1,2,2,0,0,1,.17-.79c.11-.26.23-.52.35-.79l-.07,0q-.48.4-1.21.93a14.24,14.24,0,0,1-1.56,1,11.7,11.7,0,0,1-1.73.77,5.15,5.15,0,0,1-1.71.32A2.42,2.42,0,0,1,40.3,20a2.25,2.25,0,0,1-.56-1.49,4.72,4.72,0,0,1,1-2.59,13.17,13.17,0,0,1,2.46-2.67,15.17,15.17,0,0,1,3.24-2.08,7.74,7.74,0,0,1,3.31-.83,4.84,4.84,0,0,1,1.3.16,2.9,2.9,0,0,1,.93.43,2.1,2.1,0,0,1,.58.62,3.22,3.22,0,0,1,.32.72h.07ZM42,18.57a1.39,1.39,0,0,0,.35,1,1.33,1.33,0,0,0,1,.36,4,4,0,0,0,1.49-.36,11.51,11.51,0,0,0,1.79-1,16.63,16.63,0,0,0,1.84-1.39A12.55,12.55,0,0,0,50,15.56a9.79,9.79,0,0,0,1.15-1.81A4,4,0,0,0,51.65,12a1.15,1.15,0,0,0-.48-1A2,2,0,0,0,50,10.66a5.33,5.33,0,0,0-2.49.75,12.36,12.36,0,0,0-2.6,1.91,11.91,11.91,0,0,0-2.07,2.57A5.27,5.27,0,0,0,42,18.57Z"/><path class="cls-1" d="M64.52,10.55l-4.73,5.3.07.06q.52-.49,1.32-1.13t1.75-1.32q.95-.67,2-1.33t2-1.17a1.84,1.84,0,0,1,.41-.46,1.59,1.59,0,0,1,.89-.17H69l.65,0a8.12,8.12,0,0,0-1.23,1.19,2.32,2.32,0,0,0-.6,1.53,1.3,1.3,0,0,0,.43,1,1.56,1.56,0,0,0,1.06.37,3.57,3.57,0,0,0,1.1-.17,6.1,6.1,0,0,0,1-.43q.48-.26.93-.54l.78-.52.22.11q-.37.29-.86.62a9.51,9.51,0,0,1-1,.62,6.77,6.77,0,0,1-1.19.47,4.59,4.59,0,0,1-1.3.19,3.05,3.05,0,0,1-1.92-.56,1.86,1.86,0,0,1-.73-1.56,2,2,0,0,1,.41-1.23l-.07-.06a29.27,29.27,0,0,0-3.35,2.11q-1.82,1.31-3.87,3.08a11,11,0,0,0-1.54,1.66,16.08,16.08,0,0,0-1.4,2.12H54.1l4-4.9q2-2.43,4.13-5Z"/><path class="cls-1" d="M85.73,13a26.59,26.59,0,0,1-2.59,2.74,21.28,21.28,0,0,1-3.22,2.45A17.34,17.34,0,0,1,76.11,20a14.13,14.13,0,0,1-4.41.67A7.81,7.81,0,0,1,70,20.46a4.56,4.56,0,0,1-1.36-.52,2.84,2.84,0,0,1-.93-.87,2.2,2.2,0,0,1-.35-1.25A1.83,1.83,0,0,1,68,16.48a2.38,2.38,0,0,1,1.71-.6,1.73,1.73,0,0,1,.91.21.71.71,0,0,1,.35.64,1,1,0,0,1-.26.69,1,1,0,0,1-.78.29,1.1,1.1,0,0,1-.65-.17.79.79,0,0,1-.32-.43,1,1,0,0,0-.56.5,1.63,1.63,0,0,0,.84,2.18,4.81,4.81,0,0,0,2.21.5A3.46,3.46,0,0,0,72.84,20a3,3,0,0,0,1-.63,2.41,2.41,0,0,0,.58-.9,3,3,0,0,0,.19-1,3,3,0,0,0-.24-1.13q-.24-.59-.54-1.16t-.56-1.13A2.48,2.48,0,0,1,73,13a2,2,0,0,1,.33-1.13,2.8,2.8,0,0,1,.91-.85,4.88,4.88,0,0,1,1.32-.53,6.41,6.41,0,0,1,1.56-.19,5.09,5.09,0,0,1,2.42.5,1.5,1.5,0,0,1,.93,1.33,1.14,1.14,0,0,1-.73,1.09,3.73,3.73,0,0,1-1.62.34,3.39,3.39,0,0,0,.39-.76,2.34,2.34,0,0,0,.17-.82,1.2,1.2,0,0,0-.46-1,2,2,0,0,0-1.32-.39,2.23,2.23,0,0,0-1.6.5,1.63,1.63,0,0,0-.52,1.22,2.72,2.72,0,0,0,.28,1.2,10.74,10.74,0,0,0,.65,1.15q.34.57.61,1.17a3.17,3.17,0,0,1,.28,1.35,1.94,1.94,0,0,1-.32,1,3.72,3.72,0,0,1-.84.92,5.26,5.26,0,0,1-1.17.7,4.79,4.79,0,0,1-1.32.37l.07.06a13.27,13.27,0,0,0,3.83-.9,18.88,18.88,0,0,0,3.41-1.78,22.55,22.55,0,0,0,2.92-2.29,27,27,0,0,0,2.34-2.45Z"/><path class="cls-1" d="M111.52,13.16a7.27,7.27,0,0,1-2,1.23,5.75,5.75,0,0,1-2.2.46,4.09,4.09,0,0,1-1.79-.36,3.41,3.41,0,0,1-1.15-.85h-.07A7.73,7.73,0,0,1,102.92,16a13.22,13.22,0,0,1-2.4,2.26,14.21,14.21,0,0,1-3.07,1.72,8.93,8.93,0,0,1-3.42.69,3.58,3.58,0,0,1-2.42-.72A2.42,2.42,0,0,1,90.79,18a3.39,3.39,0,0,1,.41-1.46,8.09,8.09,0,0,1,1.13-1.68,14.55,14.55,0,0,1,3.85-3.12,12.19,12.19,0,0,1,2.44-1,8.89,8.89,0,0,1,2.59-.39,3.63,3.63,0,0,1,2.36.69,2.42,2.42,0,0,1,.91,1.78,1.83,1.83,0,0,0,.8,1.22,3.19,3.19,0,0,0,2,.56,5.21,5.21,0,0,0,2.1-.43A8.12,8.12,0,0,0,111.22,13ZM92.8,18.69a1.73,1.73,0,0,0,.37,1.17,1.39,1.39,0,0,0,1.12.43,5.08,5.08,0,0,0,2-.42,9.19,9.19,0,0,0,1.9-1.09,11.6,11.6,0,0,0,1.69-1.53,12.68,12.68,0,0,0,1.36-1.78,10.31,10.31,0,0,0,.91-1.79,4.51,4.51,0,0,0,.33-1.59,1.43,1.43,0,0,0-.39-1,1.59,1.59,0,0,0-1.21-.42A4.23,4.23,0,0,0,99.2,11a10.62,10.62,0,0,0-1.81,1,12,12,0,0,0-1.73,1.46,15.6,15.6,0,0,0-1.47,1.72,8.68,8.68,0,0,0-1,1.78A4.3,4.3,0,0,0,92.8,18.69Z"/><path class="cls-1" d="M123.8.46Q120.49,4.33,118,7.15L113.83,12q-1.75,2-2.87,3.31t-1.75,2.14a9,9,0,0,0-.87,1.32,2,2,0,0,0-.24.83q0,.72.82.72a5.25,5.25,0,0,0,2.18-.59,17.84,17.84,0,0,0,2.68-1.61,30.84,30.84,0,0,0,2.92-2.38q1.49-1.36,2.9-2.91l.41.11q-1.34,1.46-2.83,2.82a33.65,33.65,0,0,1-2.87,2.36A19.16,19.16,0,0,1,111.17,20a5.86,5.86,0,0,1-2.4.6,2.68,2.68,0,0,1-1.66-.4,1.29,1.29,0,0,1-.5-1.06,3.14,3.14,0,0,1,.28-1.25,8.26,8.26,0,0,1,.95-1.55q.67-.9,1.77-2.19L112.32,11q1.62-1.88,3.81-4.47T121.19.46Z"/><path class="cls-1" d="M140.32.57q-1.45,1.78-3.16,3.75t-3.42,3.93L130.44,12q-1.58,1.82-2.81,3.34t-2,2.62A3.59,3.59,0,0,0,125,19.6a.64.64,0,0,0,.21.5.89.89,0,0,0,.61.19,5,5,0,0,0,2.12-.57,19,19,0,0,0,2.87-1.81,29.74,29.74,0,0,0,2.83-2.42A25.41,25.41,0,0,0,136,12.87l.3.12q-.34.46-.87,1.07t-1.19,1.28q-.65.66-1.4,1.33t-1.53,1.28a18.9,18.9,0,0,1-2.94,1.93,5.84,5.84,0,0,1-2.68.76,3.22,3.22,0,0,1-1.77-.39,1.15,1.15,0,0,1-.58-1,2.1,2.1,0,0,1,.3-1.06,9.79,9.79,0,0,1,.6-.92l-.07,0q-.6.52-1.32,1.1a16.26,16.26,0,0,1-1.54,1.1,8.9,8.9,0,0,1-1.73.84,5.49,5.49,0,0,1-1.88.33,3.05,3.05,0,0,1-2.07-.63,1.92,1.92,0,0,1-.73-1.49,4.51,4.51,0,0,1,1.08-2.64,13.84,13.84,0,0,1,2.7-2.67,17.57,17.57,0,0,1,3.48-2.06,8.54,8.54,0,0,1,3.46-.83,2.93,2.93,0,0,1,1.9.57,1.7,1.7,0,0,1,.67,1.46h.11L137.86.57ZM127.11,12.38a2.37,2.37,0,0,0-.3-1.2q-.3-.52-1.38-.52a4.17,4.17,0,0,0-1.66.4,10.56,10.56,0,0,0-1.84,1.06,16.22,16.22,0,0,0-3.35,3.22,10.41,10.41,0,0,0-1.08,1.71,3.45,3.45,0,0,0-.41,1.49,1.63,1.63,0,0,0,.3,1,1.26,1.26,0,0,0,1.08.4,3.78,3.78,0,0,0,1.54-.4,13.49,13.49,0,0,0,1.84-1,17,17,0,0,0,1.9-1.48,21.41,21.41,0,0,0,1.67-1.66,10.44,10.44,0,0,0,1.21-1.62A2.8,2.8,0,0,0,127.11,12.38Z"/></g></g></svg>