<?xml version="1.0" encoding="utf-8"?>
<!-- Generator: Adobe Illustrator 21.0.2, SVG Export Plug-In . SVG Version: 6.00 Build 0)  -->
<svg version="1.1" id="レイヤー_1" xmlns="http://www.w3.org/2000/svg" xmlns:xlink="http://www.w3.org/1999/xlink" x="0px"
	 y="0px" viewBox="0 0 123.4 90.4" style="enable-background:new 0 0 123.4 90.4;" xml:space="preserve">
<style type="text/css">
	.st0{clip-path:url(#SVGID_2_);}
	.st1{fill:none;stroke:#FF6D1F;stroke-width:1.6;stroke-miterlimit:10;}
</style>
<title>num-08-sla</title>
<g id="レイヤー_2">
	<g id="design">
		<g>
			<defs>
				<path id="SVGID_1_" d="M27.1,90.4C12.6,90.4,0,80.9,0,63.9V26.5C0,9.5,12.6,0,27.1,0s27,9.5,27,26.5v37.4
					C54.1,80.9,41.6,90.4,27.1,90.4z M37.8,26.7c0-7.5-4.4-12.1-10.7-12.1s-10.9,4.6-10.9,12.1v37.1c0,7.5,4.5,12,10.9,12
					s10.7-4.5,10.7-12V26.7z M94.9,90.4c-15.7,0-28.5-9.4-28.5-26.6c0-10.9,6.2-16.7,11.1-20c-4.5-3.1-10-9-10-18.5
					C67.6,9.6,80,0,94.9,0s27.2,9.6,27.2,25.3c0,9.5-5.5,15.4-10,18.5c4.9,3.2,11.2,9.1,11.2,20C123.4,81,110.6,90.4,94.9,90.4
					L94.9,90.4z M94.9,51.2c-6.8,0-12.3,5.5-12.3,12.2c0,6.8,5.5,12.3,12.2,12.3c6.8,0,12.3-5.4,12.3-12.2c0.1-6.7-5.3-12.3-12-12.4
					C95,51.2,95,51.2,94.9,51.2L94.9,51.2z M94.9,14.6c-6.2,0-11.2,5-11.2,11.2c0,6.2,5,11.2,11.2,11.2c6.4,0,11-4.7,11-11.2
					S101.3,14.6,94.9,14.6L94.9,14.6z"/>
			</defs>
			<clipPath id="SVGID_2_">
				<use xlink:href="#SVGID_1_"  style="overflow:visible;"/>
			</clipPath>
			<g class="st0">
				<line class="st1" x1="83.2" y1="-95.5" x2="-79.4" y2="67.1"/>
				<line class="st1" x1="86.6" y1="-92.1" x2="-76" y2="70.5"/>
				<line class="st1" x1="90.1" y1="-88.6" x2="-72.5" y2="74"/>
				<line class="st1" x1="93.5" y1="-85.2" x2="-69.1" y2="77.4"/>
				<line class="st1" x1="97" y1="-81.7" x2="-65.6" y2="80.9"/>
				<line class="st1" x1="100.4" y1="-78.3" x2="-62.2" y2="84.3"/>
				<line class="st1" x1="103.9" y1="-74.8" x2="-58.7" y2="87.8"/>
				<line class="st1" x1="107.4" y1="-71.3" x2="-55.2" y2="91.2"/>
				<line class="st1" x1="110.8" y1="-67.9" x2="-51.8" y2="94.7"/>
				<line class="st1" x1="114.3" y1="-64.4" x2="-48.3" y2="98.1"/>
				<line class="st1" x1="117.7" y1="-61" x2="-44.9" y2="101.6"/>
				<line class="st1" x1="121.2" y1="-57.5" x2="-41.4" y2="105.1"/>
				<line class="st1" x1="124.6" y1="-54.1" x2="-38" y2="108.5"/>
				<line class="st1" x1="128.1" y1="-50.6" x2="-34.5" y2="112"/>
				<line class="st1" x1="131.5" y1="-47.2" x2="-31.1" y2="115.4"/>
				<line class="st1" x1="135" y1="-43.7" x2="-27.6" y2="118.9"/>
				<line class="st1" x1="138.4" y1="-40.3" x2="-24.2" y2="122.3"/>
				<line class="st1" x1="141.9" y1="-36.8" x2="-20.7" y2="125.8"/>
				<line class="st1" x1="145.4" y1="-33.3" x2="-17.2" y2="129.2"/>
				<line class="st1" x1="148.8" y1="-29.9" x2="-13.8" y2="132.7"/>
				<line class="st1" x1="152.3" y1="-26.4" x2="-10.3" y2="136.2"/>
				<line class="st1" x1="155.7" y1="-23" x2="-6.9" y2="139.6"/>
				<line class="st1" x1="159.2" y1="-19.5" x2="-3.4" y2="143.1"/>
				<line class="st1" x1="162.6" y1="-16.1" x2="0" y2="146.5"/>
				<line class="st1" x1="166.1" y1="-12.6" x2="3.5" y2="150"/>
				<line class="st1" x1="169.6" y1="-9.2" x2="6.9" y2="153.4"/>
				<line class="st1" x1="173" y1="-5.7" x2="10.4" y2="156.9"/>
				<line class="st1" x1="176.5" y1="-2.2" x2="13.9" y2="160.3"/>
				<line class="st1" x1="179.9" y1="1.2" x2="17.3" y2="163.8"/>
				<line class="st1" x1="183.4" y1="4.7" x2="20.8" y2="167.3"/>
				<line class="st1" x1="186.8" y1="8.1" x2="24.2" y2="170.7"/>
				<line class="st1" x1="190.3" y1="11.6" x2="27.7" y2="174.2"/>
			</g>
		</g>
	</g>
</g>
</svg>
