<?xml version="1.0" encoding="utf-8"?>
<!-- Generator: Adobe Illustrator 21.0.2, SVG Export Plug-In . SVG Version: 6.00 Build 0)  -->
<svg version="1.1" id="レイヤー_1" xmlns="http://www.w3.org/2000/svg" xmlns:xlink="http://www.w3.org/1999/xlink" x="0px"
	 y="0px" viewBox="0 0 122.4 90.4" style="enable-background:new 0 0 122.4 90.4;" xml:space="preserve">
<style type="text/css">
	.st0{clip-path:url(#SVGID_2_);}
	.st1{fill:none;stroke:#FF6D1F;stroke-width:1.6;stroke-miterlimit:10;}
</style>
<title>num-02-sla</title>
<g id="レイヤー_2">
	<g id="design">
		<g>
			<defs>
				<path id="SVGID_1_" d="M27.1,90.4C12.6,90.4,0,80.9,0,63.9V26.5C0,9.5,12.6,0,27.1,0s27,9.5,27,26.5v37.4
					C54.1,80.9,41.6,90.4,27.1,90.4z M37.8,26.7c0-7.5-4.4-12.1-10.7-12.1s-10.9,4.6-10.9,12.1v37.1c0,7.5,4.5,12,10.9,12
					s10.7-4.5,10.7-12V26.7z M68.3,89.6V75l33.2-38.6c3.2-3.9,4.6-6.6,4.6-10.7c0-6.6-3.9-11.1-10.7-11.1c-5.4,0-10.9,2.8-10.9,11.4
					H68.3c0-16.2,11.9-26,27.1-26c15.7,0,27,9.9,27,25.8c0,8.6-3.4,13.2-9.5,20.3L88,75h34.4v14.6H68.3z"/>
			</defs>
			<clipPath id="SVGID_2_">
				<use xlink:href="#SVGID_1_"  style="overflow:visible;"/>
			</clipPath>
			<g class="st0">
				<line class="st1" x1="83.6" y1="-78.4" x2="-79" y2="84.2"/>
				<line class="st1" x1="87" y1="-74.9" x2="-75.6" y2="87.6"/>
				<line class="st1" x1="90.5" y1="-71.5" x2="-72.1" y2="91.1"/>
				<line class="st1" x1="94" y1="-68" x2="-68.6" y2="94.6"/>
				<line class="st1" x1="97.4" y1="-64.6" x2="-65.2" y2="98"/>
				<line class="st1" x1="100.9" y1="-61.1" x2="-61.7" y2="101.5"/>
				<line class="st1" x1="104.3" y1="-57.7" x2="-58.3" y2="104.9"/>
				<line class="st1" x1="107.8" y1="-54.2" x2="-54.8" y2="108.4"/>
				<line class="st1" x1="111.2" y1="-50.8" x2="-51.4" y2="111.8"/>
				<line class="st1" x1="114.7" y1="-47.3" x2="-47.9" y2="115.3"/>
				<line class="st1" x1="118.1" y1="-43.8" x2="-44.5" y2="118.8"/>
				<line class="st1" x1="121.6" y1="-40.4" x2="-41" y2="122.2"/>
				<line class="st1" x1="125" y1="-36.9" x2="-37.5" y2="125.7"/>
				<line class="st1" x1="128.5" y1="-33.5" x2="-34.1" y2="129.1"/>
				<line class="st1" x1="132" y1="-30" x2="-30.6" y2="132.6"/>
				<line class="st1" x1="135.4" y1="-26.6" x2="-27.2" y2="136"/>
				<line class="st1" x1="138.9" y1="-23.1" x2="-23.7" y2="139.5"/>
				<line class="st1" x1="142.3" y1="-19.7" x2="-20.3" y2="142.9"/>
				<line class="st1" x1="145.8" y1="-16.2" x2="-16.8" y2="146.4"/>
				<line class="st1" x1="149.2" y1="-12.7" x2="-13.3" y2="149.8"/>
				<line class="st1" x1="152.7" y1="-9.3" x2="-9.9" y2="153.3"/>
				<line class="st1" x1="156.1" y1="-5.8" x2="-6.4" y2="156.8"/>
				<line class="st1" x1="159.6" y1="-2.4" x2="-3" y2="160.2"/>
				<line class="st1" x1="163.1" y1="1.1" x2="0.5" y2="163.7"/>
				<line class="st1" x1="166.5" y1="4.5" x2="3.9" y2="167.1"/>
				<line class="st1" x1="170" y1="8" x2="7.4" y2="170.6"/>
				<line class="st1" x1="173.4" y1="11.4" x2="10.8" y2="174"/>
				<line class="st1" x1="176.9" y1="14.9" x2="14.3" y2="177.5"/>
				<line class="st1" x1="180.3" y1="18.4" x2="17.8" y2="180.9"/>
				<line class="st1" x1="183.8" y1="21.8" x2="21.2" y2="184.4"/>
				<line class="st1" x1="187.3" y1="25.3" x2="24.7" y2="187.9"/>
				<line class="st1" x1="190.7" y1="28.7" x2="28.1" y2="191.3"/>
			</g>
		</g>
	</g>
</g>
</svg>
