<?xml version="1.0" encoding="utf-8"?>
<!-- Generator: Adobe Illustrator 21.0.2, SVG Export Plug-In . SVG Version: 6.00 Build 0)  -->
<svg version="1.1" id="レイヤー_1" xmlns="http://www.w3.org/2000/svg" xmlns:xlink="http://www.w3.org/1999/xlink" x="0px"
	 y="0px" viewBox="0 0 122.6 90.4" style="enable-background:new 0 0 122.6 90.4;" xml:space="preserve">
<style type="text/css">
	.st0{clip-path:url(#SVGID_2_);}
	.st1{fill:none;stroke:#FF6D1F;stroke-width:1.6;stroke-miterlimit:10;}
</style>
<title>num-05-sla</title>
<g id="レイヤー_2">
	<g id="design">
		<g>
			<defs>
				<path id="SVGID_1_" d="M27.1,90.4C12.6,90.4,0,80.9,0,63.9V26.5C0,9.5,12.6,0,27.1,0s27,9.5,27,26.5v37.4
					C54,80.9,41.5,90.4,27.1,90.4z M37.8,26.7c0-7.5-4.4-12.1-10.7-12.1s-10.9,4.6-10.9,12.1v37.1c0,7.5,4.5,12,10.9,12
					s10.7-4.5,10.7-12V26.7z M114.7,83.1c-4,4-10.4,7.2-19.6,7.2s-16-3.2-19.9-7.1c-5.5-5.5-6.7-12-7.2-18.5h16.2
					c0.9,7,4.1,11,10.9,11c2.9,0.1,5.7-0.9,7.7-2.9c2.9-2.9,3.5-7.6,3.5-13.2c0-10.2-3-16-10.9-16c-6.6,0-9.6,3.7-10.7,7.2H69.9V0.8
					h50.7v14.6h-36v19.1C87,32.2,92,30,97.9,30c7.4,0,13,2.4,16.6,6c7,7,8,15.4,8,23.7C122.6,69.6,121.2,76.6,114.7,83.1L114.7,83.1
					z"/>
			</defs>
			<clipPath id="SVGID_2_">
				<use xlink:href="#SVGID_1_"  style="overflow:visible;"/>
			</clipPath>
			<g class="st0">
				<line class="st1" x1="100.2" y1="-95.6" x2="-62.4" y2="67"/>
				<line class="st1" x1="103.6" y1="-92.1" x2="-59" y2="70.5"/>
				<line class="st1" x1="107.1" y1="-88.7" x2="-55.5" y2="73.9"/>
				<line class="st1" x1="110.5" y1="-85.2" x2="-52.1" y2="77.4"/>
				<line class="st1" x1="114" y1="-81.8" x2="-48.6" y2="80.8"/>
				<line class="st1" x1="117.4" y1="-78.3" x2="-45.2" y2="84.3"/>
				<line class="st1" x1="120.9" y1="-74.8" x2="-41.7" y2="87.8"/>
				<line class="st1" x1="124.4" y1="-71.4" x2="-38.2" y2="91.2"/>
				<line class="st1" x1="127.8" y1="-67.9" x2="-34.8" y2="94.7"/>
				<line class="st1" x1="131.3" y1="-64.5" x2="-31.3" y2="98.1"/>
				<line class="st1" x1="134.7" y1="-61" x2="-27.9" y2="101.6"/>
				<line class="st1" x1="138.2" y1="-57.6" x2="-24.4" y2="105"/>
				<line class="st1" x1="141.6" y1="-54.1" x2="-21" y2="108.5"/>
				<line class="st1" x1="145.1" y1="-50.6" x2="-17.5" y2="111.9"/>
				<line class="st1" x1="148.5" y1="-47.2" x2="-14.1" y2="115.4"/>
				<line class="st1" x1="152" y1="-43.7" x2="-10.6" y2="118.9"/>
				<line class="st1" x1="155.4" y1="-40.3" x2="-7.2" y2="122.3"/>
				<line class="st1" x1="158.9" y1="-36.8" x2="-3.7" y2="125.8"/>
				<line class="st1" x1="162.4" y1="-33.4" x2="-0.2" y2="129.2"/>
				<line class="st1" x1="165.8" y1="-29.9" x2="3.2" y2="132.7"/>
				<line class="st1" x1="169.3" y1="-26.5" x2="6.7" y2="136.1"/>
				<line class="st1" x1="172.7" y1="-23" x2="10.1" y2="139.6"/>
				<line class="st1" x1="176.2" y1="-19.6" x2="13.6" y2="143"/>
				<line class="st1" x1="179.6" y1="-16.1" x2="17" y2="146.5"/>
				<line class="st1" x1="183.1" y1="-12.6" x2="20.5" y2="149.9"/>
				<line class="st1" x1="186.6" y1="-9.2" x2="23.9" y2="153.4"/>
				<line class="st1" x1="190" y1="-5.7" x2="27.4" y2="156.9"/>
				<line class="st1" x1="193.5" y1="-2.3" x2="30.9" y2="160.3"/>
				<line class="st1" x1="196.9" y1="1.2" x2="34.3" y2="163.8"/>
				<line class="st1" x1="200.4" y1="4.6" x2="37.8" y2="167.2"/>
				<line class="st1" x1="203.8" y1="8.1" x2="41.2" y2="170.7"/>
				<line class="st1" x1="207.3" y1="11.6" x2="44.7" y2="174.1"/>
			</g>
		</g>
	</g>
</g>
</svg>
