<?xml version="1.0" encoding="utf-8"?>
<!-- Generator: Adobe Illustrator 21.0.2, SVG Export Plug-In . SVG Version: 6.00 Build 0)  -->
<svg version="1.1" id="レイヤー_1" xmlns="http://www.w3.org/2000/svg" xmlns:xlink="http://www.w3.org/1999/xlink" x="0px"
	 y="0px" viewBox="0 0 108.1 90.4" style="enable-background:new 0 0 108.1 90.4;" xml:space="preserve">
<style type="text/css">
	.st0{clip-path:url(#SVGID_2_);}
	.st1{fill:none;stroke:#FF6D1F;stroke-width:1.6;stroke-miterlimit:10;}
</style>
<title>num-01-sla</title>
<g id="レイヤー_2">
	<g id="mouse_over">
		<g>
			<defs>
				<path id="SVGID_1_" d="M27.1,90.4C12.6,90.4,0,80.9,0,63.9V26.5C0,9.5,12.6,0,27.1,0s27,9.5,27,26.5v37.4
					C54.1,80.9,41.6,90.4,27.1,90.4z M37.8,26.7c0-7.5-4.4-12.1-10.7-12.1s-10.9,4.6-10.9,12.1v37.1c0,7.5,4.5,12,10.9,12
					s10.7-4.5,10.7-12V26.7z M91.9,89.6V18.2L73.8,34V16.5L91.9,0.8h16.2v88.9H91.9z"/>
			</defs>
			<clipPath id="SVGID_2_">
				<use xlink:href="#SVGID_1_"  style="overflow:visible;"/>
			</clipPath>
			<g class="st0">
				<line class="st1" x1="89.9" y1="-89.9" x2="-72.7" y2="72.7"/>
				<line class="st1" x1="93.3" y1="-86.4" x2="-69.3" y2="76.2"/>
				<line class="st1" x1="96.8" y1="-83" x2="-65.8" y2="79.6"/>
				<line class="st1" x1="100.2" y1="-79.5" x2="-62.3" y2="83.1"/>
				<line class="st1" x1="103.7" y1="-76.1" x2="-58.9" y2="86.5"/>
				<line class="st1" x1="107.2" y1="-72.6" x2="-55.4" y2="90"/>
				<line class="st1" x1="110.6" y1="-69.2" x2="-52" y2="93.4"/>
				<line class="st1" x1="114.1" y1="-65.7" x2="-48.5" y2="96.9"/>
				<line class="st1" x1="117.5" y1="-62.2" x2="-45.1" y2="100.3"/>
				<line class="st1" x1="121" y1="-58.8" x2="-41.6" y2="103.8"/>
				<line class="st1" x1="124.4" y1="-55.3" x2="-38.2" y2="107.3"/>
				<line class="st1" x1="127.9" y1="-51.9" x2="-34.7" y2="110.7"/>
				<line class="st1" x1="131.3" y1="-48.4" x2="-31.2" y2="114.2"/>
				<line class="st1" x1="134.8" y1="-45" x2="-27.8" y2="117.6"/>
				<line class="st1" x1="138.3" y1="-41.5" x2="-24.3" y2="121.1"/>
				<line class="st1" x1="141.7" y1="-38.1" x2="-20.9" y2="124.5"/>
				<line class="st1" x1="145.2" y1="-34.6" x2="-17.4" y2="128"/>
				<line class="st1" x1="148.6" y1="-31.1" x2="-14" y2="131.4"/>
				<line class="st1" x1="152.1" y1="-27.7" x2="-10.5" y2="134.9"/>
				<line class="st1" x1="155.5" y1="-24.2" x2="-7.1" y2="138.4"/>
				<line class="st1" x1="159" y1="-20.8" x2="-3.6" y2="141.8"/>
				<line class="st1" x1="162.4" y1="-17.3" x2="-0.2" y2="145.3"/>
				<line class="st1" x1="165.9" y1="-13.9" x2="3.3" y2="148.7"/>
				<line class="st1" x1="169.4" y1="-10.4" x2="6.8" y2="152.2"/>
				<line class="st1" x1="172.8" y1="-7" x2="10.2" y2="155.6"/>
				<line class="st1" x1="176.3" y1="-3.5" x2="13.7" y2="159.1"/>
				<line class="st1" x1="179.7" y1="0" x2="17.1" y2="162.5"/>
				<line class="st1" x1="183.2" y1="3.4" x2="20.6" y2="166"/>
				<line class="st1" x1="186.6" y1="6.9" x2="24" y2="169.5"/>
				<line class="st1" x1="190.1" y1="10.3" x2="27.5" y2="172.9"/>
				<line class="st1" x1="193.5" y1="13.8" x2="31" y2="176.4"/>
				<line class="st1" x1="197" y1="17.2" x2="34.4" y2="179.8"/>
			</g>
		</g>
	</g>
</g>
</svg>
