<?xml version="1.0" encoding="utf-8"?>
<!-- Generator: Adobe Illustrator 21.0.2, SVG Export Plug-In . SVG Version: 6.00 Build 0)  -->
<svg version="1.1" id="レイヤー_1" xmlns="http://www.w3.org/2000/svg" xmlns:xlink="http://www.w3.org/1999/xlink" x="0px"
	 y="0px" viewBox="0 0 122.4 90.4" style="enable-background:new 0 0 122.4 90.4;" xml:space="preserve">
<style type="text/css">
	.st0{clip-path:url(#SVGID_2_);}
	.st1{fill:none;stroke:#FF6D1F;stroke-width:1.6;stroke-miterlimit:10;}
</style>
<title>num-06-sla</title>
<g id="レイヤー_2">
	<g id="design">
		<g>
			<defs>
				<path id="SVGID_1_" d="M27.1,90.4C12.6,90.4,0,80.9,0,63.9V26.5C0,9.5,12.6,0,27.1,0s27,9.5,27,26.5v37.4
					C54.1,80.9,41.6,90.4,27.1,90.4z M37.8,26.7c0-7.5-4.4-12.1-10.7-12.1s-10.9,4.6-10.9,12.1v37.1c0,7.5,4.5,12,10.9,12
					s10.7-4.5,10.7-12V26.7z M94.7,90.4c-15.7,0-27.7-9.9-27.7-27.5c0-8.1,3.5-15.6,7.5-23.7L93.2,0.8h17.7L92.4,37.4
					c2.1-0.8,4.4-1.2,6.6-1.1c12,0,23.4,9.9,23.4,26.3C122.4,80.1,110.4,90.4,94.7,90.4z M94.7,49.8c-6.6,0-11.5,4.7-11.5,13
					s4.9,13,11.5,13s11.5-4.7,11.5-13C106.1,54.9,101.5,49.8,94.7,49.8z"/>
			</defs>
			<clipPath id="SVGID_2_">
				<use xlink:href="#SVGID_1_"  style="overflow:visible;"/>
			</clipPath>
			<g class="st0">
				<line class="st1" x1="94.5" y1="-95.6" x2="-68.1" y2="67"/>
				<line class="st1" x1="98" y1="-92.1" x2="-64.6" y2="70.5"/>
				<line class="st1" x1="101.4" y1="-88.7" x2="-61.2" y2="73.9"/>
				<line class="st1" x1="104.9" y1="-85.2" x2="-57.7" y2="77.4"/>
				<line class="st1" x1="108.3" y1="-81.8" x2="-54.2" y2="80.8"/>
				<line class="st1" x1="111.8" y1="-78.3" x2="-50.8" y2="84.3"/>
				<line class="st1" x1="115.2" y1="-74.8" x2="-47.3" y2="87.8"/>
				<line class="st1" x1="118.7" y1="-71.4" x2="-43.9" y2="91.2"/>
				<line class="st1" x1="122.2" y1="-67.9" x2="-40.4" y2="94.7"/>
				<line class="st1" x1="125.6" y1="-64.5" x2="-37" y2="98.1"/>
				<line class="st1" x1="129.1" y1="-61" x2="-33.5" y2="101.6"/>
				<line class="st1" x1="132.5" y1="-57.6" x2="-30.1" y2="105"/>
				<line class="st1" x1="136" y1="-54.1" x2="-26.6" y2="108.5"/>
				<line class="st1" x1="139.4" y1="-50.6" x2="-23.1" y2="111.9"/>
				<line class="st1" x1="142.9" y1="-47.2" x2="-19.7" y2="115.4"/>
				<line class="st1" x1="146.4" y1="-43.7" x2="-16.2" y2="118.9"/>
				<line class="st1" x1="149.8" y1="-40.3" x2="-12.8" y2="122.3"/>
				<line class="st1" x1="153.3" y1="-36.8" x2="-9.3" y2="125.8"/>
				<line class="st1" x1="156.7" y1="-33.4" x2="-5.9" y2="129.2"/>
				<line class="st1" x1="160.2" y1="-29.9" x2="-2.4" y2="132.7"/>
				<line class="st1" x1="163.6" y1="-26.5" x2="1" y2="136.1"/>
				<line class="st1" x1="167.1" y1="-23" x2="4.5" y2="139.6"/>
				<line class="st1" x1="170.5" y1="-19.6" x2="7.9" y2="143"/>
				<line class="st1" x1="174" y1="-16.1" x2="11.4" y2="146.5"/>
				<line class="st1" x1="177.4" y1="-12.6" x2="14.9" y2="149.9"/>
				<line class="st1" x1="180.9" y1="-9.2" x2="18.3" y2="153.4"/>
				<line class="st1" x1="184.4" y1="-5.7" x2="21.8" y2="156.9"/>
				<line class="st1" x1="187.8" y1="-2.3" x2="25.2" y2="160.3"/>
				<line class="st1" x1="191.3" y1="1.2" x2="28.7" y2="163.8"/>
				<line class="st1" x1="194.7" y1="4.6" x2="32.1" y2="167.2"/>
				<line class="st1" x1="198.2" y1="8.1" x2="35.6" y2="170.7"/>
				<line class="st1" x1="201.6" y1="11.6" x2="39.1" y2="174.1"/>
			</g>
		</g>
	</g>
</g>
</svg>
