<?xml version="1.0" encoding="utf-8"?>
<!-- Generator: Adobe Illustrator 21.0.2, SVG Export Plug-In . SVG Version: 6.00 Build 0)  -->
<svg version="1.1" id="レイヤー_1" xmlns="http://www.w3.org/2000/svg" xmlns:xlink="http://www.w3.org/1999/xlink" x="0px"
	 y="0px" viewBox="0 0 124.9 90.4" style="enable-background:new 0 0 124.9 90.4;" xml:space="preserve">
<style type="text/css">
	.st0{clip-path:url(#SVGID_2_);}
	.st1{fill:none;stroke:#FF6D1F;stroke-width:1.6;stroke-miterlimit:10;}
</style>
<title>num-04-sla</title>
<g id="レイヤー_2">
	<g id="design">
		<g>
			<defs>
				<path id="SVGID_1_" d="M27.1,90.4C12.6,90.4,0,80.9,0,63.9V26.5C0,9.5,12.6,0,27.1,0s27,9.5,27,26.5v37.4
					C54.1,80.9,41.6,90.4,27.1,90.4z M37.8,26.7c0-7.5-4.4-12.1-10.7-12.1s-10.9,4.6-10.9,12.1v37.1c0,7.5,4.5,12,10.9,12
					s10.7-4.5,10.7-12L37.8,26.7z M116.8,77v12.6h-15.6V77H64.8V61.7L95.3,0.8H113L82.5,61.7h18.6V45.1h15.6v16.6h8.1V77H116.8z"/>
			</defs>
			<clipPath id="SVGID_2_">
				<use xlink:href="#SVGID_1_"  style="overflow:visible;"/>
			</clipPath>
			<g class="st0">
				<line class="st1" x1="84.6" y1="-78.4" x2="-78" y2="84.2"/>
				<line class="st1" x1="88" y1="-75" x2="-74.6" y2="87.6"/>
				<line class="st1" x1="91.5" y1="-71.5" x2="-71.1" y2="91.1"/>
				<line class="st1" x1="95" y1="-68.1" x2="-67.6" y2="94.5"/>
				<line class="st1" x1="98.4" y1="-64.6" x2="-64.2" y2="98"/>
				<line class="st1" x1="101.9" y1="-61.1" x2="-60.7" y2="101.5"/>
				<line class="st1" x1="105.3" y1="-57.7" x2="-57.3" y2="104.9"/>
				<line class="st1" x1="108.8" y1="-54.2" x2="-53.8" y2="108.4"/>
				<line class="st1" x1="112.2" y1="-50.8" x2="-50.4" y2="111.8"/>
				<line class="st1" x1="115.7" y1="-47.3" x2="-46.9" y2="115.3"/>
				<line class="st1" x1="119.1" y1="-43.9" x2="-43.5" y2="118.7"/>
				<line class="st1" x1="122.6" y1="-40.4" x2="-40" y2="122.2"/>
				<line class="st1" x1="126.1" y1="-37" x2="-36.5" y2="125.6"/>
				<line class="st1" x1="129.5" y1="-33.5" x2="-33.1" y2="129.1"/>
				<line class="st1" x1="133" y1="-30" x2="-29.6" y2="132.5"/>
				<line class="st1" x1="136.4" y1="-26.6" x2="-26.2" y2="136"/>
				<line class="st1" x1="139.9" y1="-23.1" x2="-22.7" y2="139.5"/>
				<line class="st1" x1="143.3" y1="-19.7" x2="-19.3" y2="142.9"/>
				<line class="st1" x1="146.8" y1="-16.2" x2="-15.8" y2="146.4"/>
				<line class="st1" x1="150.2" y1="-12.8" x2="-12.3" y2="149.8"/>
				<line class="st1" x1="153.7" y1="-9.3" x2="-8.9" y2="153.3"/>
				<line class="st1" x1="157.2" y1="-5.9" x2="-5.4" y2="156.7"/>
				<line class="st1" x1="160.6" y1="-2.4" x2="-2" y2="160.2"/>
				<line class="st1" x1="164.1" y1="1.1" x2="1.5" y2="163.6"/>
				<line class="st1" x1="167.5" y1="4.5" x2="4.9" y2="167.1"/>
				<line class="st1" x1="171" y1="8" x2="8.4" y2="170.6"/>
				<line class="st1" x1="174.4" y1="11.4" x2="11.8" y2="174"/>
				<line class="st1" x1="177.9" y1="14.9" x2="15.3" y2="177.5"/>
				<line class="st1" x1="181.3" y1="18.3" x2="18.8" y2="180.9"/>
				<line class="st1" x1="184.8" y1="21.8" x2="22.2" y2="184.4"/>
				<line class="st1" x1="188.3" y1="25.2" x2="25.7" y2="187.8"/>
				<line class="st1" x1="191.7" y1="28.7" x2="29.1" y2="191.3"/>
			</g>
		</g>
	</g>
</g>
</svg>
