<?xml version="1.0" encoding="utf-8"?>
<!-- Generator: Adobe Illustrator 21.0.2, SVG Export Plug-In . SVG Version: 6.00 Build 0)  -->
<svg version="1.1" id="レイヤー_1" xmlns="http://www.w3.org/2000/svg" xmlns:xlink="http://www.w3.org/1999/xlink" x="0px"
	 y="0px" viewBox="0 0 123.8 90.4" style="enable-background:new 0 0 123.8 90.4;" xml:space="preserve">
<style type="text/css">
	.st0{clip-path:url(#SVGID_2_);}
	.st1{fill:none;stroke:#FF6D1F;stroke-width:1.6;stroke-miterlimit:10;}
</style>
<title>num-07-sla</title>
<g id="レイヤー_2">
	<g id="design">
		<g>
			<defs>
				<path id="SVGID_1_" d="M27.1,90.4C12.6,90.4,0,80.9,0,63.9V26.5C0,9.5,12.6,0,27.1,0s27,9.5,27,26.5v37.4
					C54.1,80.9,41.6,90.4,27.1,90.4z M37.8,26.7c0-7.5-4.4-12.1-10.7-12.1s-10.9,4.6-10.9,12.1v37.1c0,7.5,4.5,12,10.9,12
					s10.7-4.5,10.7-12V26.7z M94.9,89.6H77.3l28.9-74.3H82.7v14H67.2V0.8h56.6v14.6L94.9,89.6z"/>
			</defs>
			<clipPath id="SVGID_2_">
				<use xlink:href="#SVGID_1_"  style="overflow:visible;"/>
			</clipPath>
			<g class="st0">
				<line class="st1" x1="88.8" y1="-95.6" x2="-73.8" y2="67"/>
				<line class="st1" x1="92.3" y1="-92.1" x2="-70.3" y2="70.5"/>
				<line class="st1" x1="95.8" y1="-88.7" x2="-66.8" y2="73.9"/>
				<line class="st1" x1="99.2" y1="-85.2" x2="-63.4" y2="77.4"/>
				<line class="st1" x1="102.7" y1="-81.8" x2="-59.9" y2="80.8"/>
				<line class="st1" x1="106.1" y1="-78.3" x2="-56.5" y2="84.3"/>
				<line class="st1" x1="109.6" y1="-74.8" x2="-53" y2="87.8"/>
				<line class="st1" x1="113" y1="-71.4" x2="-49.6" y2="91.2"/>
				<line class="st1" x1="116.5" y1="-67.9" x2="-46.1" y2="94.7"/>
				<line class="st1" x1="119.9" y1="-64.5" x2="-42.7" y2="98.1"/>
				<line class="st1" x1="123.4" y1="-61" x2="-39.2" y2="101.6"/>
				<line class="st1" x1="126.8" y1="-57.6" x2="-35.7" y2="105"/>
				<line class="st1" x1="130.3" y1="-54.1" x2="-32.3" y2="108.5"/>
				<line class="st1" x1="133.8" y1="-50.6" x2="-28.8" y2="111.9"/>
				<line class="st1" x1="137.2" y1="-47.2" x2="-25.4" y2="115.4"/>
				<line class="st1" x1="140.7" y1="-43.7" x2="-21.9" y2="118.9"/>
				<line class="st1" x1="144.1" y1="-40.3" x2="-18.5" y2="122.3"/>
				<line class="st1" x1="147.6" y1="-36.8" x2="-15" y2="125.8"/>
				<line class="st1" x1="151" y1="-33.4" x2="-11.5" y2="129.2"/>
				<line class="st1" x1="154.5" y1="-29.9" x2="-8.1" y2="132.7"/>
				<line class="st1" x1="158" y1="-26.5" x2="-4.6" y2="136.1"/>
				<line class="st1" x1="161.4" y1="-23" x2="-1.2" y2="139.6"/>
				<line class="st1" x1="164.9" y1="-19.6" x2="2.3" y2="143"/>
				<line class="st1" x1="168.3" y1="-16.1" x2="5.7" y2="146.5"/>
				<line class="st1" x1="171.8" y1="-12.6" x2="9.2" y2="149.9"/>
				<line class="st1" x1="175.2" y1="-9.2" x2="12.6" y2="153.4"/>
				<line class="st1" x1="178.7" y1="-5.7" x2="16.1" y2="156.9"/>
				<line class="st1" x1="182.1" y1="-2.3" x2="19.6" y2="160.3"/>
				<line class="st1" x1="185.6" y1="1.2" x2="23" y2="163.8"/>
				<line class="st1" x1="189" y1="4.6" x2="26.5" y2="167.2"/>
				<line class="st1" x1="192.5" y1="8.1" x2="29.9" y2="170.7"/>
				<line class="st1" x1="196" y1="11.6" x2="33.4" y2="174.1"/>
			</g>
		</g>
	</g>
</g>
</svg>
