<?xml version="1.0" encoding="utf-8"?>
<!-- Generator: Adobe Illustrator 21.0.2, SVG Export Plug-In . SVG Version: 6.00 Build 0)  -->
<svg version="1.1" id="レイヤー_1" xmlns="http://www.w3.org/2000/svg" xmlns:xlink="http://www.w3.org/1999/xlink" x="0px"
	 y="0px" viewBox="0 0 122.8 90.4" style="enable-background:new 0 0 122.8 90.4;" xml:space="preserve">
<style type="text/css">
	.st0{clip-path:url(#SVGID_2_);}
	.st1{fill:none;stroke:#FF6D1F;stroke-width:1.6;stroke-miterlimit:10;}
</style>
<title>num-03-sla</title>
<g id="レイヤー_2">
	<g id="design">
		<g>
			<defs>
				<path id="SVGID_1_" d="M27.1,90.4C12.6,90.4,0,80.9,0,63.9V26.5C0,9.5,12.6,0,27.1,0s27,9.5,27,26.5v37.4
					C54.1,80.9,41.6,90.4,27.1,90.4z M37.8,26.7c0-7.5-4.4-12.1-10.7-12.1s-10.9,4.6-10.9,12.1v37.1c0,7.5,4.5,12,10.9,12
					s10.7-4.5,10.7-12V26.7z M94.5,90.4c-14.5,0-28.1-7.6-28.4-26.2h16.2c0.2,8,5.7,11.6,12.1,11.6c7,0,12-4.4,12-12.4
					c0-7.4-4.5-12.2-12.5-12.2h-2.4V37.1H94c7.9,0,11.2-4.9,11.2-11.1c0-7.5-5-11.4-10.9-11.4c-6.1,0-10.6,4-11,10.7H67.2
					C67.6,9.5,79.4,0,94.4,0c15.7,0,27.1,10.5,27.1,25.5c0,9.6-4.4,15.1-10.2,18.2c6.4,3.3,11.5,9.5,11.5,20.2
					C122.8,81.6,109.8,90.4,94.5,90.4L94.5,90.4z"/>
			</defs>
			<clipPath id="SVGID_2_">
				<use xlink:href="#SVGID_1_"  style="overflow:visible;"/>
			</clipPath>
			<g class="st0">
				<line class="st1" x1="73.9" y1="-78.4" x2="-88.7" y2="84.2"/>
				<line class="st1" x1="77.4" y1="-75" x2="-85.2" y2="87.6"/>
				<line class="st1" x1="80.8" y1="-71.5" x2="-81.8" y2="91.1"/>
				<line class="st1" x1="84.3" y1="-68.1" x2="-78.3" y2="94.5"/>
				<line class="st1" x1="87.7" y1="-64.6" x2="-74.8" y2="98"/>
				<line class="st1" x1="91.2" y1="-61.1" x2="-71.4" y2="101.5"/>
				<line class="st1" x1="94.7" y1="-57.7" x2="-67.9" y2="104.9"/>
				<line class="st1" x1="98.1" y1="-54.2" x2="-64.5" y2="108.4"/>
				<line class="st1" x1="101.6" y1="-50.8" x2="-61" y2="111.8"/>
				<line class="st1" x1="105" y1="-47.3" x2="-57.6" y2="115.3"/>
				<line class="st1" x1="108.5" y1="-43.9" x2="-54.1" y2="118.7"/>
				<line class="st1" x1="111.9" y1="-40.4" x2="-50.7" y2="122.2"/>
				<line class="st1" x1="115.4" y1="-37" x2="-47.2" y2="125.6"/>
				<line class="st1" x1="118.8" y1="-33.5" x2="-43.7" y2="129.1"/>
				<line class="st1" x1="122.3" y1="-30" x2="-40.3" y2="132.5"/>
				<line class="st1" x1="125.8" y1="-26.6" x2="-36.8" y2="136"/>
				<line class="st1" x1="129.2" y1="-23.1" x2="-33.4" y2="139.5"/>
				<line class="st1" x1="132.7" y1="-19.7" x2="-29.9" y2="142.9"/>
				<line class="st1" x1="136.1" y1="-16.2" x2="-26.5" y2="146.4"/>
				<line class="st1" x1="139.6" y1="-12.8" x2="-23" y2="149.8"/>
				<line class="st1" x1="143" y1="-9.3" x2="-19.6" y2="153.3"/>
				<line class="st1" x1="146.5" y1="-5.9" x2="-16.1" y2="156.7"/>
				<line class="st1" x1="149.9" y1="-2.4" x2="-12.6" y2="160.2"/>
				<line class="st1" x1="153.4" y1="1.1" x2="-9.2" y2="163.6"/>
				<line class="st1" x1="156.9" y1="4.5" x2="-5.7" y2="167.1"/>
				<line class="st1" x1="160.3" y1="8" x2="-2.3" y2="170.6"/>
				<line class="st1" x1="163.8" y1="11.4" x2="1.2" y2="174"/>
				<line class="st1" x1="167.2" y1="14.9" x2="4.6" y2="177.5"/>
				<line class="st1" x1="170.7" y1="18.3" x2="8.1" y2="180.9"/>
				<line class="st1" x1="174.1" y1="21.8" x2="11.5" y2="184.4"/>
				<line class="st1" x1="177.6" y1="25.2" x2="15" y2="187.8"/>
				<line class="st1" x1="181" y1="28.7" x2="18.5" y2="191.3"/>
			</g>
		</g>
	</g>
</g>
</svg>
