<svg xmlns="http://www.w3.org/2000/svg" xmlns:xlink="http://www.w3.org/1999/xlink" viewBox="0 0 270.85 270.85"><defs><style>.cls-1,.cls-3{fill:none;}.cls-2{clip-path:url(#clip-path);}.cls-3{stroke:#ff6d1f;stroke-miterlimit:10;stroke-width:1.6px;}</style><clipPath id="clip-path"><path class="cls-1" d="M90.06,186.5C75.57,186.5,63,177,63,160V122.6c0-17,12.61-26.46,27.1-26.46s27,9.48,27,26.46V160C117,177,104.54,186.5,90.06,186.5Zm10.74-63.65c0-7.49-4.37-12.11-10.74-12.11s-10.87,4.62-10.87,12.11v37.07c0,7.49,4.5,12,10.87,12s10.74-4.49,10.74-12Zm76.93,56.41c-4,4-10.36,7.24-19.61,7.24s-16-3.25-19.86-7.11c-5.49-5.49-6.74-12-7.24-18.47h16.23c.87,7,4.12,11,10.86,11a10.46,10.46,0,0,0,7.74-2.87c2.87-2.87,3.5-7.61,3.5-13.23,0-10.23-3-16-10.86-16-6.62,0-9.62,3.74-10.74,7.24H132.89V96.89h50.7v14.6h-36v19.09c2.37-2.25,7.37-4.49,13.36-4.49,7.37,0,13,2.37,16.61,6,7,7,8,15.35,8,23.71C185.59,165.78,184.22,172.77,177.72,179.26Z"/></clipPath></defs><title>num-05-sla</title><g id="レイヤー_2" data-name="レイヤー 2"><g id="design"><g class="cls-2"><line class="cls-3" x1="163.16" y1="0.57" x2="0.57" y2="163.16"/><line class="cls-3" x1="166.61" y1="4.02" x2="4.02" y2="166.61"/><line class="cls-3" x1="170.07" y1="7.48" x2="7.48" y2="170.07"/><line class="cls-3" x1="173.52" y1="10.93" x2="10.93" y2="173.52"/><line class="cls-3" x1="176.98" y1="14.39" x2="14.39" y2="176.98"/><line class="cls-3" x1="180.44" y1="17.84" x2="17.84" y2="180.44"/><line class="cls-3" x1="183.89" y1="21.3" x2="21.3" y2="183.89"/><line class="cls-3" x1="187.35" y1="24.76" x2="24.75" y2="187.35"/><line class="cls-3" x1="190.8" y1="28.21" x2="28.21" y2="190.8"/><line class="cls-3" x1="194.26" y1="31.67" x2="31.67" y2="194.26"/><line class="cls-3" x1="197.71" y1="35.12" x2="35.12" y2="197.71"/><line class="cls-3" x1="201.17" y1="38.58" x2="38.58" y2="201.17"/><line class="cls-3" x1="204.62" y1="42.03" x2="42.03" y2="204.62"/><line class="cls-3" x1="208.08" y1="45.49" x2="45.49" y2="208.08"/><line class="cls-3" x1="211.54" y1="48.94" x2="48.94" y2="211.54"/><line class="cls-3" x1="214.99" y1="52.4" x2="52.4" y2="214.99"/><line class="cls-3" x1="218.45" y1="55.85" x2="55.85" y2="218.45"/><line class="cls-3" x1="221.9" y1="59.31" x2="59.31" y2="221.9"/><line class="cls-3" x1="225.36" y1="62.77" x2="62.76" y2="225.36"/><line class="cls-3" x1="228.81" y1="66.22" x2="66.22" y2="228.81"/><line class="cls-3" x1="232.27" y1="69.68" x2="69.68" y2="232.27"/><line class="cls-3" x1="235.72" y1="73.13" x2="73.13" y2="235.72"/><line class="cls-3" x1="239.18" y1="76.59" x2="76.59" y2="239.18"/><line class="cls-3" x1="242.64" y1="80.04" x2="80.04" y2="242.64"/><line class="cls-3" x1="246.09" y1="83.5" x2="83.5" y2="246.09"/><line class="cls-3" x1="249.55" y1="86.96" x2="86.95" y2="249.55"/><line class="cls-3" x1="253" y1="90.41" x2="90.41" y2="253"/><line class="cls-3" x1="256.46" y1="93.87" x2="93.87" y2="256.46"/><line class="cls-3" x1="259.91" y1="97.32" x2="97.32" y2="259.91"/><line class="cls-3" x1="263.37" y1="100.78" x2="100.78" y2="263.37"/><line class="cls-3" x1="266.82" y1="104.23" x2="104.23" y2="266.83"/><line class="cls-3" x1="270.28" y1="107.69" x2="107.69" y2="270.28"/></g></g></g></svg>