<svg xmlns="http://www.w3.org/2000/svg" viewBox="0 0 583.14 55.28"><defs><style>.cls-1{fill:#fff;}</style></defs><title>wju-index</title><g id="レイヤー_2" data-name="レイヤー 2"><g id="design"><path class="cls-1" d="M12.3,54.89H9.81L0,.39H1.71l9.5,52.16L20.63.7h2.1l8.88,51.54L40.8.39h1.56L32.7,54.89H30.44L21.64,4.44Z"/><path class="cls-1" d="M75.75,28.42V54.89H74V.39h1.71V26.86h19.7V.39h1.71v54.5H95.45V28.42Z"/><path class="cls-1" d="M141.46,32.86,128.77.39h1.71L142.4,30.52,154.31.39h1.79L143.18,32.86v22h-1.71Z"/><path class="cls-1" d="M225.08,53.25a11.92,11.92,0,0,0,1.67,0q.82,0,1.6-.12,4.59-.39,6.7-3.08t2.1-8.45V.39h1.71V41.58q0,6.77-2.69,9.85a10.56,10.56,0,0,1-7.67,3.39c-.57.05-1.13.09-1.67.12a13.75,13.75,0,0,1-1.75,0Z"/><path class="cls-1" d="M270.63,13.78q0-6.85,2.92-10.32T282.15,0q5.84,0,8.76,3.46t2.92,10.32V41.5q0,6.85-2.92,10.32t-8.76,3.46q-5.69,0-8.6-3.46T270.63,41.5Zm1.71,27.79q0,12.15,9.81,12.15,10,0,10-12.15V13.7q0-12.15-10-12.15-9.81,0-9.81,12.15Z"/><path class="cls-1" d="M327.38.39v54.5h-1.71V.39Z"/><path class="cls-1" d="M360.94,54.89H359.3V.39h2.41l19.15,51V.39h1.63v54.5h-2.1l-19.46-52Z"/><path class="cls-1" d="M453.82,41.5a22.25,22.25,0,0,0,.47,4.67,11.27,11.27,0,0,0,1.6,3.89,8,8,0,0,0,3,2.69,11.15,11.15,0,0,0,9.11,0,8,8,0,0,0,3-2.69,11.31,11.31,0,0,0,1.6-3.89A22.25,22.25,0,0,0,473,41.5V.39h1.64v41a23.69,23.69,0,0,1-.58,5.33,12.3,12.3,0,0,1-1.91,4.4,9.71,9.71,0,0,1-3.46,3,12.8,12.8,0,0,1-10.51,0,10,10,0,0,1-3.5-3,11.92,11.92,0,0,1-1.95-4.4,23.69,23.69,0,0,1-.58-5.33V.39h1.71Z"/><path class="cls-1" d="M517.74,0A11.86,11.86,0,0,1,523,1.05,9.06,9.06,0,0,1,526.46,4a12.91,12.91,0,0,1,1.95,4.32,21.3,21.3,0,0,1,.62,5.25v1h-1.71V13.47a20.31,20.31,0,0,0-.51-4.59,11.54,11.54,0,0,0-1.6-3.81,7.59,7.59,0,0,0-2.92-2.57,9.76,9.76,0,0,0-4.48-.94,10,10,0,0,0-4.55.94,7.57,7.57,0,0,0-2.92,2.57,11.49,11.49,0,0,0-1.6,3.78,19.74,19.74,0,0,0-.51,4.55,10.68,10.68,0,0,0,1.56,5.92,18.91,18.91,0,0,0,3.85,4.32,43,43,0,0,0,5,3.58,38.53,38.53,0,0,1,5,3.66,18.73,18.73,0,0,1,3.85,4.59,12,12,0,0,1,1.56,6.27,21.77,21.77,0,0,1-.62,5.29,12,12,0,0,1-2,4.32A9.44,9.44,0,0,1,523,54.23a12.11,12.11,0,0,1-5.29,1.05,11.84,11.84,0,0,1-5.25-1.05,9.5,9.5,0,0,1-3.5-2.88,12,12,0,0,1-2-4.32,21.72,21.72,0,0,1-.62-5.29V39.08h1.63v2.72a20.08,20.08,0,0,0,.51,4.63,10.21,10.21,0,0,0,1.67,3.74,8.36,8.36,0,0,0,3,2.53,11.48,11.48,0,0,0,9.07,0,8.29,8.29,0,0,0,3-2.53,10.25,10.25,0,0,0,1.67-3.74,20.14,20.14,0,0,0,.51-4.63A10.54,10.54,0,0,0,525.84,36,19,19,0,0,0,522,31.65a40.4,40.4,0,0,0-5-3.54,34,34,0,0,1-5-3.66,19.34,19.34,0,0,1-3.85-4.63,12.16,12.16,0,0,1-1.56-6.35q0-6,2.65-9.69T517.74,0Z"/><path class="cls-1" d="M571.93,0a11.94,11.94,0,0,1,5.37,1.09,8.88,8.88,0,0,1,3.46,3,12.62,12.62,0,0,1,1.83,4.44,25.74,25.74,0,0,1,.54,5.41,13.85,13.85,0,0,1-.9,5.14,21.78,21.78,0,0,1-2.18,4.17,37.75,37.75,0,0,1-2.84,3.7,35.46,35.46,0,0,0-2.84,3.74,23.43,23.43,0,0,0-2.18,4.17,13.31,13.31,0,0,0-.9,5,10.38,10.38,0,0,0,.39,2.8h-1.56a11.91,11.91,0,0,1-.39-2.88,15,15,0,0,1,.86-5.26,19.77,19.77,0,0,1,2.18-4.24q1.32-1.95,2.8-3.74t2.8-3.7a20.35,20.35,0,0,0,2.18-4,13.24,13.24,0,0,0,.86-4.94A24.93,24.93,0,0,0,581,9.15a11.22,11.22,0,0,0-1.52-3.93,7.68,7.68,0,0,0-2.92-2.69,9.81,9.81,0,0,0-4.63-1,9.25,9.25,0,0,0-4.59,1.05,8.19,8.19,0,0,0-3,2.76,11.76,11.76,0,0,0-1.56,4,23,23,0,0,0-.47,4.67v3h-1.63V14.09a24.2,24.2,0,0,1,.58-5.37,13.17,13.17,0,0,1,1.87-4.48,9.58,9.58,0,0,1,3.43-3.08A11,11,0,0,1,571.93,0Zm-.23,48.66v6.23H570V48.66Z"/></g></g></svg>