<?xml version="1.0" encoding="utf-8"?>
<!-- Generator: Adobe Illustrator 21.0.2, SVG Export Plug-In . SVG Version: 6.00 Build 0)  -->
<svg version="1.1" id="レイヤー_1" xmlns="http://www.w3.org/2000/svg" xmlns:xlink="http://www.w3.org/1999/xlink" x="0px"
	 y="0px" viewBox="0 0 529.1 55.3" style="enable-background:new 0 0 529.1 55.3;" xml:space="preserve">
<style type="text/css">
	.st0{fill:#FFFFFF;}
</style>
<title>wju-index</title>
<g id="レイヤー_2">
	<g id="design">
		<path class="st0" d="M12.3,54.9H9.8L0,0.4h1.7l9.5,52.2l9.4-51.8h2.1l8.9,51.5l9.2-51.9h1.6l-9.7,54.5h-2.3L21.6,4.4L12.3,54.9z"
			/>
		<path class="st0" d="M75.8,28.4v26.5H74V0.4h1.7v26.5h19.7V0.4h1.7v54.5h-1.7V28.4H75.8z"/>
		<path class="st0" d="M141.5,32.9L128.8,0.4h1.7l11.9,30.1l11.9-30.1h1.8l-12.9,32.5v22h-1.7L141.5,32.9z"/>
		<path class="st0" d="M225.1,53.3c0.6,0,1.1,0,1.7,0c0.5,0,1.1,0,1.6-0.1c3.1-0.3,5.3-1.3,6.7-3.1c1.4-1.8,2.1-4.6,2.1-8.5V0.4h1.7
			v41.2c0,4.5-0.9,7.8-2.7,9.8c-2,2.1-4.8,3.4-7.7,3.4c-0.6,0-1.1,0.1-1.7,0.1c-0.6,0-1.2,0-1.8,0L225.1,53.3z"/>
		<path class="st0" d="M270.6,13.8c0-4.6,1-8,2.9-10.3c1.9-2.3,4.8-3.5,8.6-3.5c3.9,0,6.8,1.2,8.8,3.5c1.9,2.3,2.9,5.7,2.9,10.3
			v27.7c0,4.6-1,8-2.9,10.3c-1.9,2.3-4.9,3.5-8.8,3.5c-3.8,0-6.7-1.2-8.6-3.5c-1.9-2.3-2.9-5.7-2.9-10.3V13.8z M272.3,41.6
			c0,8.1,3.3,12.2,9.8,12.2c6.7,0,10-4,10-12.2V13.7c0-8.1-3.3-12.1-10-12.1c-6.5,0-9.8,4.1-9.8,12.1V41.6z"/>
		<path class="st0" d="M327.4,0.4v54.5h-1.7V0.4H327.4z"/>
		<path class="st0" d="M360.9,54.9h-1.6V0.4h2.4l19.1,51v-51h1.6v54.5h-2.1l-19.5-52L360.9,54.9z"/>
		<path class="st0" d="M453.8,41.5c0,1.6,0.1,3.1,0.5,4.7c0.3,1.4,0.8,2.7,1.6,3.9c0.8,1.1,1.8,2.1,3,2.7c2.9,1.3,6.2,1.3,9.1,0
			c1.2-0.6,2.2-1.6,3-2.7c0.8-1.2,1.3-2.5,1.6-3.9c0.3-1.5,0.4-3.1,0.4-4.7V0.4h1.6v41c0,1.8-0.2,3.6-0.6,5.3
			c-0.3,1.6-1,3.1-1.9,4.4c-0.9,1.3-2.1,2.3-3.5,3c-3.3,1.5-7.2,1.5-10.5,0c-1.4-0.7-2.6-1.7-3.5-3c-0.9-1.3-1.6-2.8-2-4.4
			c-0.4-1.7-0.6-3.5-0.6-5.3v-41h1.7L453.8,41.5z"/>
		<path class="st0" d="M517.7,0c1.8-0.1,3.6,0.3,5.3,1c1.4,0.7,2.6,1.7,3.5,3c0.9,1.3,1.6,2.8,2,4.3c0.4,1.7,0.6,3.5,0.6,5.2v1h-1.7
			v-1.1c0-1.5-0.2-3.1-0.5-4.6c-0.3-1.4-0.8-2.6-1.6-3.8c-0.7-1.1-1.7-2-2.9-2.6c-1.4-0.7-2.9-1-4.5-0.9c-1.6,0-3.1,0.3-4.5,0.9
			c-1.2,0.6-2.2,1.5-2.9,2.6c-0.8,1.2-1.3,2.4-1.6,3.8c-0.3,1.5-0.5,3-0.5,4.6c-0.1,2.1,0.5,4.1,1.6,5.9c1.1,1.6,2.4,3.1,3.8,4.3
			c1.6,1.3,3.2,2.5,5,3.6c1.8,1.1,3.4,2.3,5,3.7c1.5,1.3,2.8,2.9,3.8,4.6c1.1,1.9,1.6,4.1,1.6,6.3c0,1.8-0.2,3.6-0.6,5.3
			c-0.4,1.6-1.1,3-2,4.3c-0.9,1.2-2.1,2.2-3.4,2.9c-1.7,0.7-3.5,1.1-5.3,1c-1.8,0.1-3.6-0.3-5.2-1c-1.4-0.7-2.6-1.7-3.5-2.9
			c-0.9-1.3-1.6-2.8-2-4.3c-0.4-1.7-0.6-3.5-0.6-5.3v-2.7h1.6v2.7c0,1.6,0.2,3.1,0.5,4.6c0.3,1.3,0.9,2.6,1.7,3.7
			c0.8,1.1,1.8,1.9,3,2.5c2.9,1.2,6.2,1.2,9.1,0c1.2-0.6,2.2-1.5,3-2.5c0.8-1.1,1.4-2.4,1.7-3.7c0.3-1.5,0.5-3.1,0.5-4.6
			c0.1-2-0.5-4.1-1.6-5.8c-1-1.6-2.3-3.1-3.8-4.4c-1.6-1.3-3.2-2.5-5-3.5c-1.8-1.1-3.4-2.3-5-3.7c-1.5-1.3-2.8-2.9-3.9-4.6
			c-1.1-1.9-1.6-4.1-1.6-6.4c0-4,0.9-7.2,2.6-9.7S513.8,0.1,517.7,0z"/>
	</g>
</g>
</svg>
