<svg xmlns="http://www.w3.org/2000/svg" viewBox="0 0 178.64 57.94"><defs><style>.cls-1{fill:#fff;}</style></defs><title>certificate-index</title><g id="レイヤー_2" data-name="レイヤー 2"><g id="design"><g id="資格取得"><path class="cls-1" d="M8.54,5V6.41H7.31V4.87c0-2.1-.81-3.7-3-3.7s-3,1.6-3,3.7V15.06c0,2.1.81,3.67,3,3.67s3-1.57,3-3.67V10.84H4.7V9.66H8.54V15c0,2.83-1.23,5-4.23,5S.08,17.81.08,15V5c0-2.83,1.23-5,4.23-5S8.54,2.13,8.54,5Z"/><path class="cls-1" d="M22.93,9.24v1.18H17.58v8.18H24v1.18H16.3V.17H24V1.34H17.58v7.9Z"/><path class="cls-1" d="M35.11,19.77V1.34h-4V.17h9.27V1.34h-4V19.77Z"/><path class="cls-1" d="M66,5V6.58H64.74V4.87c0-2.1-.81-3.7-3-3.7s-3,1.6-3,3.7V15.06c0,2.1.81,3.67,3,3.67s3-1.57,3-3.67V12.74H66V15c0,2.83-1.23,5-4.23,5s-4.23-2.13-4.23-5V5c0-2.83,1.23-5,4.23-5S66,2.13,66,5Z"/><path class="cls-1" d="M80.3,9.24v1.18H75v8.18h6.44v1.18H73.67V.17h7.73V1.34H75v7.9Z"/><path class="cls-1" d="M93.18.17c3,0,4.2,1.65,4.2,4.42V6.3c0,2.3-.9,3.61-2.83,4.06,2,.45,2.83,1.88,2.83,4v3.05a4.4,4.4,0,0,0,.48,2.35H96.51a4.6,4.6,0,0,1-.42-2.35V14.34c0-2.6-1.43-3.33-3.67-3.33h-2v8.76H89.09V.17Zm-.73,9.66c2.3,0,3.64-.64,3.64-3.28V4.7c0-2.1-.81-3.36-2.94-3.36H90.38V9.83Z"/><path class="cls-1" d="M108.81,19.77V1.34h-4V.17h9.27V1.34h-4V19.77Z"/><path class="cls-1" d="M122.58.17v19.6h-1.29V.17Z"/><path class="cls-1" d="M136.78,9.72v1.18h-5.07v8.88h-1.29V.17h7.45V1.34h-6.16V9.72Z"/><path class="cls-1" d="M146.72.17v19.6h-1.29V.17Z"/><path class="cls-1" d="M161.19,9.24v1.18h-5.35v8.18h6.44v1.18h-7.73V.17h7.73V1.34h-6.44v7.9Z"/><path class="cls-1" d="M174.3.17c3,0,4.34,2,4.34,4.87V14.9c0,2.88-1.32,4.87-4.34,4.87H170V.17Zm0,18.42c2.18,0,3.08-1.48,3.08-3.64V5c0-2.16-.92-3.64-3.08-3.64h-3V18.59Z"/><path class="cls-1" d="M8.43,42.9v.42H7.2v-.5c0-2.07-.78-3.64-2.91-3.64s-2.91,1.54-2.91,3.61c0,4.76,7.08,4.84,7.08,10.25,0,2.83-1.23,4.9-4.23,4.9S0,55.86,0,53V52H1.23v1.09c0,2.1.81,3.61,3,3.61s3-1.51,3-3.61c0-4.7-7.08-4.79-7.08-10.25C.08,39.93,1.37,38,4.26,38S8.43,40.07,8.43,42.9Z"/><path class="cls-1" d="M17.36,53c0,2.1.78,3.72,2.94,3.72s2.94-1.62,2.94-3.72V38.17h1.2V53c0,2.8-1.18,5-4.17,5s-4.2-2.16-4.2-5V38.17h1.29Z"/><path class="cls-1" d="M36.32,38.17c3,0,4.2,1.9,4.2,4.76v2.13c0,3.11-1.43,4.65-4.54,4.65H33.54v8.06H32.26V38.17ZM36,48.53c2.27,0,3.25-1,3.25-3.39v-2.3c0-2.13-.73-3.5-2.91-3.5H33.54v9.18Z"/><path class="cls-1" d="M52.16,38.17c3,0,4.2,1.9,4.2,4.76v2.13c0,3.11-1.43,4.65-4.54,4.65H49.39v8.06H48.1V38.17Zm-.34,10.36c2.27,0,3.25-1,3.25-3.39v-2.3c0-2.13-.73-3.5-2.91-3.5H49.39v9.18Z"/><path class="cls-1" d="M63.87,43c0-2.86,1.32-5,4.28-5s4.34,2.1,4.34,5V53c0,2.86-1.32,5-4.34,5s-4.28-2.1-4.28-5Zm1.29,10.11c0,2.13.84,3.7,3,3.7s3.05-1.57,3.05-3.7V42.87c0-2.13-.87-3.7-3.05-3.7s-3,1.57-3,3.7Z"/><path class="cls-1" d="M84.31,38.17c3,0,4.2,1.65,4.2,4.42V44.3c0,2.3-.9,3.61-2.83,4.06,2,.45,2.83,1.88,2.83,4v3.05A4.4,4.4,0,0,0,89,57.77H87.64a4.6,4.6,0,0,1-.42-2.35V52.34c0-2.6-1.43-3.33-3.67-3.33h-2v8.76H80.22V38.17Zm-.73,9.66c2.3,0,3.64-.64,3.64-3.28V42.7c0-2.1-.81-3.36-2.94-3.36H81.51v8.48Z"/><path class="cls-1" d="M100,57.77V39.34H96V38.17h9.27v1.18h-4V57.77Z"/></g></g></g></svg>