<svg xmlns="http://www.w3.org/2000/svg" viewBox="0 0 191.21 57.94"><defs><style>.cls-1{fill:#fff;}</style></defs><title>text-highly</title><g id="レイヤー_2" data-name="レイヤー 2"><g id="design"><path class="cls-1" d="M1.46,10.56v9.21H.17V.17H1.46V9.38h6.1V.17H8.88v19.6H7.56V10.56Z"/><path class="cls-1" d="M18,.17v19.6H16.72V.17Z"/><path class="cls-1" d="M30,0a4.44,4.44,0,0,1,1.92.38,3.62,3.62,0,0,1,1.32,1A4.25,4.25,0,0,1,34,3a7.8,7.8,0,0,1,.24,2V6.41H33V4.87a6.58,6.58,0,0,0-.15-1.46,3.23,3.23,0,0,0-.52-1.18,2.51,2.51,0,0,0-.92-.78,3.5,3.5,0,0,0-2.74,0,2.5,2.5,0,0,0-.92.78,3.2,3.2,0,0,0-.52,1.18A6.52,6.52,0,0,0,27,4.87V15.06a6.52,6.52,0,0,0,.15,1.46,3.06,3.06,0,0,0,.52,1.16,2.55,2.55,0,0,0,.92.77,3.5,3.5,0,0,0,2.74,0,2.56,2.56,0,0,0,.92-.77,3.09,3.09,0,0,0,.52-1.16A6.58,6.58,0,0,0,33,15.06V10.84h-2.6V9.66h3.84V15A7.8,7.8,0,0,1,34,17a4.24,4.24,0,0,1-.76,1.57,3.61,3.61,0,0,1-1.32,1,5.06,5.06,0,0,1-3.84,0,3.61,3.61,0,0,1-1.32-1A4.21,4.21,0,0,1,26,17a7.76,7.76,0,0,1-.24-2V5A7.76,7.76,0,0,1,26,3a4.22,4.22,0,0,1,.76-1.57,3.62,3.62,0,0,1,1.32-1A4.45,4.45,0,0,1,30,0Z"/><path class="cls-1" d="M43.26,10.56v9.21H42V.17h1.29V9.38h6.1V.17h1.32v19.6H49.36V10.56Z"/><path class="cls-1" d="M58.52,19.77V.17h1.29V18.59H66v1.18Z"/><path class="cls-1" d="M75.79,12.24,71.4.17h1.34l3.75,10.3L80.25.17h1.26L77.08,12.24v7.53H75.79Z"/><path class="cls-1" d="M99.9,19.74H98.61L94.47,2.41V19.77H93.32V.17h1.85L99.29,17.5,103.37.17h1.85v19.6H104V2.35Z"/><path class="cls-1" d="M113,5a7.38,7.38,0,0,1,.25-2A4.4,4.4,0,0,1,114,1.41a3.6,3.6,0,0,1,1.33-1A4.54,4.54,0,0,1,117.26,0a4.64,4.64,0,0,1,1.95.38,3.69,3.69,0,0,1,1.36,1A4.28,4.28,0,0,1,121.35,3a7.38,7.38,0,0,1,.25,2V15a7.37,7.37,0,0,1-.25,2,4.27,4.27,0,0,1-.78,1.57,3.68,3.68,0,0,1-1.36,1,4.64,4.64,0,0,1-1.95.38,4.55,4.55,0,0,1-1.93-.38,3.59,3.59,0,0,1-1.33-1,4.39,4.39,0,0,1-.77-1.57,7.37,7.37,0,0,1-.25-2Zm1.29,10.11a4.75,4.75,0,0,0,.69,2.65,2.55,2.55,0,0,0,2.31,1.05,2.62,2.62,0,0,0,2.34-1.05,4.61,4.61,0,0,0,.71-2.65V4.87a4.61,4.61,0,0,0-.71-2.65,2.62,2.62,0,0,0-2.34-1.05A2.55,2.55,0,0,0,115,2.23a4.75,4.75,0,0,0-.69,2.65Z"/><path class="cls-1" d="M130.34.17l4,18.12,4-18.12h1.2l-4.26,19.6h-1.9L129,.17Z"/><path class="cls-1" d="M153.69,9.24v1.18h-5.35v8.18h6.44v1.18h-7.73V.17h7.73V1.34h-6.44v7.9Z"/><path class="cls-1" d="M168.05,15a6.71,6.71,0,0,0,.15,1.47,3.34,3.34,0,0,0,.5,1.19,2.38,2.38,0,0,0,.91.78,3.5,3.5,0,0,0,2.74,0,2.39,2.39,0,0,0,.91-.78,3.34,3.34,0,0,0,.5-1.19,6.71,6.71,0,0,0,.15-1.47V.17h1.2V15a8.07,8.07,0,0,1-.22,2,4.33,4.33,0,0,1-.73,1.57,3.43,3.43,0,0,1-1.3,1.05,5.06,5.06,0,0,1-3.84,0,3.44,3.44,0,0,1-1.3-1.05,4.51,4.51,0,0,1-.74-1.57,7.64,7.64,0,0,1-.24-2V.17h1.29Z"/><path class="cls-1" d="M187,.17a3.77,3.77,0,0,1,3.23,1.3,5.67,5.67,0,0,1,1,3.46V7.06a4.92,4.92,0,0,1-1.09,3.5,4.56,4.56,0,0,1-3.44,1.15h-2.44v8.06H183V.17Zm-.34,10.36a3.32,3.32,0,0,0,2.48-.8,3.64,3.64,0,0,0,.77-2.59V4.84a4.56,4.56,0,0,0-.63-2.55,2.53,2.53,0,0,0-2.28-1h-2.77v9.18Z"/><path class="cls-1" d="M4.26,38a4.51,4.51,0,0,1,1.9.36,3.4,3.4,0,0,1,1.29,1,4.36,4.36,0,0,1,.74,1.55,7.6,7.6,0,0,1,.24,2v.42H7.2v-.5A6.34,6.34,0,0,0,7,41.37a3.21,3.21,0,0,0-.5-1.15,2.44,2.44,0,0,0-.91-.77,3,3,0,0,0-1.34-.28A2.47,2.47,0,0,0,2,40.2a4.69,4.69,0,0,0-.66,2.59,3.82,3.82,0,0,0,.52,2,6.54,6.54,0,0,0,1.32,1.53,20.49,20.49,0,0,0,1.71,1.32A15.33,15.33,0,0,1,6.62,49a6.62,6.62,0,0,1,1.32,1.69A4.74,4.74,0,0,1,8.46,53a7.64,7.64,0,0,1-.24,2,4.25,4.25,0,0,1-.76,1.55,3.49,3.49,0,0,1-1.32,1,4.6,4.6,0,0,1-1.92.36,4.6,4.6,0,0,1-1.92-.36,3.48,3.48,0,0,1-1.32-1A4.22,4.22,0,0,1,.24,55,7.6,7.6,0,0,1,0,53V52H1.23v1.09a4.62,4.62,0,0,0,.67,2.59,2.54,2.54,0,0,0,2.3,1,2.54,2.54,0,0,0,2.3-1,4.62,4.62,0,0,0,.67-2.59,3.76,3.76,0,0,0-.52-2,6.51,6.51,0,0,0-1.32-1.53,18.75,18.75,0,0,0-1.71-1.3,14.08,14.08,0,0,1-1.71-1.36A6.53,6.53,0,0,1,.6,45.21a4.88,4.88,0,0,1-.52-2.34,5.71,5.71,0,0,1,1-3.53A3.79,3.79,0,0,1,4.26,38Z"/><path class="cls-1" d="M20,50.24l-4.4-12.07h1.34l3.75,10.3,3.75-10.3h1.26L21.25,50.24v7.53H20Z"/><path class="cls-1" d="M37,38a4.51,4.51,0,0,1,1.9.36,3.4,3.4,0,0,1,1.29,1A4.36,4.36,0,0,1,41,40.94a7.6,7.6,0,0,1,.24,2v.42H40v-.5a6.34,6.34,0,0,0-.15-1.44,3.21,3.21,0,0,0-.5-1.15,2.44,2.44,0,0,0-.91-.77,3,3,0,0,0-1.34-.28,2.47,2.47,0,0,0-2.25,1,4.69,4.69,0,0,0-.66,2.59,3.82,3.82,0,0,0,.52,2A6.54,6.54,0,0,0,36,46.36a20.49,20.49,0,0,0,1.71,1.32A15.33,15.33,0,0,1,39.41,49a6.62,6.62,0,0,1,1.32,1.69,4.74,4.74,0,0,1,.52,2.3A7.64,7.64,0,0,1,41,55a4.25,4.25,0,0,1-.76,1.55,3.49,3.49,0,0,1-1.32,1,5.23,5.23,0,0,1-3.84,0,3.48,3.48,0,0,1-1.32-1A4.22,4.22,0,0,1,33,55a7.6,7.6,0,0,1-.24-2V52H34v1.09a4.62,4.62,0,0,0,.67,2.59,2.54,2.54,0,0,0,2.3,1,2.54,2.54,0,0,0,2.3-1A4.62,4.62,0,0,0,40,53.12a3.76,3.76,0,0,0-.52-2,6.51,6.51,0,0,0-1.32-1.53,18.75,18.75,0,0,0-1.71-1.3,14.08,14.08,0,0,1-1.71-1.36,6.53,6.53,0,0,1-1.32-1.71,4.88,4.88,0,0,1-.52-2.34,5.71,5.71,0,0,1,1-3.53A3.79,3.79,0,0,1,37,38Z"/><path class="cls-1" d="M52.22,57.77V39.34h-4V38.17h9.27v1.18h-4V57.77Z"/><path class="cls-1" d="M71.34,47.24v1.18H66v8.18h6.44v1.18H64.71V38.17h7.73v1.18H66v7.9Z"/><path class="cls-1" d="M86.72,57.74H85.43L81.28,40.41V57.77H80.14V38.17H82L86.1,55.5l4.09-17.33H92v19.6H90.8V40.35Z"/></g></g></svg>