<svg xmlns="http://www.w3.org/2000/svg" viewBox="0 0 230.66 57.8"><defs><style>.cls-1{fill:#fff;}</style></defs><title>text-maternity</title><g id="レイヤー_2" data-name="レイヤー 2"><g id="design"><path class="cls-1" d="M6.58,19.6H5.29L1.15,2.27V19.63H0V0H1.85L6,17.36,10.05,0H11.9v19.6H10.67V2.21Z"/><path class="cls-1" d="M20.5,15.29l-1,4.34H18.34L22.62,0H24.5l4.37,19.63H27.58l-1-4.34Zm.2-1.12H26.4L23.52,1.48Z"/><path class="cls-1" d="M37.55,19.63V1.2h-4V0h9.27V1.2h-4V19.63Z"/><path class="cls-1" d="M55.55,9.1v1.18H50.2v8.18h6.44v1.18H48.92V0h7.73V1.2H50.2V9.1Z"/><path class="cls-1" d="M67.31,0A4,4,0,0,1,70.53,1.2a4.93,4.93,0,0,1,1,3.25V6.16q0,3.42-2.83,4.06a3.26,3.26,0,0,1,2.17,1.37,4.83,4.83,0,0,1,.66,2.63v3.05a9.31,9.31,0,0,0,.08,1.25A2.65,2.65,0,0,0,72,19.63H70.64a2.9,2.9,0,0,1-.34-1,9.2,9.2,0,0,1-.08-1.36V14.2A4.5,4.5,0,0,0,70,12.57a2.33,2.33,0,0,0-.74-1A3,3,0,0,0,68.07,11a6.81,6.81,0,0,0-1.51-.15h-2v8.76H63.22V0Zm-.73,9.66a7.56,7.56,0,0,0,1.54-.14A2.69,2.69,0,0,0,69.26,9,2.33,2.33,0,0,0,70,8a4.49,4.49,0,0,0,.25-1.62V4.56a4,4,0,0,0-.67-2.48,2.68,2.68,0,0,0-2.27-.88H64.51V9.69Z"/><path class="cls-1" d="M79.69,19.63H78.51V0h1.68l5.88,16.55V0h1.18v19.6H85.82L79.69,2.16Z"/><path class="cls-1" d="M95.23,0v19.6H93.94V0Z"/><path class="cls-1" d="M105.25,19.63V1.2h-4V0h9.27V1.2h-4V19.63Z"/><path class="cls-1" d="M120.65,12.1,116.25,0h1.34l3.75,10.3L125.1,0h1.26L121.94,12.1v7.53h-1.29Z"/><path class="cls-1" d="M141.54,19.63V0h1.29V18.45H149v1.18Z"/><path class="cls-1" d="M162,9.1v1.18h-5.35v8.18h6.44v1.18H155.4V0h7.73V1.2h-6.44V9.1Z"/><path class="cls-1" d="M171.58,15.29l-1,4.34h-1.18L173.71,0h1.88L180,19.63h-1.29l-1-4.34Zm.2-1.12h5.71L174.61,1.48Z"/><path class="cls-1" d="M186.73,0l4,18.12,4-18.12h1.2l-4.26,19.6h-1.9L185.41,0Z"/><path class="cls-1" d="M209,9.1v1.18h-5.35v8.18h6.44v1.18h-7.73V0h7.73V1.2h-6.44V9.1Z"/><path class="cls-1" d="M4.7,39.2q-3.42,0-3.42,3.64v.78A3.53,3.53,0,0,0,2,45.87a2.52,2.52,0,0,0,2,1H7V44.64H8.29v2.18H9.35V48H8.29v7.06q0,.73.06,1.34a2.75,2.75,0,0,0,.45,1.23H7.45a3.37,3.37,0,0,1-.32-.85,4.68,4.68,0,0,1-.1-1,3.17,3.17,0,0,1-1.32,1.54,3.89,3.89,0,0,1-2,.5A3.23,3.23,0,0,1,.9,56.54,5.52,5.52,0,0,1,0,53.26V51.41a5.06,5.06,0,0,1,.62-2.51,3.35,3.35,0,0,1,2-1.55,3.16,3.16,0,0,1-2-1.47A5,5,0,0,1,0,43.38V42.9a5.13,5.13,0,0,1,1.16-3.63A4.62,4.62,0,0,1,4.7,38H7.48V39.2ZM4.14,48A2.79,2.79,0,0,0,2,49a3.72,3.72,0,0,0-.73,2.39v1.79A4.17,4.17,0,0,0,2,55.67a2.52,2.52,0,0,0,2.2,1,2.88,2.88,0,0,0,2-.71,2.69,2.69,0,0,0,.81-2V48Z"/><path class="cls-1" d="M28.73,37.86a4.44,4.44,0,0,1,1.92.38,3.62,3.62,0,0,1,1.32,1,4.25,4.25,0,0,1,.76,1.57,7.8,7.8,0,0,1,.24,2v1.62H31.72V42.73a6.58,6.58,0,0,0-.15-1.46,3.23,3.23,0,0,0-.52-1.18,2.51,2.51,0,0,0-.92-.78,3.5,3.5,0,0,0-2.74,0,2.5,2.5,0,0,0-.92.78,3.2,3.2,0,0,0-.52,1.18,6.52,6.52,0,0,0-.15,1.46V52.92a6.52,6.52,0,0,0,.15,1.46,3.06,3.06,0,0,0,.52,1.16,2.55,2.55,0,0,0,.92.77,3.5,3.5,0,0,0,2.74,0,2.56,2.56,0,0,0,.92-.77,3.09,3.09,0,0,0,.52-1.16,6.58,6.58,0,0,0,.15-1.46V50.6H33v2.24a7.8,7.8,0,0,1-.24,2A4.24,4.24,0,0,1,32,56.38a3.61,3.61,0,0,1-1.32,1,5.06,5.06,0,0,1-3.84,0,3.61,3.61,0,0,1-1.32-1,4.21,4.21,0,0,1-.76-1.57,7.76,7.76,0,0,1-.24-2v-10a7.76,7.76,0,0,1,.24-2,4.22,4.22,0,0,1,.76-1.57,3.62,3.62,0,0,1,1.32-1A4.45,4.45,0,0,1,28.73,37.86Z"/><path class="cls-1" d="M40.82,48.42v9.21H39.54V38h1.29v9.21h6.1V38h1.32v19.6H46.93V48.42Z"/><path class="cls-1" d="M56.25,38v19.6H55V38Z"/><path class="cls-1" d="M63,57.63V38h1.29V56.45h6.16v1.18Z"/><path class="cls-1" d="M81.14,38a5,5,0,0,1,1.95.35,3.51,3.51,0,0,1,1.36,1,4.15,4.15,0,0,1,.78,1.54,7.3,7.3,0,0,1,.25,2v9.86a7.29,7.29,0,0,1-.25,2,4.14,4.14,0,0,1-.78,1.54,3.5,3.5,0,0,1-1.36,1,5,5,0,0,1-1.95.35H76.83V38Zm0,18.42a2.7,2.7,0,0,0,2.37-1,4.45,4.45,0,0,0,.71-2.63v-10a4.39,4.39,0,0,0-.73-2.63,2.7,2.7,0,0,0-2.35-1h-3V56.45Z"/><path class="cls-1" d="M96.23,37.86a4.44,4.44,0,0,1,1.92.38,3.62,3.62,0,0,1,1.32,1,4.25,4.25,0,0,1,.76,1.57,7.8,7.8,0,0,1,.24,2v1.62H99.23V42.73a6.58,6.58,0,0,0-.15-1.46,3.23,3.23,0,0,0-.52-1.18,2.51,2.51,0,0,0-.92-.78,3.5,3.5,0,0,0-2.74,0,2.5,2.5,0,0,0-.92.78,3.2,3.2,0,0,0-.52,1.18,6.52,6.52,0,0,0-.15,1.46V52.92a6.52,6.52,0,0,0,.15,1.46A3.06,3.06,0,0,0,94,55.54a2.55,2.55,0,0,0,.92.77,3.5,3.5,0,0,0,2.74,0,2.56,2.56,0,0,0,.92-.77,3.09,3.09,0,0,0,.52-1.16,6.58,6.58,0,0,0,.15-1.46V50.6h1.23v2.24a7.8,7.8,0,0,1-.24,2,4.24,4.24,0,0,1-.76,1.57,3.61,3.61,0,0,1-1.32,1,5.06,5.06,0,0,1-3.84,0,3.61,3.61,0,0,1-1.32-1,4.21,4.21,0,0,1-.76-1.57,7.76,7.76,0,0,1-.24-2v-10a7.76,7.76,0,0,1,.24-2A4.22,4.22,0,0,1,93,39.27a3.62,3.62,0,0,1,1.32-1A4.45,4.45,0,0,1,96.23,37.86Z"/><path class="cls-1" d="M108.92,53.29l-1,4.34h-1.18L111,38h1.88l4.37,19.63H116l-1-4.34Zm.2-1.12h5.71l-2.88-12.68Z"/><path class="cls-1" d="M127.82,38A4,4,0,0,1,131,39.2a4.93,4.93,0,0,1,1,3.25v1.71q0,3.42-2.83,4.06a3.26,3.26,0,0,1,2.17,1.37,4.83,4.83,0,0,1,.66,2.63v3.05a9.31,9.31,0,0,0,.08,1.25,2.65,2.65,0,0,0,.39,1.11h-1.34a2.9,2.9,0,0,1-.34-1,9.2,9.2,0,0,1-.08-1.36V52.2a4.5,4.5,0,0,0-.25-1.62,2.33,2.33,0,0,0-.74-1,3,3,0,0,0-1.16-.53,6.81,6.81,0,0,0-1.51-.15h-2v8.76h-1.29V38Zm-.73,9.66a7.56,7.56,0,0,0,1.54-.14,2.69,2.69,0,0,0,1.13-.5,2.33,2.33,0,0,0,.71-1,4.49,4.49,0,0,0,.25-1.62V42.56a4,4,0,0,0-.67-2.48,2.68,2.68,0,0,0-2.27-.88H125v8.48Z"/><path class="cls-1" d="M145.65,47.1v1.18h-5.35v8.18h6.44v1.18H139V38h7.73V39.2h-6.44v7.9Z"/><path class="cls-1" d="M162.15,57.63V38h1.29V56.45h6.16v1.18Z"/><path class="cls-1" d="M182.64,47.1v1.18h-5.35v8.18h6.44v1.18H176V38h7.73V39.2h-6.44v7.9Z"/><path class="cls-1" d="M192.19,53.29l-1,4.34H190L194.32,38h1.88l4.37,19.63h-1.29l-1-4.34Zm.2-1.12h5.71l-2.88-12.68Z"/><path class="cls-1" d="M207.34,38l4,18.12,4-18.12h1.2l-4.26,19.6h-1.9L206,38Z"/><path class="cls-1" d="M229.57,47.1v1.18h-5.35v8.18h6.44v1.18h-7.73V38h7.73V39.2h-6.44v7.9Z"/></g></g></svg>