<svg xmlns="http://www.w3.org/2000/svg" viewBox="0 0 68.43 55.27"><defs><style>.cls-1{fill:#ff6d1f;}</style></defs><title>recruiting-num-05</title><g id="レイヤー_2" data-name="レイヤー 2"><g id="design"><path class="cls-1" d="M0,13.78C0,6.07,3.27,0,11.6,0S23.2,6.07,23.2,13.78V41.49c0,7.63-3.27,13.78-11.6,13.78S0,49.12,0,41.49ZM1.71,41.49c0,6.77,2.65,12.22,9.89,12.22s9.89-5.45,9.89-12.22V13.7c0-6.7-2.65-12.14-9.89-12.14S1.71,7,1.71,13.7Z"/><path class="cls-1" d="M48.19,24.45c2.1-3.35,5.06-4.83,9.26-4.83,8,0,11,6.23,11,13.62v8.25c0,7.55-3.11,13.78-11.37,13.78S45.62,49,45.62,41.49V39.16h1.71v2.34c0,6.62,2.49,12.14,9.65,12.14s9.73-5.53,9.73-12.14V33.32c0-6.54-2.49-12.07-9.73-12.07-4.44,0-7.55,2.41-9,6.54v.62H46.32L47.72.31h19.7V1.95H49.28Z"/></g></g></svg>