<svg xmlns="http://www.w3.org/2000/svg" viewBox="0 0 68.43 55.27"><defs><style>.cls-1{fill:#ff6d1f;}</style></defs><title>recruiting-num-02</title><g id="レイヤー_2" data-name="レイヤー 2"><g id="design"><path class="cls-1" d="M0,13.78C0,6.07,3.27,0,11.6,0S23.2,6.07,23.2,13.78V41.49c0,7.63-3.27,13.78-11.6,13.78S0,49.12,0,41.49ZM1.71,41.49c0,6.77,2.65,12.22,9.89,12.22s9.89-5.45,9.89-12.22V13.7c0-6.7-2.65-12.14-9.89-12.14S1.71,7,1.71,13.7Z"/><path class="cls-1" d="M68.43,13.94c0,15.18-20.71,20.24-21,39v.31H68.12v1.63H45.7V53.72c0-20.4,21-25.07,21-39.7,0-6.85-2.18-12.46-9.73-12.46-7.32,0-9.65,5.92-9.65,12.46v3H45.7V14.09C45.7,6.54,48.66,0,57.07,0,65.63,0,68.43,6.23,68.43,13.94Z"/></g></g></svg>