<svg xmlns="http://www.w3.org/2000/svg" viewBox="0 0 168.22 57.94"><defs><style>.cls-1{fill:#fff;}</style></defs><title>text-training</title><g id="レイヤー_2" data-name="レイヤー 2"><g id="design"><path class="cls-1" d="M4,19.77V1.34H0V.17H9.27V1.34h-4V19.77Z"/><path class="cls-1" d="M20.64.17a4,4,0,0,1,3.22,1.18,4.93,4.93,0,0,1,1,3.25V6.3q0,3.42-2.83,4.06a3.26,3.26,0,0,1,2.17,1.37,4.83,4.83,0,0,1,.66,2.63v3.05a9.31,9.31,0,0,0,.08,1.25,2.65,2.65,0,0,0,.39,1.11H24a2.9,2.9,0,0,1-.34-1,9.2,9.2,0,0,1-.08-1.36V14.34a4.5,4.5,0,0,0-.25-1.62,2.33,2.33,0,0,0-.74-1,3,3,0,0,0-1.16-.53A6.81,6.81,0,0,0,19.88,11h-2v8.76H16.55V.17Zm-.73,9.66a7.56,7.56,0,0,0,1.54-.14,2.69,2.69,0,0,0,1.13-.5,2.33,2.33,0,0,0,.71-1,4.49,4.49,0,0,0,.25-1.62V4.7a4,4,0,0,0-.67-2.48,2.68,2.68,0,0,0-2.27-.88H17.84V9.83Z"/><path class="cls-1" d="M34.83,15.43l-1,4.34H32.67L37,.14h1.88L43.2,19.77H41.92l-1-4.34Zm.2-1.12h5.71L37.85,1.62Z"/><path class="cls-1" d="M52.05.17v19.6H50.76V.17Z"/><path class="cls-1" d="M61.07,19.77H59.89V.17h1.68l5.88,16.55V.17h1.18v19.6H67.2L61.07,2.3Z"/><path class="cls-1" d="M77.73.17v19.6H76.44V.17Z"/><path class="cls-1" d="M86.74,19.77H85.57V.17h1.68l5.88,16.55V.17H94.3v19.6H92.87L86.74,2.3Z"/><path class="cls-1" d="M106.26,0a4.44,4.44,0,0,1,1.92.38,3.62,3.62,0,0,1,1.32,1A4.25,4.25,0,0,1,110.25,3a7.8,7.8,0,0,1,.24,2V6.41h-1.23V4.87a6.58,6.58,0,0,0-.15-1.46,3.23,3.23,0,0,0-.52-1.18,2.51,2.51,0,0,0-.92-.78,3.5,3.5,0,0,0-2.74,0,2.5,2.5,0,0,0-.92.78,3.2,3.2,0,0,0-.52,1.18,6.52,6.52,0,0,0-.15,1.46V15.06a6.52,6.52,0,0,0,.15,1.46,3.06,3.06,0,0,0,.52,1.16,2.55,2.55,0,0,0,.92.77,3.5,3.5,0,0,0,2.74,0,2.56,2.56,0,0,0,.92-.77,3.09,3.09,0,0,0,.52-1.16,6.58,6.58,0,0,0,.15-1.46V10.84h-2.6V9.66h3.84V15a7.8,7.8,0,0,1-.24,2,4.24,4.24,0,0,1-.76,1.57,3.61,3.61,0,0,1-1.32,1,5.06,5.06,0,0,1-3.84,0,3.61,3.61,0,0,1-1.32-1,4.21,4.21,0,0,1-.76-1.57,7.76,7.76,0,0,1-.24-2V5a7.76,7.76,0,0,1,.24-2A4.22,4.22,0,0,1,103,1.41a3.62,3.62,0,0,1,1.32-1A4.45,4.45,0,0,1,106.26,0Z"/><path class="cls-1" d="M134.54,9.72v1.18h-5.07v8.88h-1.29V.17h7.45V1.34h-6.16V9.72Z"/><path class="cls-1" d="M143.11,5a7.38,7.38,0,0,1,.25-2,4.4,4.4,0,0,1,.77-1.57,3.6,3.6,0,0,1,1.33-1A4.54,4.54,0,0,1,147.39,0a4.64,4.64,0,0,1,1.95.38,3.69,3.69,0,0,1,1.36,1A4.28,4.28,0,0,1,151.48,3a7.38,7.38,0,0,1,.25,2V15a7.37,7.37,0,0,1-.25,2,4.27,4.27,0,0,1-.78,1.57,3.68,3.68,0,0,1-1.36,1,4.64,4.64,0,0,1-1.95.38,4.55,4.55,0,0,1-1.93-.38,3.59,3.59,0,0,1-1.33-1,4.39,4.39,0,0,1-.77-1.57,7.37,7.37,0,0,1-.25-2Zm1.29,10.11a4.75,4.75,0,0,0,.69,2.65,2.55,2.55,0,0,0,2.31,1.05,2.62,2.62,0,0,0,2.34-1.05,4.61,4.61,0,0,0,.71-2.65V4.87a4.61,4.61,0,0,0-.71-2.65,2.62,2.62,0,0,0-2.34-1.05,2.55,2.55,0,0,0-2.31,1.05,4.75,4.75,0,0,0-.69,2.65Z"/><path class="cls-1" d="M163.55.17a4,4,0,0,1,3.22,1.18,4.93,4.93,0,0,1,1,3.25V6.3q0,3.42-2.83,4.06a3.26,3.26,0,0,1,2.17,1.37,4.83,4.83,0,0,1,.66,2.63v3.05a9.31,9.31,0,0,0,.08,1.25,2.65,2.65,0,0,0,.39,1.11h-1.34a2.9,2.9,0,0,1-.34-1,9.2,9.2,0,0,1-.08-1.36V14.34a4.5,4.5,0,0,0-.25-1.62,2.33,2.33,0,0,0-.74-1,3,3,0,0,0-1.16-.53,6.81,6.81,0,0,0-1.51-.15h-2v8.76h-1.29V.17Zm-.73,9.66a7.56,7.56,0,0,0,1.54-.14,2.69,2.69,0,0,0,1.13-.5,2.33,2.33,0,0,0,.71-1,4.49,4.49,0,0,0,.25-1.62V4.7a4,4,0,0,0-.67-2.48,2.68,2.68,0,0,0-2.27-.88h-2.77V9.83Z"/><path class="cls-1" d="M1.79,57.77H.62V38.17H2.3L8.18,54.72V38.17H9.35v19.6H7.92L1.79,40.3Z"/><path class="cls-1" d="M23.8,47.24v1.18H18.45v8.18h6.44v1.18H17.16V38.17h7.73v1.18H18.45v7.9Z"/><path class="cls-1" d="M37.3,57.77H35.5l-3.16-19.6H33.6L36.54,56,39.4,38.25h1.37L43.51,56l2.83-17.81h1.15l-3.14,19.6H42.67L40,41.72Z"/><path class="cls-1" d="M59.22,38a4.44,4.44,0,0,1,1.92.38,3.62,3.62,0,0,1,1.32,1A4.25,4.25,0,0,1,63.21,41a7.8,7.8,0,0,1,.24,2v1.62H62.22V42.87a6.58,6.58,0,0,0-.15-1.46,3.23,3.23,0,0,0-.52-1.18,2.51,2.51,0,0,0-.92-.78,3.5,3.5,0,0,0-2.74,0,2.5,2.5,0,0,0-.92.78,3.2,3.2,0,0,0-.52,1.18,6.52,6.52,0,0,0-.15,1.46V53.06a6.52,6.52,0,0,0,.15,1.46A3.06,3.06,0,0,0,57,55.68a2.55,2.55,0,0,0,.92.77,3.5,3.5,0,0,0,2.74,0,2.56,2.56,0,0,0,.92-.77,3.09,3.09,0,0,0,.52-1.16,6.58,6.58,0,0,0,.15-1.46V50.74h1.23V53a7.8,7.8,0,0,1-.24,2,4.24,4.24,0,0,1-.76,1.57,3.61,3.61,0,0,1-1.32,1,5.06,5.06,0,0,1-3.84,0,3.61,3.61,0,0,1-1.32-1A4.21,4.21,0,0,1,55.23,55,7.76,7.76,0,0,1,55,53V43a7.76,7.76,0,0,1,.24-2A4.22,4.22,0,0,1,56,39.41a3.62,3.62,0,0,1,1.32-1A4.45,4.45,0,0,1,59.22,38Z"/><path class="cls-1" d="M71.06,43a7.38,7.38,0,0,1,.25-2,4.4,4.4,0,0,1,.77-1.57,3.6,3.6,0,0,1,1.33-1A4.54,4.54,0,0,1,75.35,38a4.64,4.64,0,0,1,1.95.38,3.69,3.69,0,0,1,1.36,1A4.28,4.28,0,0,1,79.44,41a7.38,7.38,0,0,1,.25,2V53a7.37,7.37,0,0,1-.25,2,4.27,4.27,0,0,1-.78,1.57,3.68,3.68,0,0,1-1.36,1,4.64,4.64,0,0,1-1.95.38,4.55,4.55,0,0,1-1.93-.38,3.59,3.59,0,0,1-1.33-1A4.39,4.39,0,0,1,71.32,55a7.37,7.37,0,0,1-.25-2Zm1.29,10.11A4.75,4.75,0,0,0,73,55.71a2.55,2.55,0,0,0,2.31,1.05,2.62,2.62,0,0,0,2.34-1.05,4.61,4.61,0,0,0,.71-2.65V42.87a4.61,4.61,0,0,0-.71-2.65,2.62,2.62,0,0,0-2.34-1.05A2.55,2.55,0,0,0,73,40.23a4.75,4.75,0,0,0-.69,2.65Z"/><path class="cls-1" d="M94,57.74H92.71L88.56,40.41V57.77H87.42V38.17h1.85L93.38,55.5l4.09-17.33h1.85v19.6H98.08V40.35Z"/><path class="cls-1" d="M113.79,47.24v1.18h-5.35v8.18h6.44v1.18h-7.73V38.17h7.73v1.18h-6.44v7.9Z"/><path class="cls-1" d="M126.67,38.17a4,4,0,0,1,3.22,1.18,4.93,4.93,0,0,1,1,3.25V44.3q0,3.42-2.83,4.06a3.26,3.26,0,0,1,2.17,1.37,4.83,4.83,0,0,1,.66,2.63v3.05a9.31,9.31,0,0,0,.08,1.25,2.65,2.65,0,0,0,.39,1.11H130a2.9,2.9,0,0,1-.34-1,9.2,9.2,0,0,1-.08-1.36V52.34a4.5,4.5,0,0,0-.25-1.62,2.33,2.33,0,0,0-.74-1,3,3,0,0,0-1.16-.53,6.81,6.81,0,0,0-1.51-.15h-2v8.76h-1.29V38.17Zm-.73,9.66a7.56,7.56,0,0,0,1.54-.14,2.69,2.69,0,0,0,1.13-.5,2.33,2.33,0,0,0,.71-1,4.49,4.49,0,0,0,.25-1.62V42.7a4,4,0,0,0-.67-2.48,2.68,2.68,0,0,0-2.27-.88h-2.77v8.48Z"/><path class="cls-1" d="M143.08,38a4.51,4.51,0,0,1,1.9.36,3.4,3.4,0,0,1,1.29,1,4.36,4.36,0,0,1,.74,1.55,7.6,7.6,0,0,1,.24,2v.42H146v-.5a6.34,6.34,0,0,0-.15-1.44,3.21,3.21,0,0,0-.5-1.15,2.44,2.44,0,0,0-.91-.77,3,3,0,0,0-1.34-.28,2.47,2.47,0,0,0-2.25,1,4.69,4.69,0,0,0-.66,2.59,3.82,3.82,0,0,0,.52,2A6.54,6.54,0,0,0,142,46.36a20.49,20.49,0,0,0,1.71,1.32A15.33,15.33,0,0,1,145.45,49a6.62,6.62,0,0,1,1.32,1.69,4.74,4.74,0,0,1,.52,2.3,7.64,7.64,0,0,1-.24,2,4.25,4.25,0,0,1-.76,1.55,3.49,3.49,0,0,1-1.32,1,5.23,5.23,0,0,1-3.84,0,3.48,3.48,0,0,1-1.32-1,4.22,4.22,0,0,1-.76-1.55,7.6,7.6,0,0,1-.24-2V52h1.23v1.09a4.62,4.62,0,0,0,.67,2.59,3.09,3.09,0,0,0,4.59,0,4.62,4.62,0,0,0,.67-2.59,3.76,3.76,0,0,0-.52-2,6.51,6.51,0,0,0-1.32-1.53,18.75,18.75,0,0,0-1.71-1.3,14.08,14.08,0,0,1-1.71-1.36,6.53,6.53,0,0,1-1.32-1.71,4.88,4.88,0,0,1-.52-2.34,5.71,5.71,0,0,1,1-3.53A3.79,3.79,0,0,1,143.08,38Z"/></g></g></svg>