<?xml version="1.0" encoding="utf-8"?>
<!-- Generator: Adobe Illustrator 21.0.2, SVG Export Plug-In . SVG Version: 6.00 Build 0)  -->
<svg version="1.1" id="レイヤー_1" xmlns="http://www.w3.org/2000/svg" xmlns:xlink="http://www.w3.org/1999/xlink" x="0px"
	 y="0px" viewBox="0 0 93 8.8" style="enable-background:new 0 0 93 8.8;" xml:space="preserve">
<style type="text/css">
	.st0{fill:#231815;}
</style>
<g>
	<path class="st0" d="M1.9,0.1c1.4,0,1.9,0.7,1.9,2v0.7c0,1-0.3,1.5-1.1,1.8c0.8,0.2,1.1,0.9,1.1,1.8v1.3c0,0.4,0,0.7,0.2,1h-1
		C3,8.5,2.9,8.3,2.9,7.7V6.3c0-1-0.5-1.3-1.3-1.3H1v3.7H0V0.1H1.9z M1.7,4.2c0.8,0,1.2-0.2,1.2-1.2V2.2c0-0.8-0.3-1.2-1-1.2H1v3.2
		H1.7z"/>
	<path class="st0" d="M10.4,3.9v0.9H8.3v3.1h2.6v0.9H7.3V0.1h3.6V1H8.3v3H10.4z"/>
	<path class="st0" d="M18.1,2.2V3h-0.9V2.1c0-0.8-0.3-1.2-1-1.2c-0.7,0-1,0.5-1,1.2v4.6c0,0.8,0.3,1.2,1,1.2c0.7,0,1-0.5,1-1.2V5.6
		h0.9v1.1c0,1.3-0.6,2.2-2,2.2c-1.3,0-1.9-0.9-1.9-2.2V2.2c0-1.3,0.6-2.2,1.9-2.2C17.5,0,18.1,0.9,18.1,2.2z"/>
	<path class="st0" d="M23.4,0.1c1.4,0,1.9,0.7,1.9,2v0.7c0,1-0.3,1.5-1.1,1.8c0.8,0.2,1.1,0.9,1.1,1.8v1.3c0,0.4,0,0.7,0.2,1h-1
		c-0.1-0.2-0.2-0.5-0.2-1.1V6.3c0-1-0.5-1.3-1.3-1.3h-0.7v3.7h-1V0.1H23.4z M23.1,4.2c0.8,0,1.2-0.2,1.2-1.2V2.2
		c0-0.8-0.3-1.2-1-1.2h-0.9v3.2H23.1z"/>
	<path class="st0" d="M29.7,6.7c0,0.8,0.3,1.2,1,1.2c0.7,0,1-0.5,1-1.2V0.1h0.9v6.6c0,1.3-0.6,2.2-1.9,2.2c-1.3,0-1.9-0.9-1.9-2.2
		V0.1h1V6.7z"/>
	<path class="st0" d="M37,0.1v8.7h-1V0.1H37z"/>
	<path class="st0" d="M41.7,8.7V1h-1.6V0.1h4.2V1h-1.6v7.8H41.7z"/>
	<path class="st0" d="M48.4,0.1v8.7h-1V0.1H48.4z"/>
	<path class="st0" d="M52.7,8.7h-0.9V0.1H53l2,6.3V0.1h0.9v8.7h-1l-2.2-7V8.7z"/>
	<path class="st0" d="M63.2,2.2v0.7h-0.9V2.1c0-0.8-0.3-1.2-1-1.2c-0.7,0-1,0.5-1,1.2v4.6c0,0.8,0.3,1.2,1,1.2c0.7,0,1-0.5,1-1.2V5
		h-0.9V4.1h1.8v2.5c0,1.3-0.6,2.2-2,2.2c-1.3,0-1.9-0.9-1.9-2.2V2.2c0-1.3,0.6-2.2,1.9-2.2C62.6,0,63.2,0.9,63.2,2.2z"/>
	<path class="st0" d="M74.7,2.2v0.2h-0.9V2.1c0-0.8-0.3-1.2-1-1.2c-0.7,0-1,0.5-1,1.2c0,1.9,2.9,2.1,2.9,4.6c0,1.3-0.6,2.2-2,2.2
		c-1.3,0-1.9-0.9-1.9-2.2V6.2h0.9v0.5c0,0.8,0.3,1.2,1,1.2s1-0.5,1-1.2c0-1.9-2.9-2.1-2.9-4.5c0-1.3,0.6-2.2,1.9-2.2
		C74.1,0,74.7,0.9,74.7,2.2z"/>
	<path class="st0" d="M79,0.1v8.7h-1V0.1H79z"/>
	<path class="st0" d="M83.7,8.7V1h-1.6V0.1h4.2V1h-1.6v7.8H83.7z"/>
	<path class="st0" d="M92.5,3.9v0.9h-2.1v3.1H93v0.9h-3.6V0.1H93V1h-2.6v3H92.5z"/>
</g>
</svg>
