<?xml version="1.0" encoding="utf-8"?>
<!-- Generator: Adobe Illustrator 21.0.2, SVG Export Plug-In . SVG Version: 6.00 Build 0)  -->
<svg version="1.1" id="レイヤー_1" xmlns="http://www.w3.org/2000/svg" xmlns:xlink="http://www.w3.org/1999/xlink" x="0px"
	 y="0px" viewBox="0 0 96 8.8" style="enable-background:new 0 0 96 8.8;" xml:space="preserve">
<style type="text/css">
	.st0{fill:#231815;}
</style>
<title>header-text-recruiting_1</title>
<g id="レイヤー_2">
	<g id="design">
		<path class="st0" d="M1.9,0.1c1.4,0,1.9,0.7,1.9,2v0.7c0,1-0.3,1.5-1.1,1.8c0.8,0.2,1.1,0.9,1.1,1.8v1.3c0,0.3,0,0.7,0.2,1H3
			C2.9,8.4,2.9,8,2.9,7.7V6.3c0-1-0.5-1.3-1.3-1.3H1v3.7H0V0.1H1.9z M1.7,4.2c0.8,0,1.2-0.2,1.2-1.2V2.2c0-0.8-0.3-1.2-1-1.2H1v3.2
			L1.7,4.2z"/>
		<path class="st0" d="M10.4,3.9v0.9H8.3v3.1h2.6v0.9H7.3V0.1h3.6V1H8.3v3L10.4,3.9z"/>
		<path class="st0" d="M18.1,2.2V3h-0.9V2.1c0-0.8-0.3-1.2-1-1.2s-1,0.5-1,1.2v4.6c0,0.8,0.3,1.2,1,1.2s1-0.5,1-1.2V5.6h0.9v1.1
			c0,1.3-0.6,2.2-2,2.2S14.2,8,14.2,6.7V2.2c0-1.3,0.6-2.2,1.9-2.2S18.1,0.9,18.1,2.2z"/>
		<path class="st0" d="M23.4,0.1c1.4,0,1.9,0.7,1.9,2v0.7c0,1-0.3,1.5-1.1,1.8c0.8,0.2,1.1,0.9,1.1,1.8v1.3c0,0.3,0,0.7,0.2,1h-1
			c-0.1-0.3-0.2-0.7-0.2-1.1V6.3c0-1-0.5-1.3-1.3-1.3h-0.7v3.7h-1V0.1H23.4z M23.1,4.2c0.8,0,1.2-0.2,1.2-1.2V2.2
			c0-0.8-0.3-1.2-1-1.2h-0.9v3.2L23.1,4.2z"/>
		<path class="st0" d="M29.7,6.7c0,0.8,0.3,1.2,1,1.2s1-0.5,1-1.2V0.1h0.9v6.6c0,1.3-0.6,2.2-1.9,2.2S28.7,8,28.7,6.7V0.1h1
			L29.7,6.7z"/>
		<path class="st0" d="M37,0.1v8.6h-1V0.1H37z"/>
		<path class="st0" d="M41.7,8.7V1h-1.6V0.1h4.2V1h-1.6v7.7H41.7z"/>
		<path class="st0" d="M48.4,0.1v8.6h-1V0.1H48.4z"/>
		<path class="st0" d="M52.7,8.7h-0.9V0.1H53l2,6.2V0.1h0.8v8.6h-1l-2.2-7L52.7,8.7z"/>
		<path class="st0" d="M63.2,2.2v0.7h-0.9V2.1c0-0.8-0.3-1.2-1-1.2s-1,0.5-1,1.2v4.6c0,0.8,0.3,1.2,1,1.2s1-0.5,1-1.2V5h-0.9V4.1
			h1.8v2.6c0,1.3-0.6,2.2-2,2.2S59.3,8,59.3,6.7V2.2c0-1.3,0.6-2.2,1.9-2.2S63.2,0.9,63.2,2.2z"/>
		<path class="st0" d="M74.8,2.2c0,2.6-2.9,3.5-2.9,5.5v0.1h2.8v0.9H71V8c0-2.8,2.9-3.3,2.9-5.8c0-0.9-0.3-1.4-1-1.4s-1,0.5-1,1.3
			v0.8H71V2.2C71,0.9,71.6,0,72.9,0S74.8,0.9,74.8,2.2z"/>
		<path class="st0" d="M78.1,2.2c0-1.3,0.7-2.2,2-2.2s2,0.9,2,2.2v4.5c0,1.3-0.7,2.2-2,2.2s-2-0.9-2-2.2V2.2z M79.1,6.7
			c0,0.8,0.3,1.2,1,1.2s1-0.5,1-1.2V2.1c0-0.8-0.3-1.3-1-1.3s-1,0.5-1,1.3V6.7z"/>
		<path class="st0" d="M87.3,1.7C86.9,1.9,86.5,2,86.1,2V1.2c0.7,0,1.3-0.5,1.5-1.1h0.7v8.6h-1L87.3,1.7z"/>
		<path class="st0" d="M96,2.2v4.4c0,1.4-0.6,2.2-2,2.2S92,8,92,6.6V6.5h1v0.2c0,0.8,0.3,1.2,1,1.2s1.1-0.5,1.1-1.4V4.6
			c-0.2,0.6-0.8,1-1.4,0.9c-1.1,0-1.6-0.8-1.6-2V2.2c0-1.3,0.6-2.2,2-2.2S96,0.9,96,2.2z M93,2.2v1.3c0,0.8,0.3,1.2,1,1.2
			s1-0.5,1-1.2V2.1c0-0.8-0.3-1.2-1-1.2S93,1.3,93,2.2L93,2.2z"/>
	</g>
</g>
</svg>
