<?xml version="1.0" encoding="utf-8"?>
<!-- Generator: Adobe Illustrator 21.0.2, SVG Export Plug-In . SVG Version: 6.00 Build 0)  -->
<svg version="1.1" id="レイヤー_1" xmlns="http://www.w3.org/2000/svg" xmlns:xlink="http://www.w3.org/1999/xlink" x="0px"
	 y="0px" viewBox="0 0 96 8.8" style="enable-background:new 0 0 96 8.8;" xml:space="preserve">
<style type="text/css">
	.st0{fill:#231815;}
</style>
<title>header-text-recruiting_1</title>
<g>
	<path class="st0" d="M1.9,0.1c1.4,0,1.9,0.7,1.9,2v0.7c0,1-0.3,1.5-1.1,1.8c0.8,0.2,1.1,0.9,1.1,1.8v1.3c0,0.4,0,0.7,0.2,1H3
		C2.9,8.5,2.9,8.3,2.9,7.7V6.3c0-1-0.5-1.3-1.3-1.3H0.9v3.7H0V0.1H1.9z M1.6,4.2c0.8,0,1.2-0.2,1.2-1.2V2.2c0-0.8-0.3-1.2-1-1.2H0.9
		v3.2H1.6z"/>
	<path class="st0" d="M10.4,3.9v0.9H8.3v3.1h2.6v0.9H7.3V0.1h3.6V1H8.3v3H10.4z"/>
	<path class="st0" d="M18,2.2V3h-0.9V2.1c0-0.8-0.3-1.2-1-1.2c-0.7,0-1,0.5-1,1.2v4.6c0,0.8,0.3,1.2,1,1.2c0.7,0,1-0.5,1-1.2V5.6H18
		v1.1c0,1.3-0.6,2.2-2,2.2c-1.3,0-1.9-0.9-1.9-2.2V2.2c0-1.3,0.6-2.2,1.9-2.2C17.4,0,18,0.9,18,2.2z"/>
	<path class="st0" d="M23.3,0.1c1.4,0,1.9,0.7,1.9,2v0.7c0,1-0.3,1.5-1.1,1.8c0.8,0.2,1.1,0.9,1.1,1.8v1.3c0,0.4,0,0.7,0.2,1h-1
		c-0.1-0.2-0.2-0.5-0.2-1.1V6.3c0-1-0.5-1.3-1.3-1.3h-0.7v3.7h-1V0.1H23.3z M23.1,4.2c0.8,0,1.2-0.2,1.2-1.2V2.2
		c0-0.8-0.3-1.2-1-1.2h-0.9v3.2H23.1z"/>
	<path class="st0" d="M29.6,6.7c0,0.8,0.3,1.2,1,1.2c0.7,0,1-0.5,1-1.2V0.1h0.9v6.6c0,1.3-0.6,2.2-1.9,2.2c-1.3,0-1.9-0.9-1.9-2.2
		V0.1h1V6.7z"/>
	<path class="st0" d="M36.9,0.1v8.7h-1V0.1H36.9z"/>
	<path class="st0" d="M41.7,8.7V1h-1.6V0.1h4.2V1h-1.6v7.8H41.7z"/>
	<path class="st0" d="M48.3,0.1v8.7h-1V0.1H48.3z"/>
	<path class="st0" d="M52.6,8.7h-0.9V0.1H53l2,6.3V0.1h0.9v8.7h-1l-2.2-7V8.7z"/>
	<path class="st0" d="M63.1,2.2v0.7h-0.9V2.1c0-0.8-0.3-1.2-1-1.2c-0.7,0-1,0.5-1,1.2v4.6c0,0.8,0.3,1.2,1,1.2c0.7,0,1-0.5,1-1.2V5
		h-0.9V4.1h1.8v2.5c0,1.3-0.6,2.2-2,2.2c-1.3,0-1.9-0.9-1.9-2.2V2.2c0-1.3,0.6-2.2,1.9-2.2C62.5,0,63.1,0.9,63.1,2.2z"/>
	<path class="st0" d="M74.8,2.2c0,2.6-2.9,3.5-2.9,5.5v0.1h2.8v0.9h-3.8V8c0-2.8,2.9-3.3,2.9-5.8c0-0.9-0.3-1.4-1-1.4
		c-0.7,0-1,0.5-1,1.3v0.8h-0.9V2.2c0-1.3,0.6-2.2,1.9-2.2C74.2,0,74.8,0.9,74.8,2.2z"/>
	<path class="st0" d="M78.1,2.2c0-1.3,0.7-2.2,2-2.2c1.3,0,2,0.9,2,2.2v4.5c0,1.3-0.7,2.2-2,2.2c-1.3,0-2-0.9-2-2.2V2.2z M79,6.7
		c0,0.8,0.3,1.2,1,1.2c0.7,0,1-0.5,1-1.2V2.1c0-0.8-0.3-1.3-1-1.3c-0.7,0-1,0.5-1,1.3V6.7z"/>
	<path class="st0" d="M87.2,1.7C86.9,1.9,86.5,2,86,2V1.2c0.9,0,1.3-0.5,1.5-1.1h0.7v8.7h-1V1.7z"/>
	<path class="st0" d="M96.1,2.1v0.3c0,0.9-0.3,1.5-1,1.8c0.7,0.3,1,1,1,1.8v0.6c0,1.3-0.7,2.2-2,2.2c-1.3,0-2-0.8-2-2.2V6
		c0-0.9,0.3-1.5,1-1.8c-0.7-0.3-1-0.9-1-1.8V2.1C92,0.8,92.7,0,94,0C95.4,0,96.1,0.8,96.1,2.1z M92.9,2.2v0.4c0,0.8,0.4,1.2,1.1,1.2
		s1.1-0.4,1.1-1.2V2.2c0-0.9-0.4-1.3-1.1-1.3S92.9,1.3,92.9,2.2z M92.9,5.9v0.7c0,0.9,0.4,1.3,1.1,1.3c0.7,0,1.1-0.4,1.1-1.3V5.9
		c0-0.8-0.4-1.2-1.1-1.2S92.9,5.1,92.9,5.9z"/>
</g>
</svg>
