<svg xmlns="http://www.w3.org/2000/svg" viewBox="0 0 629.55 628.9"><defs><style>.cls-1{opacity:0.5;}.cls-2{fill:#dcd200;}</style></defs><title>bg-triangle-l</title><g id="レイヤー_2" data-name="レイヤー 2"><g id="レイヤー_1-2" data-name="レイヤー 1"><g id="レイヤー_36" data-name="レイヤー 36"><g class="cls-1"><polygon class="cls-2" points="12.01 4.24 14.46 0 16.91 4.24 12.01 4.24"/><polygon class="cls-2" points="36.04 4.24 38.49 0 40.94 4.24 36.04 4.24"/><polygon class="cls-2" points="60.06 4.24 62.51 0 64.96 4.24 60.06 4.24"/><polygon class="cls-2" points="84.09 4.24 86.54 0 88.99 4.24 84.09 4.24"/><polygon class="cls-2" points="108.11 4.24 110.56 0 113.01 4.24 108.11 4.24"/><polygon class="cls-2" points="132.14 4.24 134.59 0 137.04 4.24 132.14 4.24"/><polygon class="cls-2" points="156.16 4.24 158.61 0 161.06 4.24 156.16 4.24"/><polygon class="cls-2" points="180.19 4.24 182.64 0 185.09 4.24 180.19 4.24"/><polygon class="cls-2" points="204.21 4.24 206.66 0 209.11 4.24 204.21 4.24"/><polygon class="cls-2" points="228.24 4.24 230.69 0 233.14 4.24 228.24 4.24"/><polygon class="cls-2" points="252.26 4.24 254.71 0 257.16 4.24 252.26 4.24"/><polygon class="cls-2" points="276.29 4.24 278.74 0 281.19 4.24 276.29 4.24"/><polygon class="cls-2" points="300.31 4.24 302.76 0 305.21 4.24 300.31 4.24"/><polygon class="cls-2" points="324.34 4.24 326.79 0 329.24 4.24 324.34 4.24"/><polygon class="cls-2" points="348.36 4.24 350.81 0 353.26 4.24 348.36 4.24"/><polygon class="cls-2" points="372.39 4.24 374.84 0 377.29 4.24 372.39 4.24"/><polygon class="cls-2" points="396.41 4.24 398.86 0 401.31 4.24 396.41 4.24"/><polygon class="cls-2" points="420.44 4.24 422.89 0 425.34 4.24 420.44 4.24"/><polygon class="cls-2" points="444.46 4.24 446.92 0 449.36 4.24 444.46 4.24"/><polygon class="cls-2" points="468.49 4.24 470.94 0 473.39 4.24 468.49 4.24"/><polygon class="cls-2" points="492.51 4.24 494.96 0 497.42 4.24 492.51 4.24"/><polygon class="cls-2" points="516.54 4.24 518.99 0 521.44 4.24 516.54 4.24"/><polygon class="cls-2" points="540.57 4.24 543.01 0 545.47 4.24 540.57 4.24"/><polygon class="cls-2" points="564.59 4.24 567.04 0 569.49 4.24 564.59 4.24"/><polygon class="cls-2" points="588.62 4.24 591.07 0 593.51 4.24 588.62 4.24"/><polygon class="cls-2" points="612.64 4.24 615.09 0 617.54 4.24 612.64 4.24"/><polygon class="cls-2" points="0 28.27 2.45 24.02 4.9 28.27 0 28.27"/><polygon class="cls-2" points="24.02 28.27 26.48 24.02 28.93 28.27 24.02 28.27"/><polygon class="cls-2" points="48.05 28.27 50.5 24.02 52.95 28.27 48.05 28.27"/><polygon class="cls-2" points="72.08 28.27 74.53 24.02 76.97 28.27 72.08 28.27"/><polygon class="cls-2" points="96.1 28.27 98.55 24.02 101 28.27 96.1 28.27"/><polygon class="cls-2" points="120.13 28.27 122.58 24.02 125.03 28.27 120.13 28.27"/><polygon class="cls-2" points="144.15 28.27 146.6 24.02 149.05 28.27 144.15 28.27"/><polygon class="cls-2" points="168.18 28.27 170.63 24.02 173.08 28.27 168.18 28.27"/><polygon class="cls-2" points="192.2 28.27 194.65 24.02 197.1 28.27 192.2 28.27"/><polygon class="cls-2" points="216.23 28.27 218.68 24.02 221.13 28.27 216.23 28.27"/><polygon class="cls-2" points="240.25 28.27 242.7 24.02 245.15 28.27 240.25 28.27"/><polygon class="cls-2" points="264.28 28.27 266.73 24.02 269.18 28.27 264.28 28.27"/><polygon class="cls-2" points="288.3 28.27 290.75 24.02 293.2 28.27 288.3 28.27"/><polygon class="cls-2" points="312.33 28.27 314.78 24.02 317.23 28.27 312.33 28.27"/><polygon class="cls-2" points="336.35 28.27 338.8 24.02 341.25 28.27 336.35 28.27"/><polygon class="cls-2" points="360.38 28.27 362.83 24.02 365.28 28.27 360.38 28.27"/><polygon class="cls-2" points="384.4 28.27 386.85 24.02 389.3 28.27 384.4 28.27"/><polygon class="cls-2" points="408.43 28.27 410.88 24.02 413.33 28.27 408.43 28.27"/><polygon class="cls-2" points="432.45 28.27 434.9 24.02 437.35 28.27 432.45 28.27"/><polygon class="cls-2" points="456.48 28.27 458.93 24.02 461.38 28.27 456.48 28.27"/><polygon class="cls-2" points="480.5 28.27 482.95 24.02 485.4 28.27 480.5 28.27"/><polygon class="cls-2" points="504.53 28.27 506.98 24.02 509.43 28.27 504.53 28.27"/><polygon class="cls-2" points="528.55 28.27 531 24.02 533.45 28.27 528.55 28.27"/><polygon class="cls-2" points="552.58 28.27 555.03 24.02 557.48 28.27 552.58 28.27"/><polygon class="cls-2" points="576.6 28.27 579.05 24.02 581.5 28.27 576.6 28.27"/><polygon class="cls-2" points="600.63 28.27 603.08 24.02 605.53 28.27 600.63 28.27"/><polygon class="cls-2" points="624.65 28.27 627.1 24.02 629.55 28.27 624.65 28.27"/><polygon class="cls-2" points="12.01 52.29 14.46 48.05 16.91 52.29 12.01 52.29"/><polygon class="cls-2" points="36.04 52.29 38.49 48.05 40.94 52.29 36.04 52.29"/><polygon class="cls-2" points="60.06 52.29 62.51 48.05 64.96 52.29 60.06 52.29"/><polygon class="cls-2" points="84.09 52.29 86.54 48.05 88.99 52.29 84.09 52.29"/><polygon class="cls-2" points="108.11 52.29 110.56 48.05 113.01 52.29 108.11 52.29"/><polygon class="cls-2" points="132.14 52.29 134.59 48.05 137.04 52.29 132.14 52.29"/><polygon class="cls-2" points="156.16 52.29 158.61 48.05 161.06 52.29 156.16 52.29"/><polygon class="cls-2" points="180.19 52.29 182.64 48.05 185.09 52.29 180.19 52.29"/><polygon class="cls-2" points="204.21 52.29 206.66 48.05 209.11 52.29 204.21 52.29"/><polygon class="cls-2" points="228.24 52.29 230.69 48.05 233.14 52.29 228.24 52.29"/><polygon class="cls-2" points="252.26 52.29 254.71 48.05 257.16 52.29 252.26 52.29"/><polygon class="cls-2" points="276.1 52.46 278.74 47.89 281.38 52.46 276.1 52.46"/><polygon class="cls-2" points="300.03 52.54 302.76 47.8 305.5 52.54 300.03 52.54"/><polygon class="cls-2" points="324.01 52.58 326.79 47.77 329.57 52.58 324.01 52.58"/><polygon class="cls-2" points="348.08 52.54 350.81 47.8 353.55 52.54 348.08 52.54"/><polygon class="cls-2" points="372.25 52.41 374.84 47.93 377.43 52.41 372.25 52.41"/><polygon class="cls-2" points="396.41 52.29 398.86 48.05 401.31 52.29 396.41 52.29"/><polygon class="cls-2" points="420.44 52.29 422.89 48.05 425.34 52.29 420.44 52.29"/><polygon class="cls-2" points="444.46 52.29 446.92 48.05 449.36 52.29 444.46 52.29"/><polygon class="cls-2" points="468.49 52.29 470.94 48.05 473.39 52.29 468.49 52.29"/><polygon class="cls-2" points="492.51 52.29 494.96 48.05 497.42 52.29 492.51 52.29"/><polygon class="cls-2" points="516.54 52.29 518.99 48.05 521.44 52.29 516.54 52.29"/><polygon class="cls-2" points="540.57 52.29 543.01 48.05 545.47 52.29 540.57 52.29"/><polygon class="cls-2" points="564.59 52.29 567.04 48.05 569.49 52.29 564.59 52.29"/><polygon class="cls-2" points="588.62 52.29 591.07 48.05 593.51 52.29 588.62 52.29"/><polygon class="cls-2" points="612.64 52.29 615.09 48.05 617.54 52.29 612.64 52.29"/><polygon class="cls-2" points="0 76.32 2.45 72.08 4.9 76.32 0 76.32"/><polygon class="cls-2" points="24.02 76.32 26.48 72.08 28.93 76.32 24.02 76.32"/><polygon class="cls-2" points="48.05 76.32 50.5 72.08 52.95 76.32 48.05 76.32"/><polygon class="cls-2" points="72.08 76.32 74.53 72.08 76.97 76.32 72.08 76.32"/><polygon class="cls-2" points="96.1 76.32 98.55 72.08 101 76.32 96.1 76.32"/><polygon class="cls-2" points="120.13 76.32 122.58 72.08 125.03 76.32 120.13 76.32"/><polygon class="cls-2" points="144.15 76.32 146.6 72.08 149.05 76.32 144.15 76.32"/><polygon class="cls-2" points="168.18 76.32 170.63 72.08 173.08 76.32 168.18 76.32"/><polygon class="cls-2" points="192.2 76.32 194.65 72.08 197.1 76.32 192.2 76.32"/><polygon class="cls-2" points="216.13 76.4 218.68 71.99 221.22 76.4 216.13 76.4"/><polygon class="cls-2" points="239.83 76.69 242.7 71.71 245.57 76.69 239.83 76.69"/><polygon class="cls-2" points="263.62 76.89 266.73 71.5 269.83 76.89 263.62 76.89"/><polygon class="cls-2" points="287.45 77.05 290.75 71.34 294.05 77.05 287.45 77.05"/><polygon class="cls-2" points="311.38 77.13 314.78 71.26 318.17 77.13 311.38 77.13"/><polygon class="cls-2" points="335.36 77.17 338.8 71.22 342.24 77.17 335.36 77.17"/><polygon class="cls-2" points="359.43 77.13 362.83 71.26 366.22 77.13 359.43 77.13"/><polygon class="cls-2" points="383.55 77.05 386.85 71.34 390.15 77.05 383.55 77.05"/><polygon class="cls-2" points="407.77 76.89 410.88 71.5 413.99 76.89 407.77 76.89"/><polygon class="cls-2" points="432.08 76.64 434.9 71.75 437.73 76.64 432.08 76.64"/><polygon class="cls-2" points="456.43 76.36 458.93 72.03 461.42 76.36 456.43 76.36"/><polygon class="cls-2" points="480.5 76.32 482.95 72.08 485.4 76.32 480.5 76.32"/><polygon class="cls-2" points="504.53 76.32 506.98 72.08 509.43 76.32 504.53 76.32"/><polygon class="cls-2" points="528.55 76.32 531 72.08 533.45 76.32 528.55 76.32"/><polygon class="cls-2" points="552.58 76.32 555.03 72.08 557.48 76.32 552.58 76.32"/><polygon class="cls-2" points="576.6 76.32 579.05 72.08 581.5 76.32 576.6 76.32"/><polygon class="cls-2" points="600.63 76.32 603.08 72.08 605.53 76.32 600.63 76.32"/><polygon class="cls-2" points="624.65 76.32 627.1 72.08 629.55 76.32 624.65 76.32"/><polygon class="cls-2" points="12.01 100.34 14.46 96.1 16.91 100.34 12.01 100.34"/><polygon class="cls-2" points="36.04 100.34 38.49 96.1 40.94 100.34 36.04 100.34"/><polygon class="cls-2" points="60.06 100.34 62.51 96.1 64.96 100.34 60.06 100.34"/><polygon class="cls-2" points="84.09 100.34 86.54 96.1 88.99 100.34 84.09 100.34"/><polygon class="cls-2" points="108.11 100.34 110.56 96.1 113.01 100.34 108.11 100.34"/><polygon class="cls-2" points="132.14 100.34 134.59 96.1 137.04 100.34 132.14 100.34"/><polygon class="cls-2" points="156.16 100.34 158.61 96.1 161.06 100.34 156.16 100.34"/><polygon class="cls-2" points="179.91 100.59 182.64 95.86 185.37 100.59 179.91 100.59"/><polygon class="cls-2" points="203.51 100.95 206.66 95.49 209.82 100.95 203.51 100.95"/><polygon class="cls-2" points="227.2 101.24 230.69 95.2 234.18 101.24 227.2 101.24"/><polygon class="cls-2" points="250.94 101.49 254.71 94.96 258.48 101.49 250.94 101.49"/><polygon class="cls-2" points="274.74 101.69 278.74 94.75 282.74 101.69 274.74 101.69"/><polygon class="cls-2" points="298.62 101.81 302.76 94.63 306.91 101.81 298.62 101.81"/><polygon class="cls-2" points="322.6 101.85 326.79 94.59 330.98 101.85 322.6 101.85"/><polygon class="cls-2" points="346.67 101.81 350.81 94.63 354.96 101.81 346.67 101.81"/><polygon class="cls-2" points="370.83 101.69 374.84 94.75 378.84 101.69 370.83 101.69"/><polygon class="cls-2" points="395.1 101.49 398.86 94.96 402.63 101.49 395.1 101.49"/><polygon class="cls-2" points="419.4 101.24 422.89 95.2 426.38 101.24 419.4 101.24"/><polygon class="cls-2" points="443.81 100.91 446.92 95.53 450.02 100.91 443.81 100.91"/><polygon class="cls-2" points="468.21 100.59 470.94 95.86 473.67 100.59 468.21 100.59"/><polygon class="cls-2" points="492.51 100.34 494.96 96.1 497.42 100.34 492.51 100.34"/><polygon class="cls-2" points="516.54 100.34 518.99 96.1 521.44 100.34 516.54 100.34"/><polygon class="cls-2" points="540.57 100.34 543.01 96.1 545.47 100.34 540.57 100.34"/><polygon class="cls-2" points="564.59 100.34 567.04 96.1 569.49 100.34 564.59 100.34"/><polygon class="cls-2" points="588.62 100.34 591.07 96.1 593.51 100.34 588.62 100.34"/><polygon class="cls-2" points="612.64 100.34 615.09 96.1 617.54 100.34 612.64 100.34"/><polygon class="cls-2" points="0 124.37 2.45 120.13 4.9 124.37 0 124.37"/><polygon class="cls-2" points="24.02 124.37 26.48 120.13 28.93 124.37 24.02 124.37"/><polygon class="cls-2" points="48.05 124.37 50.5 120.13 52.95 124.37 48.05 124.37"/><polygon class="cls-2" points="72.08 124.37 74.53 120.13 76.97 124.37 72.08 124.37"/><polygon class="cls-2" points="96.1 124.37 98.55 120.13 101 124.37 96.1 124.37"/><polygon class="cls-2" points="120.13 124.37 122.58 120.13 125.03 124.37 120.13 124.37"/><polygon class="cls-2" points="144.15 124.37 146.6 120.13 149.05 124.37 144.15 124.37"/><polygon class="cls-2" points="167.85 124.65 170.63 119.84 173.41 124.65 167.85 124.65"/><polygon class="cls-2" points="191.35 125.1 194.65 119.39 197.95 125.1 191.35 125.1"/><polygon class="cls-2" points="214.91 125.51 218.68 118.98 222.44 125.51 214.91 125.51"/><polygon class="cls-2" points="238.56 125.84 242.7 118.66 246.85 125.84 238.56 125.84"/><polygon class="cls-2" points="262.2 126.16 266.73 118.33 271.25 126.16 262.2 126.16"/><polygon class="cls-2" points="285.99 126.37 290.75 118.13 295.51 126.37 285.99 126.37"/><polygon class="cls-2" points="309.88 126.49 314.78 118 319.68 126.49 309.88 126.49"/><polygon class="cls-2" points="333.86 126.53 338.8 117.96 343.75 126.53 333.86 126.53"/><polygon class="cls-2" points="357.93 126.49 362.83 118 367.73 126.49 357.93 126.49"/><polygon class="cls-2" points="382.14 126.33 386.85 118.17 391.56 126.33 382.14 126.33"/><polygon class="cls-2" points="406.4 126.12 410.88 118.37 415.35 126.12 406.4 126.12"/><polygon class="cls-2" points="430.76 125.84 434.9 118.66 439.05 125.84 430.76 125.84"/><polygon class="cls-2" points="455.2 125.47 458.93 119.02 462.65 125.47 455.2 125.47"/><polygon class="cls-2" points="479.7 125.06 482.95 119.43 486.2 125.06 479.7 125.06"/><polygon class="cls-2" points="504.2 124.65 506.98 119.84 509.76 124.65 504.2 124.65"/><polygon class="cls-2" points="528.55 124.37 531 120.13 533.45 124.37 528.55 124.37"/><polygon class="cls-2" points="552.58 124.37 555.03 120.13 557.48 124.37 552.58 124.37"/><polygon class="cls-2" points="576.6 124.37 579.05 120.13 581.5 124.37 576.6 124.37"/><polygon class="cls-2" points="600.63 124.37 603.08 120.13 605.53 124.37 600.63 124.37"/><polygon class="cls-2" points="624.65 124.37 627.1 120.13 629.55 124.37 624.65 124.37"/><polygon class="cls-2" points="12.01 148.39 14.46 144.15 16.91 148.39 12.01 148.39"/><polygon class="cls-2" points="36.04 148.39 38.49 144.15 40.94 148.39 36.04 148.39"/><polygon class="cls-2" points="60.06 148.39 62.51 144.15 64.96 148.39 60.06 148.39"/><polygon class="cls-2" points="84.09 148.39 86.54 144.15 88.99 148.39 84.09 148.39"/><polygon class="cls-2" points="108.11 148.39 110.56 144.15 113.01 148.39 108.11 148.39"/><polygon class="cls-2" points="131.86 148.64 134.59 143.91 137.32 148.64 131.86 148.64"/><polygon class="cls-2" points="155.32 149.13 158.61 143.42 161.91 149.13 155.32 149.13"/><polygon class="cls-2" points="178.82 149.58 182.64 142.97 186.45 149.58 178.82 149.58"/><polygon class="cls-2" points="202.33 150.03 206.66 142.52 211 150.03 202.33 150.03"/><polygon class="cls-2" points="225.88 150.43 230.69 142.11 235.49 150.43 225.88 150.43"/><polygon class="cls-2" points="249.48 150.8 254.71 141.74 259.94 150.8 249.48 150.8"/><polygon class="cls-2" points="273.18 151.09 278.74 141.46 284.3 151.09 273.18 151.09"/><polygon class="cls-2" points="297.02 151.25 302.76 141.29 308.51 151.25 297.02 151.25"/><polygon class="cls-2" points="320.95 151.33 326.79 141.21 332.63 151.33 320.95 151.33"/><polygon class="cls-2" points="345.07 151.25 350.81 141.29 356.56 151.25 345.07 151.25"/><polygon class="cls-2" points="369.33 151.05 374.84 141.5 380.35 151.05 369.33 151.05"/><polygon class="cls-2" points="393.68 150.76 398.86 141.78 404.05 150.76 393.68 150.76"/><polygon class="cls-2" points="418.08 150.43 422.89 142.11 427.69 150.43 418.08 150.43"/><polygon class="cls-2" points="442.58 150.03 446.92 142.52 451.25 150.03 442.58 150.03"/><polygon class="cls-2" points="467.12 149.58 470.94 142.97 474.75 149.58 467.12 149.58"/><polygon class="cls-2" points="491.71 149.09 494.96 143.46 498.21 149.09 491.71 149.09"/><polygon class="cls-2" points="516.26 148.64 518.99 143.91 521.72 148.64 516.26 148.64"/><polygon class="cls-2" points="540.57 148.39 543.01 144.15 545.47 148.39 540.57 148.39"/><polygon class="cls-2" points="564.59 148.39 567.04 144.15 569.49 148.39 564.59 148.39"/><polygon class="cls-2" points="588.62 148.39 591.07 144.15 593.51 148.39 588.62 148.39"/><polygon class="cls-2" points="612.64 148.39 615.09 144.15 617.54 148.39 612.64 148.39"/><polygon class="cls-2" points="0 172.42 2.45 168.18 4.9 172.42 0 172.42"/><polygon class="cls-2" points="24.02 172.42 26.48 168.18 28.93 172.42 24.02 172.42"/><polygon class="cls-2" points="48.05 172.42 50.5 168.18 52.95 172.42 48.05 172.42"/><polygon class="cls-2" points="72.08 172.42 74.53 168.18 76.97 172.42 72.08 172.42"/><polygon class="cls-2" points="96.1 172.42 98.55 168.18 101 172.42 96.1 172.42"/><polygon class="cls-2" points="120.03 172.5 122.58 168.09 125.12 172.5 120.03 172.5"/><polygon class="cls-2" points="143.4 173.07 146.6 167.52 149.8 173.07 143.4 173.07"/><polygon class="cls-2" points="166.86 173.56 170.63 167.03 174.39 173.56 166.86 173.56"/><polygon class="cls-2" points="190.27 174.09 194.65 166.5 199.03 174.09 190.27 174.09"/><polygon class="cls-2" points="213.73 174.58 218.68 166.01 223.62 174.58 213.73 174.58"/><polygon class="cls-2" points="237.19 175.07 242.7 165.52 248.21 175.07 237.19 175.07"/><polygon class="cls-2" points="260.7 175.52 266.73 165.07 272.76 175.52 260.7 175.52"/><polygon class="cls-2" points="284.39 175.81 290.75 164.79 297.11 175.81 284.39 175.81"/><polygon class="cls-2" points="308.18 176.01 314.78 164.59 321.37 176.01 308.18 176.01"/><polygon class="cls-2" points="332.06 176.13 338.8 164.46 345.54 176.13 332.06 176.13"/><polygon class="cls-2" points="356.23 176.01 362.83 164.59 369.42 176.01 356.23 176.01"/><polygon class="cls-2" points="380.49 175.81 386.85 164.79 393.21 175.81 380.49 175.81"/><polygon class="cls-2" points="404.89 175.48 410.88 165.12 416.86 175.48 404.89 175.48"/><polygon class="cls-2" points="429.39 175.07 434.9 165.52 440.41 175.07 429.39 175.07"/><polygon class="cls-2" points="454.03 174.54 458.93 166.06 463.83 174.54 454.03 174.54"/><polygon class="cls-2" points="478.62 174.05 482.95 166.54 487.29 174.05 478.62 174.05"/><polygon class="cls-2" points="503.21 173.56 506.98 167.03 510.75 173.56 503.21 173.56"/><polygon class="cls-2" points="527.85 173.03 531 167.56 534.16 173.03 527.85 173.03"/><polygon class="cls-2" points="552.53 172.46 555.03 168.13 557.52 172.46 552.53 172.46"/><polygon class="cls-2" points="576.6 172.42 579.05 168.18 581.5 172.42 576.6 172.42"/><polygon class="cls-2" points="600.63 172.42 603.08 168.18 605.53 172.42 600.63 172.42"/><polygon class="cls-2" points="624.65 172.42 627.1 168.18 629.55 172.42 624.65 172.42"/><polygon class="cls-2" points="12.01 196.44 14.46 192.2 16.91 196.44 12.01 196.44"/><polygon class="cls-2" points="36.04 196.44 38.49 192.2 40.94 196.44 36.04 196.44"/><polygon class="cls-2" points="60.06 196.44 62.51 192.2 64.96 196.44 60.06 196.44"/><polygon class="cls-2" points="84.09 196.44 86.54 192.2 88.99 196.44 84.09 196.44"/><polygon class="cls-2" points="107.69 196.81 110.56 191.83 113.44 196.81 107.69 196.81"/><polygon class="cls-2" points="131.01 197.42 134.59 191.22 138.17 197.42 131.01 197.42"/><polygon class="cls-2" points="154.37 197.99 158.61 190.65 162.85 197.99 154.37 197.99"/><polygon class="cls-2" points="177.74 198.56 182.64 190.08 187.54 198.56 177.74 198.56"/><polygon class="cls-2" points="201.06 199.18 206.66 189.47 212.27 199.18 201.06 199.18"/><polygon class="cls-2" points="224.47 199.71 230.69 188.94 236.91 199.71 224.47 199.71"/><polygon class="cls-2" points="247.88 200.24 254.71 188.41 261.54 200.24 247.88 200.24"/><polygon class="cls-2" points="271.44 200.65 278.74 188 286.04 200.65 271.44 200.65"/><polygon class="cls-2" points="295.08 200.97 302.76 187.67 310.44 200.97 295.08 200.97"/><polygon class="cls-2" points="319.02 201.05 326.79 187.59 334.56 201.05 319.02 201.05"/><polygon class="cls-2" points="343.13 200.97 350.81 187.67 358.49 200.97 343.13 200.97"/><polygon class="cls-2" points="367.54 200.65 374.84 188 382.14 200.65 367.54 200.65"/><polygon class="cls-2" points="392.08 200.2 398.86 188.45 405.65 200.2 392.08 200.2"/><polygon class="cls-2" points="416.67 199.71 422.89 188.94 429.11 199.71 416.67 199.71"/><polygon class="cls-2" points="441.36 199.14 446.92 189.51 452.47 199.14 441.36 199.14"/><polygon class="cls-2" points="466.04 198.56 470.94 190.08 475.84 198.56 466.04 198.56"/><polygon class="cls-2" points="490.73 197.99 494.96 190.65 499.2 197.99 490.73 197.99"/><polygon class="cls-2" points="515.46 197.38 518.99 191.26 522.52 197.38 515.46 197.38"/><polygon class="cls-2" points="540.14 196.81 543.01 191.83 545.89 196.81 540.14 196.81"/><polygon class="cls-2" points="564.59 196.44 567.04 192.2 569.49 196.44 564.59 196.44"/><polygon class="cls-2" points="588.62 196.44 591.07 192.2 593.51 196.44 588.62 196.44"/><polygon class="cls-2" points="612.64 196.44 615.09 192.2 617.54 196.44 612.64 196.44"/><polygon class="cls-2" points="0 220.47 2.45 216.23 4.9 220.47 0 220.47"/><polygon class="cls-2" points="24.02 220.47 26.48 216.23 28.93 220.47 24.02 220.47"/><polygon class="cls-2" points="48.05 220.47 50.5 216.23 52.95 220.47 48.05 220.47"/><polygon class="cls-2" points="72.08 220.47 74.53 216.23 76.97 220.47 72.08 220.47"/><polygon class="cls-2" points="96.01 220.55 98.55 216.14 101.09 220.55 96.01 220.55"/><polygon class="cls-2" points="119.37 221.12 122.58 215.57 125.78 221.12 119.37 221.12"/><polygon class="cls-2" points="142.64 221.78 146.6 214.92 150.56 221.78 142.64 221.78"/><polygon class="cls-2" points="165.96 222.39 170.63 214.31 175.29 222.39 165.96 222.39"/><polygon class="cls-2" points="189.23 223.04 194.65 213.66 200.07 223.04 189.23 223.04"/><polygon class="cls-2" points="212.46 223.73 218.68 212.96 224.89 223.73 212.46 223.73"/><polygon class="cls-2" points="235.73 224.38 242.7 212.31 249.67 224.38 235.73 224.38"/><polygon class="cls-2" points="259 225.04 266.73 211.66 274.45 225.04 259 225.04"/><polygon class="cls-2" points="282.41 225.57 290.75 211.13 299.09 225.57 282.41 225.57"/><polygon class="cls-2" points="306.01 225.94 314.78 210.76 323.54 225.94 306.01 225.94"/><polygon class="cls-2" points="329.85 226.1 338.8 210.59 347.75 226.1 329.85 226.1"/><polygon class="cls-2" points="354.06 225.94 362.83 210.76 371.59 225.94 354.06 225.94"/><polygon class="cls-2" points="378.51 225.57 386.85 211.13 395.19 225.57 378.51 225.57"/><polygon class="cls-2" points="403.2 225 410.88 211.7 418.56 225 403.2 225"/><polygon class="cls-2" points="427.98 224.34 434.9 212.35 441.83 224.34 427.98 224.34"/><polygon class="cls-2" points="452.75 223.69 458.93 213 465.1 223.69 452.75 223.69"/><polygon class="cls-2" points="477.58 223 482.95 213.7 488.32 223 477.58 223"/><polygon class="cls-2" points="502.36 222.35 506.98 214.35 511.59 222.35 502.36 222.35"/><polygon class="cls-2" points="527.09 221.73 531 214.96 534.91 221.73 527.09 221.73"/><polygon class="cls-2" points="551.82 221.12 555.03 215.57 558.23 221.12 551.82 221.12"/><polygon class="cls-2" points="576.56 220.51 579.05 216.19 581.55 220.51 576.56 220.51"/><polygon class="cls-2" points="600.63 220.47 603.08 216.23 605.53 220.47 600.63 220.47"/><polygon class="cls-2" points="624.65 220.47 627.1 216.23 629.55 220.47 624.65 220.47"/><polygon class="cls-2" points="12.01 244.49 14.46 240.25 16.91 244.49 12.01 244.49"/><polygon class="cls-2" points="36.04 244.49 38.49 240.25 40.94 244.49 36.04 244.49"/><polygon class="cls-2" points="60.06 244.49 62.51 240.25 64.96 244.49 60.06 244.49"/><polygon class="cls-2" points="83.76 244.78 86.54 239.97 89.32 244.78 83.76 244.78"/><polygon class="cls-2" points="107.08 245.39 110.56 239.35 114.05 245.39 107.08 245.39"/><polygon class="cls-2" points="130.35 246.04 134.59 238.7 138.83 246.04 130.35 246.04"/><polygon class="cls-2" points="153.57 246.74 158.61 238.01 163.65 246.74 153.57 246.74"/><polygon class="cls-2" points="176.75 247.47 182.64 237.27 188.53 247.47 176.75 247.47"/><polygon class="cls-2" points="199.88 248.25 206.66 236.5 213.45 248.25 199.88 248.25"/><polygon class="cls-2" points="223.01 249.02 230.69 235.72 238.37 249.02 223.01 249.02"/><polygon class="cls-2" points="246.09 249.84 254.71 234.91 263.33 249.84 246.09 249.84"/><polygon class="cls-2" points="269.32 250.53 278.74 234.21 288.16 250.53 269.32 250.53"/><polygon class="cls-2" points="293.06 250.78 302.76 233.97 312.47 250.78 293.06 250.78"/><polygon class="cls-2" points="317.08 250.78 326.79 233.97 336.49 250.78 317.08 250.78"/><polygon class="cls-2" points="341.11 250.78 350.81 233.97 360.52 250.78 341.11 250.78"/><polygon class="cls-2" points="365.42 250.53 374.84 234.21 384.26 250.53 365.42 250.53"/><polygon class="cls-2" points="390.29 249.8 398.86 234.95 407.44 249.8 390.29 249.8"/><polygon class="cls-2" points="415.21 249.02 422.89 235.72 430.57 249.02 415.21 249.02"/><polygon class="cls-2" points="440.18 248.21 446.92 236.54 453.65 248.21 440.18 248.21"/><polygon class="cls-2" points="465.1 247.43 470.94 237.31 476.78 247.43 465.1 247.43"/><polygon class="cls-2" points="490.02 246.66 494.96 238.09 499.91 246.66 490.02 246.66"/><polygon class="cls-2" points="514.75 246.04 518.99 238.7 523.23 246.04 514.75 246.04"/><polygon class="cls-2" points="539.58 245.35 543.01 239.39 546.45 245.35 539.58 245.35"/><polygon class="cls-2" points="564.31 244.74 567.04 240.01 569.77 244.74 564.31 244.74"/><polygon class="cls-2" points="588.62 244.49 591.07 240.25 593.51 244.49 588.62 244.49"/><polygon class="cls-2" points="612.64 244.49 615.09 240.25 617.54 244.49 612.64 244.49"/><polygon class="cls-2" points="0 268.52 2.45 264.28 4.9 268.52 0 268.52"/><polygon class="cls-2" points="24.02 268.52 26.48 264.28 28.93 268.52 24.02 268.52"/><polygon class="cls-2" points="48.05 268.52 50.5 264.28 52.95 268.52 48.05 268.52"/><polygon class="cls-2" points="72.08 268.52 74.53 264.28 76.97 268.52 72.08 268.52"/><polygon class="cls-2" points="95.58 268.97 98.55 263.83 101.52 268.97 95.58 268.97"/><polygon class="cls-2" points="118.85 269.62 122.58 263.18 126.3 269.62 118.85 269.62"/><polygon class="cls-2" points="142.08 270.31 146.6 262.48 151.12 270.31 142.08 270.31"/><polygon class="cls-2" points="165.26 271.05 170.63 261.75 176 271.05 165.26 271.05"/><polygon class="cls-2" points="188.39 271.82 194.65 260.97 200.92 271.82 188.39 271.82"/><polygon class="cls-2" points="211.42 272.68 218.68 260.12 225.93 272.68 211.42 272.68"/><polygon class="cls-2" points="234.31 273.66 242.7 259.13 251.09 273.66 234.31 273.66"/><polygon class="cls-2" points="257.21 274.64 266.73 258.16 276.24 274.64 257.21 274.64"/><polygon class="cls-2" points="281.05 274.8 290.75 257.99 300.46 274.8 281.05 274.8"/><polygon class="cls-2" points="305.07 274.8 314.78 257.99 324.48 274.8 305.07 274.8"/><polygon class="cls-2" points="329.1 274.8 338.8 257.99 348.51 274.8 329.1 274.8"/><polygon class="cls-2" points="353.12 274.8 362.83 257.99 372.53 274.8 353.12 274.8"/><polygon class="cls-2" points="377.15 274.8 386.85 257.99 396.56 274.8 377.15 274.8"/><polygon class="cls-2" points="401.45 274.56 410.88 258.24 420.3 274.56 401.45 274.56"/><polygon class="cls-2" points="426.56 273.62 434.9 259.18 443.24 273.62 426.56 273.62"/><polygon class="cls-2" points="451.72 272.64 458.93 260.16 466.13 272.64 451.72 272.64"/><polygon class="cls-2" points="476.73 271.78 482.95 261.01 489.17 271.78 476.73 271.78"/><polygon class="cls-2" points="501.65 271.01 506.98 261.79 512.3 271.01 501.65 271.01"/><polygon class="cls-2" points="526.53 270.27 531 262.52 535.48 270.27 526.53 270.27"/><polygon class="cls-2" points="551.35 269.58 555.03 263.22 558.7 269.58 551.35 269.58"/><polygon class="cls-2" points="576.13 268.93 579.05 263.87 581.97 268.93 576.13 268.93"/><polygon class="cls-2" points="600.63 268.52 603.08 264.28 605.53 268.52 600.63 268.52"/><polygon class="cls-2" points="624.65 268.52 627.1 264.28 629.55 268.52 624.65 268.52"/><polygon class="cls-2" points="12.01 292.54 14.46 288.3 16.91 292.54 12.01 292.54"/><polygon class="cls-2" points="36.04 292.54 38.49 288.3 40.94 292.54 36.04 292.54"/><polygon class="cls-2" points="60.06 292.54 62.51 288.3 64.96 292.54 60.06 292.54"/><polygon class="cls-2" points="83.43 293.12 86.54 287.73 89.65 293.12 83.43 293.12"/><polygon class="cls-2" points="106.7 293.77 110.56 287.08 114.42 293.77 106.7 293.77"/><polygon class="cls-2" points="129.88 294.5 134.59 286.34 139.3 294.5 129.88 294.5"/><polygon class="cls-2" points="153.01 295.28 158.61 285.57 164.22 295.28 153.01 295.28"/><polygon class="cls-2" points="176.09 296.09 182.64 284.75 189.19 296.09 176.09 296.09"/><polygon class="cls-2" points="198.98 297.07 206.66 283.77 214.34 297.07 198.98 297.07"/><polygon class="cls-2" points="221.78 298.13 230.69 282.71 239.59 298.13 221.78 298.13"/><polygon class="cls-2" points="245.01 298.83 254.71 282.02 264.42 298.83 245.01 298.83"/><polygon class="cls-2" points="269.03 298.83 278.74 282.02 288.44 298.83 269.03 298.83"/><polygon class="cls-2" points="293.06 298.83 302.76 282.02 312.47 298.83 293.06 298.83"/><polygon class="cls-2" points="317.08 298.83 326.79 282.02 336.49 298.83 317.08 298.83"/><polygon class="cls-2" points="341.11 298.83 350.81 282.02 360.52 298.83 341.11 298.83"/><polygon class="cls-2" points="365.13 298.83 374.84 282.02 384.54 298.83 365.13 298.83"/><polygon class="cls-2" points="389.16 298.83 398.86 282.02 408.57 298.83 389.16 298.83"/><polygon class="cls-2" points="414.03 298.09 422.89 282.75 431.75 298.09 414.03 298.09"/><polygon class="cls-2" points="439.33 296.99 446.92 283.85 454.5 296.99 439.33 296.99"/><polygon class="cls-2" points="464.44 296.05 470.94 284.79 477.44 296.05 464.44 296.05"/><polygon class="cls-2" points="489.41 295.24 494.96 285.61 500.52 295.24 489.41 295.24"/><polygon class="cls-2" points="514.37 294.42 518.99 286.42 523.61 294.42 514.37 294.42"/><polygon class="cls-2" points="539.2 293.73 543.01 287.12 546.83 293.73 539.2 293.73"/><polygon class="cls-2" points="563.98 293.07 567.04 287.77 570.1 293.07 563.98 293.07"/><polygon class="cls-2" points="588.62 292.54 591.07 288.3 593.51 292.54 588.62 292.54"/><polygon class="cls-2" points="612.64 292.54 615.09 288.3 617.54 292.54 612.64 292.54"/><polygon class="cls-2" points="0 316.57 2.45 312.33 4.9 316.57 0 316.57"/><polygon class="cls-2" points="24.02 316.57 26.48 312.33 28.93 316.57 24.02 316.57"/><polygon class="cls-2" points="48.05 316.57 50.5 312.33 52.95 316.57 48.05 316.57"/><polygon class="cls-2" points="72.08 316.57 74.53 312.33 76.97 316.57 72.08 316.57"/><polygon class="cls-2" points="95.35 317.22 98.55 311.67 101.75 317.22 95.35 317.22"/><polygon class="cls-2" points="118.62 317.88 122.58 311.02 126.53 317.88 118.62 317.88"/><polygon class="cls-2" points="141.8 318.61 146.6 310.29 151.41 318.61 141.8 318.61"/><polygon class="cls-2" points="164.88 319.43 170.63 309.47 176.37 319.43 164.88 319.43"/><polygon class="cls-2" points="187.91 320.28 194.65 308.61 201.39 320.28 187.91 320.28"/><polygon class="cls-2" points="210.76 321.3 218.68 307.59 226.59 321.3 210.76 321.3"/><polygon class="cls-2" points="233.47 322.44 242.7 306.45 251.93 322.44 233.47 322.44"/><polygon class="cls-2" points="257.02 322.85 266.73 306.04 276.43 322.85 257.02 322.85"/><polygon class="cls-2" points="281.05 322.85 290.75 306.04 300.46 322.85 281.05 322.85"/><polygon class="cls-2" points="305.07 322.85 314.78 306.04 324.48 322.85 305.07 322.85"/><polygon class="cls-2" points="329.1 322.85 338.8 306.04 348.51 322.85 329.1 322.85"/><polygon class="cls-2" points="353.12 322.85 362.83 306.04 372.53 322.85 353.12 322.85"/><polygon class="cls-2" points="377.15 322.85 386.85 306.04 396.56 322.85 377.15 322.85"/><polygon class="cls-2" points="401.17 322.85 410.88 306.04 420.58 322.85 401.17 322.85"/><polygon class="cls-2" points="425.72 322.4 434.9 306.49 444.09 322.4 425.72 322.4"/><polygon class="cls-2" points="451.11 321.22 458.93 307.68 466.75 321.22 451.11 321.22"/><polygon class="cls-2" points="476.26 320.24 482.95 308.65 489.64 320.24 476.26 320.24"/><polygon class="cls-2" points="501.28 319.38 506.98 309.51 512.68 319.38 501.28 319.38"/><polygon class="cls-2" points="526.25 318.57 531 310.33 535.76 318.57 526.25 318.57"/><polygon class="cls-2" points="551.12 317.83 555.03 311.06 558.94 317.83 551.12 317.83"/><polygon class="cls-2" points="575.94 317.14 579.05 311.76 582.16 317.14 575.94 317.14"/><polygon class="cls-2" points="600.63 316.57 603.08 312.33 605.53 316.57 600.63 316.57"/><polygon class="cls-2" points="624.65 316.57 627.1 312.33 629.55 316.57 624.65 316.57"/><polygon class="cls-2" points="12.01 340.59 14.46 336.35 16.91 340.59 12.01 340.59"/><polygon class="cls-2" points="36.04 340.59 38.49 336.35 40.94 340.59 36.04 340.59"/><polygon class="cls-2" points="60.06 340.59 62.51 336.35 64.96 340.59 60.06 340.59"/><polygon class="cls-2" points="83.33 341.25 86.54 335.7 89.74 341.25 83.33 341.25"/><polygon class="cls-2" points="106.56 341.94 110.56 335.01 114.57 341.94 106.56 341.94"/><polygon class="cls-2" points="129.78 342.63 134.59 334.31 139.39 342.63 129.78 342.63"/><polygon class="cls-2" points="152.87 343.45 158.61 333.5 164.36 343.45 152.87 343.45"/><polygon class="cls-2" points="175.85 344.35 182.64 332.6 189.42 344.35 175.85 344.35"/><polygon class="cls-2" points="198.7 345.37 206.66 331.58 214.63 345.37 198.7 345.37"/><polygon class="cls-2" points="221.41 346.51 230.69 330.44 239.97 346.51 221.41 346.51"/><polygon class="cls-2" points="245.01 346.88 254.71 330.07 264.42 346.88 245.01 346.88"/><polygon class="cls-2" points="269.03 346.88 278.74 330.07 288.44 346.88 269.03 346.88"/><polygon class="cls-2" points="293.06 346.88 302.76 330.07 312.47 346.88 293.06 346.88"/><polygon class="cls-2" points="317.08 346.88 326.79 330.07 336.49 346.88 317.08 346.88"/><polygon class="cls-2" points="341.11 346.88 350.81 330.07 360.52 346.88 341.11 346.88"/><polygon class="cls-2" points="365.13 346.88 374.84 330.07 384.54 346.88 365.13 346.88"/><polygon class="cls-2" points="389.16 346.88 398.86 330.07 408.57 346.88 389.16 346.88"/><polygon class="cls-2" points="413.7 346.43 422.89 330.52 432.08 346.43 413.7 346.43"/><polygon class="cls-2" points="439 345.33 446.92 331.62 454.83 345.33 439 345.33"/><polygon class="cls-2" points="464.2 344.31 470.94 332.64 477.68 344.31 464.2 344.31"/><polygon class="cls-2" points="489.26 343.41 494.96 333.54 500.67 343.41 489.26 343.41"/><polygon class="cls-2" points="514.23 342.59 518.99 334.35 523.75 342.59 514.23 342.59"/><polygon class="cls-2" points="539.06 341.9 543.01 335.05 546.97 341.9 539.06 341.9"/><polygon class="cls-2" points="563.88 341.21 567.04 335.74 570.2 341.21 563.88 341.21"/><polygon class="cls-2" points="588.62 340.59 591.07 336.35 593.51 340.59 588.62 340.59"/><polygon class="cls-2" points="612.64 340.59 615.09 336.35 617.54 340.59 612.64 340.59"/><polygon class="cls-2" points="0 364.62 2.45 360.38 4.9 364.62 0 364.62"/><polygon class="cls-2" points="24.02 364.62 26.48 360.38 28.93 364.62 24.02 364.62"/><polygon class="cls-2" points="48.05 364.62 50.5 360.38 52.95 364.62 48.05 364.62"/><polygon class="cls-2" points="72.08 364.62 74.53 360.38 76.97 364.62 72.08 364.62"/><polygon class="cls-2" points="95.39 365.23 98.55 359.76 101.71 365.23 95.39 365.23"/><polygon class="cls-2" points="118.67 365.88 122.58 359.11 126.49 365.88 118.67 365.88"/><polygon class="cls-2" points="141.84 366.62 146.6 358.38 151.36 366.62 141.84 366.62"/><polygon class="cls-2" points="164.97 367.39 170.63 357.6 176.28 367.39 164.97 367.39"/><polygon class="cls-2" points="188.06 368.21 194.65 356.79 201.25 368.21 188.06 368.21"/><polygon class="cls-2" points="210.9 369.23 218.68 355.77 226.45 369.23 210.9 369.23"/><polygon class="cls-2" points="233.66 370.33 242.7 354.67 251.75 370.33 233.66 370.33"/><polygon class="cls-2" points="257.02 370.9 266.73 354.09 276.43 370.9 257.02 370.9"/><polygon class="cls-2" points="281.05 370.9 290.75 354.09 300.46 370.9 281.05 370.9"/><polygon class="cls-2" points="305.07 370.9 314.78 354.09 324.48 370.9 305.07 370.9"/><polygon class="cls-2" points="329.1 370.9 338.8 354.09 348.51 370.9 329.1 370.9"/><polygon class="cls-2" points="353.12 370.9 362.83 354.09 372.53 370.9 353.12 370.9"/><polygon class="cls-2" points="377.15 370.9 386.85 354.09 396.56 370.9 377.15 370.9"/><polygon class="cls-2" points="401.17 370.9 410.88 354.09 420.58 370.9 401.17 370.9"/><polygon class="cls-2" points="425.95 370.25 434.9 354.75 443.85 370.25 425.95 370.25"/><polygon class="cls-2" points="451.2 369.19 458.93 355.81 466.65 369.19 451.2 369.19"/><polygon class="cls-2" points="476.4 368.17 482.95 356.83 489.5 368.17 476.4 368.17"/><polygon class="cls-2" points="501.37 367.35 506.98 357.64 512.58 367.35 501.37 367.35"/><polygon class="cls-2" points="526.29 366.58 531 358.42 535.71 366.58 526.29 366.58"/><polygon class="cls-2" points="551.16 365.84 555.03 359.15 558.89 365.84 551.16 365.84"/><polygon class="cls-2" points="575.99 365.15 579.05 359.85 582.12 365.15 575.99 365.15"/><polygon class="cls-2" points="600.63 364.62 603.08 360.38 605.53 364.62 600.63 364.62"/><polygon class="cls-2" points="624.65 364.62 627.1 360.38 629.55 364.62 624.65 364.62"/><polygon class="cls-2" points="12.01 388.64 14.46 384.4 16.91 388.64 12.01 388.64"/><polygon class="cls-2" points="36.04 388.64 38.49 384.4 40.94 388.64 36.04 388.64"/><polygon class="cls-2" points="60.06 388.64 62.51 384.4 64.96 388.64 60.06 388.64"/><polygon class="cls-2" points="83.52 389.13 86.54 383.91 89.55 389.13 83.52 389.13"/><polygon class="cls-2" points="106.79 389.79 110.56 383.26 114.33 389.79 106.79 389.79"/><polygon class="cls-2" points="130.02 390.48 134.59 382.57 139.16 390.48 130.02 390.48"/><polygon class="cls-2" points="153.15 391.26 158.61 381.79 164.08 391.26 153.15 391.26"/><polygon class="cls-2" points="176.23 392.07 182.64 380.97 189.04 392.07 176.23 392.07"/><polygon class="cls-2" points="199.22 392.97 206.66 380.08 214.11 392.97 199.22 392.97"/><polygon class="cls-2" points="222.12 393.95 230.69 379.1 239.26 393.95 222.12 393.95"/><polygon class="cls-2" points="245.01 394.93 254.71 378.12 264.42 394.93 245.01 394.93"/><polygon class="cls-2" points="269.03 394.93 278.74 378.12 288.44 394.93 269.03 394.93"/><polygon class="cls-2" points="293.06 394.93 302.76 378.12 312.47 394.93 293.06 394.93"/><polygon class="cls-2" points="317.08 394.93 326.79 378.12 336.49 394.93 317.08 394.93"/><polygon class="cls-2" points="341.11 394.93 350.81 378.12 360.52 394.93 341.11 394.93"/><polygon class="cls-2" points="365.13 394.93 374.84 378.12 384.54 394.93 365.13 394.93"/><polygon class="cls-2" points="389.16 394.93 398.86 378.12 408.57 394.93 389.16 394.93"/><polygon class="cls-2" points="414.36 393.91 422.89 379.14 431.42 393.91 414.36 393.91"/><polygon class="cls-2" points="439.57 392.89 446.92 380.16 454.26 392.89 439.57 392.89"/><polygon class="cls-2" points="464.58 392.03 470.94 381.02 477.3 392.03 464.58 392.03"/><polygon class="cls-2" points="489.55 391.21 494.96 381.83 500.38 391.21 489.55 391.21"/><polygon class="cls-2" points="514.47 390.44 518.99 382.61 523.51 390.44 514.47 390.44"/><polygon class="cls-2" points="539.25 389.79 543.01 383.26 546.78 389.79 539.25 389.79"/><polygon class="cls-2" points="564.07 389.09 567.04 383.95 570.01 389.09 564.07 389.09"/><polygon class="cls-2" points="588.62 388.64 591.07 384.4 593.51 388.64 588.62 388.64"/><polygon class="cls-2" points="612.64 388.64 615.09 384.4 617.54 388.64 612.64 388.64"/><polygon class="cls-2" points="0 412.67 2.45 408.43 4.9 412.67 0 412.67"/><polygon class="cls-2" points="24.02 412.67 26.48 408.43 28.93 412.67 24.02 412.67"/><polygon class="cls-2" points="48.05 412.67 50.5 408.43 52.95 412.67 48.05 412.67"/><polygon class="cls-2" points="72.08 412.67 74.53 408.43 76.97 412.67 72.08 412.67"/><polygon class="cls-2" points="95.68 413.04 98.55 408.06 101.42 413.04 95.68 413.04"/><polygon class="cls-2" points="119 413.65 122.58 407.45 126.16 413.65 119 413.65"/><polygon class="cls-2" points="142.22 414.34 146.6 406.75 150.98 414.34 142.22 414.34"/><polygon class="cls-2" points="165.44 415.04 170.63 406.06 175.81 415.04 165.44 415.04"/><polygon class="cls-2" points="188.57 415.81 194.65 405.29 200.73 415.81 188.57 415.81"/><polygon class="cls-2" points="211.7 416.59 218.68 404.51 225.65 416.59 211.7 416.59"/><polygon class="cls-2" points="234.74 417.44 242.7 403.65 250.66 417.44 234.74 417.44"/><polygon class="cls-2" points="257.77 418.3 266.73 402.8 275.68 418.3 257.77 418.3"/><polygon class="cls-2" points="281.05 418.95 290.75 402.14 300.46 418.95 281.05 418.95"/><polygon class="cls-2" points="305.07 418.95 314.78 402.14 324.48 418.95 305.07 418.95"/><polygon class="cls-2" points="329.1 418.95 338.8 402.14 348.51 418.95 329.1 418.95"/><polygon class="cls-2" points="353.12 418.95 362.83 402.14 372.53 418.95 353.12 418.95"/><polygon class="cls-2" points="377.15 418.95 386.85 402.14 396.56 418.95 377.15 418.95"/><polygon class="cls-2" points="401.97 418.26 410.88 402.84 419.78 418.26 401.97 418.26"/><polygon class="cls-2" points="426.99 417.4 434.9 403.69 442.82 417.4 426.99 417.4"/><polygon class="cls-2" points="452 416.55 458.93 404.55 465.85 416.55 452 416.55"/><polygon class="cls-2" points="476.92 415.77 482.95 405.33 488.98 415.77 476.92 415.77"/><polygon class="cls-2" points="501.84 415 506.98 406.1 512.11 415 501.84 415"/><polygon class="cls-2" points="526.67 414.3 531 406.79 535.34 414.3 526.67 414.3"/><polygon class="cls-2" points="551.45 413.65 555.03 407.45 558.61 413.65 551.45 413.65"/><polygon class="cls-2" points="576.23 413 579.05 408.1 581.88 413 576.23 413"/><polygon class="cls-2" points="600.63 412.67 603.08 408.43 605.53 412.67 600.63 412.67"/><polygon class="cls-2" points="624.65 412.67 627.1 408.43 629.55 412.67 624.65 412.67"/><polygon class="cls-2" points="12.01 436.69 14.46 432.45 16.91 436.69 12.01 436.69"/><polygon class="cls-2" points="36.04 436.69 38.49 432.45 40.94 436.69 36.04 436.69"/><polygon class="cls-2" points="60.06 436.69 62.51 432.45 64.96 436.69 60.06 436.69"/><polygon class="cls-2" points="83.9 436.86 86.54 432.29 89.18 436.86 83.9 436.86"/><polygon class="cls-2" points="107.22 437.47 110.56 431.68 113.91 437.47 107.22 437.47"/><polygon class="cls-2" points="130.54 438.08 134.59 431.06 138.64 438.08 130.54 438.08"/><polygon class="cls-2" points="153.81 438.74 158.61 430.41 163.42 438.74 153.81 438.74"/><polygon class="cls-2" points="177.03 439.43 182.64 429.72 188.24 439.43 177.03 439.43"/><polygon class="cls-2" points="200.26 440.12 206.66 429.02 213.07 440.12 200.26 440.12"/><polygon class="cls-2" points="223.43 440.86 230.69 428.29 237.94 440.86 223.43 440.86"/><polygon class="cls-2" points="246.66 441.55 254.71 427.6 262.77 441.55 246.66 441.55"/><polygon class="cls-2" points="269.98 442.16 278.74 426.99 287.5 442.16 269.98 442.16"/><polygon class="cls-2" points="293.53 442.57 302.76 426.58 312 442.57 293.53 442.57"/><polygon class="cls-2" points="317.37 442.73 326.79 426.41 336.21 442.73 317.37 442.73"/><polygon class="cls-2" points="341.58 442.57 350.81 426.58 360.05 442.57 341.58 442.57"/><polygon class="cls-2" points="366.12 442.12 374.84 427.03 383.55 442.12 366.12 442.12"/><polygon class="cls-2" points="390.86 441.51 398.86 427.64 406.87 441.51 390.86 441.51"/><polygon class="cls-2" points="415.68 440.81 422.89 428.33 430.1 440.81 415.68 440.81"/><polygon class="cls-2" points="440.56 440.08 446.92 429.07 453.27 440.08 440.56 440.08"/><polygon class="cls-2" points="465.38 439.39 470.94 429.76 476.5 439.39 465.38 439.39"/><polygon class="cls-2" points="490.21 438.69 494.96 430.45 499.72 438.69 490.21 438.69"/><polygon class="cls-2" points="514.99 438.04 518.99 431.11 522.99 438.04 514.99 438.04"/><polygon class="cls-2" points="539.72 437.43 543.01 431.72 546.31 437.43 539.72 437.43"/><polygon class="cls-2" points="564.45 436.82 567.04 432.33 569.63 436.82 564.45 436.82"/><polygon class="cls-2" points="588.62 436.69 591.07 432.45 593.51 436.69 588.62 436.69"/><polygon class="cls-2" points="612.64 436.69 615.09 432.45 617.54 436.69 612.64 436.69"/><polygon class="cls-2" points="0 460.72 2.45 456.48 4.9 460.72 0 460.72"/><polygon class="cls-2" points="24.02 460.72 26.48 456.48 28.93 460.72 24.02 460.72"/><polygon class="cls-2" points="48.05 460.72 50.5 456.48 52.95 460.72 48.05 460.72"/><polygon class="cls-2" points="72.08 460.72 74.53 456.48 76.97 460.72 72.08 460.72"/><polygon class="cls-2" points="96.1 460.72 98.55 456.48 101 460.72 96.1 460.72"/><polygon class="cls-2" points="119.51 461.25 122.58 455.95 125.64 461.25 119.51 461.25"/><polygon class="cls-2" points="142.88 461.82 146.6 455.38 150.32 461.82 142.88 461.82"/><polygon class="cls-2" points="166.2 462.43 170.63 454.76 175.05 462.43 166.2 462.43"/><polygon class="cls-2" points="189.56 463 194.65 454.19 199.74 463 189.56 463"/><polygon class="cls-2" points="212.84 463.66 218.68 453.54 224.52 463.66 212.84 463.66"/><polygon class="cls-2" points="236.2 464.23 242.7 452.97 249.2 464.23 236.2 464.23"/><polygon class="cls-2" points="259.56 464.8 266.73 452.4 273.89 464.8 259.56 464.8"/><polygon class="cls-2" points="283.02 465.29 290.75 451.91 298.48 465.29 283.02 465.29"/><polygon class="cls-2" points="306.72 465.57 314.78 451.62 322.83 465.57 306.72 465.57"/><polygon class="cls-2" points="330.6 465.7 338.8 451.5 347 465.7 330.6 465.7"/><polygon class="cls-2" points="354.77 465.57 362.83 451.62 370.88 465.57 354.77 465.57"/><polygon class="cls-2" points="379.17 465.25 386.85 451.95 394.53 465.25 379.17 465.25"/><polygon class="cls-2" points="403.72 464.8 410.88 452.4 418.04 464.8 403.72 464.8"/><polygon class="cls-2" points="428.45 464.19 434.9 453.01 441.36 464.19 428.45 464.19"/><polygon class="cls-2" points="453.13 463.62 458.93 453.58 464.72 463.62 453.13 463.62"/><polygon class="cls-2" points="477.91 462.96 482.95 454.23 487.99 462.96 477.91 462.96"/><polygon class="cls-2" points="502.6 462.39 506.98 454.81 511.36 462.39 502.6 462.39"/><polygon class="cls-2" points="527.33 461.78 531 455.42 534.68 461.78 527.33 461.78"/><polygon class="cls-2" points="552.01 461.21 555.03 455.99 558.04 461.21 552.01 461.21"/><polygon class="cls-2" points="576.6 460.72 579.05 456.48 581.5 460.72 576.6 460.72"/><polygon class="cls-2" points="600.63 460.72 603.08 456.48 605.53 460.72 600.63 460.72"/><polygon class="cls-2" points="624.65 460.72 627.1 456.48 629.55 460.72 624.65 460.72"/><polygon class="cls-2" points="12.01 484.75 14.46 480.5 16.91 484.75 12.01 484.75"/><polygon class="cls-2" points="36.04 484.75 38.49 480.5 40.94 484.75 36.04 484.75"/><polygon class="cls-2" points="60.06 484.75 62.51 480.5 64.96 484.75 60.06 484.75"/><polygon class="cls-2" points="84.09 484.75 86.54 480.5 88.99 484.75 84.09 484.75"/><polygon class="cls-2" points="107.88 484.95 110.56 480.3 113.25 484.95 107.88 484.95"/><polygon class="cls-2" points="131.24 485.52 134.59 479.73 137.93 485.52 131.24 485.52"/><polygon class="cls-2" points="154.61 486.09 158.61 479.16 162.62 486.09 154.61 486.09"/><polygon class="cls-2" points="178.07 486.58 182.64 478.67 187.21 486.58 178.07 486.58"/><polygon class="cls-2" points="201.48 487.11 206.66 478.14 211.84 487.11 201.48 487.11"/><polygon class="cls-2" points="224.85 487.68 230.69 477.56 236.53 487.68 224.85 487.68"/><polygon class="cls-2" points="248.4 488.09 254.71 477.16 261.03 488.09 248.4 488.09"/><polygon class="cls-2" points="272 488.46 278.74 476.79 285.48 488.46 272 488.46"/><polygon class="cls-2" points="295.79 488.66 302.76 476.58 309.74 488.66 295.79 488.66"/><polygon class="cls-2" points="319.68 488.78 326.79 476.46 333.9 488.78 319.68 488.78"/><polygon class="cls-2" points="343.84 488.66 350.81 476.58 357.79 488.66 343.84 488.66"/><polygon class="cls-2" points="368.1 488.46 374.84 476.79 381.58 488.46 368.1 488.46"/><polygon class="cls-2" points="392.55 488.09 398.86 477.16 405.18 488.09 392.55 488.09"/><polygon class="cls-2" points="417.1 487.64 422.89 477.61 428.68 487.64 417.1 487.64"/><polygon class="cls-2" points="441.73 487.11 446.92 478.14 452.1 487.11 441.73 487.11"/><polygon class="cls-2" points="466.42 486.54 470.94 478.71 475.46 486.54 466.42 486.54"/><polygon class="cls-2" points="491.01 486.05 494.96 479.2 498.92 486.05 491.01 486.05"/><polygon class="cls-2" points="515.69 485.48 518.99 479.77 522.29 485.48 515.69 485.48"/><polygon class="cls-2" points="540.38 484.91 543.01 480.34 545.65 484.91 540.38 484.91"/><polygon class="cls-2" points="564.59 484.75 567.04 480.5 569.49 484.75 564.59 484.75"/><polygon class="cls-2" points="588.62 484.75 591.07 480.5 593.51 484.75 588.62 484.75"/><polygon class="cls-2" points="612.64 484.75 615.09 480.5 617.54 484.75 612.64 484.75"/><polygon class="cls-2" points="0 508.77 2.45 504.53 4.9 508.77 0 508.77"/><polygon class="cls-2" points="24.02 508.77 26.48 504.53 28.93 508.77 24.02 508.77"/><polygon class="cls-2" points="48.05 508.77 50.5 504.53 52.95 508.77 48.05 508.77"/><polygon class="cls-2" points="72.08 508.77 74.53 504.53 76.97 508.77 72.08 508.77"/><polygon class="cls-2" points="96.1 508.77 98.55 504.53 101 508.77 96.1 508.77"/><polygon class="cls-2" points="120.13 508.77 122.58 504.53 125.03 508.77 120.13 508.77"/><polygon class="cls-2" points="143.73 509.14 146.6 504.16 149.47 509.14 143.73 509.14"/><polygon class="cls-2" points="167.14 509.67 170.63 503.63 174.11 509.67 167.14 509.67"/><polygon class="cls-2" points="190.6 510.16 194.65 503.14 198.7 510.16 190.6 510.16"/><polygon class="cls-2" points="214.11 510.61 218.68 502.69 223.25 510.61 214.11 510.61"/><polygon class="cls-2" points="237.61 511.06 242.7 502.24 247.79 511.06 237.61 511.06"/><polygon class="cls-2" points="261.21 511.42 266.73 501.88 272.24 511.42 261.21 511.42"/><polygon class="cls-2" points="284.86 511.75 290.75 501.55 296.64 511.75 284.86 511.75"/><polygon class="cls-2" points="308.7 511.91 314.78 501.39 320.85 511.91 308.7 511.91"/><polygon class="cls-2" points="332.63 511.99 338.8 501.3 344.97 511.99 332.63 511.99"/><polygon class="cls-2" points="356.75 511.91 362.83 501.39 368.9 511.91 356.75 511.91"/><polygon class="cls-2" points="381.01 511.71 386.85 501.59 392.69 511.71 381.01 511.71"/><polygon class="cls-2" points="405.37 511.42 410.88 501.88 416.39 511.42 405.37 511.42"/><polygon class="cls-2" points="429.86 511.01 434.9 502.28 439.94 511.01 429.86 511.01"/><polygon class="cls-2" points="454.4 510.56 458.93 502.73 463.45 510.56 454.4 510.56"/><polygon class="cls-2" points="478.95 510.12 482.95 503.18 486.96 510.12 478.95 510.12"/><polygon class="cls-2" points="503.54 509.63 506.98 503.67 510.42 509.63 503.54 509.63"/><polygon class="cls-2" points="528.13 509.14 531 504.16 533.88 509.14 528.13 509.14"/><polygon class="cls-2" points="552.58 508.77 555.03 504.53 557.48 508.77 552.58 508.77"/><polygon class="cls-2" points="576.6 508.77 579.05 504.53 581.5 508.77 576.6 508.77"/><polygon class="cls-2" points="600.63 508.77 603.08 504.53 605.53 508.77 600.63 508.77"/><polygon class="cls-2" points="624.65 508.77 627.1 504.53 629.55 508.77 624.65 508.77"/><polygon class="cls-2" points="12.01 532.79 14.46 528.55 16.91 532.79 12.01 532.79"/><polygon class="cls-2" points="36.04 532.79 38.49 528.55 40.94 532.79 36.04 532.79"/><polygon class="cls-2" points="60.06 532.79 62.51 528.55 64.96 532.79 60.06 532.79"/><polygon class="cls-2" points="84.09 532.79 86.54 528.55 88.99 532.79 84.09 532.79"/><polygon class="cls-2" points="108.11 532.79 110.56 528.55 113.01 532.79 108.11 532.79"/><polygon class="cls-2" points="132.14 532.79 134.59 528.55 137.04 532.79 132.14 532.79"/><polygon class="cls-2" points="155.6 533.28 158.61 528.06 161.63 533.28 155.6 533.28"/><polygon class="cls-2" points="179.15 533.69 182.64 527.65 186.12 533.69 179.15 533.69"/><polygon class="cls-2" points="202.66 534.14 206.66 527.21 210.67 534.14 202.66 534.14"/><polygon class="cls-2" points="226.26 534.51 230.69 526.84 235.12 534.51 226.26 534.51"/><polygon class="cls-2" points="249.96 534.79 254.71 526.55 259.47 534.79 249.96 534.79"/><polygon class="cls-2" points="273.7 535.04 278.74 526.31 283.78 535.04 273.7 535.04"/><polygon class="cls-2" points="297.54 535.2 302.76 526.14 307.99 535.2 297.54 535.2"/><polygon class="cls-2" points="321.51 535.24 326.79 526.11 332.06 535.24 321.51 535.24"/><polygon class="cls-2" points="345.63 535.16 350.81 526.19 356 535.16 345.63 535.16"/><polygon class="cls-2" points="369.85 535 374.84 526.35 379.83 535 369.85 535"/><polygon class="cls-2" points="394.11 534.79 398.86 526.55 403.62 534.79 394.11 534.79"/><polygon class="cls-2" points="418.51 534.47 422.89 526.88 427.27 534.47 418.51 534.47"/><polygon class="cls-2" points="442.96 534.1 446.92 527.25 450.87 534.1 442.96 534.1"/><polygon class="cls-2" points="467.45 533.69 470.94 527.65 474.43 533.69 467.45 533.69"/><polygon class="cls-2" points="492 533.24 494.96 528.1 497.93 533.24 492 533.24"/><polygon class="cls-2" points="516.54 532.79 518.99 528.55 521.44 532.79 516.54 532.79"/><polygon class="cls-2" points="540.57 532.79 543.01 528.55 545.47 532.79 540.57 532.79"/><polygon class="cls-2" points="564.59 532.79 567.04 528.55 569.49 532.79 564.59 532.79"/><polygon class="cls-2" points="588.62 532.79 591.07 528.55 593.51 532.79 588.62 532.79"/><polygon class="cls-2" points="612.64 532.79 615.09 528.55 617.54 532.79 612.64 532.79"/><polygon class="cls-2" points="0 556.82 2.45 552.58 4.9 556.82 0 556.82"/><polygon class="cls-2" points="24.02 556.82 26.48 552.58 28.93 556.82 24.02 556.82"/><polygon class="cls-2" points="48.05 556.82 50.5 552.58 52.95 556.82 48.05 556.82"/><polygon class="cls-2" points="72.08 556.82 74.53 552.58 76.97 556.82 72.08 556.82"/><polygon class="cls-2" points="96.1 556.82 98.55 552.58 101 556.82 96.1 556.82"/><polygon class="cls-2" points="120.13 556.82 122.58 552.58 125.03 556.82 120.13 556.82"/><polygon class="cls-2" points="144.15 556.82 146.6 552.58 149.05 556.82 144.15 556.82"/><polygon class="cls-2" points="168.13 556.86 170.63 552.54 173.12 556.86 168.13 556.86"/><polygon class="cls-2" points="191.73 557.23 194.65 552.17 197.57 557.23 191.73 557.23"/><polygon class="cls-2" points="215.28 557.64 218.68 551.76 222.07 557.64 215.28 557.64"/><polygon class="cls-2" points="238.93 557.96 242.7 551.43 246.47 557.96 238.93 557.96"/><polygon class="cls-2" points="262.68 558.21 266.73 551.19 270.78 558.21 262.68 558.21"/><polygon class="cls-2" points="286.46 558.41 290.75 550.99 295.04 558.41 286.46 558.41"/><polygon class="cls-2" points="310.35 558.53 314.78 550.86 319.2 558.53 310.35 558.53"/><polygon class="cls-2" points="334.33 558.58 338.8 550.82 343.28 558.58 334.33 558.58"/><polygon class="cls-2" points="358.4 558.53 362.83 550.86 367.25 558.53 358.4 558.53"/><polygon class="cls-2" points="382.56 558.41 386.85 550.99 391.14 558.41 382.56 558.41"/><polygon class="cls-2" points="406.83 558.21 410.88 551.19 414.93 558.21 406.83 558.21"/><polygon class="cls-2" points="431.18 557.92 434.9 551.48 438.62 557.92 431.18 557.92"/><polygon class="cls-2" points="455.58 557.6 458.93 551.8 462.27 557.6 455.58 557.6"/><polygon class="cls-2" points="480.03 557.23 482.95 552.17 485.87 557.23 480.03 557.23"/><polygon class="cls-2" points="504.53 556.82 506.98 552.58 509.43 556.82 504.53 556.82"/><polygon class="cls-2" points="528.55 556.82 531 552.58 533.45 556.82 528.55 556.82"/><polygon class="cls-2" points="552.58 556.82 555.03 552.58 557.48 556.82 552.58 556.82"/><polygon class="cls-2" points="576.6 556.82 579.05 552.58 581.5 556.82 576.6 556.82"/><polygon class="cls-2" points="600.63 556.82 603.08 552.58 605.53 556.82 600.63 556.82"/><polygon class="cls-2" points="624.65 556.82 627.1 552.58 629.55 556.82 624.65 556.82"/><polygon class="cls-2" points="12.01 580.85 14.46 576.6 16.91 580.85 12.01 580.85"/><polygon class="cls-2" points="36.04 580.85 38.49 576.6 40.94 580.85 36.04 580.85"/><polygon class="cls-2" points="60.06 580.85 62.51 576.6 64.96 580.85 60.06 580.85"/><polygon class="cls-2" points="84.09 580.85 86.54 576.6 88.99 580.85 84.09 580.85"/><polygon class="cls-2" points="108.11 580.85 110.56 576.6 113.01 580.85 108.11 580.85"/><polygon class="cls-2" points="132.14 580.85 134.59 576.6 137.04 580.85 132.14 580.85"/><polygon class="cls-2" points="156.16 580.85 158.61 576.6 161.06 580.85 156.16 580.85"/><polygon class="cls-2" points="180.19 580.85 182.64 576.6 185.09 580.85 180.19 580.85"/><polygon class="cls-2" points="203.88 581.13 206.66 576.32 209.44 581.13 203.88 581.13"/><polygon class="cls-2" points="227.58 581.42 230.69 576.03 233.8 581.42 227.58 581.42"/><polygon class="cls-2" points="251.32 581.66 254.71 575.79 258.11 581.66 251.32 581.66"/><polygon class="cls-2" points="275.16 581.83 278.74 575.62 282.32 581.83 275.16 581.83"/><polygon class="cls-2" points="299.04 581.95 302.76 575.5 306.49 581.95 299.04 581.95"/><polygon class="cls-2" points="323.02 581.99 326.79 575.46 330.56 581.99 323.02 581.99"/><polygon class="cls-2" points="347.09 581.95 350.81 575.5 354.54 581.95 347.09 581.95"/><polygon class="cls-2" points="371.26 581.83 374.84 575.62 378.42 581.83 371.26 581.83"/><polygon class="cls-2" points="395.47 581.66 398.86 575.79 402.26 581.66 395.47 581.66"/><polygon class="cls-2" points="419.83 581.38 422.89 576.07 425.95 581.38 419.83 581.38"/><polygon class="cls-2" points="444.18 581.09 446.92 576.36 449.65 581.09 444.18 581.09"/><polygon class="cls-2" points="468.49 580.85 470.94 576.6 473.39 580.85 468.49 580.85"/><polygon class="cls-2" points="492.51 580.85 494.96 576.6 497.42 580.85 492.51 580.85"/><polygon class="cls-2" points="516.54 580.85 518.99 576.6 521.44 580.85 516.54 580.85"/><polygon class="cls-2" points="540.57 580.85 543.01 576.6 545.47 580.85 540.57 580.85"/><polygon class="cls-2" points="564.59 580.85 567.04 576.6 569.49 580.85 564.59 580.85"/><polygon class="cls-2" points="588.62 580.85 591.07 576.6 593.51 580.85 588.62 580.85"/><polygon class="cls-2" points="612.64 580.85 615.09 576.6 617.54 580.85 612.64 580.85"/><polygon class="cls-2" points="0 604.87 2.45 600.63 4.9 604.87 0 604.87"/><polygon class="cls-2" points="24.02 604.87 26.48 600.63 28.93 604.87 24.02 604.87"/><polygon class="cls-2" points="48.05 604.87 50.5 600.63 52.95 604.87 48.05 604.87"/><polygon class="cls-2" points="72.08 604.87 74.53 600.63 76.97 604.87 72.08 604.87"/><polygon class="cls-2" points="96.1 604.87 98.55 600.63 101 604.87 96.1 604.87"/><polygon class="cls-2" points="120.13 604.87 122.58 600.63 125.03 604.87 120.13 604.87"/><polygon class="cls-2" points="144.15 604.87 146.6 600.63 149.05 604.87 144.15 604.87"/><polygon class="cls-2" points="168.18 604.87 170.63 600.63 173.08 604.87 168.18 604.87"/><polygon class="cls-2" points="192.2 604.87 194.65 600.63 197.1 604.87 192.2 604.87"/><polygon class="cls-2" points="216.23 604.87 218.68 600.63 221.13 604.87 216.23 604.87"/><polygon class="cls-2" points="240.25 604.87 242.7 600.63 245.15 604.87 240.25 604.87"/><polygon class="cls-2" points="263.99 605.12 266.73 600.38 269.46 605.12 263.99 605.12"/><polygon class="cls-2" points="287.88 605.24 290.75 600.26 293.62 605.24 287.88 605.24"/><polygon class="cls-2" points="311.76 605.36 314.78 600.14 317.79 605.36 311.76 605.36"/><polygon class="cls-2" points="335.74 605.4 338.8 600.1 341.86 605.4 335.74 605.4"/><polygon class="cls-2" points="359.81 605.36 362.83 600.14 365.84 605.36 359.81 605.36"/><polygon class="cls-2" points="383.98 605.24 386.85 600.26 389.73 605.24 383.98 605.24"/><polygon class="cls-2" points="408.14 605.12 410.88 600.38 413.61 605.12 408.14 605.12"/><polygon class="cls-2" points="432.45 604.87 434.9 600.63 437.35 604.87 432.45 604.87"/><polygon class="cls-2" points="456.48 604.87 458.93 600.63 461.38 604.87 456.48 604.87"/><polygon class="cls-2" points="480.5 604.87 482.95 600.63 485.4 604.87 480.5 604.87"/><polygon class="cls-2" points="504.53 604.87 506.98 600.63 509.43 604.87 504.53 604.87"/><polygon class="cls-2" points="528.55 604.87 531 600.63 533.45 604.87 528.55 604.87"/><polygon class="cls-2" points="552.58 604.87 555.03 600.63 557.48 604.87 552.58 604.87"/><polygon class="cls-2" points="576.6 604.87 579.05 600.63 581.5 604.87 576.6 604.87"/><polygon class="cls-2" points="600.63 604.87 603.08 600.63 605.53 604.87 600.63 604.87"/><polygon class="cls-2" points="624.65 604.87 627.1 600.63 629.55 604.87 624.65 604.87"/><polygon class="cls-2" points="12.01 628.9 14.46 624.65 16.91 628.9 12.01 628.9"/><polygon class="cls-2" points="36.04 628.9 38.49 624.65 40.94 628.9 36.04 628.9"/><polygon class="cls-2" points="60.06 628.9 62.51 624.65 64.96 628.9 60.06 628.9"/><polygon class="cls-2" points="84.09 628.9 86.54 624.65 88.99 628.9 84.09 628.9"/><polygon class="cls-2" points="108.11 628.9 110.56 624.65 113.01 628.9 108.11 628.9"/><polygon class="cls-2" points="132.14 628.9 134.59 624.65 137.04 628.9 132.14 628.9"/><polygon class="cls-2" points="156.16 628.9 158.61 624.65 161.06 628.9 156.16 628.9"/><polygon class="cls-2" points="180.19 628.9 182.64 624.65 185.09 628.9 180.19 628.9"/><polygon class="cls-2" points="204.21 628.9 206.66 624.65 209.11 628.9 204.21 628.9"/><polygon class="cls-2" points="228.24 628.9 230.69 624.65 233.14 628.9 228.24 628.9"/><polygon class="cls-2" points="252.26 628.9 254.71 624.65 257.16 628.9 252.26 628.9"/><polygon class="cls-2" points="276.29 628.9 278.74 624.65 281.19 628.9 276.29 628.9"/><polygon class="cls-2" points="300.31 628.9 302.76 624.65 305.21 628.9 300.31 628.9"/><polygon class="cls-2" points="324.34 628.9 326.79 624.65 329.24 628.9 324.34 628.9"/><polygon class="cls-2" points="348.36 628.9 350.81 624.65 353.26 628.9 348.36 628.9"/><polygon class="cls-2" points="372.39 628.9 374.84 624.65 377.29 628.9 372.39 628.9"/><polygon class="cls-2" points="396.41 628.9 398.86 624.65 401.31 628.9 396.41 628.9"/><polygon class="cls-2" points="420.44 628.9 422.89 624.65 425.34 628.9 420.44 628.9"/><polygon class="cls-2" points="444.46 628.9 446.92 624.65 449.36 628.9 444.46 628.9"/><polygon class="cls-2" points="468.49 628.9 470.94 624.65 473.39 628.9 468.49 628.9"/><polygon class="cls-2" points="492.51 628.9 494.96 624.65 497.42 628.9 492.51 628.9"/><polygon class="cls-2" points="516.54 628.9 518.99 624.65 521.44 628.9 516.54 628.9"/><polygon class="cls-2" points="540.57 628.9 543.01 624.65 545.47 628.9 540.57 628.9"/><polygon class="cls-2" points="564.59 628.9 567.04 624.65 569.49 628.9 564.59 628.9"/><polygon class="cls-2" points="588.62 628.9 591.07 624.65 593.51 628.9 588.62 628.9"/><polygon class="cls-2" points="612.64 628.9 615.09 624.65 617.54 628.9 612.64 628.9"/></g></g></g></g></svg>