<svg xmlns="http://www.w3.org/2000/svg" viewBox="0 0 497.11 126.82"><defs><style>.cls-1{fill:#ff6592;}</style></defs><title>main-text</title><g id="レイヤー_2" data-name="レイヤー 2"><g id="レイヤー_1-2" data-name="レイヤー 1"><path class="cls-1" d="M56.08,11.78h7.49V4.56H56.08V3.38h8.75v9.55H56.08Zm8.58-9.3h-.91V.06h.91Zm2,0h-.91V.08h.91Z"/><path class="cls-1" d="M74,5.28q0,1.36-.1,2.37a9,9,0,0,1-.39,1.92,9.25,9.25,0,0,1-.86,1.86,24.65,24.65,0,0,1-1.47,2.16l-1-.74q.85-1.15,1.36-2a8.7,8.7,0,0,0,.78-1.68,7.52,7.52,0,0,0,.35-1.72q.08-.9.08-2.14V3.44H74Zm3.41,7.07a5.11,5.11,0,0,0,1.26-.17,2.68,2.68,0,0,0,1-.55,5.31,5.31,0,0,0,.93-1.07q.46-.67,1-1.71l1.06.64a17.27,17.27,0,0,1-1.18,1.94,5.84,5.84,0,0,1-1.17,1.24,3.76,3.76,0,0,1-1.33.66,6.63,6.63,0,0,1-1.7.19H76.2V1.9h1.25Z"/><path class="cls-1" d="M94.7,6.4a9.31,9.31,0,0,1-1.26,2.54,15.33,15.33,0,0,1-2.07,2.36q-1.24,1.17-2.89,2.58l-.85-1q1.63-1.41,2.78-2.51a15.5,15.5,0,0,0,1.9-2.14,7.86,7.86,0,0,0,1.1-2.15,8.82,8.82,0,0,0,.39-2.52H85.67V2.34h9.46v.94A10.4,10.4,0,0,1,94.7,6.4Z"/><path class="cls-1" d="M110.14,7.28a8.11,8.11,0,0,1-.87,2.29,12.08,12.08,0,0,1-1.58,2.14q-1,1.07-2.38,2.45l-.9-.88q1.34-1.3,2.25-2.28a10.74,10.74,0,0,0,1.45-1.94,7.35,7.35,0,0,0,.78-2,12.21,12.21,0,0,0,.26-2.51h-7V7.46h-1.28V3.34h4.29V.9h1.28V3.34h4V4.4A13.75,13.75,0,0,1,110.14,7.28Z"/><path class="cls-1" d="M124.42,5.23V6.3h-3.28v5.18h4.27v1.09h-9.79V11.49h4.27V6.3h-3.28V5.23Z"/><path class="cls-1" d="M136.06,6.93q1.06-.59,1.69-1a6.38,6.38,0,0,0,1-.71,1.71,1.71,0,0,0,.46-.62,2,2,0,0,0,.11-.71V3.5l-9.34,0V2.34h10.62V3.9a3,3,0,0,1-.22,1.22,2.85,2.85,0,0,1-.7,1,8.23,8.23,0,0,1-1.22.9q-.74.46-1.74,1Zm-4.64,6.21q.62-.72,1.07-1.26a8.38,8.38,0,0,0,.75-1.06,5.78,5.78,0,0,0,.5-1.06A6.46,6.46,0,0,0,134,8.48q.1-.72.13-1.69t0-2.31h1.28q0,1.47-.06,2.55a15.5,15.5,0,0,1-.2,1.89,8.17,8.17,0,0,1-.38,1.42,7.31,7.31,0,0,1-.57,1.18,9,9,0,0,1-.81,1.13l-1.08,1.29Z"/><path class="cls-1" d="M150.66,12.3a8.83,8.83,0,0,0,1.45-.23,4.57,4.57,0,0,0,1.22-.5,4.31,4.31,0,0,0,1-.82,5.27,5.27,0,0,0,.8-1.22,4.27,4.27,0,0,0,.47-2.15,4.19,4.19,0,0,0-.66-2.06A4,4,0,0,0,153.6,4a4.65,4.65,0,0,0-1.83-.62q0,1.1-.18,2.1a16.73,16.73,0,0,1-.38,1.92q-.1.42-.23.9t-.33,1q-.19.51-.43,1a6.56,6.56,0,0,1-.56,1,3.1,3.1,0,0,1-.88.92,2.43,2.43,0,0,1-1,.38,2.05,2.05,0,0,1-1-.08A2.27,2.27,0,0,1,146,12a3,3,0,0,1-.63-.86,4.56,4.56,0,0,1-.34-1,5.44,5.44,0,0,1-.14-1q0-.46,0-.8a6.48,6.48,0,0,1,.68-2.66,6.46,6.46,0,0,1,5.7-3.51,5.83,5.83,0,0,1,2.71.63,5.13,5.13,0,0,1,2,1.78,5.27,5.27,0,0,1,.86,2.62,5.55,5.55,0,0,1-.58,2.75,5.83,5.83,0,0,1-2.25,2.5,7,7,0,0,1-3.29.9ZM150,7.1q.19-.85.32-1.76t.18-1.92A5.15,5.15,0,0,0,149,3.9a5.08,5.08,0,0,0-1.38,1,5.5,5.5,0,0,0-1.06,1.54,5.55,5.55,0,0,0-.49,2.07,4.62,4.62,0,0,0,0,.5,4.77,4.77,0,0,0,.08.74,4.15,4.15,0,0,0,.23.79,2,2,0,0,0,.45.69.8.8,0,0,0,.92.22,1.83,1.83,0,0,0,.84-.76,8,8,0,0,0,.86-1.78Q149.81,8,150,7.1Z"/><path class="cls-1" d="M162.93,6.75q-.27.53-.62,1.06t-.74,1.08l-.64-1a15.78,15.78,0,0,0,1.94-3.49A24.05,24.05,0,0,0,164.05.56l1.17.3q-.24.86-.52,1.74t-.62,1.71V14.66h-1.15Zm4.93-1.63q-.13-1.12-.19-2.22T167.56.66h1.2q0,1.1.1,2.18T169,5l5.1-.43.06,1.12-5.06.42h0v.08l0,.06q.18.69.34,1.44t.4,1.5a13.24,13.24,0,0,0,.54,1.43,5.25,5.25,0,0,0,.75,1.23l.25.3a3.94,3.94,0,0,0,.33.34,2.86,2.86,0,0,0,.36.28.64.64,0,0,0,.34.12q.19,0,.34-.38a6.58,6.58,0,0,0,.27-.85c.08-.31.14-.62.19-.9s.08-.47.1-.56l1.06.9q-.06.27-.18.82A7.89,7.89,0,0,1,174,13a4,4,0,0,1-.51,1,.88.88,0,0,1-.72.42,1.07,1.07,0,0,1-.42-.1,2.84,2.84,0,0,1-.43-.23,4.36,4.36,0,0,1-.4-.3l-.34-.29A7,7,0,0,1,169.9,12a11.17,11.17,0,0,1-.89-1.79,15.31,15.31,0,0,1-.61-1.92q-.24-1-.38-1.92a.37.37,0,0,0,0-.08.24.24,0,0,1,0-.06l-3.41.29-.06-1.1,3.36-.29Zm4.22-.83A12.8,12.8,0,0,0,171.28,3a14.66,14.66,0,0,0-.94-1.18l.88-.74q.54.59,1,1.17a13.65,13.65,0,0,1,.84,1.18l-.93.85Z"/><path class="cls-1" d="M189,14.62v-.78h-6.13v.82h-1.17V9.26q-.72.4-1.46.74t-1.51.66l-.75-1q.72-.24,1.48-.56t1.5-.7q.74-.38,1.45-.81t1.33-.86q-.46-.51-1-1t-1.06-1a11.85,11.85,0,0,1-1.16,1,11.8,11.8,0,0,1-1.29.82l-.77-.85A12.49,12.49,0,0,0,183.8.29l1.1.29q-.13.26-.28.5t-.3.5l-.11.19h4.59l.62.57a24,24,0,0,1-2.73,3.28,18.61,18.61,0,0,1-3.34,2.67h6.8v6.32ZM183.54,2.74q-.26.35-.54.69l-.57.66q.56.45,1.13.94a13.24,13.24,0,0,1,1.06,1q.85-.75,1.63-1.58a15.62,15.62,0,0,0,1.44-1.75Zm-.66,10.14H189V9.3h-6.13Z"/><path class="cls-1" d="M194.31,3h5.42V4h-5.42Zm.51,11.62V9.33h4.4v4.53h-3.38v.8ZM195,.93h4v1h-4Zm0,4.21h4v1h-4Zm0,2.1h4v1h-4Zm.8,3v2.67h2.35V10.26Zm11.3,2.82a1.47,1.47,0,0,1-.33,1.11,1.68,1.68,0,0,1-1.13.3q-.59,0-1.16,0l-1.14-.07-.27,0-.22-1.17q.64.1,1.28.15t1.31.06q.56,0,.56-.64V2.26h-6.14v-1h7.25ZM200.31,4H205v1h-4.74Zm.19,7.76V6.43h4.29v4.3h-3.26v1Zm1-4.37V9.81h2.24V7.36Z"/><path class="cls-1" d="M220.21,13.66l-1,.09-1,0h-1.54a8.87,8.87,0,0,1-.89-.06,9.35,9.35,0,0,1-1-.17,4.1,4.1,0,0,1-.92-.33,3.09,3.09,0,0,1-.78-.56,2.47,2.47,0,0,1-.56-.86,2.73,2.73,0,0,1-.21-1.35,2.67,2.67,0,0,1,.46-1.18,5.24,5.24,0,0,1,1-1.1,18,18,0,0,1,1.53-1.1V.82h1.22V6.35l.77-.5.8-.5.9-.54,1.07-.64.64,1-3,1.74q-1.1.66-2,1.22a9.65,9.65,0,0,0-1.41,1.1,3,3,0,0,0-.74,1,1.41,1.41,0,0,0,0,1.07,1.38,1.38,0,0,0,.56.73,3,3,0,0,0,.89.39,5.63,5.63,0,0,0,1,.17l.93.06a19.82,19.82,0,0,0,2,0q1-.07,2.14-.22v1.12Z"/><path class="cls-1" d="M233.87,13.08a5.68,5.68,0,0,1-2.94.89,3.78,3.78,0,0,1-1.26-.21,3,3,0,0,1-1-.62,2.87,2.87,0,0,1-.7-1.06,4,4,0,0,1-.26-1.49V1.39h1.26v9.2a2.6,2.6,0,0,0,.46,1.61,1.74,1.74,0,0,0,1.49.62,4,4,0,0,0,1-.15,5,5,0,0,0,1.2-.53,8,8,0,0,0,1.34-1,12.39,12.39,0,0,0,1.45-1.63l.86.78A10.47,10.47,0,0,1,233.87,13.08Z"/><path class="cls-1" d="M247.29,4.58q-.51.61-1,1.33a12.83,12.83,0,0,0-.94,1.54,5.32,5.32,0,0,0-.55,1.66,3.84,3.84,0,0,0,0,1.52,2.5,2.5,0,0,0,.58,1.1,2.56,2.56,0,0,0,1.06.67,4.56,4.56,0,0,0,1.5.22l.46,0,.75,0v1.1l-1.25,0a6,6,0,0,1-2.09-.33,3.67,3.67,0,0,1-1.46-.94,3.34,3.34,0,0,1-.78-1.5,5.38,5.38,0,0,1-.06-2,5.06,5.06,0,0,1,.38-1.36,8.88,8.88,0,0,1,.7-1.28q.42-.64,1-1.32l1.16-1.46-6.53,0V2.4h10.34V3.5h-2.43A11.55,11.55,0,0,1,247.29,4.58Z"/><path class="cls-1" d="M266,13.78h-6v.88h-1.12V9.9a12.72,12.72,0,0,1-1.42,1.3,14.88,14.88,0,0,1-1.58,1.08l-.72-1a10.66,10.66,0,0,0,2.45-1.68,8.4,8.4,0,0,0,1.81-2.37h-2.53V6.35h2.94q.14-.4.26-.85t.22-.85H255.4v-1h5.14c.05-.29.1-.57.14-.86s.07-.56.09-.84H257V1.07h9.43V3.7h2.27v1h-2.27V7.28h-5.76a8.55,8.55,0,0,1-.44.83c-.17.28-.34.54-.52.8h7.49v5.74H266ZM260,9.9v2.88h6V9.9Zm1.44-5.25c-.06.28-.13.56-.21.86s-.17.57-.27.84h4.3V4.66ZM261.9,2q0,.42-.11.85c0,.29-.09.57-.14.85h3.65V2Z"/><path class="cls-1" d="M276.06,9.54v3.18h1.86v1h-4.24v.94h-1V1.33h5.26v1h-1.86V5.06h1.57V9.54Zm-1-7.25h-1.39V5.06h1.39ZM276.65,6h-3V8.61h3Zm-1.58,3.57h-1.39v3.18h1.39Zm4.61-6.48q-.25.58-.58,1.17a11,11,0,0,1-.72,1.15l-.77-.77a9.59,9.59,0,0,0,1.1-2,16.54,16.54,0,0,0,.7-2.25l1.06.29c-.06.26-.13.51-.21.75s-.15.49-.24.74h5.63v1Zm-.48,10.88v.72h-1V8.9h3.29v5.68h-1v-.64Zm0-4.11V13h1.34V9.82Zm.16-5.62h5V8h-5Zm4,.93h-3V7h3Zm-.14,8.8v.72h-1V8.9h3.33v5.76h-1v-.72Zm0-4.11V13h1.39V9.82Z"/><path class="cls-1" d="M298,4V8.82c0,.48,0,.9,0,1.26a7.43,7.43,0,0,1-.07,1,3.26,3.26,0,0,1-.22.81,4.44,4.44,0,0,1-.43.78,7.79,7.79,0,0,1-.7.86q-.42.46-1,1.07l-.88-.77c.44-.43.79-.78,1.06-1.07a7.08,7.08,0,0,0,.65-.78,2.63,2.63,0,0,0,.34-.66,3.84,3.84,0,0,0,.15-.75,1.64,1.64,0,0,1-.55.34,1.88,1.88,0,0,1-.73.06,2.41,2.41,0,0,1-1-.26,2.22,2.22,0,0,1-.73-.6,2.45,2.45,0,0,1-.43-.88,3.23,3.23,0,0,1-.09-1.1,2.83,2.83,0,0,1,.76-1.8,2.18,2.18,0,0,1,1.67-.66,2.76,2.76,0,0,1,.58.07,1.24,1.24,0,0,1,.41.22V4h-6.87V2.91h6.87v-2H298v2h3.71V4ZM295.7,6.74a1.05,1.05,0,0,0-.53.13,1.12,1.12,0,0,0-.37.34,1.72,1.72,0,0,0-.22.47,2.37,2.37,0,0,0-.1.52,1.84,1.84,0,0,0,0,.54,1.72,1.72,0,0,0,.18.52,1.12,1.12,0,0,0,.35.4,1,1,0,0,0,.56.18,1.14,1.14,0,0,0,.59-.11,1.18,1.18,0,0,0,.39-.33,1.35,1.35,0,0,0,.22-.46,2.5,2.5,0,0,0,.09-.54,2.67,2.67,0,0,0,0-.62,1.47,1.47,0,0,0-.21-.53,1.14,1.14,0,0,0-.38-.37A1.07,1.07,0,0,0,295.7,6.74Z"/><path class="cls-1" d="M309.08,7a8.55,8.55,0,0,1,1.29-.39,7.09,7.09,0,0,1,1.37-.17,5.77,5.77,0,0,1,1.3.11,3.65,3.65,0,0,1,1.14.43,3.06,3.06,0,0,1,1.42,3.12,3.71,3.71,0,0,1-.82,2.12,4.61,4.61,0,0,1-2,1.37,6.65,6.65,0,0,1-1.28.31,6.87,6.87,0,0,1-1.4.06,4.85,4.85,0,0,1-1.32-.26,2.53,2.53,0,0,1-1-.63,1.62,1.62,0,0,1-.51-.9,1.51,1.51,0,0,1,.12-.91,1.68,1.68,0,0,1,.64-.7,1.89,1.89,0,0,1,1-.28,2.9,2.9,0,0,1,1.82.64,3.77,3.77,0,0,1,1.22,1.74,2.5,2.5,0,0,0,.58-.19,3,3,0,0,0,.74-.47,3.21,3.21,0,0,0,.66-.8,2.57,2.57,0,0,0,.34-1.18,2.11,2.11,0,0,0-.88-2.13,2.9,2.9,0,0,0-1.3-.41,6.4,6.4,0,0,0-1.64.07,9.83,9.83,0,0,0-1.76.47,11.06,11.06,0,0,0-1.68.78L306.39,8,312,2.48h-4.58v-1h6.42v.86Zm1.79,5.9a3.65,3.65,0,0,0-.31-.56,2.58,2.58,0,0,0-.42-.49,2.17,2.17,0,0,0-.53-.35,1.45,1.45,0,0,0-.62-.14.55.55,0,0,0-.41.14.49.49,0,0,0-.15.32.72.72,0,0,0,.08.38.68.68,0,0,0,.3.31,2.32,2.32,0,0,0,.54.23,3.89,3.89,0,0,0,.59.13l.54,0A1.64,1.64,0,0,0,310.87,12.93Z"/><path class="cls-1" d="M330.35,6.21a5.07,5.07,0,0,1-.93,1.49A8.75,8.75,0,0,1,327.93,9q-.89.63-2,1.35l.38.44.47.53.59.67.76.87-.93.77q-2-2.35-3.42-3.73t-2.11-2l.88-.77.8.69L325,9.47q1-.61,1.78-1.14a8.79,8.79,0,0,0,1.37-1.11A4.55,4.55,0,0,0,329.05,6a3.47,3.47,0,0,0,.31-1.5h-9.57V3.38h10.88v1A4.9,4.9,0,0,1,330.35,6.21Z"/><path class="cls-1" d="M340.74,2.8V4h-4.45V2.8ZM346.58,6q-.69,1.28-1.28,2.33a20.05,20.05,0,0,1-1.19,1.88,9.57,9.57,0,0,1-1.28,1.46,6.09,6.09,0,0,1-1.55,1,8.05,8.05,0,0,1-2,.61,14.59,14.59,0,0,1-2.57.2V12.35a13.66,13.66,0,0,0,2.17-.15,6.34,6.34,0,0,0,1.67-.5,5.36,5.36,0,0,0,1.33-.88A8,8,0,0,0,343,9.51a20.76,20.76,0,0,0,1.13-1.79q.57-1,1.28-2.31Z"/><path class="cls-1" d="M356.32,2.32V3.57H352.2V2.32ZM352.2,6.58V5.38h4.11v1.2Zm10-1-.3.69-.26.55-.19.41q-.42.85-.83,1.65a16.63,16.63,0,0,1-.89,1.51,9.25,9.25,0,0,1-1,1.3,6,6,0,0,1-1.27,1,6.11,6.11,0,0,1-1.61.66,8.1,8.1,0,0,1-2,.23h-1.17V12.42h1.17a5.75,5.75,0,0,0,2.37-.43,5.13,5.13,0,0,0,1.67-1.2A9.05,9.05,0,0,0,359.06,9q.57-1,1.18-2.27c.12-.21.22-.42.31-.62s.17-.38.25-.53.16-.35.22-.5Z"/><path class="cls-1" d="M371.28,2.8V4h-4.45V2.8ZM377.12,6q-.69,1.28-1.28,2.33a20.46,20.46,0,0,1-1.19,1.88,9.58,9.58,0,0,1-1.28,1.46,6.11,6.11,0,0,1-1.55,1,8.05,8.05,0,0,1-2,.61,14.63,14.63,0,0,1-2.58.2V12.35a13.62,13.62,0,0,0,2.17-.15,6.3,6.3,0,0,0,1.67-.5,5.32,5.32,0,0,0,1.33-.88,8.13,8.13,0,0,0,1.14-1.31,20.77,20.77,0,0,0,1.13-1.79q.58-1,1.28-2.31Z"/><path class="cls-1" d="M383.2,13.1q2-1.25,3.35-2.34a16.09,16.09,0,0,0,2.26-2.11,7.26,7.26,0,0,0,1.28-2,6.11,6.11,0,0,0,.43-2.1h-4a7.37,7.37,0,0,1-.57.9,7.57,7.57,0,0,1-.75.86,13.13,13.13,0,0,1-1,.91q-.59.47-1.37,1l-.75-1A18.85,18.85,0,0,0,383.72,6a10.1,10.1,0,0,0,1.1-1.1,5,5,0,0,0,.66-1,4.66,4.66,0,0,0,.34-1A5.27,5.27,0,0,0,386,2q0-.49,0-1h1.28c0,.32,0,.6,0,.83s0,.44,0,.62,0,.35-.07.5a4.41,4.41,0,0,1-.11.46h4.79V4.45a7,7,0,0,1-.43,2.44A8.33,8.33,0,0,1,390,9.21a16,16,0,0,1-2.45,2.36,39.8,39.8,0,0,1-3.65,2.54Zm7.87-10.66h-.94V0h.94Zm2,0h-.94V0h.94Z"/><path class="cls-1" d="M407.11,7.28a8.11,8.11,0,0,1-.87,2.29,12.08,12.08,0,0,1-1.58,2.14q-1,1.07-2.38,2.45l-.9-.88q1.34-1.3,2.25-2.28a10.7,10.7,0,0,0,1.45-1.94,7.41,7.41,0,0,0,.78-2,12.15,12.15,0,0,0,.26-2.51h-7V7.46h-1.28V3.34h4.29V.9h1.28V3.34h4V4.4A13.75,13.75,0,0,1,407.11,7.28Z"/><path class="cls-1" d="M421.4,5.23V6.3h-3.28v5.18h4.27v1.09H412.6V11.49h4.27V6.3h-3.28V5.23Z"/><path class="cls-1" d="M433,6.93q1.05-.59,1.69-1a6.43,6.43,0,0,0,1-.71,1.71,1.71,0,0,0,.46-.62,2,2,0,0,0,.11-.71V3.5l-9.35,0V2.34h10.63V3.9a3,3,0,0,1-.22,1.22,2.83,2.83,0,0,1-.7,1,8.24,8.24,0,0,1-1.22.9q-.74.46-1.74,1Zm-4.64,6.21q.62-.72,1.07-1.26a8.48,8.48,0,0,0,.75-1.06,5.84,5.84,0,0,0,.5-1.06A6.47,6.47,0,0,0,431,8.48q.1-.72.13-1.69t0-2.31h1.28q0,1.47-.06,2.55a15.5,15.5,0,0,1-.2,1.89,8.26,8.26,0,0,1-.38,1.42,7.15,7.15,0,0,1-.57,1.18,8.93,8.93,0,0,1-.81,1.13l-1.08,1.29Z"/><path class="cls-1" d="M441.06,10.43a2,2,0,0,1,1,.26,2,2,0,0,1,1.12,1.87A2.16,2.16,0,0,1,441,14.69a2.12,2.12,0,0,1-1-.26,2,2,0,0,1-1.12-1.89,2.09,2.09,0,0,1,.66-1.52A2,2,0,0,1,441.06,10.43Zm0,.82a1.48,1.48,0,0,0-.49.08,1,1,0,0,0-.41.26,1.24,1.24,0,0,0-.42,1,1.47,1.47,0,0,0,.11.56,1.25,1.25,0,0,0,1.2.75,1.32,1.32,0,0,0,.69-.19,1.24,1.24,0,0,0,.62-1.12,1.2,1.2,0,0,0-.72-1.18A1.32,1.32,0,0,0,441,11.25Z"/><path class="cls-1" d="M25.42,33.46a18.61,18.61,0,0,1-1.49,1.14,17.43,17.43,0,0,1-1.63,1l-.72-1a14.73,14.73,0,0,0,3.54-2.5,13.73,13.73,0,0,0,2.59-3.46h1.34a13.32,13.32,0,0,0,2.76,3.21,17.73,17.73,0,0,0,3.56,2.33l-.74,1a18.94,18.94,0,0,1-3.46-2.37,15.57,15.57,0,0,1-2.76-3.12,12.92,12.92,0,0,1-1.3,1.94,15,15,0,0,1-1.62,1.72h6.22v1h-6.3Zm8,3.33a32.22,32.22,0,0,1-2,3.14,21.52,21.52,0,0,1-2.5,2.83l-1-.75a20.52,20.52,0,0,0,2.18-2.34A22.62,22.62,0,0,0,31.89,37H23.62V36h9.12Z"/><path class="cls-1" d="M49.54,34.07a26.16,26.16,0,0,0,2.8,1l-.67,1a23.8,23.8,0,0,1-3-1.27A14,14,0,0,1,46,33v2.38h2.67l.46.51q-.72.59-1.45,1.12t-1.51,1h0v.29h6.1v1h-6v2a1.29,1.29,0,0,1-.34,1.07,1.93,1.93,0,0,1-1.13.26q-.5,0-1,0c-.32,0-.65-.05-1-.1l-.24-1.14.24,0,.9.12a7.27,7.27,0,0,0,.9.06.46.46,0,0,0,.51-.53V39.33h-6.4v-1h6.34v-.75a10.34,10.34,0,0,0,2-1.2H41.84v-1H44.9V33.09a10.48,10.48,0,0,1-2.54,2,15.13,15.13,0,0,1-3,1.28l-.64-.94a13.41,13.41,0,0,0,2.83-1.07,12,12,0,0,0,2.51-1.71H38.91v-1h6V30.3l-2.18.15-2.18.12-.51-1q2.32-.08,4.63-.29a43.53,43.53,0,0,0,4.63-.67l1,1q-1.07.19-2.13.34T46,30.22h0v1.42h6.11v1h-5.2A17.21,17.21,0,0,0,49.54,34.07Z"/><path class="cls-1" d="M57.91,37.66c0,.35,0,.64,0,.86a2.37,2.37,0,0,0,.1.62,2.48,2.48,0,0,0,.3.63q.22.34.63.86l-.93.72a8.13,8.13,0,0,1-.77-1.07,3.91,3.91,0,0,1-.37-.83,3,3,0,0,1-.12-.78q0-.4,0-.93V30.16h1.15Zm10,3.17-.82-.57-.58-.4-.44-.29-.37-.23a2.31,2.31,0,0,1-.66,1.7,2.41,2.41,0,0,1-1.63.51,4,4,0,0,1-.74-.07,3.13,3.13,0,0,1-.7-.22,2.52,2.52,0,0,1-.62-.38,2.17,2.17,0,0,1-.46-.53,1.63,1.63,0,0,1-.15-1.4,1.67,1.67,0,0,1,.42-.66,2.05,2.05,0,0,1,.62-.41,3,3,0,0,1,.72-.2,4.88,4.88,0,0,1,.71-.06c.21,0,.43,0,.64,0l.67.1V33H60.37V31.92h4.19v-3h1.18v3h2.32V33H65.75v5.18l.55.27c.19.1.39.21.62.35l.74.48.94.64Zm-3.38-2-.58-.1a4.48,4.48,0,0,0-.65,0,4.34,4.34,0,0,0-.77.07.9.9,0,0,0-.62.42.53.53,0,0,0-.08.37.78.78,0,0,0,.14.33,1,1,0,0,0,.29.26,1.75,1.75,0,0,0,.35.18,2.81,2.81,0,0,0,.8.13,1.7,1.7,0,0,0,.61-.09.69.69,0,0,0,.34-.26,1,1,0,0,0,.14-.43,5.15,5.15,0,0,0,0-.62Z"/><path class="cls-1" d="M79.94,30.69H76.29V41.82H75V30.67H71.4V29.6h8.54Z"/><path class="cls-1" d="M91.45,40.46a2.41,2.41,0,0,1-.78.86,2.66,2.66,0,0,1-1,.4,5.33,5.33,0,0,1-.94.1H86.38a5.33,5.33,0,0,1-.94-.1,2.66,2.66,0,0,1-1-.4,2.41,2.41,0,0,1-.78-.86A3,3,0,0,1,83.36,39V29.6h1.3V39a2.08,2.08,0,0,0,.19,1,1.31,1.31,0,0,0,.46.51,1.35,1.35,0,0,0,.56.19l.52,0h2.37l.51,0a1.35,1.35,0,0,0,.57-.19,1.31,1.31,0,0,0,.46-.51,2.1,2.1,0,0,0,.19-1V29.6h1.28V39A3,3,0,0,1,91.45,40.46Z"/><path class="cls-1" d="M101.71,38.9a8.11,8.11,0,0,0-.42-.86,3,3,0,0,0-.52-.69,2.2,2.2,0,0,0-.67-.45,2.26,2.26,0,0,0-.89-.16H97v5.09H95.76V29.6h5.36a5.17,5.17,0,0,1,1,.11,2.58,2.58,0,0,1,1,.42,2.38,2.38,0,0,1,.73.87,3.14,3.14,0,0,1,.29,1.44v1.42A3.14,3.14,0,0,1,104,35a2.53,2.53,0,0,1-.58.88,2.5,2.5,0,0,1-.88.55,3.13,3.13,0,0,1-1.1.19,1.75,1.75,0,0,1,.78.66,6.84,6.84,0,0,1,.54,1l1.65,3.54H103Zm-.58-3.18a1.71,1.71,0,0,0,1.29-.46,1.76,1.76,0,0,0,.44-1.27V32.43a1.78,1.78,0,0,0-.44-1.29,1.73,1.73,0,0,0-1.3-.46H97v5Z"/><path class="cls-1" d="M116.19,30.69h-6.7V35h5.7v1h-5.68v5.79h-1.26V29.6h8Z"/><path class="cls-1" d="M135.07,40.46a5.19,5.19,0,0,1-1.61,1,4.94,4.94,0,0,1-1.91.38,4.55,4.55,0,0,1-1.43-.22,3.47,3.47,0,0,1-1.2-.67,3.27,3.27,0,0,1-1.14-2.58,2.88,2.88,0,0,1,.22-1.16,3.7,3.7,0,0,1,.59-1,5.69,5.69,0,0,1,.84-.8q.47-.37,1-.69l-.48-.58a4.3,4.3,0,0,1-.42-.61,3.86,3.86,0,0,1-.3-.67,2.42,2.42,0,0,1,.1-1.75,2.54,2.54,0,0,1,.58-.79,2.67,2.67,0,0,1,.85-.52,2.76,2.76,0,0,1,1-.18,2.72,2.72,0,0,1,1.85.72,2.57,2.57,0,0,1,.58.8,2.33,2.33,0,0,1,.22,1,1.89,1.89,0,0,1-.18.84,2.82,2.82,0,0,1-.5.7,4.85,4.85,0,0,1-.72.62l-.86.59,3.07,3.73a5.42,5.42,0,0,0,.57-1.29,8.08,8.08,0,0,0,.28-1.48h1.22a7.8,7.8,0,0,1-.39,2,5.5,5.5,0,0,1-.92,1.71l1.87,2.16h-1.6Zm-4-4.91-.36.28a4.66,4.66,0,0,0-.36.3,5.56,5.56,0,0,0-.91,1,2.12,2.12,0,0,0-.38,1.28,2.58,2.58,0,0,0,.18,1,2.27,2.27,0,0,0,.52.78,2.32,2.32,0,0,0,.79.5,2.75,2.75,0,0,0,1,.18,3.69,3.69,0,0,0,1.5-.3,5.34,5.34,0,0,0,1.38-.91Zm-.69-3.36a1.54,1.54,0,0,0,.09.51,3,3,0,0,0,.23.51l.16.26.18.26a2.08,2.08,0,0,0,.18.24l.18.22.56-.36a4.69,4.69,0,0,0,.57-.44,2.33,2.33,0,0,0,.44-.54,1.22,1.22,0,0,0,.18-.63,1.48,1.48,0,0,0-.4-1,1.33,1.33,0,0,0-1-.43,1.22,1.22,0,0,0-1,.42A1.51,1.51,0,0,0,130.37,32.19Z"/><path class="cls-1" d="M158.21,30.69h-6.7V35h5.7v1h-5.7v4.7h6.7v1.09h-8V29.6h8Z"/><path class="cls-1" d="M165.41,41.82l-4.16-12.19h1.39l3.7,11.06L170,29.63h1.39l-4.13,12.19Z"/><path class="cls-1" d="M182.86,30.69h-6.7V35h5.7v1h-5.7v4.7h6.7v1.09h-8V29.6h8Z"/><path class="cls-1" d="M192.31,38.9a8.11,8.11,0,0,0-.42-.86,3,3,0,0,0-.52-.69,2.2,2.2,0,0,0-.67-.45,2.26,2.26,0,0,0-.89-.16h-2.18v5.09h-1.28V29.6h5.36a5.17,5.17,0,0,1,1,.11,2.58,2.58,0,0,1,1,.42,2.38,2.38,0,0,1,.73.87,3.14,3.14,0,0,1,.29,1.44v1.42a3.14,3.14,0,0,1-.21,1.18,2.53,2.53,0,0,1-.58.88,2.5,2.5,0,0,1-.88.55,3.13,3.13,0,0,1-1.1.19,1.75,1.75,0,0,1,.78.66,6.84,6.84,0,0,1,.54,1L195,41.82h-1.41Zm-.58-3.18a1.71,1.71,0,0,0,1.29-.46,1.76,1.76,0,0,0,.44-1.27V32.43a1.78,1.78,0,0,0-.44-1.29,1.73,1.73,0,0,0-1.3-.46h-4.08v5Z"/><path class="cls-1" d="M202,41.82V36.77l-4.26-7.14h1.47l3.46,6.08L206,29.63h1.47l-4.22,7.14v5.06Z"/><path class="cls-1" d="M215.86,29.6q3.54,0,3.54,3.23v5.76q0,3.23-3.54,3.23H211V29.6Zm2.24,3.49a2.59,2.59,0,0,0-.56-1.75,2.12,2.12,0,0,0-1.7-.65h-3.58v10h3.63a2,2,0,0,0,2.21-2.27Z"/><path class="cls-1" d="M222.5,41.81l4.32-12.22h1.78l4.35,12.22h-1.38l-1.33-3.92h-5l-1.33,3.92Zm3.07-5h4.3l-2.14-6.37Z"/><path class="cls-1" d="M238.09,41.82V36.77l-4.26-7.14h1.47l3.46,6.08,3.38-6.08h1.47l-4.22,7.14v5.06Z"/><path class="cls-1" d="M256,31a2,2,0,0,1,.73-.82,3.1,3.1,0,0,1,1.08-.42,7,7,0,0,1,1.34-.12h4.21v1.09h-4q-.53,0-1,0a1.72,1.72,0,0,0-.74.22,1.22,1.22,0,0,0-.47.54,2.35,2.35,0,0,0-.17,1V39a2.5,2.5,0,0,0,.16,1,1.08,1.08,0,0,0,.46.52,1.78,1.78,0,0,0,.74.2c.29,0,.61,0,1,0h4v1.1h-4.21a7,7,0,0,1-1.34-.12,3.09,3.09,0,0,1-1.08-.42,2,2,0,0,1-.73-.82,2.92,2.92,0,0,1-.27-1.34V32.3A3,3,0,0,1,256,31Z"/><path class="cls-1" d="M266.47,41.81l4.32-12.22h1.78l4.35,12.22h-1.37l-1.33-3.92h-5l-1.33,3.92Zm3.07-5h4.3l-2.14-6.37Z"/><path class="cls-1" d="M287.8,41.82h-7.33V29.6h1.26V40.74h6.06Z"/><path class="cls-1" d="M292.44,41.82h-1.28V29.6h1.28Z"/><path class="cls-1" d="M304.41,30.69h-6.71V35h5.7v1h-5.68v5.79h-1.27V29.6h8Z"/><path class="cls-1" d="M312.91,29.6a5,5,0,0,1,.95.1,2.77,2.77,0,0,1,1,.41,2.46,2.46,0,0,1,.79.86,3,3,0,0,1,.32,1.49V39a3,3,0,0,1-.32,1.47,2.46,2.46,0,0,1-.79.86,2.65,2.65,0,0,1-1,.4,5.37,5.37,0,0,1-.95.1h-2.3a5.33,5.33,0,0,1-.95-.1,2.68,2.68,0,0,1-1-.4,2.42,2.42,0,0,1-.78-.86,3,3,0,0,1-.31-1.47V32.46A3.07,3.07,0,0,1,307.9,31a2.42,2.42,0,0,1,.78-.86,2.8,2.8,0,0,1,1-.41,4.93,4.93,0,0,1,.95-.1Zm1.74,2.86a1.86,1.86,0,0,0-.39-1.31,1.75,1.75,0,0,0-1.32-.42h-2.34a1.76,1.76,0,0,0-1.33.42,1.84,1.84,0,0,0-.4,1.3V39a2.11,2.11,0,0,0,.19,1,1.31,1.31,0,0,0,.46.51,1.33,1.33,0,0,0,.56.19l.52,0h2.32l.51,0a1.35,1.35,0,0,0,.57-.19,1.32,1.32,0,0,0,.46-.51,2.11,2.11,0,0,0,.19-1Z"/><path class="cls-1" d="M325.87,38.9a7.75,7.75,0,0,0-.42-.86,3,3,0,0,0-.52-.69,2.19,2.19,0,0,0-.67-.45,2.26,2.26,0,0,0-.89-.16H321.2v5.09h-1.28V29.6h5.36a5.18,5.18,0,0,1,1,.11,2.6,2.6,0,0,1,1,.42A2.36,2.36,0,0,1,328,31a3.13,3.13,0,0,1,.29,1.44v1.42a3.14,3.14,0,0,1-.21,1.18,2.45,2.45,0,0,1-1.46,1.43,3.13,3.13,0,0,1-1.11.19,1.75,1.75,0,0,1,.79.66,6.83,6.83,0,0,1,.54,1l1.65,3.54h-1.41Zm-.58-3.18a1.71,1.71,0,0,0,1.29-.46A1.76,1.76,0,0,0,327,34V32.43a1.78,1.78,0,0,0-.44-1.29,1.73,1.73,0,0,0-1.3-.46H321.2v5Z"/><path class="cls-1" d="M341,41.82H339.3l-5.62-10.34V41.82H332.4V29.6H334l5.76,10.66V29.6H341Z"/><path class="cls-1" d="M346.34,41.82h-1.28V29.6h1.28Z"/><path class="cls-1" d="M349.86,41.81l4.32-12.22H356l4.35,12.22h-1.38l-1.33-3.92h-5l-1.33,3.92Zm3.07-5h4.3l-2.14-6.37Z"/><path class="cls-1" d="M368,33.94a2.11,2.11,0,0,1,1.36.35,2.25,2.25,0,0,1,.78,1.14q.62-.27,1.28-.53l1.52-.61.46,1-1.62.66-1.4.59v2.37h-1.15V37l-1.05.58a5.94,5.94,0,0,0-1,.66,2.51,2.51,0,0,0-.65.78,1.11,1.11,0,0,0,0,.94,1.07,1.07,0,0,0,.51.6,2.85,2.85,0,0,0,.79.29,4.5,4.5,0,0,0,.83.1h.63a14,14,0,0,0,1.54-.09l1.51-.17,0,1.14-1.56.18a15.7,15.7,0,0,1-1.61.08,6.31,6.31,0,0,1-2.52-.38,2.32,2.32,0,0,1-1.27-1.22,2.13,2.13,0,0,1,.12-2,3.44,3.44,0,0,1,.68-.81,8.57,8.57,0,0,1,.9-.7,11.06,11.06,0,0,1,1-.6l1-.53a1.71,1.71,0,0,0-.22-.46,1.11,1.11,0,0,0-.27-.27.74.74,0,0,0-.3-.12l-.3,0h-2l.46-3.5h-2.78V30.38h2.94l.26-1.92h1.2l-.27,1.92h4.06v1.09h-4.22l-.32,2.46Z"/><path class="cls-1" d="M385.15,34.58c0,.73,0,1.38-.1,2a6.57,6.57,0,0,1-.39,1.71,8.1,8.1,0,0,1-.94,1.76A19.91,19.91,0,0,1,382,42.13l-.91-.8a18.21,18.21,0,0,0,1.55-1.9,7.45,7.45,0,0,0,.84-1.56,5.9,5.9,0,0,0,.35-1.51q.07-.77.09-1.78h-5.37v-1.2h11.21v1.2ZM380.23,31v-1.2H388V31Z"/><path class="cls-1" d="M394.48,34.88h11.81V36.1H394.48Z"/><path class="cls-1" d="M420.62,34.21a5.11,5.11,0,0,1-.93,1.49,8.82,8.82,0,0,1-1.5,1.32q-.89.63-2,1.35l.38.44.47.53.59.67.76.87-.93.77q-2-2.35-3.42-3.73t-2.1-2l.88-.77.8.69,1.66,1.65q1-.61,1.78-1.14a8.81,8.81,0,0,0,1.37-1.11,4.5,4.5,0,0,0,.88-1.23,3.45,3.45,0,0,0,.31-1.5h-9.57v-1.1h10.88v1A4.93,4.93,0,0,1,420.62,34.21Z"/><path class="cls-1" d="M427.49,37.89c0,.47,0,.84,0,1.12a3.15,3.15,0,0,0,.14.72,2,2,0,0,0,.31.58l.54.69-1,.72q-.4-.53-.64-.91a3.5,3.5,0,0,1-.37-.78,4,4,0,0,1-.17-.89c0-.33,0-.74,0-1.24v-8h1.15Zm4.16-.83a8.69,8.69,0,0,0,0,1.31,2.08,2.08,0,0,0,.24.89,1.22,1.22,0,0,0,.58.51,2.48,2.48,0,0,0,1,.17h3.5V41.1h-3.58a3.63,3.63,0,0,1-1.52-.28,2.23,2.23,0,0,1-1-.8,3,3,0,0,1-.45-1.27,7.08,7.08,0,0,1,0-1.7Zm-.72-5.71h5.63v1.2h-5.63Z"/><path class="cls-1" d="M449,41.08a5.68,5.68,0,0,1-2.94.89,3.79,3.79,0,0,1-1.26-.21,2.94,2.94,0,0,1-1-.62,2.88,2.88,0,0,1-.71-1.06,4,4,0,0,1-.26-1.49v-9.2h1.26v9.2a2.6,2.6,0,0,0,.46,1.61,1.74,1.74,0,0,0,1.49.62,4,4,0,0,0,1-.15,5,5,0,0,0,1.2-.53,8,8,0,0,0,1.34-1,12.46,12.46,0,0,0,1.45-1.63l.86.78A10.47,10.47,0,0,1,449,41.08Z"/><path class="cls-1" d="M460,32.5q0,1.1-.09,2a13.28,13.28,0,0,1-.22,1.59,13.13,13.13,0,0,1-.37,1.38,12.16,12.16,0,0,1-.53,1.33c-.21.45-.45.92-.71,1.42s-.57,1.06-.91,1.68l-1.09-.56.9-1.66c.26-.49.49-.94.68-1.38s.36-.85.5-1.25a9.14,9.14,0,0,0,.34-1.27,14.27,14.27,0,0,0,.19-1.46q.06-.78.08-1.81h-2.4V31.42h2.4v-2.7h1.25v2.7h2.8V32.5Zm5.76,9.06a13.18,13.18,0,0,1-1.54-.09,4.21,4.21,0,0,1-1.3-.35,2.26,2.26,0,0,1-.9-.74,2.12,2.12,0,0,1-.34-1.26v-.59h1.2v.59a1,1,0,0,0,.25.72,1.54,1.54,0,0,0,.66.38,3.88,3.88,0,0,0,.91.16c.34,0,.68,0,1,0h1.58v1.14Zm1.3-7.22v1.07h-4.93V34.34Z"/><path class="cls-1" d="M472.45,40.86a15.7,15.7,0,0,0-1.38-1.46l1-.88a14.74,14.74,0,0,1,1.35,1.36q.67.77,1.36,1.73l-1.12,1A16.21,16.21,0,0,0,472.45,40.86Z"/><path class="cls-1" d="M40.48,69.49a18.29,18.29,0,0,0,1.45-2.3Q42.56,66,43.1,64.7l.82.93q-.51,1.25-1.11,2.46a19.57,19.57,0,0,1-1.42,2.39ZM43,63.57a15.13,15.13,0,0,0-1-1.15,9.85,9.85,0,0,0-1.18-1l.74-.91a13.3,13.3,0,0,1,2.29,2.14l-.77.93Zm.45-3.68a10.16,10.16,0,0,0-1-1.13q-.54-.52-1.13-1l.72-.88a11.07,11.07,0,0,1,1.15,1q.54.53,1,1.09l-.75,1Zm0,10.21v-1h1.18V64.21h8.24v4.88H54v1Zm8.75-13v5.79h-7V57.07Zm-6.54,8.1v3.92h1.39V65.17ZM46.32,58v1.47h4.86V58Zm0,2.38v1.55h4.86V60.38Zm1.74,4.78v3.92h1.39V65.17Zm3.82,3.92V65.17H50.43v3.92Z"/><path class="cls-1" d="M58.91,69.46h-1V57.74h3.68V68.16h-2.7Zm0-7.09h1.73V58.7H58.91Zm0,4.8h1.73V63.33H58.91Zm9.2,1.23a9.45,9.45,0,0,0,1.54.7,12.7,12.7,0,0,0,1.66.46l-.7,1a11.81,11.81,0,0,1-1.67-.62,13.24,13.24,0,0,1-1.54-.85,9.32,9.32,0,0,1-1.54,1,12.12,12.12,0,0,1-1.7.72l-.67-.91a8.86,8.86,0,0,0,1.64-.54,8.19,8.19,0,0,0,1.5-.86,9,9,0,0,1-1.84-2,12,12,0,0,1-1.07,2.24,7.51,7.51,0,0,1-1.65,1.89l-.72-.77a6.62,6.62,0,0,0,1.13-1.19,9.56,9.56,0,0,0,.86-1.42A10.58,10.58,0,0,0,64,65.69a16.47,16.47,0,0,0,.41-1.61h-2.3v-1H64.5a4.08,4.08,0,0,0,0-.45,4.34,4.34,0,0,1,0-.45l0-.3H62.37V61h5.44q.38-.72.72-1.48A16.1,16.1,0,0,0,69.12,58l1.12.45q-.27.64-.6,1.3T68.94,61h1.68v.93h-5c0,.19,0,.39,0,.6s0,.41,0,.6h5.63v1H65.41l-.22,1.1h4.24l.56.46a10.09,10.09,0,0,1-1.86,2.75Zm2.24-11.07q-1.89.4-3.8.62t-3.88.32l-.45-1h0a29.07,29.07,0,0,0,7.2-.91ZM64.14,60.9a8.73,8.73,0,0,0-.42-1.11,6.06,6.06,0,0,0-.58-1l1-.38a6.6,6.6,0,0,1,.62,1q.25.53.46,1.07l-1,.38Zm2.21-.08q-.16-.61-.38-1.19a7.68,7.68,0,0,0-.54-1.14l1-.38A7.78,7.78,0,0,1,67,59.24q.22.58.38,1.18l-1,.4Zm-.78,5.28a10.14,10.14,0,0,0,.82.94,10.26,10.26,0,0,0,.93.84q.35-.37.72-.82a5,5,0,0,0,.61-1Z"/><path class="cls-1" d="M74.63,66.9A37,37,0,0,0,77.54,60h-2V58.85h2.35l.33-1.22q.15-.56.25-.88l1.15.27q-.08.24-.2.73t-.3,1.1h2.13V60H78.79a40.06,40.06,0,0,1-1.38,3.9q-.77,1.86-1.72,3.62Zm10.46-4.54a1.19,1.19,0,0,0-1,.54,2.79,2.79,0,0,0-.36,1.7v2a12,12,0,0,1,1.41.64q.69.37,1.62.91l-.58,1-.74-.45-.62-.35L84.27,68l-.54-.26a2.22,2.22,0,0,1-.59,1.75,2.48,2.48,0,0,1-1.73.55,3.73,3.73,0,0,1-1.14-.18,3,3,0,0,1-1-.54,2.09,2.09,0,0,1-.63-.84,1.51,1.51,0,0,1,0-1.11,1.73,1.73,0,0,1,.74-.87,3.28,3.28,0,0,1,1.39-.44l.46,0h.41l.42.06.51.1V64.54a3.64,3.64,0,0,1,.18-1.33,2.76,2.76,0,0,1,.56-.91q-.62,0-1,0a4,4,0,0,0-.74.12,2.81,2.81,0,0,0-.6.24c-.19.1-.4.23-.63.38l-.59-.87a6.6,6.6,0,0,1,1.42-.68,4.47,4.47,0,0,1,1.42-.18l3.6.06v.94Zm-2.43,5a4.94,4.94,0,0,0-1.33-.21,3.56,3.56,0,0,0-.49,0,3,3,0,0,0-.52.12,1,1,0,0,0-.47.3.68.68,0,0,0,.08.94,1.62,1.62,0,0,0,.53.3A3,3,0,0,0,81,69l.4,0a1.1,1.1,0,0,0,1-.36,1.82,1.82,0,0,0,.24-1Z"/><path class="cls-1" d="M101.18,66.73a5.09,5.09,0,0,1-.22,1.08,2.84,2.84,0,0,1-.59,1.08,2.35,2.35,0,0,1-.85.58,3.63,3.63,0,0,1-1,.24q-.57,0-1.21,0V68.59a7,7,0,0,0,1.18-.08,2.13,2.13,0,0,0,.7-.23,1,1,0,0,0,.38-.37,3,3,0,0,0,.22-.5,3.86,3.86,0,0,0,.17-.79q.06-.47.09-1.42V61.49H96.21v.1q0,.82-.06,1.46A8.37,8.37,0,0,1,96,64.26a7,7,0,0,1-.37,1.11q-.23.54-.58,1.17t-.82,1.38l-1.1,1.75-1-.67,1.06-1.68q.46-.72.78-1.3A11.43,11.43,0,0,0,94.44,65a6.18,6.18,0,0,0,.33-1,6.71,6.71,0,0,0,.16-1.08q0-.58,0-1.31v-.1H91.41V60.35H95V56.91h1.25v3.44h5V65.2Q101.24,66.14,101.18,66.73Z"/><path class="cls-1" d="M108.81,57.47v6.94h-1.18V57.47Zm4.77,4v-4h1.26v4q0,1.28-.08,2.23a11.13,11.13,0,0,1-.26,1.7,5.58,5.58,0,0,1-.5,1.34,5.86,5.86,0,0,1-.8,1.13A10.74,10.74,0,0,1,112.06,69q-.66.54-1.52,1.2l-.75-1q.78-.59,1.37-1.07a9.68,9.68,0,0,0,1-.94A4.58,4.58,0,0,0,113.29,65a9.24,9.24,0,0,0,.22-1.5Q113.58,62.69,113.58,61.52Z"/><path class="cls-1" d="M130.24,62.4A9.31,9.31,0,0,1,129,64.94a15.33,15.33,0,0,1-2.07,2.36q-1.24,1.17-2.89,2.58l-.85-1q1.63-1.41,2.78-2.51a15.5,15.5,0,0,0,1.9-2.14A7.86,7.86,0,0,0,129,62.1a8.82,8.82,0,0,0,.39-2.52h-8.14V58.34h9.46v.94A10.4,10.4,0,0,1,130.24,62.4Z"/><path class="cls-1" d="M141,64.79a5,5,0,0,1-.84,1.46,7.88,7.88,0,0,1-1.38,1.29,22.12,22.12,0,0,1-1.93,1.27l-.61-.94q1-.62,1.75-1.15a6.92,6.92,0,0,0,1.2-1.08,3.84,3.84,0,0,0,.7-1.19,5.22,5.22,0,0,0,.28-1.49h-3.66V62h5.6V59.42h1.17V62h2v1h-2v7h-1.17V63h-.78A6.22,6.22,0,0,1,141,64.79Z"/><path class="cls-1" d="M153.35,61.28q0,1.36-.1,2.37a9,9,0,0,1-.39,1.92,9.25,9.25,0,0,1-.86,1.86,24.65,24.65,0,0,1-1.47,2.16l-1-.74q.85-1.15,1.36-2a8.7,8.7,0,0,0,.78-1.68,7.52,7.52,0,0,0,.35-1.72q.08-.9.08-2.14V59.44h1.26Zm3.41,7.07a5.11,5.11,0,0,0,1.26-.17,2.68,2.68,0,0,0,1-.55,5.31,5.31,0,0,0,.93-1.07q.46-.67,1-1.71l1.06.64a17.27,17.27,0,0,1-1.18,1.94,5.84,5.84,0,0,1-1.17,1.24,3.76,3.76,0,0,1-1.33.66,6.63,6.63,0,0,1-1.7.19h-1.15V57.9h1.25Z"/><path class="cls-1" d="M177.58,67.34v1.25H166V67.34Zm-9.82-6.75V59.38h8v1.22Z"/><path class="cls-1" d="M187.8,62.93q1.06-.59,1.69-1a6.38,6.38,0,0,0,1-.71,1.71,1.71,0,0,0,.46-.62,2,2,0,0,0,.11-.71v-.4l-9.34,0V58.34h10.62V59.9a3,3,0,0,1-.22,1.22,2.85,2.85,0,0,1-.7,1,8.23,8.23,0,0,1-1.22.9q-.74.46-1.74,1Zm-4.64,6.21q.62-.72,1.07-1.26a8.38,8.38,0,0,0,.75-1.06,5.78,5.78,0,0,0,.5-1.06,6.46,6.46,0,0,0,.29-1.27q.1-.72.13-1.69t0-2.31h1.28q0,1.47-.06,2.55a15.5,15.5,0,0,1-.2,1.89,8.17,8.17,0,0,1-.38,1.42,7.31,7.31,0,0,1-.57,1.18,9,9,0,0,1-.81,1.13l-1.08,1.29Z"/><path class="cls-1" d="M202.39,68.3a8.83,8.83,0,0,0,1.45-.23,4.57,4.57,0,0,0,1.22-.5,4.31,4.31,0,0,0,1-.82,5.27,5.27,0,0,0,.8-1.22,4.27,4.27,0,0,0,.47-2.15,4.19,4.19,0,0,0-.66-2.06A4,4,0,0,0,205.33,60a4.65,4.65,0,0,0-1.83-.62q0,1.1-.18,2.1a16.73,16.73,0,0,1-.38,1.92q-.1.42-.23.9t-.33,1q-.19.51-.43,1a6.56,6.56,0,0,1-.56,1,3.1,3.1,0,0,1-.88.92,2.43,2.43,0,0,1-1,.38,2.05,2.05,0,0,1-1-.08,2.27,2.27,0,0,1-.83-.49,3,3,0,0,1-.63-.86,4.56,4.56,0,0,1-.34-1,5.44,5.44,0,0,1-.14-1q0-.46,0-.8a6.48,6.48,0,0,1,.68-2.66,6.46,6.46,0,0,1,5.7-3.51,5.83,5.83,0,0,1,2.71.63,5.13,5.13,0,0,1,2,1.78,5.27,5.27,0,0,1,.86,2.62,5.55,5.55,0,0,1-.58,2.75,5.83,5.83,0,0,1-2.25,2.5,7,7,0,0,1-3.29.9Zm-.64-5.2q.19-.85.32-1.76t.18-1.92a5.15,5.15,0,0,0-1.47.48,5.08,5.08,0,0,0-1.38,1,5.5,5.5,0,0,0-1.06,1.54,5.55,5.55,0,0,0-.49,2.07,4.62,4.62,0,0,0,0,.5,4.77,4.77,0,0,0,.08.74,4.15,4.15,0,0,0,.23.79,2,2,0,0,0,.45.69.8.8,0,0,0,.92.22,1.83,1.83,0,0,0,.84-.76,8,8,0,0,0,.86-1.78Q201.55,64,201.75,63.1Z"/><path class="cls-1" d="M212.57,70.1v-1h5.82V66.11h-4.56V65.06h10.43v1.06H219.6v2.94h5.94v1Zm8.4-8a.65.65,0,0,0,.08.36.53.53,0,0,0,.21.18.73.73,0,0,0,.3.07h.78l.36,0a1.75,1.75,0,0,0,.34-.1.34.34,0,0,0,.21-.19,1.62,1.62,0,0,0,.06-.26c0-.11,0-.23,0-.35l0-.36c0-.12,0-.21,0-.27l1.1.27a8.48,8.48,0,0,1-.06,1,2,2,0,0,1-.32.92.81.81,0,0,1-.4.27,3.25,3.25,0,0,1-.58.14,4.87,4.87,0,0,1-.62.06h-.89l-.49,0-.49-.06a1.18,1.18,0,0,1-.38-.12.79.79,0,0,1-.34-.41,1.54,1.54,0,0,1-.09-.52V59.36h-5.73V61.7H213V58.32h5.44V56.26h1.2v2.06h5.54v2.82H224V59.36h-3Zm-7.71,1.46a6.55,6.55,0,0,0,1.5-.48,3.36,3.36,0,0,0,1.07-.78,3.64,3.64,0,0,0,.69-1.15,6.31,6.31,0,0,0,.35-1.57l1.06.24a7.91,7.91,0,0,1-.38,1.76A4.23,4.23,0,0,1,216.8,63a4,4,0,0,1-1.2,1,7.3,7.3,0,0,1-1.7.62l-.66-.93Z"/><path class="cls-1" d="M232.28,58.88q-.4.77-.9,1.55a13.19,13.19,0,0,1-1.1,1.47l-.72-.86a10.54,10.54,0,0,0,1.52-2.21,13.06,13.06,0,0,0,1-2.53l1.15.22c-.08.24-.15.47-.23.7s-.16.45-.25.66h8.77v1Zm1.63,7.89a24,24,0,0,0-3.09-1.92l.67-.78q.77.38,1.54.85t1.44.93l.11.08a9.19,9.19,0,0,0,1.36-2.48l1.06.5a15,15,0,0,1-.66,1.35,10.46,10.46,0,0,1-.84,1.29q.75.56,1.47,1.16T238.38,69l-.78.91q-.67-.67-1.36-1.26t-1.42-1.17a10.35,10.35,0,0,1-2,1.78,12.18,12.18,0,0,1-2.34,1.26l-.66-1A12.07,12.07,0,0,0,232,68.4a8.71,8.71,0,0,0,1.86-1.54Zm6.21-3.23q0,.46,0,1.11t.08,1.33q.06.68.15,1.32a6.57,6.57,0,0,0,.24,1.07s0,0,0,0,0,0,0,0a1.24,1.24,0,0,0,.06.18l.1.22a1.15,1.15,0,0,0,.1.18c0,.05.07.08.1.08s.13-.12.19-.35a7.81,7.81,0,0,0,.17-.8q.07-.45.12-.86t.06-.53l1,.72q0,.26-.12.82a8.25,8.25,0,0,1-.26,1.14,4.16,4.16,0,0,1-.45,1,.78.78,0,0,1-.66.43.75.75,0,0,1-.46-.16,1.79,1.79,0,0,1-.38-.39,3.64,3.64,0,0,1-.3-.49q-.13-.26-.21-.45a5.75,5.75,0,0,1-.38-1.31q-.14-.77-.22-1.6t-.1-1.65q0-.82,0-1.46h-9.12v-1h10.24ZM231.87,60h8.21v1h-8.21Z"/><path class="cls-1" d="M253.67,58.22c-.05-.33-.1-.66-.14-1s-.07-.65-.09-1h1.1c0,.33,0,.65.08,1s.07.64.11,1h2a6.63,6.63,0,0,0-1-1.42l.85-.48q.34.37.61.73a7.1,7.1,0,0,1,.5.76l-.75.42h2.3v.93H254.9a14.13,14.13,0,0,0,.39,1.64,8.2,8.2,0,0,0,.65,1.56,12,12,0,0,0,.62-1.3q.26-.66.49-1.34l.94.5a14.25,14.25,0,0,1-.62,1.58q-.36.78-.81,1.55a3.43,3.43,0,0,0,.25.37c.11.15.23.3.37.45a2.8,2.8,0,0,0,.42.38.67.67,0,0,0,.38.16c.07,0,.14-.08.2-.25a4.17,4.17,0,0,0,.15-.57,6.47,6.47,0,0,0,.1-.65c0-.22,0-.38,0-.49v-.13l1,.75c0,.12-.05.33-.1.62a7.05,7.05,0,0,1-.21.9,4,4,0,0,1-.34.81.58.58,0,0,1-.49.35,1.32,1.32,0,0,1-.66-.2,4.47,4.47,0,0,1-.66-.47,6.69,6.69,0,0,1-.6-.58l-.47-.53a12.07,12.07,0,0,1-.94,1.1,13.27,13.27,0,0,1-1,1l-.77-.82a8.49,8.49,0,0,0,1.14-1,11.12,11.12,0,0,0,1-1.14,8.15,8.15,0,0,1-.9-2q-.34-1.14-.54-2.18h-5.46v1.5q0,.77,0,1.54a13.36,13.36,0,0,1-.17,1.52,8.2,8.2,0,0,1-.39,1.46,5.94,5.94,0,0,1-.71,1.35l-.82-.86a4.06,4.06,0,0,0,.57-1.06,6.42,6.42,0,0,0,.3-1.15,9.8,9.8,0,0,0,.12-1.21q0-.62,0-1.22v-2.8ZM246.24,69.6a7.11,7.11,0,0,0,1-1.34A9.34,9.34,0,0,0,248,66.7l1,.37a11.86,11.86,0,0,1-.75,1.74,8,8,0,0,1-1.12,1.6Zm2.58-9.52h4.78V61h-4.78Zm.3,5.46V61.79h4.11v3H250.1v.7Zm2,3.1a1.19,1.19,0,0,0,.06.38.41.41,0,0,0,.23.25.92.92,0,0,0,.33.06l.5,0,.52,0h.82l.68,0a5.7,5.7,0,0,0,.66-.08.7.7,0,0,0,.4-.17.53.53,0,0,0,.12-.27,4.05,4.05,0,0,0,.06-.41c0-.14,0-.29,0-.42s0-.25,0-.32l1.09.35c0,.13,0,.29,0,.47a4.13,4.13,0,0,1-.07.57,3.52,3.52,0,0,1-.15.54,1.31,1.31,0,0,1-.24.42,1.4,1.4,0,0,1-.61.22q-.43.08-.92.12l-.93,0H252.5l-.74,0-.72-.06a1.29,1.29,0,0,1-.5-.14,1,1,0,0,1-.43-.44,1.45,1.45,0,0,1-.12-.6V66.34h1.14Zm-1-6V64h2.16V62.61Zm3.28,5.73a12.41,12.41,0,0,0-1.73-2l.83-.69a13.12,13.12,0,0,1,1.81,2l-.88.75Zm5.38,1.57a18.17,18.17,0,0,0-1.14-1.59,13.7,13.7,0,0,0-1.32-1.42l.85-.64a14.55,14.55,0,0,1,2.59,2.88l-.94.77Z"/><path class="cls-1" d="M265.39,63.58a13.11,13.11,0,0,0-1-1.15,14.93,14.93,0,0,0-1.12-1l.7-.85a11.6,11.6,0,0,1,1.15,1c.36.36.71.73,1.05,1.1l-.77.93Zm-2,6.16a24.63,24.63,0,0,0,1.22-2.44,26.93,26.93,0,0,0,1-2.55l.91.75a25.78,25.78,0,0,1-2.14,5.12l-.93-.88Zm2.45-10a9.5,9.5,0,0,0-.93-1.15,11,11,0,0,0-1.09-1l.74-.85q.57.46,1.1,1a11.84,11.84,0,0,1,1,1.1l-.77.93ZM276,69.41a1,1,0,0,1-.38.87,1.72,1.72,0,0,1-1,.25l-.92,0a9,9,0,0,1-.92-.08l-.14-1.14.9.1c.3,0,.6,0,.91,0a.43.43,0,0,0,.38-.17.78.78,0,0,0,.11-.44V64h-2.85v3.12h.91V64.9h1v3.17H270.3v1h-1V64.9h1v2.24h.9V64h-2.74v6.64H267.4V63.09h3.76V61.86h-4.48v-1h2.67V59.23h-2.29V58.3h2.29v-2h1.07v2h2.34v-2h1.09v2h2.43v.93h-2.43V60.9h2.87v1h-4.53v1.23H276Zm-3.28-10.18h-2.34V60.9h2.34Z"/><path class="cls-1" d="M280.65,68.56v-.85h3.74V67h-2.83v-4h2.83v-.7h-3.49v-.82h3.49v-.8h-3.94v-.88h3.89V58.67h-3v-.88h3V56.27h1.06v1.52h3v.88h-3v1.07h3.92v-.16q0-.82,0-1.66t0-1.66h1.06q0,.87,0,1.71t0,1.7H294v.9h-3.63a.29.29,0,0,1,0,.11l0,.66q.08,1,.18,2.06a16.22,16.22,0,0,0,.34,2,14.45,14.45,0,0,0,.76-1.9q.31-1,.58-2l1,.43q-.35,1.25-.83,2.47a21.59,21.59,0,0,1-1.09,2.36,7.52,7.52,0,0,0,.33.81,3.75,3.75,0,0,0,.46.74l0,0,.12.16.15.18.16.15a.23.23,0,0,0,.13.06c.06,0,.12-.1.18-.29a6.82,6.82,0,0,0,.14-.67c0-.26.08-.51.1-.77s.05-.45.07-.58l0-.11.91.8c0,.09,0,.22,0,.41s-.05.39-.09.62-.09.47-.14.71a5,5,0,0,1-.21.67,1.84,1.84,0,0,1-.28.5.47.47,0,0,1-.37.19.69.69,0,0,1-.3-.08,1.88,1.88,0,0,1-.31-.2l-.3-.26-.24-.23a4.29,4.29,0,0,1-.68-.85,10.36,10.36,0,0,1-.52-.94,15.6,15.6,0,0,1-1.26,1.58A18,18,0,0,1,288,70.9l-.77-.82q.45-.35.87-.73a9.24,9.24,0,0,0,.79-.79h-3.52v2.1h-1v-2.1Zm3.74-4.88h-1.84v.86h1.84Zm0,1.57h-1.84v1h1.84ZM289,68.43q.32-.37.65-.8t.6-.86a16.61,16.61,0,0,1-.63-3q-.18-1.61-.28-3.1h-4v.8h3.5v.82h-3.5v.7h2.83v4h-2.83v.75H289Zm-1.79-4.75h-1.84v.86h1.84Zm0,1.57h-1.84v1h1.84Zm5-6c-.18-.37-.37-.75-.57-1.12a6.13,6.13,0,0,0-.68-1l.87-.5a11.45,11.45,0,0,1,.72,1q.32.52.59,1l-.88.56Z"/><path class="cls-1" d="M303.8,68.3a8.8,8.8,0,0,0,1.45-.23,4.54,4.54,0,0,0,1.22-.5,4.31,4.31,0,0,0,1-.82,5.27,5.27,0,0,0,.8-1.22,4.27,4.27,0,0,0,.47-2.15,4.18,4.18,0,0,0-.66-2.06A4,4,0,0,0,306.74,60a4.65,4.65,0,0,0-1.83-.62c0,.74-.09,1.43-.18,2.1a16.53,16.53,0,0,1-.37,1.92c-.06.28-.14.58-.23.9s-.2.65-.33,1-.27.69-.43,1a6.65,6.65,0,0,1-.56,1,3.11,3.11,0,0,1-.88.92,2.42,2.42,0,0,1-1,.38,2.06,2.06,0,0,1-1-.08,2.28,2.28,0,0,1-.83-.49,3,3,0,0,1-.63-.86,4.56,4.56,0,0,1-.34-1,5.35,5.35,0,0,1-.14-1c0-.31,0-.58,0-.8a6.47,6.47,0,0,1,.68-2.66,6.46,6.46,0,0,1,5.71-3.51,5.82,5.82,0,0,1,2.71.63,5.14,5.14,0,0,1,2,1.78,5.27,5.27,0,0,1,.86,2.62,5.53,5.53,0,0,1-.58,2.75,5.81,5.81,0,0,1-2.25,2.5,7,7,0,0,1-3.29.9Zm-.64-5.2c.13-.56.23-1.15.32-1.76s.14-1.25.18-1.92a5.22,5.22,0,0,0-2.86,1.49,5.5,5.5,0,0,0-1.06,1.54,5.55,5.55,0,0,0-.49,2.07,4.56,4.56,0,0,0,0,.5,4.89,4.89,0,0,0,.08.74,4.3,4.3,0,0,0,.23.79,2,2,0,0,0,.45.69.8.8,0,0,0,.92.22,1.84,1.84,0,0,0,.84-.76,8,8,0,0,0,.86-1.78Q303,64,303.16,63.1Z"/><path class="cls-1" d="M324.41,63.28a8.11,8.11,0,0,1-.87,2.29A12.08,12.08,0,0,1,322,67.71q-1,1.07-2.38,2.45l-.89-.88Q320,68,320.92,67a10.78,10.78,0,0,0,1.45-1.94,7.29,7.29,0,0,0,.78-2,12.28,12.28,0,0,0,.26-2.51h-7v2.94h-1.28V59.34h4.29V56.9h1.28v2.45h4V60.4A13.75,13.75,0,0,1,324.41,63.28Z"/><path class="cls-1" d="M338.69,61.23V62.3h-3.28v5.18h4.27v1.09h-9.79V67.49h4.27V62.3h-3.28V61.23Z"/><path class="cls-1" d="M350.33,62.93q1.06-.59,1.69-1a6.33,6.33,0,0,0,1-.71,1.71,1.71,0,0,0,.46-.62,2,2,0,0,0,.11-.71v-.4l-9.34,0V58.34h10.62V59.9a3,3,0,0,1-.22,1.22,2.86,2.86,0,0,1-.71,1,8.21,8.21,0,0,1-1.21.9q-.74.46-1.74,1Zm-4.64,6.21c.42-.48.77-.9,1.07-1.26a8.28,8.28,0,0,0,.75-1.06,5.72,5.72,0,0,0,.5-1.06,6.46,6.46,0,0,0,.29-1.27c.06-.48.11-1,.13-1.69s0-1.42,0-2.31h1.28q0,1.47-.06,2.55a15.5,15.5,0,0,1-.2,1.89,8.09,8.09,0,0,1-.37,1.42,7.48,7.48,0,0,1-.57,1.18,9.15,9.15,0,0,1-.81,1.13l-1.08,1.29Z"/><path class="cls-1" d="M360,69c.33-.64.62-1.2.86-1.68s.45-.91.63-1.3a11.14,11.14,0,0,0,.43-1.07,8.21,8.21,0,0,0,.27-1,9,9,0,0,0,.15-1.09c0-.38.05-.83.06-1.33h-2.45V60.46h2.46V56.91h1.22v3.55h1.09a6.78,6.78,0,0,1,.83.06,2.82,2.82,0,0,1,.88.26,2.67,2.67,0,0,1,.79.59,2.86,2.86,0,0,1,.58,1A4.91,4.91,0,0,1,368,63.5c0,.41.06.95.06,1.63,0,.33,0,.62,0,.88s0,.49,0,.7,0,.41-.08.58a4.32,4.32,0,0,1-.13.52,2.93,2.93,0,0,1-.58,1.06,2.27,2.27,0,0,1-.84.58,3.65,3.65,0,0,1-1,.24q-.57,0-1.19,0V68.62a7,7,0,0,0,1.18-.08,2,2,0,0,0,.71-.24,1,1,0,0,0,.38-.38,3.33,3.33,0,0,0,.22-.51,3.81,3.81,0,0,0,.17-.8,14.1,14.1,0,0,0,.05-1.47c0-.35,0-.65,0-.9s0-.46,0-.63a3.1,3.1,0,0,0-.07-.46l-.1-.35a2.17,2.17,0,0,0-.22-.5,1.42,1.42,0,0,0-.35-.39,1.64,1.64,0,0,0-.54-.26,2.85,2.85,0,0,0-.79-.1h-1.1q0,.83-.08,1.48a11.65,11.65,0,0,1-.19,1.22,8.51,8.51,0,0,1-.31,1.11q-.19.54-.46,1.15c-.18.41-.4.86-.65,1.34L361,69.55Zm9.5-9.62h-.91V57h.91Zm1.18,6.86q0-1.39-.07-2.22a5.54,5.54,0,0,0-.27-1.37,2.62,2.62,0,0,0-.53-.9,10.27,10.27,0,0,0-.88-.83l.85-.77a6.42,6.42,0,0,1,1.11,1,3.53,3.53,0,0,1,.63,1.17,6.89,6.89,0,0,1,.28,1.6q.06.93.06,2.3Zm.75-6.85h-.91V57h.91Z"/><path class="cls-1" d="M380.28,59.84v.66h-1.53v3.1l.5-.16.93-.32.08.91-.3.13-.32.13-.46.18a3.68,3.68,0,0,0-.44.2h0v4.85a1.2,1.2,0,0,1-.26.89,1.31,1.31,0,0,1-.9.25,7.39,7.39,0,0,1-1.33-.11l-.18-1.14a5.6,5.6,0,0,0,1.23.14q.42,0,.42-.46V65c-.25.1-.51.19-.79.27l-.84.26-.35-1.09,1-.27,1-.29h0V60.5H375.9v-1h1.82V56.26h1v3.22H380v-.62h2.58q-.18-.51-.4-1a7.62,7.62,0,0,0-.53-1l1-.38c.19.34.37.69.54,1a11.08,11.08,0,0,1,.45,1.06l-1,.37h2.68q.29-.59.57-1.27t.49-1.32l1.12.4q-.22.54-.5,1.11a11.13,11.13,0,0,1-.59,1.08h3v1Zm4.2,9.55a.89.89,0,0,1-1,1l-.5,0-.47-.06-.16-1a2.37,2.37,0,0,0,.79.13c.26,0,.38-.14.38-.42V66.53q-.13.21-.24.42l-.21.41a4,4,0,0,0-.66-.58q-.35-.25-.72-.47v4.35h-1V61.12h3.78Zm-2.37-6.34a4.54,4.54,0,0,1,.74.38,7.25,7.25,0,0,1,.65.46V62.08h-1.82v1.71Zm1,1.78q-.35-.29-.71-.52t-.74-.44v2.27l.22-.36.2-.36a6.36,6.36,0,0,1,.74.43c.23.16.46.33.67.5V64.08Zm2.42-3.39h1v6.37h-1Zm3.13,8a1,1,0,0,1-1.12,1.1l-.76,0c-.25,0-.5,0-.75-.06l-.14-1.12a6.31,6.31,0,0,0,1.32.14.36.36,0,0,0,.35-.16.79.79,0,0,0,.09-.38V61h1Z"/><path class="cls-1" d="M400.58,61.72a3.53,3.53,0,0,1,1.29.65,2.77,2.77,0,0,1,.8,1.07,3.49,3.49,0,0,1,.24,1.49,3.73,3.73,0,0,1-.36,1.34,4,4,0,0,1-1,1.32,5.52,5.52,0,0,1-1.7,1,6.75,6.75,0,0,1-2.44.4h-.94V67.81h.94a6,6,0,0,0,1.39-.18,5.19,5.19,0,0,0,1.37-.54,3.54,3.54,0,0,0,1.05-.9,2.2,2.2,0,0,0,.46-1.3,2.51,2.51,0,0,0-.18-1.07,1.61,1.61,0,0,0-.57-.69,2.44,2.44,0,0,0-.9-.36,6,6,0,0,0-1.15-.1h-4.8V61.5h4.8A6.24,6.24,0,0,1,400.58,61.72Z"/><path class="cls-1" d="M413.84,60.58q-.51.61-1,1.33a12.7,12.7,0,0,0-.94,1.54,5.32,5.32,0,0,0-.55,1.66,3.82,3.82,0,0,0,0,1.52,2.49,2.49,0,0,0,.58,1.1,2.56,2.56,0,0,0,1.06.67,4.57,4.57,0,0,0,1.5.22l.46,0,.75,0v1.1l-1.25,0a6,6,0,0,1-2.09-.33,3.67,3.67,0,0,1-1.46-.94,3.36,3.36,0,0,1-.78-1.5,5.4,5.4,0,0,1-.06-2,5,5,0,0,1,.38-1.36,8.78,8.78,0,0,1,.7-1.28q.42-.64,1-1.32l1.16-1.46-6.53,0V58.4h10.34v1.1h-2.43A11.55,11.55,0,0,1,413.84,60.58Z"/><path class="cls-1" d="M425.35,69.5q-.89-.62-1.44-1.09a3.48,3.48,0,0,1-.83-1,3.61,3.61,0,0,1-.38-1.24,13.57,13.57,0,0,1-.1-1.79V59h1.28v5.42A12.46,12.46,0,0,0,424,66a2.6,2.6,0,0,0,.31,1,2.48,2.48,0,0,0,.66.71q.43.32,1.14.8Zm6.82-4.37q0-.9,0-1.46a3.53,3.53,0,0,0-.22-1,4,4,0,0,0-.52-.92q-.35-.46-1-1.17l1-.72a14.55,14.55,0,0,1,1.12,1.41,5.22,5.22,0,0,1,.6,1.15,4.55,4.55,0,0,1,.25,1.19c0,.42,0,.93,0,1.53V67h-1.28Z"/><path class="cls-1" d="M441.59,63a8.55,8.55,0,0,1,1.29-.39,7.09,7.09,0,0,1,1.37-.17,5.77,5.77,0,0,1,1.3.11,3.65,3.65,0,0,1,1.14.43,3.06,3.06,0,0,1,1.42,3.12,3.71,3.71,0,0,1-.82,2.12,4.61,4.61,0,0,1-2,1.37,6.65,6.65,0,0,1-1.28.31,6.87,6.87,0,0,1-1.4.06,4.85,4.85,0,0,1-1.32-.26,2.53,2.53,0,0,1-1-.63,1.62,1.62,0,0,1-.51-.9,1.51,1.51,0,0,1,.12-.91,1.68,1.68,0,0,1,.64-.7,1.89,1.89,0,0,1,1-.28,2.9,2.9,0,0,1,1.82.64,3.77,3.77,0,0,1,1.22,1.74,2.5,2.5,0,0,0,.58-.19,3,3,0,0,0,.74-.47,3.21,3.21,0,0,0,.66-.8,2.57,2.57,0,0,0,.34-1.18,2.11,2.11,0,0,0-.88-2.13,2.9,2.9,0,0,0-1.3-.41,6.4,6.4,0,0,0-1.64.07,9.83,9.83,0,0,0-1.76.47,11.06,11.06,0,0,0-1.68.78L438.9,64l5.63-5.57H440v-1h6.42v.86Zm1.79,5.9a3.65,3.65,0,0,0-.31-.56,2.58,2.58,0,0,0-.42-.49,2.17,2.17,0,0,0-.53-.35,1.45,1.45,0,0,0-.62-.14.55.55,0,0,0-.41.14.49.49,0,0,0-.15.32.72.72,0,0,0,.08.38.68.68,0,0,0,.3.31,2.32,2.32,0,0,0,.54.23,3.89,3.89,0,0,0,.59.13l.54,0A1.64,1.64,0,0,0,443.38,68.93Z"/><path class="cls-1" d="M454.56,66.43a2,2,0,0,1,1,.26,2,2,0,0,1,1.12,1.87,2.16,2.16,0,0,1-2.13,2.13,2.12,2.12,0,0,1-1-.26,2,2,0,0,1-1.12-1.89,2.09,2.09,0,0,1,.66-1.52A2,2,0,0,1,454.56,66.43Zm0,.82a1.48,1.48,0,0,0-.49.08,1,1,0,0,0-.41.26,1.24,1.24,0,0,0-.42,1,1.47,1.47,0,0,0,.11.56,1.25,1.25,0,0,0,1.2.75,1.32,1.32,0,0,0,.69-.19,1.24,1.24,0,0,0,.62-1.12,1.2,1.2,0,0,0-.72-1.18A1.32,1.32,0,0,0,454.55,67.25Z"/><path class="cls-1" d="M2.19,91.55q-.5-.61-1-1.15a10.08,10.08,0,0,0-1.16-1l.74-.9q.61.48,1.18,1A13,13,0,0,1,3,90.64l-.77.91Zm-2.13,6A17.67,17.67,0,0,0,1.38,95.2Q2,94,2.42,92.67l.88.86q-.45,1.3-1,2.55A20.48,20.48,0,0,1,1,98.54l-.93-1ZM2.7,87.84A11.4,11.4,0,0,0,.59,85.71l.75-.9a12.07,12.07,0,0,1,1.14,1q.53.53,1,1.09l-.78.94Zm3.06-.9a13.22,13.22,0,0,1-.82,1.52,16.29,16.29,0,0,1-1,1.44l-.7-.83A10.79,10.79,0,0,0,4.65,86.8a15.32,15.32,0,0,0,.92-2.54l1.1.24-.23.74c-.08.26-.17.51-.26.74H13.1v1Zm6.38,1.49q0,.86-.06,1.7T12,91.84H13.6v.93H12q0,.42,0,.88c0,.31,0,.6,0,.88l0,.9h1.41v.93H11.82c0,.07,0,.15,0,.22s0,.15,0,.22q0,.42-.07.74a1.36,1.36,0,0,1-.19.57,1,1,0,0,1-.46.37,2.36,2.36,0,0,1-.87.13q-1,0-2-.1l-.18-1.1q.46.08.94.12t1,0a.74.74,0,0,0,.43-.11.65.65,0,0,0,.23-.28,1.35,1.35,0,0,0,.1-.38,3.84,3.84,0,0,0,0-.44H5.25a3.84,3.84,0,0,0-.13.49c0,.17-.06.33-.08.49L4,97.14Q4.18,96,4.37,95l.38-2.18H3.33v-.93H4.86q.13-.7.2-1.42T5.2,89l0-.56ZM5.81,92.77q0,.32-.08.67c0,.23-.07.46-.11.67l-.11.67-.1.64H7.54q.08-.67.14-1.33t.11-1.33Zm.4-3.41a.41.41,0,0,1,0,.07.34.34,0,0,0,0,.07L6,91a1.5,1.5,0,0,1,0,.15s0,.1,0,.15a1.91,1.91,0,0,0,0,.4.48.48,0,0,1,0,.14H7.86l0-.3,0-.11L8,89.36Zm2.64,3.41q-.08.67-.13,1.33t-.13,1.33H10.8q0-.43.06-.89t.06-.89l.06-.88Zm.22-3.41Q9,90,9,90.53T8.91,91.7v.14H11q0-.61.06-1.24l0-1.24Z"/><path class="cls-1" d="M26.11,97.66l-1,.09-1,0H22.58a8.87,8.87,0,0,1-.89-.06,9.35,9.35,0,0,1-1-.17,4.1,4.1,0,0,1-.92-.33,3.09,3.09,0,0,1-.78-.56,2.47,2.47,0,0,1-.56-.86,2.73,2.73,0,0,1-.21-1.35,2.67,2.67,0,0,1,.46-1.18,5.24,5.24,0,0,1,1-1.1,18,18,0,0,1,1.53-1.1V84.82h1.22v5.54l.77-.5.8-.5.9-.54,1.07-.64.64,1-3,1.74q-1.1.66-2,1.22a9.65,9.65,0,0,0-1.41,1.1,3,3,0,0,0-.74,1,1.41,1.41,0,0,0,0,1.07,1.38,1.38,0,0,0,.56.73,3,3,0,0,0,.89.39,5.63,5.63,0,0,0,1,.17l.93.06a19.82,19.82,0,0,0,2,0q1-.07,2.14-.22v1.12Z"/><path class="cls-1" d="M32.29,98.1v-1h5.82V94.11H33.55V93.06H44v1.06H39.31v2.94h5.94v1Zm8.4-8a.65.65,0,0,0,.08.36.53.53,0,0,0,.21.18.73.73,0,0,0,.3.07h.78l.36,0a1.75,1.75,0,0,0,.34-.1.34.34,0,0,0,.21-.19,1.62,1.62,0,0,0,.06-.26c0-.11,0-.23,0-.35l0-.36c0-.12,0-.21,0-.27l1.1.27a8.48,8.48,0,0,1-.06,1,2,2,0,0,1-.32.92.81.81,0,0,1-.4.27,3.25,3.25,0,0,1-.58.14,4.87,4.87,0,0,1-.62.06h-.89l-.49,0-.49-.06A1.18,1.18,0,0,1,40,91.6a.79.79,0,0,1-.34-.41,1.54,1.54,0,0,1-.09-.52V87.36H33.83V89.7H32.67V86.32h5.44V84.26h1.2v2.06h5.54v2.82H43.7V87.36h-3ZM33,91.6a6.55,6.55,0,0,0,1.5-.48,3.36,3.36,0,0,0,1.07-.78,3.64,3.64,0,0,0,.69-1.15,6.31,6.31,0,0,0,.35-1.57l1.06.24a7.91,7.91,0,0,1-.38,1.76A4.23,4.23,0,0,1,36.51,91a4,4,0,0,1-1.2,1,7.3,7.3,0,0,1-1.7.62L33,91.6Z"/><path class="cls-1" d="M54.69,96.3a8.83,8.83,0,0,0,1.45-.23,4.57,4.57,0,0,0,1.22-.5,4.31,4.31,0,0,0,1-.82,5.27,5.27,0,0,0,.8-1.22,4.27,4.27,0,0,0,.47-2.15A4.19,4.19,0,0,0,59,89.33,4,4,0,0,0,57.63,88a4.65,4.65,0,0,0-1.83-.62q0,1.1-.18,2.1a16.73,16.73,0,0,1-.38,1.92q-.1.42-.23.9t-.33,1q-.19.51-.43,1a6.56,6.56,0,0,1-.56,1,3.1,3.1,0,0,1-.88.92,2.43,2.43,0,0,1-1,.38,2.05,2.05,0,0,1-1-.08,2.27,2.27,0,0,1-.83-.49,3,3,0,0,1-.63-.86,4.56,4.56,0,0,1-.34-1,5.44,5.44,0,0,1-.14-1q0-.46,0-.8a6.48,6.48,0,0,1,.68-2.66,6.46,6.46,0,0,1,5.7-3.51,5.83,5.83,0,0,1,2.71.63,5.13,5.13,0,0,1,2,1.78,5.27,5.27,0,0,1,.86,2.62,5.55,5.55,0,0,1-.58,2.75A5.83,5.83,0,0,1,58,96.58a7,7,0,0,1-3.29.9Zm-.64-5.2q.19-.85.32-1.76t.18-1.92a5.15,5.15,0,0,0-1.47.48,5.08,5.08,0,0,0-1.38,1,5.5,5.5,0,0,0-1.06,1.54,5.55,5.55,0,0,0-.49,2.07,4.62,4.62,0,0,0,0,.5,4.77,4.77,0,0,0,.08.74,4.15,4.15,0,0,0,.23.79,2,2,0,0,0,.45.69.8.8,0,0,0,.92.22,1.83,1.83,0,0,0,.84-.76,8,8,0,0,0,.86-1.78Q53.84,92,54.05,91.1Z"/><path class="cls-1" d="M74.88,87.81a10.24,10.24,0,0,1-.42,3.1,8.55,8.55,0,0,1-1.26,2.47,12.89,12.89,0,0,1-2.1,2.21q-1.26,1.06-2.94,2.28l-.85-1Q69,95.7,70.14,94.7a12.8,12.8,0,0,0,1.93-2,7.12,7.12,0,0,0,1.11-2.1,8.73,8.73,0,0,0,.39-2.51h-8V86.85h9.33Zm-.67-1.68h-.94V83.68h.94Zm2,0h-.94V83.7h.94Z"/><path class="cls-1" d="M82.69,89.28q0,1.36-.1,2.37a9,9,0,0,1-.39,1.92,9.25,9.25,0,0,1-.86,1.86,24.65,24.65,0,0,1-1.47,2.16l-1-.74q.85-1.15,1.36-2A8.7,8.7,0,0,0,81,93.15a7.52,7.52,0,0,0,.35-1.72q.08-.9.08-2.14V87.44h1.26Zm3.41,7.07a5.11,5.11,0,0,0,1.26-.17,2.68,2.68,0,0,0,1-.55,5.31,5.31,0,0,0,.93-1.07q.46-.67,1-1.71l1.06.64a17.27,17.27,0,0,1-1.18,1.94A5.84,5.84,0,0,1,89,96.67a3.76,3.76,0,0,1-1.33.66,6.63,6.63,0,0,1-1.7.19H84.85V85.9H86.1Z"/><path class="cls-1" d="M95.48,90.88h11.81V92.1H95.48Z"/><path class="cls-1" d="M112.11,96.86a15.82,15.82,0,0,0-1.38-1.46l1-.88a14.73,14.73,0,0,1,1.34,1.36q.67.77,1.36,1.73l-1.12,1A16.36,16.36,0,0,0,112.11,96.86Z"/><path class="cls-1" d="M128.4,95.06q-.3.53-.67,1.06t-.77,1q1.52,0,3-.13t3-.21q-.29-.3-.6-.59l-.63-.56.91-.51a19.15,19.15,0,0,1,1.59,1.38q.74.72,1.43,1.5l-1,.74-.5-.61-.5-.59q-2.38.32-4.74.5t-4.78.29l-.4-1.12h.6l.6,0h.75q.32-.46.68-1a12.61,12.61,0,0,0,.63-1.11h-4.14v-.93h13.58v.93Zm6.34-10.22v1h-4.56v.94h5.73V90h-1.1V87.62h-4.62v3.86H129.1V87.62h-4.53V90h-1.12v-3.3h5.65v-.94h-4.48v-1ZM124.4,92.18h10.54v.88H124.4Zm.82-3.63h3.23v.83h-3.23Zm0,1.74h3.23v.82h-3.23Zm5.62-1.74h3.33v.83h-3.33Zm0,1.74h3.33v.82h-3.33Z"/><path class="cls-1" d="M146.36,96.3a8.83,8.83,0,0,0,1.45-.23,4.57,4.57,0,0,0,1.22-.5,4.31,4.31,0,0,0,1-.82,5.27,5.27,0,0,0,.8-1.22,4.27,4.27,0,0,0,.47-2.15,4.19,4.19,0,0,0-.66-2.06A4,4,0,0,0,149.29,88a4.65,4.65,0,0,0-1.83-.62q0,1.1-.18,2.1a16.73,16.73,0,0,1-.38,1.92q-.1.42-.23.9t-.33,1q-.19.51-.43,1a6.56,6.56,0,0,1-.56,1,3.1,3.1,0,0,1-.88.92,2.43,2.43,0,0,1-1,.38,2.05,2.05,0,0,1-1-.08,2.27,2.27,0,0,1-.83-.49,3,3,0,0,1-.63-.86,4.56,4.56,0,0,1-.34-1,5.44,5.44,0,0,1-.14-1q0-.46,0-.8a6.48,6.48,0,0,1,.68-2.66,6.46,6.46,0,0,1,5.7-3.51,5.83,5.83,0,0,1,2.71.63,5.13,5.13,0,0,1,2,1.78,5.27,5.27,0,0,1,.86,2.62,5.55,5.55,0,0,1-.58,2.75,5.83,5.83,0,0,1-2.25,2.5,7,7,0,0,1-3.29.9Zm-.64-5.2q.19-.85.32-1.76t.18-1.92a5.15,5.15,0,0,0-1.47.48,5.08,5.08,0,0,0-1.38,1,5.5,5.5,0,0,0-1.06,1.54,5.55,5.55,0,0,0-.49,2.07,4.62,4.62,0,0,0,0,.5,4.77,4.77,0,0,0,.08.74,4.15,4.15,0,0,0,.23.79,2,2,0,0,0,.45.69.8.8,0,0,0,.92.22,1.83,1.83,0,0,0,.84-.76,8,8,0,0,0,.86-1.78Q145.51,92,145.71,91.1Z"/><path class="cls-1" d="M161,86.93a21.07,21.07,0,0,0,.59-2.51l1.36.34q-.15.54-.34,1.1t-.42,1.07h5.12V98.42h-1.17v-1h-7.31v1h-1.17V86.93ZM158.83,88v3.49h7.31V88Zm0,4.58v3.76h7.31V92.58Z"/><path class="cls-1" d="M173.18,96.86a15.82,15.82,0,0,0-1.38-1.46l1-.88a14.73,14.73,0,0,1,1.34,1.36q.67.77,1.36,1.73l-1.12,1A16.36,16.36,0,0,0,173.18,96.86Z"/><path class="cls-1" d="M185.27,91.9a9.16,9.16,0,0,1-.63.72l-.7.69-.59-.88a17.84,17.84,0,0,0,1.94-2.22,14,14,0,0,0,1.5-2.58l.91.51q-.29.59-.62,1.18t-.75,1.2v8.13h-1.06Zm-1.82-3.78a10.48,10.48,0,0,0,1.69-1.65,13.68,13.68,0,0,0,1.34-2l.93.5A13,13,0,0,1,186,87.14,12.24,12.24,0,0,1,184.09,89Zm9.22,4.94v1h-2V96l.06,0,.11,0,.44-.1.44-.09,1.46-.34,0,.91q-1.54.42-3,.78t-3,.63l-.34-1.1.68-.1c.23,0,.46-.07.7-.13l.54-.1.54-.08.1,0h.08a.22.22,0,0,0,.11,0h0V94.06h-2.14v-1h2.14v-1.6h1v1.6Zm-.27-6.13v1h-1.71v2h2v1h-5.49V90h2.42v-2h-1.89v-1h1.89V84.69h1v2.26Zm3.28,10.42a1.09,1.09,0,0,1-.34.89,1.44,1.44,0,0,1-.94.28l-.76,0q-.38,0-.74-.06l-.21-1.14.16,0,.69.07a5.8,5.8,0,0,0,.69,0,.34.34,0,0,0,.31-.14.7.7,0,0,0,.09-.37V90.46H193v-1h4.16v1h-1.44ZM193,85.65h3.82v1H193Z"/><path class="cls-1" d="M202.88,93.89q0,.7,0,1.12a3.21,3.21,0,0,0,.14.72,2,2,0,0,0,.31.58l.54.69-1,.72q-.4-.53-.64-.91a3.46,3.46,0,0,1-.37-.78,3.93,3.93,0,0,1-.17-.89q0-.49,0-1.24v-8h1.15Zm4.16-.83a8.56,8.56,0,0,0,0,1.31,2.05,2.05,0,0,0,.24.89,1.22,1.22,0,0,0,.58.51,2.48,2.48,0,0,0,1,.17h3.5V97.1h-3.58a3.63,3.63,0,0,1-1.52-.28,2.23,2.23,0,0,1-1-.8,3,3,0,0,1-.45-1.27,7.19,7.19,0,0,1,0-1.7Zm-.72-5.71h5.63v1.2h-5.63Z"/><path class="cls-1" d="M217,96.37V85.89h4.06v9.23h-3v1.25Zm1.06-9.47v7.22h2V86.9Zm8,.94a14.6,14.6,0,0,0,.74-1.71q.32-.9.58-1.79l1.2.37q-.27.78-.62,1.58t-.74,1.55h2.38v1H226v2.69h3.87v1h-3.63a9.32,9.32,0,0,0,1.46,2.76A8.82,8.82,0,0,0,230,97.39l-.83,1.1a15.15,15.15,0,0,1-2.12-2.25,9.26,9.26,0,0,1-1.45-2.73,6.8,6.8,0,0,1-1.27,3,8.7,8.7,0,0,1-2.5,2.22l-.75-1a6.35,6.35,0,0,0,2.54-2.15,7.72,7.72,0,0,0,1.22-3.11h-3.47v-1h3.52V88.85h-3.1v-1Zm-2.22-.14a13.57,13.57,0,0,0-.49-1.4,10.34,10.34,0,0,0-.68-1.35l1-.46q.38.67.7,1.34a11,11,0,0,1,.54,1.38l-1,.5Z"/><path class="cls-1" d="M239.11,96.88q-.58-.75-1.15-1.47L236.85,94,235.94,93a1.73,1.73,0,0,1-.32-.54,1.93,1.93,0,0,1-.12-.62,2.22,2.22,0,0,1,.07-.62,1.6,1.6,0,0,1,.27-.56l.81-1.1,1-1.43,1.14-1.63,1.18-1.7,1,.69-1.17,1.7-1.15,1.62-1,1.43-.84,1.12a.7.7,0,0,0-.12.45.72.72,0,0,0,.15.45q.42.46,1,1.11T239,94.69q.59.74,1.18,1.5t1.08,1.46l-1,.67Q239.69,97.63,239.11,96.88Z"/><path class="cls-1" d="M249.33,93.22l-1,1a10.81,10.81,0,0,1-1,.89l-.75-.91A14.14,14.14,0,0,0,248.93,92a11.83,11.83,0,0,0,1.72-2.62l1,.46q-.26.48-.58,1c-.21.34-.44.67-.69,1h0v6.83h-1.12Zm5.55-6.7v-2H256v2h3.63v1.06H256v1.68h-1.13V87.57h-3.36v1.68h-1.15V87.57h-3.52V86.51h3.52v-2h1.15v2Zm-.56,6.22a15.18,15.18,0,0,0,3.84-2.32l.9.85a18.54,18.54,0,0,1-4.75,2.58h0v2.42a1.66,1.66,0,0,0,.06.43.45.45,0,0,0,.26.3,1.32,1.32,0,0,0,.34.1l.43.06.44,0h1.06a3.17,3.17,0,0,0,.71-.08,1.21,1.21,0,0,0,.54-.23.89.89,0,0,0,.29-.5,4.47,4.47,0,0,0,.1-.78c0-.3,0-.59.06-.86,0-.06,0-.13,0-.2s0-.14,0-.2l1.17.42q0,.83-.1,1.42a4.8,4.8,0,0,1-.17,1,1.51,1.51,0,0,1-.35.62,1.41,1.41,0,0,1-.62.35,4.36,4.36,0,0,1-1,.15q-.6,0-1.46,0h-.53l-.7,0a6.84,6.84,0,0,1-.7-.08,1.09,1.09,0,0,1-.47-.17,1,1,0,0,1-.38-.52,2.32,2.32,0,0,1-.09-.63V89.62h1.09Z"/><path class="cls-1" d="M269.73,96.3a8.87,8.87,0,0,0,1.45-.23,4.6,4.6,0,0,0,1.22-.5,4.31,4.31,0,0,0,1-.82,5.27,5.27,0,0,0,.8-1.22,4.27,4.27,0,0,0,.47-2.15,4.2,4.2,0,0,0-.66-2.06A4,4,0,0,0,272.66,88a4.66,4.66,0,0,0-1.83-.62q0,1.1-.18,2.1a17,17,0,0,1-.38,1.92c-.06.28-.14.58-.23.9s-.2.65-.33,1-.27.69-.43,1a6.48,6.48,0,0,1-.56,1,3.08,3.08,0,0,1-.88.92,2.43,2.43,0,0,1-1,.38,2.05,2.05,0,0,1-1-.08,2.25,2.25,0,0,1-.83-.49,3,3,0,0,1-.63-.86,4.56,4.56,0,0,1-.34-1,5.53,5.53,0,0,1-.13-1c0-.31,0-.58,0-.8a6.5,6.5,0,0,1,.68-2.66,6.33,6.33,0,0,1,1.5-1.94,6.55,6.55,0,0,1,4.2-1.58,5.83,5.83,0,0,1,2.71.63,5.13,5.13,0,0,1,2,1.78,5.27,5.27,0,0,1,.86,2.62,5.58,5.58,0,0,1-.58,2.75,5.84,5.84,0,0,1-2.25,2.5,7,7,0,0,1-3.29.9Zm-.64-5.2q.19-.85.32-1.76t.18-1.92a5.15,5.15,0,0,0-1.47.48,5.06,5.06,0,0,0-1.38,1,5.5,5.5,0,0,0-1.06,1.54,5.55,5.55,0,0,0-.49,2.07,5,5,0,0,0,.07,1.24,4,4,0,0,0,.23.79,2,2,0,0,0,.45.69.8.8,0,0,0,.92.22,1.82,1.82,0,0,0,.84-.76,8,8,0,0,0,.86-1.78Q268.88,92,269.09,91.1Z"/><path class="cls-1" d="M288.43,97.3a1.74,1.74,0,0,1-.24,1,1.13,1.13,0,0,1-1,.34l-.81,0a6.35,6.35,0,0,1-.82-.1l-.16-1.23a3.61,3.61,0,0,0,.74.18,5.82,5.82,0,0,0,.74,0q.42,0,.42-.46V90.53h-1.6q0,1.14-.1,2.32a10.8,10.8,0,0,1-.4,2.29,7.62,7.62,0,0,1-1,2.07,5.58,5.58,0,0,1-1.74,1.66l-.7-1a4.82,4.82,0,0,0,1.55-1.28,5.22,5.22,0,0,0,.83-1.6,7.52,7.52,0,0,0,.33-1.84q.06-1,.06-2v-.61h-4.21v-1h5.49V87.57h-4.22v-1h4.22V84.26H287v2.32h4.27v1H287V89.5h5.55v1h-4.16Zm-7.87-1.55a8.28,8.28,0,0,0,1.21-1.9,11.55,11.55,0,0,0,.75-2.19l1.09.34a14.92,14.92,0,0,1-.85,2.4,12,12,0,0,1-1.34,2.26Zm10.65.86q-.45-1.2-1-2.31A23.26,23.26,0,0,0,289,92.1l1-.59q.74,1.07,1.34,2.15a21.93,21.93,0,0,1,1.06,2.18l-1.06.77Z"/><path class="cls-1" d="M297.64,96.86a15.7,15.7,0,0,0-1.38-1.46l1-.88a14.74,14.74,0,0,1,1.35,1.36q.67.77,1.36,1.73l-1.12,1A16.21,16.21,0,0,0,297.64,96.86Z"/><path class="cls-1" d="M310,91.31a20.13,20.13,0,0,1-.73,2.18,20.41,20.41,0,0,1-1,2.1l-.56-1.18a16.16,16.16,0,0,0,1.3-2.78,23.15,23.15,0,0,0,.84-3h-1.81v-1H310V84.27h1v3.38h1.34v1H311V90.4c.3.31.58.63.84,1a9.59,9.59,0,0,1,.71,1l-.66,1-.44-.86q-.22-.42-.46-.82v7h-1Zm5.42,4.22q-.82.32-1.62.6t-1.67.54l-.43-1,1.18-.29h0V86.08h-.94v-1h5.29v1h-.82V98.66h-1Zm0-9.46h-1.62v2.16h1.62Zm0,3.12h-1.62v2.16h1.62Zm-1.62,5.9.82-.25.82-.26h0V92.32h-1.62Zm7.74-9.5q-.25,1.15-.55,2.26c-.2.74-.42,1.49-.68,2.23a12.38,12.38,0,0,1,1,2.09,6.37,6.37,0,0,1,.42,2.28,4.28,4.28,0,0,1,0,.69,1.21,1.21,0,0,1-.2.52,1,1,0,0,1-.42.33,1.87,1.87,0,0,1-.71.11l-.62,0a4,4,0,0,1-.61-.08l-.19-1.14a3.33,3.33,0,0,0,1.09.18.61.61,0,0,0,.34-.08.47.47,0,0,0,.18-.21.81.81,0,0,0,.06-.3c0-.11,0-.23,0-.36a5.61,5.61,0,0,0-.38-2.06,8.73,8.73,0,0,0-1-1.85q.32-1,.58-2t.44-2.08H318.6V98.66h-1V85.09H321Z"/><path class="cls-1" d="M332.51,92.22V97a1.35,1.35,0,0,1-.32,1,1.68,1.68,0,0,1-1.1.28q-.56,0-1.1,0l-1-.1-.22-1.34q.54.1,1.06.16a8.12,8.12,0,0,0,1,.06c.36,0,.54-.2.54-.59V92.22h-5.68v-1.1h5.6V88.83a14.7,14.7,0,0,0,1.73-1q.88-.59,1.65-1.2H327.1V85.55h9l.63.74q-1,.86-2.08,1.63t-2.21,1.46v1.74h5.42v1.1Z"/><path class="cls-1" d="M345.57,88.66l1.12-.12L348,88.4l1.2-.11c.37,0,.67,0,.88,0a3.88,3.88,0,0,1,2.77.9,2.57,2.57,0,0,1,.67,1,2.71,2.71,0,0,1,.17,1.14,2.88,2.88,0,0,1-.31,1.11,2.62,2.62,0,0,1-.75.9,3.36,3.36,0,0,1-.82.44,2.91,2.91,0,0,1-.93.18,4.61,4.61,0,0,1-.62,0,3.14,3.14,0,0,1-.59-.11,4.25,4.25,0,0,1-.71-.28q-.39-.19-.92-.51l.64-1q.38.24.66.38a4.8,4.8,0,0,0,.5.23,1.71,1.71,0,0,0,.42.11l.42,0a1.93,1.93,0,0,0,.65-.1,2.32,2.32,0,0,0,.55-.28,1.63,1.63,0,0,0,.6-1.22,1.82,1.82,0,0,0-.11-.66,1.54,1.54,0,0,0-.36-.57,3,3,0,0,0-2-.58h-.46l-.64,0-1.17.12-2,.21.53,8.13h-1.26l-.48-8-2.27.24V89.07l2.21-.26-.24-3.92h1.21Zm2-4.08a12.42,12.42,0,0,0,1.11.67,5.62,5.62,0,0,0,1,.4,4.81,4.81,0,0,0,1,.19q.54,0,1.26,0V87q-.85,0-1.48-.06a6.66,6.66,0,0,1-1.18-.22,5.81,5.81,0,0,1-1.1-.45c-.36-.19-.77-.43-1.22-.72Z"/><path class="cls-1" d="M367.9,90.38a10.45,10.45,0,0,1-1.25,2.5l1.62,1.23-.75.88L366,93.78q-.43.53-.9,1t-1,1q-.55.53-1.25,1.11t-1.58,1.27l-.78-.94q.88-.67,1.56-1.24T363.24,95q.54-.5,1-1c.28-.31.55-.62.79-.93l-1.07-.78-1-.68L362,91l.72-.91.92.66,1,.7,1.06.78a9.71,9.71,0,0,0,1-2.09,7.24,7.24,0,0,0,.38-2.14h-4c-.16.29-.34.57-.53.86a10.31,10.31,0,0,1-.72.93q-.43.5-1,1.11t-1.45,1.39l-.85-.88q1.36-1.26,2.17-2.16a9.72,9.72,0,0,0,1.21-1.61,4.37,4.37,0,0,0,.53-1.35,7.55,7.55,0,0,0,.12-1.39h1.25a9.73,9.73,0,0,1,0,1.1,5.24,5.24,0,0,1-.18.86h4.75v1A8.11,8.11,0,0,1,367.9,90.38Z"/><path class="cls-1" d="M373.49,90.88H385.3V92.1H373.49Z"/><path class="cls-1" d="M396.8,90.4a9.3,9.3,0,0,1-1.26,2.54,15.34,15.34,0,0,1-2.07,2.36q-1.24,1.17-2.89,2.58l-.85-1q1.63-1.41,2.79-2.51a15.42,15.42,0,0,0,1.89-2.14,7.86,7.86,0,0,0,1.11-2.15,8.82,8.82,0,0,0,.39-2.52h-8.14V86.34h9.46v.94A10.37,10.37,0,0,1,396.8,90.4Z"/><path class="cls-1" d="M407.77,96.3a8.87,8.87,0,0,0,1.45-.23,4.6,4.6,0,0,0,1.22-.5,4.31,4.31,0,0,0,1-.82,5.27,5.27,0,0,0,.8-1.22,4.27,4.27,0,0,0,.47-2.15,4.2,4.2,0,0,0-.66-2.06A4,4,0,0,0,410.7,88a4.66,4.66,0,0,0-1.83-.62q0,1.1-.18,2.1a17,17,0,0,1-.38,1.92c-.06.28-.14.58-.23.9s-.2.65-.33,1-.27.69-.43,1a6.48,6.48,0,0,1-.56,1,3.08,3.08,0,0,1-.88.92,2.43,2.43,0,0,1-1,.38,2.05,2.05,0,0,1-1-.08,2.25,2.25,0,0,1-.83-.49,3,3,0,0,1-.63-.86,4.56,4.56,0,0,1-.34-1,5.53,5.53,0,0,1-.13-1c0-.31,0-.58,0-.8a6.5,6.5,0,0,1,.68-2.66,6.33,6.33,0,0,1,1.5-1.94,6.55,6.55,0,0,1,4.2-1.58,5.83,5.83,0,0,1,2.71.63,5.13,5.13,0,0,1,2,1.78,5.27,5.27,0,0,1,.86,2.62,5.58,5.58,0,0,1-.58,2.75,5.84,5.84,0,0,1-2.25,2.5,7,7,0,0,1-3.29.9Zm-.64-5.2q.19-.85.32-1.76t.18-1.92a5.15,5.15,0,0,0-1.47.48,5.06,5.06,0,0,0-1.38,1,5.5,5.5,0,0,0-1.06,1.54,5.55,5.55,0,0,0-.49,2.07,5,5,0,0,0,.07,1.24,4,4,0,0,0,.23.79,2,2,0,0,0,.45.69.8.8,0,0,0,.92.22,1.82,1.82,0,0,0,.84-.76,8,8,0,0,0,.86-1.78Q406.92,92,407.12,91.1Z"/><path class="cls-1" d="M420.1,97.1q2-1.25,3.35-2.34a16.09,16.09,0,0,0,2.26-2.11,7.26,7.26,0,0,0,1.28-2,6.11,6.11,0,0,0,.43-2.1h-4a7.37,7.37,0,0,1-.57.9,7.57,7.57,0,0,1-.75.86,13.13,13.13,0,0,1-1,.91q-.59.47-1.37,1l-.75-1A18.85,18.85,0,0,0,420.62,90a10.1,10.1,0,0,0,1.1-1.1,5,5,0,0,0,.66-1,4.66,4.66,0,0,0,.34-1,5.27,5.27,0,0,0,.14-1q0-.49,0-1h1.28c0,.32,0,.6,0,.83s0,.44,0,.62,0,.35-.07.5a4.41,4.41,0,0,1-.11.46h4.79v1.09a7,7,0,0,1-.43,2.44,8.33,8.33,0,0,1-1.38,2.32,16,16,0,0,1-2.45,2.36,39.8,39.8,0,0,1-3.65,2.54ZM428,86.45H427V84H428Zm2,0H429V84H430Z"/><path class="cls-1" d="M436.9,85.47v6.94h-1.19V85.47Zm4.77,4v-4h1.26v4q0,1.28-.08,2.23a11,11,0,0,1-.26,1.7,5.66,5.66,0,0,1-.5,1.34,5.87,5.87,0,0,1-.8,1.13A10.82,10.82,0,0,1,440.15,97q-.66.54-1.52,1.2l-.75-1q.79-.59,1.37-1.07a9.88,9.88,0,0,0,1-.94A4.59,4.59,0,0,0,441.38,93a9.14,9.14,0,0,0,.22-1.5Q441.67,90.69,441.67,89.52Z"/><path class="cls-1" d="M448.67,90.88h11.81V92.1H448.67Z"/><path class="cls-1" d="M467.13,86.8V88h-4.45V86.8ZM473,90q-.69,1.28-1.28,2.33a20.05,20.05,0,0,1-1.19,1.88,9.57,9.57,0,0,1-1.28,1.46,6.09,6.09,0,0,1-1.55,1,8.05,8.05,0,0,1-2,.61,14.59,14.59,0,0,1-2.57.2V96.35a13.66,13.66,0,0,0,2.17-.15,6.34,6.34,0,0,0,1.67-.5,5.36,5.36,0,0,0,1.33-.88,8,8,0,0,0,1.14-1.31,20.76,20.76,0,0,0,1.13-1.79q.57-1,1.28-2.31Z"/><path class="cls-1" d="M477.66,90.56h1.73v1.79h-1.73Zm5,0h1.73v1.79h-1.73Zm5,0h1.73v1.79h-1.73Z"/><path class="cls-1" d="M495,94.43a2,2,0,0,1,1,.26,2,2,0,0,1,1.12,1.87A2.16,2.16,0,0,1,495,98.69a2.12,2.12,0,0,1-1-.26,2,2,0,0,1-1.12-1.89,2.09,2.09,0,0,1,.66-1.52A2,2,0,0,1,495,94.43Zm0,.82a1.49,1.49,0,0,0-.49.08,1.06,1.06,0,0,0-.41.26,1.24,1.24,0,0,0-.42,1,1.43,1.43,0,0,0,.11.56,1.24,1.24,0,0,0,1.2.75,1.31,1.31,0,0,0,.69-.19,1.24,1.24,0,0,0,.63-1.12,1.2,1.2,0,0,0-.72-1.18A1.31,1.31,0,0,0,495,95.25Z"/><path class="cls-1" d="M61.17,120.06a10.6,10.6,0,0,0-.9,1,5.4,5.4,0,0,0-.62.94,2.37,2.37,0,0,0-.27.93,2.06,2.06,0,0,0,.12,1,1.66,1.66,0,0,0,.5.67,2.07,2.07,0,0,0,.79.38,4.1,4.1,0,0,0,1,.12c.25,0,.47,0,.69,0l.74-.08V126l-.75.09a5.76,5.76,0,0,1-.67,0,5.2,5.2,0,0,1-1.5-.21,3.23,3.23,0,0,1-1.18-.62,2.62,2.62,0,0,1-.74-1,3.29,3.29,0,0,1-.18-1.47,2.9,2.9,0,0,1,.26-1,5.23,5.23,0,0,1,.58-1,9.56,9.56,0,0,1,.79-.93q.44-.46.9-.89h-5.9v-1h2.74l3.7-3.62H57v-1h6.14v.74l-4,3.89h6.19v1H62.28Z"/><path class="cls-1" d="M79.85,125.8l-.51.1-.51.06-.44,0a4,4,0,0,1-.82-.08,4.75,4.75,0,0,1-.75-.22,2.09,2.09,0,0,1-1-1,3.73,3.73,0,0,1-.37-1.75v-1.42a1.27,1.27,0,0,0-.18-.77.84.84,0,0,0-.69-.22H72.75l-2.22,5.41-1.09-.45,5-12.29,1.09.43-2.34,5.84h1.34a2.18,2.18,0,0,1,1.59.54,2.15,2.15,0,0,1,.55,1.6v1.49a3.4,3.4,0,0,0,.06.68,1.6,1.6,0,0,0,.15.44.83.83,0,0,0,.21.26,1,1,0,0,0,.22.14,2.68,2.68,0,0,0,1.1.21,5.28,5.28,0,0,0,.89-.08l1-.18v1.12Z"/><path class="cls-1" d="M84.36,122.9A37,37,0,0,0,87.27,116h-2v-1.12h2.35l.33-1.22q.15-.56.25-.88l1.15.27q-.08.24-.2.73t-.3,1.1H91V116H88.52a40.06,40.06,0,0,1-1.38,3.9q-.77,1.86-1.72,3.62Zm10.46-4.54a1.19,1.19,0,0,0-1,.54,2.79,2.79,0,0,0-.36,1.7v2a12,12,0,0,1,1.41.64q.69.37,1.62.91l-.58,1-.74-.45-.62-.35L94,124l-.54-.26a2.22,2.22,0,0,1-.59,1.75,2.48,2.48,0,0,1-1.73.55A3.73,3.73,0,0,1,90,125.9a3,3,0,0,1-1-.54,2.09,2.09,0,0,1-.63-.84,1.51,1.51,0,0,1,0-1.11,1.73,1.73,0,0,1,.74-.87,3.28,3.28,0,0,1,1.39-.44l.46,0h.41l.42.06.51.1v-1.68a3.64,3.64,0,0,1,.18-1.33,2.76,2.76,0,0,1,.56-.91q-.62,0-1,0a4,4,0,0,0-.74.12,2.81,2.81,0,0,0-.6.24c-.19.1-.4.23-.63.38l-.59-.87a6.6,6.6,0,0,1,1.42-.68,4.47,4.47,0,0,1,1.42-.18l3.6.06v.94Zm-2.43,5a4.94,4.94,0,0,0-1.33-.21,3.56,3.56,0,0,0-.49,0,3,3,0,0,0-.52.12,1,1,0,0,0-.47.3.68.68,0,0,0,.08.94,1.62,1.62,0,0,0,.53.3,3,3,0,0,0,.58.14l.4,0a1.1,1.1,0,0,0,1-.36,1.82,1.82,0,0,0,.24-1Z"/><path class="cls-1" d="M104.87,113.49q-.27,1-.62,2t-.81,2a5.19,5.19,0,0,1,1.42,3.65,4.89,4.89,0,0,1,0,.71,1.59,1.59,0,0,1-.19.58,1,1,0,0,1-.42.38,1.69,1.69,0,0,1-.74.14l-.57,0-.56-.06-.17-1.15a3.87,3.87,0,0,0,1.13.18.42.42,0,0,0,.29-.1.58.58,0,0,0,.17-.25,1.28,1.28,0,0,0,.07-.32c0-.11,0-.22,0-.31a4.58,4.58,0,0,0-.37-1.87,4.26,4.26,0,0,0-1.15-1.5l.06-.11a8.41,8.41,0,0,0,.74-1.68q.28-.88.49-1.78h-1.79v12.64h-1V113h3.55Zm6.59,8.1a10.13,10.13,0,0,1-1.22,2.92,7.9,7.9,0,0,1-2.18,2.28l-.86-.75a7.15,7.15,0,0,0,2-1.93,8.23,8.23,0,0,0,1.2-2.52h-1.09A9.32,9.32,0,0,1,108,124a8.33,8.33,0,0,1-2,1.88l-.85-.75a8.58,8.58,0,0,0,1.87-1.51,6.52,6.52,0,0,0,1.27-2H107.2a11.22,11.22,0,0,1-1,1.38,10,10,0,0,1-1.27,1.2l-.8-.77a7.49,7.49,0,0,0,1.75-1.62,8.22,8.22,0,0,0,1.18-2.09h-2.12v-.93H114v.93H108.1q-.1.24-.19.52a3.08,3.08,0,0,1-.22.5h5.81c0,.29,0,.66,0,1.12s0,.93-.09,1.43-.09,1-.15,1.42a4.89,4.89,0,0,1-.23,1.06,1.28,1.28,0,0,1-.58.73,2,2,0,0,1-1,.21l-.7,0-.7-.06-.22-1.15a6.87,6.87,0,0,0,.72.12,6.31,6.31,0,0,0,.69,0,.76.76,0,0,0,.51-.15A1,1,0,0,0,112,125a4.18,4.18,0,0,0,.14-.66q.06-.42.11-.87t.07-.88q0-.42,0-.7v-.11a.64.64,0,0,1,0-.18Zm1-8.62v4.91H106.2V113Zm-5.25.91v1.06h4.22v-1.06Zm0,1.94V117h4.22v-1.18Z"/><path class="cls-1" d="M120.56,114.88q-.4.77-.9,1.55a13.19,13.19,0,0,1-1.1,1.47l-.72-.86a10.54,10.54,0,0,0,1.52-2.21,13.06,13.06,0,0,0,1-2.53l1.15.22c-.08.24-.15.47-.23.7s-.16.45-.25.66h8.77v1Zm1.63,7.89a24,24,0,0,0-3.09-1.92l.67-.78q.77.38,1.54.85t1.44.93l.11.08a9.19,9.19,0,0,0,1.36-2.48l1.06.5a15,15,0,0,1-.66,1.35,10.46,10.46,0,0,1-.84,1.29q.75.56,1.47,1.16t1.41,1.22l-.78.91q-.67-.67-1.36-1.26t-1.42-1.17a10.35,10.35,0,0,1-2,1.78,12.18,12.18,0,0,1-2.34,1.26l-.66-1a12.07,12.07,0,0,0,2.15-1.07,8.71,8.71,0,0,0,1.86-1.54Zm6.21-3.23q0,.46,0,1.11t.08,1.33q.06.68.15,1.32a6.57,6.57,0,0,0,.24,1.07s0,0,0,0,0,0,0,0a1.24,1.24,0,0,0,.06.18l.1.22a1.15,1.15,0,0,0,.1.18c0,.05.07.08.1.08s.13-.12.19-.35a7.81,7.81,0,0,0,.17-.8q.07-.45.12-.86t.06-.53l1,.72q0,.26-.12.82a8.25,8.25,0,0,1-.26,1.14,4.16,4.16,0,0,1-.45,1,.78.78,0,0,1-.66.43.75.75,0,0,1-.46-.16,1.79,1.79,0,0,1-.38-.39,3.64,3.64,0,0,1-.3-.49q-.13-.26-.21-.45a5.75,5.75,0,0,1-.38-1.31q-.14-.77-.22-1.6t-.1-1.65q0-.82,0-1.46h-9.12v-1H128.4ZM120.14,116h8.21v1h-8.21Z"/><path class="cls-1" d="M134.91,122.9a37,37,0,0,0,2.91-6.93h-2v-1.12h2.35l.33-1.22q.15-.56.25-.88l1.15.27q-.08.24-.2.73t-.3,1.1h2.13V116h-2.48a40.06,40.06,0,0,1-1.38,3.9q-.77,1.86-1.72,3.62Zm10.46-4.54a1.19,1.19,0,0,0-1,.54,2.79,2.79,0,0,0-.36,1.7v2a12,12,0,0,1,1.41.64q.69.37,1.62.91l-.58,1-.74-.45-.62-.35-.55-.29-.54-.26a2.22,2.22,0,0,1-.59,1.75,2.48,2.48,0,0,1-1.73.55,3.73,3.73,0,0,1-1.14-.18,3,3,0,0,1-1-.54,2.09,2.09,0,0,1-.63-.84,1.51,1.51,0,0,1,0-1.11,1.73,1.73,0,0,1,.74-.87,3.28,3.28,0,0,1,1.39-.44l.46,0h.41l.42.06.51.1v-1.68a3.64,3.64,0,0,1,.18-1.33,2.76,2.76,0,0,1,.56-.91q-.62,0-1,0a4,4,0,0,0-.74.12,2.81,2.81,0,0,0-.6.24c-.19.1-.4.23-.63.38l-.59-.87a6.6,6.6,0,0,1,1.42-.68,4.47,4.47,0,0,1,1.42-.18l3.6.06v.94Zm-2.43,5a4.94,4.94,0,0,0-1.33-.21,3.56,3.56,0,0,0-.49,0,3,3,0,0,0-.52.12,1,1,0,0,0-.47.3.68.68,0,0,0,.08.94,1.62,1.62,0,0,0,.53.3,3,3,0,0,0,.58.14l.4,0a1.1,1.1,0,0,0,1-.36,1.82,1.82,0,0,0,.24-1Z"/><path class="cls-1" d="M154.12,124.11a1.32,1.32,0,0,0,.08.48.66.66,0,0,0,.3.34,2.13,2.13,0,0,0,.59.1l1,0,1,0h2l.91,0,.89,0,.73,0a1.44,1.44,0,0,0,.41-.08.69.69,0,0,0,.34-.27,2.14,2.14,0,0,0,.17-.46,4,4,0,0,0,.1-.7q0-.35,0-.7v-.13l1.14.45q0,.24,0,.63a7.7,7.7,0,0,1-.1.78,4.18,4.18,0,0,1-.21.74.89.89,0,0,1-.82.7,8.25,8.25,0,0,1-.83.12l-1,.07-1,0h-2.09l-.83,0-1,0-.94-.06L154,126a1.62,1.62,0,0,1-.48-.14,1.27,1.27,0,0,1-.39-.55,2,2,0,0,1-.12-.68v-6.83q-.62.67-1.3,1.3l-.69-.91a12,12,0,0,0,2.34-2.63,16.77,16.77,0,0,0,1.62-3.19l1.09.27-.43,1h3.87l.62.55q-.32.55-.73,1.19t-.89,1.32h3.82v5.36h-1.07v-.75h-7.2Zm1.1-9.5q-.26.47-.6,1t-.71,1.07h3.52q.32-.42.68-1t.63-1.1Zm-1.1,5.71h3v-2.66h-3Zm4-2.66v2.66h3.18v-2.66Z"/><path class="cls-1" d="M172.28,117.94a2.11,2.11,0,0,1,1.36.35,2.25,2.25,0,0,1,.78,1.14l1.28-.53,1.52-.61.46,1-1.62.66-1.4.59v2.37h-1.15V121l-1.06.58a6,6,0,0,0-1,.66,2.53,2.53,0,0,0-.65.78,1.12,1.12,0,0,0,0,.94,1.07,1.07,0,0,0,.51.6,2.86,2.86,0,0,0,.79.29,4.5,4.5,0,0,0,.83.1h.63a14,14,0,0,0,1.54-.09l1.51-.17,0,1.14-1.56.18a15.7,15.7,0,0,1-1.61.08,6.31,6.31,0,0,1-2.52-.38,2.32,2.32,0,0,1-1.27-1.22,2.24,2.24,0,0,1-.19-1.08,2.22,2.22,0,0,1,.31-.94,3.44,3.44,0,0,1,.68-.81,8.57,8.57,0,0,1,.9-.7,10.8,10.8,0,0,1,1-.6l1-.53a1.71,1.71,0,0,0-.22-.46,1.1,1.1,0,0,0-.27-.27.74.74,0,0,0-.3-.12l-.3,0h-2l.46-3.5h-2.78v-1.09h2.94l.26-1.92h1.2l-.27,1.92h4.06v1.09h-4.22l-.32,2.46Z"/><path class="cls-1" d="M187.57,126.66h-1.09v-3.34q-1.1.34-2.22.62l-2.24.54-.35-1.14.69-.13.7-.11h0v-8.91h-1.22v-1h6.86v1h-1.12Zm-1.09-12.48h-2.42v2.11h2.42Zm0,3.07h-2.42v2.11h2.42Zm-2.42,5.63,1.22-.23q.6-.12,1.22-.28h0v-2h-2.42Zm10.37-7.81q-.35,1.84-.84,3.69a20.79,20.79,0,0,1-1.3,3.58,9.28,9.28,0,0,0,1.38,1.67,15,15,0,0,0,1.63,1.38l-.7,1.12A15,15,0,0,1,193,125a17,17,0,0,1-1.32-1.65,11.47,11.47,0,0,1-1.41,1.87,10.92,10.92,0,0,1-1.79,1.55l-.7-1a8.58,8.58,0,0,0,1.83-1.54,11.42,11.42,0,0,0,1.42-2,15.39,15.39,0,0,1-1.39-3.27,23.79,23.79,0,0,1-.77-3.46h-.83v-1.07h5.81Zm-4.46.56a26,26,0,0,0,.62,2.87,15,15,0,0,0,1,2.74,20.73,20.73,0,0,0,.93-2.76,29,29,0,0,0,.59-2.86Z"/><path class="cls-1" d="M201.86,115.78a6.51,6.51,0,0,1,.9-1.34,3.54,3.54,0,0,1,1.1-.86,2.17,2.17,0,0,1,1.28-.19,2.76,2.76,0,0,1,2.06,1.3,6.2,6.2,0,0,1,.7,3.26,19.18,19.18,0,0,1-.17,2.52,7,7,0,0,1-.76,2.39,10.32,10.32,0,0,1-.54.9q-.28.42-.58.8t-.64.77l-.72.8-.91-.8.66-.72q.3-.34.58-.68t.52-.72q.25-.38.49-.82a6.2,6.2,0,0,0,.46-1.08,6.86,6.86,0,0,0,.26-1.12q.08-.57.1-1.14t0-1.1a5.88,5.88,0,0,0-.44-2.5,1.58,1.58,0,0,0-1.24-1,1.18,1.18,0,0,0-.73.1,2.19,2.19,0,0,0-.66.51,5.55,5.55,0,0,0-.6.81q-.29.46-.54,1a15.42,15.42,0,0,0-.87,2,9.75,9.75,0,0,0-.47,2.38H200v-7.89h1.14v4.08A11.2,11.2,0,0,1,201.86,115.78Z"/><path class="cls-1" d="M220.22,122.57a12.63,12.63,0,0,1-1.82-4.49,17.44,17.44,0,0,1-.66,2.5,11.3,11.3,0,0,1-1.08,2.28,10.56,10.56,0,0,1-1.58,2,9.35,9.35,0,0,1-2.13,1.55l-.83-1.07a7.94,7.94,0,0,0,2.61-2,10.69,10.69,0,0,0,1.7-2.73,14.11,14.11,0,0,0,.94-3.16,24.07,24.07,0,0,0,.36-3.28h-3.38v-1.09H219q0,.94,0,1.89a18.68,18.68,0,0,0,.18,1.88,13.36,13.36,0,0,0,.4,1.84,10.4,10.4,0,0,0,2.48,4.26,12.19,12.19,0,0,0,2.41,1.9l-.83,1.2h0A13.2,13.2,0,0,1,220.22,122.57Z"/><path class="cls-1" d="M237.22,116.92a.69.69,0,0,0-.38-.22,1.07,1.07,0,0,0-.5,0,1.71,1.71,0,0,0-.51.23q-.42.3-1.42,1.16T232,120.27V126l-1.15,0v-4.67l-2.1,2.27-.82-.83,2.91-3v-3.28h-2.51v-1.14h2.51V112.9l1.15,0v5.86q1.23-1.1,2-1.75t1.14-.92a2.5,2.5,0,0,1,1.1-.46,2.27,2.27,0,0,1,1.1.09,1.77,1.77,0,0,1,.84.62,1.8,1.8,0,0,1,.34,1.13v3.22q0,1.1,0,1.74a2.77,2.77,0,0,0,.25,1,1.9,1.9,0,0,0,.59.69q.39.29,1.06.72l-.61.9q-.59-.38-1-.7a5.3,5.3,0,0,1-.69-.62,2.79,2.79,0,0,1-.45-.64,3.1,3.1,0,0,1-.26-.78,6.56,6.56,0,0,1-.11-1q0-.57,0-1.34v-3.23A.7.7,0,0,0,237.22,116.92Z"/><path class="cls-1" d="M250.87,116.58q-.51.61-1,1.33a12.83,12.83,0,0,0-.94,1.54,5.32,5.32,0,0,0-.55,1.66,3.84,3.84,0,0,0,0,1.52,2.5,2.5,0,0,0,.58,1.1,2.56,2.56,0,0,0,1.06.67,4.56,4.56,0,0,0,1.5.22l.46,0,.75,0v1.1l-1.25,0a6,6,0,0,1-2.09-.33,3.67,3.67,0,0,1-1.46-.94,3.34,3.34,0,0,1-.78-1.5,5.38,5.38,0,0,1-.06-2,5.06,5.06,0,0,1,.38-1.36,8.88,8.88,0,0,1,.7-1.28q.42-.64,1-1.32l1.16-1.46-6.53,0v-1.1h10.34v1.1h-2.43A11.55,11.55,0,0,1,250.87,116.58Z"/><path class="cls-1" d="M258.83,124.86a15.7,15.7,0,0,0-1.38-1.46l1-.88a14.74,14.74,0,0,1,1.35,1.36q.67.77,1.36,1.73l-1.12,1A16.21,16.21,0,0,0,258.83,124.86Z"/><path class="cls-1" d="M280.24,122.73a5,5,0,0,1-.22,1.08,2.82,2.82,0,0,1-.59,1.08,2.35,2.35,0,0,1-.85.58,3.65,3.65,0,0,1-1,.24q-.57,0-1.21,0v-1.17a7,7,0,0,0,1.18-.08,2.12,2.12,0,0,0,.7-.23,1,1,0,0,0,.38-.37,3,3,0,0,0,.22-.5,3.92,3.92,0,0,0,.17-.79q.06-.47.09-1.42v-3.71h-3.79v.1c0,.54,0,1-.06,1.46a8.37,8.37,0,0,1-.19,1.22,6.89,6.89,0,0,1-.37,1.11q-.23.54-.58,1.17c-.23.42-.5.88-.82,1.38l-1.1,1.75-1-.67,1.06-1.68q.46-.72.78-1.3a11.21,11.21,0,0,0,.53-1.06,6.18,6.18,0,0,0,.33-1,6.71,6.71,0,0,0,.16-1.08q0-.58,0-1.31v-.1h-3.55v-1.14H274v-3.44h1.25v3.44h5v4.85Q280.29,122.14,280.24,122.73Z"/><path class="cls-1" d="M295.33,118.5a9,9,0,0,1-.12,1.54,5.6,5.6,0,0,1-1.06,2.46,9.33,9.33,0,0,1-1,1.13q-.61.58-1.42,1.22t-1.85,1.41l-.77-1q1.52-1.12,2.49-1.94a9.53,9.53,0,0,0,1.51-1.54,4.46,4.46,0,0,0,.75-1.48,7.09,7.09,0,0,0,.22-1.78H286.2v-1.14h9.13Zm-1.13-4.7V115h-7v-1.2Z"/><path class="cls-1" d="M309.69,118.4a9.31,9.31,0,0,1-1.26,2.54,15.32,15.32,0,0,1-2.07,2.36q-1.24,1.17-2.89,2.58l-.85-1q1.63-1.41,2.78-2.51a15.57,15.57,0,0,0,1.9-2.14,7.85,7.85,0,0,0,1.1-2.15,8.82,8.82,0,0,0,.39-2.52h-8.14v-1.25h9.46v.94A10.43,10.43,0,0,1,309.69,118.4Z"/><path class="cls-1" d="M317.7,117.28q0,1.36-.1,2.37a9,9,0,0,1-.39,1.92,9.25,9.25,0,0,1-.86,1.86,25.09,25.09,0,0,1-1.47,2.16l-1-.74q.85-1.15,1.36-2a8.69,8.69,0,0,0,.78-1.68,7.57,7.57,0,0,0,.35-1.72q.08-.9.08-2.14v-1.86h1.26Zm3.41,7.07a5.13,5.13,0,0,0,1.26-.17,2.68,2.68,0,0,0,1-.55,5.31,5.31,0,0,0,.93-1.07,19.7,19.7,0,0,0,1-1.71l1.06.64a17.27,17.27,0,0,1-1.18,1.94,5.86,5.86,0,0,1-1.17,1.24,3.77,3.77,0,0,1-1.33.66,6.64,6.64,0,0,1-1.7.19h-1.15V113.9h1.25Z"/><path class="cls-1" d="M332.35,121.89c0,.47,0,.84,0,1.12a3.26,3.26,0,0,0,.14.72,2,2,0,0,0,.31.58l.54.69-1,.72q-.4-.53-.64-.91a3.41,3.41,0,0,1-.37-.78,3.87,3.87,0,0,1-.17-.89q0-.49,0-1.24v-8h1.15Zm4.16-.83a8.44,8.44,0,0,0,0,1.31,2,2,0,0,0,.24.89,1.22,1.22,0,0,0,.57.51,2.48,2.48,0,0,0,1,.17h3.5v1.17h-3.58a3.64,3.64,0,0,1-1.52-.28,2.23,2.23,0,0,1-1-.8,3,3,0,0,1-.45-1.27,7.29,7.29,0,0,1,0-1.7Zm-.72-5.71h5.63v1.2h-5.63Z"/><path class="cls-1" d="M349,123.86a4.07,4.07,0,0,0,.52.58,2.65,2.65,0,0,0,.65.43,3.49,3.49,0,0,0,.82.26,9.68,9.68,0,0,0,1,.14c.34,0,.68.05,1,.06h.87q1.49,0,3-.07l3-.15a3.3,3.3,0,0,0-.2.58c0,.2-.09.4-.14.62h-.5q-1.1,0-2.24.06t-2.24.06h-1c-.36,0-.72,0-1.09,0s-.72-.07-1.07-.12a7.29,7.29,0,0,1-1-.21,3.61,3.61,0,0,1-1-.47,2.83,2.83,0,0,1-.74-.79l0,0q-.48.48-.92,1a11.12,11.12,0,0,1-1,1l-.62-1.15a10.83,10.83,0,0,0,1-.69q.46-.37.88-.77v-4.4h-1.84v-1H349v5.14Zm-.51-7.76q-.47-.67-1-1.28a11.76,11.76,0,0,0-1.1-1.15l.75-.74a16.47,16.47,0,0,1,2.16,2.38l-.82.78Zm.86,7.46a4.92,4.92,0,0,0,.77-1.42,10.16,10.16,0,0,0,.44-1.67,16.29,16.29,0,0,0,.21-1.73q.06-.86.06-1.62v-1.49h-1.38v-.93h1.87v-2.45h1v2.45h1.94v.86a11.51,11.51,0,0,0,.61-1.67q.24-.86.42-1.67l1,.3c-.05.29-.12.58-.19.89a6.82,6.82,0,0,1-.26.89h3.73v.93h-4a10,10,0,0,1-.49,1.08q-.28.54-.58,1l-.69-.85c.09-.14.17-.28.24-.42l.22-.44h-2.43v1.71H354q0,2-.14,4a.82.82,0,0,1,0,.11.74.74,0,0,0,0,.1c0,.31,0,.61-.08.91s-.07.6-.13.9a1.57,1.57,0,0,1-.34.76,1,1,0,0,1-.78.28,5.25,5.25,0,0,1-1.12-.11l-.22-1.07.54.14a2.48,2.48,0,0,0,.52.06.34.34,0,0,0,.34-.16,2.14,2.14,0,0,0,.14-.38,1.88,1.88,0,0,0,.1-.54c0-.21,0-.4,0-.58a1.08,1.08,0,0,1,0-.14,1.07,1.07,0,0,0,0-.14q.06-.8.08-1.58c0-.52,0-1.06,0-1.6h-1.2q0,.74-.13,1.56a13.65,13.65,0,0,1-.31,1.64,12,12,0,0,1-.52,1.58,5.65,5.65,0,0,1-.78,1.35Zm5.38-.32a6.73,6.73,0,0,0,.69.15,4.19,4.19,0,0,0,.69.06.31.31,0,0,0,.29-.13.61.61,0,0,0,.08-.34v-2h-2.19v-1h2.14v-1.46a6.54,6.54,0,0,0,1.17-1H355v-.88h3.5l.53.65q-.4.4-.81.76c-.27.24-.55.48-.84.72V120h2.24v1h-2.19v2.48q0,1-1.07,1c-.26,0-.51,0-.76,0a6.24,6.24,0,0,1-.76-.11Z"/><path class="cls-1" d="M374.53,125.8l-.51.1-.51.06-.44,0a4,4,0,0,1-.82-.08,4.72,4.72,0,0,1-.75-.22,2.09,2.09,0,0,1-1-1,3.74,3.74,0,0,1-.37-1.75v-1.42a1.27,1.27,0,0,0-.18-.77.85.85,0,0,0-.69-.22h-1.79l-2.22,5.41-1.09-.45,5-12.29,1.09.43-2.34,5.84h1.34a2.18,2.18,0,0,1,1.59.54,2.15,2.15,0,0,1,.55,1.6v1.49a3.39,3.39,0,0,0,.06.68,1.6,1.6,0,0,0,.15.44.82.82,0,0,0,.21.26,1,1,0,0,0,.22.14,2.67,2.67,0,0,0,1.1.21,5.29,5.29,0,0,0,.89-.08l1-.18v1.12Z"/><path class="cls-1" d="M385.87,115.5a11.55,11.55,0,0,1-.82,1.07q-.51.61-1,1.33a13,13,0,0,0-.94,1.54,5.32,5.32,0,0,0-.55,1.66,3.86,3.86,0,0,0,0,1.52,2.51,2.51,0,0,0,.58,1.1,2.56,2.56,0,0,0,1.06.67,4.55,4.55,0,0,0,1.5.22h.44l.78-.06v1.1l-1.25,0a6,6,0,0,1-2.09-.33,3.71,3.71,0,0,1-1.46-.94,3.26,3.26,0,0,1-.78-1.5,5.36,5.36,0,0,1-.06-2,5.1,5.1,0,0,1,.38-1.36,9,9,0,0,1,.7-1.28q.42-.64,1-1.32l1.16-1.46H378v-1.1H388.3v1.1Zm.5,4.43h-.91V117.5h.91Zm2,0h-.91v-2.43h.91Z"/><path class="cls-1" d="M399.29,113.87q0,1.22-.13,2.59a21.11,21.11,0,0,1-.52,2.94q.72,0,1.59.15t1.69.25c0-.12,0-.33,0-.65s0-.64,0-1,0-.82,0-1.28h1.23c0,.49,0,.95,0,1.38s0,.72,0,1.06,0,.58,0,.71l.74.16.59.14.53.14-.21,1-1.78-.42a11.44,11.44,0,0,1-.32,1.26,9.51,9.51,0,0,1-.48,1.22,10.35,10.35,0,0,1-.7,1.23q-.41.62-.94,1.31l-1-.74q.5-.62.87-1.19a8.84,8.84,0,0,0,.63-1.11,8,8,0,0,0,.42-1.09,7.88,7.88,0,0,0,.26-1.15,25.42,25.42,0,0,0-3.52-.42,10.52,10.52,0,0,1-1.1,2.46,3.18,3.18,0,0,1-1.29,1.21,2.09,2.09,0,0,1-1.11.23,1.66,1.66,0,0,1-1-.42,2.11,2.11,0,0,1-.61-.9,2.34,2.34,0,0,1,0-1.2,2.45,2.45,0,0,1,.42-1,2.87,2.87,0,0,1,.71-.69,3.41,3.41,0,0,1,.86-.42,6.07,6.07,0,0,1,.9-.22,6.68,6.68,0,0,1,.8-.09l.59,0q.27-1.06.46-2.23a20.78,20.78,0,0,0,.23-2.15h-3.28v-1.12Zm-4,9.22a1.87,1.87,0,0,0,.89-.82,9.41,9.41,0,0,0,.84-1.8l-.74.1a3.62,3.62,0,0,0-.86.24,2.36,2.36,0,0,0-.75.5,1.37,1.37,0,0,0-.39.85.9.9,0,0,0,.22.82A.72.72,0,0,0,395.31,123.09Z"/><path class="cls-1" d="M412.51,116.5q0,1.1-.09,2a13.28,13.28,0,0,1-.22,1.59,13.13,13.13,0,0,1-.37,1.38,12.16,12.16,0,0,1-.53,1.33c-.21.45-.45.92-.71,1.42s-.57,1.06-.91,1.68l-1.09-.56.9-1.66c.26-.49.49-.94.68-1.38s.36-.85.5-1.25a9.14,9.14,0,0,0,.34-1.27,14.27,14.27,0,0,0,.19-1.46q.06-.78.08-1.81h-2.4v-1.07h2.4v-2.7h1.25v2.7h2.8v1.07Zm5.76,9.06a13.18,13.18,0,0,1-1.54-.09,4.21,4.21,0,0,1-1.3-.35,2.26,2.26,0,0,1-.9-.74,2.12,2.12,0,0,1-.34-1.26v-.59h1.2v.59a1,1,0,0,0,.25.72,1.54,1.54,0,0,0,.66.38,3.88,3.88,0,0,0,.91.16c.34,0,.68,0,1,0h1.58v1.14Zm1.3-7.22v1.07h-4.93v-1.07Z"/><path class="cls-1" d="M427.65,125.5q-.9-.62-1.44-1.09a3.48,3.48,0,0,1-.83-1,3.61,3.61,0,0,1-.38-1.24,13.62,13.62,0,0,1-.1-1.79V115h1.28v5.42a12.82,12.82,0,0,0,.08,1.62,2.63,2.63,0,0,0,.31,1,2.45,2.45,0,0,0,.66.71q.43.32,1.14.8Zm6.82-4.37q0-.9,0-1.46a3.47,3.47,0,0,0-.21-1,3.9,3.9,0,0,0-.52-.92q-.34-.46-1-1.17l1-.72a14.19,14.19,0,0,1,1.12,1.41,5.23,5.23,0,0,1,.6,1.15,4.63,4.63,0,0,1,.25,1.19q0,.63,0,1.53V123h-1.28Z"/><path class="cls-1" d="M441.76,122.43a2,2,0,0,1,1,.26,2,2,0,0,1,1.12,1.87,2.16,2.16,0,0,1-2.13,2.13,2.12,2.12,0,0,1-1-.26,2,2,0,0,1-1.12-1.89,2.09,2.09,0,0,1,.66-1.52A2,2,0,0,1,441.76,122.43Zm0,.82a1.48,1.48,0,0,0-.49.08,1,1,0,0,0-.41.26,1.24,1.24,0,0,0-.42,1,1.47,1.47,0,0,0,.11.56,1.25,1.25,0,0,0,1.2.75,1.32,1.32,0,0,0,.69-.19,1.24,1.24,0,0,0,.62-1.12,1.2,1.2,0,0,0-.72-1.18A1.32,1.32,0,0,0,441.74,123.25Z"/></g></g></svg>