<svg xmlns="http://www.w3.org/2000/svg" viewBox="0 0 821.93 351.37"><defs><style>.cls-1{fill:#fff;}.cls-2{fill:none;stroke:#fff;stroke-miterlimit:10;stroke-width:1.21px;}</style></defs><title>main-en</title><g id="レイヤー_2" data-name="レイヤー 2"><g id="レイヤー_1-2" data-name="レイヤー 1"><path class="cls-1" d="M103.6,264.37a28.76,28.76,0,0,1-20.85-8.47c-7.8-7.8-7.69-16.61-7.69-31.88s-.11-24.08,7.69-31.88a28.76,28.76,0,0,1,20.85-8.47c14.6,0,25.53,8.58,28.32,24.41H119.65c-1.9-8-7.25-13.6-16.05-13.6a15.86,15.86,0,0,0-11.71,4.79C88,203.5,87.1,208.07,87.1,224s.89,20.51,4.79,24.75a15.86,15.86,0,0,0,11.71,4.79c8.81,0,14.27-5.57,16.16-13.6h12.15C129.24,255.78,118,264.37,103.6,264.37Z"/><path class="cls-1" d="M199.81,263.7l-5.46-15.94H163l-5.46,15.94H144.73l29.1-79.37h9.7l29.1,79.37ZM179,202.27,166.58,237.5H191Z"/><path class="cls-1" d="M231.53,263.7V184.32h12v68.56h38.24V263.7Z"/><path class="cls-1" d="M301.76,263.7V184.32h12V263.7Z"/><path class="cls-1" d="M351.28,195.14v24.19h33v10.81h-33V263.7h-12V184.32H390v10.81Z"/><path class="cls-1" d="M456.38,255.89a30,30,0,0,1-41.81,0c-7.8-7.8-7.69-16.61-7.69-31.88s-.11-24.08,7.69-31.88a30,30,0,0,1,41.81,0c7.8,7.8,7.58,16.61,7.58,31.88S464.18,248.09,456.38,255.89Zm-9.14-56.52a16.69,16.69,0,0,0-23.63,0c-3.9,4.24-4.68,8.7-4.68,24.64s.78,20.4,4.68,24.64a16.69,16.69,0,0,0,23.63,0c3.9-4.24,4.68-8.7,4.68-24.64S451.14,203.61,447.24,199.37Z"/><path class="cls-1" d="M531,263.7l-16.72-33.44h-15V263.7h-12V184.32H518c15,0,24.64,9.7,24.64,23.19,0,11.37-6.91,18.62-15.83,21.07l18.28,35.12Zm-13.94-68.56H499.25V220h17.84c8,0,13.49-4.57,13.49-12.37S525.11,195.14,517.08,195.14Z"/><path class="cls-1" d="M614.45,263.7l-36.68-55.85V263.7h-12V184.32h11l36.68,55.74V184.32h12V263.7Z"/><path class="cls-1" d="M651.11,263.7V184.32h12V263.7Z"/><path class="cls-1" d="M736.93,263.7l-5.46-15.94H700.15l-5.46,15.94H681.86L711,184.32h9.7l29.1,79.37Zm-20.85-61.43L703.71,237.5h24.41Z"/><path class="cls-1" d="M28.43,86.68V144.2H18.33V86.68H0V77.61H46.76v9.07Z"/><path class="cls-1" d="M86.88,144.76c-13.56,0-23.85-9.26-23.85-23V77.61h10.1v43.67c0,8.88,5.42,14.4,13.75,14.4s13.84-5.52,13.84-14.4V77.61h10.1v44.14C110.82,135.5,100.44,144.76,86.88,144.76Z"/><path class="cls-1" d="M168.42,144.2l-14-28.06H141.77V144.2h-10.1V77.61h25.81c12.63,0,20.67,8.14,20.67,19.45,0,9.54-5.8,15.62-13.28,17.68l15.34,29.46ZM156.73,86.68h-15v20.86h15c6.73,0,11.32-3.83,11.32-10.38S163.46,86.68,156.73,86.68Z"/><path class="cls-1" d="M207.64,86.68V107h27.68V116H207.64V144.2h-10.1V77.61H240.1v9.07Z"/><path class="cls-1" d="M347.64,144.2V77.61H390.2v9.07H357.74v19.45h27.68v9H357.74v20H390.2v9.07Z"/><path class="cls-1" d="M434,144.2h-7.86L404.28,77.61h10.47l15.34,48.44,15.34-48.44h10.66Z"/><path class="cls-1" d="M471.77,144.2V77.61h42.55v9.07H481.87v19.45h27.68v9H481.87v20h32.45v9.07Z"/><path class="cls-1" d="M568.87,144.2l-14-28.06H542.21V144.2h-10.1V77.61h25.81c12.63,0,20.67,8.14,20.67,19.45,0,9.54-5.8,15.62-13.28,17.68l15.34,29.46ZM557.18,86.68h-15v20.86h15c6.73,0,11.32-3.83,11.32-10.38S563.91,86.68,557.18,86.68Z"/><path class="cls-1" d="M619.68,116.8v27.4h-10.1V116.8L589.66,77.61h11l13.93,29.27,13.93-29.27h11Z"/><path class="cls-1" d="M695.87,137.93c-4.21,4.21-10.29,6.27-17.21,6.27H655.28V77.61h23.38c6.92,0,13,2.06,17.21,6.27,7.2,7.2,6.73,16.93,6.73,26.56S703.07,130.73,695.87,137.93Zm-6.92-46.76c-2.81-3.09-6.55-4.49-11.32-4.49H665.38v48.44h12.25c4.77,0,8.51-1.4,11.32-4.49,3.46-3.83,3.55-11,3.55-20.2S692.41,95,688.95,91.17Z"/><path class="cls-1" d="M760.08,144.2l-4.58-13.37H729.22l-4.58,13.37H713.88l24.41-66.59h8.14l24.41,66.59ZM742.59,92.67l-10.38,29.55h20.48Z"/><path class="cls-1" d="M802,116.8v27.4h-10.1V116.8L772,77.61h11L797,106.88l13.93-29.27h11Z"/><path class="cls-1" d="M273.1,77.61h44.55v1.86H273.1Z"/><path class="cls-1" d="M273.1,142.34h44.55v1.86H273.1Z"/><path class="cls-1" d="M305.89,131.29,302.37,127a16.88,16.88,0,0,1-12,4.61c-9,0-14-5-14-12.87,0-6,4.31-9.41,8.56-12.2-1.94-2.25-4.49-5.28-4.49-9.29,0-5.52,4.13-9.59,10.56-9.59,6.13,0,10.26,4.13,10.26,9.65,0,3.4-1.88,5.77-4.61,7.65,0,0-2.12,1.46-3.16,2.18l9.1,10.86c1.58-2.25,2.25-4.73,2.31-8.68h5.95c-.18,5.52-1.4,9.89-4.31,13.29l7.22,8.62Zm-17.48-20.81c-3.16,2.18-5.83,4.19-5.83,8.19,0,4.31,3.34,7.34,7.83,7.34a11.46,11.46,0,0,0,8.25-3.34Zm2.67-17.36a4,4,0,0,0-4.25,4.25c0,1.76,1.15,3.4,3.34,5.95.67-.42,2.06-1.4,2.06-1.4,1.7-1.15,3.16-2.49,3.16-4.49A4.18,4.18,0,0,0,291.09,93.12Z"/><path class="cls-1" d="M273.1,142.34h44.55v1.86H273.1Z"/><path class="cls-1" d="M305.89,131.29,302.37,127a16.88,16.88,0,0,1-12,4.61c-9,0-14-5-14-12.87,0-6,4.31-9.41,8.56-12.2-1.94-2.25-4.49-5.28-4.49-9.29,0-5.52,4.13-9.59,10.56-9.59,6.13,0,10.26,4.13,10.26,9.65,0,3.4-1.88,5.77-4.61,7.65,0,0-2.12,1.46-3.16,2.18l9.1,10.86c1.58-2.25,2.25-4.73,2.31-8.68h5.95c-.18,5.52-1.4,9.89-4.31,13.29l7.22,8.62Zm-17.48-20.81c-3.16,2.18-5.83,4.19-5.83,8.19,0,4.31,3.34,7.34,7.83,7.34a11.46,11.46,0,0,0,8.25-3.34Zm2.67-17.36a4,4,0,0,0-4.25,4.25c0,1.76,1.15,3.4,3.34,5.95.67-.42,2.06-1.4,2.06-1.4,1.7-1.15,3.16-2.49,3.16-4.49A4.18,4.18,0,0,0,291.09,93.12Z"/><path class="cls-2" d="M608.2.43,547.44,61.18M588.55.43,527.8,61.18M568.91.43,508.15,61.18"/><path class="cls-2" d="M318.44,290.18l-60.76,60.76m41.11-60.76L238,350.94m41.11-60.76L218.4,350.94"/></g></g></svg>