<svg xmlns="http://www.w3.org/2000/svg" viewBox="0 0 771.24 27.45"><defs><style>.cls-1{fill:#ff6592;}</style></defs><title>main-index</title><g id="レイヤー_2" data-name="レイヤー 2"><g id="レイヤー_1-2" data-name="レイヤー 1"><path class="cls-1" d="M17.61,11.6a19.6,19.6,0,0,1-2.34,4.69l3,2.31-1.41,1.65L14,18q-.81,1-1.68,1.93t-1.91,1.94q-1,1-2.34,2.08t-3,2.39L3.66,24.54q1.65-1.26,2.93-2.33t2.28-2q1-.94,1.8-1.81t1.48-1.74l-2-1.47L8.29,13.9q-1-.67-1.75-1.18L7.89,11q.78.54,1.72,1.24l1.79,1.31q1,.75,2,1.47a18.39,18.39,0,0,0,1.92-3.91,13.57,13.57,0,0,0,.72-4H8.58q-.45.81-1,1.6a19.93,19.93,0,0,1-1.35,1.74q-.81.94-1.93,2.08T1.59,15.15L0,13.5q2.55-2.37,4.06-4a18.2,18.2,0,0,0,2.28-3,8.2,8.2,0,0,0,1-2.54,14.22,14.22,0,0,0,.22-2.61H9.9a19,19,0,0,1-.09,2.07A10,10,0,0,1,9.48,5h8.91v1.8A15.2,15.2,0,0,1,17.61,11.6Z"/><path class="cls-1" d="M29.28,12.54H51.42v2.28H29.28Z"/><path class="cls-1" d="M78.52,11.64a17.47,17.47,0,0,1-2.35,4.75,28.69,28.69,0,0,1-3.89,4.42Q70,23,66.87,25.65l-1.59-1.8q3.06-2.64,5.22-4.71a29.13,29.13,0,0,0,3.55-4,14.73,14.73,0,0,0,2.07-4,16.57,16.57,0,0,0,.73-4.73H61.59V4H79.32V5.79A19.47,19.47,0,0,1,78.52,11.64Z"/><path class="cls-1" d="M98.73,4.26q-.12.81-.24,1.68h5.19V8.1H98.19v.09q-.36,2.52-.63,5.22H103v2.16H97.35q-.06.45-.09,1.13t0,1.37a8.38,8.38,0,0,0,.55,3.15,4.33,4.33,0,0,0,3.44,2.87,6.15,6.15,0,0,0,2.1,0,5.08,5.08,0,0,0,2-.73,3.74,3.74,0,0,0,1.38-1.56,4.79,4.79,0,0,0,.46-1.68,6.94,6.94,0,0,0-.07-1.75,10.73,10.73,0,0,0-.45-1.74q-.3-.86-.63-1.67l2-.9q.42,1,.79,2.12a11.36,11.36,0,0,1,.51,2.28,8.81,8.81,0,0,1,0,2.3,6.11,6.11,0,0,1-.79,2.22A6.25,6.25,0,0,1,106,25.32a7.63,7.63,0,0,1-3.24.89,7.83,7.83,0,0,1-3.3-.57,6.78,6.78,0,0,1-3.53-3.39,9.59,9.59,0,0,1-.52-1.47,9.46,9.46,0,0,1-.27-1.42A12,12,0,0,1,95,18.06q0-.69,0-1.37t.09-1.13h-4V13.41h4.2q.12-1.26.29-2.64T96,8.1H92.16V5.94h4.11L97.08.63h2.16l-.27,2Z"/><path class="cls-1" d="M124,24.42v2H121.8V2.52h17V26.37h-2.19v-2Zm0-19.89v7.68h12.63V4.53Zm0,9.72v8.16h12.63V14.25Z"/><path class="cls-1" d="M154.08,5.16q-.45-.9-.95-1.74a16.39,16.39,0,0,0-1.07-1.59L153.93.75a20.56,20.56,0,0,1,1.26,1.77q.57.9,1,1.83l-1.32.81h4.26v-5h2.16v5h2.43Q164.4,4.11,165,3t1-2.27l2.16.93q-.36.81-.88,1.75t-1.09,1.79h5.73v5.76h-2.1V7H150.84v4h-2.07V5.16ZM167.7,8.7v6.24h-6.36v2.13h9v6.27a2,2,0,0,1-.69,1.74,3.06,3.06,0,0,1-1.86.51q-.81,0-1.59,0a13.81,13.81,0,0,1-1.56-.15l-.33-2.22a12.23,12.23,0,0,0,1.5.25,14.1,14.1,0,0,0,1.47.08q1,0,1-1.08V18.87h-6.93v8.28h-2.16V18.87h-6.66V26h-2.1V17.07h8.76V14.94H153V8.7Zm-12.63,4.5H165.6V10.5H155.07Z"/><path class="cls-1" d="M188.73,4.26q-.12.81-.24,1.68h5.19V8.1h-5.49v.09q-.36,2.52-.63,5.22H193v2.16h-5.61q-.06.45-.09,1.13t0,1.37a8.38,8.38,0,0,0,.55,3.15,4.33,4.33,0,0,0,3.44,2.87,6.15,6.15,0,0,0,2.1,0,5.08,5.08,0,0,0,2-.73,3.74,3.74,0,0,0,1.38-1.56,4.79,4.79,0,0,0,.46-1.68,6.94,6.94,0,0,0-.07-1.75,10.73,10.73,0,0,0-.45-1.74q-.3-.86-.63-1.67l2-.9q.42,1,.79,2.12a11.36,11.36,0,0,1,.51,2.28,8.81,8.81,0,0,1,0,2.3,6.11,6.11,0,0,1-.79,2.22A6.25,6.25,0,0,1,196,25.32a7.63,7.63,0,0,1-3.24.89,7.83,7.83,0,0,1-3.3-.57,6.78,6.78,0,0,1-3.53-3.39,9.59,9.59,0,0,1-.52-1.47,9.46,9.46,0,0,1-.27-1.42,12,12,0,0,1-.07-1.29q0-.69,0-1.37t.09-1.13h-4V13.41h4.2q.12-1.26.29-2.64T186,8.1h-3.81V5.94h4.11l.81-5.31h2.16l-.27,2Z"/><path class="cls-1" d="M229.09,19.75a9.55,9.55,0,0,1-.41,2,5.35,5.35,0,0,1-1.11,2A4.41,4.41,0,0,1,226,24.9a6.8,6.8,0,0,1-2,.45q-1.06.09-2.26.09V23.25A13.13,13.13,0,0,0,224,23.1a4,4,0,0,0,1.32-.44A1.88,1.88,0,0,0,226,22a5.56,5.56,0,0,0,.4-.95,7.11,7.11,0,0,0,.32-1.48q.11-.88.17-2.65v-7h-7.11v.18q0,1.53-.1,2.75a15.59,15.59,0,0,1-.36,2.28,13.13,13.13,0,0,1-.69,2.08q-.44,1-1.08,2.19T216,22l-2.07,3.29L212,24l2-3.15q.85-1.35,1.46-2.43a21.61,21.61,0,0,0,1-2,11.54,11.54,0,0,0,.62-1.86,12.42,12.42,0,0,0,.3-2q.07-1.08.08-2.46V9.93h-6.66V7.8h6.69V1.35h2.34V7.8h9.42v9.09Q229.2,18.66,229.09,19.75Z"/><path class="cls-1" d="M245.88,2.4v13h-2.22V2.4ZM254.82,10V2.4h2.37V10q0,2.4-.15,4.18a21,21,0,0,1-.5,3.2,10.59,10.59,0,0,1-.95,2.52A11.06,11.06,0,0,1,254.1,22,19.89,19.89,0,0,1,252,24q-1.23,1-2.85,2.25l-1.41-1.92q1.47-1.11,2.56-2a18.28,18.28,0,0,0,1.89-1.77,8.6,8.6,0,0,0,2.11-4,17.21,17.21,0,0,0,.42-2.82Q254.82,12.18,254.82,10Z"/><path class="cls-1" d="M288.52,11.64a17.47,17.47,0,0,1-2.35,4.75,28.69,28.69,0,0,1-3.89,4.42Q280,23,276.87,25.65l-1.59-1.8q3.06-2.64,5.22-4.71a29.13,29.13,0,0,0,3.55-4,14.73,14.73,0,0,0,2.07-4,16.57,16.57,0,0,0,.73-4.73H271.59V4h17.73V5.79A19.47,19.47,0,0,1,288.52,11.64Z"/><path class="cls-1" d="M310.8,16.13a9.32,9.32,0,0,1-1.58,2.75,14.73,14.73,0,0,1-2.58,2.42A41.33,41.33,0,0,1,303,23.67l-1.14-1.77q1.92-1.17,3.29-2.16a13,13,0,0,0,2.25-2,7.2,7.2,0,0,0,1.32-2.23,9.8,9.8,0,0,0,.53-2.79H302.4V10.83h10.5V6.06h2.19v4.77h3.69v1.86h-3.69V25.86H312.9V12.69h-1.47A11.65,11.65,0,0,1,310.8,16.13Z"/><path class="cls-1" d="M336,9.54q0,2.55-.18,4.44a16.78,16.78,0,0,1-.74,3.6,17.32,17.32,0,0,1-1.61,3.48,46,46,0,0,1-2.76,4l-1.92-1.38q1.59-2.16,2.55-3.78a16.44,16.44,0,0,0,1.47-3.15,14.08,14.08,0,0,0,.66-3.22q.15-1.69.15-4V6.09H336Zm6.39,13.26a9.6,9.6,0,0,0,2.37-.31,5,5,0,0,0,1.91-1,9.93,9.93,0,0,0,1.74-2q.85-1.26,1.9-3.21l2,1.2A32.55,32.55,0,0,1,350,21.08a11,11,0,0,1-2.19,2.32,7.07,7.07,0,0,1-2.49,1.23,12.42,12.42,0,0,1-3.18.36H340V3.21h2.34Z"/><path class="cls-1" d="M381.21,20.91v2.34H359.55V20.91ZM362.79,8.25V6h15.09V8.25Z"/><path class="cls-1" d="M401.91,12.63q2-1.11,3.17-1.84a12.1,12.1,0,0,0,1.83-1.33,3.21,3.21,0,0,0,.86-1.16A3.78,3.78,0,0,0,408,7V6.21l-17.52,0V4h19.92V7a5.65,5.65,0,0,1-.42,2.28A5.34,5.34,0,0,1,408.63,11a15.35,15.35,0,0,1-2.28,1.68q-1.38.85-3.27,1.94Zm-8.7,11.64q1.17-1.35,2-2.37a16,16,0,0,0,1.41-2,10.94,10.94,0,0,0,.93-2,12.18,12.18,0,0,0,.54-2.38q.18-1.35.24-3.17T398.4,8h2.4q0,2.76-.11,4.79a28.91,28.91,0,0,1-.37,3.54,15.12,15.12,0,0,1-.71,2.67,13.59,13.59,0,0,1-1.06,2.21A17,17,0,0,1,397,23.35l-2,2.42Z"/><path class="cls-1" d="M417.75,25a33.75,33.75,0,0,0,2.73-4.35q1.2-2.28,2.22-4.71l1.56,1.74q-1,2.37-2.13,4.68a38.22,38.22,0,0,1-2.67,4.56Zm4.77-11.13a24,24,0,0,0-4.23-4.05l1.38-1.71A21.26,21.26,0,0,1,422,10q1.08,1,2,2.13l-1.44,1.74ZM423.36,7q-.93-1.11-1.92-2.11a23,23,0,0,0-2.13-1.91l1.35-1.71a28.61,28.61,0,0,1,2.22,1.83,21.72,21.72,0,0,1,2,2.07L423.42,7Zm6.18,9q0,.84,0,1.81t-.15,2a17.37,17.37,0,0,1-.32,1.95,10,10,0,0,1-.54,1.73A7.41,7.41,0,0,1,427,25.68a12.51,12.51,0,0,1-2.12,1.77l-1.35-1.74a8.53,8.53,0,0,0,2.2-2.08,8.33,8.33,0,0,0,1.19-2.42,11.91,11.91,0,0,0,.48-2.7q.09-1.41.09-2.94v-1h2ZM433,6.18q-.51,1.2-1.09,2.44T430.74,11H431q1.11,0,2.19-.06l2.19-.15,1.23-.1,1.23-.07L436.6,9.18l-1.25-1.44,1.5-1.05a38.21,38.21,0,0,1,2.7,2.87Q440.82,11,442,12.63l-1.68,1.47-.65-1q-.31-.5-.64-1-3.27.48-6.56.69t-6.64.36l-.6-2,1.13-.06c.37,0,.74,0,1.13,0h1q.57-1.14,1.16-2.43t1-2.46h-5.31V4.32h7V.12h2.16v4.2h8V6.18Zm-1.14,8.73h2V25.83h-2Zm6.66,8.76a.65.65,0,0,0,.33.66,1.79,1.79,0,0,0,.75.15,1.08,1.08,0,0,0,1.17-1A9,9,0,0,0,441,22q0-.72,0-1.44v-.24l2,.84q0,.3-.06.89t-.09,1.21q-.06.63-.15,1.21a3.59,3.59,0,0,1-.21.85,1.65,1.65,0,0,1-1.26,1,5.36,5.36,0,0,1-1.08.14h-1.08a8.58,8.58,0,0,1-1-.06,2,2,0,0,1-.81-.27,1.47,1.47,0,0,1-.53-.6,2.37,2.37,0,0,1-.2-1.05V14.4h2Z"/><path class="cls-1" d="M453,18.18q0,1.32.08,2.1a6,6,0,0,0,.27,1.35,3.79,3.79,0,0,0,.58,1.08q.39.51,1,1.29l-1.83,1.35q-.75-1-1.2-1.71a6.53,6.53,0,0,1-.69-1.47,7.43,7.43,0,0,1-.31-1.67q-.08-.91-.08-2.32V3.12H453Zm7.8-1.56a16.08,16.08,0,0,0,0,2.46,3.85,3.85,0,0,0,.45,1.67,2.29,2.29,0,0,0,1.08,1,4.66,4.66,0,0,0,1.88.31h6.57v2.19H464a6.81,6.81,0,0,1-2.85-.52,4.17,4.17,0,0,1-1.79-1.5,5.66,5.66,0,0,1-.84-2.39,13.37,13.37,0,0,1,0-3.18ZM459.42,5.91H470V8.16H459.42Z"/><path class="cls-1" d="M484.11,22.35a2.48,2.48,0,0,0,.15.9,1.23,1.23,0,0,0,.57.63,4,4,0,0,0,1.11.18q.84.06,1.8.09t1.85,0h2.19l1.5,0,1.71,0,1.67,0q.78,0,1.37-.09a2.67,2.67,0,0,0,.76-.15,1.29,1.29,0,0,0,.65-.51,4,4,0,0,0,.31-.87,7.47,7.47,0,0,0,.18-1.32q0-.66,0-1.32v-.24l2.13.84q0,.45-.09,1.19t-.19,1.47a7.72,7.72,0,0,1-.39,1.4,2.4,2.4,0,0,1-.64,1,2.45,2.45,0,0,1-.9.31,15.73,15.73,0,0,1-1.56.23q-.9.09-1.92.13l-2,.06-1.7,0h-2.22l-1.56,0-1.79-.06q-.93,0-1.75-.1T484,25.85a3,3,0,0,1-.9-.26,2.38,2.38,0,0,1-.74-1,3.69,3.69,0,0,1-.22-1.28V10.47q-1.17,1.26-2.43,2.43l-1.29-1.71a22.4,22.4,0,0,0,4.39-4.94,31.46,31.46,0,0,0,3-6l2,.51-.81,2h7.26l1.17,1q-.6,1-1.37,2.23t-1.67,2.47h7.17V18.51h-2V17.1h-13.5Zm2.07-17.82q-.48.88-1.12,1.92t-1.33,2h6.6q.6-.79,1.28-1.87t1.18-2.06Zm-2.07,10.71h5.61v-5h-5.61Zm7.53-5v5h6v-5Z"/><path class="cls-1" d="M519.54,10.77a4,4,0,0,1,2.55.66,4.22,4.22,0,0,1,1.47,2.13q1.17-.51,2.4-1l2.85-1.14.87,1.95-3,1.23q-1.39.57-2.62,1.11v4.44h-2.16v-3.6l-2,1.08A11.33,11.33,0,0,0,518,18.89a4.71,4.71,0,0,0-1.21,1.47,2.09,2.09,0,0,0,0,1.75,2,2,0,0,0,1,1.13,5.34,5.34,0,0,0,1.48.54,8.44,8.44,0,0,0,1.56.18l1.18,0a26.25,26.25,0,0,0,2.9-.17l2.83-.31.09,2.13-2.92.33a29.54,29.54,0,0,1-3,.15,11.82,11.82,0,0,1-4.72-.72,4.34,4.34,0,0,1-2.38-2.28,4.21,4.21,0,0,1-.36-2,4.16,4.16,0,0,1,.58-1.77,6.47,6.47,0,0,1,1.28-1.52,16.08,16.08,0,0,1,1.69-1.31,20.17,20.17,0,0,1,1.89-1.12q1-.51,1.81-1a3.21,3.21,0,0,0-.42-.87,2.06,2.06,0,0,0-.51-.51,1.39,1.39,0,0,0-.57-.23,3.81,3.81,0,0,0-.57,0h-3.78l.87-6.57h-5.22v-2h5.52l.48-3.6h2.25l-.51,3.6h7.62v2h-7.92l-.6,4.62Z"/><path class="cls-1" d="M548.52,3.18a10.47,10.47,0,0,0,.44-1.5q.16-.78.28-1.56l2.34.45c-.16.44-.33.88-.51,1.32s-.38.87-.6,1.29h4.8v11h-4v2.31h11.37v1.86h-9.87a31.06,31.06,0,0,0,4.91,3.42,32.14,32.14,0,0,0,5.47,2.46l-1.38,2.07a40.16,40.16,0,0,1-5.68-3,22.88,22.88,0,0,1-4.82-4.11v8h-2.13V19.29a20.18,20.18,0,0,1-4.51,4.38,35.31,35.31,0,0,1-5.51,3.18L537.78,25a24.18,24.18,0,0,0,5.42-2.69,23.15,23.15,0,0,0,4.54-4H538V16.47h11.13V14.16H545.4v-11ZM537.84,13.59a32.29,32.29,0,0,0,3.29-2.11A39.57,39.57,0,0,0,544.2,9l.93,1.74a29.71,29.71,0,0,1-2.9,2.49q-1.51,1.14-3.13,2.16Zm5.4-5.37a31.87,31.87,0,0,0-2.17-2.42,23.76,23.76,0,0,0-2.47-2.15L540,2.19a22.28,22.28,0,0,1,2.52,2.08,29.47,29.47,0,0,1,2.22,2.39L543.3,8.22Zm4.08-3.3V7.74h6.09V4.92Zm0,4.47v3h6.09v-3Zm14.4,5.28a30.6,30.6,0,0,0-2.88-2.49Q557.34,11,555.72,10l1.23-1.5q1.65,1.05,3.26,2.15A35.17,35.17,0,0,1,563.28,13l-1.5,1.68Zm-5.88-8.1a29.55,29.55,0,0,0,2.38-2.22,24.79,24.79,0,0,0,2.12-2.52l1.83,1.38a35.83,35.83,0,0,1-4.86,4.68Z"/><path class="cls-1" d="M585.17,24.17a10.64,10.64,0,0,1-5.51,1.67,7.1,7.1,0,0,1-2.37-.39,5.51,5.51,0,0,1-2-1.17,5.36,5.36,0,0,1-1.32-2,7.47,7.47,0,0,1-.48-2.79V2.25h2.37V19.5a4.88,4.88,0,0,0,.87,3,3.27,3.27,0,0,0,2.79,1.15,7.48,7.48,0,0,0,2-.28,9.31,9.31,0,0,0,2.25-1,15,15,0,0,0,2.5-1.9A23.21,23.21,0,0,0,589,17.43l1.62,1.47A19.65,19.65,0,0,1,585.17,24.17Z"/><path class="cls-1" d="M619.78,25.52q-.46.1-1,.18l-1,.12c-.31,0-.58,0-.82,0a7.48,7.48,0,0,1-1.53-.15,8.75,8.75,0,0,1-1.41-.42,3.92,3.92,0,0,1-2-1.85,7,7,0,0,1-.69-3.28V17.49a2.39,2.39,0,0,0-.33-1.44,1.58,1.58,0,0,0-1.29-.42h-3.36l-4.17,10.14-2-.84,9.39-23,2,.81-4.38,10.95h2.52a4.08,4.08,0,0,1,3,1,4,4,0,0,1,1,3v2.79a6.3,6.3,0,0,0,.11,1.27,3,3,0,0,0,.29.83,1.56,1.56,0,0,0,.39.5,1.89,1.89,0,0,0,.42.25,5,5,0,0,0,2.07.39,9.94,9.94,0,0,0,1.67-.15l1.84-.33v2.1Z"/><path class="cls-1" d="M644.94,6.21a21.42,21.42,0,0,1-1.53,2q-1,1.14-1.92,2.49a24.34,24.34,0,0,0-1.75,2.88,10,10,0,0,0-1,3.12,7.23,7.23,0,0,0,.08,2.85,4.69,4.69,0,0,0,1.09,2.07,4.81,4.81,0,0,0,2,1.26,8.57,8.57,0,0,0,2.81.42l.82,0q.59,0,1.46-.1v2.07q-1.62.09-2.34.09a11.3,11.3,0,0,1-3.92-.62A7,7,0,0,1,638,23a6.16,6.16,0,0,1-1.47-2.81,10.1,10.1,0,0,1-.1-3.79,9.43,9.43,0,0,1,.71-2.55,16.59,16.59,0,0,1,1.3-2.4q.78-1.2,1.79-2.48l2.17-2.75H630.12V4.14H649.5V6.21Zm.93,8.31h-1.71V10h1.71Zm3.75,0h-1.71V10h1.71Z"/><path class="cls-1" d="M663.48,17.7a26.7,26.7,0,0,1-2.26,2.86,28.76,28.76,0,0,1-2.62,2.54l-1.32-1.83a20.72,20.72,0,0,0,4.08-4.08,28.34,28.34,0,0,0,3-5h-6.72V10.47h11.55V8.4h-9.39V6.75h9.39V4.86H658.86V3.21l6.36,0q-.33-.6-.67-1.16a8,8,0,0,0-.74-1l2-.84a23.58,23.58,0,0,1,1.74,3h5.16a13.18,13.18,0,0,0,.93-1.54A18.06,18.06,0,0,0,674.43,0l2.19.79q-.39.64-.79,1.23L675,3.21h6.78V4.86h-10.5V6.75h9.57V8.4h-9.57v2.07H683v1.74H666.54L665.67,14h13.86V27.12h-2.07V26H665.55v1.11h-2.07Zm2.07-.24h11.91V15.69H665.55Zm0,3.39h11.91V19H665.55Zm0,3.51h11.91V22.41H665.55Z"/><path class="cls-1" d="M699.21,25a11.22,11.22,0,0,1-3.74-.54A5.75,5.75,0,0,1,693,22.86a5.23,5.23,0,0,1-.95-1.51,6.64,6.64,0,0,1-.42-1.65,9.68,9.68,0,0,1-.06-1.69q0-.84.17-1.65H694a10.88,10.88,0,0,0-.09,3.07,4.43,4.43,0,0,0,.78,2q1.17,1.35,4.47,1.35H709V25Zm9.42-17.91q-2.37,0-4.16,0T701.32,7a23.77,23.77,0,0,1-2.42-.27,13.83,13.83,0,0,1-2-.48,13,13,0,0,1-1.79-.74q-.87-.43-1.89-1.06l1.17-1.95q.87.54,1.62.91a12.57,12.57,0,0,0,1.53.65,10.16,10.16,0,0,0,1.71.42q.93.15,2.22.24t3,.12q1.73,0,4.1,0Z"/><path class="cls-1" d="M719,20.07a69.42,69.42,0,0,0,5.46-13h-3.72V5h4.41l.62-2.28q.29-1.05.46-1.65l2.16.51c-.1.3-.22.75-.37,1.36s-.33,1.3-.55,2.06h4v2.1h-4.65a75,75,0,0,1-2.59,7.31q-1.46,3.5-3.23,6.79Zm19.62-8.52a2.22,2.22,0,0,0-1.87,1,5.22,5.22,0,0,0-.67,3.18V19.5a22.43,22.43,0,0,1,2.64,1.2q1.29.69,3,1.71l-1.08,1.83-1.4-.84-1.16-.66q-.54-.3-1-.54l-1-.48A4.16,4.16,0,0,1,735,25a4.66,4.66,0,0,1-3.24,1,7,7,0,0,1-2.13-.35,5.71,5.71,0,0,1-1.89-1,3.94,3.94,0,0,1-1.19-1.57,2.84,2.84,0,0,1,0-2.09,3.24,3.24,0,0,1,1.38-1.63,6.14,6.14,0,0,1,2.61-.83c.32,0,.61-.06.87-.07a6.51,6.51,0,0,1,.76,0q.38,0,.79.1l1,.19V15.66a6.85,6.85,0,0,1,.33-2.49,5.19,5.19,0,0,1,1.05-1.71q-1.17,0-2,.06a7.4,7.4,0,0,0-1.38.23,5.29,5.29,0,0,0-1.12.45q-.53.29-1.19.71l-1.11-1.62A12.35,12.35,0,0,1,731.25,10a8.38,8.38,0,0,1,2.67-.34l6.75.12v1.77Zm-4.56,9.33a9.26,9.26,0,0,0-2.49-.39,6.6,6.6,0,0,0-.92.07,5.58,5.58,0,0,0-1,.23,1.89,1.89,0,0,0-.88.57,1.26,1.26,0,0,0,.15,1.76,3,3,0,0,0,1,.57A5.61,5.61,0,0,0,731,24a6.35,6.35,0,0,0,.75.07,2.06,2.06,0,0,0,1.83-.67,3.41,3.41,0,0,0,.45-1.9Z"/><path class="cls-1" d="M764.28,7.11v9.06q0,1.35,0,2.35a14,14,0,0,1-.14,1.81,6.15,6.15,0,0,1-.42,1.52,8.58,8.58,0,0,1-.81,1.46,14.89,14.89,0,0,1-1.3,1.62q-.8.87-1.94,2L758,25.5q1.23-1.2,2-2A13.14,13.14,0,0,0,761.25,22a4.79,4.79,0,0,0,.64-1.25,7.19,7.19,0,0,0,.29-1.41,3.11,3.11,0,0,1-1,.63,3.51,3.51,0,0,1-1.37.12,4.49,4.49,0,0,1-1.83-.48,4.12,4.12,0,0,1-1.36-1.12,4.53,4.53,0,0,1-.81-1.65,6,6,0,0,1-.17-2.06A5.31,5.31,0,0,1,757,11.44a4.1,4.1,0,0,1,3.14-1.24,5.13,5.13,0,0,1,1.09.13,2.29,2.29,0,0,1,.76.41V7.11H749.16v-2H762V1.29h2.25V5.1h7v2ZM760,12.27a2,2,0,0,0-1,.24,2.1,2.1,0,0,0-.69.63,3.17,3.17,0,0,0-.42.88,4.27,4.27,0,0,0-.18,1,3.4,3.4,0,0,0,0,1,3.19,3.19,0,0,0,.33,1,2.15,2.15,0,0,0,.66.75,1.92,1.92,0,0,0,1,.33,2.12,2.12,0,0,0,1.11-.21,2.21,2.21,0,0,0,.74-.62,2.52,2.52,0,0,0,.42-.87,5,5,0,0,0,.17-1,4.89,4.89,0,0,0-.08-1.15,2.72,2.72,0,0,0-.39-1,2.18,2.18,0,0,0-.72-.69A2,2,0,0,0,760,12.27Z"/></g></g></svg>