<?xml version="1.0" encoding="utf-8"?>
<!-- Generator: Adobe Illustrator 21.0.2, SVG Export Plug-In . SVG Version: 6.00 Build 0)  -->
<svg version="1.1" id="レイヤー_1" xmlns="http://www.w3.org/2000/svg" xmlns:xlink="http://www.w3.org/1999/xlink" x="0px"
	 y="0px" viewBox="0 0 74.5 14.4" style="enable-background:new 0 0 74.5 14.4;" xml:space="preserve">
<style type="text/css">
	.st0{fill:#070707;}
</style>
<g>
	<path class="st0" d="M0,0h1.1v14.2H0V0z"/>
	<path class="st0" d="M5.5,11.7V5.4H4.1V4.6h1.3V1.5h1v3.1h2.2v0.8H6.5v6.4c0,1,0.5,1.6,1.5,1.6h0.7v0.9H7.8
		C6.3,14.2,5.5,13.2,5.5,11.7z"/>
	<path class="st0" d="M15.3,13.4c1.1,0,1.8-0.3,2.7-1.2l0.8,0.6c-1,1-1.9,1.5-3.5,1.5c-2.7,0-4.1-1.7-4.1-4.9c0-3.1,1.4-4.9,3.9-4.9
		S19,6.2,19,9.2v0.5h-6.7C12.2,12.1,13.3,13.4,15.3,13.4z M17.5,7c-0.4-1-1.4-1.6-2.5-1.6S12.9,6,12.5,7c-0.2,0.6-0.3,0.9-0.3,1.8
		h5.7C17.8,7.9,17.8,7.6,17.5,7z"/>
	<path class="st0" d="M35,8.3c0-1.9-0.9-2.9-2.7-2.9c-1.7,0-2.7,1-2.7,2.7v6.2h-1v-6c0-1.9-0.9-2.9-2.7-2.9s-2.7,1-2.7,2.9v6h-1V4.6
		h1v1.1c0.7-0.8,1.7-1.3,2.9-1.3c1.4,0,2.5,0.6,3.1,1.8c0.7-1.1,1.8-1.8,3.3-1.8c1.1,0,1.9,0.3,2.5,0.9c0.7,0.6,1,1.5,1,2.7v6.2h-1
		C35,14.2,35,8.3,35,8.3z"/>
	<path class="st0" d="M45.1,0h1.1v13.3h7.6v1h-8.6L45.1,0L45.1,0z"/>
	<path class="st0" d="M56.2,0h1.3v1.3h-1.3V0z M56.3,4.6h1v9.6h-1V4.6z"/>
	<path class="st0" d="M64.1,14.4c-1.7,0-2.9-0.4-3.9-1.4l0.7-0.7c0.7,0.8,1.8,1.2,3.2,1.2c1.9,0,2.9-0.7,2.9-2c0-1-0.6-1.5-1.8-1.6
		l-1.6-0.1c-1.9-0.2-2.9-1-2.9-2.5c0-1.7,1.4-2.7,3.5-2.7c1.3,0,2.5,0.4,3.4,1l-0.7,0.7c-0.7-0.5-1.6-0.8-2.7-0.8
		c-1.6,0-2.5,0.7-2.5,1.9c0,1,0.6,1.5,2,1.6l1.5,0c1.6,0.2,2.8,0.6,2.8,2.5C68,13.3,66.5,14.4,64.1,14.4z"/>
	<path class="st0" d="M71.3,11.7V5.4H70V4.6h1.3V1.5h1v3.1h2.2v0.8h-2.2v6.4c0,1,0.5,1.6,1.5,1.6h0.7v0.9h-0.9
		C72.1,14.2,71.3,13.2,71.3,11.7z"/>
</g>
</svg>
