<svg xmlns="http://www.w3.org/2000/svg" viewBox="0 0 230.4 138.38"><defs><style>.cls-1{fill:#eab300;}.cls-2{fill:none;stroke:#eab300;stroke-miterlimit:10;stroke-width:0.87px;}</style></defs><title>section-style1-index</title><g id="レイヤー_2" data-name="レイヤー 2"><g id="レイヤー_1-2" data-name="レイヤー 1"><path class="cls-1" d="M16.59,50.94c-7.42,0-12-2-16.59-6.58L2.66,41.7c4.48,4.48,8.12,5.88,14.14,5.88,7.84,0,12.81-3.78,12.81-10.29a9,9,0,0,0-2.73-7c-1.82-1.54-3.15-2-7.21-2.66l-5.81-.91A17.29,17.29,0,0,1,5,23.08a11.34,11.34,0,0,1-3.92-9.17C1.05,5.58,7,.26,16.52.26A19.7,19.7,0,0,1,30.87,5.65L28.42,8.1A16.2,16.2,0,0,0,16.31,3.48c-7.21,0-11.55,4-11.55,10.29,0,2.87.84,5,2.59,6.51a15.9,15.9,0,0,0,7.42,3.08l5.39.84c4.69.7,6.79,1.54,8.89,3.29a12.25,12.25,0,0,1,4.34,9.66C33.39,45.55,27,50.94,16.59,50.94Z"/><path class="cls-1" d="M50.92,50.52c-5.32,0-8.12-3.71-8.12-8.82V19.44H38.18V16.78H42.8V6h3.57V16.78H54v2.66H46.37V41.77c0,3.5,1.61,5.6,5.18,5.6H54v3.15Z"/><path class="cls-1" d="M72.29,59.69A8.69,8.69,0,0,1,70,63.61a9.18,9.18,0,0,1-6.37,2.17H61.93V62.63h1.33c3.85,0,4.9-1.26,6.16-4.62l2.73-7.49L59.83,16.78h3.92L73.9,46.32,84.05,16.78H88Z"/><path class="cls-1" d="M103.19,50.52c-5.46,0-8.12-3.5-8.12-8.75V.68h3.57v41c0,3.78,1.19,5.67,5.18,5.67h2.45v3.15Z"/><path class="cls-1" d="M114.69,34.42c0,8.54,3.85,13.3,11,13.3,4,0,6.44-1.19,9.31-4.06l2.66,2.1c-3.43,3.43-6.58,5.18-12.18,5.18-9.31,0-14.35-6-14.35-17.29,0-10.85,5-17.29,13.51-17.29s13.51,6.16,13.51,16.45v1.61Zm18.69-9.24a9.59,9.59,0,0,0-17.5,0,15.65,15.65,0,0,0-1.19,6.37h19.88A15.64,15.64,0,0,0,133.39,25.18Z"/><path class="cls-1" d="M226.83,50.52V12.79l-9,8V16.5l9-7.77h3.57V50.52Z"/><line class="cls-2" x1="199.32" y1="0.31" x2="61.56" y2="138.07"/></g></g></svg>