<svg xmlns="http://www.w3.org/2000/svg" viewBox="0 0 245.59 138.38"><defs><style>.cls-1{fill:#ff6592;}.cls-2{fill:none;stroke:#ff6592;stroke-miterlimit:10;stroke-width:0.87px;}</style></defs><title>section-style3-index</title><g id="レイヤー_2" data-name="レイヤー 2"><g id="レイヤー_1-2" data-name="レイヤー 1"><path class="cls-1" d="M16.59,50.94c-7.35,0-12-2-16.59-6.58L2.66,41.7c4.48,4.48,8.19,5.88,14.14,5.88,7.91,0,12.81-3.78,12.81-10.29,0-3-.84-5.39-2.73-7s-3.08-2.1-7.21-2.66l-5.81-.91A17,17,0,0,1,5,23.08a11.36,11.36,0,0,1-3.92-9.17C1.05,5.51,6.93.26,16.52.26A19.7,19.7,0,0,1,30.87,5.65L28.42,8.1c-2.94-2.8-6.23-4.62-12.11-4.62C9,3.48,4.76,7.4,4.76,13.77c0,2.87.84,5,2.59,6.51a16.65,16.65,0,0,0,7.42,3.08l5.39.84c4.69.63,6.86,1.54,8.89,3.29a12.25,12.25,0,0,1,4.34,9.66C33.39,45.62,27,50.94,16.59,50.94Z"/><path class="cls-1" d="M42.8,41.7V19.44H38.18V16.78H42.8V6h3.57V16.78H54v2.66H46.37V41.77c0,3.57,1.61,5.6,5.18,5.6H54v3.15H50.92C45.6,50.52,42.8,46.81,42.8,41.7Z"/><path class="cls-1" d="M70,63.61a9.18,9.18,0,0,1-6.37,2.17H61.93V62.63h1.33c3.85,0,5-1.26,6.16-4.62l2.73-7.49L59.83,16.78h3.92L73.9,46.32,84.05,16.78H88L72.29,59.69A8.93,8.93,0,0,1,70,63.61Z"/><path class="cls-1" d="M95.07,41.77V.68h3.57v41c0,3.85,1.19,5.67,5.18,5.67h2.45v3.15h-3.08C97.66,50.52,95.07,47.09,95.07,41.77Z"/><path class="cls-1" d="M125.68,47.72c4,0,6.44-1.19,9.31-4.06l2.66,2.1c-3.43,3.43-6.58,5.18-12.18,5.18-9.31,0-14.35-6-14.35-17.29,0-10.92,5-17.29,13.51-17.29s13.51,6.09,13.51,16.45v1.61H114.69C114.69,43,118.47,47.72,125.68,47.72Zm7.7-22.54a9.59,9.59,0,0,0-17.5,0,18.41,18.41,0,0,0-1.19,6.37h19.88C134.37,28.33,134.3,27.21,133.39,25.18Z"/><path class="cls-1" d="M231.45,51c-7.77,0-13.65-4-14.21-12.6h3.57c.56,6.79,5.39,9.45,10.64,9.45,6,0,10.57-4,10.57-10.64s-3.22-10.64-10.85-10.64h-.84V23.43h.84c6.72,0,9.87-3.57,9.87-10s-4.27-10.08-9.66-10.08c-5.88,0-9.31,3.5-9.94,9.1h-3.57C218.64,4.6,224.1.19,231.38.19c7.84,0,13.23,5.18,13.23,13.23,0,5.32-2,9.17-7.07,11.34,5.6,1.89,8.05,6.09,8.05,12.46C245.59,46.11,239.5,51,231.45,51Z"/><line class="cls-2" x1="205.06" y1="0.31" x2="67.29" y2="138.07"/></g></g></svg>