<svg xmlns="http://www.w3.org/2000/svg" viewBox="0 0 409.55 30.03"><title>businessflow-index</title><g id="レイヤー_2" data-name="レイヤー 2"><g id="design"><path d="M5.92.21c4.31,0,5.71,2.16,5.71,6.13v1.9c0,3.3-.89,5.29-4.23,5.79,3.51.51,4.82,2.92,4.82,6.34V23c0,4.19-1.78,6.81-6.26,6.81H0V.21ZM4.78,13.66c4.1,0,5.92-1,5.92-5.29v-2c0-3.47-1.06-5.29-4.78-5.29h-5V13.66ZM6,28.93c3.89,0,5.33-2.2,5.33-5.92V20.35c0-4.27-2-5.84-6.09-5.84H.93V28.93Z"/><path d="M35,22.55c0,3.55,1.27,6.64,5.2,6.64s5.2-3.09,5.2-6.64V.21h.89V22.5c0,4.06-1.61,7.53-6.09,7.53s-6.13-3.47-6.13-7.53V.21H35Z"/><path d="M80.52,7.36v.55h-.93V7.32c0-3.51-1.31-6.47-5.16-6.47s-5.2,2.92-5.2,6.43c0,7.57,11.34,7.36,11.34,15.4,0,4.1-1.69,7.36-6.22,7.36s-6.18-3.26-6.18-7.36V21.23h.89v1.48c0,3.6,1.4,6.43,5.29,6.43s5.29-2.83,5.29-6.43c0-7.49-11.34-7.23-11.34-15.4C68.3,3,70.12,0,74.39,0,78.88,0,80.52,3.3,80.52,7.36Z"/><path d="M103.4.21V29.82h-.93V.21Z"/><path d="M126.28,29.82h-.89V.21h1.31l10.41,27.71V.21H138V29.82h-1.14L126.28,1.57Z"/><path d="M169.63,14.38v.85h-8.71v13.7h10.36v.89H160V.21h11.29V1.1H160.92V14.38Z"/><path d="M205.45,7.36v.55h-.93V7.32c0-3.51-1.31-6.47-5.16-6.47s-5.2,2.92-5.2,6.43c0,7.57,11.33,7.36,11.33,15.4,0,4.1-1.69,7.36-6.22,7.36s-6.18-3.26-6.18-7.36V21.23H194v1.48c0,3.6,1.4,6.43,5.29,6.43s5.29-2.83,5.29-6.43c0-7.49-11.34-7.23-11.34-15.4C193.23,3,195,0,199.32,0,203.8,0,205.45,3.3,205.45,7.36Z"/><path d="M239.66,7.36v.55h-.93V7.32c0-3.51-1.31-6.47-5.16-6.47s-5.2,2.92-5.2,6.43c0,7.57,11.33,7.36,11.33,15.4,0,4.1-1.69,7.36-6.22,7.36s-6.18-3.26-6.18-7.36V21.23h.89v1.48c0,3.6,1.4,6.43,5.29,6.43s5.29-2.83,5.29-6.43c0-7.49-11.34-7.23-11.34-15.4C227.44,3,229.26,0,233.53,0,238,0,239.66,3.3,239.66,7.36Z"/><path d="M296,15.1V16h-8.29V29.82h-.93V.21h10.87V1.1h-9.94v14Z"/><path d="M319.47,29.82V.21h.93V28.93h9.94v.89Z"/><path d="M352.11,7.49c0-4.91,2.16-7.49,6.26-7.49s6.35,2.58,6.35,7.49V22.55c0,4.91-2.16,7.49-6.35,7.49s-6.26-2.58-6.26-7.49Zm.93,15.1c0,4.36,1.82,6.6,5.33,6.6s5.41-2.24,5.41-6.6V7.44c0-4.36-1.86-6.6-5.41-6.6S353,3.09,353,7.44Z"/><path d="M393.22,29.82h-1.35L386.54.21h.93l5.16,28.34L397.75.38h1.14l4.82,28,5-28.17h.85L404.3,29.82h-1.23L398.3,2.41Z"/></g></g></svg>