<svg xmlns="http://www.w3.org/2000/svg" viewBox="0 0 441.28 55.27"><defs><style>.cls-1{fill:#fff;}</style></defs><title>business-index_1</title><g id="レイヤー_2" data-name="レイヤー 2"><g id="design"><path class="cls-1" d="M10.9.39c7.94,0,10.51,4,10.51,11.29v3.5c0,6.07-1.63,9.73-7.78,10.67,6.46.93,8.87,5.37,8.87,11.68v4.83c0,7.71-3.27,12.53-11.52,12.53H0V.39ZM8.8,25.15c7.55,0,10.9-1.79,10.9-9.73V11.76C19.7,5.37,17.75,2,10.9,2H1.71V25.15ZM11,53.25c7.16,0,9.81-4,9.81-10.9v-4.9C20.79,29.58,17,26.7,9.58,26.7H1.71V53.25Z"/><path class="cls-1" d="M64.46,41.49C64.46,48,66.8,53.72,74,53.72S83.62,48,83.62,41.49V.39h1.63v41c0,7.47-3,13.86-11.21,13.86S62.75,48.89,62.75,41.42V.39h1.71Z"/><path class="cls-1" d="M148.23,13.55v1h-1.71V13.47c0-6.46-2.41-11.91-9.5-11.91s-9.58,5.37-9.58,11.83c0,13.93,20.86,13.55,20.86,28.34,0,7.55-3.11,13.55-11.44,13.55s-11.37-6-11.37-13.55V39.08h1.63v2.72c0,6.62,2.57,11.83,9.73,11.83s9.73-5.22,9.73-11.83c0-13.78-20.86-13.31-20.86-28.34,0-7.94,3.35-13.39,11.21-13.47C145.2,0,148.23,6.07,148.23,13.55Z"/><path class="cls-1" d="M190.36.39v54.5h-1.71V.39Z"/><path class="cls-1" d="M232.47,54.88h-1.63V.39h2.41l19.15,51V.39H254v54.5h-2.1l-19.46-52Z"/><path class="cls-1" d="M312.27,26.47V28h-16V53.25h19.07v1.63H294.52V.39h20.79V2H296.24V26.47Z"/><path class="cls-1" d="M378.22,13.55v1H376.5V13.47c0-6.46-2.41-11.91-9.5-11.91s-9.58,5.37-9.58,11.83c0,13.93,20.86,13.55,20.86,28.34,0,7.55-3.11,13.55-11.44,13.55s-11.37-6-11.37-13.55V39.08h1.63v2.72c0,6.62,2.57,11.83,9.73,11.83s9.73-5.22,9.73-11.83c0-13.78-20.86-13.31-20.86-28.34,0-7.94,3.35-13.39,11.21-13.47C375.18,0,378.22,6.07,378.22,13.55Z"/><path class="cls-1" d="M441.2,13.55v1h-1.71V13.47c0-6.46-2.41-11.91-9.5-11.91s-9.58,5.37-9.58,11.83c0,13.93,20.86,13.55,20.86,28.34,0,7.55-3.11,13.55-11.44,13.55s-11.37-6-11.37-13.55V39.08h1.63v2.72c0,6.62,2.57,11.83,9.73,11.83s9.73-5.22,9.73-11.83c0-13.78-20.86-13.31-20.86-28.34C418.7,5.53,422,.08,429.91,0,438.17,0,441.2,6.07,441.2,13.55Z"/></g></g></svg>