<svg xmlns="http://www.w3.org/2000/svg" viewBox="0 0 228.84 30.03"><title>company-index</title><g id="レイヤー_2" data-name="レイヤー 2"><g id="design"><path d="M12.39,7.49V9.77h-.93V7.45c0-3.6-1.35-6.6-5.25-6.6S.93,3.85.93,7.45V22.59c0,3.59,1.35,6.56,5.29,6.56s5.25-3,5.25-6.56V19.33h.93v3.21c0,4.1-1.69,7.49-6.22,7.49S0,26.65,0,22.54V7.49C0,3.38,1.69,0,6.18,0S12.39,3.38,12.39,7.49Z"/><path d="M34.26,7.49C34.26,2.58,36.41,0,40.52,0s6.34,2.58,6.34,7.49V22.54c0,4.91-2.16,7.49-6.34,7.49s-6.26-2.58-6.26-7.49Zm.93,15.1c0,4.36,1.82,6.6,5.33,6.6s5.41-2.24,5.41-6.6V7.45c0-4.36-1.86-6.6-5.41-6.6s-5.33,2.24-5.33,6.6Z"/><path d="M78,29.74H77L69.65,1.61V29.82h-.85V.21h1.44L77.52,28.3,84.8.21h1.44V29.82H85.3V1.61Z"/><path d="M114.06.21c4.57,0,6.13,3,6.13,7.15v3c0,4.69-2.12,6.94-6.81,6.94h-4.23V29.82h-.93V.21Zm-.68,16.16c4.14,0,5.88-1.82,5.88-6v-3c0-3.64-1.23-6.22-5.2-6.22h-4.91V16.37Z"/><path d="M144.51,22.84l-1.73,7h-.85L149.08.17h1.31l7.32,29.65h-.93l-1.73-7Zm.17-.85h10.19L149.71,1.27Z"/><path d="M180.46,29.82h-.89V.21h1.31l10.41,27.71V.21h.89V29.82H191L180.46,1.57Z"/><path d="M220.89,17.85,214,.21h.93l6.47,16.37L227.87.21h1l-7,17.64v12h-.93Z"/></g></g></svg>