<svg xmlns="http://www.w3.org/2000/svg" viewBox="0 0 671.54 30.03"><title>humanresource-index</title><g id="レイヤー_2" data-name="レイヤー 2"><g id="design"><path d="M.93,15.44V29.82H0V.21H.93V14.59h10.7V.21h.93v29.6h-.93V15.44Z"/><path d="M29.52,22.54a12,12,0,0,0,.25,2.54,6.13,6.13,0,0,0,.87,2.11,4.32,4.32,0,0,0,1.61,1.46,5.22,5.22,0,0,0,2.47.53,5.23,5.23,0,0,0,2.47-.53,4.33,4.33,0,0,0,1.61-1.46,6.13,6.13,0,0,0,.87-2.11,12.1,12.1,0,0,0,.25-2.54V.21h.89V22.5a12.87,12.87,0,0,1-.32,2.9,6.72,6.72,0,0,1-1,2.39,5.3,5.3,0,0,1-1.88,1.63,6.06,6.06,0,0,1-2.86.61,6.06,6.06,0,0,1-2.85-.61A5.48,5.48,0,0,1,30,27.79a6.48,6.48,0,0,1-1.06-2.39,12.81,12.81,0,0,1-.32-2.9V.21h.93Z"/><path d="M66.06,29.73H65L57.68,1.61V29.82h-.85V.21h1.44l7.27,28.08L72.83.21h1.44v29.6h-.93V1.61Z"/><path d="M92.79,22.84l-1.73,7h-.85L97.35.17h1.31L106,29.82h-.93l-1.73-7ZM93,22h10.19L98,1.27Z"/><path d="M122.81,29.82h-.89V.21h1.31l10.4,27.7V.21h.89v29.6h-1.14L122.81,1.57Z"/><path d="M175.72.21q3.3,0,4.69,1.8a7.69,7.69,0,0,1,1.4,4.84V9.52a7,7,0,0,1-1.12,4.25,5.53,5.53,0,0,1-3.57,2,5.12,5.12,0,0,1,3.59,1.92,6.74,6.74,0,0,1,1.1,4v4.65a12,12,0,0,0,.15,1.82,3.88,3.88,0,0,0,.66,1.69h-1a4,4,0,0,1-.59-1.63,13.53,13.53,0,0,1-.13-1.88V21.65a6.78,6.78,0,0,0-.46-2.71,3.94,3.94,0,0,0-1.33-1.67,5.52,5.52,0,0,0-2.05-.87,12.49,12.49,0,0,0-2.62-.25h-3.64V29.82h-.93V.21Zm-1.31,15.05a14.38,14.38,0,0,0,2.73-.23,4.73,4.73,0,0,0,2-.87,4,4,0,0,0,1.27-1.71,7.47,7.47,0,0,0,.44-2.81V6.94a7,7,0,0,0-1.16-4.27q-1.16-1.56-4-1.57h-4.91V15.27Z"/><path d="M208.24,14.38v.85h-8.71v13.7h10.36v.89H198.6V.21h11.29V1.1H199.53V14.38Z"/><path d="M232,0a6.44,6.44,0,0,1,2.85.57,4.92,4.92,0,0,1,1.88,1.59A7,7,0,0,1,237.8,4.5a11.61,11.61,0,0,1,.34,2.85v.55h-.93V7.32a11,11,0,0,0-.27-2.5,6.26,6.26,0,0,0-.87-2.07,4.13,4.13,0,0,0-1.59-1.4A5.3,5.3,0,0,0,232,.85a5.4,5.4,0,0,0-2.47.51A4.12,4.12,0,0,0,228,2.75a6.22,6.22,0,0,0-.87,2.05,10.72,10.72,0,0,0-.28,2.47,5.81,5.81,0,0,0,.85,3.21,10.28,10.28,0,0,0,2.09,2.35,23.3,23.3,0,0,0,2.73,1.95,21,21,0,0,1,2.73,2,10.19,10.19,0,0,1,2.09,2.5,6.53,6.53,0,0,1,.85,3.4,11.83,11.83,0,0,1-.34,2.88,6.55,6.55,0,0,1-1.08,2.35,5.15,5.15,0,0,1-1.92,1.56A6.57,6.57,0,0,1,232,30a6.43,6.43,0,0,1-2.85-.57,5.18,5.18,0,0,1-1.9-1.56,6.54,6.54,0,0,1-1.08-2.35,11.83,11.83,0,0,1-.34-2.88V21.23h.89v1.48a10.86,10.86,0,0,0,.28,2.52,5.55,5.55,0,0,0,.91,2,4.54,4.54,0,0,0,1.63,1.38,6.24,6.24,0,0,0,4.93,0,4.5,4.5,0,0,0,1.65-1.37,5.56,5.56,0,0,0,.91-2,10.91,10.91,0,0,0,.28-2.52,5.73,5.73,0,0,0-.85-3.17,10.37,10.37,0,0,0-2.09-2.35,22,22,0,0,0-2.73-1.92,18.49,18.49,0,0,1-2.73-2,10.49,10.49,0,0,1-2.09-2.52,6.6,6.6,0,0,1-.85-3.45,8.84,8.84,0,0,1,1.44-5.26A5.42,5.42,0,0,1,232,0Z"/><path d="M254.13,7.49a12,12,0,0,1,.34-2.92,6.55,6.55,0,0,1,1.1-2.37A5.42,5.42,0,0,1,257.51.59,6.38,6.38,0,0,1,260.38,0a6.52,6.52,0,0,1,2.9.59,5.36,5.36,0,0,1,2,1.61,6.82,6.82,0,0,1,1.12,2.37,11.35,11.35,0,0,1,.36,2.92V22.54a11.35,11.35,0,0,1-.36,2.92,6.81,6.81,0,0,1-1.12,2.37,5.35,5.35,0,0,1-2,1.61,6.52,6.52,0,0,1-2.9.59,6.38,6.38,0,0,1-2.88-.59,5.41,5.41,0,0,1-1.95-1.61,6.54,6.54,0,0,1-1.1-2.37,12,12,0,0,1-.34-2.92Zm.93,15.1a11.45,11.45,0,0,0,.27,2.56,5.76,5.76,0,0,0,.91,2.09,4.61,4.61,0,0,0,1.65,1.42,5.35,5.35,0,0,0,2.5.53,5.49,5.49,0,0,0,2.52-.53,4.57,4.57,0,0,0,1.67-1.42,6,6,0,0,0,.93-2.09,10.69,10.69,0,0,0,.3-2.56V7.44a10.71,10.71,0,0,0-.3-2.56,6,6,0,0,0-.93-2.09,4.57,4.57,0,0,0-1.67-1.42,5.5,5.5,0,0,0-2.52-.53,5.36,5.36,0,0,0-2.5.53,4.61,4.61,0,0,0-1.65,1.42,5.76,5.76,0,0,0-.91,2.09,11.47,11.47,0,0,0-.27,2.56Z"/><path d="M283.64,22.54a12,12,0,0,0,.25,2.54,6.13,6.13,0,0,0,.87,2.11,4.32,4.32,0,0,0,1.61,1.46,6.06,6.06,0,0,0,4.95,0,4.33,4.33,0,0,0,1.61-1.46,6.13,6.13,0,0,0,.87-2.11,12.1,12.1,0,0,0,.25-2.54V.21h.89V22.5a12.87,12.87,0,0,1-.32,2.9,6.72,6.72,0,0,1-1,2.39,5.3,5.3,0,0,1-1.88,1.63,7,7,0,0,1-5.71,0,5.48,5.48,0,0,1-1.9-1.63A6.48,6.48,0,0,1,283,25.4a12.81,12.81,0,0,1-.32-2.9V.21h.93Z"/><path d="M316.84.21q3.3,0,4.69,1.8a7.69,7.69,0,0,1,1.4,4.84V9.52a7,7,0,0,1-1.12,4.25,5.53,5.53,0,0,1-3.57,2,5.12,5.12,0,0,1,3.59,1.92,6.74,6.74,0,0,1,1.1,4v4.65a12,12,0,0,0,.15,1.82,3.88,3.88,0,0,0,.66,1.69h-1a4,4,0,0,1-.59-1.63,13.53,13.53,0,0,1-.13-1.88V21.65a6.78,6.78,0,0,0-.46-2.71,3.94,3.94,0,0,0-1.33-1.67,5.52,5.52,0,0,0-2.05-.87,12.49,12.49,0,0,0-2.62-.25h-3.64V29.82H311V.21Zm-1.31,15.05a14.38,14.38,0,0,0,2.73-.23,4.73,4.73,0,0,0,2-.87,4,4,0,0,0,1.27-1.71A7.47,7.47,0,0,0,322,9.64V6.94a7,7,0,0,0-1.16-4.27q-1.16-1.56-4-1.57h-4.91V15.27Z"/><path d="M345.85,0a6.38,6.38,0,0,1,2.88.59,5.24,5.24,0,0,1,1.92,1.61,6.75,6.75,0,0,1,1.08,2.39,12.08,12.08,0,0,1,.34,2.9V9.77h-.93V7.44a11.47,11.47,0,0,0-.28-2.56A6,6,0,0,0,350,2.79a4.43,4.43,0,0,0-1.63-1.42A5.27,5.27,0,0,0,345.9.85a5.36,5.36,0,0,0-2.5.53,4.42,4.42,0,0,0-1.63,1.42,6,6,0,0,0-.89,2.09,11.47,11.47,0,0,0-.27,2.56V22.58a11.18,11.18,0,0,0,.27,2.54,6,6,0,0,0,.89,2.07,4.41,4.41,0,0,0,1.63,1.42,5.35,5.35,0,0,0,2.5.53,5.25,5.25,0,0,0,2.45-.53A4.42,4.42,0,0,0,350,27.19a6,6,0,0,0,.89-2.07,11.18,11.18,0,0,0,.28-2.54V19.33h.93v3.21a12.08,12.08,0,0,1-.34,2.9,6.74,6.74,0,0,1-1.08,2.39,5.23,5.23,0,0,1-1.92,1.61,6.38,6.38,0,0,1-2.87.59,6.25,6.25,0,0,1-2.86-.59,5.25,5.25,0,0,1-1.9-1.61A6.72,6.72,0,0,1,340,25.44a12.08,12.08,0,0,1-.34-2.9V7.49a12.08,12.08,0,0,1,.34-2.9A6.73,6.73,0,0,1,341.1,2.2,5.26,5.26,0,0,1,343,.59,6.25,6.25,0,0,1,345.85,0Z"/><path d="M377.7,14.38v.85H369v13.7h10.36v.89H368.06V.21h11.29V1.1H369V14.38Z"/><path d="M420.41.21a7,7,0,0,1,2.88.53,4.78,4.78,0,0,1,1.9,1.48,6.07,6.07,0,0,1,1,2.26,12.19,12.19,0,0,1,.32,2.88v3q0,3.55-1.63,5.24t-5.18,1.69h-4.23V29.82h-.93V.21Zm-.68,16.15q3.13,0,4.5-1.42t1.37-4.59v-3a11.46,11.46,0,0,0-.25-2.5,5.11,5.11,0,0,0-.87-2,4.18,4.18,0,0,0-1.61-1.29,5.82,5.82,0,0,0-2.47-.47h-4.91V16.37Z"/><path d="M443.42,15.44V29.82h-.93V.21h.93V14.59h10.7V.21H455v29.6h-.93V15.44Z"/><path d="M472,.21v29.6h-.93V.21Z"/><path d="M488.12,29.82V.21H489V28.93H499v.89Z"/><path d="M514.85,7.49a12,12,0,0,1,.34-2.92,6.55,6.55,0,0,1,1.1-2.37A5.42,5.42,0,0,1,518.23.59,6.38,6.38,0,0,1,521.11,0a6.52,6.52,0,0,1,2.9.59,5.36,5.36,0,0,1,2,1.61,6.82,6.82,0,0,1,1.12,2.37,11.35,11.35,0,0,1,.36,2.92V22.54a11.35,11.35,0,0,1-.36,2.92A6.81,6.81,0,0,1,526,27.83a5.35,5.35,0,0,1-2,1.61,6.52,6.52,0,0,1-2.9.59,6.38,6.38,0,0,1-2.88-.59,5.41,5.41,0,0,1-1.95-1.61,6.54,6.54,0,0,1-1.1-2.37,12,12,0,0,1-.34-2.92Zm.93,15.1a11.45,11.45,0,0,0,.27,2.56,5.76,5.76,0,0,0,.91,2.09,4.61,4.61,0,0,0,1.65,1.42,5.35,5.35,0,0,0,2.5.53,5.49,5.49,0,0,0,2.52-.53,4.57,4.57,0,0,0,1.67-1.42,6,6,0,0,0,.93-2.09,10.69,10.69,0,0,0,.3-2.56V7.44a10.71,10.71,0,0,0-.3-2.56,6,6,0,0,0-.93-2.09,4.57,4.57,0,0,0-1.67-1.42,5.5,5.5,0,0,0-2.52-.53,5.36,5.36,0,0,0-2.5.53A4.61,4.61,0,0,0,517,2.79a5.76,5.76,0,0,0-.91,2.09,11.47,11.47,0,0,0-.27,2.56Z"/><path d="M549.61,0a6.44,6.44,0,0,1,2.85.57,4.92,4.92,0,0,1,1.88,1.59,7,7,0,0,1,1.06,2.35,11.61,11.61,0,0,1,.34,2.85v.55h-.93V7.32a11,11,0,0,0-.27-2.5,6.26,6.26,0,0,0-.87-2.07,4.13,4.13,0,0,0-1.59-1.4,5.3,5.3,0,0,0-2.43-.51,5.4,5.4,0,0,0-2.47.51,4.12,4.12,0,0,0-1.59,1.4,6.22,6.22,0,0,0-.87,2.05,10.72,10.72,0,0,0-.28,2.47,5.81,5.81,0,0,0,.85,3.21,10.28,10.28,0,0,0,2.09,2.35,23.3,23.3,0,0,0,2.73,1.95,21,21,0,0,1,2.73,2,10.19,10.19,0,0,1,2.09,2.5,6.53,6.53,0,0,1,.85,3.4,11.83,11.83,0,0,1-.34,2.88,6.55,6.55,0,0,1-1.08,2.35,5.15,5.15,0,0,1-1.92,1.56,6.57,6.57,0,0,1-2.88.57,6.43,6.43,0,0,1-2.85-.57,5.18,5.18,0,0,1-1.9-1.56,6.54,6.54,0,0,1-1.08-2.35,11.83,11.83,0,0,1-.34-2.88V21.23h.89v1.48a10.86,10.86,0,0,0,.28,2.52,5.55,5.55,0,0,0,.91,2,4.54,4.54,0,0,0,1.63,1.38,6.24,6.24,0,0,0,4.93,0,4.5,4.5,0,0,0,1.65-1.37,5.56,5.56,0,0,0,.91-2,10.91,10.91,0,0,0,.28-2.52,5.73,5.73,0,0,0-.85-3.17,10.37,10.37,0,0,0-2.09-2.35,22,22,0,0,0-2.73-1.92,18.49,18.49,0,0,1-2.73-2,10.49,10.49,0,0,1-2.09-2.52,6.6,6.6,0,0,1-.85-3.45A8.84,8.84,0,0,1,545,2.05,5.42,5.42,0,0,1,549.61,0Z"/><path d="M571.73,7.49a12,12,0,0,1,.34-2.92,6.55,6.55,0,0,1,1.1-2.37A5.42,5.42,0,0,1,575.11.59,6.38,6.38,0,0,1,578,0a6.52,6.52,0,0,1,2.9.59,5.36,5.36,0,0,1,2,1.61A6.82,6.82,0,0,1,584,4.57a11.35,11.35,0,0,1,.36,2.92V22.54a11.35,11.35,0,0,1-.36,2.92,6.81,6.81,0,0,1-1.12,2.37,5.35,5.35,0,0,1-2,1.61A6.52,6.52,0,0,1,578,30a6.38,6.38,0,0,1-2.88-.59,5.41,5.41,0,0,1-1.95-1.61,6.54,6.54,0,0,1-1.1-2.37,12,12,0,0,1-.34-2.92Zm.93,15.1a11.45,11.45,0,0,0,.27,2.56,5.76,5.76,0,0,0,.91,2.09,4.61,4.61,0,0,0,1.65,1.42,5.35,5.35,0,0,0,2.5.53,5.49,5.49,0,0,0,2.52-.53,4.57,4.57,0,0,0,1.67-1.42,6,6,0,0,0,.93-2.09,10.69,10.69,0,0,0,.3-2.56V7.44a10.71,10.71,0,0,0-.3-2.56,6,6,0,0,0-.93-2.09,4.57,4.57,0,0,0-1.67-1.42A5.5,5.5,0,0,0,578,.85a5.36,5.36,0,0,0-2.5.53,4.61,4.61,0,0,0-1.65,1.42,5.76,5.76,0,0,0-.91,2.09,11.47,11.47,0,0,0-.27,2.56Z"/><path d="M606.2.21a7,7,0,0,1,2.88.53A4.78,4.78,0,0,1,611,2.22a6.07,6.07,0,0,1,1,2.26,12.19,12.19,0,0,1,.32,2.88v3q0,3.55-1.63,5.24t-5.18,1.69h-4.23V29.82h-.93V.21Zm-.68,16.15q3.13,0,4.5-1.42t1.37-4.59v-3a11.46,11.46,0,0,0-.25-2.5,5.11,5.11,0,0,0-.87-2,4.18,4.18,0,0,0-1.61-1.29,5.82,5.82,0,0,0-2.47-.47h-4.91V16.37Z"/><path d="M629.16,15.44V29.82h-.93V.21h.93V14.59h10.7V.21h.93v29.6h-.93V15.44Z"/><path d="M663.58,17.85,656.69.21h.93l6.47,16.37L670.56.21h1l-7,17.63v12h-.93Z"/></g></g></svg>