<svg xmlns="http://www.w3.org/2000/svg" viewBox="0 0 200.8 30.03"><title>mission-index</title><g id="レイヤー_2" data-name="レイヤー 2"><g id="design"><path d="M9.22,29.74H8.16L.85,1.61V29.82H0V.21H1.44L8.71,28.3,16,.21h1.44V29.82H16.5V1.61Z"/><path d="M40.35.21V29.82h-.93V.21Z"/><path d="M74.6,7.36v.55h-.93V7.32c0-3.51-1.31-6.47-5.16-6.47s-5.2,2.92-5.2,6.43c0,7.57,11.34,7.36,11.34,15.4,0,4.1-1.69,7.36-6.22,7.36s-6.17-3.26-6.17-7.36V21.23h.89v1.48c0,3.59,1.4,6.43,5.29,6.43s5.29-2.83,5.29-6.43c0-7.49-11.34-7.23-11.34-15.4C62.38,3,64.2,0,68.47,0,73,0,74.6,3.3,74.6,7.36Z"/><path d="M108.82,7.36v.55h-.93V7.32c0-3.51-1.31-6.47-5.16-6.47s-5.2,2.92-5.2,6.43c0,7.57,11.33,7.36,11.33,15.4,0,4.1-1.69,7.36-6.22,7.36s-6.18-3.26-6.18-7.36V21.23h.89v1.48c0,3.59,1.4,6.43,5.29,6.43s5.29-2.83,5.29-6.43c0-7.49-11.34-7.23-11.34-15.4C96.59,3,98.41,0,102.68,0,107.17,0,108.82,3.3,108.82,7.36Z"/><path d="M131.69.21V29.82h-.93V.21Z"/><path d="M153.64,7.49c0-4.91,2.16-7.49,6.26-7.49s6.34,2.58,6.34,7.49V22.54c0,4.91-2.16,7.49-6.34,7.49s-6.26-2.58-6.26-7.49Zm.93,15.1c0,4.36,1.82,6.6,5.33,6.6s5.41-2.24,5.41-6.6V7.45c0-4.36-1.86-6.6-5.41-6.6s-5.33,2.24-5.33,6.6Z"/><path d="M189.08,29.82h-.89V.21h1.31l10.41,27.71V.21h.89V29.82h-1.14L189.08,1.57Z"/></g></g></svg>