<svg xmlns="http://www.w3.org/2000/svg" viewBox="0 0 33.71 79.48"><defs><style>.cls-1{fill:#fff;}</style></defs><title>mission-num-3</title><g id="レイヤー_2" data-name="レイヤー 2"><g id="design"><path class="cls-1" d="M33.71,19.76v1.9c0,7.7-3.68,13.84-10.38,16.19C30.36,40,33.71,46,33.71,53.7v6c0,11.39-4.91,19.76-16.86,19.76S0,71.11,0,59.72V55.26H4.91v4.69c0,8.48,3.24,14.85,11.83,14.85s11.83-6.25,11.83-15.18v-6c0-8.15-4-12.84-11.61-13.17H11.72V35.72h5.47c7-.45,11.39-5.58,11.39-13.06V19.87c0-8.93-3.24-15.18-11.83-15.18S4.91,10.94,4.91,19.42v3.13H0V19.76C0,8.37,4.91,0,16.86,0S33.71,8.37,33.71,19.76Z"/></g></g></svg>