<svg xmlns="http://www.w3.org/2000/svg" viewBox="0 0 310.29 30.03"><title>philosophy</title><g id="レイヤー_2" data-name="レイヤー 2"><g id="design"><path d="M5.84.21A7,7,0,0,1,8.71.74a4.78,4.78,0,0,1,1.9,1.48,6.06,6.06,0,0,1,1,2.26A12.21,12.21,0,0,1,12,7.36v3q0,3.55-1.63,5.24T5.16,17.25H.93V29.82H0V.21ZM5.16,16.37q3.13,0,4.5-1.42T11,10.36v-3a11.46,11.46,0,0,0-.25-2.5,5.11,5.11,0,0,0-.87-2A4.17,4.17,0,0,0,8.31,1.56,5.83,5.83,0,0,0,5.84,1.1H.93V16.37Z"/><path d="M34.76,15.44V29.82h-.93V.21h.93V14.59h10.7V.21h.93v29.6h-.93V15.44Z"/><path d="M69.32.21v29.6h-.93V.21Z"/><path d="M91.31,29.82V.21h.93V28.93h9.94v.89Z"/><path d="M124,7.49a8.52,8.52,0,0,1,1.59-5.6A5.77,5.77,0,0,1,130.21,0,5.87,5.87,0,0,1,135,1.88a8.52,8.52,0,0,1,1.59,5.6V22.54a8.51,8.51,0,0,1-1.59,5.6A5.87,5.87,0,0,1,130.21,30a5.77,5.77,0,0,1-4.67-1.88,8.51,8.51,0,0,1-1.59-5.6Zm.93,15.1q0,6.6,5.33,6.6t5.41-6.6V7.44q0-6.6-5.41-6.6t-5.33,6.6Z"/><path d="M164.64,0a6.45,6.45,0,0,1,2.85.57,4.92,4.92,0,0,1,1.88,1.59,7,7,0,0,1,1.06,2.35,11.61,11.61,0,0,1,.34,2.85v.55h-.93V7.32a11,11,0,0,0-.27-2.5,6.26,6.26,0,0,0-.87-2.07,4.12,4.12,0,0,0-1.59-1.4,5.3,5.3,0,0,0-2.43-.51,5.4,5.4,0,0,0-2.47.51,4.11,4.11,0,0,0-1.59,1.4,6.23,6.23,0,0,0-.87,2.05,10.71,10.71,0,0,0-.28,2.47,5.81,5.81,0,0,0,.85,3.21,10.29,10.29,0,0,0,2.09,2.35,23.36,23.36,0,0,0,2.73,1.95,20.92,20.92,0,0,1,2.73,2,10.19,10.19,0,0,1,2.09,2.5,6.53,6.53,0,0,1,.85,3.4,11.82,11.82,0,0,1-.34,2.88,6.55,6.55,0,0,1-1.08,2.35,5.14,5.14,0,0,1-1.92,1.56,6.58,6.58,0,0,1-2.88.57,6.44,6.44,0,0,1-2.85-.57,5.17,5.17,0,0,1-1.9-1.56,6.53,6.53,0,0,1-1.08-2.35,11.82,11.82,0,0,1-.34-2.88V21.23h.89v1.48a10.85,10.85,0,0,0,.28,2.52,5.55,5.55,0,0,0,.91,2,4.54,4.54,0,0,0,1.63,1.37,6.23,6.23,0,0,0,4.93,0,4.5,4.5,0,0,0,1.65-1.37,5.56,5.56,0,0,0,.91-2,10.91,10.91,0,0,0,.28-2.52,5.73,5.73,0,0,0-.85-3.17,10.36,10.36,0,0,0-2.09-2.35,22,22,0,0,0-2.73-1.92,18.45,18.45,0,0,1-2.73-2,10.49,10.49,0,0,1-2.09-2.52,6.6,6.6,0,0,1-.85-3.45A8.85,8.85,0,0,1,160,2.05,5.42,5.42,0,0,1,164.64,0Z"/><path d="M192.68,7.49a8.52,8.52,0,0,1,1.59-5.6A5.77,5.77,0,0,1,198.94,0a5.87,5.87,0,0,1,4.76,1.88,8.52,8.52,0,0,1,1.59,5.6V22.54a8.51,8.51,0,0,1-1.59,5.6A5.87,5.87,0,0,1,198.94,30a5.77,5.77,0,0,1-4.67-1.88,8.51,8.51,0,0,1-1.59-5.6Zm.93,15.1q0,6.6,5.33,6.6t5.41-6.6V7.44q0-6.6-5.41-6.6t-5.33,6.6Z"/><path d="M233.07.21a7,7,0,0,1,2.88.53,4.78,4.78,0,0,1,1.9,1.48,6.06,6.06,0,0,1,1,2.26,12.21,12.21,0,0,1,.32,2.88v3q0,3.55-1.63,5.24t-5.18,1.69h-4.23V29.82h-.93V.21Zm-.68,16.16q3.13,0,4.5-1.42t1.37-4.59v-3a11.46,11.46,0,0,0-.25-2.5,5.11,5.11,0,0,0-.87-2,4.17,4.17,0,0,0-1.61-1.29,5.83,5.83,0,0,0-2.47-.47h-4.91V16.37Z"/><path d="M262,15.44V29.82h-.93V.21H262V14.59h10.7V.21h.93v29.6h-.93V15.44Z"/><path d="M302.34,17.85,295.45.21h.93l6.47,16.37L309.32.21h1l-7,17.64v12h-.93Z"/></g></g></svg>