<svg xmlns="http://www.w3.org/2000/svg" viewBox="0 0 275.65 27.02"><title>webit-index</title><g id="レイヤー_2" data-name="レイヤー 2"><g id="design"><path d="M24.36,2.35h1.23l-6,21.46H18.44L12.82,4.61,7.18,23.8H6.06L0,2.35H1.26L6.71,22,12.24,2.74h1.17L19,22Z"/><path d="M42.8,23.16a12.15,12.15,0,0,0,5.08-1.06l.25,1a13.07,13.07,0,0,1-5.42,1.12c-4.08,0-7.43-2.23-7.43-8.1,0-5.14,2.65-8.77,7-8.77,3.69,0,6.12,2.15,6.12,7.35v.64H36.49c-.36,5.87,2.68,7.82,6.29,7.82ZM42.16,8.35c-3.07,0-5.17,2.37-5.62,6.06H47.3c-.08-4.16-1.79-6.06-5.11-6.06Z"/><path d="M60.68,23.8V1.31l1.17-.2v9.75a6.57,6.57,0,0,1,5.87-3.35c3.27,0,6,2.1,6,7.77,0,4.61-1.48,8.83-6.54,8.83a7.5,7.5,0,0,1-5.42-2.37l-.17,2.07Zm1.14-5a8.56,8.56,0,0,0,.11,1.76,6.58,6.58,0,0,0,5.2,2.54c3.72,0,5.45-2.74,5.45-7.74,0-3.86-1.48-6.79-5-6.79a6,6,0,0,0-5.64,3.72A10.68,10.68,0,0,0,61.83,14Z"/><path d="M84.68,27h-.95L93.82,2.35h.95Z"/><path d="M107.06,23.8h-1.2V2.35h1.2Z"/><path d="M124.91,23.8V3.44h-7.32V2.35h15.87V3.44h-7.35V23.8Z"/><path d="M155,7.12V1.37h1.17V7.12H166.6V1.37h1.17V7.12h5.45V8.21h-5.45v3.41c0,6.43-2.4,10.53-9,13.47l-.75-1c6.4-2.65,8.58-6.51,8.58-12.32V8.21H156.15v7.63H155V8.21h-5.39V7.12Z"/><path d="M207,12.63v1.2H184.51v-1.2Z"/><path d="M239.16,8.16a85.15,85.15,0,0,1-15.62,5.2v5.5c0,3,1.48,4.16,4.55,4.39,1,.08,3,.14,5.17.14a57.68,57.68,0,0,0,6.68-.31v1.2c-2,.14-4.61.2-7,.2-2,0-3.72,0-4.86-.08-3.6-.2-5.7-1.65-5.7-5.5V2.43h1.2v9.81a71.47,71.47,0,0,0,15-5.08Zm-1.87-6.54a23.34,23.34,0,0,1,3.24,4l-.7.48a20.6,20.6,0,0,0-3.16-3.94ZM240.08,0a21.34,21.34,0,0,1,3.24,4l-.7.47A19.53,19.53,0,0,0,239.46.5Z"/><path d="M275.65,24.31l-1,.7a71.3,71.3,0,0,0-9.05-9.08,35,35,0,0,1-11,9.05l-.75-.95c7.77-3.77,14.58-12.18,16.51-18.66H255.47V4.27H271l.81.48a33.29,33.29,0,0,1-5.56,10.31A81.39,81.39,0,0,1,275.65,24.31Z"/></g></g></svg>