<svg xmlns="http://www.w3.org/2000/svg" viewBox="0 0 336.96 55.28"><defs><style>.cls-1{fill:#fff;}</style></defs><title>person-index</title><g id="レイヤー_2" data-name="レイヤー 2"><g id="design"><path class="cls-1" d="M10.74.39a13,13,0,0,1,5.29,1,8.78,8.78,0,0,1,3.5,2.72,11.2,11.2,0,0,1,1.91,4.17A22.49,22.49,0,0,1,22,13.55V19q0,6.54-3,9.65T9.5,31.77H1.71V54.89H0V.39ZM9.5,30.13q5.76,0,8.29-2.61t2.53-8.45V13.47a21.19,21.19,0,0,0-.47-4.59,9.41,9.41,0,0,0-1.6-3.62,7.67,7.67,0,0,0-3-2.37A10.74,10.74,0,0,0,10.74,2h-9V30.13Z"/><path class="cls-1" d="M80,26.47V28H64V53.25H83.07v1.63H62.28V.39H83.07V2H64V26.47Z"/><path class="cls-1" d="M134.22.39q6.07,0,8.64,3.31t2.57,8.92v4.9q0,5.06-2.06,7.82T136.79,29q4.59.7,6.62,3.54a12.4,12.4,0,0,1,2,7.36v8.56a22.2,22.2,0,0,0,.27,3.35,7.18,7.18,0,0,0,1.21,3.11H145a7.3,7.3,0,0,1-1.09-3,25.1,25.1,0,0,1-.23-3.46V39.86a12.46,12.46,0,0,0-.86-5,7.25,7.25,0,0,0-2.45-3.08,10.14,10.14,0,0,0-3.78-1.6,23,23,0,0,0-4.83-.47h-6.7V54.89H123.4V.39Zm-2.41,27.72a26.58,26.58,0,0,0,5-.43,8.73,8.73,0,0,0,3.74-1.6,7.46,7.46,0,0,0,2.34-3.15,13.77,13.77,0,0,0,.82-5.18v-5a12.92,12.92,0,0,0-2.14-7.86Q139.44,2,134.14,2h-9V28.11Z"/><path class="cls-1" d="M198.53,0a11.86,11.86,0,0,1,5.25,1.05A9.06,9.06,0,0,1,207.25,4a12.91,12.91,0,0,1,1.95,4.32,21.3,21.3,0,0,1,.62,5.25v1h-1.71V13.47a20.31,20.31,0,0,0-.51-4.59A11.54,11.54,0,0,0,206,5.06a7.59,7.59,0,0,0-2.92-2.57,9.76,9.76,0,0,0-4.48-.94,10,10,0,0,0-4.55.94,7.57,7.57,0,0,0-2.92,2.57,11.49,11.49,0,0,0-1.6,3.78,19.74,19.74,0,0,0-.51,4.55,10.68,10.68,0,0,0,1.56,5.92,18.91,18.91,0,0,0,3.85,4.32,43,43,0,0,0,5,3.58,38.53,38.53,0,0,1,5,3.66,18.73,18.73,0,0,1,3.85,4.59,12,12,0,0,1,1.56,6.27,21.77,21.77,0,0,1-.62,5.29,12,12,0,0,1-2,4.32,9.44,9.44,0,0,1-3.54,2.88,12.11,12.11,0,0,1-5.29,1.05,11.84,11.84,0,0,1-5.25-1.05,9.5,9.5,0,0,1-3.5-2.88,12,12,0,0,1-2-4.32,21.72,21.72,0,0,1-.62-5.29V39.08h1.63v2.72a20.08,20.08,0,0,0,.51,4.63,10.21,10.21,0,0,0,1.67,3.74,8.36,8.36,0,0,0,3,2.53,11.48,11.48,0,0,0,9.07,0,8.29,8.29,0,0,0,3-2.53,10.25,10.25,0,0,0,1.67-3.74,20.14,20.14,0,0,0,.51-4.63A10.54,10.54,0,0,0,206.63,36a19,19,0,0,0-3.85-4.32,40.4,40.4,0,0,0-5-3.54,34,34,0,0,1-5-3.66,19.34,19.34,0,0,1-3.85-4.63,12.16,12.16,0,0,1-1.56-6.35q0-6,2.65-9.69T198.53,0Z"/><path class="cls-1" d="M250.15,13.78q0-6.85,2.92-10.32T261.67,0q5.84,0,8.76,3.46t2.92,10.32V41.5q0,6.85-2.92,10.32t-8.76,3.46q-5.69,0-8.6-3.46T250.15,41.5Zm1.71,27.79q0,12.15,9.81,12.15,10,0,10-12.15V13.7q0-12.15-10-12.15-9.81,0-9.81,12.15Z"/><path class="cls-1" d="M315.39,54.89h-1.63V.39h2.41l19.15,51V.39H337v54.5h-2.1l-19.46-52Z"/></g></g></svg>