<svg xmlns="http://www.w3.org/2000/svg" viewBox="0 0 176.48 74.11"><defs><style>.cls-1{fill:#fff;}</style></defs><title>wwn03</title><g id="レイヤー_2" data-name="レイヤー 2"><g id="design"><path class="cls-1" d="M0,1.22H2.28L4.51,11.67h0L7.32,1.22H8.88l2.75,10.45h0L13.92,1.22H16.2l-3.56,14.7H10.84L8.12,5.32h0L5.35,15.92H3.56Z"/><path class="cls-1" d="M28.76,9.5H23.11v6.42H21V1.22h2.16v6.3h5.65V1.22h2.16v14.7H28.76Z"/><path class="cls-1" d="M39.3,9.87,35,1.22H37.3l3,6.52,3-6.52h2.29L41.34,9.87v6h-2Z"/><path class="cls-1" d="M0,29.61H2.28L4.51,40.06h0L7.32,29.61H8.88l2.75,10.45h0l2.25-10.45H16.2l-3.56,14.7H10.84L8.12,33.71h0L5.35,44.31H3.56Z"/><path class="cls-1" d="M19.85,37A25.47,25.47,0,0,1,20,33.53a4.16,4.16,0,0,1,.48-1.4,5,5,0,0,1,1.66-1.81,4.8,4.8,0,0,1,2.8-.82,4.9,4.9,0,0,1,4.45,2.64,3.45,3.45,0,0,1,.5,1.4A29.11,29.11,0,0,1,30,37a29.18,29.18,0,0,1-.13,3.41,3.46,3.46,0,0,1-.5,1.42,4.74,4.74,0,0,1-1.62,1.79,5,5,0,0,1-2.83.85,5.12,5.12,0,0,1-4.46-2.64q-.16-.33-.28-.64a4.24,4.24,0,0,1-.2-.79A25.41,25.41,0,0,1,19.85,37ZM22,37a17.73,17.73,0,0,0,.16,2.94,2.49,2.49,0,0,0,.56,1.24,2.55,2.55,0,0,0,.9.74,2.47,2.47,0,0,0,1.31.33,2.6,2.6,0,0,0,1.34-.33,2.42,2.42,0,0,0,.86-.74,2.63,2.63,0,0,0,.58-1.24A18.93,18.93,0,0,0,27.86,37a19.36,19.36,0,0,0-.15-3,3.08,3.08,0,0,0-1.44-2,3.07,3.07,0,0,0-1.34-.31,2.92,2.92,0,0,0-1.31.31,2.74,2.74,0,0,0-.9.76A2.47,2.47,0,0,0,22.16,34,18.15,18.15,0,0,0,22,37Z"/><path class="cls-1" d="M35.41,29.61H41a4.3,4.3,0,0,1,2.91,1,4,4,0,0,1,1.41,3.14,4.09,4.09,0,0,1-2.75,4.07l3.3,6.52H43.28L40.33,38H37.57v6.28H35.41Zm2.16,6.44h3.27a2.27,2.27,0,0,0,2.42-2.35A2,2,0,0,0,42.55,32,2.43,2.43,0,0,0,41,31.59H37.57Z"/><path class="cls-1" d="M50.49,29.61h2.16v7.57h0l5.87-7.57h2.56l-4.57,5.8,5,8.9H59l-3.88-7.19-2.5,2.71v4.48H50.49Z"/><path class="cls-1" d="M1.28,58h2L9.77,68.45h0V58H12V72.7h-2L3.48,62.25h0V72.7H1.28Z"/><path class="cls-1" d="M17.41,65.35a25.44,25.44,0,0,1,.15-3.44,4.17,4.17,0,0,1,.48-1.4,5,5,0,0,1,1.66-1.81,4.8,4.8,0,0,1,2.8-.82A4.89,4.89,0,0,1,27,60.52a3.45,3.45,0,0,1,.5,1.4,29.34,29.34,0,0,1,.13,3.43,29.41,29.41,0,0,1-.13,3.41,3.48,3.48,0,0,1-.5,1.42A4.75,4.75,0,0,1,25.33,72a5,5,0,0,1-2.83.85A5.12,5.12,0,0,1,18,70.18q-.16-.33-.28-.64a4.2,4.2,0,0,1-.2-.79A25.38,25.38,0,0,1,17.41,65.35Zm2.16,0a17.8,17.8,0,0,0,.16,2.94,2.49,2.49,0,0,0,.56,1.24,2.54,2.54,0,0,0,.9.74,2.47,2.47,0,0,0,1.31.33,2.6,2.6,0,0,0,1.34-.33,2.41,2.41,0,0,0,.86-.74,2.63,2.63,0,0,0,.58-1.24,18.87,18.87,0,0,0,.15-2.94,19.29,19.29,0,0,0-.15-3,3.09,3.09,0,0,0-1.44-2,3.07,3.07,0,0,0-1.34-.31,2.92,2.92,0,0,0-1.31.31,2.74,2.74,0,0,0-.9.76,2.47,2.47,0,0,0-.56,1.22A18.23,18.23,0,0,0,19.57,65.35Z"/><path class="cls-1" d="M31.69,58H34l2.24,10.45h0L39,58h1.56l2.76,10.45h0L45.62,58H47.9L44.34,72.7H42.53L39.81,62.1h0L37,72.7h-1.8Z"/><path class="cls-1" d="M54.62,67.73a5.52,5.52,0,0,1,.09-1.07,2.75,2.75,0,0,1,.4-.91l1.72-2.57a2.51,2.51,0,0,0,.48-1.36,1.84,1.84,0,0,0-.55-1.36,1.79,1.79,0,0,0-2.45,0,2.29,2.29,0,0,0-.57,1.76h-2v-.41A3.83,3.83,0,0,1,52.87,59a3.66,3.66,0,0,1,2.63-1.13,3.91,3.91,0,0,1,2.68,1A4.15,4.15,0,0,1,58.74,64L57,66.6a2.21,2.21,0,0,0-.33,1.3v1.18h-2Zm0,2.88h2v2.1h-2Z"/><path class="cls-1" d="M100.43,74C88.9,74,79.51,66.15,79.51,53.18V20.93C79.51,8,88.9.1,100.43.1s21,7.86,21,20.82V53.18C121.46,66.15,112,74,100.43,74ZM111,21.23c0-7-4-11.84-10.62-11.84s-10.51,4.8-10.51,11.84V52.88c0,7,3.88,11.84,10.51,11.84S111,59.92,111,52.88Z"/><path class="cls-1" d="M154.23,74.11c-11.64,0-21.85-6.23-22.25-20.42h10.41c.41,7.76,5.82,11,11.84,11,6.74,0,11.84-4.39,11.84-12,0-7.35-4-11.94-12.15-11.94h-1.74V31.65h1.74c7.55,0,11-4.39,11-11,0-7.35-4.8-11.23-10.72-11.23-6.33,0-10.41,4-10.92,10.41H132.89C133.51,7.45,142.59,0,154.23,0c12.35,0,21.13,8.27,21.13,20.31,0,7.76-3.47,12.76-9.09,15.52C172.5,38.59,176.48,44,176.48,53,176.48,67,166.38,74.11,154.23,74.11Z"/></g></g></svg>