<svg xmlns="http://www.w3.org/2000/svg" viewBox="0 0 176.38 73.91"><defs><style>.cls-1{fill:#fff;}</style></defs><title>wwn02</title><g id="レイヤー_2" data-name="レイヤー 2"><g id="design"><path class="cls-1" d="M0,1.12H2.28L4.51,11.57h0L7.32,1.12H8.88l2.76,10.45h0L13.92,1.12H16.2l-3.56,14.7H10.84L8.12,5.22h0L5.35,15.82H3.56Z"/><path class="cls-1" d="M28.76,9.4H23.11v6.42H21V1.12h2.16v6.3h5.65V1.12h2.16v14.7H28.76Z"/><path class="cls-1" d="M39.3,9.77,35,1.12H37.3l3,6.52,3-6.52h2.29L41.34,9.77v6h-2Z"/><path class="cls-1" d="M0,29.51H2.28L4.51,40h0L7.32,29.51H8.88L11.64,40h0l2.25-10.45H16.2l-3.56,14.7H10.84L8.12,33.61h0L5.35,44.21H3.56Z"/><path class="cls-1" d="M19.85,36.86A25.44,25.44,0,0,1,20,33.42a4.17,4.17,0,0,1,.48-1.4,5,5,0,0,1,1.66-1.81,4.8,4.8,0,0,1,2.8-.82A4.89,4.89,0,0,1,29.39,32a3.45,3.45,0,0,1,.5,1.4A29.34,29.34,0,0,1,30,36.86a29.41,29.41,0,0,1-.13,3.41,3.48,3.48,0,0,1-.5,1.42,4.75,4.75,0,0,1-1.62,1.79,5,5,0,0,1-2.83.85,5.12,5.12,0,0,1-4.46-2.64q-.16-.33-.28-.64a4.2,4.2,0,0,1-.2-.79A25.38,25.38,0,0,1,19.85,36.86Zm2.16,0a17.8,17.8,0,0,0,.16,2.94A2.49,2.49,0,0,0,22.72,41a2.54,2.54,0,0,0,.9.74,2.47,2.47,0,0,0,1.31.33,2.6,2.6,0,0,0,1.34-.33,2.41,2.41,0,0,0,.86-.74,2.63,2.63,0,0,0,.58-1.24,18.87,18.87,0,0,0,.15-2.94,19.29,19.29,0,0,0-.15-3,3.09,3.09,0,0,0-1.44-2,3.07,3.07,0,0,0-1.34-.31,2.92,2.92,0,0,0-1.31.31,2.74,2.74,0,0,0-.9.76,2.47,2.47,0,0,0-.56,1.22A18.23,18.23,0,0,0,22,36.86Z"/><path class="cls-1" d="M35.41,29.51H41a4.3,4.3,0,0,1,2.91,1,4,4,0,0,1,1.41,3.14,4.09,4.09,0,0,1-2.75,4.07l3.3,6.52H43.28l-2.95-6.28H37.57v6.28H35.41ZM37.57,36h3.27a2.27,2.27,0,0,0,2.42-2.35,2,2,0,0,0-.72-1.67A2.42,2.42,0,0,0,41,31.48H37.57Z"/><path class="cls-1" d="M50.49,29.51h2.16v7.57h0l5.87-7.57h2.56l-4.56,5.8,5,8.9H59L55.15,37l-2.5,2.71v4.48H50.49Z"/><path class="cls-1" d="M1.28,57.9h2L9.77,68.35h0V57.9H12V72.6h-2L3.48,62.15h0V72.6H1.28Z"/><path class="cls-1" d="M17.41,65.25a25.47,25.47,0,0,1,.15-3.44,4.16,4.16,0,0,1,.48-1.4A5,5,0,0,1,19.7,58.6a4.8,4.8,0,0,1,2.8-.82A4.9,4.9,0,0,1,27,60.42a3.45,3.45,0,0,1,.5,1.4,29.11,29.11,0,0,1,.13,3.43,29.18,29.18,0,0,1-.13,3.41,3.46,3.46,0,0,1-.5,1.42,4.74,4.74,0,0,1-1.62,1.79,5,5,0,0,1-2.83.85A5.12,5.12,0,0,1,18,70.08q-.16-.33-.28-.64a4.24,4.24,0,0,1-.2-.79A25.41,25.41,0,0,1,17.41,65.25Zm2.16,0a17.73,17.73,0,0,0,.16,2.94,2.49,2.49,0,0,0,.56,1.24,2.55,2.55,0,0,0,.9.74,2.47,2.47,0,0,0,1.31.33,2.6,2.6,0,0,0,1.34-.33,2.42,2.42,0,0,0,.86-.74,2.63,2.63,0,0,0,.58-1.24,18.93,18.93,0,0,0,.15-2.94,19.36,19.36,0,0,0-.15-3,3.08,3.08,0,0,0-1.44-2A3.07,3.07,0,0,0,22.49,60a2.92,2.92,0,0,0-1.31.31,2.74,2.74,0,0,0-.9.76,2.47,2.47,0,0,0-.56,1.22A18.15,18.15,0,0,0,19.57,65.25Z"/><path class="cls-1" d="M31.69,57.9H34l2.24,10.45h0L39,57.9h1.56l2.76,10.45h0L45.62,57.9h2.28L44.34,72.6H42.53L39.81,62h0L37,72.6h-1.8Z"/><path class="cls-1" d="M54.62,67.63a5.52,5.52,0,0,1,.09-1.07,2.76,2.76,0,0,1,.4-.91l1.72-2.57a2.51,2.51,0,0,0,.48-1.36,1.84,1.84,0,0,0-.55-1.36,1.79,1.79,0,0,0-2.45,0,2.29,2.29,0,0,0-.57,1.76h-2v-.41a3.82,3.82,0,0,1,1.14-2.81,3.66,3.66,0,0,1,2.63-1.13,3.92,3.92,0,0,1,2.68,1,4.15,4.15,0,0,1,.56,5.08L57,66.49a2.22,2.22,0,0,0-.33,1.3V69h-2Zm0,2.88h2v2.1h-2Z"/><path class="cls-1" d="M100.43,73.91C88.9,73.91,79.51,66,79.51,53.08V20.82C79.51,7.86,88.9,0,100.43,0s21,7.86,21,20.82V53.08C121.46,66,112,73.91,100.43,73.91Zm10.62-52.78c0-7-4-11.84-10.62-11.84s-10.51,4.8-10.51,11.84V52.78c0,7,3.88,11.84,10.51,11.84s10.62-4.8,10.62-11.84Z"/><path class="cls-1" d="M134.12,73.29V64l28-34c2.76-3.37,3.88-6,3.88-9.7,0-6.53-3.88-11-10.62-11-5.51,0-10.72,3.06-10.72,11.23H134.22C134.22,8.17,143,0,155.35,0s21,7.86,21,20.42c0,6.43-2.35,10.21-6.84,15.72L146.78,64h29.6v9.29Z"/></g></g></svg>