<svg xmlns="http://www.w3.org/2000/svg" viewBox="0 0 461.01 74.56"><title>career-index</title><g id="レイヤー_2" data-name="レイヤー 2"><g id="design"><path d="M30.77,18.59v5.67H28.46V18.48c0-8.93-3.36-16.38-13-16.38S2.31,9.56,2.31,18.48V56.08c0,8.93,3.36,16.28,13.13,16.28s13-7.35,13-16.28V48h2.31v8c0,10.19-4.2,18.59-15.44,18.59S0,66.16,0,56V18.59C0,8.4,4.2,0,15.33,0S30.77,8.4,30.77,18.59Z"/><path d="M91.26,56.71,87,74h-2.1L102.6.42h3.26L124,74h-2.31l-4.31-17.33Zm.42-2.1H117L104.17,3.15Z"/><path d="M192.91.53C203.83.53,208,6.93,208,17v6.62c0,9-3.57,14-11.66,15.44,8.19,1.26,11.66,6.62,11.66,14.7V65.32c0,2.83.31,6.41,2,8.72h-2.52c-1.47-2.31-1.79-5.57-1.79-8.72V53.77c0-10.82-6.51-13.65-16.07-13.65h-9V74h-2.31V.53Zm-3.26,37.38c10.19,0,16.07-2.62,16.07-14V17.22c0-8.93-3.47-14.49-12.92-14.49H180.62V37.91Z"/><path d="M288.37,35.7v2.1H266.73v34h25.73V74h-28V.53h28V2.73H266.73v33Z"/><path d="M370.8,35.7v2.1H349.17v34H374.9V74h-28V.53h28V2.73H349.17v33Z"/><path d="M443.89.53C454.81.53,459,6.93,459,17v6.62c0,9-3.57,14-11.66,15.44,8.19,1.26,11.66,6.62,11.66,14.7V65.32c0,2.83.31,6.41,2,8.72h-2.52c-1.47-2.31-1.79-5.57-1.79-8.72V53.77c0-10.82-6.51-13.65-16.07-13.65h-9V74h-2.31V.53Zm-3.25,37.38c10.19,0,16.07-2.62,16.07-14V17.22c0-8.93-3.47-14.49-12.92-14.49H431.6V37.91Z"/></g></g></svg>