<svg xmlns="http://www.w3.org/2000/svg" viewBox="0 0 454.5 74.56"><defs><style>.cls-1{fill:#fff;}</style></defs><title>person-index</title><g id="レイヤー_2" data-name="レイヤー 2"><g id="design"><path class="cls-1" d="M14.49.53C25.83.53,29.72,8,29.72,18.27v7.35c0,11.66-5.25,17.22-16.91,17.22H2.31V74H0V.53ZM12.81,40.64c10.29,0,14.6-4.52,14.6-14.91V18.17c0-9-3-15.44-12.92-15.44H2.31V40.64Z"/><path class="cls-1" d="M108,35.7v2.1H86.32v34H112V74H84V.53h28V2.73H86.32v33Z"/><path class="cls-1" d="M181,.53C192,.53,196.16,6.93,196.16,17v6.62c0,9-3.57,14-11.66,15.44,8.19,1.26,11.66,6.62,11.66,14.7V65.32c0,2.83.31,6.41,2,8.72h-2.52c-1.47-2.31-1.79-5.57-1.79-8.72V53.77c0-10.82-6.51-13.65-16.07-13.65h-9V74h-2.31V.53Zm-3.26,37.38c10.19,0,16.07-2.62,16.07-14V17.22c0-8.93-3.47-14.49-12.92-14.49H168.75V37.91Z"/><path class="cls-1" d="M283,18.27v1.37H280.7V18.17c0-8.72-3.26-16.07-12.81-16.07S255,9.35,255,18.06c0,18.8,28.14,18.27,28.14,38.22,0,10.19-4.2,18.27-15.44,18.27s-15.33-8.09-15.33-18.27V52.72h2.2v3.68c0,8.93,3.47,16,13.13,16s13.13-7,13.13-16c0-18.59-28.14-18-28.14-38.22C252.66,7.46,257.18.11,267.78,0,278.91,0,283,8.19,283,18.27Z"/><path class="cls-1" d="M337.41,18.59C337.41,6.41,342.76,0,352.95,0c10.4,0,15.75,6.41,15.75,18.59V56c0,12.18-5.36,18.59-15.75,18.59-10.19,0-15.54-6.41-15.54-18.59Zm2.31,37.49c0,10.82,4.52,16.38,13.23,16.38s13.44-5.57,13.44-16.38V18.48c0-10.82-4.62-16.38-13.44-16.38s-13.23,5.57-13.23,16.38Z"/><path class="cls-1" d="M425.41,74H423.2V.53h3.26l25.83,68.78V.53h2.21V74h-2.84L425.41,3.89Z"/></g></g></svg>