<svg xmlns="http://www.w3.org/2000/svg" viewBox="0 0 352.87 35.53"><defs><style>.cls-1{fill:#fff;}</style></defs><title>recruiting-index</title><g id="レイヤー_2" data-name="レイヤー 2"><g id="design"><path class="cls-1" d="M7,.25c5.21,0,7.21,3.05,7.21,7.86v3.15c0,4.3-1.7,6.66-5.56,7.36,3.9.6,5.56,3.15,5.56,7v5.5a7.39,7.39,0,0,0,1,4.15h-1.2a8,8,0,0,1-.85-4.15v-5.5c0-5.16-3.1-6.51-7.66-6.51H1.1V35.28H0V.25ZM5.41,18.07c4.85,0,7.66-1.25,7.66-6.66V8.21C13.06,4,11.41,1.3,6.91,1.3H1.1V18.07Z"/><path class="cls-1" d="M52.45,17v1H42.14V34.23H54.41v1.05H41V.25H54.41V1.3H42.14V17Z"/><path class="cls-1" d="M94.95,8.86v2.7h-1.1V8.81c0-4.25-1.6-7.81-6.21-7.81s-6.26,3.55-6.26,7.81V26.73c0,4.25,1.6,7.76,6.26,7.76s6.21-3.5,6.21-7.76V22.87h1.1v3.8c0,4.85-2,8.86-7.36,8.86s-7.31-4-7.31-8.86V8.86C80.28,4,82.29,0,87.59,0S94.95,4,94.95,8.86Z"/><path class="cls-1" d="M127.83.25C133,.25,135,3.3,135,8.11v3.15c0,4.3-1.7,6.66-5.56,7.36,3.9.6,5.56,3.15,5.56,7v5.5a7.39,7.39,0,0,0,1,4.15h-1.2a8,8,0,0,1-.85-4.15v-5.5c0-5.16-3.1-6.51-7.66-6.51H122V35.28h-1.1V.25Zm-1.55,17.82c4.85,0,7.66-1.25,7.66-6.66V8.21c0-4.25-1.65-6.91-6.16-6.91H122V18.07Z"/><path class="cls-1" d="M163,26.68c0,4.2,1.5,7.86,6.16,7.86s6.16-3.65,6.16-7.86V.25h1.05V26.63c0,4.8-1.9,8.91-7.21,8.91s-7.26-4.1-7.26-8.91V.25H163Z"/><path class="cls-1" d="M203.41.25v35h-1.1V.25Z"/><path class="cls-1" d="M236.2,35.28V1.3h-7.66V.25H245V1.3H237.3v34Z"/><path class="cls-1" d="M271.28.25v35h-1.1V.25Z"/><path class="cls-1" d="M298.36,35.28h-1.05V.25h1.55L311.17,33V.25h1.05v35h-1.35L298.36,1.85Z"/><path class="cls-1" d="M352.87,8.86v2.3h-1.1V8.81c0-4.25-1.6-7.81-6.21-7.81s-6.26,3.55-6.26,7.81V26.73c0,4.25,1.6,7.76,6.26,7.76s6.21-3.5,6.21-7.76v-8h-5.46v-1h6.56v8.91c0,4.85-2,8.86-7.36,8.86s-7.31-4-7.31-8.86V8.86c0-4.85,2-8.86,7.31-8.86S352.87,4,352.87,8.86Z"/></g></g></svg>