<svg xmlns="http://www.w3.org/2000/svg" viewBox="0 0 901.65 73.61"><title>whatweare-index</title><g id="レイヤー_2" data-name="レイヤー 2"><g id="design"><path d="M16.59,73.61H13.23L0,.11H2.31L15.12,70.46,27.83.53h2.84L42.63,70,55,.11h2.1l-13,73.51h-3l-11.87-68Z"/><path d="M113.73,37.91v35.7h-2.31V.11h2.31v35.7H140.3V.11h2.31V73.61H140.3V37.91Z"/><path d="M203.31,56.29,199,73.61h-2.1L214.65,0h3.26l18.17,73.61h-2.31l-4.31-17.33Zm.42-2.1H229L216.22,2.73Z"/><path d="M304.54,73.61V2.31H288.47V.11h34.44V2.31H306.85v71.3Z"/><path d="M454.61,73.61h-3.36L438,.11h2.31l12.81,70.36L465.84.53h2.84l12,69.52L493,.11h2.1l-13,73.51h-3l-11.87-68Z"/><path d="M573.38,35.28v2.1H551.74v34h25.73v2.21h-28V.11h28V2.31H551.74v33Z"/><path d="M700.44,56.29l-4.31,17.33H694L711.78,0H715l18.17,73.61H730.9l-4.31-17.33Zm.42-2.1h25.31L713.36,2.73Z"/><path d="M802.1.11c10.92,0,15.12,6.41,15.12,16.49v6.62c0,9-3.57,14-11.66,15.44,8.19,1.26,11.66,6.62,11.66,14.7V64.9c0,2.84.31,6.41,2,8.72h-2.52c-1.47-2.31-1.79-5.57-1.79-8.72V53.35c0-10.82-6.51-13.65-16.07-13.65h-9V73.61H787.5V.11Zm-3.25,37.38c10.19,0,16.07-2.63,16.07-14V16.8c0-8.93-3.47-14.49-12.92-14.49H789.81V37.49Z"/><path d="M897.55,35.28v2.1H875.92v34h25.73v2.21h-28V.11h28V2.31H875.92v33Z"/></g></g></svg>