<svg xmlns="http://www.w3.org/2000/svg" viewBox="0 0 396.98 55.28"><defs><style>.cls-1{fill:#fff;}</style></defs><title>culture-index</title><g id="レイヤー_2" data-name="レイヤー 2"><g id="design"><path class="cls-1" d="M11.37,0a11.74,11.74,0,0,1,5.29,1.09A9.64,9.64,0,0,1,20.2,4a12.45,12.45,0,0,1,2,4.4,22.25,22.25,0,0,1,.62,5.33V18H21.1V13.7A21.16,21.16,0,0,0,20.59,9,11,11,0,0,0,19,5.14a8.15,8.15,0,0,0-3-2.61,9.68,9.68,0,0,0-4.52-1,9.86,9.86,0,0,0-4.59,1,8.13,8.13,0,0,0-3,2.61A11,11,0,0,0,2.22,9a21.11,21.11,0,0,0-.51,4.71V41.58a20.58,20.58,0,0,0,.51,4.67,11,11,0,0,0,1.64,3.81,8.12,8.12,0,0,0,3,2.61,9.85,9.85,0,0,0,4.59,1,9.67,9.67,0,0,0,4.52-1,8.14,8.14,0,0,0,3-2.61,11,11,0,0,0,1.63-3.81,20.64,20.64,0,0,0,.51-4.67v-6h1.71V41.5a22.25,22.25,0,0,1-.62,5.33,12.44,12.44,0,0,1-2,4.4,9.64,9.64,0,0,1-3.54,3,11.75,11.75,0,0,1-5.29,1.09,11.5,11.5,0,0,1-5.25-1.09,9.69,9.69,0,0,1-3.5-3,12.39,12.39,0,0,1-2-4.4A22.2,22.2,0,0,1,0,41.5V13.78A22.2,22.2,0,0,1,.62,8.45a12.4,12.4,0,0,1,2-4.4,9.7,9.7,0,0,1,3.5-3A11.49,11.49,0,0,1,11.37,0Z"/><path class="cls-1" d="M64.78,41.5a22.25,22.25,0,0,0,.47,4.67,11.27,11.27,0,0,0,1.6,3.89,8,8,0,0,0,3,2.69,11.15,11.15,0,0,0,9.11,0,8,8,0,0,0,3-2.69,11.31,11.31,0,0,0,1.6-3.89,22.26,22.26,0,0,0,.47-4.67V.39h1.64v41A23.69,23.69,0,0,1,85,46.75a12.3,12.3,0,0,1-1.91,4.4,9.72,9.72,0,0,1-3.46,3,12.8,12.8,0,0,1-10.51,0,10.06,10.06,0,0,1-3.5-3,11.92,11.92,0,0,1-1.95-4.4,23.69,23.69,0,0,1-.58-5.33V.39h1.71Z"/><path class="cls-1" d="M126,54.89V.39h1.71V53.25H146v1.63Z"/><path class="cls-1" d="M196.66,54.89V2H184.75V.39h25.54V2H198.38V54.89Z"/><path class="cls-1" d="M251.16,41.5a22.25,22.25,0,0,0,.47,4.67,11.27,11.27,0,0,0,1.6,3.89,8,8,0,0,0,3,2.69,11.15,11.15,0,0,0,9.11,0,8,8,0,0,0,3-2.69,11.31,11.31,0,0,0,1.6-3.89,22.26,22.26,0,0,0,.47-4.67V.39h1.64v41a23.69,23.69,0,0,1-.58,5.33,12.3,12.3,0,0,1-1.91,4.4,9.72,9.72,0,0,1-3.46,3,12.8,12.8,0,0,1-10.51,0,10.06,10.06,0,0,1-3.5-3,11.92,11.92,0,0,1-1.95-4.4,23.69,23.69,0,0,1-.58-5.33V.39h1.71Z"/><path class="cls-1" d="M323.18.39q6.07,0,8.64,3.31t2.57,8.91v4.9q0,5.06-2.06,7.82T325.75,29q4.59.7,6.62,3.54a12.4,12.4,0,0,1,2,7.36v8.56a22.19,22.19,0,0,0,.27,3.35,7.18,7.18,0,0,0,1.21,3.11H334a7.3,7.3,0,0,1-1.09-3,25.1,25.1,0,0,1-.23-3.46V39.86a12.46,12.46,0,0,0-.86-5,7.26,7.26,0,0,0-2.45-3.08,10.15,10.15,0,0,0-3.78-1.6,23.07,23.07,0,0,0-4.83-.47h-6.7V54.89h-1.71V.39Zm-2.41,27.72a26.58,26.58,0,0,0,5-.43,8.73,8.73,0,0,0,3.74-1.6,7.46,7.46,0,0,0,2.34-3.15,13.78,13.78,0,0,0,.82-5.18v-5a12.92,12.92,0,0,0-2.14-7.86Q328.39,2,323.1,2h-9V28.11Z"/><path class="cls-1" d="M393.95,26.47V28h-16V53.25H397v1.63H376.2V.39H397V2H377.91V26.47Z"/></g></g></svg>