<svg xmlns="http://www.w3.org/2000/svg" viewBox="0 0 96.02 8.84"><defs><style>.cls-1{fill:#231815;}</style></defs><title>header-text-recruiting_1</title><g id="レイヤー_2" data-name="レイヤー 2"><g id="design"><path class="cls-1" d="M1.93.09c1.36,0,1.93.69,1.93,2v.7c0,1-.33,1.54-1.08,1.78.79.23,1.09.88,1.09,1.8V7.7a2.17,2.17,0,0,0,.17,1h-1A2.26,2.26,0,0,1,2.9,7.69V6.33C2.9,5.35,2.45,5,1.64,5H1v3.7H0V.09ZM1.68,4.17C2.45,4.17,2.9,3.92,2.9,3V2.15C2.9,1.37,2.62,1,1.9,1H1v3.2Z"/><path class="cls-1" d="M10.42,3.92v.87H8.31V7.86h2.6v.88H7.34V.09H10.9V1H8.31v3Z"/><path class="cls-1" d="M18.08,2.18V3h-.91V2.13c0-.78-.31-1.25-1-1.25s-1,.47-1,1.25V6.7c0,.78.32,1.25,1,1.25s1-.47,1-1.25V5.57h.91V6.65c0,1.31-.62,2.18-2,2.18S14.19,8,14.19,6.65V2.18C14.19.87,14.81,0,16.13,0S18.08.87,18.08,2.18Z"/><path class="cls-1" d="M23.36.09c1.36,0,1.93.69,1.93,2v.7c0,1-.33,1.54-1.08,1.78.79.23,1.09.88,1.09,1.8V7.7a2.17,2.17,0,0,0,.17,1h-1a2.27,2.27,0,0,1-.16-1.05V6.33c0-1-.46-1.29-1.26-1.29H22.4v3.7h-1V.09Zm-.25,4.08c.77,0,1.22-.25,1.22-1.19V2.15c0-.78-.28-1.19-1-1.19H22.4v3.2Z"/><path class="cls-1" d="M29.69,6.7c0,.78.31,1.25,1,1.25s1-.47,1-1.25V.09h.9V6.65C32.6,8,32,8.84,30.66,8.84S28.74,8,28.74,6.65V.09h1Z"/><path class="cls-1" d="M37,.09V8.74H36V.09Z"/><path class="cls-1" d="M41.71,8.74V1H40.12V.09h4.15V1H42.68V8.74Z"/><path class="cls-1" d="M48.37.09V8.74h-1V.09Z"/><path class="cls-1" d="M52.69,8.74h-.87V.09H53l2,6.25V.09h.85V8.74h-1l-2.21-7Z"/><path class="cls-1" d="M63.18,2.18v.74h-.91V2.13c0-.78-.31-1.25-1-1.25s-1,.47-1,1.25V6.7c0,.78.32,1.25,1,1.25s1-.47,1-1.25V5h-.89V4.1h1.8V6.65c0,1.31-.62,2.18-2,2.18S59.29,8,59.29,6.65V2.18C59.29.87,59.9,0,61.23,0S63.18.87,63.18,2.18Z"/><path class="cls-1" d="M74.85,2.19c0,2.61-2.93,3.55-2.94,5.54v.14h2.84v.88H71V8c0-2.79,2.93-3.34,2.93-5.77,0-.89-.3-1.36-1-1.36s-1,.51-1,1.27V2.9H71V2.2C71,.88,71.56,0,72.89,0S74.85.87,74.85,2.19Z"/><path class="cls-1" d="M78.13,2.18c0-1.32.65-2.18,2-2.18s2,.85,2,2.18V6.64c0,1.32-.66,2.19-2,2.19s-2-.87-2-2.19Zm1,4.52c0,.78.33,1.25,1,1.25s1-.47,1-1.25V2.13c0-.79-.32-1.26-1-1.26s-1,.47-1,1.26Z"/><path class="cls-1" d="M87.26,1.66a2.58,2.58,0,0,1-1.2.37V1.24A1.48,1.48,0,0,0,87.54.09h.67V8.74h-1Z"/><path class="cls-1" d="M96,2.18V6.59C96,8,95.4,8.82,94,8.82s-2-.85-2-2.18V6.49H93v.22c0,.78.33,1.24,1,1.24s1.06-.47,1.06-1.38V4.62a1.38,1.38,0,0,1-1.4.91c-1.11,0-1.61-.79-1.61-2V2.18C92.05.85,92.69,0,94,0S96,.85,96,2.18Zm-3,0v1.3c0,.78.33,1.25,1,1.25s1-.47,1-1.25V2.13c0-.79-.32-1.25-1-1.25S93,1.34,93,2.13Z"/></g></g></svg>