<svg xmlns="http://www.w3.org/2000/svg" xmlns:xlink="http://www.w3.org/1999/xlink" viewBox="0 0 51.91 145.78"><defs><style>.cls-1{fill:url(#新規グラデーションスウォッチ_3);}</style><linearGradient id="新規グラデーションスウォッチ_3" x1="42.74" y1="8.91" x2="13.05" y2="145.87" gradientUnits="userSpaceOnUse"><stop offset="0" stop-color="#ffbe1f"/><stop offset="1" stop-color="#ff6d1f"/></linearGradient></defs><title>mizutani-6yo-icon</title><g id="レイヤー_2" data-name="レイヤー 2"><g id="design"><path class="cls-1" d="M.25,88.67c.8,3.92,3.78,4.57,5.09,5s1.42-1.57,0-2.34-1.49-3.85-1.49-3.85a5.38,5.38,0,0,0,.58,1.9c.42.61,1.41,2,1.82-.79s-.72-8.25-.95-9.3,2.28-11.3,2.36-12.74c0-.68,1-4.94,2-9.27.2,3.65.42,7.82.42,8.4,0,1.07-1.78,16-.94,17.11a3.25,3.25,0,0,0,.51.57c0,1.11.16,6.28.16,8.34,0,2.32-2.19,17.47-2.19,17.47l1,.53.07,0-.12.45S7.4,122,7.4,128.91s-2.54,9.4-2.54,9.4-5,5.21,2.94,6.41c5.66.85,8.28-1.47,7.81-4.43s-.94-6.92-.94-6.92,2.81-15.81,2.81-19.76a18.48,18.48,0,0,1,.24-2.7c1.83-.14,3.22-.51,3.41-1.06.51-1.43,3.38-20,4.05-19.25s3.29,18.78,3.29,18.78a4.18,4.18,0,0,0,2.91,1.25,19.18,19.18,0,0,1,.28,2.9c0,4,3.4,19,3.4,19a11.41,11.41,0,0,0-.56,4.94c.37,4.43,2.43,9.4,8.09,8.12s2.3-8.12,2.3-8.12-2.7-2.91-2.7-9.82a148.26,148.26,0,0,0-1.63-17.56l-.3-1.15c1-.53,1.7-1.12,1.74-1.68.17-2.32-1.6-19.67-2.28-23.59,1.86.36,4.89-4.1,6.08-6.24s6.28-18.72,6.11-20.68c-.12-1.38-3.06-7.05-4.81-10.32.59-.76.93-1.27.93-1.27s-5.4-8.2-8.78-10.69C36.93,32.74,32,32,28.8,31.59a6,6,0,0,1,0-2.27c0-.59,1.86-1.38,3-4.52,2.24,0,4.28-6.1,2.61-5.7,4.1-10.82-6.71-16.72-6.71-16.72V4.93C26.93,3.16,23.39-.19,20.78,0c1.49,1.18,2,4.72,2,4.72a13.27,13.27,0,0,0-3.17-3c.56,1,0,3.34-1.86,4.13L18,4.34,15.38,7.09A10.65,10.65,0,0,0,14.27,18.3c-2.42-1-1.86,5.51.74,6.49.75,2.16,3.91,4.72,3.91,4.72a7.51,7.51,0,0,1,.1,1.82,67.72,67.72,0,0,0-8.82,3.12C4.64,36.59,2.44,47.28,2.44,47.28l1.67,1.46c-.93,6.06-2,14.64-1.81,15.6C2.54,65.76.83,81,.83,81A16,16,0,0,0,.25,88.67ZM38.56,75.15a30.33,30.33,0,0,0-.19-6.48c-.51-2.67,1.72-17.29,1.72-17.29s1.35,0,.84.53l.35-.19c1.33,2.72,3.06,6.2,3.19,6.61s-2.4,14.08-3.41,15.33A6.7,6.7,0,0,1,38.56,75.15Z"/></g></g></svg>