<svg xmlns="http://www.w3.org/2000/svg" xmlns:xlink="http://www.w3.org/1999/xlink" viewBox="0 0 92.22 255.87"><defs><style>.cls-1{fill:url(#新規グラデーションスウォッチ_3);}</style><linearGradient id="新規グラデーションスウォッチ_3" x1="121.61" y1="3.11" x2="-13.39" y2="245.12" gradientUnits="userSpaceOnUse"><stop offset="0" stop-color="#ffbe1f"/><stop offset="1" stop-color="#ff6d1f"/></linearGradient></defs><title>mizutani-18yo-icon</title><g id="レイヤー_2" data-name="レイヤー 2"><g id="design"><path class="cls-1" d="M83.77,138.92c0-.87,5.91,0,6.2-3.75S85.46,65,77.85,52.85c-2.25-3.59-14.37-9.24-16.06-11,0,0-2.25-3.47-3.66-2.89-.84-.29-1.41-3.18-1.41-4.33s2-5.2,1.13-6.06c2.25-1.16,2.54-7.8.85-8.67,0-1.44-.56-4.33-.56-5.49s-2-5.78-2-5.78L67.43,3.75,46.86,0c-1.13.58-22,7.51-22,7.51L31.38,9v2.35a1,1,0,0,0-.81,1.06c0,.91-.23,2,.12,2a.43.43,0,0,0,.3.16c0,1.25-.06,2.88-.11,4.59l-.8,9.58A58.7,58.7,0,0,0,30.79,22c0,1.28-.09,2.5-.15,3.54,0,.8-.09,1.49-.14,2a5.74,5.74,0,0,1-.14,1,.27.27,0,0,0,.06.29l-.05.42a.23.23,0,0,0,.14.26h0a.2.2,0,0,0,.17-.19l0-.19a.17.17,0,0,0,.1.07h0l.07,0a.22.22,0,0,0,.1.16h.06a.18.18,0,0,0,.16-.14,17.83,17.83,0,0,0,.37-3.35h0c0,.36,0,.69.06,1a14.44,14.44,0,0,1-.29,2.7.26.26,0,0,0,.1.3l.07,0a.18.18,0,0,0,.16-.14,5.28,5.28,0,0,0,.15-.76c0,.11,0,.21,0,.28a.19.19,0,0,0,.17.17h0a.24.24,0,0,0,.12-.28,27.35,27.35,0,0,1-.18-3c0-.3,0-.62,0-.94l.06.9c.07.86.14,1.61.23,2.19l0,.12s0,.07,0,.1a6.63,6.63,0,0,0,.1,1,.18.18,0,0,0,.16.15h.06a.17.17,0,0,0,.07-.07h0a.15.15,0,0,0,.11,0,.28.28,0,0,0,0-.32,1.25,1.25,0,0,1-.11-.32.14.14,0,0,0,.1,0,.28.28,0,0,0,0-.32,4.74,4.74,0,0,1-.27-1.36l0-.29c-.07-2-.12-5-.16-7.79,0-1.8,0-3.48-.05-4.67a.43.43,0,0,0,.28-.16c.35,0,.11-1.06.11-2a1,1,0,0,0-.81-1.06V9.18l5.21,1.21s-1.69,4.33-1.13,6.07c.56,1.15-.56,4,.28,5.77-1.41.29-.56,5.49,1.69,6.64a6,6,0,0,1,2.82,4.91,6.67,6.67,0,0,1-.28,3.47,7,7,0,0,0-1.69.58c-1.41.58-10.71,6.64-11,7.8l-.28,1.16s-4.51,3.47-5.63,3.47a3.28,3.28,0,0,0-3.1,2,54.06,54.06,0,0,0-4.79,13c-2.39,10.9-5.92,25.53-5.92,28.3,0,4.62-7.61,43-8.17,45.34s1.69,2.6,2.54,2.89,14.93,3.47,14.93,3.47,2.82,2,2.25,4-3.94,49.39-3.1,50.54c.38.52,6.28,1.62,13,2.6a15.72,15.72,0,0,0,.36,2.55c2.66,10.89-1.06,19.6-.53,25,.32,3.25,4.44,5.43,4.44,5.43a38.08,38.08,0,0,1-2.64,6.63c-2.15,4.51-5.72,8.11-6.34,10.76s1.05,2.5,5.31,3,10.26-4.2,10.76-6.31,2.56-1.61,3.57-3.6.84-5.95,2.52-6.1-.09-5.43.44-8.7c.34-2.09.46-16.35.51-26.83a6.6,6.6,0,0,0,1.29-.12c2-.47,3.89-.18,5.36-.32a11.58,11.58,0,0,1-.25,2.77c-1.06,3.27-1.59,26.13-1.59,26.13s.43.33,1.06.8c-.91,4.14-1.59,9-1.59,9l5.31,1.63s2.66,1.63,4.78,3.27c5.31,3.27,13.28,4.35,14.87,2.18,1.59,0,3.19-3.81,3.19-5.44s-3.19-3.27-6.9-5.44a16.59,16.59,0,0,1-4.41-4.3l1.75-.6s-2.12-5.44-1.59-7.07.53-6.53.53-6.53l2.51-17c3.58-.13,8.64-.39,9.38-.77,1.13-.58,3.66,0,6.48-2s3.94-.58,3.94-4.62S83.77,139.78,83.77,138.92ZM31.32,24.67c0,1.4-.12,2.64-.22,3.49.05-1,.09-2.48.13-4.18.06-.75.11-1.51.16-2.26C31.37,22.73,31.35,23.74,31.32,24.67Zm.78-10.13c0,.77,0,1.78,0,2.91,0-1.14,0-2.16-.06-2.93Z"/></g></g></svg>