<svg xmlns="http://www.w3.org/2000/svg" xmlns:xlink="http://www.w3.org/1999/xlink" viewBox="0 0 159.12 221.04"><defs><style>.cls-1{fill:url(#新規グラデーションスウォッチ_3);}.cls-2{fill:url(#新規グラデーションスウォッチ_3-2);}</style><linearGradient id="新規グラデーションスウォッチ_3" x1="147.93" y1="0.76" x2="-3.07" y2="222.76" gradientUnits="userSpaceOnUse"><stop offset="0" stop-color="#ffbe1f"/><stop offset="1" stop-color="#ff6d1f"/></linearGradient><linearGradient id="新規グラデーションスウォッチ_3-2" x1="180.81" y1="23.13" x2="29.81" y2="245.13" xlink:href="#新規グラデーションスウォッチ_3"/></defs><title>mizutani-17yo-icon</title><g id="レイヤー_2" data-name="レイヤー 2"><g id="design"><path class="cls-1" d="M3.73,195c.34-.6,1.22-2.31,2.46-4.68l-.16-.1a.12.12,0,0,1,0-.16l1.36-2.45a.11.11,0,0,1,.15,0l.1.06c1.7-3.23,3.8-7.16,6-11.13s4.54-8.1,6.62-11.73l-.31-.19a.12.12,0,0,1,0-.16L21.23,162a.1.1,0,0,1,.15,0l.35.22c3-5.14,5.17-8.91,5.42-9.37.69-1.24,1.41-2,2.47-1.32a24,24,0,0,0,2.15,1.82c1.18.73.77-.53,3.84,1.36l1.1.68.31-.56a.11.11,0,0,1,.15,0l3.59,2.2a.12.12,0,0,1,0,.16l-.31.56L46,161l.6.35,11.74-21.18-.18-.11a.12.12,0,0,1,0-.16l.3-.55a.11.11,0,0,1,.15,0l.18.11,9.79-17.65-.19-.11a.13.13,0,0,1,0-.17l2.25-4.06a.18.18,0,0,1,.07-.07,1.3,1.3,0,0,1,1.73-.45,1.49,1.49,0,0,1,.4,1.79.2.2,0,0,1,0,.08l-2.25,4.06c0,.07-.11.1-.15.07l-.19-.11-9.79,17.65.1.06a.12.12,0,0,1,0,.16l-.3.54a.11.11,0,0,1-.15,0l-.1-.06L48.28,162.34c.35.29.45.62.14,1.18L21.15,212.7a2.65,2.65,0,0,1-2,1.58,2.67,2.67,0,0,1-.31,1.58,2.4,2.4,0,0,1-3.37.93,2.67,2.67,0,0,1-.88-3.54,2.52,2.52,0,0,1,.47-.6l-8.91-5.47a2.85,2.85,0,0,0-2.09,1.22c-.55,1-1.81.34-1.21-.74l1-1.89c-1.34-1-.5-1.28-1.59-1.94s-.68.08-2.21-.86C-.58,202.53,1.81,198.5,3.73,195Z"/><path class="cls-2" d="M50.36,196.46a29.36,29.36,0,0,1,3.94-3c.79-.59,1.72-5.35,3.07-5.11s2.4-14,4.88-18.66,10.36-10.58,11.4-13.86c.08-.27.17-.59.26-.93-1.54-.76-2.5-1.31-2.37-1.4.54-.38,9.25-21.94,9.43-26.33.15-3.7-1.87-14.85.53-21.57-.71-.19-1.13-.48-1.26-.94-.54-1.91,2.54-13.74,3.45-21.75a28.67,28.67,0,0,0,.08-4.15,120.41,120.41,0,0,0-3.89,18.14c-1,10.69-2.9,9.67-2.9,9.67a27.17,27.17,0,0,0-1.21,5.85c0,.68-.65.84-1.56.72a10.94,10.94,0,0,0-.48,2.8c.33,1.73.94,4.34.72,5.92a21.45,21.45,0,0,0-.51,5c.2,1.52-.56,2-1,2s-.82-.65-.75-1.59-.34-1-.48-.73-.28.79-1.17.43c-.28.58-.08,1.37-1.31,1.15s-3.48-3-3.67-5.43,1.67-4.54,2.5-6a12.7,12.7,0,0,0,1.22-5.49,6.39,6.39,0,0,1-.81-.58c-1.45-1.27.48-4.32-.48-5.34s3.14-24.17,3.63-25.7,3-11.23,5.56-19.59c1.94-6.27,3.15-9.87,4.58-11.75,0,0,0-.06,0-.08.22-1-1.27-1.15-2.36-3.75s1.69-4.58,1.69-4.83-.24-1.14,1.69-3c4.29-2.67,7.5-1.84,7.92-2.35s.48-2.8.48-2.8c-.85,1.59-2.54,2-3.69,1.14A2.77,2.77,0,0,0,89.8,29.9c.06.7-1.21,1.53-1.63,1.27s-1.39.51-1.39.51c-.06-1,.36-1,.73-1.59s.3-1.72-.12-1.59a3.41,3.41,0,0,1-3.2,3.12c.3-.06,1.21-2.23.6-3.82s.91-3.75.85-5.09a1.4,1.4,0,0,1-1.93.89c.73-.45.91-2,.85-3.56s.06-2.61,1.21-9.35c1.63-8.59,8.34-8.4,8.71-8.52,2.18-.77,4.41-3.75,10.34-1.08,4,1.82,3.39,3.18,4.66,4.39s4.17,4.77,1.69,8.15a1.86,1.86,0,0,1-.06,1c-.18.7-.24,3.94.79,5.09s1.93,2.29,1,3.05-1.81,1.34-1.75,1.78.48.89.24,1.34.18,1-.18,1.4A4.15,4.15,0,0,0,111,29.9a1.67,1.67,0,0,1-1.63,1.84c-1.21.13-3.57.26-3.93,2.1s.12,1.27-.6,2-.12,1.65.24,2.16a4.31,4.31,0,0,1,1,2,15.16,15.16,0,0,0,1.39,6.11c1.45,3.05,3.08,11.45,2.9,18.89-.16,6.6-.61,12.89-.83,17.56a2.7,2.7,0,0,1,1.14.56c1.63,1.27,3.1,3.48,5.32,4.48s6,4.62,5.94,5.18c-.15.87.71,1.34.91,2,.31.16.54.27.64.31a24.3,24.3,0,0,0,3.78,1.48,5.78,5.78,0,0,1,3,1.87c.45.85,3.44,3.8,3.5,5a8.18,8.18,0,0,1-.57,2.68c-.19.87-.52,1-.93.69-.3.67-.33,2.24-1,1.92-.51.54-.59,2-1,2.08s-1.25,0-1-1.15.52-1.7.31-1.83a11.11,11.11,0,0,1-1-1.15l-1.07-.5a3.62,3.62,0,0,0,.36.91,3.88,3.88,0,0,1,.66,2.06c0,.9-.55,1.45-1,1s-.49-1.77-.81-2.1-.53-1.2-.87-1.45a11.1,11.1,0,0,1-3-1.54c-1-.89-2.94-4.47-3.81-5.56-.69.57-1.31.93-1.67.79-1-.39-2.1-1.75-2.67-1.66a5.3,5.3,0,0,1-3.74-1.07c.2,2.53,1.89,5.89.87,6.78a6.21,6.21,0,0,1-1.6,1.06,7,7,0,0,1,1.24,3.14c0,1.53,2.36,7.44,3.08,10.11s2.18,8.21,3.26,12.21,3.26,13.17,3.81,14.5,2,5,1.45,5.53a19.88,19.88,0,0,1-2.54,1.24,15.65,15.65,0,0,0,1.13,3.82c.89,1.34,2.22,3.21,1.81,6s2.07,5.75,5,17.68,6.11,18.77,7.5,19.89,1.24-.43,3.14.21,3.72,2.55,4.46,2.34-.85,2-2.8,2.1-2.35-1.18-1.95.12,7.35,2.54,9.78,2.45,6.6-.82,8.3-1,4.17,3.09-.13,6.11-17,4.7-18.57,6.38-5.54,3.44-7.43,2.55-3.42-7.37-3.47-10.44a32.59,32.59,0,0,1,.31-5.08c.06-1-2.86-4.78-1.83-5.73s-8.78-10.8-10.66-15.77-1.25-15.13-3-18.05c-1-1.61-3.33-4.48-5.47-7.81a28.18,28.18,0,0,1-3.32,1.16c-1.45.19-5.8-19.46-5.8-19.46s-7.8,21.37-8.34,21.75a12.67,12.67,0,0,1-3.21-1.07,6.17,6.17,0,0,1-2.27,2.45c-2.31,1.42-2.93,5.32-9.88,15.22s-10,16.85-9.92,18.68,1.1.74,1.82,2.69.47,4.64,1.09,5.12-2,.56-3.32-1-.62-2.66-1.32-1.51,2.37,6,4,7.9,5.55,2.73,7.09,3.51,2,4.06-3,5.22c-9.63,2.21-16.51-8.09-18.73-8.3s-6-2.34-6.57-4.44S48.14,198.44,50.36,196.46Z"/></g></g></svg>