<svg xmlns="http://www.w3.org/2000/svg" xmlns:xlink="http://www.w3.org/1999/xlink" viewBox="0 0 74.76 252.7"><defs><style>.cls-1{fill:url(#新規グラデーションスウォッチ_3);}</style><linearGradient id="新規グラデーションスウォッチ_3" x1="109.6" y1="-17.54" x2="1.61" y2="192.45" gradientUnits="userSpaceOnUse"><stop offset="0" stop-color="#ffbe1f"/><stop offset="1" stop-color="#ff6d1f"/></linearGradient></defs><title>mizutani-24yo-icon</title><g id="レイヤー_2" data-name="レイヤー 2"><g id="design"><path class="cls-1" d="M74.52,90.22C73.72,86,70.69,62.8,70.69,60.58s-2.62-13.71-4.84-14.52-4.24-1.61-4.24-1.61S46.89,41,46.49,40a8.23,8.23,0,0,1,0-3.23l-2.42-1.21a4.72,4.72,0,0,1,.41-2.62s0,.61,1.21.81c.41-.81-.2-2.42-.2-2.42s1.21,1.21,2,1.21c.2-.6-.4-3.63-.2-5.24S50.93,20.65,49.11,17c1-2.42-.4-6.45-1.61-8.27,2,.81,1-.4,1-.4a35.48,35.48,0,0,0-2.83-4.24C44.48,2.7,39.23.28,37.21.88a7.83,7.83,0,0,0-8.47.8C26.32,3.3,23.1,4.92,22.29,9.76a8.23,8.23,0,0,1-2,4.24l1-.2s-1.61,3.63-.81,5.85.61,6.05-.8,6.05a2.19,2.19,0,0,0,2.42-1.41c.2,0,0,3.23,1,4.44a4.73,4.73,0,0,1,.81,3.43c0,.81,1.41,2,2.22,2.42s.8,2-.61,3a10,10,0,0,1-3,1.41s3.23,2.62,3,3.63-2,1.21-2.22,2.22a65.39,65.39,0,0,1-8.07,3c-1.61.4-4.23,3.43-3.83,5.85s-.6,27-.81,28.64-1,6.25-.61,7.06-3,14.12-3.23,15.12-4.24,16.94-4,17.95,2.42,2,2.42,2-2.22,8.87-3,10.48,1,6.45,1,7.26,3,2.62,3.84,3a5.37,5.37,0,0,0,2,.4c.4.61.81,1.21,1.21.61s1,21.78.61,24.6a25,25,0,0,0,.8,8.67c.4.81,5,36.3,5.65,38.93s-.61,12.3,0,13.11S12.61,235,10.39,236a46,46,0,0,1-8.67,2.22c-2.22.4-2.22,2.62-.4,3.43s9.88,2.22,13.91,1.62,9.88-2.82,11.09-2.82,3.23.2,3.23.2a63.73,63.73,0,0,1-4.44,7.26c-1.41,1.61-2.42,4.24.2,4.64s11.7,0,14.52-3,5.65-5.44,5.65-5.44,1.62-.4,3-.6,1.41-1.82,1.41-2.82.41-5.45.41-5.45,2.42,0,2-1.62,2.22-27.23,2.22-28.64,1.82-24.81,1.82-26-.81-18.56-1-19.56,1-13.11,1.41-15.13S58,136.41,58,136.41s5.64,2,8.47,1.21S72.3,136,72.3,136s-3.63-19.77-3.83-21.18,4.24-9.48,4.84-12.1S75.33,94.46,74.52,90.22ZM10.39,143.87c-.81,0-.41-1.21-.41-1.21S11,143.27,10.39,143.87Zm1-2.42L10.19,140v-3s.81-2.82,2-2C12.74,135.35,11.4,141.45,11.4,141.45Zm28,54.25c0,3-1.41,13.72-1.61,15.13s-1.41,13.31-1.41,13.31-1.61-9.48-1.81-12.3-1.82-14.93-2.42-17.55.2-6-.2-6.66-.81-6.25-1-7.06,0-1.21.2-3-.8-6.66-.4-7.46,3-17.54,4.44-16.34c.3.26,4.23,15.13,4,16.94s.4,13.71.6,15.13S39.43,192.67,39.43,195.7Z"/></g></g></svg>