<svg xmlns="http://www.w3.org/2000/svg" xmlns:xlink="http://www.w3.org/1999/xlink" viewBox="0 0 81.04 65.38"><defs><style>.cls-1{fill:url(#新規グラデーションスウォッチ_3);}</style><linearGradient id="新規グラデーションスウォッチ_3" x1="15.23" y1="6.74" x2="48.73" y2="59.24" gradientUnits="userSpaceOnUse"><stop offset="0" stop-color="#ffbe1f"/><stop offset="1" stop-color="#ff6d1f"/></linearGradient></defs><title>mizutani-1yo-icon</title><g id="レイヤー_2" data-name="レイヤー 2"><g id="design"><path class="cls-1" d="M5.71,31.2C.2,27.4.38,18.92,3.06,16c.16-4.28,4.75-5.9,5.35-7.36s-.14-2,.62-2.08S10.6,8.28,10.72,8.8a14,14,0,0,1,9.78,4.57c6.22,1.37,7,6.08,7.62,8.15a8.06,8.06,0,0,1,2-1.09c1.23-2.34,3-4.94,3-4.94s-.47-3.62-.85-5.72c-2.46-1.08-4.28-2.76-3-4.17-1.22-2.15-.45-4.8,1.36-4.12a1.71,1.71,0,0,1,2.09-1c.6-1,1.8-.34,2.1.37.54-.26,1.46.05,1.7,1.17s-.19,1.13-.19,1.13,1.44.62.35,3.72c1.51,2.29,3.67,6.7,3.42,8.47.72,1.74.6,1.95-.46,3.7-.47,1.46-1,3.69-1.51,5.57a31.86,31.86,0,0,1,3.37,2.57,15.55,15.55,0,0,1,10.68,7.5,7.28,7.28,0,0,1,2.57.62c.54-1.23,3.74-5.28,5.6-5.82,1.07-.86,2.17-1.83,5.3-.46S69,32.17,69.58,33.8c1.09,1.62,3.32,11.91,3.32,11.91a6.23,6.23,0,0,0,1.26.92c7.93.91,6.58,2.94,6.64,3.2a1.76,1.76,0,0,1,.13,1.51c.15.41-.22.93-1.24,1.06-.75.56-2.62.61-3.7.47s-3.58.5-5,.4-2.54-3.33-2.54-3.33A13.31,13.31,0,0,1,68,48.23c-.56-.75-4.42-5.26-4.49-7-.08.85-.31,4.37-.31,4.37a8.38,8.38,0,0,0-.62,2.57c.19,1.78-2.22,5.65-3.82,6.13a42.17,42.17,0,0,1,3.87,2.41,22.84,22.84,0,0,0,5,.45c1.74-.57,5.13-.25,7.43-.07,1.45-.39,2.36-.55,3.33.55s-.33,1.9-.74,2c.53.37-.16,1.69-.85,2,.36.58-.34,1.4-1.24,1.56.38.46.33,1.19-1.33.92s-7.06-.46-8.16-.48-7.18,2.11-10.27,1.61A33.31,33.31,0,0,1,44,60.76c-5-2.2-8-8.34-9-9.82-.88-1.3-7-3.29-11.74-6.7-1.1,2.91-2.64,6.28-6.2,7.34-2.9,1.78-7.76-.62-10.47-3.75-1-1-2.77.2-5.68-3.09C-.26,43.23-.28,41.25.77,41c-.36-1.07.21-2.92,1.66-2.81,1.56-1.36,2.3-1.37,3.66-.85.91.34,1.14.4,1.14.4S8,36.07,9.12,36.58s0,1.75.09,3.24c0,.38,1,1,1.25,3a36.36,36.36,0,0,0,3.86,1.42s1.61-7.34,3.94-10.59a.91.91,0,0,0-.11-.22C17.32,32.25,11.23,35,5.71,31.2Z"/></g></g></svg>