<svg xmlns="http://www.w3.org/2000/svg" xmlns:xlink="http://www.w3.org/1999/xlink" viewBox="0 0 81.45 259.16"><defs><style>.cls-1{fill:url(#新規グラデーションスウォッチ_3);}.cls-2{fill:url(#新規グラデーションスウォッチ_3-2);}.cls-3{fill:url(#新規グラデーションスウォッチ_3-3);}</style><linearGradient id="新規グラデーションスウォッチ_3" x1="117.72" y1="80.48" x2="49.72" y2="231.15" gradientUnits="userSpaceOnUse"><stop offset="0" stop-color="#ffbe1f"/><stop offset="1" stop-color="#ff6d1f"/></linearGradient><linearGradient id="新規グラデーションスウォッチ_3-2" x1="110.2" y1="77.09" x2="42.2" y2="227.75" xlink:href="#新規グラデーションスウォッチ_3"/><linearGradient id="新規グラデーションスウォッチ_3-3" x1="83.34" y1="64.97" x2="15.34" y2="215.63" xlink:href="#新規グラデーションスウォッチ_3"/></defs><title>mizutani-28yo-icon</title><g id="レイヤー_2" data-name="レイヤー 2"><g id="design"><path class="cls-1" d="M80.07,159.89l-8.54-.29S60.14,168.86,60,170s-.14,33-.14,35.32.43,2.42,1.28,2.42h12.1c.57,0,8-7.26,8-8V162.17C81.21,160.6,81.36,159.89,80.07,159.89Z"/><path class="cls-2" d="M74.17,145.79a2.1,2.1,0,0,0-3.42.71c-.28,1.28-4.27,19.51-4.27,19.51.14,1.14,1.57-.43,1.57-.43s3.42-16.23,3.85-17.65c.27-.91.37-1.35.55-1.48a1.66,1.66,0,0,0-.27.77c-.14,1.14-.86,18.51-.86,18.51.28,1.57,1.28.57,1.28-.28s.48-13.2.56-16.89c.69,5.15,2.43,18.33,2.43,19,0,.86,1.71.43,1.71.43Z"/><path class="cls-3" d="M80.85,77.7c1.08-1.44.36-6.49.36-6.49A27.71,27.71,0,0,1,79,60.74c0-5.77-1-8.83-3.25-10.82A4.1,4.1,0,0,0,74.3,49a2.5,2.5,0,0,0-1.71-.53c-2.14-.67-10.43-3.88-10.43-3.88l-.4-.8-5.48-2.14-2-3.21s0-2.82-2.25-2.7L51.36,31s.49-1.85,1-2.09.49-1,.74-1.48c.62-.12,1.36-2,2.09-3.82s1.11-3.94.12-4.56c0,0,.12-4.19.37-6.41S54.32,8,51.61,5.92C50.38,3.08,47.67,1.24,44.46.25s-7.14,1.11-7.64,3A4.88,4.88,0,0,0,33,7.27s-1.11-.12-2.09,1.6c-2.71,5,.37,11.08.37,11.08-.86-.25-.86,1.72-.49,3a20.83,20.83,0,0,0,1.35,3.2c.37.74.74.37.74.37A34.82,34.82,0,0,0,34.36,33a32,32,0,0,0,2.71,4.56l.11,2.35a1.52,1.52,0,0,0-.58.66c-.4.94-1.6,3.21-1.6,3.21s-6.82,3.08-6.82,3.48v.4l-9.5,4.82c-.8.4-2.27.4-2.81,2.94s-.4,4.55-.67,5.21-1.47,3.08-1.2,4.28,1.34,4.81.8,6.29S12.4,76.29,12.4,79s1.2,5.22.53,7-.67,5.08-.67,6.29-1.34,9.5-1.2,10.7-1.07,6.82.13,9.36,0,8.43,0,9.5,1.47,9.49,2.54,10.43A3.2,3.2,0,0,0,16,133s2.54,19,2.67,22.47,1.74,25.18,2.27,26.25.4,4.14.27,5.35-1.07,15.11-1.34,16.45-.53,11-.53,11,.8,9.63.67,10.57-1.61,3.21-1.07,4.15-5.75,13.64-7.36,14-9.5,5-11,6-.13,3.34,1.74,4.15,11.64.67,13.64-.67,4.55-4.41,6-5,1.34.8,2,.94,4.95-.4,5.75-1.74.67-7.09.67-7.09l.94-1.34s-.13-8.83-.4-9.49,3.48-8.16,3.08-9.9a49.05,49.05,0,0,1-.4-5.09c-.13-.53,3.21-19.12,3.08-20.72s1.2-13.91,1.07-14.31,1.61-15.55,1.87-16.62,3.08-15.65,3.61-17.12,5.62,22.5,5.62,24.91,2.54,20.33,3.34,22.47A27.22,27.22,0,0,1,54,198.3c0,.94-1.07,3.61-.94,4.41s1.34,11.36,2.14,12,1.2,2.68,1.74,4,1.74,6.69,1.74,6.69-1.21,6.15-1.47,7.09-.8,7,.27,7.49.67,5.35,1.21,6.69,2.54,3.07,2.54,3.61A7.41,7.41,0,0,0,63,255.54c1.87,2,7,4.82,10.16,3.08s.67-8.69-1.07-11.24-1.6-7.89-2-8.29,1.2-7.62.67-8.69-.8-3.61-1.2-4-.13-7.22-.13-8.16-2.14-29.29-2.27-30.36.13-15.92.4-17.52.67-11.27.67-11.67c0-.15.24-3,.54-6.63a1,1,0,0,0,.35-.23L70.81,153a4.75,4.75,0,0,0,2.68.16,1.79,1.79,0,0,0,.81-.69,5.06,5.06,0,0,0,1.46-.69,10.61,10.61,0,0,1,1-1.13c.12-.08,1.74-1,1.86-1.83s-.16-7.25-.16-7.25,1.1.08,1.18-.33a10.41,10.41,0,0,0,.05-1.36,1.29,1.29,0,0,0,.6-.71c.36-1.08.91-40.19.91-41.63V87.07C81.21,86,79.77,79.14,80.85,77.7ZM66.43,101.83a104.33,104.33,0,0,1-.53-13.24c.27-1.47.94-3.61.94-3.61l.58-2.07.45,7.41v6.49l-.36,5.77L70,117.73l-.27,2.15c-.6-3.21-1.16-6-1.32-6.55C68,112.13,66.7,102.64,66.43,101.83Z"/></g></g></svg>