<svg xmlns="http://www.w3.org/2000/svg" xmlns:xlink="http://www.w3.org/1999/xlink" viewBox="0 0 129.27 252.59"><defs><style>.cls-1{fill:url(#新規グラデーションスウォッチ_3);}.cls-2{fill:url(#新規グラデーションスウォッチ_3-2);}</style><linearGradient id="新規グラデーションスウォッチ_3" x1="132.02" y1="-24.22" x2="16.02" y2="217.78" gradientUnits="userSpaceOnUse"><stop offset="0" stop-color="#ffbe1f"/><stop offset="1" stop-color="#ff6d1f"/></linearGradient><linearGradient id="新規グラデーションスウォッチ_3-2" x1="159.79" y1="-10.9" x2="43.79" y2="231.1" xlink:href="#新規グラデーションスウォッチ_3"/></defs><title>mizutani-19yo-icon</title><g id="レイヤー_2" data-name="レイヤー 2"><g id="design"><path class="cls-1" d="M27.69,19.27c-.37,2,.18,5,1.47,6.08,0,0,1.29.74,1.48,1.47s.37,3.68.37,3.68-2.21.92-2.21,2.76c-1.84.92-2.95.92-3.13,2.21S23.08,37,22.71,38.06a2.47,2.47,0,0,1-2.58,1.47c-1.1,0-2.39.55-2,1.84a3.39,3.39,0,0,1-2.58,2.4c-.92.18-2.95,2.76-3.32,3.5s-5.53,6.63-5,8.29a5.21,5.21,0,0,1-.37,3.87c-.37.92-3.32,11.24-3.5,12.35C2.08,73.07.6,77.12.6,77.12S.41,83.57,0,85.23s1.47,5.9,2.58,7.37,4.06,3.32,6.45,2.95,7.56-.55,8.85-.92,3.32-.74,3.5.18-1.29,6.08-2.95,7.92-.55,4.61.37,5.34.55,2.4.92,3.87-1.66,19.35-1.29,29.11,3.87,27.09,3.5,29.3a15.91,15.91,0,0,0,0,5.16c.18,1.29.37,17.69.18,19.9-1.66,1.11-.55,4.05-.55,4.6s4.24,17.88,3.87,19.35-1.11,1.11-.92,2.76a34.12,34.12,0,0,0,1.29,4.42c.18.92-.74,5.71-.74,8.11s-1.1,5.9.74,7.18c1.29,4.42,12,5.53,15.84,5s3.32-3.68.55-6.45a11.34,11.34,0,0,1-3.13-6.81c-.19-.92-.55-4.61-.55-5.53s-.55-11.24-.37-12.16-.37-15.66-.37-17.5a17.7,17.7,0,0,0-.74-4.24l-.19-1.84s-.92-8.1-.37-9.4a15.1,15.1,0,0,0,.55-4.23s2-21,2.39-25.43,3.5-13.08,3.69-14.74,2.4-2.21,3.69,4.24,7.37,23.22,7.37,25.43v4.79s5,13.63,4.79,17.5.37,7.92.18,8.48a3.77,3.77,0,0,0-.18,2.95c.55,1.29,3.13,8.84,3.13,10.5s1.29,12.34,1.48,13.08-.92,1.1-.74,2.58,0,2.94.18,3.86,2,3.13,2.21,4.61.92,7.74.92,9a4,4,0,0,0,3.5,3.87c2.76.55,4.42.73,5.34.18s5.16,2.58,9.21,2.95c3.69.18,4.24,0,5-1.84a2.58,2.58,0,0,0-1.47-3.31,112.56,112.56,0,0,1-9-9.58c-.55-.92-1.11-5.71-1.11-6.45s-.74-8.84-.92-9.58S76,201.5,76,200.21a14.51,14.51,0,0,0-.92-3.68S72.09,180.67,71.91,179a45.49,45.49,0,0,0-1.11-5s-.37-4.79-.74-6.26-1.29-40.17-2-43.12a54.39,54.39,0,0,1-1.47-7.92c0-1.1.55-.92-.19-2.58s-1.66-4.61-1.66-4.61,2-.55,2-2-2.21-7.37-2.58-8.48-.19-3.69.92-3.69,3.5.55,4.79-.92S75,87.07,75,85.78a88.7,88.7,0,0,0-1.66-9.21c-.37-1.47-4.24-19.9-4.61-22.3s-2.95-9-5.53-10.13-6.63-1.66-7.18-2.58S55.51,39,54.22,38.8s-.37-2.39-2-2.76c-.92-1.11-1.29-2.21-2-2.58s-1.1-2.76-2.21-3.87c0-.92,1.11-1.29,1.11-1.29a5.93,5.93,0,0,0,2.4-2.95,22.47,22.47,0,0,0,.74-3.69L53.12,23s.19,0-.18-2.77c0,0,.73,1.11,1.65,1.11-.18-.55-.18-6.08-.74-7.18.92,1.47,1.48.74,1.48.74A51.75,51.75,0,0,1,53,8.49c-.37-1.84-.64-2.49-1.56-2.86.92,0,2.21,1.29,2.21,1.29A16,16,0,0,0,49.8,2.68a9.57,9.57,0,0,0-4.42-1.29C46.11,1,47,.47,47,.47S46.11-.26,43.9.1a33.41,33.41,0,0,0-4.42,1.11s-3.69-1.47-7.92,2c-1.66,1.29-2.77,2.21-2.77,2.21a3.67,3.67,0,0,0,2-.19,6.61,6.61,0,0,0-2.58,3.32,11.49,11.49,0,0,1-1.66,3.5,4.58,4.58,0,0,0,1.48-.74c-.92,2-2,4.24-1.66,6.08.55.18,1.29-.56,1.29-.56s-1.48,2.3-1,3.78A3.15,3.15,0,0,1,27.69,19.27Z"/><path class="cls-2" d="M64.05,80.21S65.57,85,67.8,92c1.85,5.78,2.77,7,3.75,7.47s5.7-2.56,6.76-4.83c-.05,1.62-2.66,13.25-2.88,13.82-1.1,2.85-4.87,42.27-4.87,42.27a6.32,6.32,0,0,0,3.41.53c1.69-.31,2.29,2,2.56,1.1s1.67-2,2.53-1.73a2.8,2.8,0,0,0,1.12.06c1.19,6.75,5,21.53,4.84,24.51-.24,3.69-2.49,5.13-.68,13.89S90.39,221,90.39,221,88.82,231.2,88.29,234a11.68,11.68,0,0,0,.35,5.38s.34,4.53.92,5.65,8.79.46,9.92.16,1.09-4,1.06-6.25a4.22,4.22,0,0,0,.22-1,4,4,0,0,0,1.75-.68s.79-4.83,1.05-6.53-.63-5.09-1.5-6.78-.39-8.49-.41-10.19,2.16-8.81,4.88-17.91,2.87-20.72,3.13-21.85-.63-5.09.18-8.22c.57-2.19,3.12-12.89,4.6-19.1a.87.87,0,0,0,.27-.23c.84-1.14,2.51-3.43,3.64-3.72s1.76.12,1.71-4a3.34,3.34,0,0,0,2.07,1.5c.88.21,2.75-.8,2.75-.8a6.12,6.12,0,0,1-1.51,2.66c-1.2,1.23.45,1,1.11.54a20.77,20.77,0,0,0,3.27-3.13c.76-1,.48-2.5,1.34-4.57s-1.25-5.86-1.56-7.62-2.89-19.95-2.67-25.83-1.59-10.27-1.92-12.91a123.48,123.48,0,0,1-1.1-17.91,54,54,0,0,0-.78-9.52c-2.1-9.89-10.31-9.51-11.46-10.34a3.85,3.85,0,0,1-.9-4.24c.55-1.42-1.19-4.52-2.05-5.64s-.87-1.69-.62-4.52a19,19,0,0,0-3.54-11.29c-.05-4.25-5.77-8.71-10.86-7.8a8.35,8.35,0,0,0-7.05,2.35c-3.36,3.16-5.61,4.89-6.1,10.84s-1.52,6.78-1.87,9.09c-.53,3.41.12,9.63-1,10.78a12.66,12.66,0,0,0-3.88,6.85s-3.33,10.45-1.89,17.2,2,12.42,1.25,14.06c-.14.28,1.25,1.14.9,2.4C70.62,84.36,67.43,79.53,67.42,79Zm49,2c.18-1.07.31-2.21.41-3.36a79.09,79.09,0,0,0,2.6,9.78c.56.76,1.19,7.15,1.13,11.33s4.88,21.1,4.69,23.42a37.94,37.94,0,0,0-.13,7.82c.35,1.87.82,3.63.6,4a17.74,17.74,0,0,0-.75,1.66s-.76.67-.89-.32c-.08-.62-.49-.67-.81-.49-.62-7.43-6.65-36.29-7-38.5A71,71,0,0,1,113.07,82.17Z"/></g></g></svg>