<svg xmlns="http://www.w3.org/2000/svg" xmlns:xlink="http://www.w3.org/1999/xlink" viewBox="0 0 80.98 177.18"><defs><style>.cls-1{fill:url(#新規グラデーションスウォッチ_3);}</style><linearGradient id="新規グラデーションスウォッチ_3" x1="107.79" y1="-9.06" x2="2.79" y2="166.43" gradientUnits="userSpaceOnUse"><stop offset="0" stop-color="#ffbe1f"/><stop offset="1" stop-color="#ff6d1f"/></linearGradient></defs><title>mizutani-12yo-icon</title><g id="レイヤー_2" data-name="レイヤー 2"><g id="design"><path class="cls-1" d="M41.94,2.11c-3.37,1.8-6.75,9.67-4.72,15.07a44.79,44.79,0,0,0,4.95,9.44s1.35,1.57.9,2.25S37.89,34,33.84,39s-6.07,15.51-6.3,21.36S22.83,79,22.83,79C21,81.49,19.9,83.73,21,84.63s-5.62,9.45-.23,16.64a177.11,177.11,0,0,0,13.72,15.52c1.8,2.25,2.7,3.6,2.92,4.72a30.11,30.11,0,0,1-.45,5.4s-6.07-1.35-9,0-10.57,5.62-10.57,5.62a13.81,13.81,0,0,0-6.52-2.7c-3.37-.22-7.42,2.47-7.2,5.4s-.67,5.4-2.25,9.89-2.47,8.77.45,13,5.62,2.25,6.07.68,2.7-7,2.7-7c.45-.9,5.4-9.22,5.4-9.22l1.8-2s11.47-3.37,14.62-3.37,6.07.23,6.75,0c-.45,1.8-2.25,5.85-1.8,9.45S35,161.76,34.07,162.43s-2.47-.23-3.6,1.12-4,9.22-1.12,11.47,10.57-1.35,14.17.9,11.92,1.13,13.94-.67,1.57-2.92-2.47-4.5-7.42-2.92-8.09-4.5-3.15-3.6-3.82-3.6,4.95-14.39,5.85-18,2.92-8.09,3.6-10.57S55,124.21,52.28,117c-1.07-2.86-4.27-14.39-5.4-16.19s-.67-9-.67-9,4.27.45,3.82-.68.45-19.34.68-22S53.63,62.6,54.08,61s3.37-10.8,3.37-10.8,4.95-4.5,4.72-7.19-.22-.9-.22-.9l7.42-9.89c1.35-1.8,2.92-4.5,4.5-5.4s3.37-1.12,3.15-2.92c-.23.22,2.25,1.35,2.47-.23s-.9-4.5-.9-4.5l-2.47-1.12s2-2.7,2.92-3.6,3.15-2.92,1.12-2.92-3.82,1.8-5.17,3.37-3.37,2.92-3.6,4.27a40.52,40.52,0,0,1-2.25,5.62s-5.2,5.7-5.62,5.17c-1.8-2.25,2.13-5.46,1.35-10.12a40.49,40.49,0,0,0-1.35-4.5s.23-5.62-.45-6.07a3.94,3.94,0,0,0,2.7-2.47c-.22-.22-3.82.23-3.82.23A4.65,4.65,0,0,0,64.2,3.91a14.2,14.2,0,0,1-5.4-.67C56.78,2.34,49.36-2.83,41.94,2.11Z"/></g></g></svg>