<svg xmlns="http://www.w3.org/2000/svg" viewBox="0 0 185.87 30.03"><title>access-index</title><g id="レイヤー_2" data-name="レイヤー 2"><g id="design"><path d="M2.58,22.84l-1.73,7H0L7.15.17H8.46l7.32,29.65h-.93l-1.73-7ZM2.75,22H12.94L7.78,1.27Z"/><path d="M50,7.49V9.77h-.93V7.45c0-3.6-1.35-6.6-5.25-6.6s-5.29,3-5.29,6.6V22.59c0,3.59,1.35,6.56,5.29,6.56s5.25-3,5.25-6.56V19.33H50v3.21C50,26.65,48.3,30,43.77,30s-6.18-3.38-6.18-7.49V7.49C37.6,3.38,39.29,0,43.77,0S50,3.38,50,7.49Z"/><path d="M84.25,7.49V9.77h-.93V7.45c0-3.6-1.35-6.6-5.25-6.6s-5.29,3-5.29,6.6V22.59c0,3.59,1.35,6.56,5.29,6.56s5.25-3,5.25-6.56V19.33h.93v3.21c0,4.1-1.69,7.49-6.22,7.49s-6.18-3.38-6.18-7.49V7.49C71.85,3.38,73.54,0,78,0S84.25,3.38,84.25,7.49Z"/><path d="M115.79,14.38v.85h-8.71v13.7h10.36v.89H106.15V.21h11.29V1.1H107.08V14.38Z"/><path d="M151.61,7.36v.55h-.93V7.32c0-3.51-1.31-6.47-5.16-6.47s-5.2,2.92-5.2,6.43c0,7.57,11.33,7.36,11.33,15.4,0,4.1-1.69,7.36-6.22,7.36s-6.17-3.26-6.17-7.36V21.23h.89v1.48c0,3.59,1.4,6.43,5.29,6.43s5.29-2.83,5.29-6.43c0-7.49-11.34-7.23-11.34-15.4C139.39,3,141.21,0,145.48,0,150,0,151.61,3.3,151.61,7.36Z"/><path d="M185.83,7.36v.55h-.93V7.32c0-3.51-1.31-6.47-5.16-6.47s-5.2,2.92-5.2,6.43c0,7.57,11.33,7.36,11.33,15.4,0,4.1-1.69,7.36-6.22,7.36s-6.18-3.26-6.18-7.36V21.23h.89v1.48c0,3.59,1.4,6.43,5.29,6.43s5.29-2.83,5.29-6.43c0-7.49-11.34-7.23-11.34-15.4C173.6,3,175.42,0,179.7,0,184.18,0,185.83,3.3,185.83,7.36Z"/></g></g></svg>