<svg xmlns="http://www.w3.org/2000/svg" viewBox="0 0 351.31 30.03"><title>ceomessage-index</title><g id="レイヤー_2" data-name="レイヤー 2"><g id="design"><path d="M6.17,0A6.38,6.38,0,0,1,9,.59,5.24,5.24,0,0,1,11,2.2a6.75,6.75,0,0,1,1.08,2.39,12.08,12.08,0,0,1,.34,2.9V9.77h-.93V7.44a11.47,11.47,0,0,0-.28-2.56,6,6,0,0,0-.89-2.09A4.43,4.43,0,0,0,8.67,1.37,5.27,5.27,0,0,0,6.22.85a5.36,5.36,0,0,0-2.5.53A4.42,4.42,0,0,0,2.09,2.79a6,6,0,0,0-.89,2.09A11.47,11.47,0,0,0,.93,7.44V22.58a11.18,11.18,0,0,0,.27,2.54,6,6,0,0,0,.89,2.07,4.41,4.41,0,0,0,1.63,1.42,5.35,5.35,0,0,0,2.5.53,5.25,5.25,0,0,0,2.45-.53,4.42,4.42,0,0,0,1.63-1.42,6,6,0,0,0,.89-2.07,11.18,11.18,0,0,0,.28-2.54V19.33h.93v3.21a12.08,12.08,0,0,1-.34,2.9A6.74,6.74,0,0,1,11,27.83,5.23,5.23,0,0,1,9,29.43,6.38,6.38,0,0,1,6.17,30a6.25,6.25,0,0,1-2.86-.59,5.25,5.25,0,0,1-1.9-1.61A6.72,6.72,0,0,1,.34,25.44,12.08,12.08,0,0,1,0,22.54V7.49a12.08,12.08,0,0,1,.34-2.9A6.73,6.73,0,0,1,1.42,2.2,5.26,5.26,0,0,1,3.32.59,6.25,6.25,0,0,1,6.17,0Z"/><path d="M43.94,14.38v.85H35.23v13.7H45.59v.89H34.3V.21H45.59V1.1H35.23V14.38Z"/><path d="M67.45,7.49A8.52,8.52,0,0,1,69,1.88,5.77,5.77,0,0,1,73.71,0a5.87,5.87,0,0,1,4.76,1.88,8.52,8.52,0,0,1,1.59,5.6V22.54a8.52,8.52,0,0,1-1.59,5.6A5.87,5.87,0,0,1,73.71,30,5.77,5.77,0,0,1,69,28.15a8.52,8.52,0,0,1-1.59-5.6Zm.93,15.1q0,6.6,5.33,6.6t5.41-6.6V7.44q0-6.6-5.41-6.6t-5.33,6.6Z"/><path d="M136.39,29.73h-1.06L128,1.61V29.82h-.85V.21h1.44l7.27,28.08L143.15.21h1.44v29.6h-.93V1.61Z"/><path d="M176.23,14.38v.85h-8.71v13.7h10.36v.89H166.58V.21h11.29V1.1H167.51V14.38Z"/><path d="M205.91,0a6.44,6.44,0,0,1,2.85.57,4.92,4.92,0,0,1,1.88,1.59,7,7,0,0,1,1.06,2.35A11.61,11.61,0,0,1,212,7.36v.55h-.93V7.32a11,11,0,0,0-.27-2.5A6.26,6.26,0,0,0,210,2.75a4.13,4.13,0,0,0-1.59-1.4A5.3,5.3,0,0,0,206,.85a5.4,5.4,0,0,0-2.47.51,4.12,4.12,0,0,0-1.59,1.4A6.22,6.22,0,0,0,201,4.8a10.72,10.72,0,0,0-.28,2.47,5.81,5.81,0,0,0,.85,3.21,10.28,10.28,0,0,0,2.09,2.35,23.3,23.3,0,0,0,2.73,1.95,21,21,0,0,1,2.73,2,10.19,10.19,0,0,1,2.09,2.5,6.53,6.53,0,0,1,.85,3.4,11.83,11.83,0,0,1-.34,2.88,6.55,6.55,0,0,1-1.08,2.35,5.15,5.15,0,0,1-1.92,1.56,6.57,6.57,0,0,1-2.88.57,6.43,6.43,0,0,1-2.85-.57,5.18,5.18,0,0,1-1.9-1.56A6.54,6.54,0,0,1,200,25.54a11.83,11.83,0,0,1-.34-2.88V21.23h.89v1.48a10.86,10.86,0,0,0,.28,2.52,5.55,5.55,0,0,0,.91,2,4.54,4.54,0,0,0,1.63,1.38,6.24,6.24,0,0,0,4.93,0A4.5,4.5,0,0,0,210,27.26a5.56,5.56,0,0,0,.91-2,10.91,10.91,0,0,0,.28-2.52,5.73,5.73,0,0,0-.85-3.17,10.37,10.37,0,0,0-2.09-2.35,22,22,0,0,0-2.73-1.92,18.49,18.49,0,0,1-2.73-2,10.49,10.49,0,0,1-2.09-2.52,6.6,6.6,0,0,1-.85-3.45,8.84,8.84,0,0,1,1.44-5.26A5.42,5.42,0,0,1,205.91,0Z"/><path d="M240.13,0A6.44,6.44,0,0,1,243,.57a4.92,4.92,0,0,1,1.88,1.59,7,7,0,0,1,1.06,2.35,11.61,11.61,0,0,1,.34,2.85v.55h-.93V7.32a11,11,0,0,0-.27-2.5,6.26,6.26,0,0,0-.87-2.07,4.13,4.13,0,0,0-1.59-1.4,5.3,5.3,0,0,0-2.43-.51,5.4,5.4,0,0,0-2.47.51,4.12,4.12,0,0,0-1.59,1.4,6.22,6.22,0,0,0-.87,2.05A10.72,10.72,0,0,0,235,7.27a5.81,5.81,0,0,0,.85,3.21,10.28,10.28,0,0,0,2.09,2.35,23.3,23.3,0,0,0,2.73,1.95,21,21,0,0,1,2.73,2,10.19,10.19,0,0,1,2.09,2.5,6.53,6.53,0,0,1,.85,3.4,11.83,11.83,0,0,1-.34,2.88,6.55,6.55,0,0,1-1.08,2.35A5.15,5.15,0,0,1,243,29.46a6.57,6.57,0,0,1-2.88.57,6.43,6.43,0,0,1-2.85-.57,5.18,5.18,0,0,1-1.9-1.56,6.54,6.54,0,0,1-1.08-2.35,11.83,11.83,0,0,1-.34-2.88V21.23h.89v1.48a10.86,10.86,0,0,0,.28,2.52,5.55,5.55,0,0,0,.91,2,4.54,4.54,0,0,0,1.63,1.38,6.24,6.24,0,0,0,4.93,0,4.5,4.5,0,0,0,1.65-1.37,5.56,5.56,0,0,0,.91-2,10.91,10.91,0,0,0,.28-2.52,5.73,5.73,0,0,0-.85-3.17,10.37,10.37,0,0,0-2.09-2.35,22,22,0,0,0-2.73-1.92,18.49,18.49,0,0,1-2.73-2,10.49,10.49,0,0,1-2.09-2.52A6.6,6.6,0,0,1,234,7.32a8.84,8.84,0,0,1,1.44-5.26A5.42,5.42,0,0,1,240.13,0Z"/><path d="M270.66,22.84l-1.73,7h-.85L275.23.17h1.31l7.32,29.65h-.93l-1.73-7Zm.17-.85H281L275.86,1.27Z"/><path d="M311.85,0a6.38,6.38,0,0,1,2.88.59,5.24,5.24,0,0,1,1.92,1.61,6.75,6.75,0,0,1,1.08,2.39,12.08,12.08,0,0,1,.34,2.9V9.43h-.93v-2a11.47,11.47,0,0,0-.28-2.56A6,6,0,0,0,316,2.79a4.43,4.43,0,0,0-1.63-1.42,5.27,5.27,0,0,0-2.45-.53,5.36,5.36,0,0,0-2.5.53,4.42,4.42,0,0,0-1.63,1.42,6,6,0,0,0-.89,2.09,11.47,11.47,0,0,0-.27,2.56V22.58a11.18,11.18,0,0,0,.27,2.54,6,6,0,0,0,.89,2.07,4.41,4.41,0,0,0,1.63,1.42,5.35,5.35,0,0,0,2.5.53,5.25,5.25,0,0,0,2.45-.53A4.42,4.42,0,0,0,316,27.19a6,6,0,0,0,.89-2.07,11.18,11.18,0,0,0,.28-2.54V15.86h-4.61V15h5.54v7.53a12.08,12.08,0,0,1-.34,2.9,6.74,6.74,0,0,1-1.08,2.39,5.23,5.23,0,0,1-1.92,1.61,6.38,6.38,0,0,1-2.87.59,6.25,6.25,0,0,1-2.86-.59,5.25,5.25,0,0,1-1.9-1.61A6.72,6.72,0,0,1,306,25.44a12.08,12.08,0,0,1-.34-2.9V7.49a12.08,12.08,0,0,1,.34-2.9,6.73,6.73,0,0,1,1.08-2.39A5.26,5.26,0,0,1,309,.59,6.25,6.25,0,0,1,311.85,0Z"/><path d="M349.66,14.38v.85h-8.71v13.7h10.36v.89H340V.21h11.29V1.1H340.95V14.38Z"/></g></g></svg>