<svg xmlns="http://www.w3.org/2000/svg" viewBox="0 0 352.31 32.85"><defs><style>.cls-1{fill:#fff;stroke:#231815;stroke-miterlimit:10;}</style></defs><title>ceo-index</title><g id="レイヤー_2" data-name="レイヤー 2"><g id="design"><path class="cls-1" d="M12.89,9.81v2.28H12V9.77c0-3.6-1.35-6.6-5.25-6.6s-5.29,3-5.29,6.6V24.91c0,3.59,1.35,6.56,5.29,6.56s5.25-3,5.25-6.56V21.65h.93v3.21c0,4.1-1.69,7.49-6.22,7.49S.5,29,.5,24.87V9.81c0-4.1,1.69-7.49,6.18-7.49S12.89,5.71,12.89,9.81Z"/><path class="cls-1" d="M44.44,16.7v.85H35.73v13.7H46.09v.89H34.8V2.53H46.09v.89H35.73V16.7Z"/><path class="cls-1" d="M68,9.81c0-4.91,2.16-7.49,6.26-7.49s6.34,2.58,6.34,7.49V24.87c0,4.91-2.16,7.49-6.34,7.49S68,29.77,68,24.87Zm.93,15.1c0,4.36,1.82,6.6,5.33,6.6s5.41-2.24,5.41-6.6V9.77c0-4.36-1.86-6.6-5.41-6.6s-5.33,2.24-5.33,6.6Z"/><path class="cls-1" d="M136.89,32.06h-1.06L128.51,3.93V32.14h-.85V2.53h1.44l7.28,28.09,7.28-28.09h1.44V32.14h-.93V3.93Z"/><path class="cls-1" d="M176.73,16.7v.85H168v13.7h10.36v.89H167.08V2.53h11.29v.89H168V16.7Z"/><path class="cls-1" d="M212.55,9.68v.55h-.93V9.64c0-3.51-1.31-6.47-5.16-6.47s-5.2,2.92-5.2,6.43c0,7.57,11.33,7.36,11.33,15.4,0,4.1-1.69,7.36-6.22,7.36S200.2,29.1,200.2,25V23.56h.89V25c0,3.59,1.4,6.43,5.29,6.43s5.29-2.83,5.29-6.43c0-7.49-11.34-7.23-11.34-15.4,0-4.31,1.82-7.28,6.09-7.32C210.9,2.32,212.55,5.62,212.55,9.68Z"/><path class="cls-1" d="M246.76,9.68v.55h-.93V9.64c0-3.51-1.31-6.47-5.16-6.47s-5.2,2.92-5.2,6.43c0,7.57,11.33,7.36,11.33,15.4,0,4.1-1.69,7.36-6.22,7.36s-6.17-3.26-6.17-7.36V23.56h.89V25c0,3.59,1.4,6.43,5.29,6.43s5.29-2.83,5.29-6.43c0-7.49-11.34-7.23-11.34-15.4,0-4.31,1.82-7.28,6.09-7.32C245.11,2.32,246.76,5.62,246.76,9.68Z"/><path class="cls-1" d="M271.16,25.16l-1.73,7h-.85l7.15-29.65H277l7.32,29.65h-.93l-1.73-7Zm.17-.85h10.19L276.36,3.59Z"/><path class="cls-1" d="M318.57,9.81v1.95h-.93v-2c0-3.6-1.35-6.6-5.25-6.6s-5.29,3-5.29,6.6V24.91c0,3.59,1.35,6.56,5.29,6.56s5.25-3,5.25-6.56V18.19H313v-.85h5.54v7.53c0,4.1-1.69,7.49-6.22,7.49s-6.18-3.38-6.18-7.49V9.81c0-4.1,1.69-7.49,6.18-7.49S318.57,5.71,318.57,9.81Z"/><path class="cls-1" d="M350.16,16.7v.85h-8.71v13.7h10.36v.89H340.52V2.53h11.29v.89H341.45V16.7Z"/></g></g></svg>