<svg xmlns="http://www.w3.org/2000/svg" viewBox="0 0 530.21 74.56"><title>culture-index</title><g id="レイヤー_2" data-name="レイヤー 2"><g id="design"><path d="M30.77,18.59v5.67H28.46V18.48c0-8.93-3.36-16.38-13-16.38S2.31,9.56,2.31,18.48V56.08c0,8.93,3.36,16.28,13.13,16.28s13-7.35,13-16.28V48h2.31v8c0,10.19-4.2,18.59-15.44,18.59S0,66.16,0,56V18.59C0,8.4,4.2,0,15.33,0S30.77,8.4,30.77,18.59Z"/><path d="M87.37,56c0,8.82,3.15,16.49,12.92,16.49S113.2,64.79,113.2,56V.53h2.21V55.87c0,10.08-4,18.69-15.12,18.69S85.06,65.95,85.06,55.87V.53h2.31Z"/><path d="M169.91,74V.53h2.31v71.3H196.9V74Z"/><path d="M260,74V2.73H243.95V.53h34.44V2.73H262.32V74Z"/><path d="M333.52,56c0,8.82,3.15,16.49,12.92,16.49S359.36,64.79,359.36,56V.53h2.21V55.87c0,10.08-4,18.69-15.12,18.69s-15.23-8.61-15.23-18.69V.53h2.31Z"/><path d="M430.66.53c10.92,0,15.12,6.41,15.12,16.49v6.62c0,9-3.57,14-11.66,15.44,8.19,1.26,11.66,6.62,11.66,14.7V65.32c0,2.83.31,6.41,2,8.72h-2.52c-1.47-2.31-1.79-5.57-1.79-8.72V53.77c0-10.82-6.51-13.65-16.07-13.65h-9V74h-2.31V.53Zm-3.25,37.38c10.19,0,16.07-2.62,16.07-14V17.22c0-8.93-3.47-14.49-12.92-14.49H418.37V37.91Z"/><path d="M526.12,35.7v2.1H504.48v34h25.73V74h-28V.53h28V2.73H504.48v33Z"/></g></g></svg>