<svg xmlns="http://www.w3.org/2000/svg" viewBox="0 0 422.54 157.78"><defs><style>.cls-1{fill:#ff4700;}</style></defs><title>whatweare-5-modalnum</title><g id="レイヤー_2" data-name="レイヤー 2"><g id="WWAhover5"><path class="cls-1" d="M112.24,151.85l-1.95-2.5c8.17-2.11,17-6.39,22.19-12.18H117.86c-.33,1.06-.72,2.06-1,2.89l-3.11-.22a126.43,126.43,0,0,0,4.17-13.57h16.35V120.1H115.41v-2.56h40.37v11.23H137.43v5.78h20.85c-1.11,9.62-2.45,14-4.39,14.9a4.87,4.87,0,0,1-2.45.5c-1.17.06-3.78-.06-5.34-.11l-.33-2.84c1.45.11,3.89.11,4.95.11a3.35,3.35,0,0,0,1.17-.22c1.11-.5,2.11-3.34,2.95-9.73h-17.4v17.24h-3.17V139.12C128.76,145.07,120.25,149.46,112.24,151.85Zm18-36.09-2.84.95a26.66,26.66,0,0,0-3.17-6.28H119.7a40.29,40.29,0,0,1-6.67,7.45l-2.56-1.56A30.91,30.91,0,0,0,120,103.76l2.84.61A30.3,30.3,0,0,1,121.2,108H136v2.45h-8.62A27.93,27.93,0,0,1,130.26,115.77Zm4,18.79v-5.78H120.42c-.56,1.89-1.17,3.89-1.72,5.78ZM155,115.93,152.17,117a28,28,0,0,0-4-6.62h-5.84a32.9,32.9,0,0,1-6.45,6.9l-2.56-1.5a27.29,27.29,0,0,0,9.29-12.07l2.89.56a21.86,21.86,0,0,1-1.67,3.67h17.46v2.45h-9.73A28.43,28.43,0,0,1,155,115.93Zm-17.57,10.34h15.12V120.1H137.43Z"/><path class="cls-1" d="M226.56,150.22c-4.71,4.71-11.27,7.56-20.25,7.56s-16-2.85-20.4-7.27-6.56-10.41-7.13-17.69H189c1.28,10.13,6.56,15.83,17.26,15.83a17.71,17.71,0,0,0,12.55-4.71c5.28-5.28,5.56-13.41,5.56-20.68,0-12.41-2.42-24.68-17.12-24.68-8.84,0-14.83,4-16.83,10H181.2V55.22h51.35v9.13H190.47V96.59c4-4.42,10.27-7,18.26-7,7.56,0,13.55,2.42,17.54,6.42,7.42,7.42,8.42,17.69,8.42,27.24C234.69,133.39,233.83,142.95,226.56,150.22Z"/><path class="cls-1" d="M261.5,154.41h-3.11v-30.8a84.57,84.57,0,0,1-6.12,9.34l-2-2.5a83.25,83.25,0,0,0,13.34-26.75l3.06.78a90.88,90.88,0,0,1-5.17,13.18Zm24.24-5.34a292.25,292.25,0,0,0,7.06-28.75L296,121c-1.61,7.62-4.34,18.46-7.34,28H302V152h-37.2v-2.95Zm-4.39-34.81V103.76h3.17v10.51h16.07v2.95h-34.2v-2.95Zm-7.62,6.45a213.52,213.52,0,0,1,4.39,24.91l-3,.78a213.13,213.13,0,0,0-4.34-25Z"/><path d="M9.42,11.7V3.09H1.24V1.34H19.82V3.09H11.43V11.7H21v1.77H11.43v8.27h-2V13.48H0V11.7ZM4.63,4.17a24.26,24.26,0,0,1,2.42,5.94l-1.75.65A22.71,22.71,0,0,0,2.95,4.82Zm13.76.62a57,57,0,0,1-3.13,6l-1.64-.69a44.85,44.85,0,0,0,2.88-6Z"/><path d="M33,9.31h1c-.21,5.48-.48,8.25-1.22,8.73a2.47,2.47,0,0,1-1.29.32c-.55,0-1.77,0-2.47,0l-.25-1.66c.67,0,1.73.07,2.23,0a.71.71,0,0,0,.44-.12c.32-.25.53-2,.69-5.6H27.7a22.32,22.32,0,0,1-2.37,10.74l-1.66-1a19.68,19.68,0,0,0,2.17-9.91V4.56H35.1C35,3.29,34.91,2,34.84.6h1.94c0,1.38.12,2.7.21,4h8V6.34H37.15a46,46,0,0,0,1.36,7.81,20.62,20.62,0,0,0,2.81-6.2l1.77.55a21.21,21.21,0,0,1-3.89,7.72c.9,2.23,2,3.5,3.32,3.57.62,0,.9-.6,1-3.09l1.61.48c-.39,3.78-1.27,4.7-3,4.54s-3.2-1.59-4.31-4a24,24,0,0,1-5.35,4L30.9,20.64a22,22,0,0,0,6.22-4.75,45.88,45.88,0,0,1-1.87-9.56H27.7v3H33ZM39.61.65A17.38,17.38,0,0,1,43.3,3.36L41.89,4.54a15.38,15.38,0,0,0-3.46-2.77Z"/><path d="M58.35,19.08V13.71H52V11.94h6.34V7.3H53.26a23.41,23.41,0,0,1-2.63,4.31l-1.77-.9a21.35,21.35,0,0,0,4.26-9.12L55.06,2A23.58,23.58,0,0,1,54,5.53h4.35v-5h2v5h7.86V7.3H60.35v4.63h6.43v1.77H60.35v5.37h9.22V20.9H48.95V19.08Z"/><path d="M82.14,9c0-1.11,0-2.23-.07-3.32H74.63V3.94H82c0-1,0-1.91,0-2.67H84V3.94H91.1V5.71H84c0,1.08,0,2.21.07,3.32h6.52v1.77H84.16c0,1.52.09,2.93.12,4A25.46,25.46,0,0,1,91,18.52l-1.34,1.54a20.55,20.55,0,0,0-5.39-3.41c-.12,3-1.41,4.42-4.86,4.42-3.18,0-5.09-1.64-5.09-3.55,0-2.14,1.91-3.66,5.21-3.66a12.51,12.51,0,0,1,2.72.32c0-1,0-2.12-.09-3.39h-7.1V9Zm-2.7,6.52c-2.07,0-3.27.78-3.27,2s1.15,1.87,3.13,1.87c2.3,0,3-.85,3-3.27V16A10.46,10.46,0,0,0,79.44,15.55Z"/><path d="M103.79,5.46a16,16,0,0,0-.9,3.53,28.33,28.33,0,0,1,4.47-3.82,5.56,5.56,0,0,1,2.93-1c1.68,0,2.74,1.2,2.74,3.64,0,1.11-.12,2.6-.23,4.17-.16,1.87-.3,3.69-.3,4.93,0,1.06.37,1.43,1.06,1.43a5.13,5.13,0,0,0,3.13-1.43l.28,2.05a7.36,7.36,0,0,1-3.73,1.31c-1.73,0-2.65-.9-2.65-3.32,0-1.24.09-2.88.23-4.75.09-1.41.23-2.9.23-3.92,0-1.41-.48-2.07-1.34-2.07a3.47,3.47,0,0,0-1.82.71,30.54,30.54,0,0,0-5.09,4.45c-.07,3.92-.09,7.76-.09,9.84h-2c0-1.75.12-4.52.16-7.49-1.11,1.43-2.4,3.32-3.32,4.63L96,17.05c1.24-1.61,3.18-4.38,4-5.71a9.24,9.24,0,0,0,.9-2.21l0-2.37c-1.17.12-2.9.25-4.26.32l-.14-1.84c1,0,2.95-.12,4.42-.25,0-1.47,0-2.79,0-3.8h2c0,1-.09,2.24-.14,3.71Z"/><path d="M126.34,6.57a40.72,40.72,0,0,0,.9-5.32l2,.25c-.25,1.64-.55,3.29-.92,4.93q.9-.07,1.59-.07c3.16,0,4.58,1.66,4.58,5.11s-.62,6.66-1.47,8.06a3.06,3.06,0,0,1-3.09,1.54,14.35,14.35,0,0,1-3.23-.39l.14-1.87a9.51,9.51,0,0,0,2.72.44c.9,0,1.31-.09,1.75-.76.74-1.08,1.22-3.85,1.22-7,0-2.44-.74-3.36-2.74-3.36q-.86,0-1.94.07a40,40,0,0,1-5,11.87l-1.75-.94a33.88,33.88,0,0,0,4.77-10.74c-1.59.16-3.25.42-4.68.69l-.35-1.84C122.5,7,124.52,6.75,126.34,6.57Zm15.21,8.09-2,.51a15.5,15.5,0,0,0-4.1-8.87l1.59-1A17.54,17.54,0,0,1,141.55,14.65ZM137,1.38a15.67,15.67,0,0,1,2.44,2.77l-1,.76a13,13,0,0,0-2.37-2.74ZM139.36,0a15.61,15.61,0,0,1,2.47,2.74l-1,.76a13,13,0,0,0-2.4-2.74Z"/><path d="M154.88,19.86c2.6.07,8.43,0,11.34-.07l-.28,1.61c-2.83.07-8.55.07-11.31,0a7.53,7.53,0,0,1-5.78-2.33c-1.24,1.11-2.37,2-3.39,2.72l-.76-1.66a30.9,30.9,0,0,0,3-2.21V11.82h-2.79V10.11h4.58V17.6A6.73,6.73,0,0,0,154.88,19.86ZM146.56,1.08a18.43,18.43,0,0,1,3.09,4.08L148,6.08a17.75,17.75,0,0,0-2.83-4.15Zm7.74,13.06V11.82h-3.36V10.39h3.36V9h1.84v1.43H160V9h1.87v1.43h3.43v1.43h-3.43v2.33h4.06V15.6H150.38V14.15Zm-2.86-9.91h3.87V2.58h-4.7V1.27H157V5.53h-4.54v1c0,.64.14.76.78.78h2.19c.69,0,.76-.07.78-1.15l1.52.28c-.16,2-.48,2.23-2.14,2.26-.74,0-1.91,0-2.53,0-1.84,0-2.21-.41-2.21-2.17V4.24Zm5.39,12.17a15.91,15.91,0,0,1-4,2.79l-1.52-1a14.32,14.32,0,0,0,3.85-2.42ZM160,14.15V11.82h-3.85v2.33Zm-.62-9.91h4V2.58h-5V1.27h6.64V5.53h-4.79v1c0,.67.14.78.83.81s1.73,0,2.4,0,.78-.09.81-1.15l1.57.28c-.18,2-.51,2.26-2.23,2.28-.78,0-2,0-2.74,0-1.87,0-2.28-.46-2.28-2.19V4.24Zm1.45,11.45a51.39,51.39,0,0,1,4.72,2.9l-1.68.81a37.35,37.35,0,0,0-4.45-2.9Z"/><path d="M175.58,12.33a34.16,34.16,0,0,1-4.4,7.23l-1.64-1.06a26.45,26.45,0,0,0,4.24-6.87Zm2.49-2.42a9,9,0,0,1,.74-3.23l2,.46a6.13,6.13,0,0,0-.67,2.56,3,3,0,0,0,1,2.17c1.87,2,2.7,3.5,2.7,5.25,0,2.21-1.45,3.78-4.65,3.78a14.12,14.12,0,0,1-4.24-.69l.18-1.87a12,12,0,0,0,4,.74c1.73,0,2.6-.76,2.6-2.05s-.6-2.56-2.35-4.29A3.77,3.77,0,0,1,178.07,9.91Zm6.82-6-.71,1.82a43.71,43.71,0,0,0-8.89-2.42l.58-1.84A55,55,0,0,1,184.89,3.89Zm1.75,7.19a39.25,39.25,0,0,1,4.26,7.14l-2,.85a28.44,28.44,0,0,0-4-7.1Zm-.44-9.75a18.64,18.64,0,0,1,2.47,3.06l-1,.76a16.41,16.41,0,0,0-2.4-3ZM188.88,0a16,16,0,0,1,2.44,3.09l-1,.74a14.1,14.1,0,0,0-2.4-3Z"/><path d="M195.21,15.64a46.12,46.12,0,0,1,4.59,4.77l-1.64,1.36a36,36,0,0,0-4.38-4.88Z"/><path d="M219.56,18.43V16.68h-3.62V15.3h3.62V13.89h-3.39v-7h3.39V5.58h-3.62V4.22h3.62V3c-1,.14-2.05.25-2.93.3l-.39-1.34a40,40,0,0,1-1.41,4.26V21.77h-1.71V10a30.5,30.5,0,0,1-1.73,2.93l-.83-1.66A32.49,32.49,0,0,0,214.81.55l1.68.37c-.07.32-.16.62-.23.92A29.64,29.64,0,0,0,223.7.58l.67,1.36a25.59,25.59,0,0,1-3.23.78v1.5h3.62V5.58h-3.62V6.94h3.57v7h-3.57V15.3h3.52v1.38h-3.52v1.57c1.27-.16,2.51-.3,3.52-.44v.35c1.36-2.95,1.8-6.77,1.94-11.31h-1.8V5.28h1.84c0-1.5,0-3.06,0-4.7h1.68c0,1.64,0,3.2-.07,4.7h3.59c-.35,9.72-.69,15.16-1.52,16a1.82,1.82,0,0,1-1.29.46c-.39,0-1.27,0-1.75,0L227.14,20c.41,0,1.11,0,1.43,0a.74.74,0,0,0,.51-.16c.51-.53.81-4.84,1.06-13h-1.89c-.23,6.5-1,11.68-3.85,15L222.85,21a11,11,0,0,0,1.22-1.66c-2.53.39-6.06.88-8.13,1.15l-.28-1.61C216.65,18.75,218.06,18.62,219.56,18.43Zm-2-8.57h2V8.2h-2Zm0,2.77h2V10.94h-2Zm5.74-2.77V8.2h-2.14V9.86Zm0,2.77V10.94h-2.14v1.68Z"/><path d="M236.68,8.76c3.13,0,6.75-.12,10.11-.32-.32-.83-.65-1.7-.92-2.6-2.76.21-5.69.32-8.29.37l-.09-1.75c2.51,0,5.28-.09,7.93-.25-.25-.92-.46-1.84-.62-2.74l2.12-.25A25.28,25.28,0,0,0,247.41,4c2.17-.18,4.19-.41,5.83-.69l.25,1.75c-1.61.21-3.57.42-5.67.6a26.67,26.67,0,0,0,.88,2.6c2.21-.18,4.24-.41,5.85-.67l.21,1.75c-1.47.18-3.34.39-5.35.55a14.88,14.88,0,0,0,2.9,4.22l-.94,1.5a18.73,18.73,0,0,0-7.93-1.8c-2.56,0-3.82,1.13-3.82,2.6,0,1.8,2.42,2.83,6.8,2.83,1.08,0,2.53,0,3.92-.18L250.22,21c-1.15.09-2.44.12-3.41.12-6.11,0-9.15-1.75-9.15-4.68,0-2.53,2-4.22,5.55-4.22a17.1,17.1,0,0,1,6.08,1.06,17.61,17.61,0,0,1-1.82-3.2c-3.57.25-7.46.41-10.71.46Z"/><path d="M264.94,6.57a40.72,40.72,0,0,0,.9-5.32l2,.25c-.25,1.64-.55,3.29-.92,4.93q.9-.07,1.59-.07c3.16,0,4.58,1.66,4.58,5.11s-.62,6.66-1.47,8.06a3.06,3.06,0,0,1-3.09,1.54,14.35,14.35,0,0,1-3.23-.39l.14-1.87a9.51,9.51,0,0,0,2.72.44c.9,0,1.31-.09,1.75-.76.74-1.08,1.22-3.85,1.22-7,0-2.44-.74-3.36-2.74-3.36q-.86,0-1.94.07a40,40,0,0,1-5,11.87l-1.75-.94A33.9,33.9,0,0,0,264.5,8.43c-1.59.16-3.25.42-4.68.69l-.35-1.84C261.09,7,263.12,6.75,264.94,6.57Zm15.21,8.09-2,.51a15.49,15.49,0,0,0-4.1-8.87l1.59-1A17.54,17.54,0,0,1,280.14,14.65ZM275.6,1.38A15.67,15.67,0,0,1,278,4.15l-1,.76a13,13,0,0,0-2.37-2.74ZM278,0a15.63,15.63,0,0,1,2.47,2.74l-1,.76a13,13,0,0,0-2.4-2.74Z"/><path d="M286.6,4.24a49,49,0,0,0-.28,4.93c0,5.3,1.8,8.66,3.32,8.66.92,0,1.75-1.66,2.28-4l1.7.76c-.88,3.55-2.14,5.46-3.89,5.46-2.51,0-5.41-3.85-5.41-10.81,0-1.54,0-3.32.18-5.18Zm11.8-.62c3.36,3.41,4.49,7.14,4.68,12.3l-2.19.18c0-5.07-1.13-8.36-4.17-11.36Z"/><path d="M307.64,13.09A10.06,10.06,0,0,1,317.64,3c6.29,0,9,3.64,9,8.32,0,4.45-2.07,8.09-8.5,9.49l-1-1.94c5.71-1,7.37-3.85,7.37-7.51s-2.17-6.29-6.45-6.45c-.3,8.76-3,14.68-6.41,14.68-2.35,0-4.08-3.11-4.08-6.47Zm1.91,0c0,2.33,1,4.33,2.19,4.33,1.82,0,4.17-4.54,4.38-12.35A8,8,0,0,0,309.55,13.06Z"/><path d="M345.38,7.17c-.07.48-.16.94-.25,1.41,3.13.76,4.82,2.83,4.82,5.78,0,3.62-2.05,6.13-7.35,6.87l-.74-1.73c4.42-.48,6.11-2.21,6.11-5.14a4.12,4.12,0,0,0-3.27-4.1,15.76,15.76,0,0,1-4.86,7.7,15.17,15.17,0,0,0,.48,1.54l-1.82.71c-.12-.37-.23-.74-.32-1.13a8.2,8.2,0,0,1-3.92,1.06c-2.07,0-3-1.36-3-3.48,0-3.13,2.42-6.11,6.08-7.53,0-1.08.12-2.21.23-3.36H331.7V4h6c.12-1,.25-1.91.39-2.81l1.94.18q-.24,1.28-.41,2.63h9.65V5.76h-9.88c-.09,1-.16,1.91-.23,2.81a12.89,12.89,0,0,1,3-.32c.37,0,.74,0,1.08,0A11.94,11.94,0,0,0,343.49,7ZM333,16.52c0,1.2.48,1.75,1.66,1.75a5.94,5.94,0,0,0,3.11-1,38.08,38.08,0,0,1-.48-6.34C334.72,12.17,333,14.29,333,16.52Zm9.08-6.61a12.18,12.18,0,0,0-2.95.37v.48a39.78,39.78,0,0,0,.3,5.18,14.15,14.15,0,0,0,3.46-6C342.64,9.93,342.37,9.91,342.09,9.91Z"/><path d="M369.25,2.21l1,1.43c-2.14,1.77-5.37,4.59-7.14,6.24a9.34,9.34,0,0,1,3.8-.76,5.45,5.45,0,0,1,5.71,5.67c0,3.85-2.93,6.15-8.13,6.15-3.32,0-5.23-1.36-5.23-3.41,0-1.89,1.75-3.32,4.22-3.32,2.65,0,4.12,1.75,4.52,4.47a3.81,3.81,0,0,0,2.63-3.85,4,4,0,0,0-4.29-4.06,11.49,11.49,0,0,0-4.31.94,26.49,26.49,0,0,0-5.83,4.15l-1.31-1.52c3.43-2.53,9.1-7.56,11.75-10.09-2.17.18-6.77.39-9.33.44l-.12-1.89C360.27,2.81,366.26,2.56,369.25,2.21Zm-5.74,13.59c-1.5,0-2.47.69-2.47,1.71s1.08,1.73,3.27,1.73a13.24,13.24,0,0,0,2-.14C366.14,17.14,365.22,15.81,363.52,15.81Z"/><path d="M393.75,9.12H381.49V7.67a22.4,22.4,0,0,1-3.59,1.89L376.77,7.9A21.5,21.5,0,0,0,386.51.58h1.87a23.38,23.38,0,0,0,10,7.33L397.2,9.59a24.68,24.68,0,0,1-3.46-1.8ZM381.35,19a62.08,62.08,0,0,0,2.72-5.71H378V11.54h19.19v1.73h-11c-.74,1.64-1.73,3.66-2.81,5.6,3.11-.21,6.57-.44,9.35-.67-.88-1-1.84-2.05-2.95-3.11l1.47-.94A35.11,35.11,0,0,1,397,20.74l-1.73,1.06a15.21,15.21,0,0,0-1.36-2.07c-4.58.46-11.61,1.06-15.55,1.36l-.42-1.89C378.89,19.15,380,19.08,381.35,19ZM393.13,7.42a26.87,26.87,0,0,1-5.69-5.11,26.42,26.42,0,0,1-5.53,5.11Z"/><path d="M407,21.77h-1.91V13.82a21.69,21.69,0,0,1-2.95,2.53L401,14.81a20,20,0,0,0,7.1-8.52h-6.57V4.54h3.57v-4H407v4h2.35l1.13.48a22.19,22.19,0,0,1-3,5.9c1.41,1.29,2.9,2.76,3.78,3.71l-1.38,1.29a43,43,0,0,0-2.9-3.41Zm8.09-2.4V9.84h-4.45V8h4.45V.58h2V8h4.49v1.8h-4.49v9.54h5.46v1.8H409.36v-1.8Z"/></g></g></svg>