<svg xmlns="http://www.w3.org/2000/svg" viewBox="0 0 235.49 145.48"><defs><style>.cls-1,.cls-2{fill:#ff4700;}.cls-2{stroke:#ff4700;stroke-miterlimit:10;stroke-width:1.38px;}</style></defs><title>whatweare-100-modalnum</title><g id="レイヤー_2" data-name="レイヤー 2"><g id="WWAhover100"><path d="M2.84,21,1.16,20a17.28,17.28,0,0,0,2.05-8.85V6.68H7.65A16.4,16.4,0,0,0,6.55,3.8H2.1V2.23h8.78V0h2V2.23h9V3.8H17.51c-.41.85-.94,1.87-1.54,2.88H21.8V8.2H5.07v2.95A20.44,20.44,0,0,1,2.84,21Zm2.07-.39V19.05h7.46V16.31H7.72v-1.5h4.65V12.35H8.6A17.09,17.09,0,0,1,6.69,15l-1.47-.81A15.66,15.66,0,0,0,8.46,8.78l1.77.12a19.17,19.17,0,0,1-.81,1.94h2.95V8.71h1.91v2.12h6.08v1.52H14.29v2.47h4.93v1.5H14.29v2.74H22.1v1.57ZM9.54,6.68h4.52c.51-1,1-2,1.34-2.88H8.48A15.35,15.35,0,0,1,9.54,6.68Z"/><path d="M28.19,21.22V9.35a28.28,28.28,0,0,1-2.12,3L25,10.74A29.74,29.74,0,0,0,30.24,0L32.1.44a36,36,0,0,1-2,5.41V21.22Zm3.69-3-1.43-1.47A24.25,24.25,0,0,0,37.06,7.4H31V5.62h6.64V0h1.89v5.6h7V7.4H40.21a23.18,23.18,0,0,0,6.73,9.15l-1.47,1.54a26.45,26.45,0,0,1-5.9-8.2V21.22H37.68V10A27.65,27.65,0,0,1,31.87,18.2Z"/><path d="M56.73,12.37a1.75,1.75,0,1,1,1.77-1.75,1.75,1.75,0,0,1-1.77,1.75Z"/><path d="M71.74,6.43a28.26,28.26,0,0,0,1.91-3.06H66.88V1.91H76.4V0h2V1.91h9.7V3.36H81.67A24.66,24.66,0,0,1,87.3,7.81l-1.52,1a17,17,0,0,0-1.43-1.47c-4.77.25-12.35.58-16.5.71l-.3-1.59C68.68,6.5,70.13,6.45,71.74,6.43Zm.69,10.83v4H70.52v-12H84.35V19.29c0,1.08-.32,1.68-1.31,1.84a23.81,23.81,0,0,1-3.27.07l-.3-1.59c.83,0,2.05,0,2.4,0s.55-.23.55-.6V17.26Zm10-4.72V10.69h-10v1.84Zm0,3.32V13.92h-10v1.94Zm.41-9.77c-.81-.62-1.7-1.22-2.67-1.84l1.13-.88H75.84c-.53.9-1.24,2-2,3C76.83,6.29,80.15,6.2,82.83,6.08Z"/><path d="M93.53,21.22V9.35a28.28,28.28,0,0,1-2.12,3l-1.08-1.64A29.74,29.74,0,0,0,95.58,0l1.87.44a36,36,0,0,1-2,5.41V21.22Zm3.69-3-1.43-1.47A24.25,24.25,0,0,0,102.4,7.4h-6V5.62H103V0h1.89v5.6h7V7.4h-6.36a23.18,23.18,0,0,0,6.73,9.15l-1.47,1.54a26.46,26.46,0,0,1-5.9-8.2V21.22H103V10A27.66,27.66,0,0,1,97.22,18.2Z"/><path d="M117.76,15.62V2.67h-1.84V.94h11.27V2.67h-1.59V21.2h-1.84V16.45c-2.47.41-5.67.92-7.6,1.2l-.35-1.8Zm6-10v-3H119.6v3Zm0,4.72V7.28H119.6v3.11Zm0,4.42V12H119.6v3.41C121,15.21,122.48,15,123.75,14.82Zm8.2-1.45a27.57,27.57,0,0,0,2.7-8.66h-7.72V2.93h8.57l1.36.18A31.42,31.42,0,0,1,133,15.23a15.4,15.4,0,0,0,4.45,4.52l-1.43,1.43a16.94,16.94,0,0,1-4.12-4.26,17.92,17.92,0,0,1-4.54,4.31L126,19.75a16.26,16.26,0,0,0,4.82-4.56,33,33,0,0,1-3.32-9.58l1.75-.53A30,30,0,0,0,132,13.36Z"/><path d="M145.58,21.22h-1.89V10.92c-.67.74-1.38,1.45-2.12,2.12l-1.2-1.47a21.45,21.45,0,0,0,5.53-7.14l1.84.53a20.76,20.76,0,0,1-2.17,3.64ZM147,.55a25,25,0,0,1-5,5.78l-1.34-1.24A19.33,19.33,0,0,0,145.16,0Zm9.65,11.94V10.71h-9.42V9.19h14.35v1.52h-3v1.77h3.36v1.59h-3.36v5.16c0,1.11-.35,1.73-1.36,1.91a24.61,24.61,0,0,1-3.29,0l-.32-1.77a24.31,24.31,0,0,0,2.49,0c.44,0,.55-.23.55-.6V14.08h-9.72V12.49ZM160.07.55V7.72H148.5V.55Zm-9.38,13.71a22.71,22.71,0,0,1,3.66,3.59L152.86,19a19,19,0,0,0-3.43-3.66Zm-.32-10.71h7.76V1.91h-7.76Zm0,2.81h7.76V4.68h-7.76Z"/><path d="M175.17,14.1V12.49h2V14.1h9.72v1.61h-9.72v5.51h-2V15.71h-9.49V14.1Zm-3.94-5.28.35,1.38c-1.45.81-3.57,1.91-4.82,2.53L166,11.2C167.29,10.67,169.66,9.61,171.23,8.82Zm1.36,2.23c.58-.53,1.15-1.11,1.71-1.68a15.92,15.92,0,0,0-3-2.51l1-1,.62.39A28.59,28.59,0,0,0,175,3.43h-8.64V1.94h8.78V0h2V1.94h9v1.5h-9.84l.55.25A32.48,32.48,0,0,1,174,7.07a13.86,13.86,0,0,1,1.34,1.17,36.35,36.35,0,0,0,2.7-3.18l1.45.78a57.14,57.14,0,0,1-4.79,5.07c1.38-.12,2.83-.21,4.08-.32-.37-.51-.78-1-1.24-1.57l1.34-.65a15,15,0,0,1,2.79,3.92l-1.57.62a7.81,7.81,0,0,0-.53-1.08c-2.58.28-6.36.67-8.53.85-.09-.44-.18-.85-.37-1.5C171.23,11.15,171.87,11.13,172.59,11.06Zm-4.75-7a16.44,16.44,0,0,1,3.25,3.18l-1.52.85a14.68,14.68,0,0,0-3-3.18ZM181.9,8.73c1.89,1,3.46,1.89,4.77,2.74l-1.34,1.17a41,41,0,0,0-4.58-2.79Zm3.94-3.94a33.88,33.88,0,0,1-3.41,3.41L181,7.4A26,26,0,0,0,184.2,4Z"/><path class="cls-1" d="M18.5,145.48V56.2L0,72.73V61.14L18.5,44.9h10V145.48Z"/><path class="cls-1" d="M74.56,144.94c-15.44,0-27.13-11-27.13-27.69V70.35c0-16.67,11.69-27.69,27.13-27.69s27.13,11,27.13,27.69v46.9C101.69,133.92,90,144.94,74.56,144.94Zm17.11-74c0-11-6.12-19.21-17.11-19.21S57.45,59.89,57.45,70.91v45.77c0,11,6.12,19.21,17.11,19.21s17.11-8.19,17.11-19.21Z"/><path class="cls-1" d="M143.42,144.94c-15.44,0-27.13-11-27.13-27.69V70.35c0-16.67,11.69-27.69,27.13-27.69s27.13,11,27.13,27.69v46.9C170.55,133.92,158.86,144.94,143.42,144.94Zm17.11-74c0-11-6.12-19.21-17.11-19.21s-17.11,8.19-17.11,19.21v45.77c0,11,6.12,19.21,17.11,19.21s17.11-8.19,17.11-19.21Z"/><path class="cls-2" d="M195.51,114.83c-5.39,0-9.32-3.72-9.32-9.4V98.07c0-5.75,3.94-9.47,9.32-9.47s9.32,3.72,9.32,9.47v7.36A9,9,0,0,1,195.51,114.83Zm5.39-16.62c0-3.72-1.66-6.1-5.39-6.1s-5.39,2.31-5.39,6.1v7.08c0,3.79,1.66,6,5.39,6s5.39-2.31,5.39-6ZM201,139h-4.14L220,89.09h4.14Zm24.44.49c-5.39,0-9.32-3.72-9.32-9.47v-7.36c0-5.75,3.94-9.47,9.32-9.47s9.32,3.72,9.32,9.47V130C234.8,135.8,230.79,139.51,225.48,139.51Zm5.39-16.69c0-3.72-1.66-6.1-5.39-6.1s-5.39,2.31-5.39,6.1v7.08c0,3.79,1.59,6.1,5.39,6.1s5.39-2.38,5.39-6.1Z"/></g></g></svg>