<svg xmlns="http://www.w3.org/2000/svg" xmlns:xlink="http://www.w3.org/1999/xlink" viewBox="0 0 145.52 136.57"><defs><style>.cls-1{isolation:isolate;}.cls-2{fill:url(#名称未設定グラデーション_20);}.cls-3{fill:url(#名称未設定グラデーション_20-2);}.cls-4{fill:url(#名称未設定グラデーション_20-3);}.cls-5{fill:url(#名称未設定グラデーション_20-4);}.cls-6{fill:url(#名称未設定グラデーション_20-5);}.cls-7{fill:url(#名称未設定グラデーション_20-6);}.cls-8{fill:url(#名称未設定グラデーション_20-7);}.cls-9{fill:url(#名称未設定グラデーション_20-8);}.cls-10{fill:url(#名称未設定グラデーション_20-9);}.cls-11{fill:url(#名称未設定グラデーション_20-10);}.cls-12{fill:url(#名称未設定グラデーション_20-11);}.cls-13{fill:url(#名称未設定グラデーション_20-12);}.cls-14{fill:url(#名称未設定グラデーション_20-13);}.cls-15{fill:url(#名称未設定グラデーション_20-14);}.cls-16{fill:url(#名称未設定グラデーション_20-15);}.cls-17{fill:url(#名称未設定グラデーション_20-16);}.cls-18{fill:url(#linear-gradient);}.cls-19{fill:url(#名称未設定グラデーション_465);}.cls-20{fill:url(#名称未設定グラデーション_465-2);}.cls-21{fill:url(#名称未設定グラデーション_465-3);}.cls-22{fill:url(#名称未設定グラデーション_465-4);}.cls-23{fill:url(#名称未設定グラデーション_465-5);}.cls-24{fill:url(#名称未設定グラデーション_465-6);}.cls-25{fill:url(#名称未設定グラデーション_465-7);}.cls-26{fill:url(#名称未設定グラデーション_465-8);}.cls-27{fill:url(#名称未設定グラデーション_465-9);}.cls-28{fill:url(#名称未設定グラデーション_465-10);}.cls-29{fill:url(#名称未設定グラデーション_465-11);}.cls-30{fill:url(#名称未設定グラデーション_465-12);}.cls-31{fill:url(#名称未設定グラデーション_465-13);}.cls-32{fill:url(#名称未設定グラデーション_465-14);}.cls-33{fill:url(#名称未設定グラデーション_465-15);}.cls-34{fill:url(#名称未設定グラデーション_465-16);}.cls-35{fill:url(#名称未設定グラデーション_465-17);}.cls-36{fill:url(#名称未設定グラデーション_465-18);}.cls-37{fill:url(#名称未設定グラデーション_465-19);}.cls-38{fill:url(#名称未設定グラデーション_465-20);}.cls-39{fill:url(#名称未設定グラデーション_465-21);}.cls-40{fill:url(#名称未設定グラデーション_465-22);}.cls-41{fill:url(#名称未設定グラデーション_465-23);}.cls-42{fill:url(#名称未設定グラデーション_465-24);}.cls-43{fill:url(#名称未設定グラデーション_465-25);}.cls-44{fill:url(#名称未設定グラデーション_465-26);}.cls-45{fill:url(#名称未設定グラデーション_465-27);}.cls-46,.cls-47{opacity:0.4;}.cls-46{mix-blend-mode:multiply;}.cls-47{fill:url(#名称未設定グラデーション_412);}</style><linearGradient id="名称未設定グラデーション_20" x1="85.52" y1="97.46" x2="105.43" y2="97.46" gradientUnits="userSpaceOnUse"><stop offset="0" stop-color="#ffbe1f"/><stop offset="0.06" stop-color="#ffaa1f"/><stop offset="0.15" stop-color="#ff931f"/><stop offset="0.26" stop-color="#ff821f"/><stop offset="0.38" stop-color="#ff761f"/><stop offset="0.56" stop-color="#ff6f1f"/><stop offset="1" stop-color="#ff6d1f"/></linearGradient><linearGradient id="名称未設定グラデーション_20-2" x1="29.89" y1="90.46" x2="29.89" y2="151.71" xlink:href="#名称未設定グラデーション_20"/><linearGradient id="名称未設定グラデーション_20-3" x1="39.82" y1="103.02" x2="61.25" y2="103.02" xlink:href="#名称未設定グラデーション_20"/><linearGradient id="名称未設定グラデーション_20-4" x1="88.4" y1="101.01" x2="21.74" y2="-51.66" xlink:href="#名称未設定グラデーション_20"/><linearGradient id="名称未設定グラデーション_20-5" x1="127.14" y1="124.05" x2="138" y2="124.05" xlink:href="#名称未設定グラデーション_20"/><linearGradient id="名称未設定グラデーション_20-6" x1="137.61" y1="122.54" x2="83.61" y2="142.79" xlink:href="#名称未設定グラデーション_20"/><linearGradient id="名称未設定グラデーション_20-7" x1="12.51" y1="129.43" x2="27.49" y2="129.43" xlink:href="#名称未設定グラデーション_20"/><linearGradient id="名称未設定グラデーション_20-8" x1="98.98" y1="94.13" x2="138.73" y2="165.13" xlink:href="#名称未設定グラデーション_20"/><linearGradient id="名称未設定グラデーション_20-9" x1="34.59" y1="138.92" x2="65.59" y2="76.42" xlink:href="#名称未設定グラデーション_20"/><linearGradient id="名称未設定グラデーション_20-10" x1="46.27" y1="101.41" x2="64.77" y2="133.16" xlink:href="#名称未設定グラデーション_20"/><linearGradient id="名称未設定グラデーション_20-11" x1="52.61" y1="123.4" x2="68.84" y2="123.4" xlink:href="#名称未設定グラデーション_20"/><linearGradient id="名称未設定グラデーション_20-12" x1="52.19" y1="111.71" x2="69.47" y2="111.71" xlink:href="#名称未設定グラデーション_20"/><linearGradient id="名称未設定グラデーション_20-13" x1="77.3" y1="93.01" x2="96.05" y2="148.51" xlink:href="#名称未設定グラデーション_20"/><linearGradient id="名称未設定グラデーション_20-14" x1="79.61" y1="105.73" x2="90.75" y2="105.73" xlink:href="#名称未設定グラデーション_20"/><linearGradient id="名称未設定グラデーション_20-15" x1="99.18" y1="138.94" x2="94.93" y2="88.19" xlink:href="#名称未設定グラデーション_20"/><linearGradient id="名称未設定グラデーション_20-16" x1="67.35" y1="127.36" x2="80.15" y2="127.36" xlink:href="#名称未設定グラデーション_20"/><linearGradient id="linear-gradient" x1="53.64" y1="135.63" x2="103.76" y2="135.63" gradientUnits="userSpaceOnUse"><stop offset="0" stop-color="#ffbe1f"/><stop offset="1" stop-color="#ff6d1f"/></linearGradient><linearGradient id="名称未設定グラデーション_465" x1="60.06" y1="11.11" x2="67.79" y2="11.11" gradientUnits="userSpaceOnUse"><stop offset="0" stop-color="#ffbe1f"/><stop offset="0.16" stop-color="#ffa31f"/><stop offset="0.34" stop-color="#ff8b1f"/><stop offset="0.53" stop-color="#ff7a1f"/><stop offset="0.74" stop-color="#ff701f"/><stop offset="1" stop-color="#ff6d1f"/></linearGradient><linearGradient id="名称未設定グラデーション_465-2" x1="69.94" y1="11.11" x2="77.67" y2="11.11" xlink:href="#名称未設定グラデーション_465"/><linearGradient id="名称未設定グラデーション_465-3" x1="79.81" y1="11.11" x2="87.54" y2="11.11" xlink:href="#名称未設定グラデーション_465"/><linearGradient id="名称未設定グラデーション_465-4" x1="60.06" y1="18.28" x2="67.79" y2="18.28" xlink:href="#名称未設定グラデーション_465"/><linearGradient id="名称未設定グラデーション_465-5" x1="69.94" y1="18.28" x2="77.67" y2="18.28" xlink:href="#名称未設定グラデーション_465"/><linearGradient id="名称未設定グラデーション_465-6" x1="79.81" y1="18.28" x2="87.54" y2="18.28" xlink:href="#名称未設定グラデーション_465"/><linearGradient id="名称未設定グラデーション_465-7" x1="60.06" y1="25.45" x2="67.79" y2="25.45" xlink:href="#名称未設定グラデーション_465"/><linearGradient id="名称未設定グラデーション_465-8" x1="69.94" y1="25.45" x2="77.67" y2="25.45" xlink:href="#名称未設定グラデーション_465"/><linearGradient id="名称未設定グラデーション_465-9" x1="79.81" y1="25.45" x2="87.54" y2="25.45" xlink:href="#名称未設定グラデーション_465"/><linearGradient id="名称未設定グラデーション_465-10" x1="60.06" y1="32.63" x2="67.79" y2="32.63" xlink:href="#名称未設定グラデーション_465"/><linearGradient id="名称未設定グラデーション_465-11" x1="69.94" y1="32.63" x2="77.67" y2="32.63" xlink:href="#名称未設定グラデーション_465"/><linearGradient id="名称未設定グラデーション_465-12" x1="79.81" y1="32.63" x2="87.54" y2="32.63" xlink:href="#名称未設定グラデーション_465"/><linearGradient id="名称未設定グラデーション_465-13" x1="60.06" y1="39.8" x2="67.79" y2="39.8" xlink:href="#名称未設定グラデーション_465"/><linearGradient id="名称未設定グラデーション_465-14" x1="69.94" y1="39.8" x2="77.67" y2="39.8" xlink:href="#名称未設定グラデーション_465"/><linearGradient id="名称未設定グラデーション_465-15" x1="79.81" y1="39.8" x2="87.54" y2="39.8" xlink:href="#名称未設定グラデーション_465"/><linearGradient id="名称未設定グラデーション_465-16" x1="60.06" y1="46.98" x2="67.79" y2="46.98" xlink:href="#名称未設定グラデーション_465"/><linearGradient id="名称未設定グラデーション_465-17" x1="69.94" y1="46.98" x2="77.67" y2="46.98" xlink:href="#名称未設定グラデーション_465"/><linearGradient id="名称未設定グラデーション_465-18" x1="79.81" y1="46.98" x2="87.54" y2="46.98" xlink:href="#名称未設定グラデーション_465"/><linearGradient id="名称未設定グラデーション_465-19" x1="60.06" y1="54.15" x2="67.79" y2="54.15" xlink:href="#名称未設定グラデーション_465"/><linearGradient id="名称未設定グラデーション_465-20" x1="69.94" y1="54.15" x2="77.67" y2="54.15" xlink:href="#名称未設定グラデーション_465"/><linearGradient id="名称未設定グラデーション_465-21" x1="79.81" y1="54.15" x2="87.54" y2="54.15" xlink:href="#名称未設定グラデーション_465"/><linearGradient id="名称未設定グラデーション_465-22" x1="60.06" y1="61.32" x2="67.79" y2="61.32" xlink:href="#名称未設定グラデーション_465"/><linearGradient id="名称未設定グラデーション_465-23" x1="69.94" y1="61.32" x2="77.67" y2="61.32" xlink:href="#名称未設定グラデーション_465"/><linearGradient id="名称未設定グラデーション_465-24" x1="79.81" y1="61.32" x2="87.54" y2="61.32" xlink:href="#名称未設定グラデーション_465"/><linearGradient id="名称未設定グラデーション_465-25" x1="60.06" y1="68.5" x2="67.79" y2="68.5" xlink:href="#名称未設定グラデーション_465"/><linearGradient id="名称未設定グラデーション_465-26" x1="69.94" y1="68.5" x2="77.67" y2="68.5" xlink:href="#名称未設定グラデーション_465"/><linearGradient id="名称未設定グラデーション_465-27" x1="79.81" y1="68.5" x2="87.54" y2="68.5" xlink:href="#名称未設定グラデーション_465"/><linearGradient id="名称未設定グラデーション_412" x1="109.9" y1="33.7" x2="109.9" y2="135.18" gradientUnits="userSpaceOnUse"><stop offset="0" stop-color="#646464"/><stop offset="0.12" stop-color="#6d6d6d"/><stop offset="0.33" stop-color="#868686"/><stop offset="0.58" stop-color="#afafaf"/><stop offset="0.88" stop-color="#e7e7e7"/><stop offset="1" stop-color="#fff"/></linearGradient></defs><title>whatweare-6-icon</title><g class="cls-1"><g id="レイヤー_2" data-name="レイヤー 2"><g id="design"><rect class="cls-2" x="85.52" y="60.78" width="19.91" height="73.36"/><rect class="cls-3" x="23.4" y="99.45" width="12.99" height="35.94"/><rect class="cls-4" x="39.82" y="76.21" width="21.42" height="53.62"/><rect class="cls-5" x="53.72" width="40.16" height="135.14"/><rect class="cls-6" x="127.14" y="112.79" width="10.86" height="22.53"/><rect class="cls-7" x="120.42" y="119.6" width="9.74" height="15.11"/><rect class="cls-8" x="12.51" y="123.7" width="14.98" height="11.46"/><rect class="cls-9" x="103.15" y="93.84" width="14.55" height="41.46"/><rect class="cls-10" x="33.86" y="106.42" width="19.3" height="29.06"/><rect class="cls-11" x="47.17" y="98.93" width="16.5" height="36.37"/><rect class="cls-12" x="52.61" y="111.51" width="16.24" height="23.8"/><rect class="cls-13" x="52.19" y="111.32" width="17.28" height="0.77"/><rect class="cls-14" x="75.03" y="97.35" width="20.29" height="37.95"/><rect class="cls-15" x="79.61" y="87.96" width="11.14" height="35.54"/><rect class="cls-16" x="89.69" y="110.55" width="16.3" height="24.75"/><rect class="cls-17" x="67.35" y="119.43" width="12.8" height="15.84"/><rect class="cls-18" y="134.68" width="145.52" height="1.89"/><rect class="cls-19" x="60.06" y="9.31" width="7.73" height="3.59"/><rect class="cls-20" x="69.94" y="9.31" width="7.73" height="3.59"/><rect class="cls-21" x="79.81" y="9.31" width="7.73" height="3.59"/><rect class="cls-22" x="60.06" y="16.48" width="7.73" height="3.59"/><rect class="cls-23" x="69.94" y="16.48" width="7.73" height="3.59"/><rect class="cls-24" x="79.81" y="16.48" width="7.73" height="3.59"/><rect class="cls-25" x="60.06" y="23.66" width="7.73" height="3.59"/><rect class="cls-26" x="69.94" y="23.66" width="7.73" height="3.59"/><rect class="cls-27" x="79.81" y="23.66" width="7.73" height="3.59"/><rect class="cls-28" x="60.06" y="30.83" width="7.73" height="3.59"/><rect class="cls-29" x="69.94" y="30.83" width="7.73" height="3.59"/><rect class="cls-30" x="79.81" y="30.83" width="7.73" height="3.59"/><rect class="cls-31" x="60.06" y="38.01" width="7.73" height="3.59"/><rect class="cls-32" x="69.94" y="38.01" width="7.73" height="3.59"/><rect class="cls-33" x="79.81" y="38.01" width="7.73" height="3.59"/><rect class="cls-34" x="60.06" y="45.18" width="7.73" height="3.59"/><rect class="cls-35" x="69.94" y="45.18" width="7.73" height="3.59"/><rect class="cls-36" x="79.81" y="45.18" width="7.73" height="3.59"/><rect class="cls-37" x="60.06" y="52.35" width="7.73" height="3.59"/><rect class="cls-38" x="69.94" y="52.35" width="7.73" height="3.59"/><rect class="cls-39" x="79.81" y="52.35" width="7.73" height="3.59"/><rect class="cls-40" x="60.06" y="59.53" width="7.73" height="3.59"/><rect class="cls-41" x="69.94" y="59.53" width="7.73" height="3.59"/><rect class="cls-42" x="79.81" y="59.53" width="7.73" height="3.59"/><rect class="cls-43" x="60.06" y="66.7" width="7.73" height="3.59"/><rect class="cls-44" x="69.94" y="66.7" width="7.73" height="3.59"/><rect class="cls-45" x="79.81" y="66.7" width="7.73" height="3.59"/><g class="cls-46"><polygon class="cls-47" points="145.52 134.68 138 134.68 138 112.79 127.14 112.79 127.14 119.6 120.42 119.6 120.42 134.68 117.7 134.68 117.7 93.84 105.43 93.84 105.43 60.78 93.88 60.78 93.88 0 74.27 0 74.27 136.57 145.52 136.57 145.52 134.68"/></g></g></g></g></svg>