<svg xmlns="http://www.w3.org/2000/svg" xmlns:xlink="http://www.w3.org/1999/xlink" viewBox="0 0 133.46 137.66"><defs><style>.cls-1{fill:url(#名称未設定グラデーション_20);}.cls-2{fill:url(#名称未設定グラデーション_285);}.cls-3{fill:url(#名称未設定グラデーション_310);}.cls-4{fill:url(#名称未設定グラデーション_438);}.cls-5{fill:url(#名称未設定グラデーション_406);}.cls-6{fill:url(#名称未設定グラデーション_403);}.cls-7{fill:url(#名称未設定グラデーション_402);}</style><linearGradient id="名称未設定グラデーション_20" x1="49.49" y1="112.94" x2="66.73" y2="112.94" gradientTransform="matrix(-1, 0, 0, 1, 133.46, 0)" gradientUnits="userSpaceOnUse"><stop offset="0" stop-color="#ffbe1f"/><stop offset="0.06" stop-color="#ffaa1f"/><stop offset="0.15" stop-color="#ff931f"/><stop offset="0.26" stop-color="#ff821f"/><stop offset="0.38" stop-color="#ff761f"/><stop offset="0.56" stop-color="#ff6f1f"/><stop offset="1" stop-color="#ff6d1f"/></linearGradient><linearGradient id="名称未設定グラデーション_285" x1="56.92" y1="96.96" x2="66.73" y2="96.96" gradientTransform="matrix(-1, 0, 0, 1, 133.46, 0)" gradientUnits="userSpaceOnUse"><stop offset="0" stop-color="#ffbe1f"/><stop offset="0.32" stop-color="#ffa71f"/><stop offset="1" stop-color="#ff6d1f"/></linearGradient><linearGradient id="名称未設定グラデーション_310" x1="75.35" y1="100.38" x2="75.35" y2="134.2" gradientTransform="matrix(-1, 0, 0, 1, 133.46, 0)" gradientUnits="userSpaceOnUse"><stop offset="0" stop-color="#ffbe1f"/><stop offset="0.03" stop-color="#ffba1f"/><stop offset="0.46" stop-color="#ff911f"/><stop offset="0.8" stop-color="#ff771f"/><stop offset="1" stop-color="#ff6d1f"/></linearGradient><linearGradient id="名称未設定グラデーション_438" x1="-6.74" y1="46.72" x2="64.58" y2="46.72" gradientTransform="matrix(-1, 0, 0, 1, 133.46, 0)" gradientUnits="userSpaceOnUse"><stop offset="0" stop-color="#ffbe1f"/><stop offset="0.28" stop-color="#ffa41f"/><stop offset="0.75" stop-color="#ff7c1f"/><stop offset="1" stop-color="#ff6d1f"/></linearGradient><linearGradient id="名称未設定グラデーション_406" x1="100.09" y1="-0.5" x2="100.09" y2="102.52" gradientTransform="matrix(-1, 0, 0, 1, 133.46, 0)" gradientUnits="userSpaceOnUse"><stop offset="0" stop-color="#ffbe1f"/><stop offset="0.27" stop-color="#ff9d1f"/><stop offset="0.55" stop-color="#ff831f"/><stop offset="0.81" stop-color="#ff731f"/><stop offset="1" stop-color="#ff6d1f"/></linearGradient><linearGradient id="名称未設定グラデーション_403" x1="71.63" y1="92.69" x2="71.63" y2="102.76" gradientTransform="matrix(-1, 0, 0, 1, 133.46, 0)" gradientUnits="userSpaceOnUse"><stop offset="0" stop-color="#ffbe1f"/><stop offset="0.02" stop-color="#ffb91f"/><stop offset="0.17" stop-color="#ff9d1f"/><stop offset="0.33" stop-color="#ff881f"/><stop offset="0.5" stop-color="#ff791f"/><stop offset="0.7" stop-color="#ff701f"/><stop offset="1" stop-color="#ff6d1f"/></linearGradient><linearGradient id="名称未設定グラデーション_402" x1="25.14" y1="131.95" x2="108.32" y2="131.95" gradientTransform="matrix(1, 0, 0, -1, 0, 263.9)" gradientUnits="userSpaceOnUse"><stop offset="0" stop-color="#ffbe1f"/><stop offset="0.42" stop-color="#ff9a1f"/><stop offset="1" stop-color="#ff6d1f"/></linearGradient></defs><title>whatweare-1-icon</title><g id="レイヤー_2" data-name="レイヤー 2"><g id="design"><path class="cls-1" d="M66.73,100.48a12.79,12.79,0,0,0,4.63-.87c2.86,11,10,22.64,12.61,26.66H66.73Z"/><path class="cls-2" d="M70.24,93.45h6.29c0,2.68-2.11,5-5.17,6.16a12.79,12.79,0,0,1-4.63.87v-7Z"/><path class="cls-3" d="M66.73,126.28H49.49c2.6-4,9.75-15.69,12.61-26.66a12.78,12.78,0,0,0,4.63.87Z"/><path class="cls-4" d="M70.24,93.45H81.12A3.84,3.84,0,0,0,85,89.61a3.89,3.89,0,0,0-.1-.85h2.08a3.83,3.83,0,0,0,2.28-6.91c4.6-1.16,8.06-5.84,10.63-12.44C134.58,62.85,133.45,0,133.45,0H66.73V93.45ZM102.52,60.7c4.28-17.44,4.85-41,4.83-53h18.23c-.85,13.8-4.48,36.67-15.46,47.84A22.49,22.49,0,0,1,102.52,60.7Z"/><path class="cls-5" d="M66.73,93.45V0H0S-1.12,62.85,33.62,69.41c2.58,6.6,6,11.28,10.63,12.44a3.83,3.83,0,0,0,2.28,6.91h2.07a3.9,3.9,0,0,0-.1.85,3.84,3.84,0,0,0,3.84,3.84H66.73ZM30.94,60.7a22.48,22.48,0,0,1-7.59-5.18c-11-11.17-14.61-34-15.46-47.84H26.11C26.09,19.66,26.65,43.26,30.94,60.7Z"/><path class="cls-6" d="M56.92,93.45h9.8v7a12.78,12.78,0,0,1-4.63-.87C59,98.42,56.92,96.12,56.92,93.45Z"/><rect class="cls-7" x="25.14" y="126.24" width="83.18" height="11.42" transform="translate(133.46 263.9) rotate(180)"/></g></g></svg>