<svg xmlns="http://www.w3.org/2000/svg" viewBox="0 0 348.65 150.24"><defs><style>.cls-1{fill:#ff4700;}</style></defs><title>whatweare-6-modalnum</title><g id="レイヤー_2" data-name="レイヤー 2"><g id="WWAhover6"><path d="M9.28.69H2.4V14.93H1.7V0H9.28Z"/><path d="M18.68,6.52A3.11,3.11,0,0,1,20.91,5.3,3.11,3.11,0,0,1,23.26,6.7,72.56,72.56,0,0,0,33.7,17l-1.5,1.66a107.24,107.24,0,0,1-9.77-9.82c-.58-.69-1-1-1.54-1s-.92.32-1.5,1c-1.11,1.2-3.89,4.54-5.67,6.75L12,14.15C14.07,11.91,17.36,8,18.68,6.52ZM26.35,4A17,17,0,0,1,28.84,7.1l-1,.76a15.94,15.94,0,0,0-2.42-3.06Zm2.81-1.24a15.72,15.72,0,0,1,2.49,3.11l-1.06.76a13.76,13.76,0,0,0-2.42-3.09Z"/><path d="M55.73,19.42l-1.84,1.29a48,48,0,0,0-6.64-6.91,28.88,28.88,0,0,1-8.64,6.89L37.28,19c6.24-2.9,11.38-9.08,12.86-14H38.75V3.16h12.6L52.81,4a28.14,28.14,0,0,1-4.33,8.27A71.16,71.16,0,0,1,55.73,19.42Z"/><path d="M75.91,13.09l-1.34,1.71a62.52,62.52,0,0,0-9.15-5.28v11.2H63.31V.9h2.12V7.28A82.7,82.7,0,0,1,75.91,13.09Z"/><path d="M87,6.52a2.66,2.66,0,0,1,4.58.18A72.56,72.56,0,0,0,102,17l-1.5,1.66a107.24,107.24,0,0,1-9.77-9.82c-.58-.69-1-1-1.54-1s-.92.32-1.5,1C86.58,10,83.79,13.34,82,15.55l-1.71-1.41C82.36,11.91,85.66,8,87,6.52ZM94.65,4A17,17,0,0,1,97.13,7.1l-1,.76a15.94,15.94,0,0,0-2.42-3.06Zm2.81-1.24a15.72,15.72,0,0,1,2.49,3.11l-1.06.76a13.76,13.76,0,0,0-2.42-3.09Z"/><path d="M113.24,7l-1.36,1.68a37.73,37.73,0,0,0-5.94-4.15l1.29-1.66A53.41,53.41,0,0,1,113.24,7Zm8.87,0,1.34,1.57c-3.16,5.14-9.63,10-15.92,11.91l-1-2A27.42,27.42,0,0,0,122.11,7.07Z"/><path d="M137.27,9.17V4.61c-2.14.39-4.33.69-6.27.9l-.53-1.77C134.8,3.36,140.79,2.3,144.2.92l.94,1.66a38.7,38.7,0,0,1-5.76,1.61v5h8.13V11h-8.16c-.18,4.65-1.71,7.42-7,9.7L131,19c5-2,6.13-4,6.29-8h-9V9.17Z"/><path d="M157.63,10l-1-4.38,1.84-.42,1,4.42,7.58-1.5,1.47.9a42.8,42.8,0,0,1-3.29,6.24l-1.57-.81a24.11,24.11,0,0,0,2.44-4.31l-6.24,1.22,2,9-1.84.44-2-9.05-4.54.9-.37-1.75Z"/><path d="M193,9.79v2.12H174.27V9.79Z"/><path d="M198,9.88l-1.18-1.59A22.71,22.71,0,0,0,206.61.21h1.87a24.54,24.54,0,0,0,10.07,8.09l-1.22,1.61A26.72,26.72,0,0,1,207.53,2,25.61,25.61,0,0,1,198,9.88Zm3.09,9.24V10h1.87v9.08h4V5.58h2v5.9h6.15v1.68h-6.15v6H218v1.73H197.32V19.12Z"/><path d="M243.31,19.42,242.16,21a22.13,22.13,0,0,1-8.71-4.42v4.77h-2V16.7a22.18,22.18,0,0,1-8.55,4.38l-1.13-1.57a20.57,20.57,0,0,0,8.59-3.87H222v-1.5h9.52V12.51h-7V11.13h7V9.58H223.4V8.11h4.93a16.38,16.38,0,0,0-1.11-2.58H222V4h4.29a14.58,14.58,0,0,0-1.87-2.83l1.47-.74a16.25,16.25,0,0,1,2,3L226.7,4h2.63V.21h1.84V4h2.67V.21h1.87V4h2.7l-1.17-.58a22.7,22.7,0,0,0,2.05-3l1.68.71A27.82,27.82,0,0,1,238.63,4h4.52v1.5h-5.07c-.39.78-.9,1.68-1.45,2.58h5.11V9.58h-8.29v1.54h7.23v1.38h-7.23v1.64h9.7v1.5h-8.46A20.69,20.69,0,0,0,243.31,19.42ZM234.76,8.11c.48-.85.92-1.8,1.27-2.58h-6.87a19.34,19.34,0,0,1,1,2.58Z"/><path d="M249.59,5.6l-.37-1.66a19,19,0,0,0,4.45-2.21h1.64V19.56h-2.14V4.1A21.94,21.94,0,0,1,249.59,5.6Z"/><path d="M274.41,10.76c0,5.6-1.94,9.19-6.06,9.19s-6-3.59-6-9.22,1.89-9.26,6-9.26,6.06,3.59,6.06,9.26Zm-9.91,0c0,5.28,1.45,7.33,3.85,7.33s3.87-2.05,3.87-7.35-1.5-7.47-3.87-7.47-3.85,2.1-3.85,7.47Z"/><path d="M291.16,10.76c0,5.6-1.94,9.19-6.06,9.19s-6-3.59-6-9.22,1.89-9.26,6-9.26,6.06,3.59,6.06,9.26Zm-9.91,0c0,5.28,1.45,7.33,3.85,7.33S289,16,289,10.74s-1.5-7.47-3.87-7.47-3.85,2.1-3.85,7.47Z"/><path d="M294.78,20.74h6.87v-14h.92V21.64h-7.79Z"/><path d="M314,11.91A50.53,50.53,0,0,1,315.21,1l2.07.37A41.79,41.79,0,0,0,316,11.89a21.57,21.57,0,0,0,1.24,8.2l-2.05.6A26,26,0,0,1,314,11.94Zm17.3,7.17c-1.45.14-3.09.23-4.45.23-4.1,0-7.14-.67-7.14-3a8.7,8.7,0,0,1,1-3.53l1.8.35a5.93,5.93,0,0,0-.88,2.6c0,1.31,1.84,1.71,5.14,1.71a32.76,32.76,0,0,0,4.49-.35ZM327.38,4.19c1.15,0,2.42,0,3.39,0l0,1.89C329.59,6,328.16,6,326.78,6c-2.26,0-4.77.14-6.75.35l-.12-1.84c2.14-.21,4.93-.3,7.44-.3Z"/><path class="cls-1" d="M29.38,150.24c-18,0-29.38-12.17-29.38-30.42C0,112.25,2.23,105,6.68,96.08l26-52.38h11L20,91.18A26.61,26.61,0,0,1,31.16,89c16.47,0,27.45,12.61,27.45,30C58.61,136.88,47.33,150.24,29.38,150.24ZM29.23,98C18,98,10.68,106.32,10.68,119.37S18,140.74,29.23,140.74s18.7-8.46,18.7-21.37C47.93,107.65,41.4,98,29.23,98Z"/><path class="cls-1" d="M93.1,136.2V146H88.19V136.2H68.58v-4.39h7.61V120.41h12v-5.52H79.45A35.81,35.81,0,0,1,73.1,123L69,120.5a33.82,33.82,0,0,0,9.31-14.83l4.87.57a44.07,44.07,0,0,1-1.48,4.22h25.7v4.44H93.1v5.52h12.74v4.3H93.1v7.09h15.83v4.39Zm-4.91-4.39v-7.09H81v7.09Z"/><path class="cls-1" d="M138.32,142.89c4.74.09,14.87.13,20-.09L158,145c-5,.09-15,.13-20,0-5.22-.13-8.48-1.39-11.91-5.09-2.57,2.39-4.87,4.22-6.91,5.83l-1.09-2.17a67.93,67.93,0,0,0,6.57-5.26V126.41h-6v-2.26H127v13.7C130.37,141.68,133.54,142.76,138.32,142.89Zm-17-35.74a41.15,41.15,0,0,1,6.22,7.91l-2.17,1.26a35.66,35.66,0,0,0-6-8ZM142,134.24v-3.87H132V115.54h10V112H129.84v-2H142V106h2.44v3.91h12.65v2H144.45v3.57h10.44v14.83H144.45v3.87h13.44v2.09H144.45v5.26H142v-5.26H129.15v-2.09Zm-7.65-12.18H142v-4.65h-7.65Zm0,6.44H142v-4.78h-7.65Zm18.13-6.44v-4.65h-8v4.65Zm0,6.44v-4.78h-8v4.78Z"/><path class="cls-1" d="M172.66,130.81a39.22,39.22,0,0,1-3.09,11.26l-2-.78a34.17,34.17,0,0,0,3-10.83Zm4.87,14.83h-2.26V127.15c-2.65.3-5.26.57-7.13.74l-.48-2.17c.78,0,1.74-.13,2.78-.17,1.35-1.78,2.65-3.65,4-5.48a40,40,0,0,0-6.31-6.48,16,16,0,0,1,1.22-1.7c.65.52,1.3,1.13,1.91,1.7A58.54,58.54,0,0,0,175.7,106l2,.87a64.87,64.87,0,0,1-5.09,8.09c1.13,1.13,2.13,2.26,3,3.26,2-3,3.74-5.91,4.91-8.18l2.09,1A131.92,131.92,0,0,1,173,125.33c2.52-.17,5.26-.39,7.52-.57a30.34,30.34,0,0,0-2.65-3.87l1.7-.91a28.7,28.7,0,0,1,4.48,7.39v-3.91h22.66v6.83h-2.17v-4.83H186.27v4.83h-2.17v-2.7a12.05,12.05,0,0,0-1.74.87,18.22,18.22,0,0,0-.87-2c-1.17.13-2.52.3-4,.43ZM182,130.24a46.05,46.05,0,0,1,2.3,8.74l-2.09.57a41.05,41.05,0,0,0-2.17-8.78Zm10.31-1.3c-.57,8.09-2.17,13.61-9.26,16.83l-1.65-1.7c6.78-2.83,8.26-7.91,8.65-15.22Zm1.74-11.31v-4.7H183.4v-2.09h10.7V106h2.39v4.83h11v2.09h-11v4.7h9.09v2H185.66v-2Zm4.83,10.83v12.44c0,1.57.26,1.83,1.39,1.87.87,0,2.52,0,3.52,0,1.22,0,1.35-.22,1.35-4.57l2.22.39c-.26,5.87-.7,6.39-3.35,6.48-1.17,0-3,0-4,0-2.7-.09-3.35-.78-3.35-4.17V128.46Z"/><path class="cls-1" d="M242.19,111.8c3.09-.26,6.91-.65,9.74-1l.3,2.57c-1.87.09-4.91.43-6.39.65a9.42,9.42,0,0,0-3.35,1.43c-5.74,3.61-10.09,8.78-10.09,14.74,0,6.74,5.87,10.61,16.48,11.18l-.35,2.52c-11.52-.52-18.79-5.17-18.79-13.61,0-6.17,4.26-11.91,10.65-16-5.09.43-15.61,1.09-21.61,1.35l-.17-2.52C224.53,113,238.32,112.11,242.19,111.8ZM246.1,120a36.35,36.35,0,0,1,4.13,6.57l-1.52.83a30.08,30.08,0,0,0-4-6.52Zm4.74-2.17a32.53,32.53,0,0,1,4.13,6.52l-1.48.83a28.89,28.89,0,0,0-4.09-6.52Z"/><path class="cls-1" d="M282.84,142.94c4.87.13,15.26.09,20.57-.09l-.3,2.13c-5.26.09-15.48.13-20.57,0s-8.26-1.26-11.65-4.65c-2.39,2.17-4.57,3.87-6.48,5.35l-1.09-2.13a63.62,63.62,0,0,0,6.13-4.78V126.54h-5.7v-2.22h8v14C275.06,141.81,278.32,142.81,282.84,142.94ZM266.05,107a35.47,35.47,0,0,1,5.91,7.7l-2.13,1.17a35.6,35.6,0,0,0-5.57-7.7Zm15.48,25.22v-5.35h-6.87V125h6.87v-3.31h2.39V125h8.57v-3.31h2.39V125h6.87v1.87h-6.87v5.35h8v2h-29.4v-2Zm-6.09-19.09h8.26v-3.91h-9.52V107.5h11.7v7.44h-9.17v2.65c0,1.17.3,1.39,1.74,1.43,1.17,0,3.61,0,5,0,1.57,0,1.7-.13,1.78-2.52l2,.39c-.26,3.61-.74,4-3.52,4-1.61,0-4.17,0-5.57,0-2.91,0-3.57-.65-3.57-3.35v-4.44Zm9.87,22.57a31.58,31.58,0,0,1-7.48,5.48l-2-1.39a27.28,27.28,0,0,0,7.31-4.91Zm7.17-3.48v-5.35h-8.57v5.35Zm-2.17-19.09h8.52v-3.91h-9.91V107.5h12.13v7.44h-9.57v2.65c0,1.17.35,1.39,1.83,1.43s4,0,5.48,0c1.7,0,1.78-.17,1.87-2.52l2.09.39c-.3,3.61-.78,4-3.74,4.09-1.7,0-4.44,0-6,0-3,0-3.74-.7-3.74-3.39v-4.44Zm2.74,21.66a86.64,86.64,0,0,1,9,5.7l-2.17,1.09a73,73,0,0,0-8.65-5.7Z"/><path class="cls-1" d="M330.25,140.55V124.67H316.73v-14h2.44v11.78h11.09V106.11h2.52v16.31h11.61V110.63h2.48v14H332.77v15.87h13.35V127.94h2.52v17.74h-2.52v-2.78H317.29v2.78h-2.48V127.94h2.48v12.61Z"/></g></g></svg>