<svg xmlns="http://www.w3.org/2000/svg" viewBox="0 0 150.85 129.04"><defs><style>.cls-1{fill:#ff4700;}</style></defs><title>whatweare-5-text</title><g id="レイヤー_2" data-name="レイヤー 2"><g id="design"><path d="M9.28,8.12V1.78H3.45V.94H16.15v.83H10.22V8.12H17V9h-6.8v6H9.28V9H2.57V8.12ZM5.49,2.74A16.78,16.78,0,0,1,7.26,7a7.62,7.62,0,0,0-.83.32A16.25,16.25,0,0,0,4.7,3.06Zm9.6.27a39.06,39.06,0,0,1-2.24,4.32L12.08,7a33.94,33.94,0,0,0,2.11-4.32Z"/><path d="M25.67,6.48h.48c-.18,3.73-.4,5.57-.85,5.87a1.31,1.31,0,0,1-.75.21c-.4,0-1.26,0-1.76,0l-.11-.8c.5,0,1.28,0,1.66,0a.55.55,0,0,0,.34-.08c.26-.21.43-1.55.58-4.39H21.69v.18A15.39,15.39,0,0,1,20,15l-.78-.51a13.85,13.85,0,0,0,1.57-7V3.25h6.43c-.08-.91-.14-1.86-.19-2.85h.91c0,1,.1,1.94.18,2.85h5.75v.83H28.2a30.61,30.61,0,0,0,1.17,6.08,13.83,13.83,0,0,0,2.26-4.71l.85.29a14.23,14.23,0,0,1-2.77,5.36c.74,1.84,1.65,2.9,2.72,2.95.48,0,.69-.48.8-2.37l.78.24c-.24,2.46-.72,3.11-1.74,3-1.33-.1-2.38-1.23-3.22-3.12a16,16,0,0,1-4.21,3.09l-.77-.53A15.46,15.46,0,0,0,28.71,11,30.13,30.13,0,0,1,27.3,4.08H21.69v2.4h4Zm4.24-6a13.58,13.58,0,0,1,2.7,1.94L31.95,3a12,12,0,0,0-2.59-2Z"/><path d="M43.7,13.49V9.28H39V8.44H43.7V4.88H39.79A17.09,17.09,0,0,1,37.87,8L37,7.6A15.39,15.39,0,0,0,40.1,1.17l.91.18A19.24,19.24,0,0,1,40.18,4H43.7V.38h.94V4h5.6v.86h-5.6V8.44h4.69v.85H44.64v4.21h6.56v.86H37v-.86Z"/><path d="M60.42,6.4c0-.91,0-1.86-.06-2.74H55V2.82h5.33c0-.74,0-1.41,0-2h1v2h5v.85h-5c0,.88,0,1.82,0,2.74H66v.85H61.38c0,1.23.06,2.35.08,3.14A17.11,17.11,0,0,1,66.2,13l-.64.74a15,15,0,0,0-4.08-2.45c0,2.26-.9,3.22-3.25,3.22-2.06,0-3.38-1-3.38-2.31s1.31-2.4,3.46-2.4a9,9,0,0,1,2.21.3c0-.75,0-1.76-.08-2.85H55.33V6.4Zm-2.15,4.21c-1.58,0-2.54.62-2.54,1.57s.93,1.5,2.43,1.5c1.79,0,2.35-.72,2.35-2.58V11A8.14,8.14,0,0,0,58.28,10.61Z"/><path d="M75,3.73A10,10,0,0,0,74.51,6l0,.45A19.93,19.93,0,0,1,77.81,3.6a4,4,0,0,1,2-.7c1.17,0,1.86.86,1.86,2.54,0,.72,0,1.71-.13,2.8-.08,1.33-.19,2.59-.19,3.54s.3,1.2.86,1.2a3.5,3.5,0,0,0,2.19-1.07l.18,1a4.44,4.44,0,0,1-2.51,1c-1,0-1.63-.59-1.63-2.11,0-.85.08-2.06.16-3.43.06-1,.14-2,.14-2.72,0-1.18-.42-1.78-1.17-1.78a2.93,2.93,0,0,0-1.5.56,20.33,20.33,0,0,0-3.6,3.14c0,2.8-.06,5.6-.06,7h-1c0-1.3.06-3.54.11-5.91-.82,1.06-2,2.75-2.66,3.81l-.72-.59C71,10.76,72.43,8.69,73,7.68a4.67,4.67,0,0,0,.56-1.44l0-1.87c-.82.06-2.06.16-3.06.21l-.06-.86c.72,0,2.18-.1,3.14-.19,0-1.06,0-2,0-2.72h1c0,.69-.06,1.6-.1,2.67Z"/><path d="M91.48,4.64A33.37,33.37,0,0,0,92.17.86L93.1,1a33.66,33.66,0,0,1-.69,3.59c.59,0,1.12-.06,1.55-.06,2,0,2.9,1.1,2.9,3.41a12.88,12.88,0,0,1-1,5.65,1.93,1.93,0,0,1-2,.94,9.77,9.77,0,0,1-2.18-.27l.08-.9a7.79,7.79,0,0,0,2,.29c.7,0,1-.06,1.36-.59.53-.78.88-2.95.88-5.11,0-1.78-.58-2.56-2-2.56-.46,0-1,0-1.7.08a27.56,27.56,0,0,1-3.49,8.29l-.83-.45a24.79,24.79,0,0,0,3.41-7.76c-1.2.11-2.46.27-3.49.46l-.16-.9C88.75,4.93,90.19,4.75,91.48,4.64Zm10.31,5.52-.93.22a11.2,11.2,0,0,0-3-6.21l.75-.51A12.1,12.1,0,0,1,101.79,10.16ZM98.65.94a11.36,11.36,0,0,1,1.79,2l-.51.38a9.5,9.5,0,0,0-1.74-2ZM100.19,0A11.26,11.26,0,0,1,102,2l-.5.4a10.1,10.1,0,0,0-1.74-2Z"/><path d="M111.5,14c1.79,0,5.62,0,7.57,0l-.11.78c-1.94,0-5.7,0-7.57,0A5.6,5.6,0,0,1,107.1,13c-.88.8-1.68,1.42-2.39,2l-.4-.78a23.43,23.43,0,0,0,2.26-1.76V7.94h-2.1V7.12h2.94v5.15A5.22,5.22,0,0,0,111.5,14ZM105.32.75a13,13,0,0,1,2.18,2.83l-.78.43a13.09,13.09,0,0,0-2-2.83ZM111,10v-2h-2.53V7.38H111V6.16h.88V7.38h3.15V6.16h.88V7.38h2.53v.69h-2.53v2h3v.72H108.08V10Zm-2.24-7h3V1.57h-3.51V.93h4.31V3.67h-3.38v1c0,.43.11.51.64.53s1.33,0,1.84,0,.62,0,.66-.93l.74.14c-.1,1.33-.27,1.47-1.3,1.49-.59,0-1.54,0-2,0-1.07,0-1.31-.24-1.31-1.23V3Zm3.63,8.31a11.62,11.62,0,0,1-2.75,2l-.74-.51A10,10,0,0,0,111.61,11ZM115.05,10v-2H111.9v2Zm-.8-7h3.14V1.57h-3.65V.93h4.47V3.67h-3.52v1c0,.43.13.51.67.53s1.46,0,2,0,.66-.06.69-.93l.77.14c-.11,1.33-.29,1.49-1.38,1.5-.62,0-1.63,0-2.19,0-1.12,0-1.38-.26-1.38-1.25V3Zm1,8a31.93,31.93,0,0,1,3.31,2.1l-.8.4a26.84,26.84,0,0,0-3.19-2.1Z"/><path d="M125.65,8.34a24,24,0,0,1-3.07,5l-.78-.51a18.38,18.38,0,0,0,3-4.85Zm2.26-1.58a6.67,6.67,0,0,1,.48-2.15l.94.22a4.58,4.58,0,0,0-.45,1.82,2.3,2.3,0,0,0,.77,1.63c1.31,1.38,1.84,2.42,1.84,3.59,0,1.44-.93,2.45-3,2.45a9.48,9.48,0,0,1-3-.54l.11-.9a8.3,8.3,0,0,0,2.91.58c1.33,0,2-.61,2-1.62s-.43-1.87-1.66-3.1A2.69,2.69,0,0,1,127.9,6.75Zm4.39-4-.34.86a34.61,34.61,0,0,0-6.16-1.68l.27-.86A38.81,38.81,0,0,1,132.29,2.72Zm1.12,4.91a27.92,27.92,0,0,1,3,5l-.93.42a21.56,21.56,0,0,0-2.9-4.95ZM133.18.85a12.3,12.3,0,0,1,1.76,2.27l-.53.37a12.06,12.06,0,0,0-1.73-2.26ZM135,0a13.14,13.14,0,0,1,1.76,2.29l-.53.37A11,11,0,0,0,134.48.42Z"/><path d="M139.42,11.08a31,31,0,0,1,3.14,3.27l-.78.62a23.45,23.45,0,0,0-3-3.28Z"/><path d="M4.89,39.78H4.06V30.87a21.42,21.42,0,0,1-1.46,2.51l-.45-.77a22.93,22.93,0,0,0,3.12-7.44l.82.19A27.41,27.41,0,0,1,4.89,29Zm3.59-2.13V36.18H5.81v-.69H8.48V34.28H6V29.52H8.48V28.35H5.81v-.69H8.48V26.59a21.45,21.45,0,0,1-2.27.26L6,26.16a22.46,22.46,0,0,0,5.31-1l.32.67a16,16,0,0,1-2.37.58v1.22h2.63v.69H9.26v1.17h2.59v4.75H9.26v1.22h2.59v.69H9.26v1.36c.93-.13,1.84-.27,2.58-.38v.45c1.17-2.16,1.52-5.06,1.63-8.37H11.89v-.75h1.6c0-1.06,0-2.16,0-3.28h.82c0,1.12,0,2.22,0,3.28H16.8c-.24,6.75-.5,10.42-1,10.95a1.08,1.08,0,0,1-.8.29c-.29,0-.91,0-1.28,0l-.08-.8c.34,0,.88,0,1.15,0a.59.59,0,0,0,.38-.14c.38-.4.61-3.52.8-9.56H14.27c-.18,4.5-.75,8.24-3,10.56l-.74-.43a8.34,8.34,0,0,0,1.12-1.47c-1.76.29-4.4.72-5.91.93L5.65,38C6.35,37.94,7.39,37.81,8.48,37.65ZM6.72,31.6H8.48V30.16H6.72Zm0,2H8.48V32.16H6.72Zm4.42-2V30.16H9.26V31.6Zm0,2V32.16H9.26v1.47Z"/><path d="M20.57,31c2.24,0,4.88-.1,7.28-.26a22.09,22.09,0,0,1-.77-2.19c-2,.14-4.07.24-5.94.26l0-.83c1.81,0,3.84-.08,5.75-.21a19.71,19.71,0,0,1-.46-2l1-.11c.1.67.22,1.38.4,2.1,1.57-.13,3-.29,4.16-.46l.11.83c-1.12.16-2.53.3-4.07.42a19.62,19.62,0,0,0,.75,2.19c1.58-.11,3-.26,4.11-.43l.1.83c-1,.14-2.37.27-3.86.38a10.9,10.9,0,0,0,2.06,3.14l-.5.74a12.68,12.68,0,0,0-5.49-1.23c-2,0-3,.86-3,2.06,0,1.46,1.92,2.24,5.17,2.24.7,0,1.63,0,2.5-.1l-.06.9c-.75.06-1.62.08-2.27.08-4.07,0-6.27-1.14-6.27-3.14,0-1.73,1.42-2.83,3.83-2.83a12,12,0,0,1,4.63.86,13.3,13.3,0,0,1-1.52-2.66c-2.5.18-5.25.29-7.59.32Z"/><path d="M40.52,29.44a33.37,33.37,0,0,0,.69-3.78l.93.11a33.66,33.66,0,0,1-.69,3.59c.59,0,1.12-.06,1.55-.06,2,0,2.9,1.1,2.9,3.41a12.88,12.88,0,0,1-1,5.65,1.93,1.93,0,0,1-2,.94A9.77,9.77,0,0,1,40.7,39l.08-.9a7.79,7.79,0,0,0,2,.29c.7,0,1-.06,1.36-.59.53-.78.88-2.95.88-5.11,0-1.78-.58-2.56-2-2.56-.46,0-1,0-1.7.08a27.56,27.56,0,0,1-3.49,8.29l-.83-.45a24.79,24.79,0,0,0,3.41-7.76c-1.2.11-2.46.27-3.49.46l-.16-.9C37.79,29.73,39.23,29.55,40.52,29.44ZM50.83,35l-.93.22a11.2,11.2,0,0,0-3-6.21l.75-.51A12.1,12.1,0,0,1,50.83,35Zm-3.14-9.22a11.36,11.36,0,0,1,1.79,2l-.51.38a9.5,9.5,0,0,0-1.74-2Zm1.54-.94a11.26,11.26,0,0,1,1.79,2l-.5.4a10.1,10.1,0,0,0-1.74-2Z"/><path d="M55.24,27.7c-.1,1.23-.16,2.45-.16,3.46,0,3.86,1.44,6.37,2.59,6.37.75,0,1.38-1.26,1.81-3l.82.35c-.62,2.3-1.42,3.7-2.58,3.7-1.66,0-3.59-2.82-3.59-7.38,0-1.06,0-2.29.11-3.57Zm8.5-.34C66,29.62,66.85,32.21,67,35.73l-1,.1c0-3.44-.85-5.89-3-7.92Z"/><path d="M70.59,33.88A6.84,6.84,0,0,1,77.36,27c4.16,0,6.15,2.34,6.15,5.65,0,3.11-1.49,5.49-5.83,6.42l-.45-.91c4-.74,5.28-2.77,5.28-5.51,0-2.9-1.78-4.72-5-4.75C77.31,34,75.37,38.18,73.2,38.18c-1.42,0-2.61-2-2.61-4.29Zm.91,0c0,1.7.78,3.3,1.71,3.3,1.42,0,3.22-3.52,3.35-9.22A5.85,5.85,0,0,0,71.5,33.88Z"/><path d="M96.55,29.62c0,.37-.11.72-.19,1.07,2.29.45,3.51,1.89,3.51,4,0,2.5-1.49,4.21-5.11,4.72l-.35-.83c3.15-.37,4.53-1.71,4.53-3.87a3.12,3.12,0,0,0-2.79-3.17,11,11,0,0,1-3.41,5.6,11.06,11.06,0,0,0,.34,1.1l-.85.34c-.1-.27-.18-.58-.26-.88a5.29,5.29,0,0,1-2.82.88c-1.41,0-2-.85-2-2.26,0-2.16,1.71-4.21,4.27-5.17,0-.85.1-1.73.18-2.61H87.37v-.83h4.34c.08-.69.18-1.38.29-2l.91.08c-.11.62-.21,1.28-.3,2h6.93v.83h-7c-.08.8-.14,1.58-.18,2.32a9.79,9.79,0,0,1,2.32-.29c.29,0,.58,0,.85,0,.06-.34.11-.69.16-1ZM88,36.23c0,.94.35,1.42,1.31,1.42a4.35,4.35,0,0,0,2.46-.86,23.25,23.25,0,0,1-.38-4.43c0-.13,0-.26,0-.38C89.37,32.85,88,34.5,88,36.23Zm6.61-4.88a8.39,8.39,0,0,0-2.32.32c0,.21,0,.42,0,.62a23.7,23.7,0,0,0,.29,3.87,10.44,10.44,0,0,0,2.74-4.8C95.08,31.35,94.86,31.35,94.62,31.35Z"/><path d="M113.62,26.4l.51.69c-1.62,1.39-4.11,3.59-5.46,4.79a7.65,7.65,0,0,1,3.27-.67A3.65,3.65,0,0,1,115.83,35c0,2.67-2.11,4.18-5.62,4.18-2.13,0-3.41-.86-3.41-2.19s1.17-2.16,2.79-2.16c1.81,0,2.82,1.33,3,3.19a3.06,3.06,0,0,0-.94-6,8.58,8.58,0,0,0-3.55.82,21.32,21.32,0,0,0-3.73,2.72l-.64-.72c2.37-1.79,6.79-5.68,8.68-7.46-1.63.14-5.27.27-7.06.3l0-.9C107.29,26.77,111.54,26.61,113.62,26.4Zm-4,9.2c-1.17,0-1.94.56-1.94,1.38s.86,1.38,2.46,1.38a9.36,9.36,0,0,0,1.71-.14C111.68,36.69,110.94,35.6,109.58,35.6Z"/><path d="M119.67,31.2l-.54-.77a15.73,15.73,0,0,0,6.9-5.25H127A16.94,16.94,0,0,0,134,30.43l-.58.78a18.27,18.27,0,0,1-7-5.22A17.1,17.1,0,0,1,119.67,31.2Zm2.58,7a41.7,41.7,0,0,0,2.19-4.43h-4.5V32.9h13.22v.83h-7.72a46.68,46.68,0,0,1-2.21,4.37c2.4-.18,5.22-.4,7.35-.58a26.3,26.3,0,0,0-2.29-2.4l.69-.46a24.45,24.45,0,0,1,4,4.63l-.82.5a15.41,15.41,0,0,0-1-1.54c-3.22.32-8.29.77-11,1l-.22-.93ZM130.81,30v.82h-8.44V30Z"/><path d="M139.93,39.78H139v-6a15.93,15.93,0,0,1-2.42,2.15l-.58-.74a14.94,14.94,0,0,0,5.22-6.32h-4.9V28H139V25.18h.91V28h1.92l.56.24a15.41,15.41,0,0,1-2.18,4.07c1,.93,2.14,2,2.79,2.69l-.66.62c-.56-.67-1.5-1.7-2.43-2.62Zm6-1.28V31.39h-3.28v-.85h3.28V25.18h.93v5.36h3.3v.85h-3.3V38.5h4v.85h-9.11V38.5Z"/><path class="cls-1" d="M1.41,125.46,0,123.65c5.92-1.53,12.33-4.63,16.07-8.82H5.48c-.24.77-.52,1.49-.73,2.09l-2.26-.16a91.55,91.55,0,0,0,3-9.83H17.36v-4.47H3.71v-1.85H33v8.14H19.66v4.19H34.76c-.81,7-1.77,10.15-3.18,10.8a3.53,3.53,0,0,1-1.77.36c-.85,0-2.74,0-3.87-.08L25.7,122c1,.08,2.82.08,3.59.08a2.42,2.42,0,0,0,.85-.16c.81-.36,1.53-2.42,2.13-7H19.66v12.49h-2.3V116.24C13.37,120.55,7.21,123.73,1.41,125.46ZM14.46,99.32l-2.05.69a19.34,19.34,0,0,0-2.3-4.55H6.81A29.14,29.14,0,0,1,2,100.85L.12,99.72A22.4,22.4,0,0,0,7,90.62l2.05.44A21.87,21.87,0,0,1,7.9,93.68H18.65v1.77H12.41A20.25,20.25,0,0,1,14.46,99.32Zm2.9,13.62v-4.19h-10c-.4,1.37-.85,2.82-1.25,4.19Zm15-13.5-2.05.81a20.26,20.26,0,0,0-2.9-4.79H23.2a23.83,23.83,0,0,1-4.67,5l-1.85-1.09a19.77,19.77,0,0,0,6.73-8.74l2.09.4a15.82,15.82,0,0,1-1.21,2.66H36.94v1.77h-7A20.59,20.59,0,0,1,32.39,99.44Zm-12.73,7.49h11v-4.47h-11Z"/><path class="cls-1" d="M85.44,123.56C82,127,77.28,129,70.77,129S59.19,127,56,123.77s-4.75-7.54-5.17-12.81h7.44c.93,7.34,4.75,11.47,12.51,11.47A12.83,12.83,0,0,0,79.86,119c3.82-3.82,4-9.71,4-15,0-9-1.76-17.88-12.4-17.88-6.41,0-10.75,2.89-12.19,7.23H52.58V54.73H89.78v6.61H59.3V84.7c2.89-3.2,7.44-5.06,13.23-5.06,5.48,0,9.82,1.76,12.71,4.65,5.37,5.37,6.1,12.82,6.1,19.74C91.33,111.36,90.71,118.29,85.44,123.56Z"/><path class="cls-1" d="M113.86,127.32h-2.26V105a61.31,61.31,0,0,1-4.43,6.77L105.72,110a60.3,60.3,0,0,0,9.67-19.38l2.22.56a65.93,65.93,0,0,1-3.75,9.55Zm17.56-3.87a211.76,211.76,0,0,0,5.12-20.83l2.34.52c-1.17,5.52-3.14,13.37-5.32,20.3h9.63v2.13H116.24v-2.13Zm-3.18-25.22V90.62h2.3v7.61h11.64v2.14H117.41V98.23Zm-5.52,4.67a154.77,154.77,0,0,1,3.18,18l-2.18.56a154.37,154.37,0,0,0-3.14-18.09Z"/></g></g></svg>