<svg xmlns="http://www.w3.org/2000/svg" xmlns:xlink="http://www.w3.org/1999/xlink" viewBox="0 0 154.18 148.59"><defs><style>.cls-1{fill:url(#名称未設定グラデーション_20);}.cls-2{fill:url(#名称未設定グラデーション_20-2);}.cls-3{fill:url(#名称未設定グラデーション_20-3);}.cls-4{fill:url(#名称未設定グラデーション_20-4);}.cls-5{fill:url(#名称未設定グラデーション_232);}.cls-6{fill:url(#名称未設定グラデーション_257);}.cls-7{fill:url(#名称未設定グラデーション_20-5);}</style><linearGradient id="名称未設定グラデーション_20" x1="-563.93" y1="-3678.15" x2="-563.93" y2="-3664.35" gradientTransform="translate(599.27 3813.72)" gradientUnits="userSpaceOnUse"><stop offset="0" stop-color="#ffbe1f"/><stop offset="0.06" stop-color="#ffaa1f"/><stop offset="0.15" stop-color="#ff931f"/><stop offset="0.26" stop-color="#ff821f"/><stop offset="0.38" stop-color="#ff761f"/><stop offset="0.56" stop-color="#ff6f1f"/><stop offset="1" stop-color="#ff6d1f"/></linearGradient><linearGradient id="名称未設定グラデーション_20-2" x1="56.22" y1="142.79" x2="56.22" y2="112.08" gradientTransform="matrix(1, 0, 0, 1, 0, 0)" xlink:href="#名称未設定グラデーション_20"/><linearGradient id="名称未設定グラデーション_20-3" x1="77.09" y1="142.79" x2="77.09" y2="76.32" gradientTransform="matrix(1, 0, 0, 1, 0, 0)" xlink:href="#名称未設定グラデーション_20"/><linearGradient id="名称未設定グラデーション_20-4" x1="97.97" y1="141.35" x2="97.97" y2="40.9" gradientTransform="matrix(1, 0, 0, 1, 0, 0)" xlink:href="#名称未設定グラデーション_20"/><linearGradient id="名称未設定グラデーション_232" x1="118.84" y1="14.21" x2="118.84" y2="135.26" gradientUnits="userSpaceOnUse"><stop offset="0" stop-color="#ff6d1f"/><stop offset="1" stop-color="#ffb01f"/></linearGradient><linearGradient id="名称未設定グラデーション_257" x1="5.53" y1="112.52" x2="87.15" y2="30.18" gradientUnits="userSpaceOnUse"><stop offset="0" stop-color="#ffbe1f"/><stop offset="0.06" stop-color="#ffa81f"/><stop offset="0.14" stop-color="#ff921f"/><stop offset="0.24" stop-color="#ff811f"/><stop offset="0.36" stop-color="#ff761f"/><stop offset="0.53" stop-color="#ff6f1f"/><stop offset="1" stop-color="#ff6d1f"/></linearGradient><linearGradient id="名称未設定グラデーション_20-5" x1="56.83" y1="147.57" x2="109.93" y2="147.57" gradientTransform="matrix(1, 0, 0, 1, 0, 0)" xlink:href="#名称未設定グラデーション_20"/></defs><title>whatweare-16407-icon</title><g id="レイヤー_2" data-name="レイヤー 2"><g id="design"><rect class="cls-1" x="29.61" y="135.35" width="11.46" height="6.12" transform="translate(70.69 276.82) rotate(180)"/><rect class="cls-2" x="50.49" y="127.1" width="11.46" height="14.37"/><rect class="cls-3" x="71.36" y="110.59" width="11.46" height="30.89"/><rect class="cls-4" x="92.23" y="62.31" width="11.46" height="79.16"/><rect class="cls-5" x="113.11" width="11.46" height="141.47"/><path class="cls-6" d="M88.8,13.35l.12,42.6L80.76,43.71s-17.7,53.06-72,75.63C28.07,107.64,60.5,69.22,68,38.57L54.4,35.65Z"/><rect class="cls-7" y="146.55" width="154.18" height="2.05"/></g></g></svg>