<svg xmlns="http://www.w3.org/2000/svg" viewBox="0 0 160.65 84.34"><defs><style>.cls-1{fill:#ff4700;}</style></defs><title>whatweare-1-num</title><g id="レイヤー_2" data-name="レイヤー 2"><g id="design"><g id="TOP"><g id="WHAT_WE_AREのコピー_2" data-name="WHAT WE AREのコピー 2"><path class="cls-1" d="M1.8,82,0,79.67c7.54-1.95,15.7-5.9,20.47-11.23H7c-.31,1-.67,1.9-.92,2.67l-2.87-.21A116.51,116.51,0,0,0,7,58.38H22.11V52.68H4.72V50.32H42V60.69H25V66H44.27c-1,8.88-2.26,12.93-4.05,13.75a4.49,4.49,0,0,1-2.26.46c-1.08.05-3.49-.05-4.92-.1l-.31-2.62c1.33.1,3.59.1,4.57.1a3.09,3.09,0,0,0,1.08-.21c1-.46,1.95-3.08,2.72-9H25v15.9H22.11V70.23C17,75.72,9.18,79.77,1.8,82ZM18.42,48.68l-2.62.87a24.6,24.6,0,0,0-2.92-5.8H8.67a37.18,37.18,0,0,1-6.16,6.87L.15,49.19A28.52,28.52,0,0,0,9,37.6l2.62.56a27.93,27.93,0,0,1-1.54,3.33h13.7v2.26h-8A25.78,25.78,0,0,1,18.42,48.68ZM22.11,66V60.69H9.34C8.82,62.43,8.26,64.28,7.75,66ZM41.25,48.84l-2.62,1a25.8,25.8,0,0,0-3.69-6.1H29.55a30.35,30.35,0,0,1-6,6.36l-2.36-1.39A25.18,25.18,0,0,0,29.81,37.6l2.67.51a20.17,20.17,0,0,1-1.54,3.39H47v2.26h-9A26.24,26.24,0,0,1,41.25,48.84ZM25,58.38H39V52.68H25Z"/><path class="cls-1" d="M77.22,83.63V9.4L61.6,23.14V13.51L77.22,0h8.46V83.63Z"/><path class="cls-1" d="M123.3,83.22h-2.87V54.8a78,78,0,0,1-5.64,8.62l-1.85-2.31a76.82,76.82,0,0,0,12.31-24.68l2.82.72a83.78,83.78,0,0,1-4.77,12.16Zm22.37-4.92a269.39,269.39,0,0,0,6.52-26.52l3,.67c-1.49,7-4,17-6.77,25.86h12.26V81H126.33V78.29Zm-4.05-32.11v-9.7h2.92v9.7h14.83V48.9H127.81V46.18Zm-7,6a197.14,197.14,0,0,1,4.05,23l-2.77.72a196.57,196.57,0,0,0-4-23Z"/></g></g></g></g></svg>