<?xml version="1.0" encoding="utf-8"?>
<!-- Generator: Adobe Illustrator 21.0.2, SVG Export Plug-In . SVG Version: 6.00 Build 0)  -->
<svg version="1.1" id="レイヤー_1" xmlns="http://www.w3.org/2000/svg" xmlns:xlink="http://www.w3.org/1999/xlink" x="0px"
	 y="0px" viewBox="0 0 433.5 147.9" style="enable-background:new 0 0 433.5 147.9;" xml:space="preserve">
<style type="text/css">
	.st0{fill:#FF4700;}
	.st1{fill:#FF4700;stroke:#FF4700;stroke-width:1.1031;stroke-miterlimit:10;}
	.st2{fill:#FF4700;stroke:#FF4700;stroke-width:1.3734;stroke-miterlimit:10;}
</style>
<title>whatweare-16407-modalnum</title>
<g>
	<path d="M6.9,21.8H5v-9.3c-1.4,0.2-2.8,0.3-3.8,0.4l-0.3-1.7c0.4,0,0.9-0.1,1.5-0.1c0.7-0.8,1.3-1.7,2-2.6C3.5,7.4,2.3,6.1,1.1,5
		l1-1.2C2.4,4,2.7,4.3,2.9,4.5c0.9-1.4,1.8-2.9,2.3-3.9l1.6,0.7C6.2,2.5,5.1,4.1,4,5.6c0.5,0.5,0.9,1,1.3,1.5
		c1.2-1.6,2.1-3.2,2.8-4.4l1.7,0.8c-1.3,2.1-3.2,4.9-5.3,7.5c1.2-0.1,2.4-0.2,3.5-0.3c-0.4-0.7-0.8-1.3-1.3-2L8,8
		c1.1,1.5,2,3.2,2.5,4.4L9,13.1c-0.1-0.3-0.3-0.7-0.4-1.1c-0.5,0.1-1.1,0.1-1.8,0.2V21.8z M4,14.1c-0.2,2.2-0.8,4.4-1.5,6l-1.5-0.6
		c0.7-1.6,1.3-3.7,1.5-5.7L4,14.1z M9.3,13.7c0.6,1.5,1.1,3.3,1.2,4.5L9,18.6c-0.1-1.2-0.6-3-1.2-4.5C8.5,13.9,8.9,13.8,9.3,13.7z
		 M15.2,19.5v-4.4h-4v-1.7h4v-3.2H17v3.2h4.1v1.7H17v4.4h5.3v1.7H9.6v-1.7H15.2z M16.1,6.6c1.2-1.1,2.2-2.3,2.9-3.7h-8.6V1.3h9.2
		h0.4h0.1l1.3,0.4c-0.8,2.3-2.1,4.3-4,5.9c1.5,1,3.3,1.7,5.1,2.2l-1.2,1.6c-1.9-0.6-3.8-1.5-5.4-2.6c-1.5,1.1-3.3,2-5.2,2.6L9.6,10
		c1.9-0.6,3.6-1.4,5-2.3c-1.3-1.1-2.4-2.5-3.2-4L13.1,3C13.9,4.4,14.9,5.6,16.1,6.6z"/>
	<path d="M30.7,3.8c-0.4-0.7-1-1.5-1.6-2.2l1.6-0.8c0.9,0.9,1.6,2,2,2.8l-0.4,0.2h2.6V0.6h2v3.3h2.5l-0.2-0.1c0.9-1,1.8-2.1,2.2-2.9
		l1.8,0.8c-0.5,0.6-1.2,1.4-1.9,2.2h4.7v4.5h-2v-3H28v3h-1.9V3.8H30.7z M42.8,13.2h1.2v5.6c0,0.9-0.3,1.5-1.1,1.6
		c-0.6,0.1-2,0.1-3,0l-0.3-1.6c0.7,0,1.8,0,2.1,0c0.3,0,0.4-0.2,0.4-0.4v-3.7h-5.2v7.1h-2v-7.1h-5v5.9h-1.9v-7.4h6.9v-1.5h-5V6.8
		h12.1v4.9h-5.1v1.5H42H42.8z M31.7,10.4H40V8.1h-8.3V10.4z"/>
	<path d="M50.9,18.2l-1.4-1.5c1.8-1.9,3.9-5,5-7.9H50V7.1h4.8V3.9c-1.4,0.3-2.8,0.5-3.9,0.6l-0.7-1.7c3.1-0.2,7.3-1.2,9.4-2.2l1,1.5
		c-1,0.5-2.4,0.9-3.9,1.3v3.6h4.1v1.7h-4.1v0.8c1.5,1.6,3.1,3.5,4,4.7l-1.2,1.6c-0.7-1.1-1.7-2.6-2.8-4.1v10h-1.9v-9.7
		C53.6,14.4,52.2,16.6,50.9,18.2z M62.4,16.5V3.2h1.9v13.3H62.4z M68.3,21.7c-0.6,0.1-2,0.1-3.1,0l-0.4-1.9c0.9,0.1,2.1,0.1,2.5,0
		c0.6-0.1,0.7-0.3,0.7-0.9V0.6H70v18.7C70,20.7,69.6,21.5,68.3,21.7z"/>
	<path d="M77.3,19.4v-6.2c-0.6,0.4-1.3,0.8-1.9,1.1l-1.2-1.5c2.7-1.1,5.2-3.3,6.7-6.2h-6.3V4.9h6.3c-0.4-1.1-1-2.5-1.8-3.6l1.7-0.7
		c0.9,1.3,1.6,2.8,2,3.9c-0.1,0-0.1,0-0.9,0.4h5.4c1-1.5,1.9-3.2,2.4-4.4l1.9,0.7c-0.6,1-1.4,2.4-2.3,3.7h6.4v1.7h-6.4
		c1.4,3,3.9,5.1,6.7,6.1l-1.2,1.6c-0.6-0.3-1.2-0.6-1.8-0.9v6.1h2.6v1.7h-21v-1.7H77.3z M91.4,12.3c-1.7-1.4-3.2-3.3-4.1-5.7h-4.5
		c-1,2.3-2.5,4.2-4.2,5.7H91.4z M82,19.4V14h-2.8v5.4H82z M86.4,19.4V14h-2.9v5.4H86.4z M91,19.4V14h-2.9v5.4H91z"/>
	<path d="M105.1,6.6c0.4-1.7,0.7-3.5,0.9-5.3l2,0.3c-0.3,1.6-0.6,3.3-0.9,4.9c0.6,0,1.1-0.1,1.6-0.1c3.2,0,4.6,1.7,4.6,5.1
		c0,3.5-0.6,6.7-1.5,8.1c-0.8,1.2-1.6,1.6-3.1,1.5c-1,0-2.2-0.1-3.2-0.4l0.1-1.9c0.9,0.3,2,0.4,2.7,0.4c0.9,0,1.3-0.1,1.8-0.8
		c0.7-1.1,1.2-3.8,1.2-7c0-2.4-0.7-3.4-2.7-3.4c-0.6,0-1.2,0-1.9,0.1c-1.2,4.7-3,8.9-5,11.9l-1.8-0.9c1.9-2.6,3.6-6.5,4.8-10.7
		c-1.6,0.2-3.2,0.4-4.7,0.7l-0.3-1.8C101.2,7,103.3,6.8,105.1,6.6z M120.3,14.7l-2,0.5c-0.4-3-1.6-6.3-4.1-8.9l1.6-1
		C118.5,8,119.9,11.7,120.3,14.7z M115.8,1.4c1,0.9,1.7,1.7,2.4,2.8l-1,0.8c-0.7-1.1-1.5-1.9-2.4-2.7L115.8,1.4z M118.1,0
		c1,0.9,1.7,1.7,2.5,2.7l-1,0.8c-0.7-1.1-1.5-1.9-2.4-2.7L118.1,0z"/>
	<path d="M127.7,21v0.8H126v-5.1c-0.4,1.4-0.9,2.7-1.7,4c-0.6-0.5-1-0.9-1.5-1.2c1.5-2.5,2.1-5.3,2.1-8.1v-4h0.8h0.9h8.2v6.4h-8.4
		c0,0.5-0.1,0.9-0.2,1.4h8.9v6.6h-1.8V21H127.7z M132.9,6h-5.8V5c-1.1,0.9-2.2,1.6-3.3,2.1l-0.9-1.6c2.2-0.9,4.4-2.6,6.3-5h1.5
		c1.9,2.3,4.2,3.8,6.3,4.7L136,7c-1-0.5-2.1-1.1-3.1-1.9V6z M126.6,11.1v0.3c0,0.4,0,0.7,0,1.1h6.5v-1.5H126.6z M133.1,10.1V8.6
		h-6.5v1.4H133.1z M132.6,4.8c-0.9-0.7-1.8-1.5-2.7-2.5c-0.8,1-1.6,1.8-2.5,2.5H132.6z M133.5,19.5v-2.8h-5.7v2.8H133.5z M138.7,3.2
		v13.2h-1.8V3.2H138.7z M143.6,0.6v18.8c0,1.3-0.4,2.1-1.7,2.3c-0.6,0.1-2,0.1-3,0l-0.4-1.9c0.9,0,2,0.1,2.4,0
		c0.6,0,0.7-0.3,0.7-0.9V0.6H143.6z"/>
	<path d="M169.2,19.8l-1.2,1.6c-3.1-0.9-6.5-2.4-8.7-4.4v4.8h-2v-4.7c-2.2,2-5.5,3.5-8.5,4.4l-1.1-1.6c3.1-0.7,6.5-2.1,8.6-3.9h-8.4
		v-1.5h9.5v-1.6h-7v-1.4h7V10h-8.1V8.5h4.9c-0.3-0.8-0.6-1.8-1.1-2.6h-5.3V4.4h4.3c-0.4-0.9-1.1-1.9-1.9-2.8l1.5-0.7
		c0.9,1,1.6,2.1,2,3c-0.5,0.2-0.9,0.4-1.2,0.6h2.6V0.6h1.8v3.8h2.7V0.6h1.9v3.8h2.7l-1.2-0.6c0.8-1.1,1.6-2.2,2.1-3l1.7,0.7
		c-0.6,0.8-1.4,1.9-2.3,2.9h4.5v1.5h-5.1c-0.4,0.8-0.9,1.7-1.5,2.6h5.1V10h-8.3v1.5h7.2v1.4h-7.2v1.6h9.7V16h-8.5
		C162.7,17.8,166.1,19.1,169.2,19.8z M160.6,8.5c0.5-0.9,0.9-1.8,1.3-2.6H155c0.4,0.9,0.8,1.8,1,2.6H160.6z"/>
	<path d="M175,2.7h4.5V18H175v1.5h-1.8V2.7h0.9H175z M177.7,9.4V4.5H175v4.9H177.7z M175,11.1v5.2h2.7v-5.2H175z M188.9,12.2V9.8
		h-8.7V8.1h5.7v-3h-4.3V3.4h4.3V0.6h1.9v2.8h4.3v1.7h-4.3v3h5.8v1.7h-2.9v2.4h2.9v1.7h-2.9v5.8c0,1.1-0.3,1.8-1.4,2
		c-0.6,0.1-2.1,0.1-3.2,0.1l-0.3-1.8c0.8,0,2,0.1,2.4,0c0.4,0,0.6-0.3,0.6-0.6v-5.4h-8.6v-1.7H188.9z M183.1,14.5
		c1.5,1.4,2.7,2.7,3.5,3.9l-1.6,1.1c-0.7-1.3-1.8-2.6-3.3-3.9L183.1,14.5z"/>
	<path d="M203.4,6.6c0.4-1.7,0.7-3.5,0.9-5.3l2,0.3c-0.2,1.6-0.6,3.3-0.9,4.9c0.6,0,1.1-0.1,1.6-0.1c3.2,0,4.6,1.7,4.6,5.1
		c0,3.5-0.6,6.7-1.5,8.1c-0.7,1.1-1.5,1.5-3,1.5c-1.1,0-2.4-0.2-3.3-0.4l0.1-1.9c0.9,0.3,2,0.4,2.8,0.4c0.9,0,1.2-0.1,1.7-0.8
		c0.7-1.1,1.2-3.8,1.2-7c0-2.5-0.8-3.4-2.7-3.4c-0.6,0-1.2,0-1.9,0.1c-1.3,4.7-3,8.9-5,11.9l-1.8-0.9c2-2.6,3.7-6.5,4.8-10.8
		c-1.6,0.2-3.2,0.4-4.7,0.7l-0.3-1.8C199.5,7,201.5,6.8,203.4,6.6z M218.5,14.5l-2,0.5c-0.4-3-1.7-6.5-4.2-9l1.6-1
		C216.6,7.7,218.1,11.6,218.5,14.5z"/>
	<path d="M225.7,13.1c2.3-1.6,5.2-2.7,7.6-2.7c3.6,0,5.7,1.7,5.7,4.7c0,3.7-3,6-10.2,6c-0.3,0-0.7,0-1.1,0l-0.4-1.9
		c0.6,0,1.2,0,1.7,0c5.8,0,8-1.6,8-4.1c0-2-1.3-3.1-4.1-3.1c-2.4,0-5.1,1.3-7.7,3.6l-1.6-0.7c0-5,0.5-7.4,2.3-9.9l1.8,0.6
		C226.2,7.9,225.7,10,225.7,13.1z M225.5,3l0.5-1.8c3.2,0.5,8,1.6,10.3,2.4l-0.5,1.8C233.8,4.6,228.7,3.4,225.5,3z"/>
</g>
<g>
	<g>
		<path class="st0" d="M18.4,146V57.2L0,73.6V62.1L18.4,46h10v100H18.4z"/>
		<path class="st0" d="M72.7,146.8c-16.7,0-27.4-11.5-27.4-28.8c0-7.2,2.1-14,6.2-22.5L75.8,46H86L64,90.9c3-1.4,6.5-2.1,10.4-2.1
			c15.4,0,25.6,11.9,25.6,28.4C100,134.2,89.5,146.8,72.7,146.8z M72.6,97.4c-10.5,0-17.3,7.9-17.3,20.2c0,12.2,6.8,20.2,17.3,20.2
			c10.5,0,17.4-8,17.4-20.2C90,106.5,84,97.4,72.6,97.4z"/>
		<path class="st0" d="M160.7,130.1V146h-9.8v-15.9h-39.3V121l35.5-75h10.6l-35.5,75h28.6V92.6h9.8V121h12v9.1H160.7z"/>
		<path class="st0" d="M211.6,146.8c-15.4,0-27-11-27-27.5V72.7c0-16.6,11.6-27.5,27-27.5c15.4,0,27,11,27,27.5v46.6
			C238.6,135.9,227,146.8,211.6,146.8z M228.6,73.2c0-11-6.1-19.1-17-19.1c-10.9,0-17,8.1-17,19.1v45.5c0,11,6.1,19.1,17,19.1
			c10.9,0,17-8.1,17-19.1V73.2z"/>
		<path class="st1" d="M248.1,146.6v-9.4h9.3v9.4H248.1z"/>
		<path class="st0" d="M280.3,146h-10.5l34.2-91h-34.3v15.7h-9.8V46h54.6v9L280.3,146z"/>
		<path class="st2" d="M321.4,122.5c-5.4,0-9.3-3.7-9.3-9.3v-7.3c0-5.7,3.9-9.4,9.3-9.4c5.3,0,9.3,3.7,9.3,9.4v7.3
			C330.6,118.8,326.7,122.5,321.4,122.5z M326.7,106c0-3.7-1.6-6.1-5.4-6.1c-3.8,0-5.4,2.3-5.4,6.1v7c0,3.8,1.6,6,5.4,6
			c3.7,0,5.4-2.3,5.4-6V106z M326.9,146.6h-4.1L345.7,97h4.1L326.9,146.6z M351.2,147.1c-5.4,0-9.3-3.7-9.3-9.4v-7.3
			c0-5.7,3.9-9.4,9.3-9.4c5.3,0,9.3,3.7,9.3,9.4v7.3C360.4,143.4,356.4,147.1,351.2,147.1z M356.5,130.5c0-3.7-1.6-6.1-5.4-6.1
			c-3.8,0-5.4,2.3-5.4,6.1v7c0,3.8,1.6,6.1,5.4,6.1c3.7,0,5.4-2.4,5.4-6.1V130.5z"/>
	</g>
</g>
<g>
	<path class="st0" d="M404,55.9h1.7c-0.6,13.1-1.4,19.5-3,20.6c-0.7,0.4-1.5,0.7-2.6,0.7c-1.4,0.1-4.4,0-6.2-0.1l-0.4-2.8
		c1.7,0.1,4.5,0.2,5.8,0.1c0.5,0,0.8-0.1,1.2-0.3c0.9-0.7,1.5-5.4,2-15.4H390v0.6c0,9.3-1.6,18.5-5.9,26.3l-2.8-1.8
		c4.2-7.2,5.5-15.8,5.5-24.4V44.6h1.8h1.3h19.4c-0.3-3.2-0.5-6.5-0.7-10h3.2c0.2,3.5,0.3,6.8,0.6,10h20.2v2.9h-19.9
		c0.9,8.4,2.2,15.7,4.1,21.3c3.5-4.7,6.2-10.1,7.9-16.5l3,1c-2.1,7.4-5.3,13.6-9.7,18.8c2.6,6.5,5.8,10.2,9.5,10.3
		c1.7,0.1,2.4-1.7,2.8-8.3l2.8,0.8c-0.8,8.6-2.5,10.9-6.1,10.7c-4.7-0.3-8.4-4.3-11.3-11c-4.1,4.3-9,7.9-14.8,10.8l-2.7-1.9
		c6.5-3.3,11.9-7.2,16.3-12.1c-2.3-6.3-3.9-14.6-4.9-24.2H390v8.4h12.6H404z M418.9,34.8c4,2.2,7.1,4.5,9.5,6.8l-2.4,2
		c-2.2-2.3-5.3-4.6-9.1-6.9L418.9,34.8z"/>
	<path class="st0" d="M391.2,143.7v-17.9h-9V123h9V98.8h35.2v2.8h-32v5.4h29.4v2.4h-29.4v5.5h29.4v2.4h-29.4v5.6h38.4v2.8H408
		c1.6,3.9,3.8,7.2,6.5,9.9c5.2-2.9,10.3-6.2,13.1-8.5l2.4,2.1c-3.1,2.4-8.1,5.5-13.3,8.4c4.5,3.8,10.3,6.2,16.9,7.5
		c-1.1,1.4-1.6,2.1-2.1,2.8c-12.5-3-21.8-9.7-26.7-22.2h-10.3v17.4c6-1,12.6-2.2,17.4-3.1l0.2,2.8c-7.8,1.6-20.1,4-26.8,5.2
		c-0.2-0.7-0.4-1.5-1-3.1C386.1,144.5,388.5,144.1,391.2,143.7z"/>
</g>
</svg>
