<?xml version="1.0" encoding="utf-8"?>
<!-- Generator: Adobe Illustrator 21.0.2, SVG Export Plug-In . SVG Version: 6.00 Build 0)  -->
<svg version="1.1" id="レイヤー_1" xmlns="http://www.w3.org/2000/svg" xmlns:xlink="http://www.w3.org/1999/xlink" x="0px"
	 y="0px" viewBox="0 0 242.9 74.2" style="enable-background:new 0 0 242.9 74.2;" xml:space="preserve">
<style type="text/css">
	.st0{fill:#FF4700;}
</style>
<title>whatweare-6-text</title>
<g id="レイヤー_2">
	<g id="design">
		<path class="st0" d="M20.5,74.2C8,74.2,0,65.7,0,53c0-5.3,1.5-10.3,4.7-16.5L22.7,0h7.6L13.9,33.1c2.4-1.1,5.1-1.6,7.7-1.5
			c11.5,0,19.1,8.8,19.1,20.9C40.8,64.9,33,74.2,20.5,74.2z M20.4,37.8c-7.9,0-12.9,5.8-12.9,14.9s5.1,14.9,12.9,14.9
			s13-5.9,13-14.9C33.4,44.5,28.8,37.8,20.4,37.8z"/>
		<path class="st0" d="M64.8,64.4v6.8h-3.4v-6.8H47.8v-3.1h5.3v-7.9h8.4v-3.8h-6.1c-1.2,2.1-2.7,4-4.4,5.7L48,53.5
			c3-2.8,5.3-6.4,6.5-10.3l3.4,0.4c-0.3,1-0.6,2-1,2.9h17.9v3.1h-10v3.8h8.9v3h-8.9v4.9h11v3.1L64.8,64.4z M61.4,61.4v-4.9h-5v4.9
			L61.4,61.4z"/>
		<path class="st0" d="M96.3,69.1c3.3,0.1,10.4,0.1,14-0.1l-0.2,1.5c-3.5,0.1-10.5,0.1-13.9,0c-3.6-0.1-5.9-1-8.3-3.5
			c-1.8,1.7-3.4,2.9-4.8,4.1l-0.8-1.5c1.6-1.1,3.1-2.4,4.6-3.7v-8.3h-4.2V56h5.8v9.6C90.8,68.2,93,69,96.3,69.1z M84.5,44.2
			c1.7,1.7,3.1,3.5,4.3,5.5l-1.5,0.9c-1.1-2-2.5-3.9-4.2-5.5L84.5,44.2z M98.9,63.1v-2.7h-7V50h7v-2.5h-8.5v-1.4h8.5v-2.7h1.7v2.7
			h8.8v1.4h-8.8V50h7.3v10.3h-7.3v2.7h9.4v1.5h-9.4v3.7H99v-3.7h-9v-1.5H98.9z M93.6,54.6h5.3v-3.3h-5.3V54.6z M93.6,59.1h5.3v-3.4
			h-5.3V59.1z M106.2,54.6v-3.3h-5.6v3.3H106.2z M106.2,59.1v-3.4h-5.6v3.3L106.2,59.1z"/>
		<path class="st0" d="M120.3,60.7c-0.3,2.7-1,5.3-2.2,7.8l-1.4-0.6c1.1-2.4,1.8-4.9,2.1-7.5L120.3,60.7z M123.7,71h-1.6V58.1
			c-1.8,0.2-3.7,0.4-5,0.5l-0.3-1.5c0.6,0,1.2-0.1,1.9-0.1c0.9-1.2,1.8-2.5,2.8-3.8c-1.3-1.7-2.8-3.2-4.4-4.5
			c0.3-0.4,0.5-0.8,0.8-1.2c0.4,0.4,0.9,0.8,1.3,1.2c1.2-1.7,2.2-3.4,3.1-5.3l1.4,0.6c-1,1.9-2.2,3.8-3.5,5.6
			c0.8,0.8,1.5,1.6,2.1,2.3c1.4-2.1,2.6-4.1,3.4-5.7l1.4,0.7c-2,3.5-4.2,6.8-6.7,10c1.8-0.1,3.7-0.3,5.2-0.4
			c-0.5-0.9-1.2-1.8-1.8-2.7l1.2-0.6c1.3,1.5,2.3,3.3,3.1,5.2v-2.7H144v4.8h-1.5v-3.4h-12.8v3.4h-1.5v-1.9c-0.4,0.2-0.8,0.4-1.2,0.6
			c-0.2-0.5-0.4-0.9-0.6-1.4c-0.8,0.1-1.8,0.2-2.8,0.3V71z M126.8,60.3c0.7,2,1.3,4,1.6,6.1l-1.4,0.4c-0.3-2.1-0.8-4.2-1.5-6.1
			L126.8,60.3z M134,59.4c-0.4,5.6-1.5,9.5-6.4,11.7l-1.2-1.2c4.7-2,5.8-5.5,6-10.6L134,59.4z M135.2,51.5v-3.3h-7.4v-1.5h7.4v-3.4
			h1.7v3.4h7.7v1.4h-7.7v3.3h6.3v1.4h-13.9v-1.4L135.2,51.5z M138.6,59v8.7c0,1.1,0.2,1.3,1,1.3c0.6,0,1.8,0,2.4,0
			c0.9,0,0.9-0.2,0.9-3.2l1.5,0.3c-0.2,4.1-0.5,4.4-2.3,4.5c-0.8,0-2.1,0-2.8,0c-1.9-0.1-2.3-0.6-2.3-2.9V59L138.6,59z"/>
		<path class="st0" d="M168.6,47.4c2.1-0.2,4.8-0.4,6.8-0.7l0.2,1.8c-1.3,0.1-3.4,0.3-4.4,0.4c-0.8,0.2-1.6,0.5-2.3,1
			c-4,2.5-7,6.1-7,10.3c0,4.7,4.1,7.4,11.5,7.8l-0.2,1.8c-8-0.4-13.1-3.6-13.1-9.5c0-4.3,3-8.3,7.4-11.2c-3.5,0.3-10.9,0.8-15.1,0.9
			l-0.1-1.8C156.4,48.2,166,47.6,168.6,47.4z M171.4,53.1c1.1,1.4,2.1,2.9,2.9,4.6l-1.1,0.6c-0.7-1.6-1.7-3.2-2.8-4.5L171.4,53.1z
			 M174.7,51.6c1.1,1.4,2.1,2.9,2.9,4.5l-1,0.6c-0.7-1.6-1.7-3.2-2.9-4.5L174.7,51.6z"/>
		<path class="st0" d="M197,69.1c3.4,0.1,10.6,0.1,14.3-0.1l-0.2,1.5c-3.7,0.1-10.8,0.1-14.3,0s-5.8-0.9-8.1-3.2
			c-1.7,1.5-3.2,2.7-4.5,3.7l-0.8-1.5c1.5-1,2.9-2.1,4.2-3.3v-8.5h-4v-1.5h5.6v9.8C191.6,68.3,193.8,69,197,69.1z M185.3,44.1
			c1.6,1.6,3,3.4,4.1,5.4l-1.5,0.8c-1-2-2.4-3.8-3.9-5.4L185.3,44.1z M196.1,61.7v-3.8h-4.8v-1.3h4.8v-2.3h1.7v2.3h6v-2.3h1.7v2.3
			h4.8v1.3h-4.8v3.7h5.6V63h-20.5v-1.3L196.1,61.7z M191.8,48.4h5.8v-2.8H191v-1.2h8.1v5.2h-6.4v1.8c0,0.8,0.2,1,1.2,1
			c0.8,0,2.5,0,3.5,0s1.2-0.1,1.2-1.8l1.4,0.3c-0.2,2.5-0.5,2.8-2.4,2.8c-1.1,0-2.9,0-3.9,0c-2,0-2.5-0.4-2.5-2.3v-3.1L191.8,48.4z
			 M198.7,64.1c-1.5,1.5-3.3,2.8-5.2,3.8l-1.4-1c1.9-0.9,3.6-2,5.1-3.4L198.7,64.1z M203.7,61.7v-3.8h-6v3.7L203.7,61.7z
			 M202.2,48.4h5.9v-2.8h-6.9v-1.2h8.4v5.2H203v1.8c0,0.8,0.2,1,1.3,1s2.8,0,3.8,0s1.2-0.1,1.3-1.8l1.4,0.3
			c-0.2,2.5-0.6,2.8-2.6,2.8c-1.2,0-3.1,0-4.1,0c-2.1,0-2.6-0.5-2.6-2.4v-3.1L202.2,48.4z M204.1,63.5c2.2,1.2,4.3,2.5,6.3,4
			l-1.5,0.8c-1.9-1.5-3.9-2.8-6-4L204.1,63.5z"/>
		<path class="st0" d="M230,67.4v-11h-9.4v-9.8h1.7v8.2h7.7V43.5h1.8v11.4h8.1v-8.2h1.7v9.8h-9.8v11.1h9.3v-8.8h1.8V71h-1.8v-1.9
			H221V71h-1.7V58.7h1.7v8.8H230z"/>
	</g>
</g>
</svg>
