<?xml version="1.0" encoding="utf-8"?>
<!-- Generator: Adobe Illustrator 21.0.2, SVG Export Plug-In . SVG Version: 6.00 Build 0)  -->
<svg version="1.1" id="レイヤー_1" xmlns="http://www.w3.org/2000/svg" xmlns:xlink="http://www.w3.org/1999/xlink" x="0px"
	 y="0px" viewBox="0 0 143.2 74.3" style="enable-background:new 0 0 143.2 74.3;" xml:space="preserve">
<style type="text/css">
	.st0{fill:#FF4700;}
</style>
<title>whatweare-5-text</title>
<g id="レイヤー_2">
	<g id="design">
		<path class="st0" d="M1.4,70.7L0,68.9c5.9-1.5,12.3-4.6,16.1-8.8H5.5c-0.2,0.8-0.5,1.5-0.7,2.1L2.5,62c1.2-3.2,2.2-6.5,3-9.8h11.9
			v-4.5H3.7v-1.8H33V54H19.7v4.2h15.1c-0.8,7-1.8,10.2-3.2,10.8c-0.5,0.3-1.2,0.4-1.8,0.4c-0.9,0-2.7,0-3.9-0.1l-0.2-2
			c1,0.1,2.8,0.1,3.6,0.1c0.3,0,0.6-0.1,0.9-0.2c0.8-0.4,1.5-2.4,2.1-7H19.7v12.5h-2.3V61.5C13.4,65.8,7.2,69,1.4,70.7z M14.5,44.6
			l-2.1,0.7c-0.6-1.6-1.3-3.1-2.3-4.6H6.8c-1.4,2-3,3.8-4.8,5.4L0.1,45c3-2.4,5.4-5.5,6.9-9.1l2.1,0.4c-0.3,0.9-0.7,1.8-1.2,2.6
			h10.8v1.8h-6.2C13.2,41.9,13.9,43.2,14.5,44.6z M17.4,58.2V54h-10c-0.4,1.4-0.8,2.8-1.2,4.2H17.4z M32.4,44.7l-2,0.8
			c-0.7-1.7-1.7-3.3-2.9-4.8h-4.2c-1.3,1.9-2.9,3.6-4.7,5l-1.9-1.1c3-2.2,5.4-5.2,6.7-8.7l2.1,0.4c-0.3,0.9-0.7,1.8-1.2,2.7h12.6
			v1.8h-7C30.9,42,31.7,43.3,32.4,44.7L32.4,44.7z M19.6,52.2h11v-4.5h-11V52.2z"/>
		<path class="st0" d="M85.4,68.8c-3.4,3.4-8.2,5.4-14.7,5.4S59.2,72.3,56,69c-3.2-3.2-4.8-7.5-5.2-12.8h7.4
			c0.9,7.3,4.8,11.5,12.5,11.5c3.4,0.1,6.6-1.1,9.1-3.4c3.8-3.8,4-9.7,4-15c0-9-1.8-17.9-12.4-17.9c-6.4,0-10.8,2.9-12.2,7.2h-6.7V0
			h37.2v6.6H59.3V30c2.9-3.2,7.4-5.1,13.2-5.1c5.5,0,9.8,1.8,12.7,4.7c5.4,5.4,6.1,12.8,6.1,19.7C91.3,56.6,90.7,63.6,85.4,68.8z"/>
		<path class="st0" d="M113.9,72.6h-2.3V50.3c-1.3,2.4-2.8,4.6-4.4,6.8l-1.4-1.8c4.4-5.8,7.6-12.4,9.7-19.4l2.2,0.6
			c-1,3.3-2.3,6.5-3.8,9.6V72.6z M131.4,68.7c2.1-6.9,3.8-13.8,5.1-20.8l2.3,0.5c-1.2,5.5-3.1,13.4-5.3,20.3h9.6v2.1h-26.9v-2.1
			L131.4,68.7z M128.2,43.5v-7.6h2.3v7.6h11.6v2.1h-24.8v-2.1L128.2,43.5z M122.7,48.2c1.4,5.9,2.5,11.9,3.2,18l-2.2,0.6
			c-0.7-6.1-1.7-12.1-3.1-18.1L122.7,48.2z"/>
	</g>
</g>
</svg>
