<svg xmlns="http://www.w3.org/2000/svg" viewBox="0 0 408.11 158.78"><defs><style>.cls-1{fill:#ff4700;}</style></defs><title>whatweare-1-modalnum</title><g id="レイヤー_2" data-name="レイヤー 2"><g id="WWAhover1"><path d="M3.55,11.06V6.17H.25V4.4h3.3V0H5.44V4.4H8V6.17H5.44v4.31C6.24,10.25,7,10,7.67,9.79l.16,1.66c-.71.28-1.52.55-2.4.85v6.61c0,1.29-.35,2.07-1.59,2.26a17.6,17.6,0,0,1-2.79,0,17.59,17.59,0,0,1-.35-1.87c.78,0,1.82,0,2.17,0,.53,0,.67-.3.67-.78V13L.44,14,0,12.07C.9,11.84,2.19,11.47,3.55,11.06ZM14,15.9a11.89,11.89,0,0,0,3.16-4.49H8.43V9.7h9.84l1.36.41A14.71,14.71,0,0,1,15.44,17a17.85,17.85,0,0,0,6,2.51l-1.2,1.66a18.89,18.89,0,0,1-6.2-3,22,22,0,0,1-6,3L6.77,19.7A19.55,19.55,0,0,0,12.63,17a15.15,15.15,0,0,1-3.41-4.86l1.66-.6A12.06,12.06,0,0,0,14,15.9ZM16.61.6h.92V5.81c0,.81.09,1,.51,1h1.2c.41,0,.46-.12.48-1.94.09,0,.18,0,1.71.28-.16,3-.48,3.39-2,3.43-.48,0-1.17,0-1.57,0-1.73,0-2.1-.53-2.1-2.74V2.3H11.36V4.06A6.8,6.8,0,0,1,8.78,9.56L7.23,8.48A5.21,5.21,0,0,0,9.59,4V.6h7Z"/><path d="M39,17.76H32.14l1.36.65a29.55,29.55,0,0,1-6.66,2.81L25,20.16a27.58,27.58,0,0,0,6.34-2.4H28.13V8.39h4L31.08,7.23c4.31-.74,5.71-2.1,6.2-4.33H35A13.72,13.72,0,0,1,32.9,5.23l-1.59-.74A10.9,10.9,0,0,0,34.77,0l1.61.35a6.74,6.74,0,0,1-.53,1.17h8.73l1,.09a18.82,18.82,0,0,1-2.23,3.85L41.61,5a16.15,16.15,0,0,0,1.5-2.14H39c0,.21-.09.44-.16.64C40.18,6,42.9,6.91,46.24,7.07l-1,1.5c-3.09-.35-5.53-1.24-7.19-3.27-.92,1.45-2.56,2.42-5.48,3.09H43.27v9.38H40.2c2.3.83,4.29,1.66,6.08,2.47l-1.89,1a67.08,67.08,0,0,0-6.52-2.72ZM30.94,4.82l.35,1.38C29.7,7,27.35,8,26,8.64c0-.09-.07-.16-.76-1.52C26.61,6.61,29.24,5.58,30.94,4.82ZM26.75.23a17.71,17.71,0,0,1,4.42,2l-1,1.34a16.53,16.53,0,0,0-4.24-2.07ZM30,11.2H41.29V9.65H30Zm0,2.65H41.29V12.28H30Zm0,2.67H41.29V14.93H30Z"/><path d="M61.91,14.19v6.61H60V14.19H54.33a16.48,16.48,0,0,1-2.7,7.05L50,20.11c2.21-3,2.79-6.57,2.79-10.46V1.08h16.7V18.92c0,1.29-.37,2.05-1.61,2.26a21.14,21.14,0,0,1-3,0c-.14-.78-.25-1.31-.37-1.84a17.63,17.63,0,0,0,2.4,0c.55,0,.69-.32.69-.81V14.19ZM60,12.44v-4H54.67v1.2c0,.94,0,1.87-.12,2.79Zm0-5.74V2.83H54.67V6.71Zm7.49,0V2.83H61.91V6.71Zm0,5.74v-4H61.91v4Z"/><path d="M85.55,21.22h-2v-13a32.57,32.57,0,0,1-7.88,6.64l-1.47-1.41A26.64,26.64,0,0,0,84.84,3.06H74.38V1.29H95.07V3.06H87c-.44.83-.9,1.66-1.43,2.47Zm1.8-14.65a89.63,89.63,0,0,1,7.9,6.73l-1.57,1.36a70.35,70.35,0,0,0-7.74-6.94Z"/><path d="M104,18.39v-1.8H99.38V15.23H104V13.78H99.54V6.54H104V5.18H98.73V3.8H104V2.49a43.2,43.2,0,0,1-4.35.25l-.6-1.38A38.38,38.38,0,0,0,109.47,0l.92,1.27a32.69,32.69,0,0,1-4.56.94V3.8h5V5.18h-5V6.54h4.56v7.23h-4.56v1.45h4.54v1.36h-4.54v1.66c1.61-.12,3.2-.23,4.45-.35l0,1.06c2.07-3,2.81-7.19,3.06-11.89h-2.26V5.37h2.33q.07-2.59.07-5.32h1.8c0,1.8,0,3.59-.09,5.32h4.26c-.25,9.35-.51,14.58-1.31,15.39a2.07,2.07,0,0,1-1.45.48c-.51,0-1.61,0-2.26,0l-.21-1.75a18.75,18.75,0,0,0,1.94,0,.62.62,0,0,0,.53-.18c.46-.51.71-4.52.9-12.23h-2.47c-.32,5.85-1.29,11-4.31,14.19l-1.73-.83c.35-.37.67-.76,1-1.15-3.29.35-8.32.83-11.15,1.06l-.28-1.61C100,18.66,102,18.52,104,18.39Zm-2.74-8.82H104V7.83h-2.74Zm0,2.93H104v-1.8h-2.74Zm7.33-2.93V7.83h-2.77V9.56Zm0,2.93v-1.8h-2.77v1.8Z"/><path d="M124.62,21l-1.68-1A17.28,17.28,0,0,0,125,11.15V6.71h4.45a16.42,16.42,0,0,0-1.11-2.88h-4.45V2.26h8.78V0h2V2.26h9V3.82H139.3c-.41.85-.94,1.87-1.54,2.88h5.83V8.23H126.86v2.95A20.43,20.43,0,0,1,124.62,21Zm2.07-.39V19.08h7.46V16.34H129.5v-1.5h4.65V12.37h-3.78A17.09,17.09,0,0,1,128.47,15L127,14.24a15.66,15.66,0,0,0,3.25-5.44l1.77.12a19.19,19.19,0,0,1-.81,1.94h2.95V8.73h1.91v2.12h6.08v1.52h-6.08v2.47H141v1.5h-4.93v2.74h7.81v1.57Zm4.63-13.94h4.52c.51-1,1-2,1.34-2.88h-6.91A15.36,15.36,0,0,1,131.32,6.71Z"/><path d="M164.59,8.59H152.33V7.14A22.4,22.4,0,0,1,148.74,9l-1.13-1.66A21.5,21.5,0,0,0,157.35,0h1.87a23.38,23.38,0,0,0,10,7.33L168,9.06a24.68,24.68,0,0,1-3.46-1.8Zm-12.4,9.86a62.11,62.11,0,0,0,2.72-5.71h-6.11V11H168v1.73H157c-.74,1.64-1.73,3.66-2.81,5.6,3.11-.21,6.57-.44,9.35-.67-.88-1-1.84-2.05-2.95-3.11l1.47-.94a35.1,35.1,0,0,1,5.74,6.59l-1.73,1.06a15.2,15.2,0,0,0-1.36-2.07c-4.58.46-11.61,1.06-15.55,1.36l-.41-1.89C149.73,18.62,150.88,18.55,152.19,18.46ZM164,6.89a26.87,26.87,0,0,1-5.69-5.11,26.42,26.42,0,0,1-5.53,5.11Z"/><path d="M177.85,21.24h-1.91V13.29A21.7,21.7,0,0,1,173,15.83l-1.15-1.54a20,20,0,0,0,7.1-8.52h-6.57V4h3.57V0h1.91V4h2.35l1.13.48a22.19,22.19,0,0,1-3,5.9c1.41,1.29,2.9,2.76,3.78,3.71l-1.38,1.29a43,43,0,0,0-2.9-3.41Zm8.09-2.4V9.31h-4.45V7.51h4.45V0h2V7.51h4.49v1.8h-4.49v9.54h5.46v1.8H180.2v-1.8Z"/><path d="M198,11.75A50.53,50.53,0,0,1,199.29.85l2.07.37a41.78,41.78,0,0,0-1.29,10.51,21.57,21.57,0,0,0,1.24,8.2l-2.05.6A26,26,0,0,1,198,11.77Zm17.3,7.17c-1.45.14-3.09.23-4.45.23-4.1,0-7.14-.67-7.14-3a8.7,8.7,0,0,1,1-3.53l1.8.35a5.93,5.93,0,0,0-.88,2.6c0,1.31,1.84,1.71,5.14,1.71a32.76,32.76,0,0,0,4.49-.35ZM211.46,4c1.15,0,2.42,0,3.39,0l0,1.89c-1.13-.09-2.56-.14-3.94-.14-2.26,0-4.77.14-6.75.35L204,4.33c2.14-.21,4.93-.3,7.44-.3Z"/><path d="M226.21,4.4V.74h2V4.4h5.65V6.2h-5.65V9.86A14.53,14.53,0,0,1,232,9.38c4.22,0,6.34,2,6.34,5.53,0,3.29-2,5.53-6.24,5.53a16.73,16.73,0,0,1-1.75-.11l0-1.89a12.39,12.39,0,0,0,1.75.14c3,0,4.19-1.36,4.19-3.69s-1.45-3.78-4.7-3.78a12,12,0,0,0-3.41.51v5.28c0,2.44-.88,3.62-3,3.62-2.9,0-4.54-1.59-4.54-3.39,0-2.67,2.28-5.18,5.6-6.59V6.2h-5.39V4.4Zm-3.76,12.44c0,1,.81,1.84,2.35,1.84,1.08,0,1.41-.51,1.41-1.84V12.42C224,13.57,222.45,15.3,222.45,16.84ZM240.31,7l-1.38,1.34a18.23,18.23,0,0,0-4.15-3.78L236,3.18A21.9,21.9,0,0,1,240.31,7Z"/><path d="M248.06,1.22a46.64,46.64,0,0,0-.9,9.29,23.77,23.77,0,0,0,1.29,8.34l-2,.6a25.78,25.78,0,0,1-1.27-8.73A58.9,58.9,0,0,1,246,.92Zm9.77,4.86c-.09-1.59-.23-3.36-.41-5.25l2.12-.12c.12,2,.21,3.76.23,5.37h3.36V7.95h-3.32v.83c0,6.13-.9,9.35-4.52,11.94l-1.61-1.36c3.39-2.21,4.22-5.14,4.22-10.62,0-.25,0-.53,0-.78h-7.35V6.08Z"/><path d="M280.3,1.68l1,1.43c-2.14,1.77-5.37,4.59-7.14,6.24a9.33,9.33,0,0,1,3.8-.76,5.45,5.45,0,0,1,5.71,5.67c0,3.85-2.93,6.15-8.13,6.15-3.32,0-5.23-1.36-5.23-3.41,0-1.89,1.75-3.32,4.22-3.32,2.65,0,4.12,1.75,4.52,4.47a3.81,3.81,0,0,0,2.63-3.85,4,4,0,0,0-4.29-4.06,11.49,11.49,0,0,0-4.31.94,26.49,26.49,0,0,0-5.83,4.15l-1.31-1.52c3.43-2.53,9.1-7.56,11.75-10.09-2.17.18-6.77.39-9.33.44l-.12-1.89C271.32,2.28,277.31,2,280.3,1.68Zm-5.74,13.59c-1.5,0-2.47.69-2.47,1.7s1.08,1.73,3.27,1.73a13.24,13.24,0,0,0,2-.14C277.19,16.61,276.27,15.28,274.57,15.28Z"/><path d="M299.54,18.55v1.36h-6.29v1h-1.57V14.22c-.28.46-.55.88-.85,1.29l-.32-.44a25.09,25.09,0,0,1-1.36,5.55l-1.27-1.18a30.4,30.4,0,0,0,1.38-10.09V3.57h9.54V8.29h-7.95v1c0,1.31,0,2.63-.16,3.94a16.61,16.61,0,0,0,1.87-4.86l1.38.3a16.27,16.27,0,0,1-.51,1.73h1.71a15.61,15.61,0,0,0,.62-2l1.45.32c-.18.48-.44,1.06-.71,1.64h2.86V11.7h-2.63v1.52h2.44v1.11h-2.44v1.52h2.44V17h-2.44v1.57ZM299,.76V2.23H288.29V.76Zm-2,6.18v-2h-6.2v2Zm-1.8,6.29V11.7h-2v1.52Zm0,2.63V14.33h-2v1.52Zm0,2.7V17h-2v1.57Zm8.53-1.22a16.57,16.57,0,0,1-3.18,3.92l-1.5-.94a14,14,0,0,0,3.06-3.57Zm-.69-12.83c.21-.74.37-1.52.48-2.17h-3.82V.76h9.75V2.33h-4c-.18.67-.41,1.43-.67,2.17h4V16.57h-8.59V4.49ZM302,8.13H307V6H302Zm0,3.43H307V9.45H302ZM302,15H307V12.88H302Zm4.84,1.66a30.81,30.81,0,0,1,3,3.82l-1.61.74a29.69,29.69,0,0,0-2.81-3.87Z"/><path d="M318.7,20.48v.74h-1.84v-6.5c-.92.3-1.87.55-2.86.78L312.89,14a31.78,31.78,0,0,0,9.1-3.23,20.31,20.31,0,0,1-3-2.56A20.75,20.75,0,0,1,315.36,11l-1.47-1.08a15.65,15.65,0,0,0,6.45-6.24h-4.61V6.47h-1.84V2.05h8.62V0h2v2h8.8V6.47h-1.91V3.69H320.52l1.84.18a13.17,13.17,0,0,1-.78,1.31h6.57l1.38.62a14.17,14.17,0,0,1-4.35,4.91,32.57,32.57,0,0,0,9.06,3.09L333,15.46c-.92-.23-1.87-.48-2.77-.76v6.52h-1.94v-.74Zm9.82-6.38a31.42,31.42,0,0,1-5-2.3,27.91,27.91,0,0,1-4.86,2.3Zm-.18,4.79v-3.2H318.7v3.2ZM320.22,7a15.13,15.13,0,0,0,3.36,2.81,12.87,12.87,0,0,0,3.16-3h-6.31Z"/><path d="M340.78,10.67a15.39,15.39,0,0,0-3.69-3l1.13-1.22a17.89,17.89,0,0,1,3.92,3ZM339,21.08l-1.59-1A45.13,45.13,0,0,0,340.85,13l1.38,1A55.23,55.23,0,0,1,339,21.08Zm2.1-16.77a15.19,15.19,0,0,0-3.36-2.76L338.94.32a17.81,17.81,0,0,1,3.57,2.74Zm5.28,14.4V12.37h1.34v3.87h1.82V11.06H344.9V21.24h-1.73V9.49h6.24V7.79h-7V6.22h4V3.89H343V2.33h3.46V0h1.77v2.3h4.26V0h1.8v2.3h3.64V3.89h-3.64V6.22h4V7.79h-7.07v1.7h6.45v10c0,1-.3,1.5-1.15,1.66a18.63,18.63,0,0,1-2.63,0l-.25-1.57c.62,0,1.54,0,1.82,0a.41.41,0,0,0,.44-.46V11.06H351v5.18h2V12.37h1.34v5.25h-6.57v1.08Zm6-12.49V3.89H348.2V6.22Z"/><path d="M371.37,18V8.57h-6.71V.81H380.1V8.57h-6.75v3.62h7.88V14h-7.88v4.68a17.24,17.24,0,0,0,2.53.23c1,0,6,0,7.1,0l-.35,1.89c-1.11,0-6,0-7.12,0-4-.09-6.75-1.17-9-4.61a16.14,16.14,0,0,1-3.13,5.07l-1.73-1A15.58,15.58,0,0,0,366,10.11l1.89.25a23.44,23.44,0,0,1-.6,3.53A8.54,8.54,0,0,0,371.37,18ZM366.58,6.77h11.54V2.58H366.58Z"/><path d="M394.54,6.11V4.29h1.82V6.11h4.93V4.29h1.89V6.11H408V7.63h-4.79v3.66h-8.64V7.63H390.6v.16a33.83,33.83,0,0,1-2.33,13.16l-1.71-1.06a29.6,29.6,0,0,0,2.14-12.1V2.19h8.39V0h2V2.19h9V3.82H390.6V6.11Zm13.57,13.57L407,21.24a31.38,31.38,0,0,1-8.16-2.42,29.29,29.29,0,0,1-7.58,2.4l-1.13-1.47a27.5,27.5,0,0,0,7-1.87,13.89,13.89,0,0,1-3.62-3.09l1.52-.67h-3.71V12.6h12.07l1.41.48a11,11,0,0,1-4.22,4.75A29.44,29.44,0,0,0,408.11,19.68ZM398.89,17a10.24,10.24,0,0,0,3.25-2.9H395.2A11.79,11.79,0,0,0,398.89,17Zm-2.53-9.4V9.82h4.93V7.63Z"/><path class="cls-1" d="M85.69,155.8l-2.27-2.92c9.54-2.47,19.86-7.46,25.9-14.22H92.25c-.39,1.23-.84,2.4-1.17,3.38l-3.63-.26a147.66,147.66,0,0,0,4.87-15.84h19.08v-7.21h-22v-3h47.13v13.11H115.09v6.75h24.34c-1.3,11.23-2.86,16.36-5.13,17.4a5.69,5.69,0,0,1-2.86.58c-1.36.06-4.41-.06-6.23-.13l-.39-3.31c1.69.13,4.54.13,5.78.13A3.92,3.92,0,0,0,132,150c1.3-.58,2.47-3.9,3.44-11.36H115.09v20.12h-3.7V140.93C105,147.88,95,153,85.69,155.8Zm21-42.13-3.31,1.1a31.1,31.1,0,0,0-3.7-7.34H94.39a47,47,0,0,1-7.79,8.7l-3-1.82A36.09,36.09,0,0,0,94.78,99.65l3.31.71a35.22,35.22,0,0,1-1.95,4.22h17.33v2.86H103.41A32.59,32.59,0,0,1,106.72,113.67Zm4.67,21.94v-6.75H95.23c-.65,2.21-1.36,4.54-2,6.75Zm24.21-21.75-3.31,1.3a32.67,32.67,0,0,0-4.67-7.72h-6.82a38.42,38.42,0,0,1-7.53,8l-3-1.75a31.86,31.86,0,0,0,10.84-14.09l3.38.65a25.49,25.49,0,0,1-1.95,4.28h20.38v2.86H131.58A33.13,33.13,0,0,1,135.61,113.87Zm-20.51,12.07h17.66v-7.21H115.09Z"/><path class="cls-1" d="M179.17,157.76V63.83L159.41,81.22V69l19.77-17.09h10.7V157.76Z"/><path class="cls-1" d="M231.54,157.23H227.9v-36a98.59,98.59,0,0,1-7.14,10.9l-2.34-2.92A97.18,97.18,0,0,0,234,98l3.57.91a106.14,106.14,0,0,1-6,15.38Zm28.3-6.23a341.27,341.27,0,0,0,8.24-33.56l3.76.84c-1.88,8.89-5.06,21.55-8.57,32.71h15.51v3.44H235.37V151Zm-5.13-40.63V98.1h3.7v12.27h18.76v3.44H237.25v-3.44Zm-8.89,7.53A249.36,249.36,0,0,1,250.94,147l-3.5.91a248.76,248.76,0,0,0-5.06-29.14Z"/></g></g></svg>