<svg xmlns="http://www.w3.org/2000/svg" viewBox="0 0 171.76 105.89"><defs><style>.cls-1,.cls-2{fill:#ff4700;}.cls-2{stroke:#ff4700;stroke-miterlimit:10;stroke-width:1.01px;}</style></defs><title>whatweare-100-text</title><g id="レイヤー_2" data-name="レイヤー 2"><g id="design"><path d="M1.15,14.41l-.78-.51A11.84,11.84,0,0,0,1.83,7.78V4.69H5a12.69,12.69,0,0,0-.91-2.27H1V1.65H7.25V0h.93V1.65h6.37v.77h-3a19.91,19.91,0,0,1-1.2,2.27h4.24v.75H2.71V7.8A13.29,13.29,0,0,1,1.15,14.41Zm1.58-.29v-.75H8.17V11.09H4.72v-.74H8.17v-2h-3a13.79,13.79,0,0,1-1.41,2L3,9.89a11.24,11.24,0,0,0,2.37-4l.86,0a12.31,12.31,0,0,1-.69,1.6H8.17V5.81h.91V7.57h4.5v.74H9.08v2h3.59v.74H9.08v2.27h5.65v.75Zm3.2-9.43H9.38c.43-.78.83-1.62,1.12-2.27H5.08A12.43,12.43,0,0,1,5.94,4.69Z"/><path d="M19.32,14.57V5.68a22.7,22.7,0,0,1-1.76,2.58L17,7.51A21.42,21.42,0,0,0,20.83,0l.88.21A24.32,24.32,0,0,1,20.22,4V14.57Zm2-2.08-.69-.7a16.83,16.83,0,0,0,4.83-7H21V4h4.87V0h.9V4h5.12V4.8H27.15a15.92,15.92,0,0,0,5,6.87l-.7.74a17.38,17.38,0,0,1-4.66-6.53v8.71h-.9V5.91A18.79,18.79,0,0,1,21.32,12.48Z"/><path d="M39,8.24a.94.94,0,1,1,1-.94,1,1,0,0,1-1,.94Z"/><path d="M49.48,4.55a25.08,25.08,0,0,0,1.6-2.43H46.14v-.7h6.75V0h.93V1.41H60.7v.7H52.12a27.92,27.92,0,0,1-1.63,2.4c2.32-.08,4.95-.18,7-.27a19.09,19.09,0,0,0-2.1-1.46l.62-.5A18.23,18.23,0,0,1,60,5.49L59.31,6a10.07,10.07,0,0,0-1.09-1.1c-3.28.19-8.6.43-11.46.53l-.16-.77Zm.11,7.22V14.6h-.91V6.39h9.41v7.07c0,.62-.18,1-.78,1.07a16.33,16.33,0,0,1-2.24,0l-.13-.77c.61,0,1.55,0,1.81,0s.43-.18.43-.45v-1.6Zm7.59-3.06V7.12H49.6V8.71Zm0,2.37V9.41H49.6v1.67Z"/><path d="M64.75,14.57V5.68A22.83,22.83,0,0,1,63,8.26l-.56-.75A21.41,21.41,0,0,0,66.26,0l.88.21A24.36,24.36,0,0,1,65.65,4V14.57Zm2-2.08-.69-.7a16.84,16.84,0,0,0,4.83-7H66.43V4H71.3V0h.9V4h5.12V4.8H72.58a15.91,15.91,0,0,0,5,6.87l-.7.74A17.39,17.39,0,0,1,72.2,5.87v8.71h-.9V5.91A18.78,18.78,0,0,1,66.75,12.48Z"/><path d="M81.68,11V1.54H80.3V.7H88v.83H86.82v13h-.88V11.16c-1.74.3-4.15.67-5.54.88l-.18-.86Zm4.26-7V1.54H82.56V4Zm0,3.31V4.77H82.56V7.3Zm0,3.07V8.08H82.56v2.79C83.69,10.71,84.94,10.53,85.94,10.37Zm5.41-.75A19.1,19.1,0,0,0,93.6,2.88H87.84V2H94l.64.1a21.37,21.37,0,0,1-2.8,8.36,10.76,10.76,0,0,0,3.28,3.39l-.69.67a11.35,11.35,0,0,1-3.14-3.27,12.9,12.9,0,0,1-3.43,3.3l-.66-.7a12,12,0,0,0,3.59-3.43A22.54,22.54,0,0,1,88.4,3.51l.83-.26A21.12,21.12,0,0,0,91.35,9.62Z"/><path d="M100.61,14.58h-.9V6.95A21.93,21.93,0,0,1,97.92,8.8l-.59-.7a16.17,16.17,0,0,0,4-5.14l.88.26a16.71,16.71,0,0,1-1.58,2.61Zm1-14.31a17.59,17.59,0,0,1-3.51,3.89l-.66-.59A14.33,14.33,0,0,0,100.77,0Zm7.17,8.47V7.22h-6.88V6.47h10v.75h-2.18V8.74h2.43v.78h-2.43v3.91c0,.64-.19,1-.82,1.12a18.75,18.75,0,0,1-2.37,0l-.14-.85c.67,0,1.68,0,2,0s.45-.18.45-.48V9.52h-7.09V8.74Zm2-8.35V5.2H102.9V.38Zm-6.5,9.51A15,15,0,0,1,107,12.48l-.72.56a13.6,13.6,0,0,0-2.53-2.63Zm-.53-7.41h6.1V1.07h-6.1Zm0,2h6.1V3.07h-6.1Z"/><path d="M121.66,9.84V8.55h.93v1.3h6.9v.77h-6.9v4h-.93v-4h-6.74V9.84Zm-2.77-3.71.16.69c-1,.58-2.59,1.36-3.49,1.81l-.38-.75C116.09,7.49,117.77,6.69,118.89,6.13Zm.83,1.65c.45-.43.9-.88,1.33-1.33a11.36,11.36,0,0,0-2.24-1.82l.48-.51.53.34a22.65,22.65,0,0,0,1.81-2.29H115.4V1.42h6.26V0h.93V1.42H129v.74h-6.92l.38.18a22.89,22.89,0,0,1-2.08,2.53,11.45,11.45,0,0,1,1.18,1,26.7,26.7,0,0,0,2-2.43l.7.38a42.25,42.25,0,0,1-3.55,3.86c1.17-.08,2.45-.19,3.49-.27a12.09,12.09,0,0,0-1.06-1.23l.64-.35A11.75,11.75,0,0,1,126,8.56l-.75.34a6,6,0,0,0-.5-.86c-1.84.18-4.64.45-6.21.58,0-.18-.08-.34-.19-.74Zm-3.54-5A12.05,12.05,0,0,1,118.57,5l-.72.43a11.12,11.12,0,0,0-2.27-2.21ZM125.87,6c1.38.74,2.51,1.39,3.44,2l-.64.56a35.73,35.73,0,0,0-3.35-2Zm2.82-2.93a23.41,23.41,0,0,1-2.45,2.45l-.69-.4a18.71,18.71,0,0,0,2.34-2.45Z"/><path class="cls-1" d="M13.49,105.89V40.8L0,52.85V44.4L13.49,32.56h7.3v73.33Z"/><path class="cls-1" d="M54.36,105.5c-11.26,0-19.78-8-19.78-20.19V51.11c0-12.15,8.52-20.19,19.78-20.19s19.78,8,19.78,20.19V85.31C74.14,97.46,65.62,105.5,54.36,105.5Zm12.48-54c0-8-4.46-14-12.48-14s-12.48,6-12.48,14V84.9c0,8,4.46,14,12.48,14s12.48-6,12.48-14Z"/><path class="cls-1" d="M104.57,105.5c-11.26,0-19.78-8-19.78-20.19V51.11c0-12.15,8.52-20.19,19.78-20.19s19.78,8,19.78,20.19V85.31C124.34,97.46,115.82,105.5,104.57,105.5Zm12.48-54c0-8-4.46-14-12.48-14s-12.48,6-12.48,14V84.9c0,8,4.46,14,12.48,14s12.48-6,12.48-14Z"/><path class="cls-2" d="M142.62,83.55a6.51,6.51,0,0,1-6.8-6.85V71.33a6.8,6.8,0,1,1,13.59,0v5.37A6.54,6.54,0,0,1,142.62,83.55Zm3.93-12.12c0-2.71-1.21-4.45-3.93-4.45s-3.93,1.69-3.93,4.45v5.16c0,2.76,1.21,4.4,3.93,4.4s3.93-1.69,3.93-4.4Zm.1,29.76h-3l16.81-36.41h3Zm17.82.36a6.52,6.52,0,0,1-6.8-6.9V89.27a6.8,6.8,0,1,1,13.59,0v5.37A6.55,6.55,0,0,1,164.46,101.55Zm3.93-12.17c0-2.71-1.21-4.45-3.93-4.45s-3.93,1.69-3.93,4.45v5.16c0,2.76,1.16,4.45,3.93,4.45s3.93-1.74,3.93-4.45Z"/></g></g></svg>