<svg xmlns="http://www.w3.org/2000/svg" viewBox="0 0 195.17 50.85"><defs><style>.cls-1{fill:#3e3a39;}</style></defs><title>whatweare-1-text</title><g id="レイヤー_2" data-name="レイヤー 2"><g id="design"><g id="TOP"><g id="WHAT_WE_AREのコピー_2" data-name="WHAT WE AREのコピー 2"><path class="cls-1" d="M3.13,9.3V4.83H.19v-1H3.13V0H4.2v3.8H6.59v1H4.2V9l2.06-.71.1,1c-.63.25-1.37.52-2.16.8v5.8c0,.88-.23,1.43-1.11,1.57a15.19,15.19,0,0,1-2.33,0,6.29,6.29,0,0,1-.17-1c.69,0,1.62,0,1.93,0,.5,0,.61-.29.61-.73V10.38c-1.07.38-2.1.74-2.84,1L0,10.29C.78,10.06,1.95,9.7,3.13,9.3Zm8.42,4a10.54,10.54,0,0,0,3-4.31H6.91v-1h8.3L16,8.3A12,12,0,0,1,12.35,14a15.15,15.15,0,0,0,5.23,2.44l-.71.92a15.25,15.25,0,0,1-5.33-2.69,18.74,18.74,0,0,1-5.29,2.75l-.74-.9A16.89,16.89,0,0,0,10.75,14,12.89,12.89,0,0,1,7.67,9.58l.94-.32A11.39,11.39,0,0,0,11.55,13.34ZM13.82.5h.52V5.13c0,.61.1.74.5.74h1.26c.44,0,.46-.1.5-1.87.1,0,.19.06,1,.19-.11,2.42-.31,2.67-1.37,2.69-.44,0-1.11,0-1.49,0-1.13,0-1.39-.34-1.39-1.76V1.47H9V3.38A5.24,5.24,0,0,1,6.74,7.75L5.9,7.1A4.37,4.37,0,0,0,8,3.36V.5h5.82Z"/><path class="cls-1" d="M35.07,14.53H29L30,15a24.12,24.12,0,0,1-5.61,2.39l-1.09-.61a22.13,22.13,0,0,0,5.61-2.25H26V6.91H38.32v7.62H35.24c2.16.78,4,1.55,5.59,2.29l-1.11.55c-1.47-.73-3.32-1.49-5.5-2.31ZM28.26,4.16l.19.8c-1.34.63-3.32,1.53-4.47,2,0-.1-.08-.17-.46-.88C24.69,5.65,26.86,4.77,28.26,4.16Zm-3.63-4a16.44,16.44,0,0,1,3.74,1.7l-.61.78A13.84,13.84,0,0,0,24.15,1Zm2.42,9H37.19V7.67H27.05Zm0,2.25H37.19V9.91H27.05Zm0,2.29H37.19v-1.6H27.05ZM40.78,6l-.59.88c-2.63-.29-4.75-1-6.11-2.94-.74,1.39-2.2,2.27-5,2.86L28.37,6c3.72-.65,4.91-1.87,5.29-3.87H31.37a10.84,10.84,0,0,1-1.83,2l-.92-.44A8.91,8.91,0,0,0,31.48,0l.94.19a7.81,7.81,0,0,1-.53,1.15H39.6l.57.06a14.87,14.87,0,0,1-1.85,3l-1-.23a14.67,14.67,0,0,0,1.39-2H34.65a6.52,6.52,0,0,1-.13.65C35.64,5,37.93,5.8,40.78,6Z"/><path class="cls-1" d="M56.19,11.36v5.73h-1V11.36H49.87a13.79,13.79,0,0,1-2.31,6.07l-.92-.67C48.5,14.26,49,11.19,49,7.9v-7H62.54V15.79c0,.9-.25,1.43-1.15,1.58a18.37,18.37,0,0,1-2.56,0,8.34,8.34,0,0,0-.17-1,17,17,0,0,0,2.14,0c.53,0,.65-.29.65-.74V11.36Zm-1-1V6.59h-5V7.92A20.47,20.47,0,0,1,50,10.35Zm0-4.75V1.91h-5V5.59Zm6.32,0V1.91H56.19V5.59Zm0,4.75V6.59H56.19v3.76Z"/><path class="cls-1" d="M78.31,17.39H77.2V5.82A26.42,26.42,0,0,1,70.1,12l-.84-.8a22.35,22.35,0,0,0,9.07-9H69.39v-1h17v1H79.53a17.14,17.14,0,0,1-1.22,2.14ZM79.89,5.33a68,68,0,0,1,6.64,5.76l-.9.74A60.68,60.68,0,0,0,79.11,6Z"/><path class="cls-1" d="M96.66,15.33V13.53h-4v-.8h4V11.22H92.8V5.33h3.86V3.93H92.1v-.8h4.56V1.76A37.24,37.24,0,0,1,92.78,2l-.36-.82A32.54,32.54,0,0,0,101.07,0l.57.73a25.11,25.11,0,0,1-4,.84V3.13h4.39v.8H97.69V5.33h3.93v5.9H97.69v1.51h4v.8h-4v1.72l4-.34,0,.78c1.87-2.6,2.54-6.26,2.79-10.14h-2.2v-1h2.25c.06-1.51.08-3,.08-4.54h1c0,1.51,0,3-.1,4.54h3.57c-.23,7.71-.46,11.85-1.07,12.46a1.36,1.36,0,0,1-1,.36c-.44,0-1.39,0-2,0l-.1-1c.52,0,1.37.06,1.79,0a.51.51,0,0,0,.46-.17c.42-.46.63-3.91.82-10.69h-2.56c-.29,4.75-1.16,9.18-3.91,11.87l-1-.5a10.33,10.33,0,0,0,1-1.2c-2.71.29-7,.69-9.43.9l-.17-1ZM93.79,7.9h2.86V6.11H93.79Zm0,2.56h2.86V8.59H93.79Zm6.8-2.56V6.11h-2.9V7.9Zm0,2.56V8.59h-2.9v1.87Z"/><path class="cls-1" d="M115.65,17.2l-.94-.61a14.11,14.11,0,0,0,1.74-7.29V5.61h3.84A15.13,15.13,0,0,0,119.2,2.9h-3.72V2h7.44V0H124V2h7.6V2.9H128a23.78,23.78,0,0,1-1.43,2.71h5.06v.9H117.5V9.31A15.85,15.85,0,0,1,115.65,17.2Zm1.89-.34V16H124V13.25h-4.1v-.88H124V9.93h-3.55a16.53,16.53,0,0,1-1.68,2.37l-.88-.48a13.41,13.41,0,0,0,2.83-4.73l1,.06A14.7,14.7,0,0,1,120.94,9H124V6.95h1.09V9h5.36v.88H125.1v2.44h4.28v.88H125.1V16h6.74v.9Zm3.82-11.24h4.1c.52-.94,1-1.93,1.34-2.71h-6.47A14.83,14.83,0,0,1,121.36,5.61Z"/><path class="cls-1" d="M138.37,7.2l-.65-.92A18.76,18.76,0,0,0,145.94,0h1.11a20.19,20.19,0,0,0,8.44,6.26l-.69.94A21.79,21.79,0,0,1,146.48,1,20.4,20.4,0,0,1,138.37,7.2Zm3.07,8.3a49.75,49.75,0,0,0,2.61-5.29h-5.36v-1h15.77v1h-9.2a55.87,55.87,0,0,1-2.63,5.21c2.86-.21,6.22-.48,8.76-.69a31.27,31.27,0,0,0-2.73-2.86l.82-.55a29.2,29.2,0,0,1,4.83,5.52l-1,.59a18.33,18.33,0,0,0-1.24-1.83c-3.84.38-9.89.92-13.17,1.18l-.27-1.11C139.43,15.63,140.39,15.58,141.44,15.5Zm10.21-9.7v1H141.59v-1Z"/><path class="cls-1" d="M164.81,17.43h-1.09V10.27a19,19,0,0,1-2.88,2.56l-.69-.88a17.81,17.81,0,0,0,6.22-7.54h-5.84v-1h3.19V0h1.09v3.4h2.29l.67.29a18.39,18.39,0,0,1-2.6,4.85c1.24,1.11,2.56,2.4,3.32,3.21l-.78.74c-.67-.8-1.79-2-2.9-3.13Zm7.12-1.53V7.43H168v-1h3.91V0H173V6.41H177v1H173V15.9h4.79v1H167v-1Z"/><path class="cls-1" d="M1,43.15a44.38,44.38,0,0,1,1-9l1.18.19a38.45,38.45,0,0,0-1,8.82,18.12,18.12,0,0,0,1,6.78l-1.15.34a20.92,20.92,0,0,1-1-7.08ZM15,48.86c-1.2.11-2.5.19-3.67.19-3.36,0-5.82-.5-5.82-2.33a6.82,6.82,0,0,1,.9-2.84l1,.21a5.47,5.47,0,0,0-.82,2.37c0,1.2,1.78,1.56,4.71,1.56A29.34,29.34,0,0,0,15,47.75Zm-3.32-12c1,0,2.06,0,2.88,0l0,1.05c-.92-.06-2.1-.1-3.23-.1a50.74,50.74,0,0,0-5.55.31L5.71,37c1.74-.15,4-.23,6-.23Z"/><path class="cls-1" d="M26.87,37.18V34H28v3.17h5v1H28v3.55a12.15,12.15,0,0,1,3.38-.5c3.42,0,5.13,1.58,5.13,4.45,0,2.63-1.62,4.49-5,4.49A14.4,14.4,0,0,1,30,50.06l0-1.07a10.82,10.82,0,0,0,1.49.11c2.71,0,3.84-1.34,3.84-3.44s-1.3-3.44-4.24-3.44a10,10,0,0,0-3.15.52v4.68c0,1.91-.63,2.79-2.27,2.79-2.31,0-3.53-1.3-3.53-2.69,0-2.16,1.93-4.24,4.68-5.38v-4H22.25v-1ZM23.25,47.37c0,1,.78,1.81,2.31,1.81,1,0,1.32-.46,1.32-1.79v-4.2C24.72,44.22,23.25,45.86,23.25,47.37Zm15-8.21-.8.76A15.23,15.23,0,0,0,34,36.8L34.7,36A19.33,19.33,0,0,1,38.27,39.16Z"/><path class="cls-1" d="M46.93,34.33a43,43,0,0,0-.73,7.83,19.84,19.84,0,0,0,1,6.78l-1.11.34a20.94,20.94,0,0,1-1-7,51.57,51.57,0,0,1,.67-8.13Zm8.8,4.18c-.06-1.36-.15-2.83-.29-4.45L56.62,34c.1,1.66.17,3.15.21,4.52h2.88v1H56.85v1.07c0,5.23-.74,7.71-3.74,9.75l-.9-.78c2.88-1.81,3.57-4.14,3.57-9,0-.34,0-.69,0-1H49.33v-1Z"/><path class="cls-1" d="M76.52,34.89l.61.82c-1.93,1.66-4.91,4.28-6.51,5.71a9.12,9.12,0,0,1,3.89-.8,4.36,4.36,0,0,1,4.64,4.52c0,3.19-2.52,5-6.7,5-2.54,0-4.07-1-4.07-2.62s1.39-2.58,3.32-2.58c2.16,0,3.36,1.58,3.63,3.8a3.64,3.64,0,0,0-1.13-7.16,10.24,10.24,0,0,0-4.24,1,25.42,25.42,0,0,0-4.45,3.25l-.76-.86c2.83-2.14,8.09-6.78,10.35-8.9-1.95.17-6.28.32-8.42.36l-.06-1.07C69,35.33,74,35.14,76.52,34.89Zm-4.81,11c-1.39,0-2.31.67-2.31,1.64s1,1.64,2.94,1.64a11.16,11.16,0,0,0,2-.17C74.21,47.16,73.33,45.86,71.71,45.86Z"/><path class="cls-1" d="M95,48.82v.8H89.38v.92h-.92V44.39a15.41,15.41,0,0,1-.88,1.39l-.29-.38a21.43,21.43,0,0,1-1.18,4.91l-.73-.69a24.93,24.93,0,0,0,1.22-8.49V36.32h7.64V40H87.53v1.16c0,1.16,0,2.37-.15,3.53a14,14,0,0,0,1.83-4.49l.82.17A15.77,15.77,0,0,1,89.55,42h1.72a13.14,13.14,0,0,0,.59-1.72l.86.19c-.17.46-.38,1-.63,1.53h2.67v.76H92.32v1.55h2.27V45H92.32v1.55h2.27v.69H92.32v1.6ZM94.5,34.1V35H85.73V34.1Zm-1.26,5.06v-2H87.53v2Zm-1.79,5.12V42.73H89.38v1.55Zm0,2.25V45H89.38v1.55Zm0,2.29v-1.6H89.38v1.6Zm6.81-1.22a13.55,13.55,0,0,1-2.81,3.25l-.88-.57a11.82,11.82,0,0,0,2.75-3ZM98,37.14c.19-.73.36-1.49.48-2.14H95.14v-.9h8V35H99.61c-.15.65-.36,1.41-.59,2.14h3.51V47H95.62V37.14Zm-1.43,3.05h4.89V38H96.61Zm0,3h4.89V41H96.61Zm0,3h4.89v-2.2H96.61Zm4.16,1.13a28.43,28.43,0,0,1,2.65,3.17l-.94.42A26.27,26.27,0,0,0,100,47.66Z"/><path class="cls-1" d="M113,50.18v.65h-1V45.31c-.86.29-1.76.53-2.67.76l-.65-.86a26.76,26.76,0,0,0,7.92-3,14.9,14.9,0,0,1-2.94-2.6,16.82,16.82,0,0,1-3.34,2.63l-.86-.61a13.51,13.51,0,0,0,5.4-5.36l1.15.11a12.58,12.58,0,0,1-.76,1.28h6.15l.8.36a12,12,0,0,1-3.8,4.16,27.83,27.83,0,0,0,7.83,2.9l-.71.94c-.86-.21-1.74-.46-2.6-.74v5.54h-1.11v-.65Zm11.22-11.57V36.15H110.64v2.46h-1v-3.4h7.22V33.44h1.13v1.77h7.39v3.4Zm-2,6.47a26.1,26.1,0,0,1-4.83-2.27,24.92,24.92,0,0,1-4.81,2.27Zm-.5,4.18V46H113v3.26Zm-7.46-10.4a13.33,13.33,0,0,0,3.17,2.79,10.94,10.94,0,0,0,3.07-3.07h-6Z"/><path class="cls-1" d="M134.56,42a13.68,13.68,0,0,0-3.17-2.5l.63-.73a16.11,16.11,0,0,1,3.3,2.5Zm-1.87,8.78-.92-.57a36.77,36.77,0,0,0,2.84-5.88l.8.57A44.93,44.93,0,0,1,132.69,50.73Zm2.25-14a13.16,13.16,0,0,0-2.9-2.37l.63-.71a14,14,0,0,1,3,2.35ZM139,48.82V43.55h.8V47h1.93V42.24h-4.31v8.59h-1V41.32h5.23V39.6h-6v-.92h3.47V36.45h-3v-.92h3v-2.1h1v2.1h4v-2.1h1v2.1h3.19v.92h-3.19v2.23h3.47v.92h-6v1.72h5.44v8.3c0,.65-.19,1-.8,1.13a15.54,15.54,0,0,1-2.16,0l-.11-.92c.55,0,1.41,0,1.64,0s.42-.13.42-.4V42.24h-4.51V47h2.1V43.55h.8v4.28h-5.69v1Zm5.19-10.14V36.45h-4v2.23Z"/><path class="cls-1" d="M162.48,48.78V40.25h-5.67V34.09H169.3v6.17h-5.71v3.44h6.74v1h-6.74v4.41a10.61,10.61,0,0,0,2.25.25c.82,0,5,0,5.88,0l-.17,1.07c-.9,0-5,0-5.92,0-3.38-.06-5.69-1.07-7.54-4.22a13.69,13.69,0,0,1-2.84,4.62l-1-.57A13,13,0,0,0,158,41.72l1.07.13a17.93,17.93,0,0,1-.52,3A7.26,7.26,0,0,0,162.48,48.78Zm-4.6-9.56h10.31V35.1H157.88Z"/><path class="cls-1" d="M184.06,38.51V36.66h1v1.85h4.73V36.66h1.07v1.85h4.16v.88h-4.16V42.5h-6.83V39.39h-3.66v.67a25.58,25.58,0,0,1-2,10.46l-1-.61a23.41,23.41,0,0,0,1.85-9.85V35.33h7V33.44h1.11v1.89h7.62v.94H180.39v2.25Zm3.46,9.1a8.47,8.47,0,0,0,3.15-2.9h-9.49v-.88h10.21l.8.29a9.15,9.15,0,0,1-3.7,4,24.42,24.42,0,0,0,6.68,1.83l-.63.88a25.7,25.7,0,0,1-7-2.16,24.47,24.47,0,0,1-6.59,2.16l-.65-.86a24.42,24.42,0,0,0,6.26-1.83,11.8,11.8,0,0,1-3.44-3l.94-.42A10.43,10.43,0,0,0,187.51,47.62Zm-2.42-8.23v2.25h4.73V39.39Z"/></g></g></g></g></svg>