<svg xmlns="http://www.w3.org/2000/svg" xmlns:xlink="http://www.w3.org/1999/xlink" viewBox="0 0 53.12 135.02"><defs><style>.cls-1{isolation:isolate;}.cls-2{fill:url(#名称未設定グラデーション_20);}.cls-3{fill:url(#名称未設定グラデーション_20-2);}.cls-4{fill:url(#名称未設定グラデーション_76);}.cls-5{fill:url(#名称未設定グラデーション_157);}.cls-6{fill:url(#名称未設定グラデーション_101);}.cls-7{fill:url(#名称未設定グラデーション_202);}.cls-8{fill:url(#名称未設定グラデーション_259);}.cls-9{fill:url(#名称未設定グラデーション_259-2);}.cls-10{fill:url(#名称未設定グラデーション_259-3);}.cls-11{fill:url(#名称未設定グラデーション_259-4);}.cls-12{fill:url(#名称未設定グラデーション_259-5);}.cls-13{fill:url(#名称未設定グラデーション_259-6);}.cls-14{fill:url(#名称未設定グラデーション_259-7);}.cls-15{opacity:0.4;mix-blend-mode:multiply;fill:url(#名称未設定グラデーション_409);}</style><linearGradient id="名称未設定グラデーション_20" x1="26.56" y1="52.54" x2="26.56" y2="162.61" gradientTransform="translate(53.12 182.33) rotate(-180)" gradientUnits="userSpaceOnUse"><stop offset="0" stop-color="#ffbe1f"/><stop offset="0.06" stop-color="#ffaa1f"/><stop offset="0.15" stop-color="#ff931f"/><stop offset="0.26" stop-color="#ff821f"/><stop offset="0.38" stop-color="#ff761f"/><stop offset="0.56" stop-color="#ff6f1f"/><stop offset="1" stop-color="#ff6d1f"/></linearGradient><linearGradient id="名称未設定グラデーション_20-2" x1="26.56" y1="0.92" x2="26.56" y2="41.44" gradientTransform="matrix(1, 0, 0, 1, 0, 0)" xlink:href="#名称未設定グラデーション_20"/><linearGradient id="名称未設定グラデーション_76" x1="59.83" y1="37.85" x2="-1.45" y2="37.85" gradientUnits="userSpaceOnUse"><stop offset="0" stop-color="#ffbe1f"/><stop offset="0.64" stop-color="#ff871f"/><stop offset="1" stop-color="#ff6d1f"/></linearGradient><linearGradient id="名称未設定グラデーション_157" x1="-1.86" y1="27.06" x2="57.02" y2="27.06" gradientUnits="userSpaceOnUse"><stop offset="0" stop-color="#ffbe1f"/><stop offset="0.22" stop-color="#ffa51f"/><stop offset="0.54" stop-color="#ff871f"/><stop offset="0.81" stop-color="#ff741f"/><stop offset="1" stop-color="#ff6d1f"/></linearGradient><linearGradient id="名称未設定グラデーション_101" x1="11.41" y1="95.2" x2="60.85" y2="78.86" gradientUnits="userSpaceOnUse"><stop offset="0" stop-color="#ffbe1f"/><stop offset="0.12" stop-color="#ffab1f"/><stop offset="0.34" stop-color="#ff901f"/><stop offset="0.55" stop-color="#ff7c1f"/><stop offset="0.77" stop-color="#ff711f"/><stop offset="1" stop-color="#ff6d1f"/></linearGradient><linearGradient id="名称未設定グラデーション_202" x1="4.35" y1="122.59" x2="58.36" y2="85.63" gradientUnits="userSpaceOnUse"><stop offset="0" stop-color="#ffbe1f"/><stop offset="0.14" stop-color="#ffa61f"/><stop offset="0.34" stop-color="#ff8d1f"/><stop offset="0.54" stop-color="#ff7b1f"/><stop offset="0.76" stop-color="#ff701f"/><stop offset="1" stop-color="#ff6d1f"/></linearGradient><linearGradient id="名称未設定グラデーション_259" x1="31.98" y1="124.18" x2="49.89" y2="124.18" gradientUnits="userSpaceOnUse"><stop offset="0" stop-color="#ffbe1f"/><stop offset="0.01" stop-color="#ffbb1f"/><stop offset="0.17" stop-color="#ff9f1f"/><stop offset="0.33" stop-color="#ff891f"/><stop offset="0.51" stop-color="#ff791f"/><stop offset="0.71" stop-color="#ff701f"/><stop offset="1" stop-color="#ff6d1f"/></linearGradient><linearGradient id="名称未設定グラデーション_259-2" x1="31.98" y1="114.09" x2="49.89" y2="114.09" xlink:href="#名称未設定グラデーション_259"/><linearGradient id="名称未設定グラデーション_259-3" x1="31.98" y1="93.9" x2="49.89" y2="93.9" xlink:href="#名称未設定グラデーション_259"/><linearGradient id="名称未設定グラデーション_259-4" x1="31.98" y1="73.7" x2="49.89" y2="73.7" xlink:href="#名称未設定グラデーション_259"/><linearGradient id="名称未設定グラデーション_259-5" x1="31.98" y1="103.99" x2="49.89" y2="103.99" xlink:href="#名称未設定グラデーション_259"/><linearGradient id="名称未設定グラデーション_259-6" x1="31.98" y1="83.8" x2="49.89" y2="83.8" xlink:href="#名称未設定グラデーション_259"/><linearGradient id="名称未設定グラデーション_259-7" x1="31.98" y1="63.61" x2="49.89" y2="63.61" xlink:href="#名称未設定グラデーション_259"/><linearGradient id="名称未設定グラデーション_409" x1="39.87" y1="-21.89" x2="39.87" y2="66.72" gradientUnits="userSpaceOnUse"><stop offset="0" stop-color="#646464"/><stop offset="0.12" stop-color="#6d6d6d"/><stop offset="0.32" stop-color="#848484"/><stop offset="0.56" stop-color="#aaa"/><stop offset="0.84" stop-color="#dedede"/><stop offset="1" stop-color="#fff"/></linearGradient></defs><title>whatweare-100-icon</title><g class="cls-1"><g id="レイヤー_2" data-name="レイヤー 2"><g id="design"><path class="cls-2" d="M8.22,47.32H44.91a8.22,8.22,0,0,1,8.22,8.22V135a0,0,0,0,1,0,0H0a0,0,0,0,1,0,0V55.53A8.22,8.22,0,0,1,8.22,47.32Z" transform="translate(53.12 182.33) rotate(180)"/><path class="cls-3" d="M15.17,19.49a4.27,4.27,0,0,1,.41-.29L17.27,18a10.12,10.12,0,0,0,3.27-6.58V4.89c0-2.69,1.82-4.89,4-4.89H28.7c2.22,0,4,2.2,4,4.89V11a10.51,10.51,0,0,0,3.24,7L48.5,25.84H4.62Z"/><polygon class="cls-4" points="0 47.32 53.12 47.32 53.12 28.38 0 28.38 0 47.31 0 47.32"/><path class="cls-5" d="M0,28.38H53.12A2.43,2.43,0,0,0,51,25.75H2.17A2.43,2.43,0,0,0,0,28.38H0Z"/><path class="cls-6" d="M4.72,88.6S13,84.64,18,84.36s11.34,1.43,15.51,2.12,14.93.29,14.93.29S31.62,100.91,23.05,99.5,4.72,88.6,4.72,88.6Z"/><path class="cls-7" d="M17.5,92.63a22.14,22.14,0,0,1-12.77-4V121c0,4.88,3.26,8.83,7.29,8.83H41.11c4,0,7.29-4,7.29-8.83V86.76C35.33,87.16,29,92.63,17.5,92.63Z"/><rect class="cls-8" x="26.56" y="122.92" width="17.55" height="2.52"/><rect class="cls-9" x="35.33" y="112.83" width="8.77" height="2.52"/><rect class="cls-10" x="35.33" y="92.63" width="8.77" height="2.52"/><rect class="cls-11" x="35.33" y="72.44" width="8.77" height="2.52"/><rect class="cls-12" x="26.56" y="102.73" width="17.54" height="2.52"/><rect class="cls-13" x="26.56" y="82.54" width="17.54" height="2.52"/><rect class="cls-14" x="26.56" y="62.35" width="17.54" height="2.52"/><path class="cls-15" d="M51,25.75H48L36,18.07a10.51,10.51,0,0,1-3.24-7V4.89c0-2.69-1.82-4.89-4-4.89H26.61V135h19c4.12,0,7.46-4,7.46-9V28.38h0A2.43,2.43,0,0,0,51,25.75Z"/></g></g></g></svg>