<svg xmlns="http://www.w3.org/2000/svg" viewBox="0 0 243.19 103.59"><defs><style>.cls-1{fill:#ff4700;}</style></defs><title>whatweare-6-text</title><g id="レイヤー_2" data-name="レイヤー 2"><g id="design"><path class="cls-1" d="M20.81,103.59C8.3,103.59.35,95.12.35,82.4.35,77.13,1.9,72.07,5,65.87L23.08,29.39h7.65L14.3,62.46A18.53,18.53,0,0,1,22,60.91c11.47,0,19.12,8.78,19.12,20.88C41.17,94.29,33.31,103.59,20.81,103.59Zm-.1-36.38C12.85,67.21,7.79,73,7.79,82.09S12.85,97,20.71,97s13-5.89,13-14.88C33.73,73.93,29.18,67.21,20.71,67.21Z"/><path class="cls-1" d="M65.2,93.81v6.85H61.77V93.81H48.11V90.75h5.3V82.82h8.36V79H55.69a24.94,24.94,0,0,1-4.42,5.66l-2.88-1.76a23.55,23.55,0,0,0,6.48-10.33l3.39.39a30.69,30.69,0,0,1-1,2.94h17.9V79H65.2v3.85h8.87v3H65.2v4.94h11v3.06Zm-3.42-3.06V85.82h-5v4.94Z"/><path class="cls-1" d="M96.69,98.48c3.3.06,10.36.09,14-.06l-.24,1.51c-3.51.06-10.48.09-13.93,0-3.63-.09-5.91-1-8.3-3.54-1.79,1.67-3.39,2.94-4.82,4.06l-.76-1.51a47.32,47.32,0,0,0,4.57-3.67V87H83V85.42h5.79V95C91.15,97.63,93.36,98.39,96.69,98.48ZM84.85,73.58a28.66,28.66,0,0,1,4.33,5.51L87.67,80a24.83,24.83,0,0,0-4.15-5.54ZM99.27,92.45v-2.7h-7V79.43h7V76.94H90.79V75.52h8.48V72.79H101v2.73h8.81v1.42H101v2.48h7.27V89.75H101v2.7h9.36V93.9H101v3.66h-1.7V93.9h-9V92.45ZM93.94,84h5.33V80.73H93.94Zm0,4.48h5.33V85.12H93.94ZM106.57,84V80.73H101V84Zm0,4.48V85.12H101v3.33Z"/><path class="cls-1" d="M120.61,90.06a27.32,27.32,0,0,1-2.15,7.84l-1.36-.55a23.8,23.8,0,0,0,2.09-7.54ZM124,100.38h-1.57V87.51c-1.85.21-3.67.39-5,.52l-.33-1.51c.55,0,1.21-.09,1.94-.12.94-1.24,1.85-2.54,2.76-3.82a27.84,27.84,0,0,0-4.39-4.51,11.15,11.15,0,0,1,.85-1.18c.45.36.91.79,1.33,1.18a40.77,40.77,0,0,0,3.12-5.27l1.42.61A45.18,45.18,0,0,1,120.61,79c.79.79,1.48,1.58,2.06,2.27,1.39-2.12,2.6-4.12,3.42-5.69l1.45.67a91.89,91.89,0,0,1-6.66,10c1.76-.12,3.67-.27,5.24-.39a21.13,21.13,0,0,0-1.85-2.7l1.18-.64a20,20,0,0,1,3.12,5.15V84.94h15.78v4.76h-1.51V86.33H130.09v3.36h-1.51V87.82a8.39,8.39,0,0,0-1.21.61,12.69,12.69,0,0,0-.61-1.36c-.82.09-1.76.21-2.76.3Zm3.15-10.72a32.08,32.08,0,0,1,1.6,6.09l-1.45.39A28.6,28.6,0,0,0,125.78,90Zm7.18-.91c-.39,5.63-1.51,9.48-6.45,11.72l-1.15-1.18c4.73-2,5.75-5.51,6-10.6Zm1.21-7.87V77.61h-7.45V76.15h7.45V72.79h1.67v3.36h7.66v1.45H137.2v3.27h6.33V82.3H129.66V80.88Zm3.36,7.54v8.66c0,1.09.18,1.27,1,1.3.61,0,1.76,0,2.45,0,.85,0,.94-.15.94-3.18l1.54.27c-.18,4.09-.48,4.45-2.33,4.51-.82,0-2.09,0-2.82,0-1.88-.06-2.33-.55-2.33-2.91V88.42Z"/><path class="cls-1" d="M169,76.82c2.15-.18,4.82-.45,6.78-.67l.21,1.79c-1.3.06-3.42.3-4.45.45a6.56,6.56,0,0,0-2.33,1c-4,2.51-7,6.12-7,10.27,0,4.69,4.09,7.39,11.48,7.78l-.24,1.76c-8-.36-13.08-3.6-13.08-9.48,0-4.3,3-8.3,7.42-11.18-3.54.3-10.87.76-15.05.94l-.12-1.76C156.74,77.64,166.34,77,169,76.82Zm2.73,5.69a25.32,25.32,0,0,1,2.88,4.57l-1.06.58a21,21,0,0,0-2.82-4.54Zm3.3-1.51a22.66,22.66,0,0,1,2.88,4.54l-1,.58a20.12,20.12,0,0,0-2.85-4.54Z"/><path class="cls-1" d="M197.35,98.51c3.39.09,10.63.06,14.33-.06l-.21,1.48c-3.66.06-10.78.09-14.33,0s-5.75-.88-8.12-3.24c-1.67,1.51-3.18,2.7-4.51,3.73l-.76-1.48A44.32,44.32,0,0,0,188,95.6V87.09h-4V85.54h5.57V95.3C191.93,97.72,194.2,98.42,197.35,98.51Zm-11.69-25a24.7,24.7,0,0,1,4.12,5.36l-1.48.82a24.79,24.79,0,0,0-3.88-5.36Zm10.78,17.57V87.33h-4.79V86h4.79v-2.3h1.67V86h6v-2.3h1.67V86h4.79v1.3h-4.79v3.73h5.6v1.36H190.87V91.06Zm-4.24-13.3H198V75h-6.63V73.82h8.15V79h-6.39v1.85c0,.82.21,1,1.21,1,.82,0,2.51,0,3.48,0s1.18-.09,1.24-1.76l1.39.27c-.18,2.51-.51,2.79-2.45,2.82-1.12,0-2.91,0-3.88,0-2,0-2.48-.45-2.48-2.33V77.76Zm6.88,15.72a22,22,0,0,1-5.21,3.82l-1.39-1a19,19,0,0,0,5.09-3.42Zm5-2.42V87.33h-6v3.73Zm-1.51-13.3h5.94V75h-6.91V73.82H210V79h-6.66v1.85c0,.82.24,1,1.27,1s2.76,0,3.82,0,1.24-.12,1.3-1.76l1.45.27c-.21,2.51-.55,2.82-2.61,2.85-1.18,0-3.09,0-4.15,0-2.12,0-2.61-.48-2.61-2.36V77.76Zm1.91,15.08a60.35,60.35,0,0,1,6.27,4l-1.51.76a50.82,50.82,0,0,0-6-4Z"/><path class="cls-1" d="M230.37,96.84V85.79H221V76h1.7v8.21h7.72V72.85h1.76V84.21h8.09V76h1.73v9.78h-9.81V96.84h9.3V88.06h1.76v12.36h-1.76V98.48H221.35v1.94h-1.73V88.06h1.73v8.78Z"/><path d="M5.27.48H.48v9.89H0V0H5.27Z"/><path d="M11.79,4.93A2,2,0,0,1,13.29,4a2.3,2.3,0,0,1,1.66,1,58,58,0,0,0,7.17,7.12l-.48.54a71.09,71.09,0,0,1-7.06-7.06c-.5-.58-.9-.86-1.3-.86s-.75.26-1.2.77c-.83.94-3,3.6-4.26,5.14l-.54-.43C8.6,8.79,10.86,6,11.79,4.93ZM17,2.79a14.11,14.11,0,0,1,1.82,2.37l-.43.27a12.18,12.18,0,0,0-1.76-2.35ZM18.83,2a13.84,13.84,0,0,1,1.81,2.37l-.42.27a12.1,12.1,0,0,0-1.78-2.35Z"/><path d="M37.35,13.72l-.86.61a36.74,36.74,0,0,0-4.95-5,20.07,20.07,0,0,1-6.18,5l-.62-.8C29.14,11.41,32.9,6.8,34,3.22H25.7v-.9h8.85l.69.38a19.25,19.25,0,0,1-3.12,5.86A46.84,46.84,0,0,1,37.35,13.72Z"/><path d="M51.38,9.28l-.64.8a49.51,49.51,0,0,0-6.8-3.86v8.1h-1V.69h1V5.17A62.42,62.42,0,0,1,51.38,9.28Z"/><path d="M59.21,4.77a2.1,2.1,0,0,1,1.52-.86,2.24,2.24,0,0,1,1.65,1,56.41,56.41,0,0,0,7.2,7.14l-.69.77a70.37,70.37,0,0,1-6.95-6.95c-.48-.54-.85-.82-1.22-.82s-.72.26-1.14.74c-.82.91-2.9,3.43-4.13,5l-.8-.64C56,8.6,58.28,5.84,59.21,4.77Zm5.27-2a12.93,12.93,0,0,1,1.78,2.27l-.54.38A12.14,12.14,0,0,0,64,3.17ZM66.35,2a12.4,12.4,0,0,1,1.78,2.27l-.54.38a11.06,11.06,0,0,0-1.73-2.27Z"/><path d="M77.16,5.11l-.66.77A27.83,27.83,0,0,0,72.34,3L73,2.18A40.57,40.57,0,0,1,77.16,5.11Zm6.45,0,.66.72A20.51,20.51,0,0,1,73.17,14.2l-.48-.94A19.27,19.27,0,0,0,83.61,5.14Z"/><path d="M94.19,6.48V2.85c-1.58.29-3.22.53-4.63.69l-.24-.85a39.31,39.31,0,0,0,9.49-2l.45.8a29,29,0,0,1-4.08,1.14V6.48h5.89v.9H95.19c-.1,3.43-1.14,5.36-4.83,7l-.67-.8c3.6-1.47,4.43-3,4.51-6.16H87.76v-.9Z"/><path d="M108.34,7.09l-.72-3.2.88-.19.72,3.22,5.55-1.1.72.45a29.5,29.5,0,0,1-2.22,4.21l-.75-.37a18.93,18.93,0,0,0,1.82-3.33l-4.93,1,1.44,6.42-.86.22-1.46-6.47-3.31.66L105,7.75Z"/><path d="M132.69,7V8h-13V7Z"/><path d="M136.14,6.77,135.58,6A16.5,16.5,0,0,0,142.49.22h.93A17.68,17.68,0,0,0,150.51,6l-.59.77a19.19,19.19,0,0,1-7-5.75A18,18,0,0,1,136.14,6.77Zm2.48,6.82V7h.9v6.61h3.23V3.86h.93V8.16h4.51V9h-4.51v4.61h6.51v.82H135.86v-.82Z"/><path d="M167.83,13.72l-.58.77a14.71,14.71,0,0,1-6.4-3.44v3.75h-.93V11.08a15.56,15.56,0,0,1-6.31,3.46l-.56-.75a14.76,14.76,0,0,0,6.23-3.12h-6.13V9.92h6.77V8.53H155V7.84h4.95V6.51h-5.76V5.79h3.62a10.79,10.79,0,0,0-.88-2.07h-3.75V3h5.27V.21h.86V3h2.23V.21h.9V3h5.31v.74h-3.65A22.61,22.61,0,0,1,163,5.79h3.79v.72h-5.91V7.84H166v.69h-5.12V9.92h6.87v.74h-6.18A14.31,14.31,0,0,0,167.83,13.72ZM155.68.42a12.49,12.49,0,0,1,1.42,2.16l-.74.35A10.62,10.62,0,0,0,155,.77Zm6.4,5.38c.38-.7.75-1.46,1-2.07h-5.27a14,14,0,0,1,.86,2.07Zm4-5a20.27,20.27,0,0,1-1.66,2.14l-.66-.34A16.18,16.18,0,0,0,165.23.4Z"/><path d="M172.36,3.52l-.18-.8a14,14,0,0,0,3-1.52h.77V13.59h-1V2.34A18.36,18.36,0,0,1,172.36,3.52Z"/><path d="M189.25,7.48c0,4.15-1.41,6.39-4,6.39s-4-2.24-4-6.4S182.54,1,185.2,1s4,2.22,4,6.42Zm-7.06,0c0,3.83,1.07,5.49,3,5.49s3-1.67,3-5.51-1.09-5.55-3-5.55-3,1.68-3,5.55Z"/><path d="M200.81,7.48c0,4.15-1.41,6.39-4,6.39s-4-2.24-4-6.4,1.38-6.42,4-6.42,4,2.22,4,6.42Zm-7.06,0c0,3.83,1.07,5.49,3,5.49s3-1.67,3-5.51-1.09-5.55-3-5.55-3,1.68-3,5.55Z"/><path d="M203.4,14.41h4.77V4.67h.64V15H203.4Z"/><path d="M216.89,8.36a37.22,37.22,0,0,1,.82-7.57l1,.16a32.23,32.23,0,0,0-.85,7.4,15.2,15.2,0,0,0,.83,5.68l-1,.29a17.54,17.54,0,0,1-.83-5.94Zm11.81,4.79c-1,.1-2.1.16-3.07.16-2.82,0-4.88-.42-4.88-2A5.72,5.72,0,0,1,221.5,9l.85.18a4.58,4.58,0,0,0-.69,2c0,1,1.49,1.31,4,1.31a24.64,24.64,0,0,0,3.09-.22ZM225.92,3c.83,0,1.73,0,2.42,0l0,.88c-.77,0-1.76-.08-2.71-.08a42.57,42.57,0,0,0-4.66.26l-.06-.9c1.46-.13,3.33-.19,5-.19Z"/></g></g></svg>