<?xml version="1.0" encoding="utf-8"?>
<!-- Generator: Adobe Illustrator 21.0.2, SVG Export Plug-In . SVG Version: 6.00 Build 0)  -->
<svg version="1.1" id="レイヤー_1" xmlns="http://www.w3.org/2000/svg" xmlns:xlink="http://www.w3.org/1999/xlink" x="0px"
	 y="0px" viewBox="0 0 171.8 75" style="enable-background:new 0 0 171.8 75;" xml:space="preserve">
<style type="text/css">
	.st0{fill:#FF4700;}
	.st1{fill:#FF4700;stroke:#FF4700;stroke-width:1.01;stroke-miterlimit:10;}
</style>
<title>whatweare-100-text</title>
<g id="レイヤー_2">
	<g id="design">
		<path class="st0" d="M13.5,75V9.9L0,21.9v-8.4L13.5,1.6h7.3V75H13.5z"/>
		<path class="st0" d="M54.4,74.6c-11.3,0-19.8-8-19.8-20.2V20.2C34.6,8,43.1,0,54.4,0s19.8,8,19.8,20.2v34.2
			C74.1,66.5,65.6,74.6,54.4,74.6z M66.8,20.6c0-8-4.5-14-12.5-14s-12.5,6-12.5,14V54c0,8,4.5,14,12.5,14s12.5-6,12.5-14V20.6z"/>
		<path class="st0" d="M104.6,74.6c-11.3,0-19.8-8-19.8-20.2V20.2C84.8,8,93.3,0,104.6,0s19.8,8,19.8,20.2v34.2
			C124.3,66.5,115.8,74.6,104.6,74.6z M117.1,20.6c0-8-4.5-14-12.5-14s-12.5,6-12.5,14V54c0,8,4.5,14,12.5,14s12.5-6,12.5-14V20.6z"
			/>
		<path class="st1" d="M142.6,52.6c-3.6,0.2-6.6-2.6-6.8-6.2c0-0.2,0-0.4,0-0.6v-5.4c-0.1-3.8,2.8-6.9,6.5-7.1s6.9,2.8,7.1,6.5
			c0,0.2,0,0.3,0,0.5v5.4c0.2,3.6-2.6,6.7-6.2,6.8C143,52.6,142.8,52.6,142.6,52.6z M146.5,40.5c0-2.7-1.2-4.4-3.9-4.4
			s-3.9,1.7-3.9,4.4v5.2c0,2.8,1.2,4.4,3.9,4.4s3.9-1.7,3.9-4.4V40.5z M146.6,70.3h-3l16.8-36.4h3L146.6,70.3z M164.5,70.6
			c-3.6,0.2-6.6-2.6-6.8-6.2c0-0.2,0-0.5,0-0.7v-5.4c-0.1-3.8,2.8-6.9,6.5-7.1s6.9,2.8,7.1,6.5c0,0.2,0,0.3,0,0.5v5.4
			c0.2,3.6-2.6,6.7-6.2,6.9C164.9,70.6,164.7,70.6,164.5,70.6L164.5,70.6z M168.4,58.5c0-2.7-1.2-4.4-3.9-4.4s-3.9,1.7-3.9,4.4v5.2
			c0,2.8,1.2,4.4,3.9,4.4s3.9-1.7,3.9-4.4V58.5z"/>
	</g>
</g>
</svg>
