<?xml version="1.0" encoding="utf-8"?>
<!-- Generator: Adobe Illustrator 21.0.2, SVG Export Plug-In . SVG Version: 6.00 Build 0)  -->
<svg version="1.1" id="レイヤー_1" xmlns="http://www.w3.org/2000/svg" xmlns:xlink="http://www.w3.org/1999/xlink" x="0px"
	 y="0px" viewBox="0 0 160.6 135.8" style="enable-background:new 0 0 160.6 135.8;" xml:space="preserve">
<style type="text/css">
	.st0{fill:#FF4700;}
</style>
<title>whatweare-1-num</title>
<g id="レイヤー_2">
	<g id="design">
		<g id="TOP">
			<g id="WHAT_WE_AREのコピー_2">
				<path class="st0" d="M1.8,133.5L0,131.2c7.5-1.9,15.7-5.9,20.5-11.2H7c-0.3,1-0.7,1.9-0.9,2.7l-2.9-0.2
					c1.5-4.1,2.8-8.3,3.8-12.5h15.1v-5.7H4.7v-2.4H42v10.4H25v5.3h19.3c-1,8.9-2.3,12.9-4,13.8c-0.7,0.3-1.5,0.5-2.3,0.5
					c-1.1,0.1-3.5,0-4.9-0.1l-0.3-2.6c1.3,0.1,3.6,0.1,4.6,0.1c0.4,0,0.7-0.1,1.1-0.2c1-0.5,2-3.1,2.7-9H25v15.9h-2.9v-14
					C17,127.2,9.2,131.3,1.8,133.5z M18.4,100.2l-2.6,0.9c-0.7-2.1-1.7-4-2.9-5.8H8.7c-1.8,2.5-3.8,4.8-6.2,6.9l-2.4-1.4
					c3.9-3,7-7,8.9-11.6l2.6,0.6c-0.4,1.1-1,2.3-1.5,3.3h13.7v2.3h-8C16.8,96.8,17.7,98.4,18.4,100.2z M22.1,117.5v-5.3H9.3
					c-0.5,1.7-1.1,3.6-1.6,5.3H22.1z M41.2,100.3l-2.6,1c-0.9-2.2-2.2-4.2-3.7-6.1h-5.4c-1.7,2.4-3.7,4.5-6,6.4l-2.4-1.4
					c3.9-2.8,6.9-6.7,8.6-11.1l2.7,0.5c-0.4,1.2-0.9,2.3-1.5,3.4H47v2.3h-9C39.3,96.8,40.4,98.5,41.2,100.3z M25,109.9h14v-5.7H25
					V109.9z"/>
				<path class="st0" d="M77.2,135.1V60.9L61.6,74.6V65l15.6-13.5h8.5v83.6H77.2z"/>
				<path class="st0" d="M123.3,134.7h-2.9v-28.4c-1.7,3-3.6,5.9-5.6,8.6l-1.8-2.3c5.6-7.4,9.7-15.8,12.3-24.7l2.8,0.7
					c-1.3,4.2-2.9,8.2-4.8,12.2L123.3,134.7z M145.7,129.8c2.6-8.7,4.8-17.6,6.5-26.5l3,0.7c-1.5,7-4,17-6.8,25.9h12.3v2.7h-34.3
					v-2.7L145.7,129.8z M141.6,97.7V88h2.9v9.7h14.8v2.7h-31.6v-2.7L141.6,97.7z M134.6,103.7c1.8,7.6,3.2,15.3,4.1,23l-2.8,0.7
					c-0.9-7.7-2.2-15.4-4-23L134.6,103.7z"/>
			</g>
		</g>
	</g>
</g>
<g>
	<path class="st0" d="M33.2,8.9c0-2.7-1.7-4.7-5-4.7c-2.1,0-4.5,0.8-6.5,1.9l-0.5-1.8c2.1-1.2,4.8-1.9,7.1-1.9c4.1,0,7,2.1,7,6.5
		c0,2.9-1.4,5.9-6.2,11.3c-2.7,2.9-4.6,4.8-6,6.1H36v1.8H20.6v-1.7c1.7-1.7,3.5-3.4,6.5-6.8C31.8,14.3,33.2,11.4,33.2,8.9L33.2,8.9z
		"/>
	<path class="st0" d="M60.6,22v7.5h-1.8V22H44.9v-1.6h5.3v-8.1h8.6v-5h-7.2c-1.3,2.3-3,4.4-4.8,6.1l-1.5-0.9c3-2.7,5.5-6.3,6.8-10.5
		l1.8,0.2c-0.4,1.2-0.9,2.4-1.4,3.5h19v1.6H60.6v5h9.6V14h-9.6v6.5h11.9V22H60.6z M58.8,20.5V14h-6.9v6.5H58.8z"/>
	<path class="st0" d="M91.9,27.7c3.3,0.1,10.4,0.1,14-0.1l-0.2,1.5c-3.5,0.1-10.5,0.1-13.9,0c-3.6-0.1-5.9-1-8.3-3.5
		c-1.8,1.7-3.4,2.9-4.8,4.1l-0.8-1.5c1.3-0.9,2.9-2.2,4.6-3.7v-8.3h-4.1v-1.6H84v9.5C86.3,26.8,88.6,27.6,91.9,27.7z M80,2.8
		c1.9,2,3.4,3.8,4.3,5.5l-1.5,0.9c-0.9-1.8-2.3-3.6-4.1-5.5L80,2.8z M94.5,21.6V19h-7V8.6h7V6.1H86V4.7h8.5V2h1.7v2.7h8.8v1.4h-8.8
		v2.5h7.3V19h-7.3v2.7h9.4v1.5h-9.4v3.7h-1.7v-3.7h-9v-1.5H94.5z M89.1,13.2h5.3V9.9h-5.3V13.2z M89.1,17.6h5.3v-3.3h-5.3V17.6z
		 M101.8,13.2V9.9h-5.6v3.2H101.8z M101.8,17.6v-3.3h-5.6v3.3H101.8z"/>
	<path class="st0" d="M115.8,19.3c-0.3,2.8-1.2,5.7-2.2,7.8l-1.4-0.5c1-2.1,1.8-4.8,2.1-7.5L115.8,19.3z M119.2,29.6h-1.6V16.7
		c-1.8,0.2-3.7,0.4-5,0.5l-0.3-1.5c0.5,0,1.2-0.1,1.9-0.1c0.9-1.2,1.8-2.5,2.8-3.8c-1.1-1.4-2.7-3.2-4.4-4.5c0.7-1,0.8-1.1,0.8-1.2
		c0.5,0.4,0.9,0.8,1.3,1.2c1.3-1.8,2.5-3.8,3.1-5.3l1.4,0.6c-0.8,1.6-2.2,3.7-3.5,5.6c0.8,0.8,1.5,1.6,2.1,2.3
		c1.4-2.1,2.6-4.1,3.4-5.7l1.5,0.7c-1.5,2.8-4,6.5-6.7,10c1.8-0.1,3.7-0.3,5.2-0.4c-0.5-0.9-1.2-1.9-1.8-2.7l1.2-0.6
		c1.4,1.7,2.5,3.7,3.1,5.1v-2.7h15.8v4.8H138v-3.4h-12.8v3.4h-1.5V17c-1,0.5-1.1,0.5-1.2,0.6c-0.2-0.4-0.4-0.9-0.6-1.4
		c-0.8,0.1-1.8,0.2-2.8,0.3V29.6z M122.3,18.9c0.8,2.1,1.4,4.5,1.6,6.1c-0.8,0.2-1.1,0.3-1.5,0.4c-0.2-1.7-0.8-4.1-1.5-6.1
		L122.3,18.9z M129.5,18c-0.4,5.6-1.5,9.5-6.5,11.7l-1.2-1.2c4.7-2,5.8-5.5,6-10.6L129.5,18z M130.7,10.1V6.8h-7.5V5.4h7.5V2h1.7
		v3.4h7.7v1.5h-7.7v3.3h6.3v1.4h-13.9v-1.4H130.7z M134.1,17.6v8.7c0,1.1,0.2,1.3,1,1.3c0.6,0,1.8,0,2.5,0c0.8,0,0.9-0.2,0.9-3.2
		l1.5,0.3c-0.2,4.1-0.5,4.5-2.3,4.5c-0.8,0-2.1,0-2.8,0c-1.9-0.1-2.3-0.5-2.3-2.9v-8.7H134.1z"/>
</g>
</svg>
