<svg xmlns="http://www.w3.org/2000/svg" viewBox="0 0 661.37 25.42"><title>whatweare-index-sub</title><g id="レイヤー_2" data-name="レイヤー 2"><g id="design"><path d="M.75,25.24H0V.18H1.11L9.92,23.63V.18h.75V25.24h-1L.75,1.33Z"/><path d="M30,19.08a10.25,10.25,0,0,0,.21,2.15A5.19,5.19,0,0,0,31,23a3.65,3.65,0,0,0,1.36,1.24,5.12,5.12,0,0,0,4.19,0A3.66,3.66,0,0,0,37.9,23a5.2,5.2,0,0,0,.73-1.79,10.25,10.25,0,0,0,.21-2.15V.18h.75V19a10.89,10.89,0,0,1-.27,2.45,5.66,5.66,0,0,1-.88,2,4.47,4.47,0,0,1-1.59,1.38,5.88,5.88,0,0,1-4.83,0,4.63,4.63,0,0,1-1.61-1.38,5.48,5.48,0,0,1-.9-2A10.87,10.87,0,0,1,29.25,19V.18H30Z"/><path d="M66,25.17h-.9L58.9,1.36V25.24h-.72V.18H59.4L65.56,24,71.72.18h1.22V25.24h-.79V1.36Z"/><path d="M96.57.18q2.72,0,3.78,1.34a6.11,6.11,0,0,1,1.06,3.85V7a6.54,6.54,0,0,1-.73,3.35,3.74,3.74,0,0,1-2.85,1.56A4.25,4.25,0,0,1,101,13.64a6.51,6.51,0,0,1,.93,3.62v2.22a6.59,6.59,0,0,1-1.24,4.21,4.88,4.88,0,0,1-4.06,1.56h-5V.18Zm-1,11.39a12.2,12.2,0,0,0,2.24-.18,3.51,3.51,0,0,0,1.58-.68,2.84,2.84,0,0,0,.91-1.38,7.34,7.34,0,0,0,.29-2.24V5.41a5.56,5.56,0,0,0-.84-3.35Q98.93.93,96.57.93H92.34V11.57Zm1,12.93a4.15,4.15,0,0,0,3.49-1.32,5.92,5.92,0,0,0,1-3.69V17.22q0-2.72-1.29-3.83A5.8,5.8,0,0,0,96,12.28H92.34V24.49Z"/><path d="M128.62,12.17v.72h-7.38v11.6H130v.75h-9.56V.18H130V.93h-8.77V12.17Z"/><path d="M153.54.18a4.73,4.73,0,0,1,4,1.52,6.51,6.51,0,0,1,1.18,4.1V8.06a5.92,5.92,0,0,1-.95,3.6,4.68,4.68,0,0,1-3,1.67,4.33,4.33,0,0,1,3,1.63,5.7,5.7,0,0,1,.93,3.38v3.94a10.21,10.21,0,0,0,.13,1.54,3.3,3.3,0,0,0,.55,1.43h-.86a3.35,3.35,0,0,1-.5-1.38,11.49,11.49,0,0,1-.11-1.59V18.33a5.72,5.72,0,0,0-.39-2.29,3.33,3.33,0,0,0-1.13-1.41,4.67,4.67,0,0,0-1.74-.73,10.64,10.64,0,0,0-2.22-.21h-3.08V25.24h-.79V.18Zm-1.11,12.75a12.25,12.25,0,0,0,2.31-.2,4,4,0,0,0,1.72-.73,3.43,3.43,0,0,0,1.07-1.45,6.34,6.34,0,0,0,.38-2.38V5.87a5.94,5.94,0,0,0-1-3.62A4,4,0,0,0,153.5.93h-4.15v12Z"/><path d="M199.19,6.34a7.21,7.21,0,0,1,1.34-4.74,4.88,4.88,0,0,1,4-1.59,5,5,0,0,1,4,1.59,7.21,7.21,0,0,1,1.34,4.74V19.08a7.21,7.21,0,0,1-1.34,4.74,5,5,0,0,1-4,1.59,4.88,4.88,0,0,1-4-1.59,7.21,7.21,0,0,1-1.34-4.74ZM200,19.12q0,5.59,4.51,5.59t4.58-5.59V6.3q0-5.59-4.58-5.59T200,6.3Z"/><path d="M236.25,12.78v.75h-7V25.24h-.79V.18h9.2V.93h-8.41V12.78Z"/><path d="M282.37.18a6,6,0,0,1,2.44.45,4,4,0,0,1,1.61,1.25,5.15,5.15,0,0,1,.88,1.92,10.35,10.35,0,0,1,.27,2.44V8.74a6.2,6.2,0,0,1-1.38,4.44,5.86,5.86,0,0,1-4.39,1.43h-3.58V25.24h-.79V.18Zm-.57,13.68a5.14,5.14,0,0,0,3.81-1.2,5.44,5.44,0,0,0,1.16-3.88V6.19a9.75,9.75,0,0,0-.21-2.11,4.33,4.33,0,0,0-.73-1.67,3.52,3.52,0,0,0-1.36-1.09,4.93,4.93,0,0,0-2.09-.39h-4.15V13.86Z"/><path d="M311,.18a4.73,4.73,0,0,1,4,1.52,6.51,6.51,0,0,1,1.18,4.1V8.06a5.92,5.92,0,0,1-.95,3.6,4.68,4.68,0,0,1-3,1.67,4.33,4.33,0,0,1,3,1.63,5.7,5.7,0,0,1,.93,3.38v3.94a10.21,10.21,0,0,0,.13,1.54,3.3,3.3,0,0,0,.55,1.43H316a3.35,3.35,0,0,1-.5-1.38,11.49,11.49,0,0,1-.11-1.59V18.33A5.72,5.72,0,0,0,315,16a3.33,3.33,0,0,0-1.13-1.41,4.67,4.67,0,0,0-1.74-.73,10.64,10.64,0,0,0-2.22-.21h-3.08V25.24h-.79V.18Zm-1.11,12.75a12.25,12.25,0,0,0,2.31-.2A4,4,0,0,0,314,12,3.43,3.43,0,0,0,315,10.54a6.34,6.34,0,0,0,.38-2.38V5.87a5.94,5.94,0,0,0-1-3.62A4,4,0,0,0,311,.93h-4.15v12Z"/><path d="M335.39,6.34a7.21,7.21,0,0,1,1.34-4.74,4.88,4.88,0,0,1,4-1.59,5,5,0,0,1,4,1.59,7.21,7.21,0,0,1,1.34,4.74V19.08a7.21,7.21,0,0,1-1.34,4.74,5,5,0,0,1-4,1.59,4.88,4.88,0,0,1-4-1.59,7.21,7.21,0,0,1-1.34-4.74Zm.79,12.78q0,5.59,4.51,5.59t4.58-5.59V6.3q0-5.59-4.58-5.59T336.18,6.3Z"/><path d="M369.59.18A6,6,0,0,1,372,.63a4,4,0,0,1,1.61,1.25,5.15,5.15,0,0,1,.88,1.92,10.37,10.37,0,0,1,.27,2.44V8.74a6.2,6.2,0,0,1-1.38,4.44A5.86,5.86,0,0,1,369,14.61h-3.58V25.24h-.79V.18ZM369,13.86a5.14,5.14,0,0,0,3.81-1.2A5.44,5.44,0,0,0,374,8.77V6.19a9.72,9.72,0,0,0-.21-2.11A4.32,4.32,0,0,0,373,2.42a3.53,3.53,0,0,0-1.36-1.09,4.93,4.93,0,0,0-2.09-.39h-4.15V13.86Z"/><path d="M401.46,12.17v.72h-7.38v11.6h8.77v.75h-9.56V.18h9.56V.93h-8.77V12.17Z"/><path d="M426.38.18a4.73,4.73,0,0,1,4,1.52,6.51,6.51,0,0,1,1.18,4.1V8.06a5.92,5.92,0,0,1-.95,3.6,4.68,4.68,0,0,1-3,1.67,4.33,4.33,0,0,1,3,1.63,5.71,5.71,0,0,1,.93,3.38v3.94a10.21,10.21,0,0,0,.13,1.54,3.3,3.3,0,0,0,.56,1.43h-.86a3.35,3.35,0,0,1-.5-1.38,11.57,11.57,0,0,1-.11-1.59V18.33a5.72,5.72,0,0,0-.39-2.29,3.33,3.33,0,0,0-1.13-1.41,4.67,4.67,0,0,0-1.74-.73,10.63,10.63,0,0,0-2.22-.21h-3.08V25.24h-.79V.18Zm-1.11,12.75a12.24,12.24,0,0,0,2.31-.2,4,4,0,0,0,1.72-.73,3.42,3.42,0,0,0,1.07-1.45,6.33,6.33,0,0,0,.38-2.38V5.87a5.94,5.94,0,0,0-1-3.62A4,4,0,0,0,426.34.93h-4.15v12Z"/><path d="M455.59,25.24V.93h-5.48V.18h11.74V.93h-5.48V25.24Z"/><path d="M485.6,15.11,479.76.18h.79L486,14,491.51.18h.82l-5.94,14.93V25.24h-.79Z"/><path d="M534.15,19.34l-1.47,5.91H532L538,.14h1.11l6.19,25.1h-.79l-1.47-5.91Zm.14-.72h8.63L538.56,1.07Z"/><path d="M569,0a5.4,5.4,0,0,1,2.43.5,4.44,4.44,0,0,1,1.63,1.36,5.73,5.73,0,0,1,.91,2,10.26,10.26,0,0,1,.29,2.45V8h-.79V6.3a9.72,9.72,0,0,0-.23-2.17,5.08,5.08,0,0,0-.75-1.77,3.75,3.75,0,0,0-1.38-1.2,4.44,4.44,0,0,0-2.08-.45,4.53,4.53,0,0,0-2.11.45,3.74,3.74,0,0,0-1.38,1.2,5.06,5.06,0,0,0-.75,1.77,9.72,9.72,0,0,0-.23,2.17V19.12a9.47,9.47,0,0,0,.23,2.15,5.06,5.06,0,0,0,.75,1.75,3.74,3.74,0,0,0,1.38,1.2,4.52,4.52,0,0,0,2.11.45,4.44,4.44,0,0,0,2.08-.45,3.74,3.74,0,0,0,1.38-1.2,5.08,5.08,0,0,0,.75-1.75,9.47,9.47,0,0,0,.23-2.15V13.43h-3.9v-.72h4.69v6.37a10.25,10.25,0,0,1-.29,2.45,5.73,5.73,0,0,1-.91,2,4.43,4.43,0,0,1-1.63,1.36,5.4,5.4,0,0,1-2.43.5,5.29,5.29,0,0,1-2.42-.5A4.47,4.47,0,0,1,565,23.56a5.71,5.71,0,0,1-.91-2,10.2,10.2,0,0,1-.29-2.45V6.34a10.21,10.21,0,0,1,.29-2.45,5.71,5.71,0,0,1,.91-2A4.47,4.47,0,0,1,566.61.5,5.29,5.29,0,0,1,569,0Z"/><path d="M601,12.17v.72h-7.38v11.6h8.77v.75h-9.56V.18h9.56V.93h-8.77V12.17Z"/><path d="M621.73,25.24H621V.18h1.11l8.81,23.45V.18h.75V25.24h-1l-9-23.92Z"/><path d="M655.11,25.24V.93h-5.48V.18h11.74V.93h-5.48V25.24Z"/></g></g></svg>