<?xml version="1.0" encoding="utf-8"?>
<!-- Generator: Adobe Illustrator 21.0.2, SVG Export Plug-In . SVG Version: 6.00 Build 0)  -->
<svg version="1.1" id="レイヤー_1" xmlns="http://www.w3.org/2000/svg" xmlns:xlink="http://www.w3.org/1999/xlink" x="0px"
	 y="0px" viewBox="0 0 255.7 111.9" style="enable-background:new 0 0 255.7 111.9;" xml:space="preserve">
<style type="text/css">
	.st0{fill:#FF4700;}
	.st1{fill:#FF4700;stroke:#FF4700;stroke-width:0.78;stroke-miterlimit:10;}
	.st2{fill:#FF4700;stroke:#FF4700;stroke-width:0.97;stroke-miterlimit:10;}
</style>
<title>whatweare-16047-text</title>
<g id="レイヤー_2">
	<g id="design">
		<path class="st0" d="M13,71.5V8.6L0,20.2v-8.2L13,0.6h7.1v70.9H13z"/>
		<path class="st0" d="M51.6,72.1c-11.9,0-19.4-8.2-19.4-20.4c0-5.1,1.5-10,4.4-15.9L53.7,0.6H61L45.4,32.5c2.3-1,4.8-1.5,7.3-1.5
			c10.9,0,18.1,8.5,18.1,20.1C70.9,63.1,63.4,72.1,51.6,72.1z M51.5,37c-7.5,0-12.3,5.6-12.3,14.3S44,65.7,51.5,65.7
			S63.8,60,63.8,51.4C63.8,43.5,59.5,37,51.5,37z"/>
		<path class="st0" d="M113.9,60.3v11.2h-7V60.3H79.1v-6.5l25.2-53.2h7.6L86.7,53.8H107V33.7h7v20.1h8.5v6.5H113.9z"/>
		<path class="st0" d="M150,72.1c-10.9,0-19.1-7.8-19.1-19.5V19.5C130.9,7.8,139.1,0,150,0s19.1,7.8,19.1,19.5v33.1
			C169.1,64.4,160.9,72.1,150,72.1z M162.1,19.9c0-7.8-4.3-13.6-12.1-13.6s-12,5.8-12,13.6v32.3c0,7.8,4.3,13.5,12.1,13.5
			s12.1-5.8,12.1-13.5L162.1,19.9z"/>
		<path class="st1" d="M175.6,71.9v-6.4h6.3v6.4H175.6z"/>
		<path class="st0" d="M198.4,71.5h-7.4L215.2,7h-24.3v11.2h-7V0.6h38.7V7L198.4,71.5z"/>
		<path class="st2" d="M227.5,54.9c-3.5,0.1-6.4-2.6-6.5-6c0-0.2,0-0.4,0-0.6v-5.2c-0.1-3.6,2.7-6.7,6.3-6.8s6.7,2.7,6.8,6.3
			c0,0.2,0,0.3,0,0.5v5.2c0.2,3.5-2.5,6.4-6,6.6C227.9,54.9,227.7,54.9,227.5,54.9z M231.3,43.2c0-2.6-1.2-4.3-3.8-4.3
			s-3.8,1.6-3.8,4.3v5c0,2.7,1.2,4.2,3.8,4.2s3.8-1.6,3.8-4.2V43.2z M231.4,71.9h-2.9l16.2-35.2h2.9L231.4,71.9z M248.6,72.3
			c-3.5,0.2-6.4-2.5-6.6-6c0-0.2,0-0.4,0-0.7v-5.2c-0.1-3.6,2.7-6.7,6.3-6.8s6.7,2.7,6.8,6.3c0,0.2,0,0.3,0,0.5v5.2
			c0.2,3.5-2.5,6.5-6,6.7C249,72.3,248.8,72.3,248.6,72.3L248.6,72.3z M252.4,60.5c0-2.6-1.2-4.3-3.8-4.3s-3.8,1.6-3.8,4.3v5
			c0,2.7,1.1,4.3,3.8,4.3s3.8-1.7,3.8-4.3V60.5z"/>
		<path class="st0" d="M99.3,96.6h0.9c-0.3,6.7-0.7,10-1.5,10.5c-0.4,0.3-0.9,0.4-1.3,0.4c-0.7,0-2.3,0-3.2-0.1l-0.2-1.4
			c0.9,0.1,2.3,0.1,3,0.1c0.2,0,0.4,0,0.6-0.1c0.5-0.4,0.8-2.8,1-7.9h-6.4v0.3c0.2,4.7-0.9,9.3-3,13.4l-1.4-0.9
			c2.1-3.7,2.8-8.1,2.8-12.5v-7.6h11.5c-0.1-1.6-0.3-3.3-0.3-5.1h1.6c0.1,1.8,0.2,3.5,0.3,5.1H114v1.5h-10.2c0.3,3.7,1,7.4,2.1,10.9
			c1.9-2.5,3.2-5.4,4-8.4l1.5,0.5c-1,3.5-2.7,6.8-5,9.6c1.3,3.3,3,5.2,4.9,5.3c0.9,0,1.2-0.9,1.4-4.2l1.4,0.4
			c-0.4,4.4-1.3,5.6-3.1,5.5c-2.4-0.2-4.3-2.2-5.8-5.6c-2.2,2.2-4.7,4.1-7.6,5.5l-1.4-0.9c3.1-1.5,6-3.6,8.3-6.2
			c-1.3-4-2.1-8.2-2.5-12.3H92.1v4.3L99.3,96.6L99.3,96.6z M106.9,85.8c1.8,1,3.4,2.1,4.8,3.5l-1.2,1c-1.4-1.4-2.9-2.5-4.7-3.5
			L106.9,85.8z"/>
		<path class="st0" d="M123.1,109.6v-9.2h-4.6V99h4.6V86.7h18v1.4h-16.3v2.8h15v1.2h-15v2.8h15v1.2h-15V99h19.6v1.4h-12.7
			c0.8,1.9,1.9,3.6,3.3,5.1c2.3-1.3,4.6-2.7,6.7-4.4l1.2,1.1c-2.2,1.6-4.5,3-6.8,4.3c2.5,2,5.5,3.3,8.6,3.9
			c-0.6,0.7-0.8,1.1-1.1,1.4c-6.4-1.6-11.2-5-13.7-11.3h-5.3v8.9c3.1-0.5,6.5-1.1,8.9-1.6l0.1,1.4c-4,0.8-10.2,2-13.7,2.7
			c-0.1-0.4-0.2-0.8-0.5-1.6L123.1,109.6z"/>
	</g>
</g>
</svg>
