<svg xmlns="http://www.w3.org/2000/svg" viewBox="0 0 255.71 144.5"><defs><style>.cls-1,.cls-2,.cls-3{fill:#ff4700;}.cls-2,.cls-3{stroke:#ff4700;stroke-miterlimit:10;}.cls-2{stroke-width:0.78px;}.cls-3{stroke-width:0.97px;}</style></defs><title>whatweare-16047-text</title><g id="レイヤー_2" data-name="レイヤー 2"><g id="design"><path d="M5.13,15H4.25V8.39l-2.83.3-.18-.83,1.07-.08c.5-.62,1-1.26,1.46-1.9A15.82,15.82,0,0,0,1.42,3.28l.5-.59c.22.21.46.42.69.64A23.48,23.48,0,0,0,4.4.38l.77.35a27.45,27.45,0,0,1-2,3.14c.43.46.82.91,1.12,1.31A34.72,34.72,0,0,0,6.4,1.87l.82.37A53.94,53.94,0,0,1,3.32,7.68l3-.26A11.31,11.31,0,0,0,5.21,5.91l.67-.37A12.4,12.4,0,0,1,7.74,8.6L7,9a7.49,7.49,0,0,0-.38-.85l-1.52.18ZM3.21,9.64A14.49,14.49,0,0,1,2,13.81l-.75-.29a13.23,13.23,0,0,0,1.14-4Zm3.62-.21a15.84,15.84,0,0,1,1,3.17L7,12.82a14.59,14.59,0,0,0-.93-3.19A5.88,5.88,0,0,1,6.83,9.43Zm4.42,4.31V10.26H8.3V9.44h2.95V6.95h.9v2.5h3v.82h-3v3.47H16v.82H7.15v-.82Zm.46-9A8.24,8.24,0,0,0,14.1,1.7H7.77V.9h6.85l.66.22a9.2,9.2,0,0,1-2.9,4.13A13.37,13.37,0,0,0,16.18,7l-.58.77a13.84,13.84,0,0,1-3.92-2,15,15,0,0,1-3.81,2l-.59-.67A14.48,14.48,0,0,0,11,5.28a10.34,10.34,0,0,1-2.5-3.12l.8-.32A9.15,9.15,0,0,0,11.71,4.75Z"/><path d="M23,2.72A7.85,7.85,0,0,0,21.72,1l.75-.4a8.44,8.44,0,0,1,1.42,2l-.29.16h2.16V.38h.93V2.72h2.08l-.14-.08A15.09,15.09,0,0,0,30.26.58L31.1,1a14.57,14.57,0,0,1-1.49,1.76H33v2.9h-.93V3.46H20.48V5.62h-.9V2.72Zm8.26,6.47h.53v3.91c0,.53-.18.83-.66.93A14.37,14.37,0,0,1,29,14l-.13-.78c.54,0,1.41,0,1.63,0s.32-.13.32-.32v-3H26.69V15h-.93V9.92h-4v4.23h-.9v-5h4.95V7.94H22.15V4.69h8.31V7.94H26.69V9.19h4.56ZM23,7.28h6.51v-2H23Z"/><path d="M37.53,12.44l-.66-.69a19.56,19.56,0,0,0,3.71-6H37.15V5h3.52V2.32a23.24,23.24,0,0,1-3,.5L37.33,2A22.1,22.1,0,0,0,44,.4l.53.72a17.63,17.63,0,0,1-2.91,1V5h3.1v.82h-3.1V6.5c1.07,1.15,2.27,2.56,3,3.41l-.59.77c-.56-.82-1.47-2-2.37-3.14V15h-.9V7.4A22,22,0,0,1,37.53,12.44Zm8.4-1V2.23h.9v9.2Zm3.94,3.49a14.79,14.79,0,0,1-2.13,0L47.59,14a17.68,17.68,0,0,0,1.82,0c.46,0,.56-.26.56-.66V.38h.91V13.54C50.88,14.33,50.66,14.81,49.87,14.92Z"/><path d="M57.18,13.72V8.88a11.48,11.48,0,0,1-1.62,1L55,9.12a9.85,9.85,0,0,0,4.95-4.77H55.26V3.54h4.61A13.16,13.16,0,0,0,58.53.77l.78-.35a14.67,14.67,0,0,1,1.39,2.8L60,3.54h4A24,24,0,0,0,65.76.38l.9.32a30.38,30.38,0,0,1-1.71,2.83h4.77v.82H65.06A8.42,8.42,0,0,0,70,9l-.58.74a9.76,9.76,0,0,1-1.57-.82v4.77H69.7v.82H55.25v-.82Zm10.2-5.07a9.5,9.5,0,0,1-3.23-4.29H60.86a11,11,0,0,1-3.35,4.29Zm-6.93,5.07V9.46H58.06v4.26Zm3.22,0V9.46H61.23v4.26Zm3.25,0V9.46H64.47v4.26Z"/><path d="M77.52,4.64A33.37,33.37,0,0,0,78.21.86l.93.11a33.79,33.79,0,0,1-.69,3.59c.59,0,1.12-.06,1.55-.06,2,0,2.9,1.1,2.9,3.41a12.88,12.88,0,0,1-1,5.65,1.93,1.93,0,0,1-2,.94,9.77,9.77,0,0,1-2.18-.27l.08-.9a7.8,7.8,0,0,0,2,.29c.7,0,1-.06,1.36-.59.53-.78.88-2.95.88-5.11,0-1.78-.58-2.56-2-2.56-.46,0-1,0-1.7.08a27.55,27.55,0,0,1-3.49,8.29l-.83-.45a24.79,24.79,0,0,0,3.41-7.76c-1.2.11-2.47.27-3.49.46l-.16-.9C74.78,4.93,76.22,4.75,77.52,4.64Zm10.31,5.52-.93.22a11.2,11.2,0,0,0-3-6.21l.75-.51A12.1,12.1,0,0,1,87.83,10.16ZM84.69.94a11.38,11.38,0,0,1,1.79,2L86,3.35a9.5,9.5,0,0,0-1.74-2ZM86.23,0A11.28,11.28,0,0,1,88,2l-.5.4a10.08,10.08,0,0,0-1.74-2Z"/><path d="M93.07,5.12H99V9.36H93a10.85,10.85,0,0,1-1.58,4.88l-.69-.56A10.32,10.32,0,0,0,92.22,8V5.12h.85Zm-1.84-.37L90.8,4A11.39,11.39,0,0,0,95.25.42H96a12.71,12.71,0,0,0,4.45,3.39l-.45.78A14.14,14.14,0,0,1,95.62,1.2,12.54,12.54,0,0,1,91.23,4.75Zm2.48,9.6V15h-.83V10.55h6.37V15h-.86v-.61Zm-.64-6.85V8c0,.24,0,.46,0,.7h5.07V7.51Zm5.06-.56V5.75H93.07v1.2Zm-.37-3.63V4h-4.1V3.31Zm.62,10.31V11.28H93.71v2.34Zm3.14-11.41V11.3h-.86V2.21ZM105,.38V13.56c0,.78-.22,1.26-1,1.38a14.67,14.67,0,0,1-2.1,0l-.14-.88c.62,0,1.49,0,1.78,0,.46,0,.56-.27.56-.66V.38Z"/><path d="M123.83,13.89l-.58.77a14.71,14.71,0,0,1-6.4-3.44V15h-.93V11.25a15.56,15.56,0,0,1-6.31,3.46l-.56-.75a14.76,14.76,0,0,0,6.23-3.12h-6.13V10.1h6.77V8.71H111V8h4.95V6.69h-5.76V6h3.62a10.79,10.79,0,0,0-.88-2.06h-3.75V3.17h5.27V.38h.86V3.17h2.23V.38h.9V3.17h5.31v.74h-3.65A22.61,22.61,0,0,1,119,6h3.79v.72h-5.91V8H122v.69h-5.12V10.1h6.87v.74h-6.18A14.31,14.31,0,0,0,123.83,13.89ZM111.68.59a12.49,12.49,0,0,1,1.42,2.16l-.74.35A10.61,10.61,0,0,0,111,.94ZM118.09,6c.38-.7.75-1.46,1-2.06h-5.27A14,14,0,0,1,114.69,6Zm4-5a20.27,20.27,0,0,1-1.66,2.15l-.66-.34A16.18,16.18,0,0,0,121.24.58Z"/><path d="M128.64,1.92h3.23V12.41h-3.23v1h-.86V1.92h.86ZM131,6.64V2.77h-2.37V6.64Zm-2.37.82v4.1H131V7.46Zm10.16,1.12v-2h-6.32V5.78h4.21V3.35h-3.19v-.8h3.19V.38h.93V2.55h3.17v.8h-3.17V5.78h4.24v.82h-2.13v2h2.11v.8h-2.11v4.4c0,.66-.19,1-.85,1.14a19.25,19.25,0,0,1-2.24,0l-.13-.88c.62,0,1.57,0,1.84,0s.45-.19.45-.5V9.38H132.5v-.8ZM134.45,10a15.15,15.15,0,0,1,2.54,2.8l-.77.53a14.27,14.27,0,0,0-2.43-2.82Z"/><path d="M149.86,4.64a32.7,32.7,0,0,0,.69-3.78l.94.11c-.18,1.2-.42,2.4-.7,3.59.58,0,1.09-.06,1.5-.06,2,0,2.9,1.1,2.9,3.41a12.88,12.88,0,0,1-1,5.65,1.85,1.85,0,0,1-1.87.94,10.93,10.93,0,0,1-2.29-.27l.08-.9a8,8,0,0,0,2,.29c.69,0,.94-.1,1.28-.59.53-.78.88-2.95.88-5.11,0-1.86-.59-2.56-2-2.56-.45,0-1,0-1.65.08A27.76,27.76,0,0,1,147,13.73l-.82-.45a25.09,25.09,0,0,0,3.44-7.78c-1.2.11-2.48.29-3.52.48l-.16-.9C147.08,4.93,148.53,4.75,149.86,4.64Zm10.24,5.46-.93.22a11.41,11.41,0,0,0-3-6.26l.77-.51A12.36,12.36,0,0,1,160.11,10.1Z"/><path d="M165.9,9.3a10.38,10.38,0,0,1,5.6-2.08c2.48,0,4,1.12,4,3.19,0,2.48-2.11,4.1-7.12,4.1-.16,0-.37,0-.56,0l-.21-.9.85,0c4.37,0,6.07-1.26,6.07-3.2,0-1.63-1.07-2.39-3.2-2.39a9.41,9.41,0,0,0-5.6,2.48l-.75-.32c0-3.38.37-5,1.58-6.77l.85.32A8.54,8.54,0,0,0,165.9,9.3Zm.37-7.59.24-.88a44.72,44.72,0,0,1,7,1.68l-.26.85A41.75,41.75,0,0,0,166.27,1.71Z"/><path class="cls-1" d="M13,104.15V41.22L0,52.87V44.7L13,33.25H20.1v70.9Z"/><path class="cls-1" d="M51.58,104.75c-11.86,0-19.41-8.17-19.41-20.41,0-5.08,1.47-10,4.41-15.93L53.73,33.25H61L45.4,65.12a17.35,17.35,0,0,1,7.35-1.49c10.88,0,18.14,8.46,18.14,20.12C70.89,95.79,63.44,104.75,51.58,104.75Zm-.1-35.05C44,69.7,39.22,75.27,39.22,84S44,98.37,51.48,98.37,63.83,92.7,63.83,84C63.83,76.17,59.52,69.7,51.48,69.7Z"/><path class="cls-1" d="M113.94,92.9v11.25h-7V92.9H79.13V86.42l25.2-53.17h7.55L86.68,86.42H107V66.31h7V86.42h8.53V92.9Z"/><path class="cls-1" d="M150,104.75c-10.88,0-19.12-7.77-19.12-19.52V52.17c0-11.75,8.24-19.52,19.12-19.52s19.12,7.77,19.12,19.52V85.23C169.15,97,160.91,104.75,150,104.75Zm12.06-52.18C162.09,44.8,157.77,39,150,39S138,44.8,138,52.57V84.83c0,7.77,4.31,13.54,12.06,13.54s12.06-5.78,12.06-13.54Z"/><path class="cls-2" d="M175.63,104.58V98.19h6.29v6.39Z"/><path class="cls-1" d="M198.39,104.15h-7.45l24.22-64.53H190.84V50.78h-7V33.25h38.73v6.37Z"/><path class="cls-3" d="M227.54,87.54A6.29,6.29,0,0,1,221,80.92V75.73a6.57,6.57,0,1,1,13.13,0v5.19A6.32,6.32,0,0,1,227.54,87.54Zm3.79-11.71c0-2.62-1.17-4.3-3.79-4.3s-3.79,1.63-3.79,4.3v5c0,2.67,1.17,4.25,3.79,4.25s3.79-1.63,3.79-4.25Zm.1,28.75h-2.92l16.25-35.17h2.92Zm17.22.35a6.3,6.3,0,0,1-6.57-6.67V93.07a6.57,6.57,0,1,1,13.13,0v5.19A6.33,6.33,0,0,1,248.65,104.92Zm3.79-11.76c0-2.62-1.17-4.3-3.79-4.3s-3.79,1.63-3.79,4.3v5c0,2.67,1.12,4.3,3.79,4.3s3.79-1.68,3.79-4.3Z"/><path class="cls-1" d="M99.29,129.27h.86c-.32,6.69-.72,10-1.52,10.54a2.35,2.35,0,0,1-1.35.37c-.72,0-2.27,0-3.16-.06l-.2-1.44c.89.06,2.3.09,3,.06a1,1,0,0,0,.6-.14c.46-.37.78-2.79,1-7.87h-6.4v.32a27.61,27.61,0,0,1-3,13.44l-1.41-.92c2.13-3.68,2.81-8.07,2.81-12.49v-7.61h11.54c-.14-1.64-.26-3.33-.34-5.11h1.64c.09,1.78.17,3.47.32,5.11H114V125H103.83a55,55,0,0,0,2.1,10.91,24.8,24.8,0,0,0,4-8.44l1.52.52a25.53,25.53,0,0,1-5,9.62c1.32,3.3,3,5.2,4.88,5.28.86,0,1.23-.86,1.44-4.25l1.41.43c-.43,4.42-1.29,5.57-3.13,5.46-2.38-.17-4.28-2.21-5.77-5.6a28.72,28.72,0,0,1-7.55,5.54l-1.38-.95a27.76,27.76,0,0,0,8.33-6.17A54.05,54.05,0,0,1,102.22,125H92.14v4.31h7.15Zm7.61-10.8a24.42,24.42,0,0,1,4.85,3.47l-1.21,1a21.54,21.54,0,0,0-4.65-3.5Z"/><path class="cls-1" d="M123.06,142.25v-9.16h-4.59v-1.41h4.62V119.34h18v1.41H124.75v2.79h15v1.23h-15v2.81h15v1.23h-15v2.87h19.64v1.41H131.67a15.47,15.47,0,0,0,3.33,5.08,50.27,50.27,0,0,0,6.69-4.36l1.21,1.09a64.49,64.49,0,0,1-6.81,4.28,19.43,19.43,0,0,0,8.62,3.85c-.57.72-.8,1.06-1.06,1.41-6.4-1.55-11.17-5-13.67-11.34h-5.28V142c3.07-.52,6.46-1.12,8.9-1.61l.09,1.41c-4,.8-10.25,2-13.73,2.67-.11-.37-.23-.78-.49-1.58Z"/></g></g></svg>