<?xml version="1.0" encoding="utf-8"?>
<!-- Generator: Adobe Illustrator 21.0.2, SVG Export Plug-In . SVG Version: 6.00 Build 0)  -->
<svg version="1.1" id="レイヤー_1" xmlns="http://www.w3.org/2000/svg" xmlns:xlink="http://www.w3.org/1999/xlink" x="0px"
	 y="0px" viewBox="0 0 408.1 213.8" style="enable-background:new 0 0 408.1 213.8;" xml:space="preserve">
<style type="text/css">
	.st0{fill:#FF4700;}
</style>
<title>whatweare-1-modalnum</title>
<g id="WWAhover1">
	<path d="M3.5,13.1V8.2H0.2V6.4h3.3V2h1.9v4.4H8v1.8H5.4v4.3C6.2,12.2,7,12,7.7,11.8l0.2,1.7c-0.7,0.3-1.5,0.6-2.4,0.9v6.6
		c0,1.3-0.3,2.1-1.6,2.3c-0.9,0.1-1.9,0.1-2.8,0c-0.2-0.6-0.3-1.2-0.4-1.9c0.8,0,1.8,0,2.2,0c0.5,0,0.7-0.3,0.7-0.8V15l-3.1,1
		L0,14.1C0.9,13.8,2.2,13.5,3.5,13.1z M14,17.9c1.4-1.2,2.5-2.8,3.2-4.5H8.4v-1.7h9.8l1.4,0.4c-0.7,2.6-2.2,5-4.2,6.9
		c1.8,1.2,3.9,2,6,2.5l-1.2,1.7c-2.2-0.6-4.3-1.6-6.2-3c-1.8,1.3-3.9,2.3-6,3l-1.3-1.5c2.1-0.6,4.1-1.5,5.9-2.7
		c-1.4-1.4-2.6-3-3.4-4.9l1.7-0.6C11.6,15.2,12.6,16.7,14,17.9z M16.6,2.6h0.9v5.2c0,0.8,0.1,1,0.5,1h1.2c0.4,0,0.5-0.1,0.5-1.9
		c0.1,0,0.2,0,1.7,0.3c-0.2,3-0.5,3.4-2,3.4c-0.5,0-1.2,0-1.6,0c-1.7,0-2.1-0.5-2.1-2.7V4.3h-4.4v1.8c0.1,2.1-0.9,4.2-2.6,5.5
		l-1.5-1.1c1.5-1,2.4-2.7,2.4-4.5V2.6H16.6L16.6,2.6z"/>
	<path d="M39,19.8h-6.9l1.4,0.6c-2.1,1.2-4.3,2.1-6.7,2.8L25,22.2c2.2-0.5,4.3-1.3,6.3-2.4h-3.2v-9.4h4l-1-1.2
		c4.3-0.7,5.7-2.1,6.2-4.3H35c-0.6,0.9-1.3,1.6-2.1,2.3l-1.6-0.7C32.8,5.3,34,3.8,34.8,2l1.6,0.3c-0.1,0.4-0.3,0.8-0.5,1.2h8.7
		l1,0.1C45,5,44.2,6.3,43.4,7.5L41.6,7c0.6-0.7,1.1-1.4,1.5-2.1H39c0,0.2-0.1,0.4-0.2,0.6c1.3,2.5,4.1,3.4,7.4,3.6l-1,1.5
		c-3.1-0.4-5.5-1.2-7.2-3.3c-0.9,1.5-2.6,2.4-5.5,3.1h10.7v9.4h-3.1c2.3,0.8,4.3,1.7,6.1,2.5l-1.9,1c-2.1-1-4.3-1.9-6.5-2.7L39,19.8
		z M30.9,6.8l0.4,1.4C29.7,9,27.4,10,26,10.6c0-0.1-0.1-0.2-0.8-1.5C26.6,8.6,29.2,7.6,30.9,6.8z M26.8,2.2c1.6,0.5,3,1.1,4.4,2
		l-1,1.3c-1.3-0.9-2.7-1.6-4.2-2.1L26.8,2.2z M30,13.2h11.3v-1.6H30V13.2z M30,15.9h11.3v-1.6H30V15.9z M30,18.5h11.3v-1.6H30V18.5z
		"/>
	<path d="M61.9,16.2v6.6H60v-6.6h-5.7c-0.3,2.5-1.3,4.9-2.7,7.1L50,22.1c2.2-3,2.8-6.6,2.8-10.5V3.1h16.7v17.8c0,1.3-0.4,2-1.6,2.3
		c-1,0.1-2,0.1-3,0c-0.1-0.8-0.2-1.3-0.4-1.8c0.8,0.1,1.6,0.1,2.4,0c0.6,0,0.7-0.3,0.7-0.8v-4.3H61.9z M60,14.4v-4h-5.3v1.2
		c0,0.9,0,1.9-0.1,2.8L60,14.4z M60,8.7V4.8h-5.3v3.9L60,8.7z M67.5,8.7V4.8h-5.6v3.9L67.5,8.7z M67.5,14.4v-4h-5.6v4H67.5z"/>
	<path d="M85.6,23.2h-2v-13c-2.3,2.6-4.9,4.9-7.9,6.6l-1.5-1.4c4.5-2.4,8.2-6,10.6-10.4H74.4V3.3h20.7v1.8H87
		c-0.4,0.8-0.9,1.7-1.4,2.5L85.6,23.2z M87.4,8.6c2.8,2.1,5.4,4.3,7.9,6.7l-1.6,1.4c-2.4-2.5-5-4.8-7.7-6.9L87.4,8.6z"/>
	<path d="M104,20.4v-1.8h-4.6v-1.4h4.6v-1.4h-4.5V8.5h4.5V7.2h-5.3V5.8h5.3V4.5c-1.4,0.2-2.9,0.2-4.3,0.2l-0.6-1.4
		c3.5,0,7-0.4,10.4-1.4l0.9,1.3c-1.5,0.4-3,0.7-4.6,0.9v1.6h5v1.4h-5v1.4h4.6v7.2h-4.6v1.5h4.5v1.4h-4.5v1.7
		c1.6-0.1,3.2-0.2,4.4-0.4v1.1c2.1-3,2.8-7.2,3.1-11.9h-2.3V7.4h2.3c0-1.7,0.1-3.5,0.1-5.3h1.8c0,1.8,0,3.6-0.1,5.3h4.3
		c-0.2,9.4-0.5,14.6-1.3,15.4c-0.4,0.3-0.9,0.5-1.4,0.5c-0.5,0-1.6,0-2.3,0l-0.2-1.8c0.6,0,1.3,0,1.9,0c0.2,0,0.4,0,0.5-0.2
		c0.5-0.5,0.7-4.5,0.9-12.2h-2.5c-0.3,5.9-1.3,11-4.3,14.2l-1.7-0.8c0.3-0.4,0.7-0.8,1-1.1c-3.3,0.4-8.3,0.8-11.2,1.1l-0.3-1.6
		C100,20.7,102,20.5,104,20.4z M101.3,11.6h2.7V9.8h-2.7V11.6z M101.3,14.5h2.7v-1.8h-2.7V14.5z M108.6,11.6V9.8h-2.8v1.7
		L108.6,11.6z M108.6,14.5v-1.8h-2.8v1.8H108.6z"/>
	<path d="M124.6,23l-1.7-1c1.5-2.7,2.2-5.8,2.1-8.9V8.7h4.4c-0.3-1-0.7-2-1.1-2.9h-4.4V4.3h8.8V2h2v2.3h9v1.6h-4.4
		c-0.4,0.9-0.9,1.9-1.5,2.9h5.8v1.5h-16.7v2.9C126.9,16.6,126.2,20,124.6,23z M126.7,22.6v-1.5h7.5v-2.7h-4.7v-1.5h4.6v-2.5h-3.8
		c-0.5,0.9-1.2,1.8-1.9,2.6l-1.5-0.8c1.4-1.6,2.5-3.4,3.2-5.4l1.8,0.1c-0.2,0.7-0.5,1.3-0.8,1.9h2.9v-2.1h1.9v2.1h6.1v1.5h-6.1v2.5
		h4.9v1.5h-4.9v2.7h7.8v1.6L126.7,22.6z M131.3,8.7h4.5c0.5-1,1-2,1.3-2.9h-6.9C130.7,6.7,131.1,7.7,131.3,8.7L131.3,8.7z"/>
	<path d="M164.6,10.6h-12.3V9.1c-1.1,0.7-2.3,1.3-3.6,1.9l-1.1-1.7c3.9-1.5,7.3-4,9.7-7.3h1.9c2.6,3.3,6.1,5.8,10,7.3l-1.2,1.7
		c-1.2-0.5-2.4-1.1-3.5-1.8L164.6,10.6z M152.2,20.5c1-1.9,1.9-3.8,2.7-5.7h-6.1V13H168v1.7h-11c-0.7,1.6-1.7,3.7-2.8,5.6
		c3.1-0.2,6.6-0.4,9.4-0.7c-0.9-1-1.8-2-2.9-3.1l1.5-0.9c2.2,1.9,4.1,4.2,5.7,6.6l-1.7,1.1c-0.4-0.7-0.9-1.4-1.4-2.1
		c-4.6,0.5-11.6,1.1-15.6,1.4l-0.4-1.9C149.7,20.6,150.9,20.5,152.2,20.5L152.2,20.5z M164,8.9c-2.1-1.4-4-3.1-5.7-5.1
		c-1.6,2-3.5,3.7-5.5,5.1H164z"/>
	<path d="M177.9,23.2h-1.9v-7.9c-0.9,0.9-1.9,1.8-2.9,2.5l-1.1-1.5c3.1-2.1,5.6-5.1,7.1-8.5h-6.6V6h3.6V2h1.9v4h2.4l1.1,0.5
		c-0.7,2.1-1.7,4.1-3,5.9c1.4,1.3,2.9,2.8,3.8,3.7l-1.4,1.3c-0.9-1.2-1.9-2.3-2.9-3.4L177.9,23.2z M185.9,20.8v-9.5h-4.4V9.5h4.4V2
		h2v7.5h4.5v1.8h-4.5v9.5h5.5v1.8h-13.2v-1.8L185.9,20.8z"/>
	<path d="M198,13.8c0-3.7,0.5-7.3,1.3-10.9l2.1,0.4c-0.9,3.4-1.3,7-1.3,10.5c-0.1,2.8,0.3,5.6,1.2,8.2l-2.1,0.6
		C198.3,19.7,197.9,16.7,198,13.8L198,13.8z M215.3,20.9c-1.4,0.1-3.1,0.2-4.4,0.2c-4.1,0-7.1-0.7-7.1-3c0.1-1.2,0.4-2.4,1-3.5
		l1.8,0.4c-0.5,0.8-0.8,1.7-0.9,2.6c0,1.3,1.8,1.7,5.1,1.7c1.5,0,3-0.1,4.5-0.4L215.3,20.9z M211.5,6c1.1,0,2.4,0,3.4,0v1.9
		c-1.1-0.1-2.6-0.1-3.9-0.1c-2.3,0-4.8,0.1-6.8,0.4L204,6.3C206.1,6.1,208.9,6,211.5,6L211.5,6z"/>
	<path d="M226.2,6.4V2.7h2v3.7h5.6v1.8h-5.6v3.7c1.2-0.3,2.5-0.5,3.8-0.5c4.2,0,6.3,2,6.3,5.5c0,3.3-2,5.5-6.2,5.5
		c-0.6,0-1.2,0-1.8-0.1v-1.9c0.6,0.1,1.2,0.1,1.8,0.1c3,0,4.2-1.4,4.2-3.7s-1.4-3.8-4.7-3.8c-1.2,0-2.3,0.2-3.4,0.5v5.3
		c0,2.4-0.9,3.6-3,3.6c-2.9,0-4.5-1.6-4.5-3.4c0-2.7,2.3-5.2,5.6-6.6V8.2h-5.4V6.4H226.2z M222.5,18.8c0,1,0.8,1.8,2.4,1.8
		c1.1,0,1.4-0.5,1.4-1.8v-4.4C224,15.6,222.4,17.3,222.5,18.8L222.5,18.8z M240.3,9l-1.4,1.3c-1.2-1.5-2.6-2.7-4.1-3.8l1.2-1.4
		C237.6,6.3,239,7.5,240.3,9z"/>
	<path d="M248.1,3.2c-0.6,3.1-0.9,6.2-0.9,9.3c-0.1,2.8,0.4,5.7,1.3,8.3l-2,0.6c-0.9-2.8-1.4-5.8-1.3-8.7c0-3.3,0.3-6.6,0.8-9.8
		L248.1,3.2z M257.8,8.1c-0.1-1.6-0.2-3.4-0.4-5.2l2.1-0.1c0.1,2,0.2,3.8,0.2,5.4h3.4v1.9h-3.3v0.8c0,6.1-0.9,9.4-4.5,11.9l-1.6-1.4
		c3.4-2.2,4.2-5.1,4.2-10.6c0-0.2,0-0.5,0-0.8h-7.4V8.1H257.8z"/>
	<path d="M280.3,3.7l1,1.4c-2.1,1.8-5.4,4.6-7.1,6.2c1.2-0.5,2.5-0.8,3.8-0.8c3-0.1,5.6,2.2,5.7,5.2c0,0.2,0,0.3,0,0.5
		c0,3.9-2.9,6.2-8.1,6.2c-3.3,0-5.2-1.4-5.2-3.4c0-1.9,1.8-3.3,4.2-3.3c2.6,0,4.1,1.8,4.5,4.5c1.7-0.5,2.7-2.1,2.6-3.9
		c0-2.2-1.7-4-3.9-4.1c-0.1,0-0.2,0-0.4,0c-1.5,0-2.9,0.4-4.3,0.9c-2.1,1.1-4.1,2.5-5.8,4.2l-1.3-1.5c3.4-2.5,9.1-7.6,11.8-10.1
		c-2.2,0.2-6.8,0.4-9.3,0.4l-0.1-1.9C271.3,4.3,277.3,4,280.3,3.7z M274.6,17.3c-1.5,0-2.5,0.7-2.5,1.7s1.1,1.7,3.3,1.7
		c0.7,0,1.3,0,2-0.1C277.2,18.6,276.3,17.3,274.6,17.3L274.6,17.3z"/>
	<path d="M299.5,20.5v1.4h-6.3v1h-1.6v-6.7c-0.3,0.5-0.5,0.9-0.9,1.3l-0.3-0.4c-0.2,1.9-0.7,3.8-1.4,5.6l-1.3-1.2
		c1-3.3,1.5-6.7,1.4-10.1V5.6h9.5v4.7h-8v1c0,1.3,0,2.6-0.2,3.9c0.9-1.5,1.5-3.2,1.9-4.9l1.4,0.3c-0.1,0.6-0.3,1.2-0.5,1.7h1.7
		c0.3-0.7,0.5-1.3,0.6-2l1.5,0.3c-0.2,0.5-0.4,1.1-0.7,1.6h2.9v1.3h-2.6v1.5h2.4v1.1h-2.4v1.5h2.4V19h-2.4v1.6L299.5,20.5z M299,2.8
		v1.5h-10.7V2.8H299z M297,8.9v-2h-6.2v2H297z M295.2,15.2v-1.5h-2v1.5L295.2,15.2z M295.2,17.9v-1.5h-2v1.5L295.2,17.9z
		 M295.2,20.6V19h-2v1.6L295.2,20.6z M303.7,19.3c-0.9,1.5-1.9,2.8-3.2,3.9l-1.5-0.9c1.2-1,2.2-2.2,3.1-3.6L303.7,19.3z M303,6.5
		c0.2-0.7,0.4-1.5,0.5-2.2h-3.8V2.8h9.8v1.6h-4c-0.2,0.7-0.4,1.4-0.7,2.2h4v12.1h-8.6V6.5L303,6.5z M302,10.1h5V8h-5V10.1z
		 M302,13.6h5v-2.1h-5V13.6z M302,17h5v-2.1h-5V17z M306.8,18.7c1.1,1.2,2.1,2.5,3,3.8l-1.6,0.7c-0.8-1.4-1.8-2.7-2.8-3.9
		L306.8,18.7z"/>
	<path d="M318.7,22.5v0.7h-1.8v-6.5c-0.9,0.3-1.9,0.6-2.9,0.8l-1.1-1.5c3.2-0.6,6.2-1.7,9.1-3.2c-1.1-0.8-2.1-1.6-3-2.6
		c-1.1,1.1-2.3,2-3.6,2.8l-1.5-1.1c2.7-1.4,5-3.6,6.5-6.2h-4.6v2.8h-1.8V4.1h8.6V2h2v2h8.8v4.5h-1.9V5.7h-10.9l1.8,0.2
		c-0.2,0.5-0.5,0.9-0.8,1.3h6.6l1.4,0.6c-1,2-2.5,3.6-4.4,4.9c2.9,1.5,5.9,2.5,9.1,3.1l-1.2,1.7c-0.9-0.2-1.9-0.5-2.8-0.8v6.5h-1.9
		v-0.7H318.7z M328.5,16.1c-1.7-0.6-3.4-1.4-5-2.3c-1.5,0.9-3.2,1.7-4.9,2.3H328.5z M328.3,20.9v-3.2h-9.6v3.2H328.3z M320.2,9
		c1,1.1,2.1,2,3.4,2.8c1.2-0.8,2.3-1.8,3.2-3h-6.3L320.2,9z"/>
	<path d="M340.8,12.7c-1.1-1.2-2.3-2.2-3.7-3l1.1-1.2c1.4,0.8,2.8,1.8,3.9,3L340.8,12.7z M339,23.1l-1.6-1c1.4-2.3,2.5-4.6,3.4-7.1
		l1.4,1C341.3,18.4,340.2,20.8,339,23.1z M341.1,6.3c-1-1.1-2.1-2-3.4-2.8l1.2-1.2c1.3,0.8,2.5,1.7,3.6,2.7L341.1,6.3z M346.4,20.7
		v-6.3h1.3v3.9h1.8v-5.2h-4.6v10.2h-1.7V11.5h6.2V9.8h-7V8.2h4V5.9H343V4.3h3.5V2h1.8v2.3h4.3V2h1.8v2.3h3.6v1.6h-3.6v2.3h4v1.6
		h-7.1v1.7h6.5v10c0,1-0.3,1.5-1.1,1.7c-0.9,0.1-1.8,0.1-2.6,0l-0.2-1.6c0.6,0,1.5,0,1.8,0c0.2,0,0.4-0.1,0.4-0.4c0,0,0-0.1,0-0.1
		v-8.1H351v5.2h2v-3.9h1.3v5.2h-6.6v1.1L346.4,20.7z M352.4,8.2V5.9h-4.2v2.3H352.4z"/>
	<path d="M371.4,20v-9.4h-6.7V2.8h15.4v7.8h-6.8v3.6h7.9V16h-7.9v4.7c0.8,0.1,1.7,0.2,2.5,0.2c1,0,6,0,7.1,0l-0.4,1.9
		c-1.1,0-6,0-7.1,0c-4-0.1-6.8-1.2-9-4.6c-0.7,1.9-1.8,3.6-3.1,5.1l-1.7-1c2.6-2.7,4.2-6.3,4.4-10.1l1.9,0.2
		c-0.1,1.2-0.3,2.4-0.6,3.5C368.1,17.7,369.6,19.1,371.4,20z M366.6,8.8h11.5V4.6h-11.5V8.8z"/>
	<path d="M394.5,8.1V6.3h1.8v1.8h4.9V6.3h1.9v1.8h4.8v1.5h-4.8v3.7h-8.6V9.6h-4v0.2c0.1,4.5-0.7,9-2.3,13.2l-1.7-1.1
		c1.6-3.8,2.3-8,2.1-12.1V4.2h8.4V2h2v2.2h9v1.6h-17.5v2.3H394.5z M408.1,21.7l-1.1,1.6c-2.8-0.4-5.6-1.2-8.2-2.4
		c-2.4,1.1-5,1.9-7.6,2.4l-1.1-1.5c2.4-0.3,4.8-0.9,7-1.9c-1.4-0.8-2.6-1.9-3.6-3.1l1.5-0.7h-3.7v-1.5h12.1l1.4,0.5
		c-0.9,2-2.4,3.6-4.2,4.8C403,20.8,405.5,21.4,408.1,21.7L408.1,21.7z M398.9,19c1.3-0.7,2.4-1.7,3.2-2.9h-6.9
		C396.2,17.3,397.5,18.3,398.9,19z M396.4,9.6v2.2h4.9V9.6L396.4,9.6z"/>
	<path class="st0" d="M85.7,210.8l-2.3-2.9c9.5-2.5,19.9-7.5,25.9-14.2H92.2c-0.4,1.2-0.8,2.4-1.2,3.4l-3.6-0.3
		c1.9-5.2,3.5-10.5,4.9-15.8h19.1v-7.2h-22v-3h47.1v13.1h-21.4v6.8h24.3c-1.3,11.2-2.9,16.4-5.1,17.4c-0.9,0.4-1.9,0.6-2.9,0.6
		c-1.4,0.1-4.4-0.1-6.2-0.1l-0.4-3.3c1.7,0.1,4.5,0.1,5.8,0.1c0.5,0,1-0.1,1.4-0.3c1.3-0.6,2.5-3.9,3.4-11.4h-20.4v20.1h-3.7v-17.8
		C105,202.9,95,208,85.7,210.8z M106.7,168.7l-3.3,1.1c-0.9-2.6-2.1-5.1-3.7-7.3h-5.3c-2.2,3.2-4.8,6.1-7.8,8.7l-3-1.8
		c4.9-3.8,8.8-8.9,11.2-14.7l3.3,0.7c-0.6,1.4-1.2,2.9-1.9,4.2h17.3v2.9h-10.1C104.7,164.4,105.8,166.5,106.7,168.7L106.7,168.7z
		 M111.4,190.6v-6.8H95.2c-0.7,2.2-1.4,4.5-2,6.8H111.4z M135.6,168.9l-3.3,1.3c-1.2-2.8-2.8-5.4-4.7-7.7h-6.8c-2.1,3-4.6,5.7-7.5,8
		l-3-1.8c4.9-3.6,8.6-8.5,10.8-14.1l3.4,0.6c-0.5,1.5-1.2,2.9-1.9,4.3h20.4v2.9h-11.3C133.2,164.4,134.5,166.6,135.6,168.9
		L135.6,168.9z M115.1,180.9h17.7v-7.2h-17.6L115.1,180.9z"/>
	<path class="st0" d="M179.2,212.8v-93.9l-19.8,17.4V124l19.8-17.1h10.7v105.8H179.2z"/>
	<path class="st0" d="M231.5,212.2h-3.6v-36c-2.1,3.8-4.5,7.4-7.1,10.9l-2.3-2.9c7-9.4,12.3-20,15.6-31.2l3.6,0.9
		c-1.6,5.3-3.6,10.4-6,15.4L231.5,212.2z M259.8,206c3.3-11,6.1-22.2,8.2-33.6l3.8,0.8c-1.9,8.9-5.1,21.6-8.6,32.7h15.5v3.4h-43.4
		V206H259.8z M254.7,165.4v-12.3h3.7v12.3h18.8v3.4h-39.9v-3.4H254.7z M245.8,172.9c2.3,9.6,4,19.3,5.1,29.1l-3.5,0.9
		c-1.1-9.8-2.8-19.5-5.1-29.1L245.8,172.9z"/>
</g>
<g>
	<path class="st0" d="M114.6,59.3c0-3.6-2.3-6.2-6.7-6.2c-2.7,0-5.9,1-8.6,2.5l-0.7-2.4c2.8-1.6,6.3-2.6,9.4-2.6
		c5.4,0,9.2,2.7,9.2,8.6c0,3.8-1.8,7.8-8.2,15c-3.5,3.9-6,6.3-7.9,8.1h17.1v2.4H97.9v-2.3c2.3-2.2,4.7-4.5,8.6-8.9
		C112.8,66.4,114.6,62.6,114.6,59.3L114.6,59.3z"/>
	<path class="st0" d="M153,77.1v10.8h-2.5V77.1h-20.1v-2.3h7.7V63.3h12.4V56h-10.3c-1.9,3.3-4.3,6.3-6.9,8.7l-2.2-1.4
		c4.3-3.9,7.9-9,9.9-15.1l2.5,0.3c-0.6,1.7-1.3,3.5-2,5.1h27.3V56H153v7.2h13.8v2.3H153v9.3H170v2.3H153z M150.4,74.8v-9.3h-9.9v9.3
		H150.4z"/>
	<path class="st0" d="M197.8,85.2c4.8,0.1,14.9,0.1,20.1-0.1l-0.3,2.2c-5.1,0.1-15.1,0.1-20.1,0c-5.2-0.1-8.5-1.4-11.9-5.1
		c-2.6,2.4-4.9,4.2-6.9,5.8l-1.1-2.2c1.9-1.4,4.2-3.1,6.6-5.3V68.7h-6v-2.3h8.3v13.7C189.8,84,193,85.1,197.8,85.2z M180.7,49.4
		c2.7,2.8,4.8,5.5,6.2,7.9l-2.2,1.3c-1.3-2.5-3.3-5.2-6-8L180.7,49.4z M201.5,76.5v-3.9h-10V57.8h10v-3.6h-12.2v-2h12.2v-3.9h2.4
		v3.9h12.7v2h-12.7v3.6h10.5v14.9h-10.5v3.9h13.5v2.1h-13.5v5.3h-2.4v-5.3h-12.9v-2.1H201.5z M193.8,64.3h7.7v-4.7h-7.7V64.3z
		 M193.8,70.8h7.7V66h-7.7V70.8z M212,64.3v-4.7h-8.1v4.7H212z M212,70.8V66h-8.1v4.8H212z"/>
	<path class="st0" d="M232,73.1c-0.5,4.1-1.7,8.2-3.1,11.3l-2-0.8c1.4-3,2.6-7,3-10.9L232,73.1z M236.9,88h-2.3V69.4
		c-2.7,0.3-5.3,0.6-7.1,0.7L227,68c0.8,0,1.7-0.1,2.8-0.2c1.4-1.8,2.7-3.7,4-5.5c-1.6-2-3.9-4.6-6.3-6.5c1-1.4,1.1-1.6,1.2-1.7
		c0.7,0.5,1.3,1.1,1.9,1.7c1.8-2.7,3.5-5.5,4.5-7.6l2,0.9c-1.2,2.3-3.1,5.4-5.1,8.1c1.1,1.1,2.1,2.3,3,3.3c2-3.1,3.7-5.9,4.9-8.2
		l2.1,1c-2.2,4-5.8,9.4-9.6,14.3c2.5-0.2,5.3-0.4,7.5-0.6c-0.8-1.4-1.7-2.7-2.7-3.9l1.7-0.9c2,2.4,3.7,5.3,4.5,7.4v-3.9h22.7v6.8
		H264v-4.8h-18.4v4.8h-2.2v-2.7c-1.4,0.7-1.6,0.7-1.7,0.9c-0.2-0.6-0.5-1.3-0.9-2c-1.2,0.1-2.5,0.3-4,0.4V88z M241.4,72.5
		c1.1,3,2,6.4,2.3,8.8c-1.1,0.3-1.6,0.4-2.1,0.6c-0.3-2.5-1.1-5.9-2.2-8.8L241.4,72.5z M251.7,71.2c-0.6,8.1-2.2,13.6-9.3,16.9
		l-1.7-1.7c6.8-2.8,8.3-7.9,8.7-15.3L251.7,71.2z M253.5,59.9v-4.7h-10.7v-2.1h10.7v-4.8h2.4v4.8h11v2.1h-11v4.7h9.1v2h-20v-2H253.5
		z M258.3,70.8v12.5c0,1.6,0.3,1.8,1.4,1.9c0.9,0,2.5,0,3.5,0c1.2,0,1.4-0.2,1.4-4.6l2.2,0.4c-0.3,5.9-0.7,6.4-3.4,6.5
		c-1.2,0-3,0-4.1,0c-2.7-0.1-3.4-0.8-3.4-4.2V70.8H258.3z"/>
</g>
</svg>
