<svg xmlns="http://www.w3.org/2000/svg" xmlns:xlink="http://www.w3.org/1999/xlink" viewBox="0 0 116.29 159"><defs><style>.cls-1{isolation:isolate;}.cls-2{fill:url(#名称未設定グラデーション_20);}.cls-3{opacity:0.21;fill:url(#名称未設定グラデーション_158);}.cls-15,.cls-3,.cls-9{mix-blend-mode:multiply;}.cls-4{fill:url(#名称未設定グラデーション_20-2);}.cls-5{fill:url(#名称未設定グラデーション_258);}.cls-6{fill:url(#名称未設定グラデーション_20-3);}.cls-7{fill:url(#名称未設定グラデーション_20-4);}.cls-8{fill:url(#名称未設定グラデーション_20-5);}.cls-9{opacity:0.4;}.cls-10{fill:url(#名称未設定グラデーション_409);}.cls-11{fill:url(#名称未設定グラデーション_20-6);}.cls-12{fill:url(#名称未設定グラデーション_20-7);}.cls-13{fill:url(#名称未設定グラデーション_20-8);}.cls-14{fill:url(#名称未設定グラデーション_20-9);}.cls-15{opacity:0.03;}.cls-16{fill:url(#名称未設定グラデーション_409-2);}.cls-17{fill:url(#名称未設定グラデーション_409-3);}</style><linearGradient id="名称未設定グラデーション_20" x1="48.18" y1="122.57" x2="48.18" y2="53.22" gradientUnits="userSpaceOnUse"><stop offset="0" stop-color="#ffbe1f"/><stop offset="0.06" stop-color="#ffaa1f"/><stop offset="0.15" stop-color="#ff931f"/><stop offset="0.26" stop-color="#ff821f"/><stop offset="0.38" stop-color="#ff761f"/><stop offset="0.56" stop-color="#ff6f1f"/><stop offset="1" stop-color="#ff6d1f"/></linearGradient><linearGradient id="名称未設定グラデーション_158" x1="48.18" y1="122.57" x2="48.18" y2="53.22" gradientUnits="userSpaceOnUse"><stop offset="0" stop-color="#646464"/><stop offset="0.23" stop-color="#676767"/><stop offset="0.39" stop-color="#707070"/><stop offset="0.53" stop-color="gray"/><stop offset="0.66" stop-color="#969696"/><stop offset="0.78" stop-color="#b2b2b2"/><stop offset="0.89" stop-color="#d4d4d4"/><stop offset="0.99" stop-color="#fdfdfd"/><stop offset="1" stop-color="#fff"/></linearGradient><linearGradient id="名称未設定グラデーション_20-2" x1="55.79" y1="59.3" x2="55.79" y2="160.62" xlink:href="#名称未設定グラデーション_20"/><linearGradient id="名称未設定グラデーション_258" x1="56.45" y1="32.78" x2="56.45" y2="61.87" gradientUnits="userSpaceOnUse"><stop offset="0" stop-color="#ffbe1f"/><stop offset="0.38" stop-color="#ff9a1f"/><stop offset="0.78" stop-color="#ff791f"/><stop offset="1" stop-color="#ff6d1f"/></linearGradient><linearGradient id="名称未設定グラデーション_20-3" x1="29.71" y1="25.66" x2="92.66" y2="25.66" xlink:href="#名称未設定グラデーション_20"/><linearGradient id="名称未設定グラデーション_20-4" x1="29.71" y1="25.66" x2="92.66" y2="25.66" xlink:href="#名称未設定グラデーション_20"/><linearGradient id="名称未設定グラデーション_20-5" x1="23.17" y1="96.85" x2="23.17" y2="96.85" xlink:href="#名称未設定グラデーション_20"/><linearGradient id="名称未設定グラデーション_409" x1="71.27" y1="-10.24" x2="71.27" y2="120.14" gradientUnits="userSpaceOnUse"><stop offset="0" stop-color="#646464"/><stop offset="0.12" stop-color="#6d6d6d"/><stop offset="0.32" stop-color="#848484"/><stop offset="0.56" stop-color="#aaa"/><stop offset="0.84" stop-color="#dedede"/><stop offset="1" stop-color="#fff"/></linearGradient><linearGradient id="名称未設定グラデーション_20-6" x1="98.38" y1="19.33" x2="116.29" y2="19.33" xlink:href="#名称未設定グラデーション_20"/><linearGradient id="名称未設定グラデーション_20-7" x1="98.38" y1="19.33" x2="116.29" y2="19.33" gradientTransform="translate(-91.83 96.33)" xlink:href="#名称未設定グラデーション_20"/><linearGradient id="名称未設定グラデーション_20-8" x1="-1.5" y1="100.67" x2="10.5" y2="100.67" gradientTransform="translate(1.5 4.61)" xlink:href="#名称未設定グラデーション_20"/><linearGradient id="名称未設定グラデーション_20-9" x1="96.17" y1="30.5" x2="104.5" y2="30.5" xlink:href="#名称未設定グラデーション_20"/><linearGradient id="名称未設定グラデーション_409-2" x1="98.38" y1="19.33" x2="116.29" y2="19.33" xlink:href="#名称未設定グラデーション_409"/><linearGradient id="名称未設定グラデーション_409-3" x1="96.17" y1="30.5" x2="104.5" y2="30.5" xlink:href="#名称未設定グラデーション_409"/></defs><title>whatweare-5-icon</title><g class="cls-1"><g id="レイヤー_2" data-name="レイヤー 2"><g id="design"><g id="TOP"><line class="cls-2" x1="44.02" y1="119.94" x2="52.33" y2="53.3"/><line class="cls-3" x1="44.02" y1="119.94" x2="52.33" y2="53.3"/><polygon class="cls-4" points="69.01 132.67 56.68 157.2 56.52 157.51 55.79 159 42.57 132.67 42.66 131.61 42.7 131.08 52.29 52.94 52.63 48.66 58.95 48.66 59.29 52.94 69.01 132.67"/><path class="cls-5" d="M69.46,39.62l-.47.93L60.94,53.13H51L43.9,40.55l-.47-.93c-1.84-3.81.47-8.56,4.17-8.56H65.29C69,31.06,71.31,35.82,69.46,39.62Z"/><polygon class="cls-6" points="58.96 29.82 69.41 51.31 86.85 5.81 82.73 0 58.96 29.82"/><polygon class="cls-7" points="53.94 29.82 43.49 51.31 26.05 5.81 30.17 0 53.94 29.82"/><path class="cls-8" d="M23.17,96.85"/><g class="cls-9"><polygon class="cls-10" points="58.96 29.82 59.57 31.07 55.68 31.07 55.68 48.66 55.68 53.13 55.68 158.79 55.79 159 56.52 157.51 56.68 157.21 69.01 132.67 59.31 53.13 60.94 53.13 66.26 44.83 69.41 51.31 86.85 5.81 82.73 0 58.96 29.82"/></g><polygon class="cls-11" points="108.36 20.36 116.29 19.33 108.36 18.3 107.33 10.38 106.3 18.3 98.38 19.33 106.3 20.36 107.33 28.29 108.36 20.36"/><polygon class="cls-12" points="16.53 116.7 24.46 115.67 16.53 114.63 15.5 106.71 14.47 114.64 6.54 115.67 14.47 116.7 15.5 124.62 16.53 116.7"/><polygon class="cls-13" points="6.69 105.97 12 105.28 6.69 104.59 6 99.28 5.31 104.59 0 105.28 5.31 105.97 6 111.28 6.69 105.97"/><polygon class="cls-14" points="100.81 30.98 104.5 30.5 100.81 30.02 100.33 26.33 99.85 30.02 96.17 30.5 99.85 30.98 100.33 34.67 100.81 30.98"/><g class="cls-15"><polygon class="cls-16" points="108.36 20.36 116.29 19.33 108.36 18.3 107.33 10.38 106.3 18.3 98.38 19.33 106.3 20.36 107.33 28.29 108.36 20.36"/></g><g class="cls-15"><polygon class="cls-17" points="100.81 30.98 104.5 30.5 100.81 30.02 100.33 26.33 99.85 30.02 96.17 30.5 99.85 30.98 100.33 34.67 100.81 30.98"/></g></g></g></g></g></svg>