<svg xmlns="http://www.w3.org/2000/svg" viewBox="0 0 671.67 74.56"><title>wju-index</title><g id="レイヤー_2" data-name="レイヤー 2"><g id="design"><path d="M16.59,74H13.23L0,.53H2.31L15.12,70.88,27.83.95h2.84l12,69.52L55,.53h2.1L44.11,74h-3L29.19,6Z"/><path d="M98,38.33V74H95.67V.53H98v35.7h26.57V.53h2.31V74h-2.31V38.33Z"/><path d="M182.41,44.31,165.29.53h2.31l16.07,40.64L199.74.53h2.41L184.72,44.31V74h-2.31Z"/><path d="M286.79,71.83a30.19,30.19,0,0,0,4.41-.11c8.19-.74,11.87-5.25,11.87-15.54V.53h2.31V56.08c0,12.18-5,17.22-14,17.85a33.18,33.18,0,0,1-4.62.11Z"/><path d="M344,18.59C344,6.41,349.38,0,359.57,0c10.4,0,15.75,6.41,15.75,18.59V56c0,12.18-5.36,18.59-15.75,18.59C349.38,74.56,344,68.15,344,56Zm2.31,37.49c0,10.82,4.52,16.38,13.23,16.38S373,66.89,373,56.08V18.48C373,7.67,368.39,2.1,359.57,2.1s-13.23,5.57-13.23,16.38Z"/><path d="M416.38.53V74h-2.31V.53Z"/><path d="M457.44,74h-2.21V.53h3.26l25.83,68.78V.53h2.21V74h-2.84L457.44,3.89Z"/><path d="M574.32,56c0,8.82,3.15,16.49,12.92,16.49S600.15,64.79,600.15,56V.53h2.21V55.87c0,10.08-4,18.69-15.12,18.69S572,65.95,572,55.87V.53h2.31Z"/><path d="M671.56,18.27v1.37h-2.31V18.17c0-8.72-3.26-16.07-12.81-16.07s-12.92,7.25-12.92,16c0,18.8,28.14,18.27,28.14,38.22,0,10.19-4.2,18.27-15.44,18.27S640.9,66.47,640.9,56.29V52.72h2.21v3.68c0,8.93,3.47,16,13.13,16s13.13-7,13.13-16c0-18.59-28.14-18-28.14-38.22C641.21,7.46,645.73.11,656.34,0,667.47,0,671.56,8.19,671.56,18.27Z"/></g></g></svg>